%TF.GenerationSoftware,KiCad,Pcbnew,6.0.4-6f826c9f35~116~ubuntu20.04.1*%
%TF.CreationDate,2022-06-02T21:43:18+00:00*%
%TF.ProjectId,TFLORA01B,54464c4f-5241-4303-9142-2e6b69636164,rev?*%
%TF.SameCoordinates,Original*%
%TF.FileFunction,Legend,Bot*%
%TF.FilePolarity,Positive*%
%FSLAX46Y46*%
G04 Gerber Fmt 4.6, Leading zero omitted, Abs format (unit mm)*
G04 Created by KiCad (PCBNEW 6.0.4-6f826c9f35~116~ubuntu20.04.1) date 2022-06-02 21:43:18*
%MOMM*%
%LPD*%
G01*
G04 APERTURE LIST*
%ADD10C,0.150000*%
%ADD11C,0.120000*%
G04 APERTURE END LIST*
D10*
%TO.C,C19*%
X170736742Y-113287142D02*
X170784361Y-113239523D01*
X170831980Y-113096666D01*
X170831980Y-113001428D01*
X170784361Y-112858571D01*
X170689123Y-112763333D01*
X170593885Y-112715714D01*
X170403409Y-112668095D01*
X170260552Y-112668095D01*
X170070076Y-112715714D01*
X169974838Y-112763333D01*
X169879600Y-112858571D01*
X169831980Y-113001428D01*
X169831980Y-113096666D01*
X169879600Y-113239523D01*
X169927219Y-113287142D01*
X170831980Y-114239523D02*
X170831980Y-113668095D01*
X170831980Y-113953809D02*
X169831980Y-113953809D01*
X169974838Y-113858571D01*
X170070076Y-113763333D01*
X170117695Y-113668095D01*
X170831980Y-114715714D02*
X170831980Y-114906190D01*
X170784361Y-115001428D01*
X170736742Y-115049047D01*
X170593885Y-115144285D01*
X170403409Y-115191904D01*
X170022457Y-115191904D01*
X169927219Y-115144285D01*
X169879600Y-115096666D01*
X169831980Y-115001428D01*
X169831980Y-114810952D01*
X169879600Y-114715714D01*
X169927219Y-114668095D01*
X170022457Y-114620476D01*
X170260552Y-114620476D01*
X170355790Y-114668095D01*
X170403409Y-114715714D01*
X170451028Y-114810952D01*
X170451028Y-115001428D01*
X170403409Y-115096666D01*
X170355790Y-115144285D01*
X170260552Y-115191904D01*
%TO.C,C18*%
X161438857Y-111068142D02*
X161486476Y-111115761D01*
X161629333Y-111163380D01*
X161724571Y-111163380D01*
X161867428Y-111115761D01*
X161962666Y-111020523D01*
X162010285Y-110925285D01*
X162057904Y-110734809D01*
X162057904Y-110591952D01*
X162010285Y-110401476D01*
X161962666Y-110306238D01*
X161867428Y-110211000D01*
X161724571Y-110163380D01*
X161629333Y-110163380D01*
X161486476Y-110211000D01*
X161438857Y-110258619D01*
X160486476Y-111163380D02*
X161057904Y-111163380D01*
X160772190Y-111163380D02*
X160772190Y-110163380D01*
X160867428Y-110306238D01*
X160962666Y-110401476D01*
X161057904Y-110449095D01*
X159915047Y-110591952D02*
X160010285Y-110544333D01*
X160057904Y-110496714D01*
X160105523Y-110401476D01*
X160105523Y-110353857D01*
X160057904Y-110258619D01*
X160010285Y-110211000D01*
X159915047Y-110163380D01*
X159724571Y-110163380D01*
X159629333Y-110211000D01*
X159581714Y-110258619D01*
X159534095Y-110353857D01*
X159534095Y-110401476D01*
X159581714Y-110496714D01*
X159629333Y-110544333D01*
X159724571Y-110591952D01*
X159915047Y-110591952D01*
X160010285Y-110639571D01*
X160057904Y-110687190D01*
X160105523Y-110782428D01*
X160105523Y-110972904D01*
X160057904Y-111068142D01*
X160010285Y-111115761D01*
X159915047Y-111163380D01*
X159724571Y-111163380D01*
X159629333Y-111115761D01*
X159581714Y-111068142D01*
X159534095Y-110972904D01*
X159534095Y-110782428D01*
X159581714Y-110687190D01*
X159629333Y-110639571D01*
X159724571Y-110591952D01*
%TO.C,C12*%
X163345142Y-115503142D02*
X163392761Y-115455523D01*
X163440380Y-115312666D01*
X163440380Y-115217428D01*
X163392761Y-115074571D01*
X163297523Y-114979333D01*
X163202285Y-114931714D01*
X163011809Y-114884095D01*
X162868952Y-114884095D01*
X162678476Y-114931714D01*
X162583238Y-114979333D01*
X162488000Y-115074571D01*
X162440380Y-115217428D01*
X162440380Y-115312666D01*
X162488000Y-115455523D01*
X162535619Y-115503142D01*
X163440380Y-116455523D02*
X163440380Y-115884095D01*
X163440380Y-116169809D02*
X162440380Y-116169809D01*
X162583238Y-116074571D01*
X162678476Y-115979333D01*
X162726095Y-115884095D01*
X162535619Y-116836476D02*
X162488000Y-116884095D01*
X162440380Y-116979333D01*
X162440380Y-117217428D01*
X162488000Y-117312666D01*
X162535619Y-117360285D01*
X162630857Y-117407904D01*
X162726095Y-117407904D01*
X162868952Y-117360285D01*
X163440380Y-116788857D01*
X163440380Y-117407904D01*
%TO.C,C22*%
X174507142Y-113149142D02*
X174554761Y-113101523D01*
X174602380Y-112958666D01*
X174602380Y-112863428D01*
X174554761Y-112720571D01*
X174459523Y-112625333D01*
X174364285Y-112577714D01*
X174173809Y-112530095D01*
X174030952Y-112530095D01*
X173840476Y-112577714D01*
X173745238Y-112625333D01*
X173650000Y-112720571D01*
X173602380Y-112863428D01*
X173602380Y-112958666D01*
X173650000Y-113101523D01*
X173697619Y-113149142D01*
X173697619Y-113530095D02*
X173650000Y-113577714D01*
X173602380Y-113672952D01*
X173602380Y-113911047D01*
X173650000Y-114006285D01*
X173697619Y-114053904D01*
X173792857Y-114101523D01*
X173888095Y-114101523D01*
X174030952Y-114053904D01*
X174602380Y-113482476D01*
X174602380Y-114101523D01*
X173697619Y-114482476D02*
X173650000Y-114530095D01*
X173602380Y-114625333D01*
X173602380Y-114863428D01*
X173650000Y-114958666D01*
X173697619Y-115006285D01*
X173792857Y-115053904D01*
X173888095Y-115053904D01*
X174030952Y-115006285D01*
X174602380Y-114434857D01*
X174602380Y-115053904D01*
%TO.C,C4*%
X146845142Y-119579333D02*
X146892761Y-119531714D01*
X146940380Y-119388857D01*
X146940380Y-119293619D01*
X146892761Y-119150761D01*
X146797523Y-119055523D01*
X146702285Y-119007904D01*
X146511809Y-118960285D01*
X146368952Y-118960285D01*
X146178476Y-119007904D01*
X146083238Y-119055523D01*
X145988000Y-119150761D01*
X145940380Y-119293619D01*
X145940380Y-119388857D01*
X145988000Y-119531714D01*
X146035619Y-119579333D01*
X146273714Y-120436476D02*
X146940380Y-120436476D01*
X145892761Y-120198380D02*
X146607047Y-119960285D01*
X146607047Y-120579333D01*
%TO.C,C5*%
X145245142Y-115879333D02*
X145292761Y-115831714D01*
X145340380Y-115688857D01*
X145340380Y-115593619D01*
X145292761Y-115450761D01*
X145197523Y-115355523D01*
X145102285Y-115307904D01*
X144911809Y-115260285D01*
X144768952Y-115260285D01*
X144578476Y-115307904D01*
X144483238Y-115355523D01*
X144388000Y-115450761D01*
X144340380Y-115593619D01*
X144340380Y-115688857D01*
X144388000Y-115831714D01*
X144435619Y-115879333D01*
X144340380Y-116784095D02*
X144340380Y-116307904D01*
X144816571Y-116260285D01*
X144768952Y-116307904D01*
X144721333Y-116403142D01*
X144721333Y-116641238D01*
X144768952Y-116736476D01*
X144816571Y-116784095D01*
X144911809Y-116831714D01*
X145149904Y-116831714D01*
X145245142Y-116784095D01*
X145292761Y-116736476D01*
X145340380Y-116641238D01*
X145340380Y-116403142D01*
X145292761Y-116307904D01*
X145245142Y-116260285D01*
%TO.C,C1*%
X154245142Y-124293333D02*
X154292761Y-124245714D01*
X154340380Y-124102857D01*
X154340380Y-124007619D01*
X154292761Y-123864761D01*
X154197523Y-123769523D01*
X154102285Y-123721904D01*
X153911809Y-123674285D01*
X153768952Y-123674285D01*
X153578476Y-123721904D01*
X153483238Y-123769523D01*
X153388000Y-123864761D01*
X153340380Y-124007619D01*
X153340380Y-124102857D01*
X153388000Y-124245714D01*
X153435619Y-124293333D01*
X154340380Y-125245714D02*
X154340380Y-124674285D01*
X154340380Y-124960000D02*
X153340380Y-124960000D01*
X153483238Y-124864761D01*
X153578476Y-124769523D01*
X153626095Y-124674285D01*
%TO.C,C10*%
X159152857Y-115973142D02*
X159200476Y-116020761D01*
X159343333Y-116068380D01*
X159438571Y-116068380D01*
X159581428Y-116020761D01*
X159676666Y-115925523D01*
X159724285Y-115830285D01*
X159771904Y-115639809D01*
X159771904Y-115496952D01*
X159724285Y-115306476D01*
X159676666Y-115211238D01*
X159581428Y-115116000D01*
X159438571Y-115068380D01*
X159343333Y-115068380D01*
X159200476Y-115116000D01*
X159152857Y-115163619D01*
X158200476Y-116068380D02*
X158771904Y-116068380D01*
X158486190Y-116068380D02*
X158486190Y-115068380D01*
X158581428Y-115211238D01*
X158676666Y-115306476D01*
X158771904Y-115354095D01*
X157581428Y-115068380D02*
X157486190Y-115068380D01*
X157390952Y-115116000D01*
X157343333Y-115163619D01*
X157295714Y-115258857D01*
X157248095Y-115449333D01*
X157248095Y-115687428D01*
X157295714Y-115877904D01*
X157343333Y-115973142D01*
X157390952Y-116020761D01*
X157486190Y-116068380D01*
X157581428Y-116068380D01*
X157676666Y-116020761D01*
X157724285Y-115973142D01*
X157771904Y-115877904D01*
X157819523Y-115687428D01*
X157819523Y-115449333D01*
X157771904Y-115258857D01*
X157724285Y-115163619D01*
X157676666Y-115116000D01*
X157581428Y-115068380D01*
%TO.C,C6*%
X146845142Y-115879333D02*
X146892761Y-115831714D01*
X146940380Y-115688857D01*
X146940380Y-115593619D01*
X146892761Y-115450761D01*
X146797523Y-115355523D01*
X146702285Y-115307904D01*
X146511809Y-115260285D01*
X146368952Y-115260285D01*
X146178476Y-115307904D01*
X146083238Y-115355523D01*
X145988000Y-115450761D01*
X145940380Y-115593619D01*
X145940380Y-115688857D01*
X145988000Y-115831714D01*
X146035619Y-115879333D01*
X145940380Y-116736476D02*
X145940380Y-116546000D01*
X145988000Y-116450761D01*
X146035619Y-116403142D01*
X146178476Y-116307904D01*
X146368952Y-116260285D01*
X146749904Y-116260285D01*
X146845142Y-116307904D01*
X146892761Y-116355523D01*
X146940380Y-116450761D01*
X146940380Y-116641238D01*
X146892761Y-116736476D01*
X146845142Y-116784095D01*
X146749904Y-116831714D01*
X146511809Y-116831714D01*
X146416571Y-116784095D01*
X146368952Y-116736476D01*
X146321333Y-116641238D01*
X146321333Y-116450761D01*
X146368952Y-116355523D01*
X146416571Y-116307904D01*
X146511809Y-116260285D01*
%TO.C,C8*%
X158676666Y-117103142D02*
X158724285Y-117150761D01*
X158867142Y-117198380D01*
X158962380Y-117198380D01*
X159105238Y-117150761D01*
X159200476Y-117055523D01*
X159248095Y-116960285D01*
X159295714Y-116769809D01*
X159295714Y-116626952D01*
X159248095Y-116436476D01*
X159200476Y-116341238D01*
X159105238Y-116246000D01*
X158962380Y-116198380D01*
X158867142Y-116198380D01*
X158724285Y-116246000D01*
X158676666Y-116293619D01*
X158105238Y-116626952D02*
X158200476Y-116579333D01*
X158248095Y-116531714D01*
X158295714Y-116436476D01*
X158295714Y-116388857D01*
X158248095Y-116293619D01*
X158200476Y-116246000D01*
X158105238Y-116198380D01*
X157914761Y-116198380D01*
X157819523Y-116246000D01*
X157771904Y-116293619D01*
X157724285Y-116388857D01*
X157724285Y-116436476D01*
X157771904Y-116531714D01*
X157819523Y-116579333D01*
X157914761Y-116626952D01*
X158105238Y-116626952D01*
X158200476Y-116674571D01*
X158248095Y-116722190D01*
X158295714Y-116817428D01*
X158295714Y-117007904D01*
X158248095Y-117103142D01*
X158200476Y-117150761D01*
X158105238Y-117198380D01*
X157914761Y-117198380D01*
X157819523Y-117150761D01*
X157771904Y-117103142D01*
X157724285Y-117007904D01*
X157724285Y-116817428D01*
X157771904Y-116722190D01*
X157819523Y-116674571D01*
X157914761Y-116626952D01*
%TO.C,U1*%
X150619904Y-113798380D02*
X150619904Y-114607904D01*
X150572285Y-114703142D01*
X150524666Y-114750761D01*
X150429428Y-114798380D01*
X150238952Y-114798380D01*
X150143714Y-114750761D01*
X150096095Y-114703142D01*
X150048476Y-114607904D01*
X150048476Y-113798380D01*
X149048476Y-114798380D02*
X149619904Y-114798380D01*
X149334190Y-114798380D02*
X149334190Y-113798380D01*
X149429428Y-113941238D01*
X149524666Y-114036476D01*
X149619904Y-114084095D01*
%TO.C,R1*%
X167400166Y-112118380D02*
X167733500Y-111642190D01*
X167971595Y-112118380D02*
X167971595Y-111118380D01*
X167590642Y-111118380D01*
X167495404Y-111166000D01*
X167447785Y-111213619D01*
X167400166Y-111308857D01*
X167400166Y-111451714D01*
X167447785Y-111546952D01*
X167495404Y-111594571D01*
X167590642Y-111642190D01*
X167971595Y-111642190D01*
X166447785Y-112118380D02*
X167019214Y-112118380D01*
X166733500Y-112118380D02*
X166733500Y-111118380D01*
X166828738Y-111261238D01*
X166923976Y-111356476D01*
X167019214Y-111404095D01*
%TO.C,L2*%
X156422380Y-113779333D02*
X156422380Y-113303142D01*
X155422380Y-113303142D01*
X155517619Y-114065047D02*
X155470000Y-114112666D01*
X155422380Y-114207904D01*
X155422380Y-114446000D01*
X155470000Y-114541238D01*
X155517619Y-114588857D01*
X155612857Y-114636476D01*
X155708095Y-114636476D01*
X155850952Y-114588857D01*
X156422380Y-114017428D01*
X156422380Y-114636476D01*
%TO.C,L7*%
X171016266Y-111782380D02*
X171492457Y-111782380D01*
X171492457Y-110782380D01*
X170778171Y-110782380D02*
X170111504Y-110782380D01*
X170540076Y-111782380D01*
%TO.C,L1*%
X145160380Y-119213333D02*
X145160380Y-118737142D01*
X144160380Y-118737142D01*
X145160380Y-120070476D02*
X145160380Y-119499047D01*
X145160380Y-119784761D02*
X144160380Y-119784761D01*
X144303238Y-119689523D01*
X144398476Y-119594285D01*
X144446095Y-119499047D01*
%TO.C,L4*%
X156710380Y-124979333D02*
X156710380Y-124503142D01*
X155710380Y-124503142D01*
X156043714Y-125741238D02*
X156710380Y-125741238D01*
X155662761Y-125503142D02*
X156377047Y-125265047D01*
X156377047Y-125884095D01*
%TO.C,L6*%
X166695380Y-121118333D02*
X166695380Y-120642142D01*
X165695380Y-120642142D01*
X165695380Y-121880238D02*
X165695380Y-121689761D01*
X165743000Y-121594523D01*
X165790619Y-121546904D01*
X165933476Y-121451666D01*
X166123952Y-121404047D01*
X166504904Y-121404047D01*
X166600142Y-121451666D01*
X166647761Y-121499285D01*
X166695380Y-121594523D01*
X166695380Y-121785000D01*
X166647761Y-121880238D01*
X166600142Y-121927857D01*
X166504904Y-121975476D01*
X166266809Y-121975476D01*
X166171571Y-121927857D01*
X166123952Y-121880238D01*
X166076333Y-121785000D01*
X166076333Y-121594523D01*
X166123952Y-121499285D01*
X166171571Y-121451666D01*
X166266809Y-121404047D01*
%TO.C,L5*%
X160424666Y-124398380D02*
X160900857Y-124398380D01*
X160900857Y-123398380D01*
X159615142Y-123398380D02*
X160091333Y-123398380D01*
X160138952Y-123874571D01*
X160091333Y-123826952D01*
X159996095Y-123779333D01*
X159758000Y-123779333D01*
X159662761Y-123826952D01*
X159615142Y-123874571D01*
X159567523Y-123969809D01*
X159567523Y-124207904D01*
X159615142Y-124303142D01*
X159662761Y-124350761D01*
X159758000Y-124398380D01*
X159996095Y-124398380D01*
X160091333Y-124350761D01*
X160138952Y-124303142D01*
%TO.C,C13*%
X160900857Y-118473142D02*
X160948476Y-118520761D01*
X161091333Y-118568380D01*
X161186571Y-118568380D01*
X161329428Y-118520761D01*
X161424666Y-118425523D01*
X161472285Y-118330285D01*
X161519904Y-118139809D01*
X161519904Y-117996952D01*
X161472285Y-117806476D01*
X161424666Y-117711238D01*
X161329428Y-117616000D01*
X161186571Y-117568380D01*
X161091333Y-117568380D01*
X160948476Y-117616000D01*
X160900857Y-117663619D01*
X159948476Y-118568380D02*
X160519904Y-118568380D01*
X160234190Y-118568380D02*
X160234190Y-117568380D01*
X160329428Y-117711238D01*
X160424666Y-117806476D01*
X160519904Y-117854095D01*
X159615142Y-117568380D02*
X158996095Y-117568380D01*
X159329428Y-117949333D01*
X159186571Y-117949333D01*
X159091333Y-117996952D01*
X159043714Y-118044571D01*
X158996095Y-118139809D01*
X158996095Y-118377904D01*
X159043714Y-118473142D01*
X159091333Y-118520761D01*
X159186571Y-118568380D01*
X159472285Y-118568380D01*
X159567523Y-118520761D01*
X159615142Y-118473142D01*
%TO.C,C16*%
X167075142Y-119245142D02*
X167122761Y-119197523D01*
X167170380Y-119054666D01*
X167170380Y-118959428D01*
X167122761Y-118816571D01*
X167027523Y-118721333D01*
X166932285Y-118673714D01*
X166741809Y-118626095D01*
X166598952Y-118626095D01*
X166408476Y-118673714D01*
X166313238Y-118721333D01*
X166218000Y-118816571D01*
X166170380Y-118959428D01*
X166170380Y-119054666D01*
X166218000Y-119197523D01*
X166265619Y-119245142D01*
X167170380Y-120197523D02*
X167170380Y-119626095D01*
X167170380Y-119911809D02*
X166170380Y-119911809D01*
X166313238Y-119816571D01*
X166408476Y-119721333D01*
X166456095Y-119626095D01*
X166170380Y-121054666D02*
X166170380Y-120864190D01*
X166218000Y-120768952D01*
X166265619Y-120721333D01*
X166408476Y-120626095D01*
X166598952Y-120578476D01*
X166979904Y-120578476D01*
X167075142Y-120626095D01*
X167122761Y-120673714D01*
X167170380Y-120768952D01*
X167170380Y-120959428D01*
X167122761Y-121054666D01*
X167075142Y-121102285D01*
X166979904Y-121149904D01*
X166741809Y-121149904D01*
X166646571Y-121102285D01*
X166598952Y-121054666D01*
X166551333Y-120959428D01*
X166551333Y-120768952D01*
X166598952Y-120673714D01*
X166646571Y-120626095D01*
X166741809Y-120578476D01*
%TO.C,C17*%
X166747457Y-111957142D02*
X166795076Y-112004761D01*
X166937933Y-112052380D01*
X167033171Y-112052380D01*
X167176028Y-112004761D01*
X167271266Y-111909523D01*
X167318885Y-111814285D01*
X167366504Y-111623809D01*
X167366504Y-111480952D01*
X167318885Y-111290476D01*
X167271266Y-111195238D01*
X167176028Y-111100000D01*
X167033171Y-111052380D01*
X166937933Y-111052380D01*
X166795076Y-111100000D01*
X166747457Y-111147619D01*
X165795076Y-112052380D02*
X166366504Y-112052380D01*
X166080790Y-112052380D02*
X166080790Y-111052380D01*
X166176028Y-111195238D01*
X166271266Y-111290476D01*
X166366504Y-111338095D01*
X165461742Y-111052380D02*
X164795076Y-111052380D01*
X165223647Y-112052380D01*
%TO.C,C14*%
X161685142Y-121517142D02*
X161732761Y-121469523D01*
X161780380Y-121326666D01*
X161780380Y-121231428D01*
X161732761Y-121088571D01*
X161637523Y-120993333D01*
X161542285Y-120945714D01*
X161351809Y-120898095D01*
X161208952Y-120898095D01*
X161018476Y-120945714D01*
X160923238Y-120993333D01*
X160828000Y-121088571D01*
X160780380Y-121231428D01*
X160780380Y-121326666D01*
X160828000Y-121469523D01*
X160875619Y-121517142D01*
X161780380Y-122469523D02*
X161780380Y-121898095D01*
X161780380Y-122183809D02*
X160780380Y-122183809D01*
X160923238Y-122088571D01*
X161018476Y-121993333D01*
X161066095Y-121898095D01*
X161113714Y-123326666D02*
X161780380Y-123326666D01*
X160732761Y-123088571D02*
X161447047Y-122850476D01*
X161447047Y-123469523D01*
%TO.C,C11*%
X156685142Y-119803142D02*
X156732761Y-119755523D01*
X156780380Y-119612666D01*
X156780380Y-119517428D01*
X156732761Y-119374571D01*
X156637523Y-119279333D01*
X156542285Y-119231714D01*
X156351809Y-119184095D01*
X156208952Y-119184095D01*
X156018476Y-119231714D01*
X155923238Y-119279333D01*
X155828000Y-119374571D01*
X155780380Y-119517428D01*
X155780380Y-119612666D01*
X155828000Y-119755523D01*
X155875619Y-119803142D01*
X156780380Y-120755523D02*
X156780380Y-120184095D01*
X156780380Y-120469809D02*
X155780380Y-120469809D01*
X155923238Y-120374571D01*
X156018476Y-120279333D01*
X156066095Y-120184095D01*
X156780380Y-121707904D02*
X156780380Y-121136476D01*
X156780380Y-121422190D02*
X155780380Y-121422190D01*
X155923238Y-121326952D01*
X156018476Y-121231714D01*
X156066095Y-121136476D01*
%TO.C,C15*%
X164382657Y-118459542D02*
X164430276Y-118507161D01*
X164573133Y-118554780D01*
X164668371Y-118554780D01*
X164811228Y-118507161D01*
X164906466Y-118411923D01*
X164954085Y-118316685D01*
X165001704Y-118126209D01*
X165001704Y-117983352D01*
X164954085Y-117792876D01*
X164906466Y-117697638D01*
X164811228Y-117602400D01*
X164668371Y-117554780D01*
X164573133Y-117554780D01*
X164430276Y-117602400D01*
X164382657Y-117650019D01*
X163430276Y-118554780D02*
X164001704Y-118554780D01*
X163715990Y-118554780D02*
X163715990Y-117554780D01*
X163811228Y-117697638D01*
X163906466Y-117792876D01*
X164001704Y-117840495D01*
X162525514Y-117554780D02*
X163001704Y-117554780D01*
X163049323Y-118030971D01*
X163001704Y-117983352D01*
X162906466Y-117935733D01*
X162668371Y-117935733D01*
X162573133Y-117983352D01*
X162525514Y-118030971D01*
X162477895Y-118126209D01*
X162477895Y-118364304D01*
X162525514Y-118459542D01*
X162573133Y-118507161D01*
X162668371Y-118554780D01*
X162906466Y-118554780D01*
X163001704Y-118507161D01*
X163049323Y-118459542D01*
%TO.C,C9*%
X155299666Y-120673142D02*
X155347285Y-120720761D01*
X155490142Y-120768380D01*
X155585380Y-120768380D01*
X155728238Y-120720761D01*
X155823476Y-120625523D01*
X155871095Y-120530285D01*
X155918714Y-120339809D01*
X155918714Y-120196952D01*
X155871095Y-120006476D01*
X155823476Y-119911238D01*
X155728238Y-119816000D01*
X155585380Y-119768380D01*
X155490142Y-119768380D01*
X155347285Y-119816000D01*
X155299666Y-119863619D01*
X154823476Y-120768380D02*
X154633000Y-120768380D01*
X154537761Y-120720761D01*
X154490142Y-120673142D01*
X154394904Y-120530285D01*
X154347285Y-120339809D01*
X154347285Y-119958857D01*
X154394904Y-119863619D01*
X154442523Y-119816000D01*
X154537761Y-119768380D01*
X154728238Y-119768380D01*
X154823476Y-119816000D01*
X154871095Y-119863619D01*
X154918714Y-119958857D01*
X154918714Y-120196952D01*
X154871095Y-120292190D01*
X154823476Y-120339809D01*
X154728238Y-120387428D01*
X154537761Y-120387428D01*
X154442523Y-120339809D01*
X154394904Y-120292190D01*
X154347285Y-120196952D01*
%TO.C,C7*%
X155299666Y-122373142D02*
X155347285Y-122420761D01*
X155490142Y-122468380D01*
X155585380Y-122468380D01*
X155728238Y-122420761D01*
X155823476Y-122325523D01*
X155871095Y-122230285D01*
X155918714Y-122039809D01*
X155918714Y-121896952D01*
X155871095Y-121706476D01*
X155823476Y-121611238D01*
X155728238Y-121516000D01*
X155585380Y-121468380D01*
X155490142Y-121468380D01*
X155347285Y-121516000D01*
X155299666Y-121563619D01*
X154966333Y-121468380D02*
X154299666Y-121468380D01*
X154728238Y-122468380D01*
%TO.C,L3*%
X154624666Y-125598380D02*
X155100857Y-125598380D01*
X155100857Y-124598380D01*
X154386571Y-124598380D02*
X153767523Y-124598380D01*
X154100857Y-124979333D01*
X153958000Y-124979333D01*
X153862761Y-125026952D01*
X153815142Y-125074571D01*
X153767523Y-125169809D01*
X153767523Y-125407904D01*
X153815142Y-125503142D01*
X153862761Y-125550761D01*
X153958000Y-125598380D01*
X154243714Y-125598380D01*
X154338952Y-125550761D01*
X154386571Y-125503142D01*
%TO.C,C2*%
X146304666Y-113039142D02*
X146352285Y-113086761D01*
X146495142Y-113134380D01*
X146590380Y-113134380D01*
X146733238Y-113086761D01*
X146828476Y-112991523D01*
X146876095Y-112896285D01*
X146923714Y-112705809D01*
X146923714Y-112562952D01*
X146876095Y-112372476D01*
X146828476Y-112277238D01*
X146733238Y-112182000D01*
X146590380Y-112134380D01*
X146495142Y-112134380D01*
X146352285Y-112182000D01*
X146304666Y-112229619D01*
X145923714Y-112229619D02*
X145876095Y-112182000D01*
X145780857Y-112134380D01*
X145542761Y-112134380D01*
X145447523Y-112182000D01*
X145399904Y-112229619D01*
X145352285Y-112324857D01*
X145352285Y-112420095D01*
X145399904Y-112562952D01*
X145971333Y-113134380D01*
X145352285Y-113134380D01*
%TO.C,U2*%
X140699904Y-111904380D02*
X140699904Y-112713904D01*
X140652285Y-112809142D01*
X140604666Y-112856761D01*
X140509428Y-112904380D01*
X140318952Y-112904380D01*
X140223714Y-112856761D01*
X140176095Y-112809142D01*
X140128476Y-112713904D01*
X140128476Y-111904380D01*
X139699904Y-111999619D02*
X139652285Y-111952000D01*
X139557047Y-111904380D01*
X139318952Y-111904380D01*
X139223714Y-111952000D01*
X139176095Y-111999619D01*
X139128476Y-112094857D01*
X139128476Y-112190095D01*
X139176095Y-112332952D01*
X139747523Y-112904380D01*
X139128476Y-112904380D01*
%TO.C,C24*%
X138689142Y-109148642D02*
X138736761Y-109101023D01*
X138784380Y-108958166D01*
X138784380Y-108862928D01*
X138736761Y-108720071D01*
X138641523Y-108624833D01*
X138546285Y-108577214D01*
X138355809Y-108529595D01*
X138212952Y-108529595D01*
X138022476Y-108577214D01*
X137927238Y-108624833D01*
X137832000Y-108720071D01*
X137784380Y-108862928D01*
X137784380Y-108958166D01*
X137832000Y-109101023D01*
X137879619Y-109148642D01*
X137879619Y-109529595D02*
X137832000Y-109577214D01*
X137784380Y-109672452D01*
X137784380Y-109910547D01*
X137832000Y-110005785D01*
X137879619Y-110053404D01*
X137974857Y-110101023D01*
X138070095Y-110101023D01*
X138212952Y-110053404D01*
X138784380Y-109481976D01*
X138784380Y-110101023D01*
X138117714Y-110958166D02*
X138784380Y-110958166D01*
X137736761Y-110720071D02*
X138451047Y-110481976D01*
X138451047Y-111101023D01*
%TO.C,C21*%
X141715142Y-109409142D02*
X141762761Y-109361523D01*
X141810380Y-109218666D01*
X141810380Y-109123428D01*
X141762761Y-108980571D01*
X141667523Y-108885333D01*
X141572285Y-108837714D01*
X141381809Y-108790095D01*
X141238952Y-108790095D01*
X141048476Y-108837714D01*
X140953238Y-108885333D01*
X140858000Y-108980571D01*
X140810380Y-109123428D01*
X140810380Y-109218666D01*
X140858000Y-109361523D01*
X140905619Y-109409142D01*
X140905619Y-109790095D02*
X140858000Y-109837714D01*
X140810380Y-109932952D01*
X140810380Y-110171047D01*
X140858000Y-110266285D01*
X140905619Y-110313904D01*
X141000857Y-110361523D01*
X141096095Y-110361523D01*
X141238952Y-110313904D01*
X141810380Y-109742476D01*
X141810380Y-110361523D01*
X141810380Y-111313904D02*
X141810380Y-110742476D01*
X141810380Y-111028190D02*
X140810380Y-111028190D01*
X140953238Y-110932952D01*
X141048476Y-110837714D01*
X141096095Y-110742476D01*
%TO.C,C25*%
X147325142Y-108005642D02*
X147372761Y-107958023D01*
X147420380Y-107815166D01*
X147420380Y-107719928D01*
X147372761Y-107577071D01*
X147277523Y-107481833D01*
X147182285Y-107434214D01*
X146991809Y-107386595D01*
X146848952Y-107386595D01*
X146658476Y-107434214D01*
X146563238Y-107481833D01*
X146468000Y-107577071D01*
X146420380Y-107719928D01*
X146420380Y-107815166D01*
X146468000Y-107958023D01*
X146515619Y-108005642D01*
X146515619Y-108386595D02*
X146468000Y-108434214D01*
X146420380Y-108529452D01*
X146420380Y-108767547D01*
X146468000Y-108862785D01*
X146515619Y-108910404D01*
X146610857Y-108958023D01*
X146706095Y-108958023D01*
X146848952Y-108910404D01*
X147420380Y-108338976D01*
X147420380Y-108958023D01*
X146420380Y-109862785D02*
X146420380Y-109386595D01*
X146896571Y-109338976D01*
X146848952Y-109386595D01*
X146801333Y-109481833D01*
X146801333Y-109719928D01*
X146848952Y-109815166D01*
X146896571Y-109862785D01*
X146991809Y-109910404D01*
X147229904Y-109910404D01*
X147325142Y-109862785D01*
X147372761Y-109815166D01*
X147420380Y-109719928D01*
X147420380Y-109481833D01*
X147372761Y-109386595D01*
X147325142Y-109338976D01*
%TO.C,U3*%
X166552380Y-115124095D02*
X167361904Y-115124095D01*
X167457142Y-115171714D01*
X167504761Y-115219333D01*
X167552380Y-115314571D01*
X167552380Y-115505047D01*
X167504761Y-115600285D01*
X167457142Y-115647904D01*
X167361904Y-115695523D01*
X166552380Y-115695523D01*
X166552380Y-116076476D02*
X166552380Y-116695523D01*
X166933333Y-116362190D01*
X166933333Y-116505047D01*
X166980952Y-116600285D01*
X167028571Y-116647904D01*
X167123809Y-116695523D01*
X167361904Y-116695523D01*
X167457142Y-116647904D01*
X167504761Y-116600285D01*
X167552380Y-116505047D01*
X167552380Y-116219333D01*
X167504761Y-116124095D01*
X167457142Y-116076476D01*
%TO.C,D1*%
X149885180Y-107465904D02*
X148885180Y-107465904D01*
X148885180Y-107704000D01*
X148932800Y-107846857D01*
X149028038Y-107942095D01*
X149123276Y-107989714D01*
X149313752Y-108037333D01*
X149456609Y-108037333D01*
X149647085Y-107989714D01*
X149742323Y-107942095D01*
X149837561Y-107846857D01*
X149885180Y-107704000D01*
X149885180Y-107465904D01*
X149885180Y-108989714D02*
X149885180Y-108418285D01*
X149885180Y-108704000D02*
X148885180Y-108704000D01*
X149028038Y-108608761D01*
X149123276Y-108513523D01*
X149170895Y-108418285D01*
%TO.C,R2*%
X163336166Y-109258380D02*
X163669500Y-108782190D01*
X163907595Y-109258380D02*
X163907595Y-108258380D01*
X163526642Y-108258380D01*
X163431404Y-108306000D01*
X163383785Y-108353619D01*
X163336166Y-108448857D01*
X163336166Y-108591714D01*
X163383785Y-108686952D01*
X163431404Y-108734571D01*
X163526642Y-108782190D01*
X163907595Y-108782190D01*
X162955214Y-108353619D02*
X162907595Y-108306000D01*
X162812357Y-108258380D01*
X162574261Y-108258380D01*
X162479023Y-108306000D01*
X162431404Y-108353619D01*
X162383785Y-108448857D01*
X162383785Y-108544095D01*
X162431404Y-108686952D01*
X163002833Y-109258380D01*
X162383785Y-109258380D01*
%TO.C,J1*%
X142899980Y-116100266D02*
X143614266Y-116100266D01*
X143757123Y-116052647D01*
X143852361Y-115957409D01*
X143899980Y-115814552D01*
X143899980Y-115719314D01*
X143899980Y-117100266D02*
X143899980Y-116528838D01*
X143899980Y-116814552D02*
X142899980Y-116814552D01*
X143042838Y-116719314D01*
X143138076Y-116624076D01*
X143185695Y-116528838D01*
D11*
%TO.C,C19*%
X168439600Y-114070580D02*
X168439600Y-113789420D01*
X169459600Y-114070580D02*
X169459600Y-113789420D01*
%TO.C,C18*%
X160936580Y-111631000D02*
X160655420Y-111631000D01*
X160936580Y-112651000D02*
X160655420Y-112651000D01*
%TO.C,C12*%
X162068000Y-116286580D02*
X162068000Y-116005420D01*
X161048000Y-116286580D02*
X161048000Y-116005420D01*
%TO.C,C22*%
X172210000Y-113932580D02*
X172210000Y-113651420D01*
X173230000Y-113932580D02*
X173230000Y-113651420D01*
%TO.C,C4*%
X145568000Y-119886580D02*
X145568000Y-119605420D01*
X144548000Y-119886580D02*
X144548000Y-119605420D01*
%TO.C,C5*%
X142948000Y-116186580D02*
X142948000Y-115905420D01*
X143968000Y-116186580D02*
X143968000Y-115905420D01*
%TO.C,C1*%
X152968000Y-124600580D02*
X152968000Y-124319420D01*
X151948000Y-124600580D02*
X151948000Y-124319420D01*
%TO.C,C10*%
X158650580Y-116536000D02*
X158369420Y-116536000D01*
X158650580Y-117556000D02*
X158369420Y-117556000D01*
%TO.C,C6*%
X144548000Y-116186580D02*
X144548000Y-115905420D01*
X145568000Y-116186580D02*
X145568000Y-115905420D01*
%TO.C,C8*%
X158369420Y-115826000D02*
X158650580Y-115826000D01*
X158369420Y-114806000D02*
X158650580Y-114806000D01*
%TO.C,U1*%
X151968000Y-116011000D02*
X151968000Y-115536000D01*
X151968000Y-119281000D02*
X151968000Y-119756000D01*
X147748000Y-116011000D02*
X147748000Y-115536000D01*
X147748000Y-115536000D02*
X148223000Y-115536000D01*
X151968000Y-115536000D02*
X151493000Y-115536000D01*
X147748000Y-119281000D02*
X147748000Y-119756000D01*
X147748000Y-119756000D02*
X148223000Y-119756000D01*
%TO.C,R1*%
X166996242Y-110758500D02*
X167470758Y-110758500D01*
X166996242Y-109713500D02*
X167470758Y-109713500D01*
%TO.C,L1*%
X142598000Y-119779622D02*
X142598000Y-118980378D01*
X143718000Y-119779622D02*
X143718000Y-118980378D01*
%TO.C,C13*%
X160398580Y-119036000D02*
X160117420Y-119036000D01*
X160398580Y-120056000D02*
X160117420Y-120056000D01*
%TO.C,C16*%
X168658000Y-119747420D02*
X168658000Y-120028580D01*
X167638000Y-119747420D02*
X167638000Y-120028580D01*
%TO.C,C17*%
X166245180Y-113540000D02*
X165964020Y-113540000D01*
X166245180Y-112520000D02*
X165964020Y-112520000D01*
%TO.C,C14*%
X163268000Y-122019420D02*
X163268000Y-122300580D01*
X162248000Y-122019420D02*
X162248000Y-122300580D01*
%TO.C,C11*%
X157248000Y-120305420D02*
X157248000Y-120586580D01*
X158268000Y-120305420D02*
X158268000Y-120586580D01*
%TO.C,C15*%
X163880380Y-120042400D02*
X163599220Y-120042400D01*
X163880380Y-119022400D02*
X163599220Y-119022400D01*
%TO.C,C9*%
X155273580Y-121236000D02*
X154992420Y-121236000D01*
X155273580Y-122256000D02*
X154992420Y-122256000D01*
%TO.C,C7*%
X155273580Y-123956000D02*
X154992420Y-123956000D01*
X155273580Y-122936000D02*
X154992420Y-122936000D01*
%TO.C,C2*%
X145997420Y-111762000D02*
X146278580Y-111762000D01*
X145997420Y-110742000D02*
X146278580Y-110742000D01*
%TO.C,U2*%
X140838000Y-111662000D02*
X139038000Y-111662000D01*
X139038000Y-108442000D02*
X141488000Y-108442000D01*
%TO.C,C24*%
X135917000Y-110052752D02*
X135917000Y-109530248D01*
X137387000Y-110052752D02*
X137387000Y-109530248D01*
%TO.C,C21*%
X143773000Y-109790748D02*
X143773000Y-110313252D01*
X142303000Y-109790748D02*
X142303000Y-110313252D01*
%TO.C,C25*%
X144553000Y-108909752D02*
X144553000Y-108387248D01*
X146023000Y-108909752D02*
X146023000Y-108387248D01*
%TO.C,U3*%
X166260000Y-115186000D02*
X166260000Y-117086000D01*
X163940000Y-116586000D02*
X163940000Y-115186000D01*
%TO.C,D1*%
X147532800Y-107504000D02*
X147532800Y-109354000D01*
X148732800Y-109354000D02*
X147532800Y-109354000D01*
X148732800Y-107504000D02*
X148732800Y-109354000D01*
%TO.C,R2*%
X163406758Y-110758500D02*
X162932242Y-110758500D01*
X163406758Y-109713500D02*
X162932242Y-109713500D01*
%TO.C,J1*%
X141257600Y-120743600D02*
X142247600Y-120743600D01*
X141257600Y-122543600D02*
X141257600Y-120743600D01*
X141257600Y-110323600D02*
X141257600Y-112123600D01*
X139807600Y-110323600D02*
X141257600Y-110323600D01*
X139807600Y-122543600D02*
X141257600Y-122543600D01*
X136987600Y-121273600D02*
X136987600Y-111593600D01*
%TD*%
M02*
