  0
SECTION
  2
HEADER
  9
$ANGBASE
  50
0.0
  9
$ANGDIR
  70
1
  9
$MEASUREMENT
  70
0
  0
ENDSEC
  0
SECTION
  2
TABLES
  0
TABLE
  2
LTYPE
  70
4
  0
LTYPE
  5
40F
  2
CONTINUOUS
  70
0
  3
Solid line
  72
65
  73
0
  40
0.0
  0
LTYPE
  5
410
  2
DASHDOT
 70
0
  3
Dash Dot ____ _ ____ _
 72
65
 73
4
 40
2.0
 49
1.25
 49
-0.25
 49
0.25
 49
-0.25
  0
LTYPE
  5
411
  2
DASHED
 70
0
  3
Dashed __ __ __ __ __
 72
65
 73
2
 40
0.75
 49
0.5
 49
-0.25
  0
LTYPE
  5
43B
  2
DOTTED
 70
0
  3
Dotted .  .  .  .
 72
65
 73
2
 40
0.2
 49
0.0
 49
-0.2
  0
ENDTAB
  0
TABLE
  2
STYLE
  70
4
  0
STYLE
  2
KICAD
  70
0
  40
0
  41
1
  42
1
  50
0
  71
0
  3
isocp.shx
  0
STYLE
  2
KICADB
  70
0
  40
0
  41
1
  42
1
  50
0
  71
0
  3
isocp.shx
  0
STYLE
  2
KICADI
  70
0
  40
0
  41
1
  42
1
  50
15
  71
0
  3
isocp.shx
  0
STYLE
  2
KICADBI
  70
0
  40
0
  41
1
  42
1
  50
15
  71
0
  3
isocp.shx
  0
ENDTAB
  0
TABLE
  2
LAYER
  70
1
  0
LAYER
  2
BLACK
  70
0
  62
7
  6
CONTINUOUS
  0
ENDTAB
  0
ENDSEC
  0
SECTION
  2
ENTITIES
0
LINE
8
BLACK
6
CONTINUOUS
10
6.9692293307086617
20
-4.5476578740157478
11
6.9781782283464562
21
-4.5500557086614171
0
LINE
8
BLACK
6
CONTINUOUS
10
6.9781782283464562
20
-4.5500557086614171
11
6.9865748031496064
21
-4.5539711023622047
0
LINE
8
BLACK
6
CONTINUOUS
10
6.9865748031496064
20
-4.5539711023622047
11
6.9941638976377956
21
-4.5592850393700788
0
LINE
8
BLACK
6
CONTINUOUS
10
6.9941638976377956
20
-4.5592850393700788
11
7.0007149606299208
21
-4.5658361023622049
0
LINE
8
BLACK
6
CONTINUOUS
10
7.0007149606299208
20
-4.5658361023622049
11
7.0060288976377949
21
-4.5734251968503932
0
LINE
8
BLACK
6
CONTINUOUS
10
7.0060288976377949
20
-4.5734251968503932
11
7.0099442913385825
21
-4.5818217716535434
0
LINE
8
BLACK
6
CONTINUOUS
10
7.0099442913385825
20
-4.5818217716535434
11
7.0123421259842518
21
-4.5907706692913388
0
LINE
8
BLACK
6
CONTINUOUS
10
7.0123421259842518
20
-4.5907706692913388
11
7.013149606299212
21
-4.5999999999999996
0
LINE
8
BLACK
6
CONTINUOUS
10
7.013149606299212
20
-4.5999999999999996
11
7.0123421259842518
21
-4.6092293307086614
0
LINE
8
BLACK
6
CONTINUOUS
10
7.0123421259842518
20
-4.6092293307086614
11
7.0099442913385825
21
-4.6181782283464567
0
LINE
8
BLACK
6
CONTINUOUS
10
7.0099442913385825
20
-4.6181782283464567
11
7.0060288976377949
21
-4.6265748031496061
0
LINE
8
BLACK
6
CONTINUOUS
10
7.0060288976377949
20
-4.6265748031496061
11
7.0007149606299208
21
-4.6341638976377952
0
LINE
8
BLACK
6
CONTINUOUS
10
7.0007149606299208
20
-4.6341638976377952
11
6.9941638976377956
21
-4.6407149606299214
0
LINE
8
BLACK
6
CONTINUOUS
10
6.9941638976377956
20
-4.6407149606299214
11
6.9865748031496064
21
-4.6460288976377955
0
LINE
8
BLACK
6
CONTINUOUS
10
6.9865748031496064
20
-4.6460288976377955
11
6.9781782283464562
21
-4.6499442913385822
0
LINE
8
BLACK
6
CONTINUOUS
10
6.9781782283464562
20
-4.6499442913385822
11
6.9692293307086617
21
-4.6523421259842515
0
LINE
8
BLACK
6
CONTINUOUS
10
6.9692293307086617
20
-4.6523421259842515
11
6.96
21
-4.6531496062992126
0
LINE
8
BLACK
6
CONTINUOUS
10
6.96
20
-4.6531496062992126
11
6.9507706692913382
21
-4.6523421259842515
0
LINE
8
BLACK
6
CONTINUOUS
10
6.9507706692913382
20
-4.6523421259842515
11
6.9418217716535429
21
-4.6499442913385822
0
LINE
8
BLACK
6
CONTINUOUS
10
6.9418217716535429
20
-4.6499442913385822
11
6.9334251968503935
21
-4.6460288976377955
0
LINE
8
BLACK
6
CONTINUOUS
10
6.9334251968503935
20
-4.6460288976377955
11
6.9258361023622044
21
-4.6407149606299214
0
LINE
8
BLACK
6
CONTINUOUS
10
6.9258361023622044
20
-4.6407149606299214
11
6.9192850393700782
21
-4.6341638976377952
0
LINE
8
BLACK
6
CONTINUOUS
10
6.9192850393700782
20
-4.6341638976377952
11
6.9139711023622041
21
-4.6265748031496061
0
LINE
8
BLACK
6
CONTINUOUS
10
6.9139711023622041
20
-4.6265748031496061
11
6.9100557086614174
21
-4.6181782283464567
0
LINE
8
BLACK
6
CONTINUOUS
10
6.9100557086614174
20
-4.6181782283464567
11
6.9076578740157482
21
-4.6092293307086614
0
LINE
8
BLACK
6
CONTINUOUS
10
6.9076578740157482
20
-4.6092293307086614
11
6.906850393700787
21
-4.5999999999999996
0
LINE
8
BLACK
6
CONTINUOUS
10
6.906850393700787
20
-4.5999999999999996
11
6.9076578740157482
21
-4.5907706692913388
0
LINE
8
BLACK
6
CONTINUOUS
10
6.9076578740157482
20
-4.5907706692913388
11
6.9100557086614174
21
-4.5818217716535434
0
LINE
8
BLACK
6
CONTINUOUS
10
6.9100557086614174
20
-4.5818217716535434
11
6.9139711023622041
21
-4.5734251968503932
0
LINE
8
BLACK
6
CONTINUOUS
10
6.9139711023622041
20
-4.5734251968503932
11
6.9192850393700782
21
-4.5658361023622049
0
LINE
8
BLACK
6
CONTINUOUS
10
6.9192850393700782
20
-4.5658361023622049
11
6.9258361023622044
21
-4.5592850393700788
0
LINE
8
BLACK
6
CONTINUOUS
10
6.9258361023622044
20
-4.5592850393700788
11
6.9334251968503935
21
-4.5539711023622047
0
LINE
8
BLACK
6
CONTINUOUS
10
6.9334251968503935
20
-4.5539711023622047
11
6.9418217716535429
21
-4.5500557086614171
0
LINE
8
BLACK
6
CONTINUOUS
10
6.9418217716535429
20
-4.5500557086614171
11
6.9507706692913382
21
-4.5476578740157478
0
LINE
8
BLACK
6
CONTINUOUS
10
6.9507706692913382
20
-4.5476578740157478
11
6.96
21
-4.5468503937007876
0
LINE
8
BLACK
6
CONTINUOUS
10
6.96
20
-4.5468503937007876
11
6.9692293307086617
21
-4.5476578740157478
0
LINE
8
BLACK
6
CONTINUOUS
10
7.169229330708661
20
-4.5476578740157478
11
7.1781782283464564
21
-4.5500557086614171
0
LINE
8
BLACK
6
CONTINUOUS
10
7.1781782283464564
20
-4.5500557086614171
11
7.1865748031496057
21
-4.5539711023622047
0
LINE
8
BLACK
6
CONTINUOUS
10
7.1865748031496057
20
-4.5539711023622047
11
7.1941638976377948
21
-4.5592850393700788
0
LINE
8
BLACK
6
CONTINUOUS
10
7.1941638976377948
20
-4.5592850393700788
11
7.200714960629921
21
-4.5658361023622049
0
LINE
8
BLACK
6
CONTINUOUS
10
7.200714960629921
20
-4.5658361023622049
11
7.2060288976377951
21
-4.5734251968503932
0
LINE
8
BLACK
6
CONTINUOUS
10
7.2060288976377951
20
-4.5734251968503932
11
7.2099442913385827
21
-4.5818217716535434
0
LINE
8
BLACK
6
CONTINUOUS
10
7.2099442913385827
20
-4.5818217716535434
11
7.212342125984252
21
-4.5907706692913388
0
LINE
8
BLACK
6
CONTINUOUS
10
7.212342125984252
20
-4.5907706692913388
11
7.2131496062992122
21
-4.5999999999999996
0
LINE
8
BLACK
6
CONTINUOUS
10
7.2131496062992122
20
-4.5999999999999996
11
7.212342125984252
21
-4.6092293307086614
0
LINE
8
BLACK
6
CONTINUOUS
10
7.212342125984252
20
-4.6092293307086614
11
7.2099442913385827
21
-4.6181782283464567
0
LINE
8
BLACK
6
CONTINUOUS
10
7.2099442913385827
20
-4.6181782283464567
11
7.2060288976377951
21
-4.6265748031496061
0
LINE
8
BLACK
6
CONTINUOUS
10
7.2060288976377951
20
-4.6265748031496061
11
7.200714960629921
21
-4.6341638976377952
0
LINE
8
BLACK
6
CONTINUOUS
10
7.200714960629921
20
-4.6341638976377952
11
7.1941638976377948
21
-4.6407149606299214
0
LINE
8
BLACK
6
CONTINUOUS
10
7.1941638976377948
20
-4.6407149606299214
11
7.1865748031496057
21
-4.6460288976377955
0
LINE
8
BLACK
6
CONTINUOUS
10
7.1865748031496057
20
-4.6460288976377955
11
7.1781782283464564
21
-4.6499442913385822
0
LINE
8
BLACK
6
CONTINUOUS
10
7.1781782283464564
20
-4.6499442913385822
11
7.169229330708661
21
-4.6523421259842515
0
LINE
8
BLACK
6
CONTINUOUS
10
7.169229330708661
20
-4.6523421259842515
11
7.1600000000000001
21
-4.6531496062992126
0
LINE
8
BLACK
6
CONTINUOUS
10
7.1600000000000001
20
-4.6531496062992126
11
7.1507706692913384
21
-4.6523421259842515
0
LINE
8
BLACK
6
CONTINUOUS
10
7.1507706692913384
20
-4.6523421259842515
11
7.141821771653543
21
-4.6499442913385822
0
LINE
8
BLACK
6
CONTINUOUS
10
7.141821771653543
20
-4.6499442913385822
11
7.1334251968503937
21
-4.6460288976377955
0
LINE
8
BLACK
6
CONTINUOUS
10
7.1334251968503937
20
-4.6460288976377955
11
7.1258361023622045
21
-4.6407149606299214
0
LINE
8
BLACK
6
CONTINUOUS
10
7.1258361023622045
20
-4.6407149606299214
11
7.1192850393700784
21
-4.6341638976377952
0
LINE
8
BLACK
6
CONTINUOUS
10
7.1192850393700784
20
-4.6341638976377952
11
7.1139711023622043
21
-4.6265748031496061
0
LINE
8
BLACK
6
CONTINUOUS
10
7.1139711023622043
20
-4.6265748031496061
11
7.1100557086614176
21
-4.6181782283464567
0
LINE
8
BLACK
6
CONTINUOUS
10
7.1100557086614176
20
-4.6181782283464567
11
7.1076578740157474
21
-4.6092293307086614
0
LINE
8
BLACK
6
CONTINUOUS
10
7.1076578740157474
20
-4.6092293307086614
11
7.1068503937007872
21
-4.5999999999999996
0
LINE
8
BLACK
6
CONTINUOUS
10
7.1068503937007872
20
-4.5999999999999996
11
7.1076578740157474
21
-4.5907706692913388
0
LINE
8
BLACK
6
CONTINUOUS
10
7.1076578740157474
20
-4.5907706692913388
11
7.1100557086614176
21
-4.5818217716535434
0
LINE
8
BLACK
6
CONTINUOUS
10
7.1100557086614176
20
-4.5818217716535434
11
7.1139711023622043
21
-4.5734251968503932
0
LINE
8
BLACK
6
CONTINUOUS
10
7.1139711023622043
20
-4.5734251968503932
11
7.1192850393700784
21
-4.5658361023622049
0
LINE
8
BLACK
6
CONTINUOUS
10
7.1192850393700784
20
-4.5658361023622049
11
7.1258361023622045
21
-4.5592850393700788
0
LINE
8
BLACK
6
CONTINUOUS
10
7.1258361023622045
20
-4.5592850393700788
11
7.1334251968503937
21
-4.5539711023622047
0
LINE
8
BLACK
6
CONTINUOUS
10
7.1334251968503937
20
-4.5539711023622047
11
7.141821771653543
21
-4.5500557086614171
0
LINE
8
BLACK
6
CONTINUOUS
10
7.141821771653543
20
-4.5500557086614171
11
7.1507706692913384
21
-4.5476578740157478
0
LINE
8
BLACK
6
CONTINUOUS
10
7.1507706692913384
20
-4.5476578740157478
11
7.1600000000000001
21
-4.5468503937007876
0
LINE
8
BLACK
6
CONTINUOUS
10
7.1600000000000001
20
-4.5468503937007876
11
7.169229330708661
21
-4.5476578740157478
0
LINE
8
BLACK
6
CONTINUOUS
10
7.0685456692913382
20
-4.4515350393700786
11
7.0768316929133857
21
-4.4537552755905514
0
LINE
8
BLACK
6
CONTINUOUS
10
7.0768316929133857
20
-4.4537552755905514
11
7.0846062992125987
21
-4.4573806299212597
0
LINE
8
BLACK
6
CONTINUOUS
10
7.0846062992125987
20
-4.4573806299212597
11
7.091633267716535
21
-4.46230094488189
0
LINE
8
BLACK
6
CONTINUOUS
10
7.091633267716535
20
-4.46230094488189
11
7.0976990551181105
21
-4.4683667322834646
0
LINE
8
BLACK
6
CONTINUOUS
10
7.0976990551181105
20
-4.4683667322834646
11
7.1026193700787399
21
-4.4753937007874018
0
LINE
8
BLACK
6
CONTINUOUS
10
7.1026193700787399
20
-4.4753937007874018
11
7.1062447244094491
21
-4.483168307086614
0
LINE
8
BLACK
6
CONTINUOUS
10
7.1062447244094491
20
-4.483168307086614
11
7.1084649606299211
21
-4.4914543307086614
0
LINE
8
BLACK
6
CONTINUOUS
10
7.1084649606299211
20
-4.4914543307086614
11
7.1092125984251968
21
-4.5
0
LINE
8
BLACK
6
CONTINUOUS
10
7.1092125984251968
20
-4.5
11
7.1084649606299211
21
-4.5085456692913386
0
LINE
8
BLACK
6
CONTINUOUS
10
7.1084649606299211
20
-4.5085456692913386
11
7.1062447244094491
21
-4.516831692913386
0
LINE
8
BLACK
6
CONTINUOUS
10
7.1062447244094491
20
-4.516831692913386
11
7.1026193700787399
21
-4.5246062992125982
0
LINE
8
BLACK
6
CONTINUOUS
10
7.1026193700787399
20
-4.5246062992125982
11
7.0976990551181105
21
-4.5316332677165354
0
LINE
8
BLACK
6
CONTINUOUS
10
7.0976990551181105
20
-4.5316332677165354
11
7.091633267716535
21
-4.53769905511811
0
LINE
8
BLACK
6
CONTINUOUS
10
7.091633267716535
20
-4.53769905511811
11
7.0846062992125987
21
-4.5426193700787403
0
LINE
8
BLACK
6
CONTINUOUS
10
7.0846062992125987
20
-4.5426193700787403
11
7.0768316929133857
21
-4.5462447244094486
0
LINE
8
BLACK
6
CONTINUOUS
10
7.0768316929133857
20
-4.5462447244094486
11
7.0685456692913382
21
-4.5484649606299214
0
LINE
8
BLACK
6
CONTINUOUS
10
7.0685456692913382
20
-4.5484649606299214
11
7.0599999999999996
21
-4.5492125984251963
0
LINE
8
BLACK
6
CONTINUOUS
10
7.0599999999999996
20
-4.5492125984251963
11
7.051454330708661
21
-4.5484649606299214
0
LINE
8
BLACK
6
CONTINUOUS
10
7.051454330708661
20
-4.5484649606299214
11
7.0431683070866145
21
-4.5462447244094486
0
LINE
8
BLACK
6
CONTINUOUS
10
7.0431683070866145
20
-4.5462447244094486
11
7.0353937007874014
21
-4.5426193700787403
0
LINE
8
BLACK
6
CONTINUOUS
10
7.0353937007874014
20
-4.5426193700787403
11
7.0283667322834642
21
-4.53769905511811
0
LINE
8
BLACK
6
CONTINUOUS
10
7.0283667322834642
20
-4.53769905511811
11
7.0223009448818896
21
-4.5316332677165354
0
LINE
8
BLACK
6
CONTINUOUS
10
7.0223009448818896
20
-4.5316332677165354
11
7.0173806299212593
21
-4.5246062992125982
0
LINE
8
BLACK
6
CONTINUOUS
10
7.0173806299212593
20
-4.5246062992125982
11
7.013755275590551
21
-4.516831692913386
0
LINE
8
BLACK
6
CONTINUOUS
10
7.013755275590551
20
-4.516831692913386
11
7.0115350393700782
21
-4.5085456692913386
0
LINE
8
BLACK
6
CONTINUOUS
10
7.0115350393700782
20
-4.5085456692913386
11
7.0107874015748033
21
-4.5
0
LINE
8
BLACK
6
CONTINUOUS
10
7.0107874015748033
20
-4.5
11
7.0115350393700782
21
-4.4914543307086614
0
LINE
8
BLACK
6
CONTINUOUS
10
7.0115350393700782
20
-4.4914543307086614
11
7.013755275590551
21
-4.483168307086614
0
LINE
8
BLACK
6
CONTINUOUS
10
7.013755275590551
20
-4.483168307086614
11
7.0173806299212593
21
-4.4753937007874018
0
LINE
8
BLACK
6
CONTINUOUS
10
7.0173806299212593
20
-4.4753937007874018
11
7.0223009448818896
21
-4.4683667322834646
0
LINE
8
BLACK
6
CONTINUOUS
10
7.0223009448818896
20
-4.4683667322834646
11
7.0283667322834642
21
-4.46230094488189
0
LINE
8
BLACK
6
CONTINUOUS
10
7.0283667322834642
20
-4.46230094488189
11
7.0353937007874014
21
-4.4573806299212597
0
LINE
8
BLACK
6
CONTINUOUS
10
7.0353937007874014
20
-4.4573806299212597
11
7.0431683070866145
21
-4.4537552755905514
0
LINE
8
BLACK
6
CONTINUOUS
10
7.0431683070866145
20
-4.4537552755905514
11
7.051454330708661
21
-4.4515350393700786
0
LINE
8
BLACK
6
CONTINUOUS
10
7.051454330708661
20
-4.4515350393700786
11
7.0599999999999996
21
-4.4507874015748028
0
LINE
8
BLACK
6
CONTINUOUS
10
7.0599999999999996
20
-4.4507874015748028
11
7.0685456692913382
21
-4.4515350393700786
0
LINE
8
BLACK
6
CONTINUOUS
10
6.9692293307086617
20
-4.3476578740157477
11
6.9781782283464562
21
-4.3500557086614169
0
LINE
8
BLACK
6
CONTINUOUS
10
6.9781782283464562
20
-4.3500557086614169
11
6.9865748031496064
21
-4.3539711023622045
0
LINE
8
BLACK
6
CONTINUOUS
10
6.9865748031496064
20
-4.3539711023622045
11
6.9941638976377956
21
-4.3592850393700786
0
LINE
8
BLACK
6
CONTINUOUS
10
6.9941638976377956
20
-4.3592850393700786
11
7.0007149606299208
21
-4.3658361023622048
0
LINE
8
BLACK
6
CONTINUOUS
10
7.0007149606299208
20
-4.3658361023622048
11
7.0060288976377949
21
-4.3734251968503939
0
LINE
8
BLACK
6
CONTINUOUS
10
7.0060288976377949
20
-4.3734251968503939
11
7.0099442913385825
21
-4.3818217716535433
0
LINE
8
BLACK
6
CONTINUOUS
10
7.0099442913385825
20
-4.3818217716535433
11
7.0123421259842518
21
-4.3907706692913386
0
LINE
8
BLACK
6
CONTINUOUS
10
7.0123421259842518
20
-4.3907706692913386
11
7.013149606299212
21
-4.3999999999999995
0
LINE
8
BLACK
6
CONTINUOUS
10
7.013149606299212
20
-4.3999999999999995
11
7.0123421259842518
21
-4.4092293307086612
0
LINE
8
BLACK
6
CONTINUOUS
10
7.0123421259842518
20
-4.4092293307086612
11
7.0099442913385825
21
-4.4181782283464566
0
LINE
8
BLACK
6
CONTINUOUS
10
7.0099442913385825
20
-4.4181782283464566
11
7.0060288976377949
21
-4.4265748031496059
0
LINE
8
BLACK
6
CONTINUOUS
10
7.0060288976377949
20
-4.4265748031496059
11
7.0007149606299208
21
-4.4341638976377951
0
LINE
8
BLACK
6
CONTINUOUS
10
7.0007149606299208
20
-4.4341638976377951
11
6.9941638976377956
21
-4.4407149606299212
0
LINE
8
BLACK
6
CONTINUOUS
10
6.9941638976377956
20
-4.4407149606299212
11
6.9865748031496064
21
-4.4460288976377953
0
LINE
8
BLACK
6
CONTINUOUS
10
6.9865748031496064
20
-4.4460288976377953
11
6.9781782283464562
21
-4.4499442913385829
0
LINE
8
BLACK
6
CONTINUOUS
10
6.9781782283464562
20
-4.4499442913385829
11
6.9692293307086617
21
-4.4523421259842522
0
LINE
8
BLACK
6
CONTINUOUS
10
6.9692293307086617
20
-4.4523421259842522
11
6.96
21
-4.4531496062992124
0
LINE
8
BLACK
6
CONTINUOUS
10
6.96
20
-4.4531496062992124
11
6.9507706692913382
21
-4.4523421259842522
0
LINE
8
BLACK
6
CONTINUOUS
10
6.9507706692913382
20
-4.4523421259842522
11
6.9418217716535429
21
-4.4499442913385829
0
LINE
8
BLACK
6
CONTINUOUS
10
6.9418217716535429
20
-4.4499442913385829
11
6.9334251968503935
21
-4.4460288976377953
0
LINE
8
BLACK
6
CONTINUOUS
10
6.9334251968503935
20
-4.4460288976377953
11
6.9258361023622044
21
-4.4407149606299212
0
LINE
8
BLACK
6
CONTINUOUS
10
6.9258361023622044
20
-4.4407149606299212
11
6.9192850393700782
21
-4.4341638976377951
0
LINE
8
BLACK
6
CONTINUOUS
10
6.9192850393700782
20
-4.4341638976377951
11
6.9139711023622041
21
-4.4265748031496059
0
LINE
8
BLACK
6
CONTINUOUS
10
6.9139711023622041
20
-4.4265748031496059
11
6.9100557086614174
21
-4.4181782283464566
0
LINE
8
BLACK
6
CONTINUOUS
10
6.9100557086614174
20
-4.4181782283464566
11
6.9076578740157482
21
-4.4092293307086612
0
LINE
8
BLACK
6
CONTINUOUS
10
6.9076578740157482
20
-4.4092293307086612
11
6.906850393700787
21
-4.3999999999999995
0
LINE
8
BLACK
6
CONTINUOUS
10
6.906850393700787
20
-4.3999999999999995
11
6.9076578740157482
21
-4.3907706692913386
0
LINE
8
BLACK
6
CONTINUOUS
10
6.9076578740157482
20
-4.3907706692913386
11
6.9100557086614174
21
-4.3818217716535433
0
LINE
8
BLACK
6
CONTINUOUS
10
6.9100557086614174
20
-4.3818217716535433
11
6.9139711023622041
21
-4.3734251968503939
0
LINE
8
BLACK
6
CONTINUOUS
10
6.9139711023622041
20
-4.3734251968503939
11
6.9192850393700782
21
-4.3658361023622048
0
LINE
8
BLACK
6
CONTINUOUS
10
6.9192850393700782
20
-4.3658361023622048
11
6.9258361023622044
21
-4.3592850393700786
0
LINE
8
BLACK
6
CONTINUOUS
10
6.9258361023622044
20
-4.3592850393700786
11
6.9334251968503935
21
-4.3539711023622045
0
LINE
8
BLACK
6
CONTINUOUS
10
6.9334251968503935
20
-4.3539711023622045
11
6.9418217716535429
21
-4.3500557086614169
0
LINE
8
BLACK
6
CONTINUOUS
10
6.9418217716535429
20
-4.3500557086614169
11
6.9507706692913382
21
-4.3476578740157477
0
LINE
8
BLACK
6
CONTINUOUS
10
6.9507706692913382
20
-4.3476578740157477
11
6.96
21
-4.3468503937007874
0
LINE
8
BLACK
6
CONTINUOUS
10
6.96
20
-4.3468503937007874
11
6.9692293307086617
21
-4.3476578740157477
0
LINE
8
BLACK
6
CONTINUOUS
10
7.169229330708661
20
-4.3476578740157477
11
7.1781782283464564
21
-4.3500557086614169
0
LINE
8
BLACK
6
CONTINUOUS
10
7.1781782283464564
20
-4.3500557086614169
11
7.1865748031496057
21
-4.3539711023622045
0
LINE
8
BLACK
6
CONTINUOUS
10
7.1865748031496057
20
-4.3539711023622045
11
7.1941638976377948
21
-4.3592850393700786
0
LINE
8
BLACK
6
CONTINUOUS
10
7.1941638976377948
20
-4.3592850393700786
11
7.200714960629921
21
-4.3658361023622048
0
LINE
8
BLACK
6
CONTINUOUS
10
7.200714960629921
20
-4.3658361023622048
11
7.2060288976377951
21
-4.3734251968503939
0
LINE
8
BLACK
6
CONTINUOUS
10
7.2060288976377951
20
-4.3734251968503939
11
7.2099442913385827
21
-4.3818217716535433
0
LINE
8
BLACK
6
CONTINUOUS
10
7.2099442913385827
20
-4.3818217716535433
11
7.212342125984252
21
-4.3907706692913386
0
LINE
8
BLACK
6
CONTINUOUS
10
7.212342125984252
20
-4.3907706692913386
11
7.2131496062992122
21
-4.3999999999999995
0
LINE
8
BLACK
6
CONTINUOUS
10
7.2131496062992122
20
-4.3999999999999995
11
7.212342125984252
21
-4.4092293307086612
0
LINE
8
BLACK
6
CONTINUOUS
10
7.212342125984252
20
-4.4092293307086612
11
7.2099442913385827
21
-4.4181782283464566
0
LINE
8
BLACK
6
CONTINUOUS
10
7.2099442913385827
20
-4.4181782283464566
11
7.2060288976377951
21
-4.4265748031496059
0
LINE
8
BLACK
6
CONTINUOUS
10
7.2060288976377951
20
-4.4265748031496059
11
7.200714960629921
21
-4.4341638976377951
0
LINE
8
BLACK
6
CONTINUOUS
10
7.200714960629921
20
-4.4341638976377951
11
7.1941638976377948
21
-4.4407149606299212
0
LINE
8
BLACK
6
CONTINUOUS
10
7.1941638976377948
20
-4.4407149606299212
11
7.1865748031496057
21
-4.4460288976377953
0
LINE
8
BLACK
6
CONTINUOUS
10
7.1865748031496057
20
-4.4460288976377953
11
7.1781782283464564
21
-4.4499442913385829
0
LINE
8
BLACK
6
CONTINUOUS
10
7.1781782283464564
20
-4.4499442913385829
11
7.169229330708661
21
-4.4523421259842522
0
LINE
8
BLACK
6
CONTINUOUS
10
7.169229330708661
20
-4.4523421259842522
11
7.1600000000000001
21
-4.4531496062992124
0
LINE
8
BLACK
6
CONTINUOUS
10
7.1600000000000001
20
-4.4531496062992124
11
7.1507706692913384
21
-4.4523421259842522
0
LINE
8
BLACK
6
CONTINUOUS
10
7.1507706692913384
20
-4.4523421259842522
11
7.141821771653543
21
-4.4499442913385829
0
LINE
8
BLACK
6
CONTINUOUS
10
7.141821771653543
20
-4.4499442913385829
11
7.1334251968503937
21
-4.4460288976377953
0
LINE
8
BLACK
6
CONTINUOUS
10
7.1334251968503937
20
-4.4460288976377953
11
7.1258361023622045
21
-4.4407149606299212
0
LINE
8
BLACK
6
CONTINUOUS
10
7.1258361023622045
20
-4.4407149606299212
11
7.1192850393700784
21
-4.4341638976377951
0
LINE
8
BLACK
6
CONTINUOUS
10
7.1192850393700784
20
-4.4341638976377951
11
7.1139711023622043
21
-4.4265748031496059
0
LINE
8
BLACK
6
CONTINUOUS
10
7.1139711023622043
20
-4.4265748031496059
11
7.1100557086614176
21
-4.4181782283464566
0
LINE
8
BLACK
6
CONTINUOUS
10
7.1100557086614176
20
-4.4181782283464566
11
7.1076578740157474
21
-4.4092293307086612
0
LINE
8
BLACK
6
CONTINUOUS
10
7.1076578740157474
20
-4.4092293307086612
11
7.1068503937007872
21
-4.3999999999999995
0
LINE
8
BLACK
6
CONTINUOUS
10
7.1068503937007872
20
-4.3999999999999995
11
7.1076578740157474
21
-4.3907706692913386
0
LINE
8
BLACK
6
CONTINUOUS
10
7.1076578740157474
20
-4.3907706692913386
11
7.1100557086614176
21
-4.3818217716535433
0
LINE
8
BLACK
6
CONTINUOUS
10
7.1100557086614176
20
-4.3818217716535433
11
7.1139711023622043
21
-4.3734251968503939
0
LINE
8
BLACK
6
CONTINUOUS
10
7.1139711023622043
20
-4.3734251968503939
11
7.1192850393700784
21
-4.3658361023622048
0
LINE
8
BLACK
6
CONTINUOUS
10
7.1192850393700784
20
-4.3658361023622048
11
7.1258361023622045
21
-4.3592850393700786
0
LINE
8
BLACK
6
CONTINUOUS
10
7.1258361023622045
20
-4.3592850393700786
11
7.1334251968503937
21
-4.3539711023622045
0
LINE
8
BLACK
6
CONTINUOUS
10
7.1334251968503937
20
-4.3539711023622045
11
7.141821771653543
21
-4.3500557086614169
0
LINE
8
BLACK
6
CONTINUOUS
10
7.141821771653543
20
-4.3500557086614169
11
7.1507706692913384
21
-4.3476578740157477
0
LINE
8
BLACK
6
CONTINUOUS
10
7.1507706692913384
20
-4.3476578740157477
11
7.1600000000000001
21
-4.3468503937007874
0
LINE
8
BLACK
6
CONTINUOUS
10
7.1600000000000001
20
-4.3468503937007874
11
7.169229330708661
21
-4.3476578740157477
  0
ENDSEC
  0
EOF
