  0
SECTION
  2
HEADER
  9
$ANGBASE
  50
0.0
  9
$ANGDIR
  70
1
  9
$MEASUREMENT
  70
0
  0
ENDSEC
  0
SECTION
  2
TABLES
  0
TABLE
  2
LTYPE
  70
4
  0
LTYPE
  5
40F
  2
CONTINUOUS
  70
0
  3
Solid line
  72
65
  73
0
  40
0.0
  0
LTYPE
  5
410
  2
DASHDOT
 70
0
  3
Dash Dot ____ _ ____ _
 72
65
 73
4
 40
2.0
 49
1.25
 49
-0.25
 49
0.25
 49
-0.25
  0
LTYPE
  5
411
  2
DASHED
 70
0
  3
Dashed __ __ __ __ __
 72
65
 73
2
 40
0.75
 49
0.5
 49
-0.25
  0
LTYPE
  5
43B
  2
DOTTED
 70
0
  3
Dotted .  .  .  .
 72
65
 73
2
 40
0.2
 49
0.0
 49
-0.2
  0
ENDTAB
  0
TABLE
  2
STYLE
  70
4
  0
STYLE
  2
KICAD
  70
0
  40
0
  41
1
  42
1
  50
0
  71
0
  3
isocp.shx
  0
STYLE
  2
KICADB
  70
0
  40
0
  41
1
  42
1
  50
0
  71
0
  3
isocp.shx
  0
STYLE
  2
KICADI
  70
0
  40
0
  41
1
  42
1
  50
15
  71
0
  3
isocp.shx
  0
STYLE
  2
KICADBI
  70
0
  40
0
  41
1
  42
1
  50
15
  71
0
  3
isocp.shx
  0
ENDTAB
  0
TABLE
  2
LAYER
  70
1
  0
LAYER
  2
BLACK
  70
0
  62
7
  6
CONTINUOUS
  0
ENDTAB
  0
ENDSEC
  0
SECTION
  2
ENTITIES
0
LINE
8
BLACK
6
CONTINUOUS
10
5.4594544881889764
20
-4.2880810629921262
11
5.4599019291338582
21
-4.288448267716535
0
LINE
8
BLACK
6
CONTINUOUS
10
5.4599019291338582
20
-4.288448267716535
11
5.4773584251968499
21
-4.3059047637795276
0
LINE
8
BLACK
6
CONTINUOUS
10
5.4773584251968499
20
-4.3059047637795276
11
5.4773584251968499
21
-4.2905361811023619
0
LINE
8
BLACK
6
CONTINUOUS
10
5.4773584251968499
20
-4.2905361811023619
11
5.4774151574803147
21
-4.289960118110236
0
LINE
8
BLACK
6
CONTINUOUS
10
5.4774151574803147
20
-4.289960118110236
11
5.4778560629921262
21
-4.2888957086614168
0
LINE
8
BLACK
6
CONTINUOUS
10
5.4778560629921262
20
-4.2888957086614168
11
5.4786707086614168
21
-4.2880810629921262
0
LINE
8
BLACK
6
CONTINUOUS
10
5.4786707086614168
20
-4.2880810629921262
11
5.4797351181102361
21
-4.2876401574803147
0
LINE
8
BLACK
6
CONTINUOUS
10
5.4797351181102361
20
-4.2876401574803147
11
5.4808872440944878
21
-4.2876401574803147
0
LINE
8
BLACK
6
CONTINUOUS
10
5.4808872440944878
20
-4.2876401574803147
11
5.481951653543307
21
-4.2880810629921262
0
LINE
8
BLACK
6
CONTINUOUS
10
5.481951653543307
20
-4.2880810629921262
11
5.4827662992125985
21
-4.2888957086614168
0
LINE
8
BLACK
6
CONTINUOUS
10
5.4827662992125985
20
-4.2888957086614168
11
5.4832072047244091
21
-4.289960118110236
0
LINE
8
BLACK
6
CONTINUOUS
10
5.4832072047244091
20
-4.289960118110236
11
5.483263937007874
21
-4.2905361811023619
0
LINE
8
BLACK
6
CONTINUOUS
10
5.483263937007874
20
-4.2905361811023619
11
5.483263937007874
21
-4.3299062598425193
0
LINE
8
BLACK
6
CONTINUOUS
10
5.483263937007874
20
-4.3299062598425193
11
5.4832072047244091
21
-4.3304823228346452
0
LINE
8
BLACK
6
CONTINUOUS
10
5.4832072047244091
20
-4.3304823228346452
11
5.4827662992125985
21
-4.3315467322834644
0
LINE
8
BLACK
6
CONTINUOUS
10
5.4827662992125985
20
-4.3315467322834644
11
5.481951653543307
21
-4.3323613779527559
0
LINE
8
BLACK
6
CONTINUOUS
10
5.481951653543307
20
-4.3323613779527559
11
5.4808872440944878
21
-4.3328022834645665
0
LINE
8
BLACK
6
CONTINUOUS
10
5.4808872440944878
20
-4.3328022834645665
11
5.4797351181102361
21
-4.3328022834645665
0
LINE
8
BLACK
6
CONTINUOUS
10
5.4797351181102361
20
-4.3328022834645665
11
5.4786707086614168
21
-4.3323613779527559
0
LINE
8
BLACK
6
CONTINUOUS
10
5.4786707086614168
20
-4.3323613779527559
11
5.4778560629921262
21
-4.3315467322834644
0
LINE
8
BLACK
6
CONTINUOUS
10
5.4778560629921262
20
-4.3315467322834644
11
5.4774151574803147
21
-4.3304823228346452
0
LINE
8
BLACK
6
CONTINUOUS
10
5.4774151574803147
20
-4.3304823228346452
11
5.4773584251968499
21
-4.3299062598425193
0
LINE
8
BLACK
6
CONTINUOUS
10
5.4773584251968499
20
-4.3299062598425193
11
5.4773584251968499
21
-4.3142564173228344
0
LINE
8
BLACK
6
CONTINUOUS
10
5.4773584251968499
20
-4.3142564173228344
11
5.475006338582677
21
-4.3119043307086615
0
LINE
8
BLACK
6
CONTINUOUS
10
5.475006338582677
20
-4.3119043307086615
11
5.4601762204724409
21
-4.3316779133858265
0
LINE
8
BLACK
6
CONTINUOUS
10
5.4601762204724409
20
-4.3316779133858265
11
5.4597851968503939
21
-4.332104724409449
0
LINE
8
BLACK
6
CONTINUOUS
10
5.4597851968503939
20
-4.332104724409449
11
5.4587938188976377
21
-4.3326916929133859
0
LINE
8
BLACK
6
CONTINUOUS
10
5.4587938188976377
20
-4.3326916929133859
11
5.4576533070866144
21
-4.3328546456692916
0
LINE
8
BLACK
6
CONTINUOUS
10
5.4576533070866144
20
-4.3328546456692916
11
5.4565372440944877
21
-4.3325687007874016
0
LINE
8
BLACK
6
CONTINUOUS
10
5.4565372440944877
20
-4.3325687007874016
11
5.4556155511811024
21
-4.3318774409448819
0
LINE
8
BLACK
6
CONTINUOUS
10
5.4556155511811024
20
-4.3318774409448819
11
5.4550285826771656
21
-4.3308860629921258
0
LINE
8
BLACK
6
CONTINUOUS
10
5.4550285826771656
20
-4.3308860629921258
11
5.4548656299212599
21
-4.3297455511811025
0
LINE
8
BLACK
6
CONTINUOUS
10
5.4548656299212599
20
-4.3297455511811025
11
5.4551515748031498
21
-4.3286294881889766
0
LINE
8
BLACK
6
CONTINUOUS
10
5.4551515748031498
20
-4.3286294881889766
11
5.4554518110236216
21
-4.3281346062992121
0
LINE
8
BLACK
6
CONTINUOUS
10
5.4554518110236216
20
-4.3281346062992121
11
5.4707881102362199
21
-4.3076861023622044
0
LINE
8
BLACK
6
CONTINUOUS
10
5.4707881102362199
20
-4.3076861023622044
11
5.4557261023622043
21
-4.2926240944881888
0
LINE
8
BLACK
6
CONTINUOUS
10
5.4557261023622043
20
-4.2926240944881888
11
5.4553588976377956
21
-4.292176653543307
0
LINE
8
BLACK
6
CONTINUOUS
10
5.4553588976377956
20
-4.292176653543307
11
5.454917992125984
21
-4.291112204724409
0
LINE
8
BLACK
6
CONTINUOUS
10
5.454917992125984
20
-4.291112204724409
11
5.454917992125984
21
-4.2899601574803148
0
LINE
8
BLACK
6
CONTINUOUS
10
5.454917992125984
20
-4.2899601574803148
11
5.4553588976377956
21
-4.2888957086614168
0
LINE
8
BLACK
6
CONTINUOUS
10
5.4553588976377956
20
-4.2888957086614168
11
5.4561735433070861
21
-4.2880810629921262
0
LINE
8
BLACK
6
CONTINUOUS
10
5.4561735433070861
20
-4.2880810629921262
11
5.4572379921259841
21
-4.2876401574803147
0
LINE
8
BLACK
6
CONTINUOUS
10
5.4572379921259841
20
-4.2876401574803147
11
5.4583900393700784
21
-4.2876401574803147
0
LINE
8
BLACK
6
CONTINUOUS
10
5.4583900393700784
20
-4.2876401574803147
11
5.4594544881889764
21
-4.2880810629921262
0
LINE
8
BLACK
6
CONTINUOUS
10
5.4594544881889764
20
-4.1580810629921263
11
5.4599019291338582
21
-4.1584482677165351
0
LINE
8
BLACK
6
CONTINUOUS
10
5.4599019291338582
20
-4.1584482677165351
11
5.4773584251968499
21
-4.1759047637795277
0
LINE
8
BLACK
6
CONTINUOUS
10
5.4773584251968499
20
-4.1759047637795277
11
5.4773584251968499
21
-4.160536181102362
0
LINE
8
BLACK
6
CONTINUOUS
10
5.4773584251968499
20
-4.160536181102362
11
5.4774151574803147
21
-4.1599601181102361
0
LINE
8
BLACK
6
CONTINUOUS
10
5.4774151574803147
20
-4.1599601181102361
11
5.4778560629921262
21
-4.1588957086614169
0
LINE
8
BLACK
6
CONTINUOUS
10
5.4778560629921262
20
-4.1588957086614169
11
5.4786707086614168
21
-4.1580810629921263
0
LINE
8
BLACK
6
CONTINUOUS
10
5.4786707086614168
20
-4.1580810629921263
11
5.4797351181102361
21
-4.1576401574803148
0
LINE
8
BLACK
6
CONTINUOUS
10
5.4797351181102361
20
-4.1576401574803148
11
5.4808872440944878
21
-4.1576401574803148
0
LINE
8
BLACK
6
CONTINUOUS
10
5.4808872440944878
20
-4.1576401574803148
11
5.481951653543307
21
-4.1580810629921263
0
LINE
8
BLACK
6
CONTINUOUS
10
5.481951653543307
20
-4.1580810629921263
11
5.4827662992125985
21
-4.1588957086614169
0
LINE
8
BLACK
6
CONTINUOUS
10
5.4827662992125985
20
-4.1588957086614169
11
5.4832072047244091
21
-4.1599601181102361
0
LINE
8
BLACK
6
CONTINUOUS
10
5.4832072047244091
20
-4.1599601181102361
11
5.483263937007874
21
-4.160536181102362
0
LINE
8
BLACK
6
CONTINUOUS
10
5.483263937007874
20
-4.160536181102362
11
5.483263937007874
21
-4.1999062598425194
0
LINE
8
BLACK
6
CONTINUOUS
10
5.483263937007874
20
-4.1999062598425194
11
5.4832072047244091
21
-4.2004823228346453
0
LINE
8
BLACK
6
CONTINUOUS
10
5.4832072047244091
20
-4.2004823228346453
11
5.4827662992125985
21
-4.2015467322834645
0
LINE
8
BLACK
6
CONTINUOUS
10
5.4827662992125985
20
-4.2015467322834645
11
5.481951653543307
21
-4.202361377952756
0
LINE
8
BLACK
6
CONTINUOUS
10
5.481951653543307
20
-4.202361377952756
11
5.4808872440944878
21
-4.2028022834645666
0
LINE
8
BLACK
6
CONTINUOUS
10
5.4808872440944878
20
-4.2028022834645666
11
5.4797351181102361
21
-4.2028022834645666
0
LINE
8
BLACK
6
CONTINUOUS
10
5.4797351181102361
20
-4.2028022834645666
11
5.4786707086614168
21
-4.202361377952756
0
LINE
8
BLACK
6
CONTINUOUS
10
5.4786707086614168
20
-4.202361377952756
11
5.4778560629921262
21
-4.2015467322834645
0
LINE
8
BLACK
6
CONTINUOUS
10
5.4778560629921262
20
-4.2015467322834645
11
5.4774151574803147
21
-4.2004823228346453
0
LINE
8
BLACK
6
CONTINUOUS
10
5.4774151574803147
20
-4.2004823228346453
11
5.4773584251968499
21
-4.1999062598425194
0
LINE
8
BLACK
6
CONTINUOUS
10
5.4773584251968499
20
-4.1999062598425194
11
5.4773584251968499
21
-4.1842564173228345
0
LINE
8
BLACK
6
CONTINUOUS
10
5.4773584251968499
20
-4.1842564173228345
11
5.475006338582677
21
-4.1819043307086616
0
LINE
8
BLACK
6
CONTINUOUS
10
5.475006338582677
20
-4.1819043307086616
11
5.4601762204724409
21
-4.2016779133858266
0
LINE
8
BLACK
6
CONTINUOUS
10
5.4601762204724409
20
-4.2016779133858266
11
5.4597851968503939
21
-4.2021047244094492
0
LINE
8
BLACK
6
CONTINUOUS
10
5.4597851968503939
20
-4.2021047244094492
11
5.4587938188976377
21
-4.202691692913386
0
LINE
8
BLACK
6
CONTINUOUS
10
5.4587938188976377
20
-4.202691692913386
11
5.4576533070866144
21
-4.2028546456692917
0
LINE
8
BLACK
6
CONTINUOUS
10
5.4576533070866144
20
-4.2028546456692917
11
5.4565372440944877
21
-4.2025687007874017
0
LINE
8
BLACK
6
CONTINUOUS
10
5.4565372440944877
20
-4.2025687007874017
11
5.4556155511811024
21
-4.201877440944882
0
LINE
8
BLACK
6
CONTINUOUS
10
5.4556155511811024
20
-4.201877440944882
11
5.4550285826771656
21
-4.2008860629921259
0
LINE
8
BLACK
6
CONTINUOUS
10
5.4550285826771656
20
-4.2008860629921259
11
5.4548656299212599
21
-4.1997455511811026
0
LINE
8
BLACK
6
CONTINUOUS
10
5.4548656299212599
20
-4.1997455511811026
11
5.4551515748031498
21
-4.1986294881889759
0
LINE
8
BLACK
6
CONTINUOUS
10
5.4551515748031498
20
-4.1986294881889759
11
5.4554518110236216
21
-4.1981346062992122
0
LINE
8
BLACK
6
CONTINUOUS
10
5.4554518110236216
20
-4.1981346062992122
11
5.4707881102362199
21
-4.1776861023622045
0
LINE
8
BLACK
6
CONTINUOUS
10
5.4707881102362199
20
-4.1776861023622045
11
5.4557261023622043
21
-4.1626240944881889
0
LINE
8
BLACK
6
CONTINUOUS
10
5.4557261023622043
20
-4.1626240944881889
11
5.4553588976377956
21
-4.1621766535433071
0
LINE
8
BLACK
6
CONTINUOUS
10
5.4553588976377956
20
-4.1621766535433071
11
5.454917992125984
21
-4.1611122047244091
0
LINE
8
BLACK
6
CONTINUOUS
10
5.454917992125984
20
-4.1611122047244091
11
5.454917992125984
21
-4.1599601574803149
0
LINE
8
BLACK
6
CONTINUOUS
10
5.454917992125984
20
-4.1599601574803149
11
5.4553588976377956
21
-4.1588957086614169
0
LINE
8
BLACK
6
CONTINUOUS
10
5.4553588976377956
20
-4.1588957086614169
11
5.4561735433070861
21
-4.1580810629921263
0
LINE
8
BLACK
6
CONTINUOUS
10
5.4561735433070861
20
-4.1580810629921263
11
5.4572379921259841
21
-4.1576401574803148
0
LINE
8
BLACK
6
CONTINUOUS
10
5.4572379921259841
20
-4.1576401574803148
11
5.4583900393700784
21
-4.1576401574803148
0
LINE
8
BLACK
6
CONTINUOUS
10
5.4583900393700784
20
-4.1576401574803148
11
5.4594544881889764
21
-4.1580810629921263
0
LINE
8
BLACK
6
CONTINUOUS
10
5.4594544881889764
20
-4.0280810629921255
11
5.4599019291338582
21
-4.0284482677165352
0
LINE
8
BLACK
6
CONTINUOUS
10
5.4599019291338582
20
-4.0284482677165352
11
5.4773584251968499
21
-4.0459047637795278
0
LINE
8
BLACK
6
CONTINUOUS
10
5.4773584251968499
20
-4.0459047637795278
11
5.4773584251968499
21
-4.0305361811023621
0
LINE
8
BLACK
6
CONTINUOUS
10
5.4773584251968499
20
-4.0305361811023621
11
5.4774151574803147
21
-4.0299601181102362
0
LINE
8
BLACK
6
CONTINUOUS
10
5.4774151574803147
20
-4.0299601181102362
11
5.4778560629921262
21
-4.028895708661417
0
LINE
8
BLACK
6
CONTINUOUS
10
5.4778560629921262
20
-4.028895708661417
11
5.4786707086614168
21
-4.0280810629921255
0
LINE
8
BLACK
6
CONTINUOUS
10
5.4786707086614168
20
-4.0280810629921255
11
5.4797351181102361
21
-4.0276401574803149
0
LINE
8
BLACK
6
CONTINUOUS
10
5.4797351181102361
20
-4.0276401574803149
11
5.4808872440944878
21
-4.0276401574803149
0
LINE
8
BLACK
6
CONTINUOUS
10
5.4808872440944878
20
-4.0276401574803149
11
5.481951653543307
21
-4.0280810629921255
0
LINE
8
BLACK
6
CONTINUOUS
10
5.481951653543307
20
-4.0280810629921255
11
5.4827662992125985
21
-4.028895708661417
0
LINE
8
BLACK
6
CONTINUOUS
10
5.4827662992125985
20
-4.028895708661417
11
5.4832072047244091
21
-4.0299601181102362
0
LINE
8
BLACK
6
CONTINUOUS
10
5.4832072047244091
20
-4.0299601181102362
11
5.483263937007874
21
-4.0305361811023621
0
LINE
8
BLACK
6
CONTINUOUS
10
5.483263937007874
20
-4.0305361811023621
11
5.483263937007874
21
-4.0699062598425195
0
LINE
8
BLACK
6
CONTINUOUS
10
5.483263937007874
20
-4.0699062598425195
11
5.4832072047244091
21
-4.0704823228346454
0
LINE
8
BLACK
6
CONTINUOUS
10
5.4832072047244091
20
-4.0704823228346454
11
5.4827662992125985
21
-4.0715467322834646
0
LINE
8
BLACK
6
CONTINUOUS
10
5.4827662992125985
20
-4.0715467322834646
11
5.481951653543307
21
-4.0723613779527561
0
LINE
8
BLACK
6
CONTINUOUS
10
5.481951653543307
20
-4.0723613779527561
11
5.4808872440944878
21
-4.0728022834645667
0
LINE
8
BLACK
6
CONTINUOUS
10
5.4808872440944878
20
-4.0728022834645667
11
5.4797351181102361
21
-4.0728022834645667
0
LINE
8
BLACK
6
CONTINUOUS
10
5.4797351181102361
20
-4.0728022834645667
11
5.4786707086614168
21
-4.0723613779527561
0
LINE
8
BLACK
6
CONTINUOUS
10
5.4786707086614168
20
-4.0723613779527561
11
5.4778560629921262
21
-4.0715467322834646
0
LINE
8
BLACK
6
CONTINUOUS
10
5.4778560629921262
20
-4.0715467322834646
11
5.4774151574803147
21
-4.0704823228346454
0
LINE
8
BLACK
6
CONTINUOUS
10
5.4774151574803147
20
-4.0704823228346454
11
5.4773584251968499
21
-4.0699062598425195
0
LINE
8
BLACK
6
CONTINUOUS
10
5.4773584251968499
20
-4.0699062598425195
11
5.4773584251968499
21
-4.0542564173228346
0
LINE
8
BLACK
6
CONTINUOUS
10
5.4773584251968499
20
-4.0542564173228346
11
5.475006338582677
21
-4.0519043307086617
0
LINE
8
BLACK
6
CONTINUOUS
10
5.475006338582677
20
-4.0519043307086617
11
5.4601762204724409
21
-4.0716779133858267
0
LINE
8
BLACK
6
CONTINUOUS
10
5.4601762204724409
20
-4.0716779133858267
11
5.4597851968503939
21
-4.0721047244094484
0
LINE
8
BLACK
6
CONTINUOUS
10
5.4597851968503939
20
-4.0721047244094484
11
5.4587938188976377
21
-4.0726916929133861
0
LINE
8
BLACK
6
CONTINUOUS
10
5.4587938188976377
20
-4.0726916929133861
11
5.4576533070866144
21
-4.0728546456692909
0
LINE
8
BLACK
6
CONTINUOUS
10
5.4576533070866144
20
-4.0728546456692909
11
5.4565372440944877
21
-4.0725687007874019
0
LINE
8
BLACK
6
CONTINUOUS
10
5.4565372440944877
20
-4.0725687007874019
11
5.4556155511811024
21
-4.0718774409448821
0
LINE
8
BLACK
6
CONTINUOUS
10
5.4556155511811024
20
-4.0718774409448821
11
5.4550285826771656
21
-4.070886062992126
0
LINE
8
BLACK
6
CONTINUOUS
10
5.4550285826771656
20
-4.070886062992126
11
5.4548656299212599
21
-4.0697455511811027
0
LINE
8
BLACK
6
CONTINUOUS
10
5.4548656299212599
20
-4.0697455511811027
11
5.4551515748031498
21
-4.068629488188976
0
LINE
8
BLACK
6
CONTINUOUS
10
5.4551515748031498
20
-4.068629488188976
11
5.4554518110236216
21
-4.0681346062992123
0
LINE
8
BLACK
6
CONTINUOUS
10
5.4554518110236216
20
-4.0681346062992123
11
5.4707881102362199
21
-4.0476861023622046
0
LINE
8
BLACK
6
CONTINUOUS
10
5.4707881102362199
20
-4.0476861023622046
11
5.4557261023622043
21
-4.032624094488189
0
LINE
8
BLACK
6
CONTINUOUS
10
5.4557261023622043
20
-4.032624094488189
11
5.4553588976377956
21
-4.0321766535433072
0
LINE
8
BLACK
6
CONTINUOUS
10
5.4553588976377956
20
-4.0321766535433072
11
5.454917992125984
21
-4.0311122047244092
0
LINE
8
BLACK
6
CONTINUOUS
10
5.454917992125984
20
-4.0311122047244092
11
5.454917992125984
21
-4.029960157480315
0
LINE
8
BLACK
6
CONTINUOUS
10
5.454917992125984
20
-4.029960157480315
11
5.4553588976377956
21
-4.028895708661417
0
LINE
8
BLACK
6
CONTINUOUS
10
5.4553588976377956
20
-4.028895708661417
11
5.4561735433070861
21
-4.0280810629921255
0
LINE
8
BLACK
6
CONTINUOUS
10
5.4561735433070861
20
-4.0280810629921255
11
5.4572379921259841
21
-4.0276401574803149
0
LINE
8
BLACK
6
CONTINUOUS
10
5.4572379921259841
20
-4.0276401574803149
11
5.4583900393700784
21
-4.0276401574803149
0
LINE
8
BLACK
6
CONTINUOUS
10
5.4583900393700784
20
-4.0276401574803149
11
5.4594544881889764
21
-4.0280810629921255
0
CIRCLE
8
BLACK
10
5.8585826771653542
20
-4.6730708661417326
40
0.0039370078740157
0
CIRCLE
8
BLACK
10
5.8999212598425199
20
-4.6730708661417326
40
0.0039370078740157
0
CIRCLE
8
BLACK
10
5.9412598425196848
20
-4.6730708661417326
40
0.0039370078740157
0
CIRCLE
8
BLACK
10
5.8585826771653542
20
-4.6317322834645669
40
0.0039370078740157
0
CIRCLE
8
BLACK
10
5.8999212598425199
20
-4.6317322834645669
40
0.0039370078740157
0
CIRCLE
8
BLACK
10
5.9412598425196848
20
-4.6317322834645669
40
0.0039370078740157
0
CIRCLE
8
BLACK
10
5.8585826771653542
20
-4.5903937007874012
40
0.0039370078740157
0
CIRCLE
8
BLACK
10
5.8999212598425199
20
-4.5903937007874012
40
0.0039370078740157
0
CIRCLE
8
BLACK
10
5.9412598425196848
20
-4.5903937007874012
40
0.0039370078740157
0
CIRCLE
8
BLACK
10
7.0599999999999996
20
-4.5
40
0.0068897637795276
0
CIRCLE
8
BLACK
10
7.1600000000000001
20
-4.5999999999999996
40
0.0068897637795276
0
CIRCLE
8
BLACK
10
7.1600000000000001
20
-4.3999999999999995
40
0.0068897637795276
0
CIRCLE
8
BLACK
10
6.96
20
-4.5999999999999996
40
0.0068897637795276
0
CIRCLE
8
BLACK
10
6.96
20
-4.3999999999999995
40
0.0068897637795276
  0
ENDSEC
  0
EOF
