  0
SECTION
  2
HEADER
  9
$ANGBASE
  50
0.0
  9
$ANGDIR
  70
1
  9
$MEASUREMENT
  70
0
  0
ENDSEC
  0
SECTION
  2
TABLES
  0
TABLE
  2
LTYPE
  70
4
  0
LTYPE
  5
40F
  2
CONTINUOUS
  70
0
  3
Solid line
  72
65
  73
0
  40
0.0
  0
LTYPE
  5
410
  2
DASHDOT
 70
0
  3
Dash Dot ____ _ ____ _
 72
65
 73
4
 40
2.0
 49
1.25
 49
-0.25
 49
0.25
 49
-0.25
  0
LTYPE
  5
411
  2
DASHED
 70
0
  3
Dashed __ __ __ __ __
 72
65
 73
2
 40
0.75
 49
0.5
 49
-0.25
  0
LTYPE
  5
43B
  2
DOTTED
 70
0
  3
Dotted .  .  .  .
 72
65
 73
2
 40
0.2
 49
0.0
 49
-0.2
  0
ENDTAB
  0
TABLE
  2
STYLE
  70
4
  0
STYLE
  2
KICAD
  70
0
  40
0
  41
1
  42
1
  50
0
  71
0
  3
isocp.shx
  0
STYLE
  2
KICADB
  70
0
  40
0
  41
1
  42
1
  50
0
  71
0
  3
isocp.shx
  0
STYLE
  2
KICADI
  70
0
  40
0
  41
1
  42
1
  50
15
  71
0
  3
isocp.shx
  0
STYLE
  2
KICADBI
  70
0
  40
0
  41
1
  42
1
  50
15
  71
0
  3
isocp.shx
  0
ENDTAB
  0
TABLE
  2
LAYER
  70
1
  0
LAYER
  2
BLACK
  70
0
  62
7
  6
CONTINUOUS
  0
ENDTAB
  0
ENDSEC
  0
SECTION
  2
ENTITIES
0
LINE
8
BLACK
6
CONTINUOUS
10
7.255666692913386
20
-4.4007403937007874
11
7.2567320472440944
21
-4.4018057480314958
0
LINE
8
BLACK
6
CONTINUOUS
10
7.2567320472440944
20
-4.4018057480314958
11
7.2567320472440944
21
-4.4033123622047246
0
LINE
8
BLACK
6
CONTINUOUS
10
7.2567320472440944
20
-4.4033123622047246
11
7.255666692913386
21
-4.404377716535433
0
LINE
8
BLACK
6
CONTINUOUS
10
7.255666692913386
20
-4.404377716535433
11
7.2549133858267716
21
-4.4045275590551176
0
LINE
8
BLACK
6
CONTINUOUS
10
7.2549133858267716
20
-4.4045275590551176
11
7.0029448818897633
21
-4.4045275590551176
0
LINE
8
BLACK
6
CONTINUOUS
10
7.0029448818897633
20
-4.4045275590551176
11
7.0029448818897633
21
-4.5954724409448815
0
LINE
8
BLACK
6
CONTINUOUS
10
7.0029448818897633
20
-4.5954724409448815
11
7.2549133858267716
21
-4.5954724409448815
0
LINE
8
BLACK
6
CONTINUOUS
10
7.2549133858267716
20
-4.5954724409448815
11
7.255666692913386
21
-4.595622283464567
0
LINE
8
BLACK
6
CONTINUOUS
10
7.255666692913386
20
-4.595622283464567
11
7.2567320472440944
21
-4.5966876377952754
0
LINE
8
BLACK
6
CONTINUOUS
10
7.2567320472440944
20
-4.5966876377952754
11
7.2567320472440944
21
-4.5981942519685042
0
LINE
8
BLACK
6
CONTINUOUS
10
7.2567320472440944
20
-4.5981942519685042
11
7.255666692913386
21
-4.5992596062992126
0
LINE
8
BLACK
6
CONTINUOUS
10
7.255666692913386
20
-4.5992596062992126
11
7.2549133858267716
21
-4.5994094488188972
0
LINE
8
BLACK
6
CONTINUOUS
10
7.2549133858267716
20
-4.5994094488188972
11
7.0009763779527558
21
-4.5994094488188972
0
LINE
8
BLACK
6
CONTINUOUS
10
7.0009763779527558
20
-4.5994094488188972
11
7.0002230708661415
21
-4.5992596062992126
0
LINE
8
BLACK
6
CONTINUOUS
10
7.0002230708661415
20
-4.5992596062992126
11
6.9991577165354331
21
-4.5981942519685042
0
LINE
8
BLACK
6
CONTINUOUS
10
6.9991577165354331
20
-4.5981942519685042
11
6.9990078740157475
21
-4.5974409448818898
0
LINE
8
BLACK
6
CONTINUOUS
10
6.9990078740157475
20
-4.5974409448818898
11
6.9990078740157475
21
-4.4025590551181102
0
LINE
8
BLACK
6
CONTINUOUS
10
6.9990078740157475
20
-4.4025590551181102
11
6.9991577165354331
21
-4.4018057480314958
0
LINE
8
BLACK
6
CONTINUOUS
10
6.9991577165354331
20
-4.4018057480314958
11
7.0002230708661415
21
-4.4007403937007874
0
LINE
8
BLACK
6
CONTINUOUS
10
7.0002230708661415
20
-4.4007403937007874
11
7.0009763779527558
21
-4.4005905511811019
0
LINE
8
BLACK
6
CONTINUOUS
10
7.0009763779527558
20
-4.4005905511811019
11
7.2549133858267716
21
-4.4005905511811019
0
LINE
8
BLACK
6
CONTINUOUS
10
7.2549133858267716
20
-4.4005905511811019
11
7.255666692913386
21
-4.4007403937007874
0
LINE
8
BLACK
6
CONTINUOUS
10
7.2905760629921259
20
-3.9071039763779525
11
7.2916404724409452
21
-3.9075448818897636
0
LINE
8
BLACK
6
CONTINUOUS
10
7.2916404724409452
20
-3.9075448818897636
11
7.2924551181102357
21
-3.908359527559055
0
LINE
8
BLACK
6
CONTINUOUS
10
7.2924551181102357
20
-3.908359527559055
11
7.2928960236220473
21
-3.9094239370078738
0
LINE
8
BLACK
6
CONTINUOUS
10
7.2928960236220473
20
-3.9094239370078738
11
7.2929527559055121
21
-3.9099999999999997
0
LINE
8
BLACK
6
CONTINUOUS
10
7.2929527559055121
20
-3.9099999999999997
11
7.2929527559055121
21
-5.0899999999999999
0
LINE
8
BLACK
6
CONTINUOUS
10
7.2929527559055121
20
-5.0899999999999999
11
7.2928960236220473
21
-5.0905760629921257
0
LINE
8
BLACK
6
CONTINUOUS
10
7.2928960236220473
20
-5.0905760629921257
11
7.2924551181102357
21
-5.091640472440945
0
LINE
8
BLACK
6
CONTINUOUS
10
7.2924551181102357
20
-5.091640472440945
11
7.2916404724409452
21
-5.0924551181102364
0
LINE
8
BLACK
6
CONTINUOUS
10
7.2916404724409452
20
-5.0924551181102364
11
7.2905760629921259
21
-5.0928960236220471
0
LINE
8
BLACK
6
CONTINUOUS
10
7.2905760629921259
20
-5.0928960236220471
11
7.29
21
-5.0929527559055119
0
LINE
8
BLACK
6
CONTINUOUS
10
7.29
20
-5.0929527559055119
11
5.3099999999999996
21
-5.0929527559055119
0
LINE
8
BLACK
6
CONTINUOUS
10
5.3099999999999996
20
-5.0929527559055119
11
5.3094239370078737
21
-5.0928960236220471
0
LINE
8
BLACK
6
CONTINUOUS
10
5.3094239370078737
20
-5.0928960236220471
11
5.3083595275590554
21
-5.0924551181102364
0
LINE
8
BLACK
6
CONTINUOUS
10
5.3083595275590554
20
-5.0924551181102364
11
5.3075448818897639
21
-5.091640472440945
0
LINE
8
BLACK
6
CONTINUOUS
10
5.3075448818897639
20
-5.091640472440945
11
5.3071039763779524
21
-5.0905760629921257
0
LINE
8
BLACK
6
CONTINUOUS
10
5.3071039763779524
20
-5.0905760629921257
11
5.3070472440944885
21
-5.0899999999999999
0
LINE
8
BLACK
6
CONTINUOUS
10
5.3070472440944885
20
-5.0899999999999999
11
5.3070472440944885
21
-3.9099999999999997
0
LINE
8
BLACK
6
CONTINUOUS
10
5.3070472440944885
20
-3.9099999999999997
11
5.3071039763779524
21
-3.9094239370078738
0
LINE
8
BLACK
6
CONTINUOUS
10
5.3071039763779524
20
-3.9094239370078738
11
5.3075448818897639
21
-3.908359527559055
0
LINE
8
BLACK
6
CONTINUOUS
10
5.3075448818897639
20
-3.908359527559055
11
5.3083595275590554
21
-3.9075448818897636
0
LINE
8
BLACK
6
CONTINUOUS
10
5.3083595275590554
20
-3.9075448818897636
11
5.3094239370078737
21
-3.9071039763779525
0
LINE
8
BLACK
6
CONTINUOUS
10
5.3094239370078737
20
-3.9071039763779525
11
5.3099999999999996
21
-3.9070472440944881
0
LINE
8
BLACK
6
CONTINUOUS
10
5.3099999999999996
20
-3.9070472440944881
11
7.29
21
-3.9070472440944881
0
LINE
8
BLACK
6
CONTINUOUS
10
7.29
20
-3.9070472440944881
11
7.2905760629921259
21
-3.9071039763779525
0
LINE
8
BLACK
6
CONTINUOUS
10
5.3129527559055116
20
-3.9129527559055117
11
5.3129527559055116
21
-5.0870472440944878
0
LINE
8
BLACK
6
CONTINUOUS
10
5.3129527559055116
20
-5.0870472440944878
11
7.287047244094488
21
-5.0870472440944878
0
LINE
8
BLACK
6
CONTINUOUS
10
7.287047244094488
20
-5.0870472440944878
11
7.287047244094488
21
-3.9129527559055117
0
LINE
8
BLACK
6
CONTINUOUS
10
7.287047244094488
20
-3.9129527559055117
11
5.3129527559055116
21
-3.9129527559055117
0
LINE
8
BLACK
6
CONTINUOUS
10
8.2947747244094483
20
-4.445551417322835
11
8.2958400787401576
21
-4.4466167716535434
0
LINE
8
BLACK
6
CONTINUOUS
10
8.2958400787401576
20
-4.4466167716535434
11
8.2958400787401576
21
-4.4481233858267712
0
LINE
8
BLACK
6
CONTINUOUS
10
8.2958400787401576
20
-4.4481233858267712
11
8.2947747244094483
21
-4.4491887401574806
0
LINE
8
BLACK
6
CONTINUOUS
10
8.2947747244094483
20
-4.4491887401574806
11
8.2940214173228348
21
-4.4493385826771652
0
LINE
8
BLACK
6
CONTINUOUS
10
8.2940214173228348
20
-4.4493385826771652
11
8.0420529133858274
21
-4.4493385826771652
0
LINE
8
BLACK
6
CONTINUOUS
10
8.0420529133858274
20
-4.4493385826771652
11
8.0420529133858274
21
-4.6402834645669291
0
LINE
8
BLACK
6
CONTINUOUS
10
8.0420529133858274
20
-4.6402834645669291
11
8.2940214173228348
21
-4.6402834645669291
0
LINE
8
BLACK
6
CONTINUOUS
10
8.2940214173228348
20
-4.6402834645669291
11
8.2947747244094483
21
-4.6404333070866137
0
LINE
8
BLACK
6
CONTINUOUS
10
8.2947747244094483
20
-4.6404333070866137
11
8.2958400787401576
21
-4.641498661417323
0
LINE
8
BLACK
6
CONTINUOUS
10
8.2958400787401576
20
-4.641498661417323
11
8.2958400787401576
21
-4.6430052755905509
0
LINE
8
BLACK
6
CONTINUOUS
10
8.2958400787401576
20
-4.6430052755905509
11
8.2947747244094483
21
-4.6440706299212593
0
LINE
8
BLACK
6
CONTINUOUS
10
8.2947747244094483
20
-4.6440706299212593
11
8.2940214173228348
21
-4.6442204724409448
0
LINE
8
BLACK
6
CONTINUOUS
10
8.2940214173228348
20
-4.6442204724409448
11
8.0400844094488182
21
-4.6442204724409448
0
LINE
8
BLACK
6
CONTINUOUS
10
8.0400844094488182
20
-4.6442204724409448
11
8.0393311023622047
21
-4.6440706299212593
0
LINE
8
BLACK
6
CONTINUOUS
10
8.0393311023622047
20
-4.6440706299212593
11
8.0382657480314954
21
-4.6430052755905509
0
LINE
8
BLACK
6
CONTINUOUS
10
8.0382657480314954
20
-4.6430052755905509
11
8.0381159055118108
21
-4.6422519685039365
0
LINE
8
BLACK
6
CONTINUOUS
10
8.0381159055118108
20
-4.6422519685039365
11
8.0381159055118108
21
-4.4473700787401578
0
LINE
8
BLACK
6
CONTINUOUS
10
8.0381159055118108
20
-4.4473700787401578
11
8.0382657480314954
21
-4.4466167716535434
0
LINE
8
BLACK
6
CONTINUOUS
10
8.0382657480314954
20
-4.4466167716535434
11
8.0393311023622047
21
-4.445551417322835
0
LINE
8
BLACK
6
CONTINUOUS
10
8.0393311023622047
20
-4.445551417322835
11
8.0400844094488182
21
-4.4454015748031495
0
LINE
8
BLACK
6
CONTINUOUS
10
8.0400844094488182
20
-4.4454015748031495
11
8.2940214173228348
21
-4.4454015748031495
0
LINE
8
BLACK
6
CONTINUOUS
10
8.2940214173228348
20
-4.4454015748031495
11
8.2947747244094483
21
-4.445551417322835
0
LINE
8
BLACK
6
CONTINUOUS
10
8.2322104724409453
20
-4.2539055118110234
11
8.2322105511811028
21
-4.2539055118110234
0
LINE
8
BLACK
6
CONTINUOUS
10
8.2322105511811028
20
-4.2539055118110234
11
8.2361640551181097
21
-4.2545322047244092
0
LINE
8
BLACK
6
CONTINUOUS
10
8.2361640551181097
20
-4.2545322047244092
11
8.2397304330708661
21
-4.2563498425196853
0
LINE
8
BLACK
6
CONTINUOUS
10
8.2397304330708661
20
-4.2563498425196853
11
8.2425607086614168
21
-4.2591805118110235
0
LINE
8
BLACK
6
CONTINUOUS
10
8.2425607086614168
20
-4.2591805118110235
11
8.2443777952755912
21
-4.262747204724409
0
LINE
8
BLACK
6
CONTINUOUS
10
8.2443777952755912
20
-4.262747204724409
11
8.2449971653543308
21
-4.2666580314960632
0
LINE
8
BLACK
6
CONTINUOUS
10
8.2449971653543308
20
-4.2666580314960632
11
8.2450056692913378
21
-4.2667007874015743
0
LINE
8
BLACK
6
CONTINUOUS
10
8.2450056692913378
20
-4.2667007874015743
11
8.2450056692913378
21
-4.3218188976377956
0
LINE
8
BLACK
6
CONTINUOUS
10
8.2450056692913378
20
-4.3218188976377956
11
8.2443794488188971
21
-4.3257730314960625
0
LINE
8
BLACK
6
CONTINUOUS
10
8.2443794488188971
20
-4.3257730314960625
11
8.2425620866141731
21
-4.329340196850394
0
LINE
8
BLACK
6
CONTINUOUS
10
8.2425620866141731
20
-4.329340196850394
11
8.2397314566929136
21
-4.332171220472441
0
LINE
8
BLACK
6
CONTINUOUS
10
8.2397314566929136
20
-4.332171220472441
11
8.2361645669291335
21
-4.3339890944881887
0
LINE
8
BLACK
6
CONTINUOUS
10
8.2361645669291335
20
-4.3339890944881887
11
8.2322105511811028
21
-4.3346159055118108
0
LINE
8
BLACK
6
CONTINUOUS
10
8.2322105511811028
20
-4.3346159055118108
11
8.2322105511811028
21
-4.3346141732283465
0
LINE
8
BLACK
6
CONTINUOUS
10
8.2322105511811028
20
-4.3346141732283465
11
8.2322104724409453
21
-4.3346141338582678
0
LINE
8
BLACK
6
CONTINUOUS
10
8.2322104724409453
20
-4.3346141338582678
11
8.2322103937007878
21
-4.3346141732283465
0
LINE
8
BLACK
6
CONTINUOUS
10
8.2322103937007878
20
-4.3346141732283465
11
8.1692184251968509
21
-4.3346141732283465
0
LINE
8
BLACK
6
CONTINUOUS
10
8.1692184251968509
20
-4.3346141732283465
11
8.1692182677165359
21
-4.3346141732283465
0
LINE
8
BLACK
6
CONTINUOUS
10
8.1692182677165359
20
-4.3346141732283465
11
8.1692176377952759
21
-4.3346140157480315
0
LINE
8
BLACK
6
CONTINUOUS
10
8.1692176377952759
20
-4.3346140157480315
11
8.165264015748031
21
-4.3339883858267712
0
LINE
8
BLACK
6
CONTINUOUS
10
8.165264015748031
20
-4.3339883858267712
11
8.16169657480315
21
-4.3321711417322835
0
LINE
8
BLACK
6
CONTINUOUS
10
8.16169657480315
20
-4.3321711417322835
11
8.158865393700788
21
-4.3293403937007877
0
LINE
8
BLACK
6
CONTINUOUS
10
8.158865393700788
20
-4.3293403937007877
11
8.1570476377952748
21
-4.3257732283464563
0
LINE
8
BLACK
6
CONTINUOUS
10
8.1570476377952748
20
-4.3257732283464563
11
8.156421259842519
21
-4.3218188976377956
0
LINE
8
BLACK
6
CONTINUOUS
10
8.156421259842519
20
-4.3218188976377956
11
8.1564229921259841
21
-4.3218188976377956
0
LINE
8
BLACK
6
CONTINUOUS
10
8.1564229921259841
20
-4.3218188976377956
11
8.1564229921259841
21
-4.2667007874015743
0
LINE
8
BLACK
6
CONTINUOUS
10
8.1564229921259841
20
-4.2667007874015743
11
8.1570492519685036
21
-4.2627470078740153
0
LINE
8
BLACK
6
CONTINUOUS
10
8.1570492519685036
20
-4.2627470078740153
11
8.1588667716535426
21
-4.2591803149606298
0
LINE
8
BLACK
6
CONTINUOUS
10
8.1588667716535426
20
-4.2591803149606298
11
8.1616975984251958
21
-4.2563499212598428
0
LINE
8
BLACK
6
CONTINUOUS
10
8.1616975984251958
20
-4.2563499212598428
11
8.1652645275590547
21
-4.2545329527559055
0
LINE
8
BLACK
6
CONTINUOUS
10
8.1652645275590547
20
-4.2545329527559055
11
8.1691750393700779
21
-4.2539140944881888
0
LINE
8
BLACK
6
CONTINUOUS
10
8.1691750393700779
20
-4.2539140944881888
11
8.1692182677165359
21
-4.2539055118110234
0
LINE
8
BLACK
6
CONTINUOUS
10
8.1692182677165359
20
-4.2539055118110234
11
8.2322103937007878
21
-4.2539055118110234
0
LINE
8
BLACK
6
CONTINUOUS
10
8.2322103937007878
20
-4.2539055118110234
11
8.2322104724409453
21
-4.2539055118110234
0
LINE
8
BLACK
6
CONTINUOUS
10
8.1692181102362209
20
-4.2558740157480317
11
8.1692181102362209
21
-4.2558757480314959
0
LINE
8
BLACK
6
CONTINUOUS
10
8.1692181102362209
20
-4.2558757480314959
11
8.1675034645669289
21
-4.2558755511811022
0
LINE
8
BLACK
6
CONTINUOUS
10
8.1675034645669289
20
-4.2558755511811022
11
8.1642418110236221
21
-4.2569348818897641
0
LINE
8
BLACK
6
CONTINUOUS
10
8.1642418110236221
20
-4.2569348818897641
11
8.1614672440944886
21
-4.2589503543307083
0
LINE
8
BLACK
6
CONTINUOUS
10
8.1614672440944886
20
-4.2589503543307083
11
8.1594513385826772
21
-4.2617246456692914
0
LINE
8
BLACK
6
CONTINUOUS
10
8.1594513385826772
20
-4.2617246456692914
11
8.1583915354330703
21
-4.2649861023622044
0
LINE
8
BLACK
6
CONTINUOUS
10
8.1583915354330703
20
-4.2649861023622044
11
8.1583914960629915
21
-4.2667007874015743
0
LINE
8
BLACK
6
CONTINUOUS
10
8.1583914960629915
20
-4.2667007874015743
11
8.1583914960629915
21
-4.3218188976377956
0
LINE
8
BLACK
6
CONTINUOUS
10
8.1583914960629915
20
-4.3218188976377956
11
8.1583897637795282
21
-4.3218275984251964
0
LINE
8
BLACK
6
CONTINUOUS
10
8.1583897637795282
20
-4.3218275984251964
11
8.1583898031496069
21
-4.3235338582677167
0
LINE
8
BLACK
6
CONTINUOUS
10
8.1583898031496069
20
-4.3235338582677167
11
8.1594497637795271
21
-4.3267958661417323
0
LINE
8
BLACK
6
CONTINUOUS
10
8.1594497637795271
20
-4.3267958661417323
11
8.1614659842519686
21
-4.3295705905511808
0
LINE
8
BLACK
6
CONTINUOUS
10
8.1614659842519686
20
-4.3295705905511808
11
8.1642410236220471
21
-4.3315863779527559
0
LINE
8
BLACK
6
CONTINUOUS
10
8.1642410236220471
20
-4.3315863779527559
11
8.1675031889763776
21
-4.3326459055118107
0
LINE
8
BLACK
6
CONTINUOUS
10
8.1675031889763776
20
-4.3326459055118107
11
8.1692181102362209
21
-4.3326456692913382
0
LINE
8
BLACK
6
CONTINUOUS
10
8.1692181102362209
20
-4.3326456692913382
11
8.1692181496062997
21
-4.3326456692913382
0
LINE
8
BLACK
6
CONTINUOUS
10
8.1692181496062997
20
-4.3326456692913382
11
8.1692182677165359
21
-4.3326456692913382
0
LINE
8
BLACK
6
CONTINUOUS
10
8.1692182677165359
20
-4.3326456692913382
11
8.2322103937007878
21
-4.3326456692913382
0
LINE
8
BLACK
6
CONTINUOUS
10
8.2322103937007878
20
-4.3326456692913382
11
8.2322190944881886
21
-4.3326473622047246
0
LINE
8
BLACK
6
CONTINUOUS
10
8.2322190944881886
20
-4.3326473622047246
11
8.2339251574803143
21
-4.3326471653543308
0
LINE
8
BLACK
6
CONTINUOUS
10
8.2339251574803143
20
-4.3326471653543308
11
8.2371869685039361
21
-4.3315868897637797
0
LINE
8
BLACK
6
CONTINUOUS
10
8.2371869685039361
20
-4.3315868897637797
11
8.2399615748031501
21
-4.3295706692913383
0
LINE
8
BLACK
6
CONTINUOUS
10
8.2399615748031501
20
-4.3295706692913383
11
8.2419774015748022
21
-4.3267957874015748
0
LINE
8
BLACK
6
CONTINUOUS
10
8.2419774015748022
20
-4.3267957874015748
11
8.2430371653543304
21
-4.323533818897638
0
LINE
8
BLACK
6
CONTINUOUS
10
8.2430371653543304
20
-4.323533818897638
11
8.2430371653543304
21
-4.3218188976377956
0
LINE
8
BLACK
6
CONTINUOUS
10
8.2430371653543304
20
-4.3218188976377956
11
8.2430371653543304
21
-4.2667007874015743
0
LINE
8
BLACK
6
CONTINUOUS
10
8.2430371653543304
20
-4.2667007874015743
11
8.2430354330708653
21
-4.2667007874015743
0
LINE
8
BLACK
6
CONTINUOUS
10
8.2430354330708653
20
-4.2667007874015743
11
8.243035472440944
21
-4.2649861417322832
0
LINE
8
BLACK
6
CONTINUOUS
10
8.243035472440944
20
-4.2649861417322832
11
8.2419758661417326
21
-4.2617246850393702
0
LINE
8
BLACK
6
CONTINUOUS
10
8.2419758661417326
20
-4.2617246850393702
11
8.2399603543307087
21
-4.2589502362204721
0
LINE
8
BLACK
6
CONTINUOUS
10
8.2399603543307087
20
-4.2589502362204721
11
8.2371861811023628
21
-4.2569343307086616
0
LINE
8
BLACK
6
CONTINUOUS
10
8.2371861811023628
20
-4.2569343307086616
11
8.233924881889763
21
-4.2558742519685042
0
LINE
8
BLACK
6
CONTINUOUS
10
8.233924881889763
20
-4.2558742519685042
11
8.2322102362204728
21
-4.2558740157480317
0
LINE
8
BLACK
6
CONTINUOUS
10
8.2322102362204728
20
-4.2558740157480317
11
8.1692182677165359
21
-4.2558740157480317
0
LINE
8
BLACK
6
CONTINUOUS
10
8.1692182677165359
20
-4.2558740157480317
11
8.1692181496062997
21
-4.2558739763779529
0
LINE
8
BLACK
6
CONTINUOUS
10
8.1692181496062997
20
-4.2558739763779529
11
8.1692181102362209
21
-4.2558740157480317
0
LINE
8
BLACK
6
CONTINUOUS
10
8.2322104724409453
20
-4.1141417322834641
11
8.2322105511811028
21
-4.1141417322834641
0
LINE
8
BLACK
6
CONTINUOUS
10
8.2322105511811028
20
-4.1141417322834641
11
8.2361640551181097
21
-4.1147684251968499
0
LINE
8
BLACK
6
CONTINUOUS
10
8.2361640551181097
20
-4.1147684251968499
11
8.2397304330708661
21
-4.116586062992126
0
LINE
8
BLACK
6
CONTINUOUS
10
8.2397304330708661
20
-4.116586062992126
11
8.2425607086614168
21
-4.1194167322834643
0
LINE
8
BLACK
6
CONTINUOUS
10
8.2425607086614168
20
-4.1194167322834643
11
8.2443777952755912
21
-4.1229834251968507
0
LINE
8
BLACK
6
CONTINUOUS
10
8.2443777952755912
20
-4.1229834251968507
11
8.2449971653543308
21
-4.1268942519685039
0
LINE
8
BLACK
6
CONTINUOUS
10
8.2449971653543308
20
-4.1268942519685039
11
8.2450056692913378
21
-4.126937007874016
0
LINE
8
BLACK
6
CONTINUOUS
10
8.2450056692913378
20
-4.126937007874016
11
8.2450056692913378
21
-4.1820551181102363
0
LINE
8
BLACK
6
CONTINUOUS
10
8.2450056692913378
20
-4.1820551181102363
11
8.2443794488188971
21
-4.1860092519685042
0
LINE
8
BLACK
6
CONTINUOUS
10
8.2443794488188971
20
-4.1860092519685042
11
8.2425620866141731
21
-4.1895764173228347
0
LINE
8
BLACK
6
CONTINUOUS
10
8.2425620866141731
20
-4.1895764173228347
11
8.2397314566929136
21
-4.1924074409448817
0
LINE
8
BLACK
6
CONTINUOUS
10
8.2397314566929136
20
-4.1924074409448817
11
8.2361645669291335
21
-4.1942253149606294
0
LINE
8
BLACK
6
CONTINUOUS
10
8.2361645669291335
20
-4.1942253149606294
11
8.2322105511811028
21
-4.1948521259842515
0
LINE
8
BLACK
6
CONTINUOUS
10
8.2322105511811028
20
-4.1948521259842515
11
8.2322105511811028
21
-4.1948503937007873
0
LINE
8
BLACK
6
CONTINUOUS
10
8.2322105511811028
20
-4.1948503937007873
11
8.2322104724409453
21
-4.1948503543307085
0
LINE
8
BLACK
6
CONTINUOUS
10
8.2322104724409453
20
-4.1948503543307085
11
8.2322103937007878
21
-4.1948503937007873
0
LINE
8
BLACK
6
CONTINUOUS
10
8.2322103937007878
20
-4.1948503937007873
11
8.1692184251968509
21
-4.1948503937007873
0
LINE
8
BLACK
6
CONTINUOUS
10
8.1692184251968509
20
-4.1948503937007873
11
8.1692182677165359
21
-4.1948503937007873
0
LINE
8
BLACK
6
CONTINUOUS
10
8.1692182677165359
20
-4.1948503937007873
11
8.1692176377952759
21
-4.1948502362204723
0
LINE
8
BLACK
6
CONTINUOUS
10
8.1692176377952759
20
-4.1948502362204723
11
8.165264015748031
21
-4.1942246062992128
0
LINE
8
BLACK
6
CONTINUOUS
10
8.165264015748031
20
-4.1942246062992128
11
8.16169657480315
21
-4.1924073622047242
0
LINE
8
BLACK
6
CONTINUOUS
10
8.16169657480315
20
-4.1924073622047242
11
8.158865393700788
21
-4.1895766141732285
0
LINE
8
BLACK
6
CONTINUOUS
10
8.158865393700788
20
-4.1895766141732285
11
8.1570476377952748
21
-4.1860094488188979
0
LINE
8
BLACK
6
CONTINUOUS
10
8.1570476377952748
20
-4.1860094488188979
11
8.156421259842519
21
-4.1820551181102363
0
LINE
8
BLACK
6
CONTINUOUS
10
8.156421259842519
20
-4.1820551181102363
11
8.1564229921259841
21
-4.1820551181102363
0
LINE
8
BLACK
6
CONTINUOUS
10
8.1564229921259841
20
-4.1820551181102363
11
8.1564229921259841
21
-4.126937007874016
0
LINE
8
BLACK
6
CONTINUOUS
10
8.1564229921259841
20
-4.126937007874016
11
8.1570492519685036
21
-4.1229832283464569
0
LINE
8
BLACK
6
CONTINUOUS
10
8.1570492519685036
20
-4.1229832283464569
11
8.1588667716535426
21
-4.1194165354330705
0
LINE
8
BLACK
6
CONTINUOUS
10
8.1588667716535426
20
-4.1194165354330705
11
8.1616975984251958
21
-4.1165861417322835
0
LINE
8
BLACK
6
CONTINUOUS
10
8.1616975984251958
20
-4.1165861417322835
11
8.1652645275590547
21
-4.1147691732283462
0
LINE
8
BLACK
6
CONTINUOUS
10
8.1652645275590547
20
-4.1147691732283462
11
8.1691750393700779
21
-4.1141503149606296
0
LINE
8
BLACK
6
CONTINUOUS
10
8.1691750393700779
20
-4.1141503149606296
11
8.1692182677165359
21
-4.1141417322834641
0
LINE
8
BLACK
6
CONTINUOUS
10
8.1692182677165359
20
-4.1141417322834641
11
8.2322103937007878
21
-4.1141417322834641
0
LINE
8
BLACK
6
CONTINUOUS
10
8.2322103937007878
20
-4.1141417322834641
11
8.2322104724409453
21
-4.1141417322834641
0
LINE
8
BLACK
6
CONTINUOUS
10
8.1692181102362209
20
-4.1161102362204725
11
8.1692181102362209
21
-4.1161119685039367
0
LINE
8
BLACK
6
CONTINUOUS
10
8.1692181102362209
20
-4.1161119685039367
11
8.1675034645669289
21
-4.1161117716535429
0
LINE
8
BLACK
6
CONTINUOUS
10
8.1675034645669289
20
-4.1161117716535429
11
8.1642418110236221
21
-4.1171711023622048
0
LINE
8
BLACK
6
CONTINUOUS
10
8.1642418110236221
20
-4.1171711023622048
11
8.1614672440944886
21
-4.1191865748031491
0
LINE
8
BLACK
6
CONTINUOUS
10
8.1614672440944886
20
-4.1191865748031491
11
8.1594513385826772
21
-4.1219608661417322
0
LINE
8
BLACK
6
CONTINUOUS
10
8.1594513385826772
20
-4.1219608661417322
11
8.1583915354330703
21
-4.1252223228346452
0
LINE
8
BLACK
6
CONTINUOUS
10
8.1583915354330703
20
-4.1252223228346452
11
8.1583914960629915
21
-4.126937007874016
0
LINE
8
BLACK
6
CONTINUOUS
10
8.1583914960629915
20
-4.126937007874016
11
8.1583914960629915
21
-4.1820551181102363
0
LINE
8
BLACK
6
CONTINUOUS
10
8.1583914960629915
20
-4.1820551181102363
11
8.1583897637795282
21
-4.182063818897638
0
LINE
8
BLACK
6
CONTINUOUS
10
8.1583897637795282
20
-4.182063818897638
11
8.1583898031496069
21
-4.1837700787401575
0
LINE
8
BLACK
6
CONTINUOUS
10
8.1583898031496069
20
-4.1837700787401575
11
8.1594497637795271
21
-4.187032086614173
0
LINE
8
BLACK
6
CONTINUOUS
10
8.1594497637795271
20
-4.187032086614173
11
8.1614659842519686
21
-4.1898068110236215
0
LINE
8
BLACK
6
CONTINUOUS
10
8.1614659842519686
20
-4.1898068110236215
11
8.1642410236220471
21
-4.1918225984251967
0
LINE
8
BLACK
6
CONTINUOUS
10
8.1642410236220471
20
-4.1918225984251967
11
8.1675031889763776
21
-4.1928821259842515
0
LINE
8
BLACK
6
CONTINUOUS
10
8.1675031889763776
20
-4.1928821259842515
11
8.1692181102362209
21
-4.1928818897637798
0
LINE
8
BLACK
6
CONTINUOUS
10
8.1692181102362209
20
-4.1928818897637798
11
8.1692181496062997
21
-4.1928818897637798
0
LINE
8
BLACK
6
CONTINUOUS
10
8.1692181496062997
20
-4.1928818897637798
11
8.1692182677165359
21
-4.1928818897637798
0
LINE
8
BLACK
6
CONTINUOUS
10
8.1692182677165359
20
-4.1928818897637798
11
8.2322103937007878
21
-4.1928818897637798
0
LINE
8
BLACK
6
CONTINUOUS
10
8.2322103937007878
20
-4.1928818897637798
11
8.2322190944881886
21
-4.1928835826771653
0
LINE
8
BLACK
6
CONTINUOUS
10
8.2322190944881886
20
-4.1928835826771653
11
8.2339251574803143
21
-4.1928833858267716
0
LINE
8
BLACK
6
CONTINUOUS
10
8.2339251574803143
20
-4.1928833858267716
11
8.2371869685039361
21
-4.1918231102362205
0
LINE
8
BLACK
6
CONTINUOUS
10
8.2371869685039361
20
-4.1918231102362205
11
8.2399615748031501
21
-4.189806889763779
0
LINE
8
BLACK
6
CONTINUOUS
10
8.2399615748031501
20
-4.189806889763779
11
8.2419774015748022
21
-4.1870320078740155
0
LINE
8
BLACK
6
CONTINUOUS
10
8.2419774015748022
20
-4.1870320078740155
11
8.2430371653543304
21
-4.1837700393700787
0
LINE
8
BLACK
6
CONTINUOUS
10
8.2430371653543304
20
-4.1837700393700787
11
8.2430371653543304
21
-4.1820551181102363
0
LINE
8
BLACK
6
CONTINUOUS
10
8.2430371653543304
20
-4.1820551181102363
11
8.2430371653543304
21
-4.126937007874016
0
LINE
8
BLACK
6
CONTINUOUS
10
8.2430371653543304
20
-4.126937007874016
11
8.2430354330708653
21
-4.126937007874016
0
LINE
8
BLACK
6
CONTINUOUS
10
8.2430354330708653
20
-4.126937007874016
11
8.243035472440944
21
-4.1252223622047239
0
LINE
8
BLACK
6
CONTINUOUS
10
8.243035472440944
20
-4.1252223622047239
11
8.2419758661417326
21
-4.1219609055118109
0
LINE
8
BLACK
6
CONTINUOUS
10
8.2419758661417326
20
-4.1219609055118109
11
8.2399603543307087
21
-4.1191864566929137
0
LINE
8
BLACK
6
CONTINUOUS
10
8.2399603543307087
20
-4.1191864566929137
11
8.2371861811023628
21
-4.1171705511811023
0
LINE
8
BLACK
6
CONTINUOUS
10
8.2371861811023628
20
-4.1171705511811023
11
8.233924881889763
21
-4.116110472440945
0
LINE
8
BLACK
6
CONTINUOUS
10
8.233924881889763
20
-4.116110472440945
11
8.2322102362204728
21
-4.1161102362204725
0
LINE
8
BLACK
6
CONTINUOUS
10
8.2322102362204728
20
-4.1161102362204725
11
8.1692182677165359
21
-4.1161102362204725
0
LINE
8
BLACK
6
CONTINUOUS
10
8.1692182677165359
20
-4.1161102362204725
11
8.1692181496062997
21
-4.1161101968503937
0
LINE
8
BLACK
6
CONTINUOUS
10
8.1692181496062997
20
-4.1161101968503937
11
8.1692181102362209
21
-4.1161102362204725
0
LINE
8
BLACK
6
CONTINUOUS
10
8.2322104724409453
20
-3.9743779527559053
11
8.2322105511811028
21
-3.9743779527559053
0
LINE
8
BLACK
6
CONTINUOUS
10
8.2322105511811028
20
-3.9743779527559053
11
8.2361640551181097
21
-3.9750046456692911
0
LINE
8
BLACK
6
CONTINUOUS
10
8.2361640551181097
20
-3.9750046456692911
11
8.2397304330708661
21
-3.9768222834645668
0
LINE
8
BLACK
6
CONTINUOUS
10
8.2397304330708661
20
-3.9768222834645668
11
8.2425607086614168
21
-3.9796529527559055
0
LINE
8
BLACK
6
CONTINUOUS
10
8.2425607086614168
20
-3.9796529527559055
11
8.2443777952755912
21
-3.9832196456692914
0
LINE
8
BLACK
6
CONTINUOUS
10
8.2443777952755912
20
-3.9832196456692914
11
8.2449971653543308
21
-3.9871304724409447
0
LINE
8
BLACK
6
CONTINUOUS
10
8.2449971653543308
20
-3.9871304724409447
11
8.2450056692913378
21
-3.9871732283464567
0
LINE
8
BLACK
6
CONTINUOUS
10
8.2450056692913378
20
-3.9871732283464567
11
8.2450056692913378
21
-4.0422913385826771
0
LINE
8
BLACK
6
CONTINUOUS
10
8.2450056692913378
20
-4.0422913385826771
11
8.2443794488188971
21
-4.0462454724409449
0
LINE
8
BLACK
6
CONTINUOUS
10
8.2443794488188971
20
-4.0462454724409449
11
8.2425620866141731
21
-4.0498126377952754
0
LINE
8
BLACK
6
CONTINUOUS
10
8.2425620866141731
20
-4.0498126377952754
11
8.2397314566929136
21
-4.0526436614173225
0
LINE
8
BLACK
6
CONTINUOUS
10
8.2397314566929136
20
-4.0526436614173225
11
8.2361645669291335
21
-4.0544615354330711
0
LINE
8
BLACK
6
CONTINUOUS
10
8.2361645669291335
20
-4.0544615354330711
11
8.2322105511811028
21
-4.0550883464566931
0
LINE
8
BLACK
6
CONTINUOUS
10
8.2322105511811028
20
-4.0550883464566931
11
8.2322105511811028
21
-4.055086614173228
0
LINE
8
BLACK
6
CONTINUOUS
10
8.2322105511811028
20
-4.055086614173228
11
8.2322104724409453
21
-4.0550865748031493
0
LINE
8
BLACK
6
CONTINUOUS
10
8.2322104724409453
20
-4.0550865748031493
11
8.2322103937007878
21
-4.055086614173228
0
LINE
8
BLACK
6
CONTINUOUS
10
8.2322103937007878
20
-4.055086614173228
11
8.1692184251968509
21
-4.055086614173228
0
LINE
8
BLACK
6
CONTINUOUS
10
8.1692184251968509
20
-4.055086614173228
11
8.1692182677165359
21
-4.055086614173228
0
LINE
8
BLACK
6
CONTINUOUS
10
8.1692182677165359
20
-4.055086614173228
11
8.1692176377952759
21
-4.055086456692913
0
LINE
8
BLACK
6
CONTINUOUS
10
8.1692176377952759
20
-4.055086456692913
11
8.165264015748031
21
-4.0544608267716535
0
LINE
8
BLACK
6
CONTINUOUS
10
8.165264015748031
20
-4.0544608267716535
11
8.16169657480315
21
-4.052643582677165
0
LINE
8
BLACK
6
CONTINUOUS
10
8.16169657480315
20
-4.052643582677165
11
8.158865393700788
21
-4.0498128346456692
0
LINE
8
BLACK
6
CONTINUOUS
10
8.158865393700788
20
-4.0498128346456692
11
8.1570476377952748
21
-4.0462456692913387
0
LINE
8
BLACK
6
CONTINUOUS
10
8.1570476377952748
20
-4.0462456692913387
11
8.156421259842519
21
-4.0422913385826771
0
LINE
8
BLACK
6
CONTINUOUS
10
8.156421259842519
20
-4.0422913385826771
11
8.1564229921259841
21
-4.0422913385826771
0
LINE
8
BLACK
6
CONTINUOUS
10
8.1564229921259841
20
-4.0422913385826771
11
8.1564229921259841
21
-3.9871732283464567
0
LINE
8
BLACK
6
CONTINUOUS
10
8.1564229921259841
20
-3.9871732283464567
11
8.1570492519685036
21
-3.9832194488188977
0
LINE
8
BLACK
6
CONTINUOUS
10
8.1570492519685036
20
-3.9832194488188977
11
8.1588667716535426
21
-3.9796527559055117
0
LINE
8
BLACK
6
CONTINUOUS
10
8.1588667716535426
20
-3.9796527559055117
11
8.1616975984251958
21
-3.9768223622047243
0
LINE
8
BLACK
6
CONTINUOUS
10
8.1616975984251958
20
-3.9768223622047243
11
8.1652645275590547
21
-3.9750053937007874
0
LINE
8
BLACK
6
CONTINUOUS
10
8.1652645275590547
20
-3.9750053937007874
11
8.1691750393700779
21
-3.9743865354330707
0
LINE
8
BLACK
6
CONTINUOUS
10
8.1691750393700779
20
-3.9743865354330707
11
8.1692182677165359
21
-3.9743779527559053
0
LINE
8
BLACK
6
CONTINUOUS
10
8.1692182677165359
20
-3.9743779527559053
11
8.2322103937007878
21
-3.9743779527559053
0
LINE
8
BLACK
6
CONTINUOUS
10
8.2322103937007878
20
-3.9743779527559053
11
8.2322104724409453
21
-3.9743779527559053
0
LINE
8
BLACK
6
CONTINUOUS
10
8.1692181102362209
20
-3.9763464566929132
11
8.1692181102362209
21
-3.9763481889763779
0
LINE
8
BLACK
6
CONTINUOUS
10
8.1692181102362209
20
-3.9763481889763779
11
8.1675034645669289
21
-3.9763479921259841
0
LINE
8
BLACK
6
CONTINUOUS
10
8.1675034645669289
20
-3.9763479921259841
11
8.1642418110236221
21
-3.9774073228346456
0
LINE
8
BLACK
6
CONTINUOUS
10
8.1642418110236221
20
-3.9774073228346456
11
8.1614672440944886
21
-3.9794227952755903
0
LINE
8
BLACK
6
CONTINUOUS
10
8.1614672440944886
20
-3.9794227952755903
11
8.1594513385826772
21
-3.9821970866141729
0
LINE
8
BLACK
6
CONTINUOUS
10
8.1594513385826772
20
-3.9821970866141729
11
8.1583915354330703
21
-3.9854585433070864
0
LINE
8
BLACK
6
CONTINUOUS
10
8.1583915354330703
20
-3.9854585433070864
11
8.1583914960629915
21
-3.9871732283464567
0
LINE
8
BLACK
6
CONTINUOUS
10
8.1583914960629915
20
-3.9871732283464567
11
8.1583914960629915
21
-4.0422913385826771
0
LINE
8
BLACK
6
CONTINUOUS
10
8.1583914960629915
20
-4.0422913385826771
11
8.1583897637795282
21
-4.0423000393700788
0
LINE
8
BLACK
6
CONTINUOUS
10
8.1583897637795282
20
-4.0423000393700788
11
8.1583898031496069
21
-4.0440062992125982
0
LINE
8
BLACK
6
CONTINUOUS
10
8.1583898031496069
20
-4.0440062992125982
11
8.1594497637795271
21
-4.0472683070866138
0
LINE
8
BLACK
6
CONTINUOUS
10
8.1594497637795271
20
-4.0472683070866138
11
8.1614659842519686
21
-4.0500430314960632
0
LINE
8
BLACK
6
CONTINUOUS
10
8.1614659842519686
20
-4.0500430314960632
11
8.1642410236220471
21
-4.0520588188976374
0
LINE
8
BLACK
6
CONTINUOUS
10
8.1642410236220471
20
-4.0520588188976374
11
8.1675031889763776
21
-4.0531183464566931
0
LINE
8
BLACK
6
CONTINUOUS
10
8.1675031889763776
20
-4.0531183464566931
11
8.1692181102362209
21
-4.0531181102362206
0
LINE
8
BLACK
6
CONTINUOUS
10
8.1692181102362209
20
-4.0531181102362206
11
8.1692181496062997
21
-4.0531181102362206
0
LINE
8
BLACK
6
CONTINUOUS
10
8.1692181496062997
20
-4.0531181102362206
11
8.1692182677165359
21
-4.0531181102362206
0
LINE
8
BLACK
6
CONTINUOUS
10
8.1692182677165359
20
-4.0531181102362206
11
8.2322103937007878
21
-4.0531181102362206
0
LINE
8
BLACK
6
CONTINUOUS
10
8.2322103937007878
20
-4.0531181102362206
11
8.2322190944881886
21
-4.0531198031496061
0
LINE
8
BLACK
6
CONTINUOUS
10
8.2322190944881886
20
-4.0531198031496061
11
8.2339251574803143
21
-4.0531196062992123
0
LINE
8
BLACK
6
CONTINUOUS
10
8.2339251574803143
20
-4.0531196062992123
11
8.2371869685039361
21
-4.0520593307086612
0
LINE
8
BLACK
6
CONTINUOUS
10
8.2371869685039361
20
-4.0520593307086612
11
8.2399615748031501
21
-4.0500431102362207
0
LINE
8
BLACK
6
CONTINUOUS
10
8.2399615748031501
20
-4.0500431102362207
11
8.2419774015748022
21
-4.0472682283464563
0
LINE
8
BLACK
6
CONTINUOUS
10
8.2419774015748022
20
-4.0472682283464563
11
8.2430371653543304
21
-4.0440062598425195
0
LINE
8
BLACK
6
CONTINUOUS
10
8.2430371653543304
20
-4.0440062598425195
11
8.2430371653543304
21
-4.0422913385826771
0
LINE
8
BLACK
6
CONTINUOUS
10
8.2430371653543304
20
-4.0422913385826771
11
8.2430371653543304
21
-3.9871732283464567
0
LINE
8
BLACK
6
CONTINUOUS
10
8.2430371653543304
20
-3.9871732283464567
11
8.2430354330708653
21
-3.9871732283464567
0
LINE
8
BLACK
6
CONTINUOUS
10
8.2430354330708653
20
-3.9871732283464567
11
8.243035472440944
21
-3.9854585826771651
0
LINE
8
BLACK
6
CONTINUOUS
10
8.243035472440944
20
-3.9854585826771651
11
8.2419758661417326
21
-3.9821971259842517
0
LINE
8
BLACK
6
CONTINUOUS
10
8.2419758661417326
20
-3.9821971259842517
11
8.2399603543307087
21
-3.979422677165354
0
LINE
8
BLACK
6
CONTINUOUS
10
8.2399603543307087
20
-3.979422677165354
11
8.2371861811023628
21
-3.9774067716535431
0
LINE
8
BLACK
6
CONTINUOUS
10
8.2371861811023628
20
-3.9774067716535431
11
8.233924881889763
21
-3.9763466929133857
0
LINE
8
BLACK
6
CONTINUOUS
10
8.233924881889763
20
-3.9763466929133857
11
8.2322102362204728
21
-3.9763464566929132
0
LINE
8
BLACK
6
CONTINUOUS
10
8.2322102362204728
20
-3.9763464566929132
11
8.1692182677165359
21
-3.9763464566929132
0
LINE
8
BLACK
6
CONTINUOUS
10
8.1692182677165359
20
-3.9763464566929132
11
8.1692181496062997
21
-3.9763464173228344
0
LINE
8
BLACK
6
CONTINUOUS
10
8.1692181496062997
20
-3.9763464173228344
11
8.1692181102362209
21
-3.9763464566929132
0
CIRCLE
8
BLACK
10
6.10548031496063
20
-3.3428346456692912
40
0.0068897637795276
0
CIRCLE
8
BLACK
10
6.7054803149606297
20
-3.3428346456692912
40
0.0068897637795276
0
CIRCLE
8
BLACK
10
6.7054803149606297
20
-3.0428346456692914
40
0.0068897637795276
0
CIRCLE
8
BLACK
10
6.10548031496063
20
-3.0428346456692914
40
0.0068897637795276
0
CIRCLE
8
BLACK
10
5.8585826771653542
20
-4.6730708661417326
40
0.0039370078740157
0
CIRCLE
8
BLACK
10
5.8999212598425199
20
-4.6730708661417326
40
0.0039370078740157
0
CIRCLE
8
BLACK
10
5.9412598425196848
20
-4.6730708661417326
40
0.0039370078740157
0
CIRCLE
8
BLACK
10
5.8585826771653542
20
-4.6317322834645669
40
0.0039370078740157
0
CIRCLE
8
BLACK
10
5.8999212598425199
20
-4.6317322834645669
40
0.0039370078740157
0
CIRCLE
8
BLACK
10
5.9412598425196848
20
-4.6317322834645669
40
0.0039370078740157
0
CIRCLE
8
BLACK
10
5.8585826771653542
20
-4.5903937007874012
40
0.0039370078740157
0
CIRCLE
8
BLACK
10
5.8999212598425199
20
-4.5903937007874012
40
0.0039370078740157
0
CIRCLE
8
BLACK
10
5.9412598425196848
20
-4.5903937007874012
40
0.0039370078740157
  0
ENDSEC
  0
EOF
