  0
SECTION
  2
HEADER
  9
$ANGBASE
  50
0.0
  9
$ANGDIR
  70
1
  9
$MEASUREMENT
  70
0
  0
ENDSEC
  0
SECTION
  2
TABLES
  0
TABLE
  2
LTYPE
  70
4
  0
LTYPE
  5
40F
  2
CONTINUOUS
  70
0
  3
Solid line
  72
65
  73
0
  40
0.0
  0
LTYPE
  5
410
  2
DASHDOT
 70
0
  3
Dash Dot ____ _ ____ _
 72
65
 73
4
 40
2.0
 49
1.25
 49
-0.25
 49
0.25
 49
-0.25
  0
LTYPE
  5
411
  2
DASHED
 70
0
  3
Dashed __ __ __ __ __
 72
65
 73
2
 40
0.75
 49
0.5
 49
-0.25
  0
LTYPE
  5
43B
  2
DOTTED
 70
0
  3
Dotted .  .  .  .
 72
65
 73
2
 40
0.2
 49
0.0
 49
-0.2
  0
ENDTAB
  0
TABLE
  2
STYLE
  70
4
  0
STYLE
  2
KICAD
  70
0
  40
0
  41
1
  42
1
  50
0
  71
0
  3
isocp.shx
  0
STYLE
  2
KICADB
  70
0
  40
0
  41
1
  42
1
  50
0
  71
0
  3
isocp.shx
  0
STYLE
  2
KICADI
  70
0
  40
0
  41
1
  42
1
  50
15
  71
0
  3
isocp.shx
  0
STYLE
  2
KICADBI
  70
0
  40
0
  41
1
  42
1
  50
15
  71
0
  3
isocp.shx
  0
ENDTAB
  0
TABLE
  2
LAYER
  70
1
  0
LAYER
  2
BLACK
  70
0
  62
7
  6
CONTINUOUS
  0
ENDTAB
  0
ENDSEC
  0
SECTION
  2
ENTITIES
0
LINE
8
BLACK
6
CONTINUOUS
10
5.7239055118110231
20
-5.979771338582677
11
5.7270477559055113
21
-5.982408031496063
0
LINE
8
BLACK
6
CONTINUOUS
10
5.7270477559055113
20
-5.982408031496063
11
5.7290987401574798
21
-5.985960393700787
0
LINE
8
BLACK
6
CONTINUOUS
10
5.7290987401574798
20
-5.985960393700787
11
5.7298110236220472
21
-5.9900000000000002
0
LINE
8
BLACK
6
CONTINUOUS
10
5.7298110236220472
20
-5.9900000000000002
11
5.7290987401574798
21
-5.9940396062992125
0
LINE
8
BLACK
6
CONTINUOUS
10
5.7290987401574798
20
-5.9940396062992125
11
5.7270477559055113
21
-5.9975919685039365
0
LINE
8
BLACK
6
CONTINUOUS
10
5.7270477559055113
20
-5.9975919685039365
11
5.7239055118110231
21
-6.0002286614173226
0
LINE
8
BLACK
6
CONTINUOUS
10
5.7239055118110231
20
-6.0002286614173226
11
5.7200509448818897
21
-6.0016315748031497
0
LINE
8
BLACK
6
CONTINUOUS
10
5.7200509448818897
20
-6.0016315748031497
11
5.7159490551181102
21
-6.0016315748031497
0
LINE
8
BLACK
6
CONTINUOUS
10
5.7159490551181102
20
-6.0016315748031497
11
5.7120944881889759
21
-6.0002286614173226
0
LINE
8
BLACK
6
CONTINUOUS
10
5.7120944881889759
20
-6.0002286614173226
11
5.7089522440944878
21
-5.9975919685039365
0
LINE
8
BLACK
6
CONTINUOUS
10
5.7089522440944878
20
-5.9975919685039365
11
5.7069012598425193
21
-5.9940396062992125
0
LINE
8
BLACK
6
CONTINUOUS
10
5.7069012598425193
20
-5.9940396062992125
11
5.7061889763779527
21
-5.9900000000000002
0
LINE
8
BLACK
6
CONTINUOUS
10
5.7061889763779527
20
-5.9900000000000002
11
5.7069012598425193
21
-5.985960393700787
0
LINE
8
BLACK
6
CONTINUOUS
10
5.7069012598425193
20
-5.985960393700787
11
5.7089522440944878
21
-5.982408031496063
0
LINE
8
BLACK
6
CONTINUOUS
10
5.7089522440944878
20
-5.982408031496063
11
5.7120944881889759
21
-5.979771338582677
0
LINE
8
BLACK
6
CONTINUOUS
10
5.7120944881889759
20
-5.979771338582677
11
5.7159490551181102
21
-5.9783684251968499
0
LINE
8
BLACK
6
CONTINUOUS
10
5.7159490551181102
20
-5.9783684251968499
11
5.7200509448818897
21
-5.9783684251968499
0
LINE
8
BLACK
6
CONTINUOUS
10
5.7200509448818897
20
-5.9783684251968499
11
5.7239055118110231
21
-5.979771338582677
0
LINE
8
BLACK
6
CONTINUOUS
10
5.7739055118110238
20
-5.979771338582677
11
5.777047755905512
21
-5.982408031496063
0
LINE
8
BLACK
6
CONTINUOUS
10
5.777047755905512
20
-5.982408031496063
11
5.7790987401574805
21
-5.985960393700787
0
LINE
8
BLACK
6
CONTINUOUS
10
5.7790987401574805
20
-5.985960393700787
11
5.779811023622047
21
-5.9900000000000002
0
LINE
8
BLACK
6
CONTINUOUS
10
5.779811023622047
20
-5.9900000000000002
11
5.7790987401574805
21
-5.9940396062992125
0
LINE
8
BLACK
6
CONTINUOUS
10
5.7790987401574805
20
-5.9940396062992125
11
5.777047755905512
21
-5.9975919685039365
0
LINE
8
BLACK
6
CONTINUOUS
10
5.777047755905512
20
-5.9975919685039365
11
5.7739055118110238
21
-6.0002286614173226
0
LINE
8
BLACK
6
CONTINUOUS
10
5.7739055118110238
20
-6.0002286614173226
11
5.7700509448818895
21
-6.0016315748031497
0
LINE
8
BLACK
6
CONTINUOUS
10
5.7700509448818895
20
-6.0016315748031497
11
5.7659490551181101
21
-6.0016315748031497
0
LINE
8
BLACK
6
CONTINUOUS
10
5.7659490551181101
20
-6.0016315748031497
11
5.7620944881889766
21
-6.0002286614173226
0
LINE
8
BLACK
6
CONTINUOUS
10
5.7620944881889766
20
-6.0002286614173226
11
5.7589522440944885
21
-5.9975919685039365
0
LINE
8
BLACK
6
CONTINUOUS
10
5.7589522440944885
20
-5.9975919685039365
11
5.75690125984252
21
-5.9940396062992125
0
LINE
8
BLACK
6
CONTINUOUS
10
5.75690125984252
20
-5.9940396062992125
11
5.7561889763779526
21
-5.9900000000000002
0
LINE
8
BLACK
6
CONTINUOUS
10
5.7561889763779526
20
-5.9900000000000002
11
5.75690125984252
21
-5.985960393700787
0
LINE
8
BLACK
6
CONTINUOUS
10
5.75690125984252
20
-5.985960393700787
11
5.7589522440944885
21
-5.982408031496063
0
LINE
8
BLACK
6
CONTINUOUS
10
5.7589522440944885
20
-5.982408031496063
11
5.7620944881889766
21
-5.979771338582677
0
LINE
8
BLACK
6
CONTINUOUS
10
5.7620944881889766
20
-5.979771338582677
11
5.7659490551181101
21
-5.9783684251968499
0
LINE
8
BLACK
6
CONTINUOUS
10
5.7659490551181101
20
-5.9783684251968499
11
5.7700509448818895
21
-5.9783684251968499
0
LINE
8
BLACK
6
CONTINUOUS
10
5.7700509448818895
20
-5.9783684251968499
11
5.7739055118110238
21
-5.979771338582677
0
LINE
8
BLACK
6
CONTINUOUS
10
5.8389055118110234
20
-5.979771338582677
11
5.8420477559055115
21
-5.982408031496063
0
LINE
8
BLACK
6
CONTINUOUS
10
5.8420477559055115
20
-5.982408031496063
11
5.84409874015748
21
-5.985960393700787
0
LINE
8
BLACK
6
CONTINUOUS
10
5.84409874015748
20
-5.985960393700787
11
5.8448110236220474
21
-5.9900000000000002
0
LINE
8
BLACK
6
CONTINUOUS
10
5.8448110236220474
20
-5.9900000000000002
11
5.84409874015748
21
-5.9940396062992125
0
LINE
8
BLACK
6
CONTINUOUS
10
5.84409874015748
20
-5.9940396062992125
11
5.8420477559055115
21
-5.9975919685039365
0
LINE
8
BLACK
6
CONTINUOUS
10
5.8420477559055115
20
-5.9975919685039365
11
5.8389055118110234
21
-6.0002286614173226
0
LINE
8
BLACK
6
CONTINUOUS
10
5.8389055118110234
20
-6.0002286614173226
11
5.8350509448818899
21
-6.0016315748031497
0
LINE
8
BLACK
6
CONTINUOUS
10
5.8350509448818899
20
-6.0016315748031497
11
5.8309490551181105
21
-6.0016315748031497
0
LINE
8
BLACK
6
CONTINUOUS
10
5.8309490551181105
20
-6.0016315748031497
11
5.8270944881889761
21
-6.0002286614173226
0
LINE
8
BLACK
6
CONTINUOUS
10
5.8270944881889761
20
-6.0002286614173226
11
5.823952244094488
21
-5.9975919685039365
0
LINE
8
BLACK
6
CONTINUOUS
10
5.823952244094488
20
-5.9975919685039365
11
5.8219012598425195
21
-5.9940396062992125
0
LINE
8
BLACK
6
CONTINUOUS
10
5.8219012598425195
20
-5.9940396062992125
11
5.821188976377953
21
-5.9900000000000002
0
LINE
8
BLACK
6
CONTINUOUS
10
5.821188976377953
20
-5.9900000000000002
11
5.8219012598425195
21
-5.985960393700787
0
LINE
8
BLACK
6
CONTINUOUS
10
5.8219012598425195
20
-5.985960393700787
11
5.823952244094488
21
-5.982408031496063
0
LINE
8
BLACK
6
CONTINUOUS
10
5.823952244094488
20
-5.982408031496063
11
5.8270944881889761
21
-5.979771338582677
0
LINE
8
BLACK
6
CONTINUOUS
10
5.8270944881889761
20
-5.979771338582677
11
5.8309490551181105
21
-5.9783684251968499
0
LINE
8
BLACK
6
CONTINUOUS
10
5.8309490551181105
20
-5.9783684251968499
11
5.8350509448818899
21
-5.9783684251968499
0
LINE
8
BLACK
6
CONTINUOUS
10
5.8350509448818899
20
-5.9783684251968499
11
5.8389055118110234
21
-5.979771338582677
0
LINE
8
BLACK
6
CONTINUOUS
10
5.8839055118110233
20
-5.979771338582677
11
5.8870477559055114
21
-5.982408031496063
0
LINE
8
BLACK
6
CONTINUOUS
10
5.8870477559055114
20
-5.982408031496063
11
5.8890987401574799
21
-5.985960393700787
0
LINE
8
BLACK
6
CONTINUOUS
10
5.8890987401574799
20
-5.985960393700787
11
5.8898110236220473
21
-5.9900000000000002
0
LINE
8
BLACK
6
CONTINUOUS
10
5.8898110236220473
20
-5.9900000000000002
11
5.8890987401574799
21
-5.9940396062992125
0
LINE
8
BLACK
6
CONTINUOUS
10
5.8890987401574799
20
-5.9940396062992125
11
5.8870477559055114
21
-5.9975919685039365
0
LINE
8
BLACK
6
CONTINUOUS
10
5.8870477559055114
20
-5.9975919685039365
11
5.8839055118110233
21
-6.0002286614173226
0
LINE
8
BLACK
6
CONTINUOUS
10
5.8839055118110233
20
-6.0002286614173226
11
5.8800509448818898
21
-6.0016315748031497
0
LINE
8
BLACK
6
CONTINUOUS
10
5.8800509448818898
20
-6.0016315748031497
11
5.8759490551181104
21
-6.0016315748031497
0
LINE
8
BLACK
6
CONTINUOUS
10
5.8759490551181104
20
-6.0016315748031497
11
5.8720944881889761
21
-6.0002286614173226
0
LINE
8
BLACK
6
CONTINUOUS
10
5.8720944881889761
20
-6.0002286614173226
11
5.8689522440944879
21
-5.9975919685039365
0
LINE
8
BLACK
6
CONTINUOUS
10
5.8689522440944879
20
-5.9975919685039365
11
5.8669012598425194
21
-5.9940396062992125
0
LINE
8
BLACK
6
CONTINUOUS
10
5.8669012598425194
20
-5.9940396062992125
11
5.8661889763779529
21
-5.9900000000000002
0
LINE
8
BLACK
6
CONTINUOUS
10
5.8661889763779529
20
-5.9900000000000002
11
5.8669012598425194
21
-5.985960393700787
0
LINE
8
BLACK
6
CONTINUOUS
10
5.8669012598425194
20
-5.985960393700787
11
5.8689522440944879
21
-5.982408031496063
0
LINE
8
BLACK
6
CONTINUOUS
10
5.8689522440944879
20
-5.982408031496063
11
5.8720944881889761
21
-5.979771338582677
0
LINE
8
BLACK
6
CONTINUOUS
10
5.8720944881889761
20
-5.979771338582677
11
5.8759490551181104
21
-5.9783684251968499
0
LINE
8
BLACK
6
CONTINUOUS
10
5.8759490551181104
20
-5.9783684251968499
11
5.8800509448818898
21
-5.9783684251968499
0
LINE
8
BLACK
6
CONTINUOUS
10
5.8800509448818898
20
-5.9783684251968499
11
5.8839055118110233
21
-5.979771338582677
0
LINE
8
BLACK
6
CONTINUOUS
10
5.9289055118110232
20
-5.979771338582677
11
5.9320477559055114
21
-5.982408031496063
0
LINE
8
BLACK
6
CONTINUOUS
10
5.9320477559055114
20
-5.982408031496063
11
5.9340987401574798
21
-5.985960393700787
0
LINE
8
BLACK
6
CONTINUOUS
10
5.9340987401574798
20
-5.985960393700787
11
5.9348110236220473
21
-5.9900000000000002
0
LINE
8
BLACK
6
CONTINUOUS
10
5.9348110236220473
20
-5.9900000000000002
11
5.9340987401574798
21
-5.9940396062992125
0
LINE
8
BLACK
6
CONTINUOUS
10
5.9340987401574798
20
-5.9940396062992125
11
5.9320477559055114
21
-5.9975919685039365
0
LINE
8
BLACK
6
CONTINUOUS
10
5.9320477559055114
20
-5.9975919685039365
11
5.9289055118110232
21
-6.0002286614173226
0
LINE
8
BLACK
6
CONTINUOUS
10
5.9289055118110232
20
-6.0002286614173226
11
5.9250509448818898
21
-6.0016315748031497
0
LINE
8
BLACK
6
CONTINUOUS
10
5.9250509448818898
20
-6.0016315748031497
11
5.9209490551181103
21
-6.0016315748031497
0
LINE
8
BLACK
6
CONTINUOUS
10
5.9209490551181103
20
-6.0016315748031497
11
5.917094488188976
21
-6.0002286614173226
0
LINE
8
BLACK
6
CONTINUOUS
10
5.917094488188976
20
-6.0002286614173226
11
5.9139522440944878
21
-5.9975919685039365
0
LINE
8
BLACK
6
CONTINUOUS
10
5.9139522440944878
20
-5.9975919685039365
11
5.9119012598425194
21
-5.9940396062992125
0
LINE
8
BLACK
6
CONTINUOUS
10
5.9119012598425194
20
-5.9940396062992125
11
5.9111889763779528
21
-5.9900000000000002
0
LINE
8
BLACK
6
CONTINUOUS
10
5.9111889763779528
20
-5.9900000000000002
11
5.9119012598425194
21
-5.985960393700787
0
LINE
8
BLACK
6
CONTINUOUS
10
5.9119012598425194
20
-5.985960393700787
11
5.9139522440944878
21
-5.982408031496063
0
LINE
8
BLACK
6
CONTINUOUS
10
5.9139522440944878
20
-5.982408031496063
11
5.917094488188976
21
-5.979771338582677
0
LINE
8
BLACK
6
CONTINUOUS
10
5.917094488188976
20
-5.979771338582677
11
5.9209490551181103
21
-5.9783684251968499
0
LINE
8
BLACK
6
CONTINUOUS
10
5.9209490551181103
20
-5.9783684251968499
11
5.9250509448818898
21
-5.9783684251968499
0
LINE
8
BLACK
6
CONTINUOUS
10
5.9250509448818898
20
-5.9783684251968499
11
5.9289055118110232
21
-5.979771338582677
0
LINE
8
BLACK
6
CONTINUOUS
10
5.9689055118110232
20
-5.979771338582677
11
5.9720477559055114
21
-5.982408031496063
0
LINE
8
BLACK
6
CONTINUOUS
10
5.9720477559055114
20
-5.982408031496063
11
5.9740987401574799
21
-5.985960393700787
0
LINE
8
BLACK
6
CONTINUOUS
10
5.9740987401574799
20
-5.985960393700787
11
5.9748110236220473
21
-5.9900000000000002
0
LINE
8
BLACK
6
CONTINUOUS
10
5.9748110236220473
20
-5.9900000000000002
11
5.9740987401574799
21
-5.9940396062992125
0
LINE
8
BLACK
6
CONTINUOUS
10
5.9740987401574799
20
-5.9940396062992125
11
5.9720477559055114
21
-5.9975919685039365
0
LINE
8
BLACK
6
CONTINUOUS
10
5.9720477559055114
20
-5.9975919685039365
11
5.9689055118110232
21
-6.0002286614173226
0
LINE
8
BLACK
6
CONTINUOUS
10
5.9689055118110232
20
-6.0002286614173226
11
5.9650509448818898
21
-6.0016315748031497
0
LINE
8
BLACK
6
CONTINUOUS
10
5.9650509448818898
20
-6.0016315748031497
11
5.9609490551181104
21
-6.0016315748031497
0
LINE
8
BLACK
6
CONTINUOUS
10
5.9609490551181104
20
-6.0016315748031497
11
5.957094488188976
21
-6.0002286614173226
0
LINE
8
BLACK
6
CONTINUOUS
10
5.957094488188976
20
-6.0002286614173226
11
5.9539522440944879
21
-5.9975919685039365
0
LINE
8
BLACK
6
CONTINUOUS
10
5.9539522440944879
20
-5.9975919685039365
11
5.9519012598425194
21
-5.9940396062992125
0
LINE
8
BLACK
6
CONTINUOUS
10
5.9519012598425194
20
-5.9940396062992125
11
5.9511889763779529
21
-5.9900000000000002
0
LINE
8
BLACK
6
CONTINUOUS
10
5.9511889763779529
20
-5.9900000000000002
11
5.9519012598425194
21
-5.985960393700787
0
LINE
8
BLACK
6
CONTINUOUS
10
5.9519012598425194
20
-5.985960393700787
11
5.9539522440944879
21
-5.982408031496063
0
LINE
8
BLACK
6
CONTINUOUS
10
5.9539522440944879
20
-5.982408031496063
11
5.957094488188976
21
-5.979771338582677
0
LINE
8
BLACK
6
CONTINUOUS
10
5.957094488188976
20
-5.979771338582677
11
5.9609490551181104
21
-5.9783684251968499
0
LINE
8
BLACK
6
CONTINUOUS
10
5.9609490551181104
20
-5.9783684251968499
11
5.9650509448818898
21
-5.9783684251968499
0
LINE
8
BLACK
6
CONTINUOUS
10
5.9650509448818898
20
-5.9783684251968499
11
5.9689055118110232
21
-5.979771338582677
0
LINE
8
BLACK
6
CONTINUOUS
10
6.0139055118110232
20
-5.979771338582677
11
6.0170477559055113
21
-5.982408031496063
0
LINE
8
BLACK
6
CONTINUOUS
10
6.0170477559055113
20
-5.982408031496063
11
6.0190987401574798
21
-5.985960393700787
0
LINE
8
BLACK
6
CONTINUOUS
10
6.0190987401574798
20
-5.985960393700787
11
6.0198110236220472
21
-5.9900000000000002
0
LINE
8
BLACK
6
CONTINUOUS
10
6.0198110236220472
20
-5.9900000000000002
11
6.0190987401574798
21
-5.9940396062992125
0
LINE
8
BLACK
6
CONTINUOUS
10
6.0190987401574798
20
-5.9940396062992125
11
6.0170477559055113
21
-5.9975919685039365
0
LINE
8
BLACK
6
CONTINUOUS
10
6.0170477559055113
20
-5.9975919685039365
11
6.0139055118110232
21
-6.0002286614173226
0
LINE
8
BLACK
6
CONTINUOUS
10
6.0139055118110232
20
-6.0002286614173226
11
6.0100509448818897
21
-6.0016315748031497
0
LINE
8
BLACK
6
CONTINUOUS
10
6.0100509448818897
20
-6.0016315748031497
11
6.0059490551181103
21
-6.0016315748031497
0
LINE
8
BLACK
6
CONTINUOUS
10
6.0059490551181103
20
-6.0016315748031497
11
6.002094488188976
21
-6.0002286614173226
0
LINE
8
BLACK
6
CONTINUOUS
10
6.002094488188976
20
-6.0002286614173226
11
5.9989522440944878
21
-5.9975919685039365
0
LINE
8
BLACK
6
CONTINUOUS
10
5.9989522440944878
20
-5.9975919685039365
11
5.9969012598425193
21
-5.9940396062992125
0
LINE
8
BLACK
6
CONTINUOUS
10
5.9969012598425193
20
-5.9940396062992125
11
5.9961889763779528
21
-5.9900000000000002
0
LINE
8
BLACK
6
CONTINUOUS
10
5.9961889763779528
20
-5.9900000000000002
11
5.9969012598425193
21
-5.985960393700787
0
LINE
8
BLACK
6
CONTINUOUS
10
5.9969012598425193
20
-5.985960393700787
11
5.9989522440944878
21
-5.982408031496063
0
LINE
8
BLACK
6
CONTINUOUS
10
5.9989522440944878
20
-5.982408031496063
11
6.002094488188976
21
-5.979771338582677
0
LINE
8
BLACK
6
CONTINUOUS
10
6.002094488188976
20
-5.979771338582677
11
6.0059490551181103
21
-5.9783684251968499
0
LINE
8
BLACK
6
CONTINUOUS
10
6.0059490551181103
20
-5.9783684251968499
11
6.0100509448818897
21
-5.9783684251968499
0
LINE
8
BLACK
6
CONTINUOUS
10
6.0100509448818897
20
-5.9783684251968499
11
6.0139055118110232
21
-5.979771338582677
0
LINE
8
BLACK
6
CONTINUOUS
10
6.0639055118110239
20
-5.979771338582677
11
6.067047755905512
21
-5.982408031496063
0
LINE
8
BLACK
6
CONTINUOUS
10
6.067047755905512
20
-5.982408031496063
11
6.0690987401574805
21
-5.985960393700787
0
LINE
8
BLACK
6
CONTINUOUS
10
6.0690987401574805
20
-5.985960393700787
11
6.0698110236220471
21
-5.9900000000000002
0
LINE
8
BLACK
6
CONTINUOUS
10
6.0698110236220471
20
-5.9900000000000002
11
6.0690987401574805
21
-5.9940396062992125
0
LINE
8
BLACK
6
CONTINUOUS
10
6.0690987401574805
20
-5.9940396062992125
11
6.067047755905512
21
-5.9975919685039365
0
LINE
8
BLACK
6
CONTINUOUS
10
6.067047755905512
20
-5.9975919685039365
11
6.0639055118110239
21
-6.0002286614173226
0
LINE
8
BLACK
6
CONTINUOUS
10
6.0639055118110239
20
-6.0002286614173226
11
6.0600509448818896
21
-6.0016315748031497
0
LINE
8
BLACK
6
CONTINUOUS
10
6.0600509448818896
20
-6.0016315748031497
11
6.0559490551181101
21
-6.0016315748031497
0
LINE
8
BLACK
6
CONTINUOUS
10
6.0559490551181101
20
-6.0016315748031497
11
6.0520944881889767
21
-6.0002286614173226
0
LINE
8
BLACK
6
CONTINUOUS
10
6.0520944881889767
20
-6.0002286614173226
11
6.0489522440944876
21
-5.9975919685039365
0
LINE
8
BLACK
6
CONTINUOUS
10
6.0489522440944876
20
-5.9975919685039365
11
6.0469012598425191
21
-5.9940396062992125
0
LINE
8
BLACK
6
CONTINUOUS
10
6.0469012598425191
20
-5.9940396062992125
11
6.0461889763779526
21
-5.9900000000000002
0
LINE
8
BLACK
6
CONTINUOUS
10
6.0461889763779526
20
-5.9900000000000002
11
6.0469012598425191
21
-5.985960393700787
0
LINE
8
BLACK
6
CONTINUOUS
10
6.0469012598425191
20
-5.985960393700787
11
6.0489522440944876
21
-5.982408031496063
0
LINE
8
BLACK
6
CONTINUOUS
10
6.0489522440944876
20
-5.982408031496063
11
6.0520944881889767
21
-5.979771338582677
0
LINE
8
BLACK
6
CONTINUOUS
10
6.0520944881889767
20
-5.979771338582677
11
6.0559490551181101
21
-5.9783684251968499
0
LINE
8
BLACK
6
CONTINUOUS
10
6.0559490551181101
20
-5.9783684251968499
11
6.0600509448818896
21
-5.9783684251968499
0
LINE
8
BLACK
6
CONTINUOUS
10
6.0600509448818896
20
-5.9783684251968499
11
6.0639055118110239
21
-5.979771338582677
0
LINE
8
BLACK
6
CONTINUOUS
10
6.1189055118110236
20
-5.979771338582677
11
6.1220477559055118
21
-5.982408031496063
0
LINE
8
BLACK
6
CONTINUOUS
10
6.1220477559055118
20
-5.982408031496063
11
6.1240987401574802
21
-5.985960393700787
0
LINE
8
BLACK
6
CONTINUOUS
10
6.1240987401574802
20
-5.985960393700787
11
6.1248110236220468
21
-5.9900000000000002
0
LINE
8
BLACK
6
CONTINUOUS
10
6.1248110236220468
20
-5.9900000000000002
11
6.1240987401574802
21
-5.9940396062992125
0
LINE
8
BLACK
6
CONTINUOUS
10
6.1240987401574802
20
-5.9940396062992125
11
6.1220477559055118
21
-5.9975919685039365
0
LINE
8
BLACK
6
CONTINUOUS
10
6.1220477559055118
20
-5.9975919685039365
11
6.1189055118110236
21
-6.0002286614173226
0
LINE
8
BLACK
6
CONTINUOUS
10
6.1189055118110236
20
-6.0002286614173226
11
6.1150509448818893
21
-6.0016315748031497
0
LINE
8
BLACK
6
CONTINUOUS
10
6.1150509448818893
20
-6.0016315748031497
11
6.1109490551181098
21
-6.0016315748031497
0
LINE
8
BLACK
6
CONTINUOUS
10
6.1109490551181098
20
-6.0016315748031497
11
6.1070944881889764
21
-6.0002286614173226
0
LINE
8
BLACK
6
CONTINUOUS
10
6.1070944881889764
20
-6.0002286614173226
11
6.1039522440944882
21
-5.9975919685039365
0
LINE
8
BLACK
6
CONTINUOUS
10
6.1039522440944882
20
-5.9975919685039365
11
6.1019012598425197
21
-5.9940396062992125
0
LINE
8
BLACK
6
CONTINUOUS
10
6.1019012598425197
20
-5.9940396062992125
11
6.1011889763779523
21
-5.9900000000000002
0
LINE
8
BLACK
6
CONTINUOUS
10
6.1011889763779523
20
-5.9900000000000002
11
6.1019012598425197
21
-5.985960393700787
0
LINE
8
BLACK
6
CONTINUOUS
10
6.1019012598425197
20
-5.985960393700787
11
6.1039522440944882
21
-5.982408031496063
0
LINE
8
BLACK
6
CONTINUOUS
10
6.1039522440944882
20
-5.982408031496063
11
6.1070944881889764
21
-5.979771338582677
0
LINE
8
BLACK
6
CONTINUOUS
10
6.1070944881889764
20
-5.979771338582677
11
6.1109490551181098
21
-5.9783684251968499
0
LINE
8
BLACK
6
CONTINUOUS
10
6.1109490551181098
20
-5.9783684251968499
11
6.1150509448818893
21
-5.9783684251968499
0
LINE
8
BLACK
6
CONTINUOUS
10
6.1150509448818893
20
-5.9783684251968499
11
6.1189055118110236
21
-5.979771338582677
0
LINE
8
BLACK
6
CONTINUOUS
10
6.1489055118110238
20
-5.934771338582677
11
6.152047755905512
21
-5.9374080314960631
0
LINE
8
BLACK
6
CONTINUOUS
10
6.152047755905512
20
-5.9374080314960631
11
6.1540987401574805
21
-5.9409603937007871
0
LINE
8
BLACK
6
CONTINUOUS
10
6.1540987401574805
20
-5.9409603937007871
11
6.154811023622047
21
-5.9450000000000003
0
LINE
8
BLACK
6
CONTINUOUS
10
6.154811023622047
20
-5.9450000000000003
11
6.1540987401574805
21
-5.9490396062992126
0
LINE
8
BLACK
6
CONTINUOUS
10
6.1540987401574805
20
-5.9490396062992126
11
6.152047755905512
21
-5.9525919685039366
0
LINE
8
BLACK
6
CONTINUOUS
10
6.152047755905512
20
-5.9525919685039366
11
6.1489055118110238
21
-5.9552286614173227
0
LINE
8
BLACK
6
CONTINUOUS
10
6.1489055118110238
20
-5.9552286614173227
11
6.1450509448818895
21
-5.9566315748031498
0
LINE
8
BLACK
6
CONTINUOUS
10
6.1450509448818895
20
-5.9566315748031498
11
6.1409490551181101
21
-5.9566315748031498
0
LINE
8
BLACK
6
CONTINUOUS
10
6.1409490551181101
20
-5.9566315748031498
11
6.1370944881889766
21
-5.9552286614173227
0
LINE
8
BLACK
6
CONTINUOUS
10
6.1370944881889766
20
-5.9552286614173227
11
6.1339522440944885
21
-5.9525919685039366
0
LINE
8
BLACK
6
CONTINUOUS
10
6.1339522440944885
20
-5.9525919685039366
11
6.1319012598425191
21
-5.9490396062992126
0
LINE
8
BLACK
6
CONTINUOUS
10
6.1319012598425191
20
-5.9490396062992126
11
6.1311889763779526
21
-5.9450000000000003
0
LINE
8
BLACK
6
CONTINUOUS
10
6.1311889763779526
20
-5.9450000000000003
11
6.1319012598425191
21
-5.9409603937007871
0
LINE
8
BLACK
6
CONTINUOUS
10
6.1319012598425191
20
-5.9409603937007871
11
6.1339522440944885
21
-5.9374080314960631
0
LINE
8
BLACK
6
CONTINUOUS
10
6.1339522440944885
20
-5.9374080314960631
11
6.1370944881889766
21
-5.934771338582677
0
LINE
8
BLACK
6
CONTINUOUS
10
6.1370944881889766
20
-5.934771338582677
11
6.1409490551181101
21
-5.9333684251968499
0
LINE
8
BLACK
6
CONTINUOUS
10
6.1409490551181101
20
-5.9333684251968499
11
6.1450509448818895
21
-5.9333684251968499
0
LINE
8
BLACK
6
CONTINUOUS
10
6.1450509448818895
20
-5.9333684251968499
11
6.1489055118110238
21
-5.934771338582677
0
LINE
8
BLACK
6
CONTINUOUS
10
5.8739055118110235
20
-5.9297713385826771
11
5.8770477559055117
21
-5.9324080314960632
0
LINE
8
BLACK
6
CONTINUOUS
10
5.8770477559055117
20
-5.9324080314960632
11
5.8790987401574801
21
-5.9359603937007872
0
LINE
8
BLACK
6
CONTINUOUS
10
5.8790987401574801
20
-5.9359603937007872
11
5.8798110236220475
21
-5.9399999999999995
0
LINE
8
BLACK
6
CONTINUOUS
10
5.8798110236220475
20
-5.9399999999999995
11
5.8790987401574801
21
-5.9440396062992127
0
LINE
8
BLACK
6
CONTINUOUS
10
5.8790987401574801
20
-5.9440396062992127
11
5.8770477559055117
21
-5.9475919685039367
0
LINE
8
BLACK
6
CONTINUOUS
10
5.8770477559055117
20
-5.9475919685039367
11
5.8739055118110235
21
-5.9502286614173228
0
LINE
8
BLACK
6
CONTINUOUS
10
5.8739055118110235
20
-5.9502286614173228
11
5.8700509448818901
21
-5.9516315748031499
0
LINE
8
BLACK
6
CONTINUOUS
10
5.8700509448818901
20
-5.9516315748031499
11
5.8659490551181097
21
-5.9516315748031499
0
LINE
8
BLACK
6
CONTINUOUS
10
5.8659490551181097
20
-5.9516315748031499
11
5.8620944881889763
21
-5.9502286614173228
0
LINE
8
BLACK
6
CONTINUOUS
10
5.8620944881889763
20
-5.9502286614173228
11
5.8589522440944881
21
-5.9475919685039367
0
LINE
8
BLACK
6
CONTINUOUS
10
5.8589522440944881
20
-5.9475919685039367
11
5.8569012598425196
21
-5.9440396062992127
0
LINE
8
BLACK
6
CONTINUOUS
10
5.8569012598425196
20
-5.9440396062992127
11
5.8561889763779522
21
-5.9399999999999995
0
LINE
8
BLACK
6
CONTINUOUS
10
5.8561889763779522
20
-5.9399999999999995
11
5.8569012598425196
21
-5.9359603937007872
0
LINE
8
BLACK
6
CONTINUOUS
10
5.8569012598425196
20
-5.9359603937007872
11
5.8589522440944881
21
-5.9324080314960632
0
LINE
8
BLACK
6
CONTINUOUS
10
5.8589522440944881
20
-5.9324080314960632
11
5.8620944881889763
21
-5.9297713385826771
0
LINE
8
BLACK
6
CONTINUOUS
10
5.8620944881889763
20
-5.9297713385826771
11
5.8659490551181097
21
-5.92836842519685
0
LINE
8
BLACK
6
CONTINUOUS
10
5.8659490551181097
20
-5.92836842519685
11
5.8700509448818901
21
-5.92836842519685
0
LINE
8
BLACK
6
CONTINUOUS
10
5.8700509448818901
20
-5.92836842519685
11
5.8739055118110235
21
-5.9297713385826771
0
LINE
8
BLACK
6
CONTINUOUS
10
5.8389055118110234
20
-5.9147713385826775
11
5.8420477559055115
21
-5.9174080314960626
0
LINE
8
BLACK
6
CONTINUOUS
10
5.8420477559055115
20
-5.9174080314960626
11
5.84409874015748
21
-5.9209603937007875
0
LINE
8
BLACK
6
CONTINUOUS
10
5.84409874015748
20
-5.9209603937007875
11
5.8448110236220474
21
-5.9249999999999998
0
LINE
8
BLACK
6
CONTINUOUS
10
5.8448110236220474
20
-5.9249999999999998
11
5.84409874015748
21
-5.9290396062992121
0
LINE
8
BLACK
6
CONTINUOUS
10
5.84409874015748
20
-5.9290396062992121
11
5.8420477559055115
21
-5.932591968503937
0
LINE
8
BLACK
6
CONTINUOUS
10
5.8420477559055115
20
-5.932591968503937
11
5.8389055118110234
21
-5.9352286614173231
0
LINE
8
BLACK
6
CONTINUOUS
10
5.8389055118110234
20
-5.9352286614173231
11
5.8350509448818899
21
-5.9366315748031493
0
LINE
8
BLACK
6
CONTINUOUS
10
5.8350509448818899
20
-5.9366315748031493
11
5.8309490551181105
21
-5.9366315748031493
0
LINE
8
BLACK
6
CONTINUOUS
10
5.8309490551181105
20
-5.9366315748031493
11
5.8270944881889761
21
-5.9352286614173231
0
LINE
8
BLACK
6
CONTINUOUS
10
5.8270944881889761
20
-5.9352286614173231
11
5.823952244094488
21
-5.932591968503937
0
LINE
8
BLACK
6
CONTINUOUS
10
5.823952244094488
20
-5.932591968503937
11
5.8219012598425195
21
-5.9290396062992121
0
LINE
8
BLACK
6
CONTINUOUS
10
5.8219012598425195
20
-5.9290396062992121
11
5.821188976377953
21
-5.9249999999999998
0
LINE
8
BLACK
6
CONTINUOUS
10
5.821188976377953
20
-5.9249999999999998
11
5.8219012598425195
21
-5.9209603937007875
0
LINE
8
BLACK
6
CONTINUOUS
10
5.8219012598425195
20
-5.9209603937007875
11
5.823952244094488
21
-5.9174080314960626
0
LINE
8
BLACK
6
CONTINUOUS
10
5.823952244094488
20
-5.9174080314960626
11
5.8270944881889761
21
-5.9147713385826775
0
LINE
8
BLACK
6
CONTINUOUS
10
5.8270944881889761
20
-5.9147713385826775
11
5.8309490551181105
21
-5.9133684251968504
0
LINE
8
BLACK
6
CONTINUOUS
10
5.8309490551181105
20
-5.9133684251968504
11
5.8350509448818899
21
-5.9133684251968504
0
LINE
8
BLACK
6
CONTINUOUS
10
5.8350509448818899
20
-5.9133684251968504
11
5.8389055118110234
21
-5.9147713385826775
0
LINE
8
BLACK
6
CONTINUOUS
10
5.9450866141732286
20
-5.912448503937008
11
5.9482288582677167
21
-5.9150851968503932
0
LINE
8
BLACK
6
CONTINUOUS
10
5.9482288582677167
20
-5.9150851968503932
11
5.9502798425196852
21
-5.9186375590551181
0
LINE
8
BLACK
6
CONTINUOUS
10
5.9502798425196852
20
-5.9186375590551181
11
5.9509921259842518
21
-5.9226771653543304
0
LINE
8
BLACK
6
CONTINUOUS
10
5.9509921259842518
20
-5.9226771653543304
11
5.9502798425196852
21
-5.9267167716535436
0
LINE
8
BLACK
6
CONTINUOUS
10
5.9502798425196852
20
-5.9267167716535436
11
5.9482288582677167
21
-5.9302691338582676
0
LINE
8
BLACK
6
CONTINUOUS
10
5.9482288582677167
20
-5.9302691338582676
11
5.9450866141732286
21
-5.9329058267716537
0
LINE
8
BLACK
6
CONTINUOUS
10
5.9450866141732286
20
-5.9329058267716537
11
5.9412320472440943
21
-5.9343087401574799
0
LINE
8
BLACK
6
CONTINUOUS
10
5.9412320472440943
20
-5.9343087401574799
11
5.9371301574803148
21
-5.9343087401574799
0
LINE
8
BLACK
6
CONTINUOUS
10
5.9371301574803148
20
-5.9343087401574799
11
5.9332755905511814
21
-5.9329058267716537
0
LINE
8
BLACK
6
CONTINUOUS
10
5.9332755905511814
20
-5.9329058267716537
11
5.9301333464566932
21
-5.9302691338582676
0
LINE
8
BLACK
6
CONTINUOUS
10
5.9301333464566932
20
-5.9302691338582676
11
5.9280823622047238
21
-5.9267167716535436
0
LINE
8
BLACK
6
CONTINUOUS
10
5.9280823622047238
20
-5.9267167716535436
11
5.9273700787401573
21
-5.9226771653543304
0
LINE
8
BLACK
6
CONTINUOUS
10
5.9273700787401573
20
-5.9226771653543304
11
5.9280823622047238
21
-5.9186375590551181
0
LINE
8
BLACK
6
CONTINUOUS
10
5.9280823622047238
20
-5.9186375590551181
11
5.9301333464566932
21
-5.9150851968503932
0
LINE
8
BLACK
6
CONTINUOUS
10
5.9301333464566932
20
-5.9150851968503932
11
5.9332755905511814
21
-5.912448503937008
0
LINE
8
BLACK
6
CONTINUOUS
10
5.9332755905511814
20
-5.912448503937008
11
5.9371301574803148
21
-5.911045590551181
0
LINE
8
BLACK
6
CONTINUOUS
10
5.9371301574803148
20
-5.911045590551181
11
5.9412320472440943
21
-5.911045590551181
0
LINE
8
BLACK
6
CONTINUOUS
10
5.9412320472440943
20
-5.911045590551181
11
5.9450866141732286
21
-5.912448503937008
0
LINE
8
BLACK
6
CONTINUOUS
10
6.1789055118110232
20
-5.894771338582677
11
6.1820477559055114
21
-5.8974080314960631
0
LINE
8
BLACK
6
CONTINUOUS
10
6.1820477559055114
20
-5.8974080314960631
11
6.1840987401574798
21
-5.9009603937007871
0
LINE
8
BLACK
6
CONTINUOUS
10
6.1840987401574798
20
-5.9009603937007871
11
6.1848110236220473
21
-5.9050000000000002
0
LINE
8
BLACK
6
CONTINUOUS
10
6.1848110236220473
20
-5.9050000000000002
11
6.1840987401574798
21
-5.9090396062992125
0
LINE
8
BLACK
6
CONTINUOUS
10
6.1840987401574798
20
-5.9090396062992125
11
6.1820477559055114
21
-5.9125919685039365
0
LINE
8
BLACK
6
CONTINUOUS
10
6.1820477559055114
20
-5.9125919685039365
11
6.1789055118110232
21
-5.9152286614173226
0
LINE
8
BLACK
6
CONTINUOUS
10
6.1789055118110232
20
-5.9152286614173226
11
6.1750509448818898
21
-5.9166315748031497
0
LINE
8
BLACK
6
CONTINUOUS
10
6.1750509448818898
20
-5.9166315748031497
11
6.1709490551181103
21
-5.9166315748031497
0
LINE
8
BLACK
6
CONTINUOUS
10
6.1709490551181103
20
-5.9166315748031497
11
6.167094488188976
21
-5.9152286614173226
0
LINE
8
BLACK
6
CONTINUOUS
10
6.167094488188976
20
-5.9152286614173226
11
6.1639522440944878
21
-5.9125919685039365
0
LINE
8
BLACK
6
CONTINUOUS
10
6.1639522440944878
20
-5.9125919685039365
11
6.1619012598425194
21
-5.9090396062992125
0
LINE
8
BLACK
6
CONTINUOUS
10
6.1619012598425194
20
-5.9090396062992125
11
6.1611889763779528
21
-5.9050000000000002
0
LINE
8
BLACK
6
CONTINUOUS
10
6.1611889763779528
20
-5.9050000000000002
11
6.1619012598425194
21
-5.9009603937007871
0
LINE
8
BLACK
6
CONTINUOUS
10
6.1619012598425194
20
-5.9009603937007871
11
6.1639522440944878
21
-5.8974080314960631
0
LINE
8
BLACK
6
CONTINUOUS
10
6.1639522440944878
20
-5.8974080314960631
11
6.167094488188976
21
-5.894771338582677
0
LINE
8
BLACK
6
CONTINUOUS
10
6.167094488188976
20
-5.894771338582677
11
6.1709490551181103
21
-5.8933684251968499
0
LINE
8
BLACK
6
CONTINUOUS
10
6.1709490551181103
20
-5.8933684251968499
11
6.1750509448818898
21
-5.8933684251968499
0
LINE
8
BLACK
6
CONTINUOUS
10
6.1750509448818898
20
-5.8933684251968499
11
6.1789055118110232
21
-5.894771338582677
0
LINE
8
BLACK
6
CONTINUOUS
10
5.8389055118110234
20
-5.8647713385826767
11
5.8420477559055115
21
-5.8674080314960628
0
LINE
8
BLACK
6
CONTINUOUS
10
5.8420477559055115
20
-5.8674080314960628
11
5.84409874015748
21
-5.8709603937007877
0
LINE
8
BLACK
6
CONTINUOUS
10
5.84409874015748
20
-5.8709603937007877
11
5.8448110236220474
21
-5.875
0
LINE
8
BLACK
6
CONTINUOUS
10
5.8448110236220474
20
-5.875
11
5.84409874015748
21
-5.8790396062992123
0
LINE
8
BLACK
6
CONTINUOUS
10
5.84409874015748
20
-5.8790396062992123
11
5.8420477559055115
21
-5.8825919685039372
0
LINE
8
BLACK
6
CONTINUOUS
10
5.8420477559055115
20
-5.8825919685039372
11
5.8389055118110234
21
-5.8852286614173224
0
LINE
8
BLACK
6
CONTINUOUS
10
5.8389055118110234
20
-5.8852286614173224
11
5.8350509448818899
21
-5.8866315748031495
0
LINE
8
BLACK
6
CONTINUOUS
10
5.8350509448818899
20
-5.8866315748031495
11
5.8309490551181105
21
-5.8866315748031495
0
LINE
8
BLACK
6
CONTINUOUS
10
5.8309490551181105
20
-5.8866315748031495
11
5.8270944881889761
21
-5.8852286614173224
0
LINE
8
BLACK
6
CONTINUOUS
10
5.8270944881889761
20
-5.8852286614173224
11
5.823952244094488
21
-5.8825919685039372
0
LINE
8
BLACK
6
CONTINUOUS
10
5.823952244094488
20
-5.8825919685039372
11
5.8219012598425195
21
-5.8790396062992123
0
LINE
8
BLACK
6
CONTINUOUS
10
5.8219012598425195
20
-5.8790396062992123
11
5.821188976377953
21
-5.875
0
LINE
8
BLACK
6
CONTINUOUS
10
5.821188976377953
20
-5.875
11
5.8219012598425195
21
-5.8709603937007877
0
LINE
8
BLACK
6
CONTINUOUS
10
5.8219012598425195
20
-5.8709603937007877
11
5.823952244094488
21
-5.8674080314960628
0
LINE
8
BLACK
6
CONTINUOUS
10
5.823952244094488
20
-5.8674080314960628
11
5.8270944881889761
21
-5.8647713385826767
0
LINE
8
BLACK
6
CONTINUOUS
10
5.8270944881889761
20
-5.8647713385826767
11
5.8309490551181105
21
-5.8633684251968505
0
LINE
8
BLACK
6
CONTINUOUS
10
5.8309490551181105
20
-5.8633684251968505
11
5.8350509448818899
21
-5.8633684251968505
0
LINE
8
BLACK
6
CONTINUOUS
10
5.8350509448818899
20
-5.8633684251968505
11
5.8389055118110234
21
-5.8647713385826767
0
LINE
8
BLACK
6
CONTINUOUS
10
6.1813070866141731
20
-5.848905196850394
11
6.1844493307086612
21
-5.8515418897637792
0
LINE
8
BLACK
6
CONTINUOUS
10
6.1844493307086612
20
-5.8515418897637792
11
6.1865003149606297
21
-5.8550942519685041
0
LINE
8
BLACK
6
CONTINUOUS
10
6.1865003149606297
20
-5.8550942519685041
11
6.1872125984251971
21
-5.8591338582677164
0
LINE
8
BLACK
6
CONTINUOUS
10
6.1872125984251971
20
-5.8591338582677164
11
6.1865003149606297
21
-5.8631734645669287
0
LINE
8
BLACK
6
CONTINUOUS
10
6.1865003149606297
20
-5.8631734645669287
11
6.1844493307086612
21
-5.8667258267716536
0
LINE
8
BLACK
6
CONTINUOUS
10
6.1844493307086612
20
-5.8667258267716536
11
6.1813070866141731
21
-5.8693625196850396
0
LINE
8
BLACK
6
CONTINUOUS
10
6.1813070866141731
20
-5.8693625196850396
11
6.1774525196850396
21
-5.8707654330708658
0
LINE
8
BLACK
6
CONTINUOUS
10
6.1774525196850396
20
-5.8707654330708658
11
6.1733506299212593
21
-5.8707654330708658
0
LINE
8
BLACK
6
CONTINUOUS
10
6.1733506299212593
20
-5.8707654330708658
11
6.1694960629921258
21
-5.8693625196850396
0
LINE
8
BLACK
6
CONTINUOUS
10
6.1694960629921258
20
-5.8693625196850396
11
6.1663538188976377
21
-5.8667258267716536
0
LINE
8
BLACK
6
CONTINUOUS
10
6.1663538188976377
20
-5.8667258267716536
11
6.1643028346456692
21
-5.8631734645669287
0
LINE
8
BLACK
6
CONTINUOUS
10
6.1643028346456692
20
-5.8631734645669287
11
6.1635905511811027
21
-5.8591338582677164
0
LINE
8
BLACK
6
CONTINUOUS
10
6.1635905511811027
20
-5.8591338582677164
11
6.1643028346456692
21
-5.8550942519685041
0
LINE
8
BLACK
6
CONTINUOUS
10
6.1643028346456692
20
-5.8550942519685041
11
6.1663538188976377
21
-5.8515418897637792
0
LINE
8
BLACK
6
CONTINUOUS
10
6.1663538188976377
20
-5.8515418897637792
11
6.1694960629921258
21
-5.848905196850394
0
LINE
8
BLACK
6
CONTINUOUS
10
6.1694960629921258
20
-5.848905196850394
11
6.1733506299212593
21
-5.8475022834645669
0
LINE
8
BLACK
6
CONTINUOUS
10
6.1733506299212593
20
-5.8475022834645669
11
6.1774525196850396
21
-5.8475022834645669
0
LINE
8
BLACK
6
CONTINUOUS
10
6.1774525196850396
20
-5.8475022834645669
11
6.1813070866141731
21
-5.848905196850394
0
LINE
8
BLACK
6
CONTINUOUS
10
6.000204724409449
20
-5.8337083464566923
11
6.0033469685039371
21
-5.8363450393700784
0
LINE
8
BLACK
6
CONTINUOUS
10
6.0033469685039371
20
-5.8363450393700784
11
6.0053979527559056
21
-5.8398974015748033
0
LINE
8
BLACK
6
CONTINUOUS
10
6.0053979527559056
20
-5.8398974015748033
11
6.0061102362204721
21
-5.8439370078740156
0
LINE
8
BLACK
6
CONTINUOUS
10
6.0061102362204721
20
-5.8439370078740156
11
6.0053979527559056
21
-5.8479766141732279
0
LINE
8
BLACK
6
CONTINUOUS
10
6.0053979527559056
20
-5.8479766141732279
11
6.0033469685039371
21
-5.8515289763779528
0
LINE
8
BLACK
6
CONTINUOUS
10
6.0033469685039371
20
-5.8515289763779528
11
6.000204724409449
21
-5.8541656692913389
0
LINE
8
BLACK
6
CONTINUOUS
10
6.000204724409449
20
-5.8541656692913389
11
5.9963501574803146
21
-5.8555685826771651
0
LINE
8
BLACK
6
CONTINUOUS
10
5.9963501574803146
20
-5.8555685826771651
11
5.9922482677165352
21
-5.8555685826771651
0
LINE
8
BLACK
6
CONTINUOUS
10
5.9922482677165352
20
-5.8555685826771651
11
5.9883937007874017
21
-5.8541656692913389
0
LINE
8
BLACK
6
CONTINUOUS
10
5.9883937007874017
20
-5.8541656692913389
11
5.9852514566929136
21
-5.8515289763779528
0
LINE
8
BLACK
6
CONTINUOUS
10
5.9852514566929136
20
-5.8515289763779528
11
5.9832004724409451
21
-5.8479766141732279
0
LINE
8
BLACK
6
CONTINUOUS
10
5.9832004724409451
20
-5.8479766141732279
11
5.9824881889763777
21
-5.8439370078740156
0
LINE
8
BLACK
6
CONTINUOUS
10
5.9824881889763777
20
-5.8439370078740156
11
5.9832004724409451
21
-5.8398974015748033
0
LINE
8
BLACK
6
CONTINUOUS
10
5.9832004724409451
20
-5.8398974015748033
11
5.9852514566929136
21
-5.8363450393700784
0
LINE
8
BLACK
6
CONTINUOUS
10
5.9852514566929136
20
-5.8363450393700784
11
5.9883937007874017
21
-5.8337083464566923
0
LINE
8
BLACK
6
CONTINUOUS
10
5.9883937007874017
20
-5.8337083464566923
11
5.9922482677165352
21
-5.8323054330708661
0
LINE
8
BLACK
6
CONTINUOUS
10
5.9922482677165352
20
-5.8323054330708661
11
5.9963501574803146
21
-5.8323054330708661
0
LINE
8
BLACK
6
CONTINUOUS
10
5.9963501574803146
20
-5.8323054330708661
11
6.000204724409449
21
-5.8337083464566923
0
LINE
8
BLACK
6
CONTINUOUS
10
6.0513858267716536
20
-5.8337083464566923
11
6.0545280708661418
21
-5.8363450393700784
0
LINE
8
BLACK
6
CONTINUOUS
10
6.0545280708661418
20
-5.8363450393700784
11
6.0565790551181102
21
-5.8398974015748033
0
LINE
8
BLACK
6
CONTINUOUS
10
6.0565790551181102
20
-5.8398974015748033
11
6.0572913385826768
21
-5.8439370078740156
0
LINE
8
BLACK
6
CONTINUOUS
10
6.0572913385826768
20
-5.8439370078740156
11
6.0565790551181102
21
-5.8479766141732279
0
LINE
8
BLACK
6
CONTINUOUS
10
6.0565790551181102
20
-5.8479766141732279
11
6.0545280708661418
21
-5.8515289763779528
0
LINE
8
BLACK
6
CONTINUOUS
10
6.0545280708661418
20
-5.8515289763779528
11
6.0513858267716536
21
-5.8541656692913389
0
LINE
8
BLACK
6
CONTINUOUS
10
6.0513858267716536
20
-5.8541656692913389
11
6.0475312598425193
21
-5.8555685826771651
0
LINE
8
BLACK
6
CONTINUOUS
10
6.0475312598425193
20
-5.8555685826771651
11
6.0434293700787398
21
-5.8555685826771651
0
LINE
8
BLACK
6
CONTINUOUS
10
6.0434293700787398
20
-5.8555685826771651
11
6.0395748031496064
21
-5.8541656692913389
0
LINE
8
BLACK
6
CONTINUOUS
10
6.0395748031496064
20
-5.8541656692913389
11
6.0364325590551182
21
-5.8515289763779528
0
LINE
8
BLACK
6
CONTINUOUS
10
6.0364325590551182
20
-5.8515289763779528
11
6.0343815748031497
21
-5.8479766141732279
0
LINE
8
BLACK
6
CONTINUOUS
10
6.0343815748031497
20
-5.8479766141732279
11
6.0336692913385823
21
-5.8439370078740156
0
LINE
8
BLACK
6
CONTINUOUS
10
6.0336692913385823
20
-5.8439370078740156
11
6.0343815748031497
21
-5.8398974015748033
0
LINE
8
BLACK
6
CONTINUOUS
10
6.0343815748031497
20
-5.8398974015748033
11
6.0364325590551182
21
-5.8363450393700784
0
LINE
8
BLACK
6
CONTINUOUS
10
6.0364325590551182
20
-5.8363450393700784
11
6.0395748031496064
21
-5.8337083464566923
0
LINE
8
BLACK
6
CONTINUOUS
10
6.0395748031496064
20
-5.8337083464566923
11
6.0434293700787398
21
-5.8323054330708661
0
LINE
8
BLACK
6
CONTINUOUS
10
6.0434293700787398
20
-5.8323054330708661
11
6.0475312598425193
21
-5.8323054330708661
0
LINE
8
BLACK
6
CONTINUOUS
10
6.0475312598425193
20
-5.8323054330708661
11
6.0513858267716536
21
-5.8337083464566923
0
LINE
8
BLACK
6
CONTINUOUS
10
5.8389055118110234
20
-5.8247713385826767
11
5.8420477559055115
21
-5.8274080314960628
0
LINE
8
BLACK
6
CONTINUOUS
10
5.8420477559055115
20
-5.8274080314960628
11
5.84409874015748
21
-5.8309603937007877
0
LINE
8
BLACK
6
CONTINUOUS
10
5.84409874015748
20
-5.8309603937007877
11
5.8448110236220474
21
-5.835
0
LINE
8
BLACK
6
CONTINUOUS
10
5.8448110236220474
20
-5.835
11
5.84409874015748
21
-5.8390396062992123
0
LINE
8
BLACK
6
CONTINUOUS
10
5.84409874015748
20
-5.8390396062992123
11
5.8420477559055115
21
-5.8425919685039371
0
LINE
8
BLACK
6
CONTINUOUS
10
5.8420477559055115
20
-5.8425919685039371
11
5.8389055118110234
21
-5.8452286614173223
0
LINE
8
BLACK
6
CONTINUOUS
10
5.8389055118110234
20
-5.8452286614173223
11
5.8350509448818899
21
-5.8466315748031494
0
LINE
8
BLACK
6
CONTINUOUS
10
5.8350509448818899
20
-5.8466315748031494
11
5.8309490551181105
21
-5.8466315748031494
0
LINE
8
BLACK
6
CONTINUOUS
10
5.8309490551181105
20
-5.8466315748031494
11
5.8270944881889761
21
-5.8452286614173223
0
LINE
8
BLACK
6
CONTINUOUS
10
5.8270944881889761
20
-5.8452286614173223
11
5.823952244094488
21
-5.8425919685039371
0
LINE
8
BLACK
6
CONTINUOUS
10
5.823952244094488
20
-5.8425919685039371
11
5.8219012598425195
21
-5.8390396062992123
0
LINE
8
BLACK
6
CONTINUOUS
10
5.8219012598425195
20
-5.8390396062992123
11
5.821188976377953
21
-5.835
0
LINE
8
BLACK
6
CONTINUOUS
10
5.821188976377953
20
-5.835
11
5.8219012598425195
21
-5.8309603937007877
0
LINE
8
BLACK
6
CONTINUOUS
10
5.8219012598425195
20
-5.8309603937007877
11
5.823952244094488
21
-5.8274080314960628
0
LINE
8
BLACK
6
CONTINUOUS
10
5.823952244094488
20
-5.8274080314960628
11
5.8270944881889761
21
-5.8247713385826767
0
LINE
8
BLACK
6
CONTINUOUS
10
5.8270944881889761
20
-5.8247713385826767
11
5.8309490551181105
21
-5.8233684251968505
0
LINE
8
BLACK
6
CONTINUOUS
10
5.8309490551181105
20
-5.8233684251968505
11
5.8350509448818899
21
-5.8233684251968505
0
LINE
8
BLACK
6
CONTINUOUS
10
5.8350509448818899
20
-5.8233684251968505
11
5.8389055118110234
21
-5.8247713385826767
0
LINE
8
BLACK
6
CONTINUOUS
10
6.0238267716535434
20
-5.8061492913385822
11
6.0269690157480316
21
-5.8087859842519682
0
LINE
8
BLACK
6
CONTINUOUS
10
6.0269690157480316
20
-5.8087859842519682
11
6.02902
21
-5.8123383464566931
0
LINE
8
BLACK
6
CONTINUOUS
10
6.02902
20
-5.8123383464566931
11
6.0297322834645666
21
-5.8163779527559054
0
LINE
8
BLACK
6
CONTINUOUS
10
6.0297322834645666
20
-5.8163779527559054
11
6.02902
21
-5.8204175590551177
0
LINE
8
BLACK
6
CONTINUOUS
10
6.02902
20
-5.8204175590551177
11
6.0269690157480316
21
-5.8239699212598426
0
LINE
8
BLACK
6
CONTINUOUS
10
6.0269690157480316
20
-5.8239699212598426
11
6.0238267716535434
21
-5.8266066141732278
0
LINE
8
BLACK
6
CONTINUOUS
10
6.0238267716535434
20
-5.8266066141732278
11
6.0199722047244091
21
-5.8280095275590549
0
LINE
8
BLACK
6
CONTINUOUS
10
6.0199722047244091
20
-5.8280095275590549
11
6.0158703149606296
21
-5.8280095275590549
0
LINE
8
BLACK
6
CONTINUOUS
10
6.0158703149606296
20
-5.8280095275590549
11
6.0120157480314962
21
-5.8266066141732278
0
LINE
8
BLACK
6
CONTINUOUS
10
6.0120157480314962
20
-5.8266066141732278
11
6.008873503937008
21
-5.8239699212598426
0
LINE
8
BLACK
6
CONTINUOUS
10
6.008873503937008
20
-5.8239699212598426
11
6.0068225196850396
21
-5.8204175590551177
0
LINE
8
BLACK
6
CONTINUOUS
10
6.0068225196850396
20
-5.8204175590551177
11
6.0061102362204721
21
-5.8163779527559054
0
LINE
8
BLACK
6
CONTINUOUS
10
6.0061102362204721
20
-5.8163779527559054
11
6.0068225196850396
21
-5.8123383464566931
0
LINE
8
BLACK
6
CONTINUOUS
10
6.0068225196850396
20
-5.8123383464566931
11
6.008873503937008
21
-5.8087859842519682
0
LINE
8
BLACK
6
CONTINUOUS
10
6.008873503937008
20
-5.8087859842519682
11
6.0120157480314962
21
-5.8061492913385822
0
LINE
8
BLACK
6
CONTINUOUS
10
6.0120157480314962
20
-5.8061492913385822
11
6.0158703149606296
21
-5.8047463779527559
0
LINE
8
BLACK
6
CONTINUOUS
10
6.0158703149606296
20
-5.8047463779527559
11
6.0199722047244091
21
-5.8047463779527559
0
LINE
8
BLACK
6
CONTINUOUS
10
6.0199722047244091
20
-5.8047463779527559
11
6.0238267716535434
21
-5.8061492913385822
0
LINE
8
BLACK
6
CONTINUOUS
10
6.1639055118110235
20
-5.789850078740157
11
6.1670477559055117
21
-5.7924867716535431
0
LINE
8
BLACK
6
CONTINUOUS
10
6.1670477559055117
20
-5.7924867716535431
11
6.1690987401574802
21
-5.796039133858268
0
LINE
8
BLACK
6
CONTINUOUS
10
6.1690987401574802
20
-5.796039133858268
11
6.1698110236220467
21
-5.8000787401574803
0
LINE
8
BLACK
6
CONTINUOUS
10
6.1698110236220467
20
-5.8000787401574803
11
6.1690987401574802
21
-5.8041183464566926
0
LINE
8
BLACK
6
CONTINUOUS
10
6.1690987401574802
20
-5.8041183464566926
11
6.1670477559055117
21
-5.8076707086614174
0
LINE
8
BLACK
6
CONTINUOUS
10
6.1670477559055117
20
-5.8076707086614174
11
6.1639055118110235
21
-5.8103074015748026
0
LINE
8
BLACK
6
CONTINUOUS
10
6.1639055118110235
20
-5.8103074015748026
11
6.1600509448818892
21
-5.8117103149606297
0
LINE
8
BLACK
6
CONTINUOUS
10
6.1600509448818892
20
-5.8117103149606297
11
6.1559490551181097
21
-5.8117103149606297
0
LINE
8
BLACK
6
CONTINUOUS
10
6.1559490551181097
20
-5.8117103149606297
11
6.1520944881889763
21
-5.8103074015748026
0
LINE
8
BLACK
6
CONTINUOUS
10
6.1520944881889763
20
-5.8103074015748026
11
6.1489522440944882
21
-5.8076707086614174
0
LINE
8
BLACK
6
CONTINUOUS
10
6.1489522440944882
20
-5.8076707086614174
11
6.1469012598425197
21
-5.8041183464566926
0
LINE
8
BLACK
6
CONTINUOUS
10
6.1469012598425197
20
-5.8041183464566926
11
6.1461889763779523
21
-5.8000787401574803
0
LINE
8
BLACK
6
CONTINUOUS
10
6.1461889763779523
20
-5.8000787401574803
11
6.1469012598425197
21
-5.796039133858268
0
LINE
8
BLACK
6
CONTINUOUS
10
6.1469012598425197
20
-5.796039133858268
11
6.1489522440944882
21
-5.7924867716535431
0
LINE
8
BLACK
6
CONTINUOUS
10
6.1489522440944882
20
-5.7924867716535431
11
6.1520944881889763
21
-5.789850078740157
0
LINE
8
BLACK
6
CONTINUOUS
10
6.1520944881889763
20
-5.789850078740157
11
6.1559490551181097
21
-5.7884471653543308
0
LINE
8
BLACK
6
CONTINUOUS
10
6.1559490551181097
20
-5.7884471653543308
11
6.1600509448818892
21
-5.7884471653543308
0
LINE
8
BLACK
6
CONTINUOUS
10
6.1600509448818892
20
-5.7884471653543308
11
6.1639055118110235
21
-5.789850078740157
0
LINE
8
BLACK
6
CONTINUOUS
10
5.8389055118110234
20
-5.7847713385826767
11
5.8420477559055115
21
-5.7874080314960628
0
LINE
8
BLACK
6
CONTINUOUS
10
5.8420477559055115
20
-5.7874080314960628
11
5.84409874015748
21
-5.7909603937007876
0
LINE
8
BLACK
6
CONTINUOUS
10
5.84409874015748
20
-5.7909603937007876
11
5.8448110236220474
21
-5.7949999999999999
0
LINE
8
BLACK
6
CONTINUOUS
10
5.8448110236220474
20
-5.7949999999999999
11
5.84409874015748
21
-5.7990396062992122
0
LINE
8
BLACK
6
CONTINUOUS
10
5.84409874015748
20
-5.7990396062992122
11
5.8420477559055115
21
-5.8025919685039371
0
LINE
8
BLACK
6
CONTINUOUS
10
5.8420477559055115
20
-5.8025919685039371
11
5.8389055118110234
21
-5.8052286614173223
0
LINE
8
BLACK
6
CONTINUOUS
10
5.8389055118110234
20
-5.8052286614173223
11
5.8350509448818899
21
-5.8066315748031494
0
LINE
8
BLACK
6
CONTINUOUS
10
5.8350509448818899
20
-5.8066315748031494
11
5.8309490551181105
21
-5.8066315748031494
0
LINE
8
BLACK
6
CONTINUOUS
10
5.8309490551181105
20
-5.8066315748031494
11
5.8270944881889761
21
-5.8052286614173223
0
LINE
8
BLACK
6
CONTINUOUS
10
5.8270944881889761
20
-5.8052286614173223
11
5.823952244094488
21
-5.8025919685039371
0
LINE
8
BLACK
6
CONTINUOUS
10
5.823952244094488
20
-5.8025919685039371
11
5.8219012598425195
21
-5.7990396062992122
0
LINE
8
BLACK
6
CONTINUOUS
10
5.8219012598425195
20
-5.7990396062992122
11
5.821188976377953
21
-5.7949999999999999
0
LINE
8
BLACK
6
CONTINUOUS
10
5.821188976377953
20
-5.7949999999999999
11
5.8219012598425195
21
-5.7909603937007876
0
LINE
8
BLACK
6
CONTINUOUS
10
5.8219012598425195
20
-5.7909603937007876
11
5.823952244094488
21
-5.7874080314960628
0
LINE
8
BLACK
6
CONTINUOUS
10
5.823952244094488
20
-5.7874080314960628
11
5.8270944881889761
21
-5.7847713385826767
0
LINE
8
BLACK
6
CONTINUOUS
10
5.8270944881889761
20
-5.7847713385826767
11
5.8309490551181105
21
-5.7833684251968505
0
LINE
8
BLACK
6
CONTINUOUS
10
5.8309490551181105
20
-5.7833684251968505
11
5.8350509448818899
21
-5.7833684251968505
0
LINE
8
BLACK
6
CONTINUOUS
10
5.8350509448818899
20
-5.7833684251968505
11
5.8389055118110234
21
-5.7847713385826767
0
LINE
8
BLACK
6
CONTINUOUS
10
5.9647716535433073
20
-5.7825272440944877
11
5.9679138976377955
21
-5.7851639370078738
0
LINE
8
BLACK
6
CONTINUOUS
10
5.9679138976377955
20
-5.7851639370078738
11
5.9699648818897639
21
-5.7887162992125987
0
LINE
8
BLACK
6
CONTINUOUS
10
5.9699648818897639
20
-5.7887162992125987
11
5.9706771653543305
21
-5.792755905511811
0
LINE
8
BLACK
6
CONTINUOUS
10
5.9706771653543305
20
-5.792755905511811
11
5.9699648818897639
21
-5.7967955118110233
0
LINE
8
BLACK
6
CONTINUOUS
10
5.9699648818897639
20
-5.7967955118110233
11
5.9679138976377955
21
-5.8003478740157481
0
LINE
8
BLACK
6
CONTINUOUS
10
5.9679138976377955
20
-5.8003478740157481
11
5.9647716535433073
21
-5.8029845669291333
0
LINE
8
BLACK
6
CONTINUOUS
10
5.9647716535433073
20
-5.8029845669291333
11
5.960917086614173
21
-5.8043874803149604
0
LINE
8
BLACK
6
CONTINUOUS
10
5.960917086614173
20
-5.8043874803149604
11
5.9568151968503935
21
-5.8043874803149604
0
LINE
8
BLACK
6
CONTINUOUS
10
5.9568151968503935
20
-5.8043874803149604
11
5.9529606299212601
21
-5.8029845669291333
0
LINE
8
BLACK
6
CONTINUOUS
10
5.9529606299212601
20
-5.8029845669291333
11
5.9498183858267719
21
-5.8003478740157481
0
LINE
8
BLACK
6
CONTINUOUS
10
5.9498183858267719
20
-5.8003478740157481
11
5.9477674015748034
21
-5.7967955118110233
0
LINE
8
BLACK
6
CONTINUOUS
10
5.9477674015748034
20
-5.7967955118110233
11
5.947055118110236
21
-5.792755905511811
0
LINE
8
BLACK
6
CONTINUOUS
10
5.947055118110236
20
-5.792755905511811
11
5.9477674015748034
21
-5.7887162992125987
0
LINE
8
BLACK
6
CONTINUOUS
10
5.9477674015748034
20
-5.7887162992125987
11
5.9498183858267719
21
-5.7851639370078738
0
LINE
8
BLACK
6
CONTINUOUS
10
5.9498183858267719
20
-5.7851639370078738
11
5.9529606299212601
21
-5.7825272440944877
0
LINE
8
BLACK
6
CONTINUOUS
10
5.9529606299212601
20
-5.7825272440944877
11
5.9568151968503935
21
-5.7811243307086615
0
LINE
8
BLACK
6
CONTINUOUS
10
5.9568151968503935
20
-5.7811243307086615
11
5.960917086614173
21
-5.7811243307086615
0
LINE
8
BLACK
6
CONTINUOUS
10
5.960917086614173
20
-5.7811243307086615
11
5.9647716535433073
21
-5.7825272440944877
0
LINE
8
BLACK
6
CONTINUOUS
10
6.0828818897637795
20
-5.7825272440944877
11
6.0860241338582677
21
-5.7851639370078738
0
LINE
8
BLACK
6
CONTINUOUS
10
6.0860241338582677
20
-5.7851639370078738
11
6.0880751181102362
21
-5.7887162992125987
0
LINE
8
BLACK
6
CONTINUOUS
10
6.0880751181102362
20
-5.7887162992125987
11
6.0887874015748027
21
-5.792755905511811
0
LINE
8
BLACK
6
CONTINUOUS
10
6.0887874015748027
20
-5.792755905511811
11
6.0880751181102362
21
-5.7967955118110233
0
LINE
8
BLACK
6
CONTINUOUS
10
6.0880751181102362
20
-5.7967955118110233
11
6.0860241338582677
21
-5.8003478740157481
0
LINE
8
BLACK
6
CONTINUOUS
10
6.0860241338582677
20
-5.8003478740157481
11
6.0828818897637795
21
-5.8029845669291333
0
LINE
8
BLACK
6
CONTINUOUS
10
6.0828818897637795
20
-5.8029845669291333
11
6.0790273228346452
21
-5.8043874803149604
0
LINE
8
BLACK
6
CONTINUOUS
10
6.0790273228346452
20
-5.8043874803149604
11
6.0749254330708657
21
-5.8043874803149604
0
LINE
8
BLACK
6
CONTINUOUS
10
6.0749254330708657
20
-5.8043874803149604
11
6.0710708661417323
21
-5.8029845669291333
0
LINE
8
BLACK
6
CONTINUOUS
10
6.0710708661417323
20
-5.8029845669291333
11
6.0679286220472441
21
-5.8003478740157481
0
LINE
8
BLACK
6
CONTINUOUS
10
6.0679286220472441
20
-5.8003478740157481
11
6.0658776377952757
21
-5.7967955118110233
0
LINE
8
BLACK
6
CONTINUOUS
10
6.0658776377952757
20
-5.7967955118110233
11
6.0651653543307082
21
-5.792755905511811
0
LINE
8
BLACK
6
CONTINUOUS
10
6.0651653543307082
20
-5.792755905511811
11
6.0658776377952757
21
-5.7887162992125987
0
LINE
8
BLACK
6
CONTINUOUS
10
6.0658776377952757
20
-5.7887162992125987
11
6.0679286220472441
21
-5.7851639370078738
0
LINE
8
BLACK
6
CONTINUOUS
10
6.0679286220472441
20
-5.7851639370078738
11
6.0710708661417323
21
-5.7825272440944877
0
LINE
8
BLACK
6
CONTINUOUS
10
6.0710708661417323
20
-5.7825272440944877
11
6.0749254330708657
21
-5.7811243307086615
0
LINE
8
BLACK
6
CONTINUOUS
10
6.0749254330708657
20
-5.7811243307086615
11
6.0790273228346452
21
-5.7811243307086615
0
LINE
8
BLACK
6
CONTINUOUS
10
6.0790273228346452
20
-5.7811243307086615
11
6.0828818897637795
21
-5.7825272440944877
0
LINE
8
BLACK
6
CONTINUOUS
10
5.7562204724409449
20
-4.4679621259842515
11
5.7593627165354331
21
-4.4705988188976375
0
LINE
8
BLACK
6
CONTINUOUS
10
5.7593627165354331
20
-4.4705988188976375
11
5.7614137007874016
21
-4.4741511811023624
0
LINE
8
BLACK
6
CONTINUOUS
10
5.7614137007874016
20
-4.4741511811023624
11
5.7621259842519681
21
-4.4781907874015747
0
LINE
8
BLACK
6
CONTINUOUS
10
5.7621259842519681
20
-4.4781907874015747
11
5.7614137007874016
21
-4.482230393700787
0
LINE
8
BLACK
6
CONTINUOUS
10
5.7614137007874016
20
-4.482230393700787
11
5.7593627165354331
21
-4.4857827559055119
0
LINE
8
BLACK
6
CONTINUOUS
10
5.7593627165354331
20
-4.4857827559055119
11
5.7562204724409449
21
-4.4884194488188971
0
LINE
8
BLACK
6
CONTINUOUS
10
5.7562204724409449
20
-4.4884194488188971
11
5.7552362204724412
21
-4.4887776771653538
0
LINE
8
BLACK
6
CONTINUOUS
10
5.7552362204724412
20
-4.4887776771653538
11
5.7552362204724412
21
-4.4948940944881892
0
LINE
8
BLACK
6
CONTINUOUS
10
5.7552362204724412
20
-4.4948940944881892
11
5.7552362204724412
21
-4.6336308267716531
0
LINE
8
BLACK
6
CONTINUOUS
10
5.7552362204724412
20
-4.6336308267716531
11
5.7931649212598426
21
-4.6715595275590553
0
LINE
8
BLACK
6
CONTINUOUS
10
5.7931649212598426
20
-4.6715595275590553
11
5.7937769291338581
21
-4.672305275590551
0
LINE
8
BLACK
6
CONTINUOUS
10
5.7937769291338581
20
-4.672305275590551
11
5.7945117322834641
21
-4.6740792913385825
0
LINE
8
BLACK
6
CONTINUOUS
10
5.7945117322834641
20
-4.6740792913385825
11
5.7946062992125986
21
-4.67503937007874
0
LINE
8
BLACK
6
CONTINUOUS
10
5.7946062992125986
20
-4.67503937007874
11
5.7946062992125986
21
-4.7342797244094488
0
LINE
8
BLACK
6
CONTINUOUS
10
5.7946062992125986
20
-4.7342797244094488
11
5.8189219291338583
21
-4.7585953543307085
0
LINE
8
BLACK
6
CONTINUOUS
10
5.8189219291338583
20
-4.7585953543307085
11
5.8208435039370077
21
-4.7578959842519684
0
LINE
8
BLACK
6
CONTINUOUS
10
5.8208435039370077
20
-4.7578959842519684
11
5.8249453937007871
21
-4.7578959842519684
0
LINE
8
BLACK
6
CONTINUOUS
10
5.8249453937007871
20
-4.7578959842519684
11
5.8287999606299215
21
-4.7592988976377955
0
LINE
8
BLACK
6
CONTINUOUS
10
5.8287999606299215
20
-4.7592988976377955
11
5.8319422047244096
21
-4.7619355905511807
0
LINE
8
BLACK
6
CONTINUOUS
10
5.8319422047244096
20
-4.7619355905511807
11
5.8339931889763781
21
-4.7654879527559055
0
LINE
8
BLACK
6
CONTINUOUS
10
5.8339931889763781
20
-4.7654879527559055
11
5.8347054724409446
21
-4.7695275590551178
0
LINE
8
BLACK
6
CONTINUOUS
10
5.8347054724409446
20
-4.7695275590551178
11
5.8339931889763781
21
-4.773567165354331
0
LINE
8
BLACK
6
CONTINUOUS
10
5.8339931889763781
20
-4.773567165354331
11
5.8319422047244096
21
-4.777119527559055
0
LINE
8
BLACK
6
CONTINUOUS
10
5.8319422047244096
20
-4.777119527559055
11
5.8287999606299215
21
-4.7797562204724411
0
LINE
8
BLACK
6
CONTINUOUS
10
5.8287999606299215
20
-4.7797562204724411
11
5.8249453937007871
21
-4.7811591338582673
0
LINE
8
BLACK
6
CONTINUOUS
10
5.8249453937007871
20
-4.7811591338582673
11
5.8208435039370077
21
-4.7811591338582673
0
LINE
8
BLACK
6
CONTINUOUS
10
5.8208435039370077
20
-4.7811591338582673
11
5.8169889370078742
21
-4.7797562204724411
0
LINE
8
BLACK
6
CONTINUOUS
10
5.8169889370078742
20
-4.7797562204724411
11
5.8138466929133861
21
-4.777119527559055
0
LINE
8
BLACK
6
CONTINUOUS
10
5.8138466929133861
20
-4.777119527559055
11
5.8117957086614176
21
-4.773567165354331
0
LINE
8
BLACK
6
CONTINUOUS
10
5.8117957086614176
20
-4.773567165354331
11
5.8110834251968502
21
-4.7695275590551178
0
LINE
8
BLACK
6
CONTINUOUS
10
5.8110834251968502
20
-4.7695275590551178
11
5.8117957086614176
21
-4.7654879527559055
0
LINE
8
BLACK
6
CONTINUOUS
10
5.8117957086614176
20
-4.7654879527559055
11
5.8118320866141735
21
-4.7654248818897633
0
LINE
8
BLACK
6
CONTINUOUS
10
5.8118320866141735
20
-4.7654248818897633
11
5.7862051968503936
21
-4.7397979921259843
0
LINE
8
BLACK
6
CONTINUOUS
10
5.7862051968503936
20
-4.7397979921259843
11
5.7855933464566931
21
-4.7390524409448815
0
LINE
8
BLACK
6
CONTINUOUS
10
5.7855933464566931
20
-4.7390524409448815
11
5.7855931496062993
21
-4.7390522440944878
0
LINE
8
BLACK
6
CONTINUOUS
10
5.7855931496062993
20
-4.7390522440944878
11
5.7848583464566925
21
-4.7372782283464563
0
LINE
8
BLACK
6
CONTINUOUS
10
5.7848583464566925
20
-4.7372782283464563
11
5.7847637795275588
21
-4.7363181496062987
0
LINE
8
BLACK
6
CONTINUOUS
10
5.7847637795275588
20
-4.7363181496062987
11
5.7847637795275588
21
-4.6770777952755909
0
LINE
8
BLACK
6
CONTINUOUS
10
5.7847637795275588
20
-4.6770777952755909
11
5.7468351181102362
21
-4.6391491338582673
0
LINE
8
BLACK
6
CONTINUOUS
10
5.7468351181102362
20
-4.6391491338582673
11
5.7462232677165357
21
-4.6384035826771655
0
LINE
8
BLACK
6
CONTINUOUS
10
5.7462232677165357
20
-4.6384035826771655
11
5.7462230708661419
21
-4.6384033858267717
0
LINE
8
BLACK
6
CONTINUOUS
10
5.7462230708661419
20
-4.6384033858267717
11
5.7454882677165351
21
-4.6366293700787402
0
LINE
8
BLACK
6
CONTINUOUS
10
5.7454882677165351
20
-4.6366293700787402
11
5.7453937007874014
21
-4.6356692913385826
0
LINE
8
BLACK
6
CONTINUOUS
10
5.7453937007874014
20
-4.6356692913385826
11
5.7453937007874014
21
-4.4948940944881892
0
LINE
8
BLACK
6
CONTINUOUS
10
5.7453937007874014
20
-4.4948940944881892
11
5.7453937007874014
21
-4.4887776771653538
0
LINE
8
BLACK
6
CONTINUOUS
10
5.7453937007874014
20
-4.4887776771653538
11
5.7444094488188977
21
-4.4884194488188971
0
LINE
8
BLACK
6
CONTINUOUS
10
5.7444094488188977
20
-4.4884194488188971
11
5.7412672047244095
21
-4.4857827559055119
0
LINE
8
BLACK
6
CONTINUOUS
10
5.7412672047244095
20
-4.4857827559055119
11
5.7392162204724411
21
-4.482230393700787
0
LINE
8
BLACK
6
CONTINUOUS
10
5.7392162204724411
20
-4.482230393700787
11
5.7385039370078736
21
-4.4781907874015747
0
LINE
8
BLACK
6
CONTINUOUS
10
5.7385039370078736
20
-4.4781907874015747
11
5.7392162204724411
21
-4.4741511811023624
0
LINE
8
BLACK
6
CONTINUOUS
10
5.7392162204724411
20
-4.4741511811023624
11
5.7412672047244095
21
-4.4705988188976375
0
LINE
8
BLACK
6
CONTINUOUS
10
5.7412672047244095
20
-4.4705988188976375
11
5.7444094488188977
21
-4.4679621259842515
0
LINE
8
BLACK
6
CONTINUOUS
10
5.7444094488188977
20
-4.4679621259842515
11
5.7482640157480311
21
-4.4665592125984253
0
LINE
8
BLACK
6
CONTINUOUS
10
5.7482640157480311
20
-4.4665592125984253
11
5.7523659055118106
21
-4.4665592125984253
0
LINE
8
BLACK
6
CONTINUOUS
10
5.7523659055118106
20
-4.4665592125984253
11
5.7562204724409449
21
-4.4679621259842515
0
LINE
8
BLACK
6
CONTINUOUS
10
5.7877165354330709
20
-4.6018185826771649
11
5.790858779527559
21
-4.604455275590551
0
LINE
8
BLACK
6
CONTINUOUS
10
5.790858779527559
20
-4.604455275590551
11
5.7929097637795275
21
-4.6080076377952759
0
LINE
8
BLACK
6
CONTINUOUS
10
5.7929097637795275
20
-4.6080076377952759
11
5.793622047244094
21
-4.6120472440944882
0
LINE
8
BLACK
6
CONTINUOUS
10
5.793622047244094
20
-4.6120472440944882
11
5.7929097637795275
21
-4.6160868503937005
0
LINE
8
BLACK
6
CONTINUOUS
10
5.7929097637795275
20
-4.6160868503937005
11
5.790858779527559
21
-4.6196392125984254
0
LINE
8
BLACK
6
CONTINUOUS
10
5.790858779527559
20
-4.6196392125984254
11
5.7877165354330709
21
-4.6222759055118106
0
LINE
8
BLACK
6
CONTINUOUS
10
5.7877165354330709
20
-4.6222759055118106
11
5.7867322834645671
21
-4.6226341338582673
0
LINE
8
BLACK
6
CONTINUOUS
10
5.7867322834645671
20
-4.6226341338582673
11
5.7867322834645671
21
-4.6257568503937003
0
LINE
8
BLACK
6
CONTINUOUS
10
5.7867322834645671
20
-4.6257568503937003
11
5.820723937007874
21
-4.6597485039370081
0
LINE
8
BLACK
6
CONTINUOUS
10
5.820723937007874
20
-4.6597485039370081
11
5.8213359448818895
21
-4.660494212598425
0
LINE
8
BLACK
6
CONTINUOUS
10
5.8213359448818895
20
-4.660494212598425
11
5.8213359842519683
21
-4.6604942519685038
0
LINE
8
BLACK
6
CONTINUOUS
10
5.8213359842519683
20
-4.6604942519685038
11
5.8220707874015742
21
-4.6622682677165352
0
LINE
8
BLACK
6
CONTINUOUS
10
5.8220707874015742
20
-4.6622682677165352
11
5.8221653543307088
21
-4.6632283464566928
0
LINE
8
BLACK
6
CONTINUOUS
10
5.8221653543307088
20
-4.6632283464566928
11
5.8221653543307088
21
-4.708433976377953
0
LINE
8
BLACK
6
CONTINUOUS
10
5.8221653543307088
20
-4.708433976377953
11
5.835030590551181
21
-4.7212992125984252
0
LINE
8
BLACK
6
CONTINUOUS
10
5.835030590551181
20
-4.7212992125984252
11
5.9353543307086616
21
-4.7212992125984252
0
LINE
8
BLACK
6
CONTINUOUS
10
5.9353543307086616
20
-4.7212992125984252
11
5.9363144094488192
21
-4.7213937795275589
0
LINE
8
BLACK
6
CONTINUOUS
10
5.9363144094488192
20
-4.7213937795275589
11
5.9363144488188979
21
-4.7213937795275589
0
LINE
8
BLACK
6
CONTINUOUS
10
5.9363144488188979
20
-4.7213937795275589
11
5.9368340157480315
21
-4.7216089763779525
0
LINE
8
BLACK
6
CONTINUOUS
10
5.9368340157480315
20
-4.7216089763779525
11
5.9380884251968507
21
-4.7221285826771648
0
LINE
8
BLACK
6
CONTINUOUS
10
5.9380884251968507
20
-4.7221285826771648
11
5.9380886220472435
21
-4.7221287795275586
0
LINE
8
BLACK
6
CONTINUOUS
10
5.9380886220472435
20
-4.7221287795275586
11
5.9388341732283463
21
-4.72274062992126
0
LINE
8
BLACK
6
CONTINUOUS
10
5.9388341732283463
20
-4.72274062992126
11
5.970330275590551
21
-4.7542366929133859
0
LINE
8
BLACK
6
CONTINUOUS
10
5.970330275590551
20
-4.7542366929133859
11
5.970330433070866
21
-4.7542368897637797
0
LINE
8
BLACK
6
CONTINUOUS
10
5.970330433070866
20
-4.7542368897637797
11
5.9746888976377948
21
-4.7585953543307085
0
LINE
8
BLACK
6
CONTINUOUS
10
5.9746888976377948
20
-4.7585953543307085
11
5.976610472440945
21
-4.7578959842519684
0
LINE
8
BLACK
6
CONTINUOUS
10
5.976610472440945
20
-4.7578959842519684
11
5.9807123622047245
21
-4.7578959842519684
0
LINE
8
BLACK
6
CONTINUOUS
10
5.9807123622047245
20
-4.7578959842519684
11
5.9845669291338579
21
-4.7592988976377955
0
LINE
8
BLACK
6
CONTINUOUS
10
5.9845669291338579
20
-4.7592988976377955
11
5.9877091732283461
21
-4.7619355905511807
0
LINE
8
BLACK
6
CONTINUOUS
10
5.9877091732283461
20
-4.7619355905511807
11
5.9897601574803145
21
-4.7654879527559055
0
LINE
8
BLACK
6
CONTINUOUS
10
5.9897601574803145
20
-4.7654879527559055
11
5.990472440944882
21
-4.7695275590551178
0
LINE
8
BLACK
6
CONTINUOUS
10
5.990472440944882
20
-4.7695275590551178
11
5.9897601574803145
21
-4.773567165354331
0
LINE
8
BLACK
6
CONTINUOUS
10
5.9897601574803145
20
-4.773567165354331
11
5.9877091732283461
21
-4.777119527559055
0
LINE
8
BLACK
6
CONTINUOUS
10
5.9877091732283461
20
-4.777119527559055
11
5.9845669291338579
21
-4.7797562204724411
0
LINE
8
BLACK
6
CONTINUOUS
10
5.9845669291338579
20
-4.7797562204724411
11
5.9807123622047245
21
-4.7811591338582673
0
LINE
8
BLACK
6
CONTINUOUS
10
5.9807123622047245
20
-4.7811591338582673
11
5.976610472440945
21
-4.7811591338582673
0
LINE
8
BLACK
6
CONTINUOUS
10
5.976610472440945
20
-4.7811591338582673
11
5.9727559055118107
21
-4.7797562204724411
0
LINE
8
BLACK
6
CONTINUOUS
10
5.9727559055118107
20
-4.7797562204724411
11
5.9696136614173225
21
-4.777119527559055
0
LINE
8
BLACK
6
CONTINUOUS
10
5.9696136614173225
20
-4.777119527559055
11
5.967562677165354
21
-4.773567165354331
0
LINE
8
BLACK
6
CONTINUOUS
10
5.967562677165354
20
-4.773567165354331
11
5.9668503937007875
21
-4.7695275590551178
0
LINE
8
BLACK
6
CONTINUOUS
10
5.9668503937007875
20
-4.7695275590551178
11
5.967562677165354
21
-4.7654879527559055
0
LINE
8
BLACK
6
CONTINUOUS
10
5.967562677165354
20
-4.7654879527559055
11
5.96759905511811
21
-4.7654248818897633
0
LINE
8
BLACK
6
CONTINUOUS
10
5.96759905511811
20
-4.7654248818897633
11
5.9633707480314957
21
-4.7611965748031491
0
LINE
8
BLACK
6
CONTINUOUS
10
5.9633707480314957
20
-4.7611965748031491
11
5.9633705511811019
21
-4.7611964173228349
0
LINE
8
BLACK
6
CONTINUOUS
10
5.9633705511811019
20
-4.7611964173228349
11
5.9333159055118108
21
-4.7311417322834641
0
LINE
8
BLACK
6
CONTINUOUS
10
5.9333159055118108
20
-4.7311417322834641
11
5.8329921259842514
21
-4.7311417322834641
0
LINE
8
BLACK
6
CONTINUOUS
10
5.8329921259842514
20
-4.7311417322834641
11
5.8320320472440947
21
-4.7310471653543305
0
LINE
8
BLACK
6
CONTINUOUS
10
5.8320320472440947
20
-4.7310471653543305
11
5.832032007874016
21
-4.7310471653543305
0
LINE
8
BLACK
6
CONTINUOUS
10
5.832032007874016
20
-4.7310471653543305
11
5.8312972047244092
21
-4.7307427559055117
0
LINE
8
BLACK
6
CONTINUOUS
10
5.8312972047244092
20
-4.7307427559055117
11
5.8302580314960633
21
-4.7303123622047245
0
LINE
8
BLACK
6
CONTINUOUS
10
5.8302580314960633
20
-4.7303123622047245
11
5.8302579921259845
21
-4.7303123228346458
0
LINE
8
BLACK
6
CONTINUOUS
10
5.8302579921259845
20
-4.7303123228346458
11
5.829512244094488
21
-4.7297003149606294
0
LINE
8
BLACK
6
CONTINUOUS
10
5.829512244094488
20
-4.7297003149606294
11
5.8137642519685038
21
-4.7139522834645664
0
LINE
8
BLACK
6
CONTINUOUS
10
5.8137642519685038
20
-4.7139522834645664
11
5.8131524015748033
21
-4.7132067322834645
0
LINE
8
BLACK
6
CONTINUOUS
10
5.8131524015748033
20
-4.7132067322834645
11
5.8131522047244095
21
-4.7132065354330708
0
LINE
8
BLACK
6
CONTINUOUS
10
5.8131522047244095
20
-4.7132065354330708
11
5.8124174015748027
21
-4.7114325196850393
0
LINE
8
BLACK
6
CONTINUOUS
10
5.8124174015748027
20
-4.7114325196850393
11
5.812322834645669
21
-4.7104724409448817
0
LINE
8
BLACK
6
CONTINUOUS
10
5.812322834645669
20
-4.7104724409448817
11
5.812322834645669
21
-4.6652667716535436
0
LINE
8
BLACK
6
CONTINUOUS
10
5.812322834645669
20
-4.6652667716535436
11
5.7783311811023621
21
-4.6312751181102358
0
LINE
8
BLACK
6
CONTINUOUS
10
5.7783311811023621
20
-4.6312751181102358
11
5.7777193307086616
21
-4.630529566929134
0
LINE
8
BLACK
6
CONTINUOUS
10
5.7777193307086616
20
-4.630529566929134
11
5.7777191338582679
21
-4.6305293700787402
0
LINE
8
BLACK
6
CONTINUOUS
10
5.7777191338582679
20
-4.6305293700787402
11
5.776984330708661
21
-4.6287553543307087
0
LINE
8
BLACK
6
CONTINUOUS
10
5.776984330708661
20
-4.6287553543307087
11
5.7768897637795273
21
-4.6277952755905511
0
LINE
8
BLACK
6
CONTINUOUS
10
5.7768897637795273
20
-4.6277952755905511
11
5.7768897637795273
21
-4.6226341338582673
0
LINE
8
BLACK
6
CONTINUOUS
10
5.7768897637795273
20
-4.6226341338582673
11
5.7759055118110236
21
-4.6222759055118106
0
LINE
8
BLACK
6
CONTINUOUS
10
5.7759055118110236
20
-4.6222759055118106
11
5.7727632677165355
21
-4.6196392125984254
0
LINE
8
BLACK
6
CONTINUOUS
10
5.7727632677165355
20
-4.6196392125984254
11
5.770712283464567
21
-4.6160868503937005
0
LINE
8
BLACK
6
CONTINUOUS
10
5.770712283464567
20
-4.6160868503937005
11
5.7699999999999996
21
-4.6120472440944882
0
LINE
8
BLACK
6
CONTINUOUS
10
5.7699999999999996
20
-4.6120472440944882
11
5.770712283464567
21
-4.6080076377952759
0
LINE
8
BLACK
6
CONTINUOUS
10
5.770712283464567
20
-4.6080076377952759
11
5.7727632677165355
21
-4.604455275590551
0
LINE
8
BLACK
6
CONTINUOUS
10
5.7727632677165355
20
-4.604455275590551
11
5.7759055118110236
21
-4.6018185826771649
0
LINE
8
BLACK
6
CONTINUOUS
10
5.7759055118110236
20
-4.6018185826771649
11
5.7797600787401571
21
-4.6004156692913387
0
LINE
8
BLACK
6
CONTINUOUS
10
5.7797600787401571
20
-4.6004156692913387
11
5.7838619685039365
21
-4.6004156692913387
0
LINE
8
BLACK
6
CONTINUOUS
10
5.7838619685039365
20
-4.6004156692913387
11
5.7877165354330709
21
-4.6018185826771649
0
LINE
8
BLACK
6
CONTINUOUS
10
5.4366141732283459
20
-4.3204799999999999
11
5.4397564173228341
21
-4.323116692913386
0
LINE
8
BLACK
6
CONTINUOUS
10
5.4397564173228341
20
-4.323116692913386
11
5.4418074015748026
21
-4.32666905511811
0
LINE
8
BLACK
6
CONTINUOUS
10
5.4418074015748026
20
-4.32666905511811
11
5.4420683070866138
21
-4.3281488976377949
0
LINE
8
BLACK
6
CONTINUOUS
10
5.4420683070866138
20
-4.3281488976377949
11
5.4462064566929129
21
-4.332287047244094
0
LINE
8
BLACK
6
CONTINUOUS
10
5.4462064566929129
20
-4.332287047244094
11
6.3228704330708663
21
-4.332287047244094
0
LINE
8
BLACK
6
CONTINUOUS
10
6.3228704330708663
20
-4.332287047244094
11
6.5010964173228345
21
-4.332287047244094
0
LINE
8
BLACK
6
CONTINUOUS
10
6.5010964173228345
20
-4.332287047244094
11
6.5040944881889766
21
-4.3297713385826775
0
LINE
8
BLACK
6
CONTINUOUS
10
6.5040944881889766
20
-4.3297713385826775
11
6.5079490551181101
21
-4.3283684251968504
0
LINE
8
BLACK
6
CONTINUOUS
10
6.5079490551181101
20
-4.3283684251968504
11
6.5120509448818895
21
-4.3283684251968504
0
LINE
8
BLACK
6
CONTINUOUS
10
6.5120509448818895
20
-4.3283684251968504
11
6.5159055118110238
21
-4.3297713385826775
0
LINE
8
BLACK
6
CONTINUOUS
10
6.5159055118110238
20
-4.3297713385826775
11
6.519047755905512
21
-4.3324080314960627
0
LINE
8
BLACK
6
CONTINUOUS
10
6.519047755905512
20
-4.3324080314960627
11
6.5200214566929136
21
-4.3340944881889767
0
LINE
8
BLACK
6
CONTINUOUS
10
6.5200214566929136
20
-4.3340944881889767
11
6.5549999999999997
21
-4.3340944881889767
0
LINE
8
BLACK
6
CONTINUOUS
10
6.5549999999999997
20
-4.3340944881889767
11
6.5561521259842515
21
-4.3342079527559054
0
LINE
8
BLACK
6
CONTINUOUS
10
6.5561521259842515
20
-4.3342079527559054
11
6.5563768897637793
21
-4.3343010629921261
0
LINE
8
BLACK
6
CONTINUOUS
10
6.5563768897637793
20
-4.3343010629921261
11
6.5582809055118112
21
-4.3350897244094488
0
LINE
8
BLACK
6
CONTINUOUS
10
6.5582809055118112
20
-4.3350897244094488
11
6.5591758267716536
21
-4.335824173228346
0
LINE
8
BLACK
6
CONTINUOUS
10
6.5591758267716536
20
-4.335824173228346
11
6.5791758267716531
21
-4.3558241732283465
0
LINE
8
BLACK
6
CONTINUOUS
10
6.5791758267716531
20
-4.3558241732283465
11
6.5799102755905512
21
-4.3567190551181101
0
LINE
8
BLACK
6
CONTINUOUS
10
6.5799102755905512
20
-4.3567190551181101
11
6.5801832677165351
21
-4.3573781496062995
0
LINE
8
BLACK
6
CONTINUOUS
10
6.5801832677165351
20
-4.3573781496062995
11
6.5807920472440946
21
-4.3588478740157477
0
LINE
8
BLACK
6
CONTINUOUS
10
6.5807920472440946
20
-4.3588478740157477
11
6.5809055118110233
21
-4.3600000000000003
0
LINE
8
BLACK
6
CONTINUOUS
10
6.5809055118110233
20
-4.3600000000000003
11
6.5809055118110233
21
-4.5347713385826767
0
LINE
8
BLACK
6
CONTINUOUS
10
6.5809055118110233
20
-4.5347713385826767
11
6.5840477559055115
21
-4.5374080314960628
0
LINE
8
BLACK
6
CONTINUOUS
10
6.5840477559055115
20
-4.5374080314960628
11
6.58609874015748
21
-4.5409603937007876
0
LINE
8
BLACK
6
CONTINUOUS
10
6.58609874015748
20
-4.5409603937007876
11
6.5868110236220474
21
-4.5449999999999999
0
LINE
8
BLACK
6
CONTINUOUS
10
6.5868110236220474
20
-4.5449999999999999
11
6.58609874015748
21
-4.5490396062992122
0
LINE
8
BLACK
6
CONTINUOUS
10
6.58609874015748
20
-4.5490396062992122
11
6.5840477559055115
21
-4.5525919685039371
0
LINE
8
BLACK
6
CONTINUOUS
10
6.5840477559055115
20
-4.5525919685039371
11
6.5809055118110233
21
-4.5552286614173223
0
LINE
8
BLACK
6
CONTINUOUS
10
6.5809055118110233
20
-4.5552286614173223
11
6.5770509448818899
21
-4.5566315748031494
0
LINE
8
BLACK
6
CONTINUOUS
10
6.5770509448818899
20
-4.5566315748031494
11
6.5729490551181105
21
-4.5566315748031494
0
LINE
8
BLACK
6
CONTINUOUS
10
6.5729490551181105
20
-4.5566315748031494
11
6.5690944881889761
21
-4.5552286614173223
0
LINE
8
BLACK
6
CONTINUOUS
10
6.5690944881889761
20
-4.5552286614173223
11
6.565952244094488
21
-4.5525919685039371
0
LINE
8
BLACK
6
CONTINUOUS
10
6.565952244094488
20
-4.5525919685039371
11
6.5639012598425195
21
-4.5490396062992122
0
LINE
8
BLACK
6
CONTINUOUS
10
6.5639012598425195
20
-4.5490396062992122
11
6.563188976377953
21
-4.5449999999999999
0
LINE
8
BLACK
6
CONTINUOUS
10
6.563188976377953
20
-4.5449999999999999
11
6.5639012598425195
21
-4.5409603937007876
0
LINE
8
BLACK
6
CONTINUOUS
10
6.5639012598425195
20
-4.5409603937007876
11
6.565952244094488
21
-4.5374080314960628
0
LINE
8
BLACK
6
CONTINUOUS
10
6.565952244094488
20
-4.5374080314960628
11
6.5690944881889761
21
-4.5347713385826767
0
LINE
8
BLACK
6
CONTINUOUS
10
6.5690944881889761
20
-4.5347713385826767
11
6.5690944881889761
21
-4.3624461417322831
0
LINE
8
BLACK
6
CONTINUOUS
10
6.5690944881889761
20
-4.3624461417322831
11
6.5525538582677161
21
-4.3459055118110239
0
LINE
8
BLACK
6
CONTINUOUS
10
6.5525538582677161
20
-4.3459055118110239
11
6.5200214566929136
21
-4.3459055118110239
0
LINE
8
BLACK
6
CONTINUOUS
10
6.5200214566929136
20
-4.3459055118110239
11
6.519047755905512
21
-4.347591968503937
0
LINE
8
BLACK
6
CONTINUOUS
10
6.519047755905512
20
-4.347591968503937
11
6.5159055118110238
21
-4.3502286614173231
0
LINE
8
BLACK
6
CONTINUOUS
10
6.5159055118110238
20
-4.3502286614173231
11
6.5120509448818895
21
-4.3516315748031493
0
LINE
8
BLACK
6
CONTINUOUS
10
6.5120509448818895
20
-4.3516315748031493
11
6.5101561023622043
21
-4.3516315748031493
0
LINE
8
BLACK
6
CONTINUOUS
10
6.5101561023622043
20
-4.3516315748031493
11
6.5097906299212598
21
-4.3517829527559053
0
LINE
8
BLACK
6
CONTINUOUS
10
6.5097906299212598
20
-4.3517829527559053
11
6.5078704330708659
21
-4.3519720866141736
0
LINE
8
BLACK
6
CONTINUOUS
10
6.5078704330708659
20
-4.3519720866141736
11
6.3228704330708663
21
-4.3519720866141736
0
LINE
8
BLACK
6
CONTINUOUS
10
6.3228704330708663
20
-4.3519720866141736
11
5.4421295669291334
21
-4.3519720866141736
0
LINE
8
BLACK
6
CONTINUOUS
10
5.4421295669291334
20
-4.3519720866141736
11
5.440209763779527
21
-4.3517829921259841
0
LINE
8
BLACK
6
CONTINUOUS
10
5.440209763779527
20
-4.3517829921259841
11
5.4402094094488191
21
-4.3517829921259841
0
LINE
8
BLACK
6
CONTINUOUS
10
5.4402094094488191
20
-4.3517829921259841
11
5.4366613779527562
21
-4.3503133464566925
0
LINE
8
BLACK
6
CONTINUOUS
10
5.4366613779527562
20
-4.3503133464566925
11
5.435169881889764
21
-4.3490892913385828
0
LINE
8
BLACK
6
CONTINUOUS
10
5.435169881889764
20
-4.3490892913385828
11
5.4282851968503936
21
-4.3422046456692911
0
LINE
8
BLACK
6
CONTINUOUS
10
5.4282851968503936
20
-4.3422046456692911
11
5.4248031496062987
21
-4.3409373228346455
0
LINE
8
BLACK
6
CONTINUOUS
10
5.4248031496062987
20
-4.3409373228346455
11
5.4216609055118106
21
-4.3383006299212594
0
LINE
8
BLACK
6
CONTINUOUS
10
5.4216609055118106
20
-4.3383006299212594
11
5.4196099212598421
21
-4.3347482677165354
0
LINE
8
BLACK
6
CONTINUOUS
10
5.4196099212598421
20
-4.3347482677165354
11
5.4188976377952756
21
-4.3307086614173231
0
LINE
8
BLACK
6
CONTINUOUS
10
5.4188976377952756
20
-4.3307086614173231
11
5.4196099212598421
21
-4.32666905511811
0
LINE
8
BLACK
6
CONTINUOUS
10
5.4196099212598421
20
-4.32666905511811
11
5.4216609055118106
21
-4.323116692913386
0
LINE
8
BLACK
6
CONTINUOUS
10
5.4216609055118106
20
-4.323116692913386
11
5.4248031496062987
21
-4.3204799999999999
0
LINE
8
BLACK
6
CONTINUOUS
10
5.4248031496062987
20
-4.3204799999999999
11
5.4286577165354331
21
-4.3190770866141728
0
LINE
8
BLACK
6
CONTINUOUS
10
5.4286577165354331
20
-4.3190770866141728
11
5.4327596062992125
21
-4.3190770866141728
0
LINE
8
BLACK
6
CONTINUOUS
10
5.4327596062992125
20
-4.3190770866141728
11
5.4366141732283459
21
-4.3204799999999999
0
LINE
8
BLACK
6
CONTINUOUS
10
6.3659055118110235
20
-4.3004044094488192
11
6.3690477559055116
21
-4.3030411023622044
0
LINE
8
BLACK
6
CONTINUOUS
10
6.3690477559055116
20
-4.3030411023622044
11
6.3710987401574801
21
-4.3065934645669293
0
LINE
8
BLACK
6
CONTINUOUS
10
6.3710987401574801
20
-4.3065934645669293
11
6.3718110236220475
21
-4.3106330708661416
0
LINE
8
BLACK
6
CONTINUOUS
10
6.3718110236220475
20
-4.3106330708661416
11
6.3710987401574801
21
-4.3146726771653539
0
LINE
8
BLACK
6
CONTINUOUS
10
6.3710987401574801
20
-4.3146726771653539
11
6.3690477559055116
21
-4.3182250393700787
0
LINE
8
BLACK
6
CONTINUOUS
10
6.3690477559055116
20
-4.3182250393700787
11
6.3659055118110235
21
-4.3208617322834648
0
LINE
8
BLACK
6
CONTINUOUS
10
6.3659055118110235
20
-4.3208617322834648
11
6.36205094488189
21
-4.322264645669291
0
LINE
8
BLACK
6
CONTINUOUS
10
6.36205094488189
20
-4.322264645669291
11
6.3579490551181097
21
-4.322264645669291
0
LINE
8
BLACK
6
CONTINUOUS
10
6.3579490551181097
20
-4.322264645669291
11
6.3540944881889763
21
-4.3208617322834648
0
LINE
8
BLACK
6
CONTINUOUS
10
6.3540944881889763
20
-4.3208617322834648
11
6.3509522440944881
21
-4.3182250393700787
0
LINE
8
BLACK
6
CONTINUOUS
10
6.3509522440944881
20
-4.3182250393700787
11
6.3489012598425196
21
-4.3146726771653539
0
LINE
8
BLACK
6
CONTINUOUS
10
6.3489012598425196
20
-4.3146726771653539
11
6.3481889763779522
21
-4.3106330708661416
0
LINE
8
BLACK
6
CONTINUOUS
10
6.3481889763779522
20
-4.3106330708661416
11
6.3489012598425196
21
-4.3065934645669293
0
LINE
8
BLACK
6
CONTINUOUS
10
6.3489012598425196
20
-4.3065934645669293
11
6.3495402362204727
21
-4.3054867322834642
0
LINE
8
BLACK
6
CONTINUOUS
10
6.3495402362204727
20
-4.3054867322834642
11
6.3495402362204727
21
-4.3040398818897634
0
LINE
8
BLACK
6
CONTINUOUS
10
6.3495402362204727
20
-4.3040398818897634
11
6.3502750787401574
21
-4.3022659055118107
0
LINE
8
BLACK
6
CONTINUOUS
10
6.3502750787401574
20
-4.3022659055118107
11
6.3516328346456694
21
-4.3009081496062995
0
LINE
8
BLACK
6
CONTINUOUS
10
6.3516328346456694
20
-4.3009081496062995
11
6.3534068110236221
21
-4.3001733070866139
0
LINE
8
BLACK
6
CONTINUOUS
10
6.3534068110236221
20
-4.3001733070866139
11
6.3547294488188975
21
-4.3001733070866139
0
LINE
8
BLACK
6
CONTINUOUS
10
6.3547294488188975
20
-4.3001733070866139
11
6.3579490551181097
21
-4.2990014960629921
0
LINE
8
BLACK
6
CONTINUOUS
10
6.3579490551181097
20
-4.2990014960629921
11
6.36205094488189
21
-4.2990014960629921
0
LINE
8
BLACK
6
CONTINUOUS
10
6.36205094488189
20
-4.2990014960629921
11
6.3659055118110235
21
-4.3004044094488192
0
LINE
8
BLACK
6
CONTINUOUS
10
6.4159055118110233
20
-4.3847713385826772
11
6.4190477559055115
21
-4.3874080314960633
0
LINE
8
BLACK
6
CONTINUOUS
10
6.4190477559055115
20
-4.3874080314960633
11
6.4210987401574799
21
-4.3909603937007873
0
LINE
8
BLACK
6
CONTINUOUS
10
6.4210987401574799
20
-4.3909603937007873
11
6.4218110236220474
21
-4.3949999999999996
0
LINE
8
BLACK
6
CONTINUOUS
10
6.4218110236220474
20
-4.3949999999999996
11
6.4210987401574799
21
-4.3990396062992128
0
LINE
8
BLACK
6
CONTINUOUS
10
6.4210987401574799
20
-4.3990396062992128
11
6.4190477559055115
21
-4.4025919685039367
0
LINE
8
BLACK
6
CONTINUOUS
10
6.4190477559055115
20
-4.4025919685039367
11
6.4159055118110233
21
-4.4052286614173228
0
LINE
8
BLACK
6
CONTINUOUS
10
6.4159055118110233
20
-4.4052286614173228
11
6.4159055118110233
21
-4.4875538582677166
0
LINE
8
BLACK
6
CONTINUOUS
10
6.4159055118110233
20
-4.4875538582677166
11
6.4420479921259837
21
-4.5136963385826769
0
LINE
8
BLACK
6
CONTINUOUS
10
6.4420479921259837
20
-4.5136963385826769
11
6.4429490551181097
21
-4.51336842519685
0
LINE
8
BLACK
6
CONTINUOUS
10
6.4429490551181097
20
-4.51336842519685
11
6.44705094488189
21
-4.51336842519685
0
LINE
8
BLACK
6
CONTINUOUS
10
6.44705094488189
20
-4.51336842519685
11
6.4509055118110235
21
-4.5147713385826771
0
LINE
8
BLACK
6
CONTINUOUS
10
6.4509055118110235
20
-4.5147713385826771
11
6.4540477559055116
21
-4.5174080314960632
0
LINE
8
BLACK
6
CONTINUOUS
10
6.4540477559055116
20
-4.5174080314960632
11
6.4560987401574801
21
-4.5209603937007872
0
LINE
8
BLACK
6
CONTINUOUS
10
6.4560987401574801
20
-4.5209603937007872
11
6.4568110236220475
21
-4.5249999999999995
0
LINE
8
BLACK
6
CONTINUOUS
10
6.4568110236220475
20
-4.5249999999999995
11
6.4560987401574801
21
-4.5290396062992127
0
LINE
8
BLACK
6
CONTINUOUS
10
6.4560987401574801
20
-4.5290396062992127
11
6.4540477559055116
21
-4.5325919685039366
0
LINE
8
BLACK
6
CONTINUOUS
10
6.4540477559055116
20
-4.5325919685039366
11
6.4509055118110235
21
-4.5352286614173227
0
LINE
8
BLACK
6
CONTINUOUS
10
6.4509055118110235
20
-4.5352286614173227
11
6.44705094488189
21
-4.5366315748031498
0
LINE
8
BLACK
6
CONTINUOUS
10
6.44705094488189
20
-4.5366315748031498
11
6.4429490551181097
21
-4.5366315748031498
0
LINE
8
BLACK
6
CONTINUOUS
10
6.4429490551181097
20
-4.5366315748031498
11
6.4390944881889762
21
-4.5352286614173227
0
LINE
8
BLACK
6
CONTINUOUS
10
6.4390944881889762
20
-4.5352286614173227
11
6.4359522440944881
21
-4.5325919685039366
0
LINE
8
BLACK
6
CONTINUOUS
10
6.4359522440944881
20
-4.5325919685039366
11
6.4339012598425196
21
-4.5290396062992127
0
LINE
8
BLACK
6
CONTINUOUS
10
6.4339012598425196
20
-4.5290396062992127
11
6.4331889763779522
21
-4.5249999999999995
0
LINE
8
BLACK
6
CONTINUOUS
10
6.4331889763779522
20
-4.5249999999999995
11
6.4337074803149603
21
-4.5220591338582672
0
LINE
8
BLACK
6
CONTINUOUS
10
6.4337074803149603
20
-4.5220591338582672
11
6.4058241732283463
21
-4.4941758267716532
0
LINE
8
BLACK
6
CONTINUOUS
10
6.4058241732283463
20
-4.4941758267716532
11
6.4050897244094482
21
-4.4932809055118108
0
LINE
8
BLACK
6
CONTINUOUS
10
6.4050897244094482
20
-4.4932809055118108
11
6.4042079527559057
21
-4.4911520866141732
0
LINE
8
BLACK
6
CONTINUOUS
10
6.4042079527559057
20
-4.4911520866141732
11
6.4040944881889761
21
-4.4900000000000002
0
LINE
8
BLACK
6
CONTINUOUS
10
6.4040944881889761
20
-4.4900000000000002
11
6.4040944881889761
21
-4.4052286614173228
0
LINE
8
BLACK
6
CONTINUOUS
10
6.4040944881889761
20
-4.4052286614173228
11
6.4009522440944879
21
-4.4025919685039367
0
LINE
8
BLACK
6
CONTINUOUS
10
6.4009522440944879
20
-4.4025919685039367
11
6.3989012598425195
21
-4.3990396062992128
0
LINE
8
BLACK
6
CONTINUOUS
10
6.3989012598425195
20
-4.3990396062992128
11
6.3981889763779529
21
-4.3949999999999996
0
LINE
8
BLACK
6
CONTINUOUS
10
6.3981889763779529
20
-4.3949999999999996
11
6.3989012598425195
21
-4.3909603937007873
0
LINE
8
BLACK
6
CONTINUOUS
10
6.3989012598425195
20
-4.3909603937007873
11
6.4009522440944879
21
-4.3874080314960633
0
LINE
8
BLACK
6
CONTINUOUS
10
6.4009522440944879
20
-4.3874080314960633
11
6.4040944881889761
21
-4.3847713385826772
0
LINE
8
BLACK
6
CONTINUOUS
10
6.4040944881889761
20
-4.3847713385826772
11
6.4079490551181104
21
-4.3833684251968501
0
LINE
8
BLACK
6
CONTINUOUS
10
6.4079490551181104
20
-4.3833684251968501
11
6.4120509448818899
21
-4.3833684251968501
0
LINE
8
BLACK
6
CONTINUOUS
10
6.4120509448818899
20
-4.3833684251968501
11
6.4159055118110233
21
-4.3847713385826772
0
LINE
8
BLACK
6
CONTINUOUS
10
6.6659055118110233
20
-4.3297713385826775
11
6.6690477559055115
21
-4.3324080314960627
0
LINE
8
BLACK
6
CONTINUOUS
10
6.6690477559055115
20
-4.3324080314960627
11
6.6710987401574799
21
-4.3359603937007876
0
LINE
8
BLACK
6
CONTINUOUS
10
6.6710987401574799
20
-4.3359603937007876
11
6.6718110236220474
21
-4.3399999999999999
0
LINE
8
BLACK
6
CONTINUOUS
10
6.6718110236220474
20
-4.3399999999999999
11
6.6710987401574799
21
-4.3440396062992122
0
LINE
8
BLACK
6
CONTINUOUS
10
6.6710987401574799
20
-4.3440396062992122
11
6.6690477559055115
21
-4.347591968503937
0
LINE
8
BLACK
6
CONTINUOUS
10
6.6690477559055115
20
-4.347591968503937
11
6.6659055118110233
21
-4.3502286614173231
0
LINE
8
BLACK
6
CONTINUOUS
10
6.6659055118110233
20
-4.3502286614173231
11
6.6620509448818899
21
-4.3516315748031493
0
LINE
8
BLACK
6
CONTINUOUS
10
6.6620509448818899
20
-4.3516315748031493
11
6.6579490551181104
21
-4.3516315748031493
0
LINE
8
BLACK
6
CONTINUOUS
10
6.6579490551181104
20
-4.3516315748031493
11
6.6540944881889761
21
-4.3502286614173231
0
LINE
8
BLACK
6
CONTINUOUS
10
6.6540944881889761
20
-4.3502286614173231
11
6.6509522440944879
21
-4.347591968503937
0
LINE
8
BLACK
6
CONTINUOUS
10
6.6509522440944879
20
-4.347591968503937
11
6.6499785433070864
21
-4.3459055118110239
0
LINE
8
BLACK
6
CONTINUOUS
10
6.6499785433070864
20
-4.3459055118110239
11
6.6307874015748034
21
-4.3459055118110239
0
LINE
8
BLACK
6
CONTINUOUS
10
6.6307874015748034
20
-4.3459055118110239
11
6.6296352755905508
21
-4.3457920472440943
0
LINE
8
BLACK
6
CONTINUOUS
10
6.6296352755905508
20
-4.3457920472440943
11
6.6275064566929132
21
-4.3449102362204721
0
LINE
8
BLACK
6
CONTINUOUS
10
6.6275064566929132
20
-4.3449102362204721
11
6.6258771653543302
21
-4.3432809448818901
0
LINE
8
BLACK
6
CONTINUOUS
10
6.6258771653543302
20
-4.3432809448818901
11
6.6249953543307081
21
-4.3411521259842516
0
LINE
8
BLACK
6
CONTINUOUS
10
6.6249953543307081
20
-4.3411521259842516
11
6.6249953543307081
21
-4.3388478740157481
0
LINE
8
BLACK
6
CONTINUOUS
10
6.6249953543307081
20
-4.3388478740157481
11
6.6258771653543302
21
-4.3367190551181105
0
LINE
8
BLACK
6
CONTINUOUS
10
6.6258771653543302
20
-4.3367190551181105
11
6.6275064566929132
21
-4.3350897637795276
0
LINE
8
BLACK
6
CONTINUOUS
10
6.6275064566929132
20
-4.3350897637795276
11
6.6296352755905508
21
-4.3342079527559054
0
LINE
8
BLACK
6
CONTINUOUS
10
6.6296352755905508
20
-4.3342079527559054
11
6.6307874015748034
21
-4.3340944881889767
0
LINE
8
BLACK
6
CONTINUOUS
10
6.6307874015748034
20
-4.3340944881889767
11
6.6499785433070864
21
-4.3340944881889767
0
LINE
8
BLACK
6
CONTINUOUS
10
6.6499785433070864
20
-4.3340944881889767
11
6.6509522440944879
21
-4.3324080314960627
0
LINE
8
BLACK
6
CONTINUOUS
10
6.6509522440944879
20
-4.3324080314960627
11
6.6540944881889761
21
-4.3297713385826775
0
LINE
8
BLACK
6
CONTINUOUS
10
6.6540944881889761
20
-4.3297713385826775
11
6.6579490551181104
21
-4.3283684251968504
0
LINE
8
BLACK
6
CONTINUOUS
10
6.6579490551181104
20
-4.3283684251968504
11
6.6620509448818899
21
-4.3283684251968504
0
LINE
8
BLACK
6
CONTINUOUS
10
6.6620509448818899
20
-4.3283684251968504
11
6.6659055118110233
21
-4.3297713385826775
0
LINE
8
BLACK
6
CONTINUOUS
10
7.2680165748031493
20
-3.9304922047244095
11
7.2698470078740156
21
-3.9326046456692914
0
LINE
8
BLACK
6
CONTINUOUS
10
7.2698470078740156
20
-3.9326046456692914
11
7.2702952755905512
21
-3.9346653543307086
0
LINE
8
BLACK
6
CONTINUOUS
10
7.2702952755905512
20
-3.9346653543307086
11
7.2702952755905512
21
-4.3800946456692911
0
LINE
8
BLACK
6
CONTINUOUS
10
7.2702952755905512
20
-4.3800946456692911
11
7.2695077952755902
21
-4.3827765748031497
0
LINE
8
BLACK
6
CONTINUOUS
10
7.2695077952755902
20
-4.3827765748031497
11
7.2673953543307084
21
-4.384607007874016
0
LINE
8
BLACK
6
CONTINUOUS
10
7.2673953543307084
20
-4.384607007874016
11
7.2646286614173228
21
-4.3850048031496058
0
LINE
8
BLACK
6
CONTINUOUS
10
7.2646286614173228
20
-4.3850048031496058
11
7.2628544881889763
21
-4.3843907874015748
0
LINE
8
BLACK
6
CONTINUOUS
10
7.2628544881889763
20
-4.3843907874015748
11
7.2625192125984253
21
-4.3841972047244093
0
LINE
8
BLACK
6
CONTINUOUS
10
7.2625192125984253
20
-4.3841972047244093
11
7.2625190157480315
21
-4.3841971259842518
0
LINE
8
BLACK
6
CONTINUOUS
10
7.2625190157480315
20
-4.3841971259842518
11
7.2611761023622048
21
-4.3838372834645671
0
LINE
8
BLACK
6
CONTINUOUS
10
7.2611761023622048
20
-4.3838372834645671
11
7.2575075590551181
21
-4.3828543307086614
0
LINE
8
BLACK
6
CONTINUOUS
10
7.2575075590551181
20
-4.3828543307086614
11
7.256881889763779
21
-4.3828543307086614
0
LINE
8
BLACK
6
CONTINUOUS
10
7.256881889763779
20
-4.3828543307086614
11
7.256881889763779
21
-4.3905905905511808
0
LINE
8
BLACK
6
CONTINUOUS
10
7.256881889763779
20
-4.3905905905511808
11
7.2590477559055113
21
-4.3924080314960632
0
LINE
8
BLACK
6
CONTINUOUS
10
7.2590477559055113
20
-4.3924080314960632
11
7.2610987401574798
21
-4.3959603937007872
0
LINE
8
BLACK
6
CONTINUOUS
10
7.2610987401574798
20
-4.3959603937007872
11
7.2618110236220472
21
-4.3999999999999995
0
LINE
8
BLACK
6
CONTINUOUS
10
7.2618110236220472
20
-4.3999999999999995
11
7.2610987401574798
21
-4.4040396062992127
0
LINE
8
BLACK
6
CONTINUOUS
10
7.2610987401574798
20
-4.4040396062992127
11
7.2590477559055113
21
-4.4075919685039366
0
LINE
8
BLACK
6
CONTINUOUS
10
7.2590477559055113
20
-4.4075919685039366
11
7.2559055118110232
21
-4.4102286614173227
0
LINE
8
BLACK
6
CONTINUOUS
10
7.2559055118110232
20
-4.4102286614173227
11
7.2520509448818897
21
-4.4116315748031498
0
LINE
8
BLACK
6
CONTINUOUS
10
7.2520509448818897
20
-4.4116315748031498
11
7.2479490551181103
21
-4.4116315748031498
0
LINE
8
BLACK
6
CONTINUOUS
10
7.2479490551181103
20
-4.4116315748031498
11
7.2440944881889759
21
-4.4102286614173227
0
LINE
8
BLACK
6
CONTINUOUS
10
7.2440944881889759
20
-4.4102286614173227
11
7.2409522440944878
21
-4.4075919685039366
0
LINE
8
BLACK
6
CONTINUOUS
10
7.2409522440944878
20
-4.4075919685039366
11
7.2389012598425193
21
-4.4040396062992127
0
LINE
8
BLACK
6
CONTINUOUS
10
7.2389012598425193
20
-4.4040396062992127
11
7.2382931102362207
21
-4.4005905511811019
0
LINE
8
BLACK
6
CONTINUOUS
10
7.2382931102362207
20
-4.4005905511811019
11
7.0029448818897633
21
-4.4005905511811019
0
LINE
8
BLACK
6
CONTINUOUS
10
7.0029448818897633
20
-4.4005905511811019
11
7.0029448818897633
21
-4.4163385826771648
0
LINE
8
BLACK
6
CONTINUOUS
10
7.0029448818897633
20
-4.4163385826771648
11
6.981271653543307
21
-4.4163385826771648
0
LINE
8
BLACK
6
CONTINUOUS
10
6.981271653543307
20
-4.4163385826771648
11
6.981271653543307
21
-4.5836614173228343
0
LINE
8
BLACK
6
CONTINUOUS
10
6.981271653543307
20
-4.5836614173228343
11
7.0029448818897633
21
-4.5836614173228343
0
LINE
8
BLACK
6
CONTINUOUS
10
7.0029448818897633
20
-4.5836614173228343
11
7.0029448818897633
21
-4.5994094488188972
0
LINE
8
BLACK
6
CONTINUOUS
10
7.0029448818897633
20
-4.5994094488188972
11
7.2382931102362207
21
-4.5994094488188972
0
LINE
8
BLACK
6
CONTINUOUS
10
7.2382931102362207
20
-4.5994094488188972
11
7.2389012598425193
21
-4.5959603937007873
0
LINE
8
BLACK
6
CONTINUOUS
10
7.2389012598425193
20
-4.5959603937007873
11
7.2409522440944878
21
-4.5924080314960625
0
LINE
8
BLACK
6
CONTINUOUS
10
7.2409522440944878
20
-4.5924080314960625
11
7.2440944881889759
21
-4.5897713385826773
0
LINE
8
BLACK
6
CONTINUOUS
10
7.2440944881889759
20
-4.5897713385826773
11
7.2479490551181103
21
-4.5883684251968502
0
LINE
8
BLACK
6
CONTINUOUS
10
7.2479490551181103
20
-4.5883684251968502
11
7.2520509448818897
21
-4.5883684251968502
0
LINE
8
BLACK
6
CONTINUOUS
10
7.2520509448818897
20
-4.5883684251968502
11
7.2559055118110232
21
-4.5897713385826773
0
LINE
8
BLACK
6
CONTINUOUS
10
7.2559055118110232
20
-4.5897713385826773
11
7.2590477559055113
21
-4.5924080314960625
0
LINE
8
BLACK
6
CONTINUOUS
10
7.2590477559055113
20
-4.5924080314960625
11
7.2610987401574798
21
-4.5959603937007873
0
LINE
8
BLACK
6
CONTINUOUS
10
7.2610987401574798
20
-4.5959603937007873
11
7.2618110236220472
21
-4.5999999999999996
0
LINE
8
BLACK
6
CONTINUOUS
10
7.2618110236220472
20
-4.5999999999999996
11
7.2610987401574798
21
-4.6040396062992128
0
LINE
8
BLACK
6
CONTINUOUS
10
7.2610987401574798
20
-4.6040396062992128
11
7.2590477559055113
21
-4.6075919685039368
0
LINE
8
BLACK
6
CONTINUOUS
10
7.2590477559055113
20
-4.6075919685039368
11
7.256881889763779
21
-4.6094093700787404
0
LINE
8
BLACK
6
CONTINUOUS
10
7.256881889763779
20
-4.6094093700787404
11
7.256881889763779
21
-4.6171456692913386
0
LINE
8
BLACK
6
CONTINUOUS
10
7.256881889763779
20
-4.6171456692913386
11
7.2575074803149606
21
-4.6171456692913386
0
LINE
8
BLACK
6
CONTINUOUS
10
7.2575074803149606
20
-4.6171456692913386
11
7.2575075590551181
21
-4.6171456692913386
0
LINE
8
BLACK
6
CONTINUOUS
10
7.2575075590551181
20
-4.6171456692913386
11
7.2625191338582678
21
-4.6158028346456694
0
LINE
8
BLACK
6
CONTINUOUS
10
7.2625191338582678
20
-4.6158028346456694
11
7.2628544094488188
21
-4.6156092519685039
0
LINE
8
BLACK
6
CONTINUOUS
10
7.2628544094488188
20
-4.6156092519685039
11
7.2655706299212595
21
-4.6149503149606295
0
LINE
8
BLACK
6
CONTINUOUS
10
7.2655706299212595
20
-4.6149503149606295
11
7.2682120472440941
21
-4.6158644881889765
0
LINE
8
BLACK
6
CONTINUOUS
10
7.2682120472440941
20
-4.6158644881889765
11
7.2699399212598426
21
-4.6180615748031499
0
LINE
8
BLACK
6
CONTINUOUS
10
7.2699399212598426
20
-4.6180615748031499
11
7.2702952755905512
21
-4.6199053149606302
0
LINE
8
BLACK
6
CONTINUOUS
10
7.2702952755905512
20
-4.6199053149606302
11
7.2702952755905512
21
-5.0653346456692914
0
LINE
8
BLACK
6
CONTINUOUS
10
7.2702952755905512
20
-5.0653346456692914
11
7.2695077952755902
21
-5.0680165748031492
0
LINE
8
BLACK
6
CONTINUOUS
10
7.2695077952755902
20
-5.0680165748031492
11
7.2673953543307084
21
-5.0698470078740154
0
LINE
8
BLACK
6
CONTINUOUS
10
7.2673953543307084
20
-5.0698470078740154
11
7.2653346456692915
21
-5.070295275590551
0
LINE
8
BLACK
6
CONTINUOUS
10
7.2653346456692915
20
-5.070295275590551
11
5.3346653543307081
21
-5.070295275590551
0
LINE
8
BLACK
6
CONTINUOUS
10
5.3346653543307081
20
-5.070295275590551
11
5.3319834251968503
21
-5.06950779527559
0
LINE
8
BLACK
6
CONTINUOUS
10
5.3319834251968503
20
-5.06950779527559
11
5.330152992125984
21
-5.0673953543307082
0
LINE
8
BLACK
6
CONTINUOUS
10
5.330152992125984
20
-5.0673953543307082
11
5.3297047244094484
21
-5.0653346456692914
0
LINE
8
BLACK
6
CONTINUOUS
10
5.3297047244094484
20
-5.0653346456692914
11
5.3297047244094484
21
-4.478190748031496
0
LINE
8
BLACK
6
CONTINUOUS
10
5.3297047244094484
20
-4.478190748031496
11
5.3297047244094484
21
-4.3949999606299208
0
LINE
8
BLACK
6
CONTINUOUS
10
5.3297047244094484
20
-4.3949999606299208
11
5.3297047244094484
21
-4.3307086220472444
0
LINE
8
BLACK
6
CONTINUOUS
10
5.3297047244094484
20
-4.3307086220472444
11
5.3297047244094484
21
-3.9346653543307086
0
LINE
8
BLACK
6
CONTINUOUS
10
5.3297047244094484
20
-3.9346653543307086
11
5.3304922047244094
21
-3.9319834251968504
0
LINE
8
BLACK
6
CONTINUOUS
10
5.3304922047244094
20
-3.9319834251968504
11
5.3326046456692913
21
-3.9301529921259841
0
LINE
8
BLACK
6
CONTINUOUS
10
5.3326046456692913
20
-3.9301529921259841
11
5.3346653543307081
21
-3.9297047244094485
0
LINE
8
BLACK
6
CONTINUOUS
10
5.3346653543307081
20
-3.9297047244094485
11
7.2653346456692915
21
-3.9297047244094485
0
LINE
8
BLACK
6
CONTINUOUS
10
7.2653346456692915
20
-3.9297047244094485
11
7.2680165748031493
21
-3.9304922047244095
0
LINE
8
BLACK
6
CONTINUOUS
10
5.7282958661417318
20
-4.4781907874015747
11
5.7290461023622044
21
-4.4838896850393697
0
LINE
8
BLACK
6
CONTINUOUS
10
5.7290461023622044
20
-4.4838896850393697
11
5.7312458267716533
21
-4.4892002755905507
0
LINE
8
BLACK
6
CONTINUOUS
10
5.7312458267716533
20
-4.4892002755905507
11
5.731246023622047
21
-4.4892005905511807
0
LINE
8
BLACK
6
CONTINUOUS
10
5.731246023622047
20
-4.4892005905511807
11
5.734348897637795
21
-4.4932442913385824
0
LINE
8
BLACK
6
CONTINUOUS
10
5.734348897637795
20
-4.4932442913385824
11
5.7353568110236219
21
-4.4958513779527562
0
LINE
8
BLACK
6
CONTINUOUS
10
5.7353568110236219
20
-4.4958513779527562
11
5.7353740157480315
21
-4.4962641338582676
0
LINE
8
BLACK
6
CONTINUOUS
10
5.7353740157480315
20
-4.4962641338582676
11
5.7353740157480315
21
-4.6333977559055119
0
LINE
8
BLACK
6
CONTINUOUS
10
5.7353740157480315
20
-4.6333977559055119
11
5.7353739763779528
21
-4.6333984645669286
0
LINE
8
BLACK
6
CONTINUOUS
10
5.7353739763779528
20
-4.6333984645669286
11
5.7353739763779528
21
-4.6337022834645669
0
LINE
8
BLACK
6
CONTINUOUS
10
5.7353739763779528
20
-4.6337022834645669
11
5.7353739763779528
21
-4.6376362992125983
0
LINE
8
BLACK
6
CONTINUOUS
10
5.7353739763779528
20
-4.6376362992125983
11
5.7359406299212594
21
-4.6397509842519682
0
LINE
8
BLACK
6
CONTINUOUS
10
5.7359406299212594
20
-4.6397509842519682
11
5.7359406299212594
21
-4.6397512598425195
0
LINE
8
BLACK
6
CONTINUOUS
10
5.7359406299212594
20
-4.6397512598425195
11
5.7363921653543306
21
-4.6414362204724409
0
LINE
8
BLACK
6
CONTINUOUS
10
5.7363921653543306
20
-4.6414362204724409
11
5.7383590944881888
21
-4.64484311023622
0
LINE
8
BLACK
6
CONTINUOUS
10
5.7383590944881888
20
-4.64484311023622
11
5.7383594094488188
21
-4.6448435039370075
0
LINE
8
BLACK
6
CONTINUOUS
10
5.7383594094488188
20
-4.6448435039370075
11
5.7414234645669291
21
-4.6479075590551178
0
LINE
8
BLACK
6
CONTINUOUS
10
5.7414234645669291
20
-4.6479075590551178
11
5.7414240157480316
21
-4.6479080314960628
0
LINE
8
BLACK
6
CONTINUOUS
10
5.7414240157480316
20
-4.6479080314960628
11
5.7732911417322832
21
-4.6797751574803153
0
LINE
8
BLACK
6
CONTINUOUS
10
5.7732911417322832
20
-4.6797751574803153
11
5.7746307480314956
21
-4.6822283858267717
0
LINE
8
BLACK
6
CONTINUOUS
10
5.7746307480314956
20
-4.6822283858267717
11
5.7747440944881889
21
-4.6832828346456692
0
LINE
8
BLACK
6
CONTINUOUS
10
5.7747440944881889
20
-4.6832828346456692
11
5.7747440944881889
21
-4.734046614173228
0
LINE
8
BLACK
6
CONTINUOUS
10
5.7747440944881889
20
-4.734046614173228
11
5.7747440551181102
21
-4.7340473228346456
0
LINE
8
BLACK
6
CONTINUOUS
10
5.7747440551181102
20
-4.7340473228346456
11
5.7747440551181102
21
-4.734351141732283
0
LINE
8
BLACK
6
CONTINUOUS
10
5.7747440551181102
20
-4.734351141732283
11
5.7747440551181102
21
-4.7382851574803144
0
LINE
8
BLACK
6
CONTINUOUS
10
5.7747440551181102
20
-4.7382851574803144
11
5.775514763779527
21
-4.7411613779527562
0
LINE
8
BLACK
6
CONTINUOUS
10
5.775514763779527
20
-4.7411613779527562
11
5.775514763779527
21
-4.7411614173228349
0
LINE
8
BLACK
6
CONTINUOUS
10
5.775514763779527
20
-4.7411614173228349
11
5.775762244094488
21
-4.7420851181102357
0
LINE
8
BLACK
6
CONTINUOUS
10
5.775762244094488
20
-4.7420851181102357
11
5.7777291732283462
21
-4.745491968503937
0
LINE
8
BLACK
6
CONTINUOUS
10
5.7777291732283462
20
-4.745491968503937
11
5.7777294881889762
21
-4.7454923622047245
0
LINE
8
BLACK
6
CONTINUOUS
10
5.7777294881889762
20
-4.7454923622047245
11
5.7807935433070865
21
-4.7485564173228347
0
LINE
8
BLACK
6
CONTINUOUS
10
5.7807935433070865
20
-4.7485564173228347
11
5.780794094488189
21
-4.7485568897637798
0
LINE
8
BLACK
6
CONTINUOUS
10
5.780794094488189
20
-4.7485568897637798
11
5.7995497637795275
21
-4.7673125590551182
0
LINE
8
BLACK
6
CONTINUOUS
10
5.7995497637795275
20
-4.7673125590551182
11
5.8008893700787398
21
-4.7697657874015746
0
LINE
8
BLACK
6
CONTINUOUS
10
5.8008893700787398
20
-4.7697657874015746
11
5.8009602755905512
21
-4.7701727165354333
0
LINE
8
BLACK
6
CONTINUOUS
10
5.8009602755905512
20
-4.7701727165354333
11
5.8016255905511809
21
-4.7752264566929137
0
LINE
8
BLACK
6
CONTINUOUS
10
5.8016255905511809
20
-4.7752264566929137
11
5.8038253149606298
21
-4.7805370472440947
0
LINE
8
BLACK
6
CONTINUOUS
10
5.8038253149606298
20
-4.7805370472440947
11
5.8038255118110236
21
-4.7805373622047247
0
LINE
8
BLACK
6
CONTINUOUS
10
5.8038255118110236
20
-4.7805373622047247
11
5.8073245669291333
21
-4.7850974015748031
0
LINE
8
BLACK
6
CONTINUOUS
10
5.8073245669291333
20
-4.7850974015748031
11
5.8118846062992127
21
-4.7885964566929129
0
LINE
8
BLACK
6
CONTINUOUS
10
5.8118846062992127
20
-4.7885964566929129
11
5.8118848818897639
21
-4.7885966535433067
0
LINE
8
BLACK
6
CONTINUOUS
10
5.8118848818897639
20
-4.7885966535433067
11
5.8171954724409449
21
-4.7907963779527556
0
LINE
8
BLACK
6
CONTINUOUS
10
5.8171954724409449
20
-4.7907963779527556
11
5.8228944488188974
21
-4.7915466535433069
0
LINE
8
BLACK
6
CONTINUOUS
10
5.8228944488188974
20
-4.7915466535433069
11
5.8285934251968499
21
-4.7907963779527556
0
LINE
8
BLACK
6
CONTINUOUS
10
5.8285934251968499
20
-4.7907963779527556
11
5.8339040157480317
21
-4.7885966535433067
0
LINE
8
BLACK
6
CONTINUOUS
10
5.8339040157480317
20
-4.7885966535433067
11
5.8384642913385827
21
-4.7850974015748031
0
LINE
8
BLACK
6
CONTINUOUS
10
5.8384642913385827
20
-4.7850974015748031
11
5.8419635433070862
21
-4.7805371259842522
0
LINE
8
BLACK
6
CONTINUOUS
10
5.8419635433070862
20
-4.7805371259842522
11
5.8441632677165352
21
-4.7752265354330712
0
LINE
8
BLACK
6
CONTINUOUS
10
5.8441632677165352
20
-4.7752265354330712
11
5.8449135433070865
21
-4.7695275590551178
0
LINE
8
BLACK
6
CONTINUOUS
10
5.8449135433070865
20
-4.7695275590551178
11
5.8441632677165352
21
-4.7638285826771654
0
LINE
8
BLACK
6
CONTINUOUS
10
5.8441632677165352
20
-4.7638285826771654
11
5.8419635433070862
21
-4.7585180314960631
0
LINE
8
BLACK
6
CONTINUOUS
10
5.8419635433070862
20
-4.7585180314960631
11
5.8384642913385827
21
-4.7539577165354325
0
LINE
8
BLACK
6
CONTINUOUS
10
5.8384642913385827
20
-4.7539577165354325
11
5.8384642125984252
21
-4.7539576377952759
0
LINE
8
BLACK
6
CONTINUOUS
10
5.8384642125984252
20
-4.7539576377952759
11
5.8384641732283464
21
-4.7539575984251972
0
LINE
8
BLACK
6
CONTINUOUS
10
5.8384641732283464
20
-4.7539575984251972
11
5.8339041732283468
21
-4.7504585433070865
0
LINE
8
BLACK
6
CONTINUOUS
10
5.8339041732283468
20
-4.7504585433070865
11
5.8338340944881892
21
-4.75041811023622
0
LINE
8
BLACK
6
CONTINUOUS
10
5.8338340944881892
20
-4.75041811023622
11
5.8337867716535428
21
-4.7503684645669288
0
LINE
8
BLACK
6
CONTINUOUS
10
5.8337867716535428
20
-4.7503684645669288
11
5.8336460629921261
21
-4.7502605118110237
0
LINE
8
BLACK
6
CONTINUOUS
10
5.8336460629921261
20
-4.7502605118110237
11
5.8336628740157481
21
-4.7502385433070868
0
LINE
8
BLACK
6
CONTINUOUS
10
5.8336628740157481
20
-4.7502385433070868
11
5.8319052362204724
21
-4.7483951968503932
0
LINE
8
BLACK
6
CONTINUOUS
10
5.8319052362204724
20
-4.7483951968503932
11
5.8313761811023621
21
-4.7456505905511808
0
LINE
8
BLACK
6
CONTINUOUS
10
5.8313761811023621
20
-4.7456505905511808
11
5.8324150000000001
21
-4.7430556299212601
0
LINE
8
BLACK
6
CONTINUOUS
10
5.8324150000000001
20
-4.7430556299212601
11
5.8346918503937006
21
-4.7414342519685038
0
LINE
8
BLACK
6
CONTINUOUS
10
5.8346918503937006
20
-4.7414342519685038
11
5.8363143700787399
21
-4.7411614173228349
0
LINE
8
BLACK
6
CONTINUOUS
10
5.8363143700787399
20
-4.7411614173228349
11
5.9271108661417324
21
-4.7411614173228349
0
LINE
8
BLACK
6
CONTINUOUS
10
5.9271108661417324
20
-4.7411614173228349
11
5.9297927952755902
21
-4.741948897637795
0
LINE
8
BLACK
6
CONTINUOUS
10
5.9297927952755902
20
-4.741948897637795
11
5.9306185433070864
21
-4.7426143700787398
0
LINE
8
BLACK
6
CONTINUOUS
10
5.9306185433070864
20
-4.7426143700787398
11
5.9553167322834648
21
-4.7673125590551182
0
LINE
8
BLACK
6
CONTINUOUS
10
5.9553167322834648
20
-4.7673125590551182
11
5.9566563385826772
21
-4.7697657874015746
0
LINE
8
BLACK
6
CONTINUOUS
10
5.9566563385826772
20
-4.7697657874015746
11
5.9567272440944876
21
-4.7701727165354333
0
LINE
8
BLACK
6
CONTINUOUS
10
5.9567272440944876
20
-4.7701727165354333
11
5.9573925590551182
21
-4.7752264566929137
0
LINE
8
BLACK
6
CONTINUOUS
10
5.9573925590551182
20
-4.7752264566929137
11
5.9595922834645672
21
-4.7805370472440947
0
LINE
8
BLACK
6
CONTINUOUS
10
5.9595922834645672
20
-4.7805370472440947
11
5.9595924803149609
21
-4.7805373622047247
0
LINE
8
BLACK
6
CONTINUOUS
10
5.9595924803149609
20
-4.7805373622047247
11
5.9630915354330707
21
-4.7850974015748031
0
LINE
8
BLACK
6
CONTINUOUS
10
5.9630915354330707
20
-4.7850974015748031
11
5.9676515748031491
21
-4.7885964566929129
0
LINE
8
BLACK
6
CONTINUOUS
10
5.9676515748031491
20
-4.7885964566929129
11
5.9676518503937004
21
-4.7885966535433067
0
LINE
8
BLACK
6
CONTINUOUS
10
5.9676518503937004
20
-4.7885966535433067
11
5.9729624409448814
21
-4.7907963779527556
0
LINE
8
BLACK
6
CONTINUOUS
10
5.9729624409448814
20
-4.7907963779527556
11
5.9786614173228347
21
-4.7915466535433069
0
LINE
8
BLACK
6
CONTINUOUS
10
5.9786614173228347
20
-4.7915466535433069
11
5.9843603937007872
21
-4.7907963779527556
0
LINE
8
BLACK
6
CONTINUOUS
10
5.9843603937007872
20
-4.7907963779527556
11
5.9896709842519682
21
-4.7885966535433067
0
LINE
8
BLACK
6
CONTINUOUS
10
5.9896709842519682
20
-4.7885966535433067
11
5.9942312598425191
21
-4.7850974015748031
0
LINE
8
BLACK
6
CONTINUOUS
10
5.9942312598425191
20
-4.7850974015748031
11
5.9977305118110236
21
-4.7805371259842522
0
LINE
8
BLACK
6
CONTINUOUS
10
5.9977305118110236
20
-4.7805371259842522
11
5.9999302362204725
21
-4.7752265354330712
0
LINE
8
BLACK
6
CONTINUOUS
10
5.9999302362204725
20
-4.7752265354330712
11
6.0006805118110238
21
-4.7695275590551178
0
LINE
8
BLACK
6
CONTINUOUS
10
6.0006805118110238
20
-4.7695275590551178
11
5.9999302362204725
21
-4.7638285826771654
0
LINE
8
BLACK
6
CONTINUOUS
10
5.9999302362204725
20
-4.7638285826771654
11
5.9977305118110236
21
-4.7585180314960631
0
LINE
8
BLACK
6
CONTINUOUS
10
5.9977305118110236
20
-4.7585180314960631
11
5.9942312598425191
21
-4.7539577165354325
0
LINE
8
BLACK
6
CONTINUOUS
10
5.9942312598425191
20
-4.7539577165354325
11
5.9942311811023616
21
-4.7539576377952759
0
LINE
8
BLACK
6
CONTINUOUS
10
5.9942311811023616
20
-4.7539576377952759
11
5.9942311417322829
21
-4.7539575984251972
0
LINE
8
BLACK
6
CONTINUOUS
10
5.9942311417322829
20
-4.7539575984251972
11
5.9896712204724407
21
-4.750458622047244
0
LINE
8
BLACK
6
CONTINUOUS
10
5.9896712204724407
20
-4.750458622047244
11
5.9896709055118107
21
-4.7504584251968502
0
LINE
8
BLACK
6
CONTINUOUS
10
5.9896709055118107
20
-4.7504584251968502
11
5.9843603149606297
21
-4.7482587007874013
0
LINE
8
BLACK
6
CONTINUOUS
10
5.9843603149606297
20
-4.7482587007874013
11
5.9793065748031493
21
-4.7475933858267716
0
LINE
8
BLACK
6
CONTINUOUS
10
5.9793065748031493
20
-4.7475933858267716
11
5.9767503937007875
21
-4.7464625590551179
0
LINE
8
BLACK
6
CONTINUOUS
10
5.9767503937007875
20
-4.7464625590551179
11
5.9764464173228342
21
-4.7461828740157479
0
LINE
8
BLACK
6
CONTINUOUS
10
5.9764464173228342
20
-4.7461828740157479
11
5.9475930708661418
21
-4.7173295275590554
0
LINE
8
BLACK
6
CONTINUOUS
10
5.9475930708661418
20
-4.7173295275590554
11
5.9475925984251967
21
-4.7173289763779529
0
LINE
8
BLACK
6
CONTINUOUS
10
5.9475925984251967
20
-4.7173289763779529
11
5.9445285433070865
21
-4.7142649212598426
0
LINE
8
BLACK
6
CONTINUOUS
10
5.9445285433070865
20
-4.7142649212598426
11
5.9445281496062989
21
-4.7142646062992126
0
LINE
8
BLACK
6
CONTINUOUS
10
5.9445281496062989
20
-4.7142646062992126
11
5.9411212598425198
21
-4.7122976771653544
0
LINE
8
BLACK
6
CONTINUOUS
10
5.9411212598425198
20
-4.7122976771653544
11
5.940719803149606
21
-4.7121901181102359
0
LINE
8
BLACK
6
CONTINUOUS
10
5.940719803149606
20
-4.7121901181102359
11
5.9403182677165356
21
-4.7120825196850395
0
LINE
8
BLACK
6
CONTINUOUS
10
5.9403182677165356
20
-4.7120825196850395
11
5.9373214566929136
21
-4.7112794881889766
0
LINE
8
BLACK
6
CONTINUOUS
10
5.9373214566929136
20
-4.7112794881889766
11
5.9373213385826773
21
-4.7112794881889766
0
LINE
8
BLACK
6
CONTINUOUS
10
5.9373213385826773
20
-4.7112794881889766
11
5.9333873228346459
21
-4.7112794881889766
0
LINE
8
BLACK
6
CONTINUOUS
10
5.9333873228346459
20
-4.7112794881889766
11
5.9330834645669288
21
-4.7112794881889766
0
LINE
8
BLACK
6
CONTINUOUS
10
5.9330834645669288
20
-4.7112794881889766
11
5.9330828346456688
21
-4.7112795275590553
0
LINE
8
BLACK
6
CONTINUOUS
10
5.9330828346456688
20
-4.7112795275590553
11
5.8412355905511806
21
-4.7112795275590553
0
LINE
8
BLACK
6
CONTINUOUS
10
5.8412355905511806
20
-4.7112795275590553
11
5.8385536614173228
21
-4.7104920472440943
0
LINE
8
BLACK
6
CONTINUOUS
10
5.8385536614173228
20
-4.7104920472440943
11
5.8377279133858266
21
-4.7098265748031496
0
LINE
8
BLACK
6
CONTINUOUS
10
5.8377279133858266
20
-4.7098265748031496
11
5.8336379921259844
21
-4.7057366535433074
0
LINE
8
BLACK
6
CONTINUOUS
10
5.8336379921259844
20
-4.7057366535433074
11
5.8322983858267712
21
-4.7032834251968501
0
LINE
8
BLACK
6
CONTINUOUS
10
5.8322983858267712
20
-4.7032834251968501
11
5.8321850393700787
21
-4.7022289763779526
0
LINE
8
BLACK
6
CONTINUOUS
10
5.8321850393700787
20
-4.7022289763779526
11
5.8321850393700787
21
-4.6655954724409447
0
LINE
8
BLACK
6
CONTINUOUS
10
5.8321850393700787
20
-4.6655954724409447
11
5.8321850787401575
21
-4.665594960629921
0
LINE
8
BLACK
6
CONTINUOUS
10
5.8321850787401575
20
-4.665594960629921
11
5.8321850787401575
21
-4.6612613385826771
0
LINE
8
BLACK
6
CONTINUOUS
10
5.8321850787401575
20
-4.6612613385826771
11
5.8321850393700787
21
-4.6612611811023621
0
LINE
8
BLACK
6
CONTINUOUS
10
5.8321850393700787
20
-4.6612611811023621
11
5.8311668897637796
21
-4.6574614173228346
0
LINE
8
BLACK
6
CONTINUOUS
10
5.8311668897637796
20
-4.6574614173228346
11
5.8291999212598427
21
-4.6540544881889767
0
LINE
8
BLACK
6
CONTINUOUS
10
5.8291999212598427
20
-4.6540544881889767
11
5.8291996062992126
21
-4.6540540944881892
0
LINE
8
BLACK
6
CONTINUOUS
10
5.8291996062992126
20
-4.6540540944881892
11
5.8262452755905514
21
-4.6510997637795271
0
LINE
8
BLACK
6
CONTINUOUS
10
5.8262452755905514
20
-4.6510997637795271
11
5.8262443700787401
21
-4.6510989370078741
0
LINE
8
BLACK
6
CONTINUOUS
10
5.8262443700787401
20
-4.6510989370078741
11
5.8024395275590548
21
-4.6272940944881888
0
LINE
8
BLACK
6
CONTINUOUS
10
5.8024395275590548
20
-4.6272940944881888
11
5.8010999212598424
21
-4.6248408661417324
0
LINE
8
BLACK
6
CONTINUOUS
10
5.8010999212598424
20
-4.6248408661417324
11
5.8012993307086616
21
-4.6220528740157478
0
LINE
8
BLACK
6
CONTINUOUS
10
5.8012993307086616
20
-4.6220528740157478
11
5.8013635826771655
21
-4.6218895275590546
0
LINE
8
BLACK
6
CONTINUOUS
10
5.8013635826771655
20
-4.6218895275590546
11
5.8030798425196846
21
-4.6177462204724407
0
LINE
8
BLACK
6
CONTINUOUS
10
5.8030798425196846
20
-4.6177462204724407
11
5.8038301181102359
21
-4.6120472440944882
0
LINE
8
BLACK
6
CONTINUOUS
10
5.8038301181102359
20
-4.6120472440944882
11
5.8030798425196846
21
-4.6063482677165357
0
LINE
8
BLACK
6
CONTINUOUS
10
5.8030798425196846
20
-4.6063482677165357
11
5.8008801181102365
21
-4.6010377165354326
0
LINE
8
BLACK
6
CONTINUOUS
10
5.8008801181102365
20
-4.6010377165354326
11
5.7973808661417321
21
-4.5964774015748029
0
LINE
8
BLACK
6
CONTINUOUS
10
5.7973808661417321
20
-4.5964774015748029
11
5.7973807874015746
21
-4.5964773228346454
0
LINE
8
BLACK
6
CONTINUOUS
10
5.7973807874015746
20
-4.5964773228346454
11
5.7973807480314958
21
-4.5964772834645666
0
LINE
8
BLACK
6
CONTINUOUS
10
5.7973807480314958
20
-4.5964772834645666
11
5.7928208267716537
21
-4.5929783070866144
0
LINE
8
BLACK
6
CONTINUOUS
10
5.7928208267716537
20
-4.5929783070866144
11
5.7928205118110236
21
-4.5929781102362206
0
LINE
8
BLACK
6
CONTINUOUS
10
5.7928205118110236
20
-4.5929781102362206
11
5.7875099212598426
21
-4.5907783858267717
0
LINE
8
BLACK
6
CONTINUOUS
10
5.7875099212598426
20
-4.5907783858267717
11
5.7818110236220468
21
-4.5900281496062991
0
LINE
8
BLACK
6
CONTINUOUS
10
5.7818110236220468
20
-4.5900281496062991
11
5.7761120866141731
21
-4.5907783858267717
0
LINE
8
BLACK
6
CONTINUOUS
10
5.7761120866141731
20
-4.5907783858267717
11
5.7743153543307084
21
-4.5915226377952756
0
LINE
8
BLACK
6
CONTINUOUS
10
5.7743153543307084
20
-4.5915226377952756
11
5.7721148031496066
21
-4.5924341338582675
0
LINE
8
BLACK
6
CONTINUOUS
10
5.7721148031496066
20
-4.5924341338582675
11
5.7693357874015749
21
-4.5927329133858263
0
LINE
8
BLACK
6
CONTINUOUS
10
5.7693357874015749
20
-4.5927329133858263
11
5.7668362992125983
21
-4.5914817716535428
0
LINE
8
BLACK
6
CONTINUOUS
10
5.7668362992125983
20
-4.5914817716535428
11
5.7654100000000001
21
-4.589077913385827
0
LINE
8
BLACK
6
CONTINUOUS
10
5.7654100000000001
20
-4.589077913385827
11
5.7652559055118111
21
-4.5878511023622046
0
LINE
8
BLACK
6
CONTINUOUS
10
5.7652559055118111
20
-4.5878511023622046
11
5.7652559055118111
21
-4.4962641338582676
0
LINE
8
BLACK
6
CONTINUOUS
10
5.7652559055118111
20
-4.4962641338582676
11
5.7660433858267712
21
-4.4935822047244089
0
LINE
8
BLACK
6
CONTINUOUS
10
5.7660433858267712
20
-4.4935822047244089
11
5.7662810236220468
21
-4.4932442913385824
0
LINE
8
BLACK
6
CONTINUOUS
10
5.7662810236220468
20
-4.4932442913385824
11
5.7693838582677168
21
-4.4892005905511807
0
LINE
8
BLACK
6
CONTINUOUS
10
5.7693838582677168
20
-4.4892005905511807
11
5.7693840551181097
21
-4.4892003543307082
0
LINE
8
BLACK
6
CONTINUOUS
10
5.7693840551181097
20
-4.4892003543307082
11
5.7715837795275586
21
-4.4838897637795272
0
LINE
8
BLACK
6
CONTINUOUS
10
5.7715837795275586
20
-4.4838897637795272
11
5.7723340551181099
21
-4.4781907874015747
0
LINE
8
BLACK
6
CONTINUOUS
10
5.7723340551181099
20
-4.4781907874015747
11
5.7715837795275586
21
-4.4724918110236223
0
LINE
8
BLACK
6
CONTINUOUS
10
5.7715837795275586
20
-4.4724918110236223
11
5.7693840551181097
21
-4.46718125984252
0
LINE
8
BLACK
6
CONTINUOUS
10
5.7693840551181097
20
-4.46718125984252
11
5.7658848031496062
21
-4.4626209448818894
0
LINE
8
BLACK
6
CONTINUOUS
10
5.7658848031496062
20
-4.4626209448818894
11
5.7658847244094487
21
-4.4626208661417319
0
LINE
8
BLACK
6
CONTINUOUS
10
5.7658847244094487
20
-4.4626208661417319
11
5.7658846850393699
21
-4.4626208267716532
0
LINE
8
BLACK
6
CONTINUOUS
10
5.7658846850393699
20
-4.4626208267716532
11
5.7613247637795277
21
-4.4591218503937009
0
LINE
8
BLACK
6
CONTINUOUS
10
5.7613247637795277
20
-4.4591218503937009
11
5.7613244488188977
21
-4.4591216535433071
0
LINE
8
BLACK
6
CONTINUOUS
10
5.7613244488188977
20
-4.4591216535433071
11
5.7560138582677167
21
-4.4569219291338582
0
LINE
8
BLACK
6
CONTINUOUS
10
5.7560138582677167
20
-4.4569219291338582
11
5.7503149606299209
21
-4.4561716929133857
0
LINE
8
BLACK
6
CONTINUOUS
10
5.7503149606299209
20
-4.4561716929133857
11
5.7446160236220472
21
-4.4569219291338582
0
LINE
8
BLACK
6
CONTINUOUS
10
5.7446160236220472
20
-4.4569219291338582
11
5.7419607086614173
21
-4.458021811023622
0
LINE
8
BLACK
6
CONTINUOUS
10
5.7419607086614173
20
-4.458021811023622
11
5.7393054330708662
21
-4.4591216929133859
0
LINE
8
BLACK
6
CONTINUOUS
10
5.7393054330708662
20
-4.4591216929133859
11
5.7393053937007874
21
-4.4591217322834646
0
LINE
8
BLACK
6
CONTINUOUS
10
5.7393053937007874
20
-4.4591217322834646
11
5.7393053543307087
21
-4.4591217322834646
0
LINE
8
BLACK
6
CONTINUOUS
10
5.7393053543307087
20
-4.4591217322834646
11
5.7347451181102365
21
-4.4626209448818894
0
LINE
8
BLACK
6
CONTINUOUS
10
5.7347451181102365
20
-4.4626209448818894
11
5.7312459055118108
21
-4.4671811811023625
0
LINE
8
BLACK
6
CONTINUOUS
10
5.7312459055118108
20
-4.4671811811023625
11
5.731245866141732
21
-4.46718125984252
0
LINE
8
BLACK
6
CONTINUOUS
10
5.731245866141732
20
-4.46718125984252
11
5.731094330708661
21
-4.4675471259842521
0
LINE
8
BLACK
6
CONTINUOUS
10
5.731094330708661
20
-4.4675471259842521
11
5.7290461023622044
21
-4.472491850393701
0
LINE
8
BLACK
6
CONTINUOUS
10
5.7290461023622044
20
-4.472491850393701
11
5.7282958661417318
21
-4.478190748031496
0
LINE
8
BLACK
6
CONTINUOUS
10
5.7282958661417318
20
-4.478190748031496
11
5.7282958661417318
21
-4.4781907874015747
0
LINE
8
BLACK
6
CONTINUOUS
10
5.4086895669291337
20
-4.3307086614173231
11
5.4094398031496063
21
-4.3364075590551181
0
LINE
8
BLACK
6
CONTINUOUS
10
5.4094398031496063
20
-4.3364075590551181
11
5.4116395275590552
21
-4.3417181496062991
0
LINE
8
BLACK
6
CONTINUOUS
10
5.4116395275590552
20
-4.3417181496062991
11
5.411639724409449
21
-4.3417184645669291
0
LINE
8
BLACK
6
CONTINUOUS
10
5.411639724409449
20
-4.3417184645669291
11
5.4151387795275587
21
-4.3462785039370075
0
LINE
8
BLACK
6
CONTINUOUS
10
5.4151387795275587
20
-4.3462785039370075
11
5.419698818897638
21
-4.3497775590551182
0
LINE
8
BLACK
6
CONTINUOUS
10
5.419698818897638
20
-4.3497775590551182
11
5.4196990944881884
21
-4.349777755905512
0
LINE
8
BLACK
6
CONTINUOUS
10
5.4196990944881884
20
-4.349777755905512
11
5.4221834251968506
21
-4.3508067716535432
0
LINE
8
BLACK
6
CONTINUOUS
10
5.4221834251968506
20
-4.3508067716535432
11
5.4237925984251971
21
-4.3518820078740159
0
LINE
8
BLACK
6
CONTINUOUS
10
5.4237925984251971
20
-4.3518820078740159
11
5.4299338976377953
21
-4.3580233070866141
0
LINE
8
BLACK
6
CONTINUOUS
10
5.4299338976377953
20
-4.3580233070866141
11
5.4299339763779528
21
-4.3580233464566929
0
LINE
8
BLACK
6
CONTINUOUS
10
5.4299339763779528
20
-4.3580233464566929
11
5.4299340157480316
21
-4.3580233858267716
0
LINE
8
BLACK
6
CONTINUOUS
10
5.4299340157480316
20
-4.3580233858267716
11
5.4344629133858264
21
-4.3606381496062987
0
LINE
8
BLACK
6
CONTINUOUS
10
5.4344629133858264
20
-4.3606381496062987
11
5.4344629527559052
21
-4.3606381496062987
0
LINE
8
BLACK
6
CONTINUOUS
10
5.4344629527559052
20
-4.3606381496062987
11
5.4344630708661414
21
-4.3606382283464562
0
LINE
8
BLACK
6
CONTINUOUS
10
5.4344630708661414
20
-4.3606382283464562
11
5.4381609055118112
21
-4.3616289763779523
0
LINE
8
BLACK
6
CONTINUOUS
10
5.4381609055118112
20
-4.3616289763779523
11
5.4381610629921262
21
-4.3616290944881886
0
LINE
8
BLACK
6
CONTINUOUS
10
5.4381610629921262
20
-4.3616290944881886
11
5.438161102362205
21
-4.3616290551181098
0
LINE
8
BLACK
6
CONTINUOUS
10
5.438161102362205
20
-4.3616290551181098
11
5.4395146456692913
21
-4.3619917716535435
0
LINE
8
BLACK
6
CONTINUOUS
10
5.4395146456692913
20
-4.3619917716535435
11
5.4395146850393701
21
-4.3619917716535435
0
LINE
8
BLACK
6
CONTINUOUS
10
5.4395146850393701
20
-4.3619917716535435
11
5.4447444881889764
21
-4.3619917716535435
0
LINE
8
BLACK
6
CONTINUOUS
10
5.4447444881889764
20
-4.3619917716535435
11
6.3202555118110233
21
-4.3619917716535435
0
LINE
8
BLACK
6
CONTINUOUS
10
6.3202555118110233
20
-4.3619917716535435
11
6.5094673622047239
21
-4.3619917716535435
0
LINE
8
BLACK
6
CONTINUOUS
10
6.5094673622047239
20
-4.3619917716535435
11
6.5098842519685034
21
-4.3620190944881889
0
LINE
8
BLACK
6
CONTINUOUS
10
6.5098842519685034
20
-4.3620190944881889
11
6.5099999999999998
21
-4.3620190944881889
0
LINE
8
BLACK
6
CONTINUOUS
10
6.5099999999999998
20
-4.3620190944881889
11
6.5101157480314962
21
-4.3620190944881889
0
LINE
8
BLACK
6
CONTINUOUS
10
6.5101157480314962
20
-4.3620190944881889
11
6.5104385039370074
21
-4.3619979133858271
0
LINE
8
BLACK
6
CONTINUOUS
10
6.5104385039370074
20
-4.3619979133858271
11
6.5104851574803151
21
-4.3619917716535435
0
LINE
8
BLACK
6
CONTINUOUS
10
6.5104851574803151
20
-4.3619917716535435
11
6.5104853543307089
21
-4.3619917716535435
0
LINE
8
BLACK
6
CONTINUOUS
10
6.5104853543307089
20
-4.3619917716535435
11
6.5104855118110239
21
-4.361991692913386
0
LINE
8
BLACK
6
CONTINUOUS
10
6.5104855118110239
20
-4.361991692913386
11
6.5105327165354332
21
-4.3619855118110236
0
LINE
8
BLACK
6
CONTINUOUS
10
6.5105327165354332
20
-4.3619855118110236
11
6.5110761811023616
21
-4.3618773622047247
0
LINE
8
BLACK
6
CONTINUOUS
10
6.5110761811023616
20
-4.3618773622047247
11
6.5156989763779523
21
-4.3612688188976376
0
LINE
8
BLACK
6
CONTINUOUS
10
6.5156989763779523
20
-4.3612688188976376
11
6.5210095669291341
21
-4.3590690944881887
0
LINE
8
BLACK
6
CONTINUOUS
10
6.5210095669291341
20
-4.3590690944881887
11
6.5237707874015749
21
-4.3569502755905507
0
LINE
8
BLACK
6
CONTINUOUS
10
6.5237707874015749
20
-4.3569502755905507
11
6.5263778346456691
21
-4.3559424015748034
0
LINE
8
BLACK
6
CONTINUOUS
10
6.5263778346456691
20
-4.3559424015748034
11
6.5267906299212601
21
-4.3559251968503938
0
LINE
8
BLACK
6
CONTINUOUS
10
6.5267906299212601
20
-4.3559251968503938
11
6.5463488582677165
21
-4.3559251968503938
0
LINE
8
BLACK
6
CONTINUOUS
10
6.5463488582677165
20
-4.3559251968503938
11
6.5490307874015743
21
-4.3567126771653539
0
LINE
8
BLACK
6
CONTINUOUS
10
6.5490307874015743
20
-4.3567126771653539
11
6.5498565354330704
21
-4.3573781496062995
0
LINE
8
BLACK
6
CONTINUOUS
10
6.5498565354330704
20
-4.3573781496062995
11
6.5576218503937005
21
-4.3651434645669287
0
LINE
8
BLACK
6
CONTINUOUS
10
6.5576218503937005
20
-4.3651434645669287
11
6.5589614566929129
21
-4.367596692913386
0
LINE
8
BLACK
6
CONTINUOUS
10
6.5589614566929129
20
-4.367596692913386
11
6.5590748031496062
21
-4.3686511417322835
0
LINE
8
BLACK
6
CONTINUOUS
10
6.5590748031496062
20
-4.3686511417322835
11
6.5590748031496062
21
-4.528209291338583
0
LINE
8
BLACK
6
CONTINUOUS
10
6.5590748031496062
20
-4.528209291338583
11
6.5582873228346452
21
-4.5308912204724408
0
LINE
8
BLACK
6
CONTINUOUS
10
6.5582873228346452
20
-4.5308912204724408
11
6.5580497244094484
21
-4.5312290944881886
0
LINE
8
BLACK
6
CONTINUOUS
10
6.5580497244094484
20
-4.5312290944881886
11
6.5559310629921255
21
-4.533990196850394
0
LINE
8
BLACK
6
CONTINUOUS
10
6.5559310629921255
20
-4.533990196850394
11
6.5559309448818892
21
-4.5339903937007877
0
LINE
8
BLACK
6
CONTINUOUS
10
6.5559309448818892
20
-4.5339903937007877
11
6.5559309055118105
21
-4.5339904724409452
0
LINE
8
BLACK
6
CONTINUOUS
10
6.5559309055118105
20
-4.5339904724409452
11
6.5551949999999994
21
-4.5357670866141735
0
LINE
8
BLACK
6
CONTINUOUS
10
6.5551949999999994
20
-4.5357670866141735
11
6.5537311417322837
21
-4.5393010629921262
0
LINE
8
BLACK
6
CONTINUOUS
10
6.5537311417322837
20
-4.5393010629921262
11
6.5529809055118111
21
-4.5449999606299212
0
LINE
8
BLACK
6
CONTINUOUS
10
6.5529809055118111
20
-4.5449999606299212
11
6.5529809055118111
21
-4.5449999999999999
0
LINE
8
BLACK
6
CONTINUOUS
10
6.5529809055118111
20
-4.5449999999999999
11
6.5537311417322837
21
-4.5506988976377949
0
LINE
8
BLACK
6
CONTINUOUS
10
6.5537311417322837
20
-4.5506988976377949
11
6.5559308661417317
21
-4.5560094881889759
0
LINE
8
BLACK
6
CONTINUOUS
10
6.5559308661417317
20
-4.5560094881889759
11
6.5559310629921255
21
-4.5560098031496059
0
LINE
8
BLACK
6
CONTINUOUS
10
6.5559310629921255
20
-4.5560098031496059
11
6.5594301181102361
21
-4.5605698425196852
0
LINE
8
BLACK
6
CONTINUOUS
10
6.5594301181102361
20
-4.5605698425196852
11
6.5639901574803146
21
-4.564068897637795
0
LINE
8
BLACK
6
CONTINUOUS
10
6.5639901574803146
20
-4.564068897637795
11
6.5639904330708658
21
-4.5640690944881888
0
LINE
8
BLACK
6
CONTINUOUS
10
6.5639904330708658
20
-4.5640690944881888
11
6.5693010236220468
21
-4.5662688188976377
0
LINE
8
BLACK
6
CONTINUOUS
10
6.5693010236220468
20
-4.5662688188976377
11
6.5750000000000002
21
-4.567019094488189
0
LINE
8
BLACK
6
CONTINUOUS
10
6.5750000000000002
20
-4.567019094488189
11
6.5806989763779526
21
-4.5662688188976377
0
LINE
8
BLACK
6
CONTINUOUS
10
6.5806989763779526
20
-4.5662688188976377
11
6.5860095669291336
21
-4.5640690944881888
0
LINE
8
BLACK
6
CONTINUOUS
10
6.5860095669291336
20
-4.5640690944881888
11
6.5905698425196846
21
-4.5605698425196852
0
LINE
8
BLACK
6
CONTINUOUS
10
6.5905698425196846
20
-4.5605698425196852
11
6.594069094488189
21
-4.5560095669291334
0
LINE
8
BLACK
6
CONTINUOUS
10
6.594069094488189
20
-4.5560095669291334
11
6.5962688188976379
21
-4.5506989763779524
0
LINE
8
BLACK
6
CONTINUOUS
10
6.5962688188976379
20
-4.5506989763779524
11
6.5970190944881892
21
-4.5449999999999999
0
LINE
8
BLACK
6
CONTINUOUS
10
6.5970190944881892
20
-4.5449999999999999
11
6.5968964960629917
21
-4.5440688976377954
0
LINE
8
BLACK
6
CONTINUOUS
10
6.5968964960629917
20
-4.5440688976377954
11
6.5962688188976379
21
-4.5393010629921262
0
LINE
8
BLACK
6
CONTINUOUS
10
6.5962688188976379
20
-4.5393010629921262
11
6.5962688188976379
21
-4.5393010236220475
0
LINE
8
BLACK
6
CONTINUOUS
10
6.5962688188976379
20
-4.5393010236220475
11
6.594069094488189
21
-4.5339904724409452
0
LINE
8
BLACK
6
CONTINUOUS
10
6.594069094488189
20
-4.5339904724409452
11
6.5928892519685034
21
-4.5324528346456692
0
LINE
8
BLACK
6
CONTINUOUS
10
6.5928892519685034
20
-4.5324528346456692
11
6.591950275590551
21
-4.5312290944881886
0
LINE
8
BLACK
6
CONTINUOUS
10
6.591950275590551
20
-4.5312290944881886
11
6.5909424015748028
21
-4.5286219685039368
0
LINE
8
BLACK
6
CONTINUOUS
10
6.5909424015748028
20
-4.5286219685039368
11
6.5909251968503932
21
-4.528209291338583
0
LINE
8
BLACK
6
CONTINUOUS
10
6.5909251968503932
20
-4.528209291338583
11
6.5909251968503932
21
-4.4704696850393697
0
LINE
8
BLACK
6
CONTINUOUS
10
6.5909251968503932
20
-4.4704696850393697
11
6.5909251968503932
21
-4.3579034645669292
0
LINE
8
BLACK
6
CONTINUOUS
10
6.5909251968503932
20
-4.3579034645669292
11
6.5898399212598422
21
-4.3538531102362201
0
LINE
8
BLACK
6
CONTINUOUS
10
6.5898399212598422
20
-4.3538531102362201
11
6.5898399212598422
21
-4.3538530708661414
0
LINE
8
BLACK
6
CONTINUOUS
10
6.5898399212598422
20
-4.3538530708661414
11
6.5877433464566924
21
-4.3502217322834644
0
LINE
8
BLACK
6
CONTINUOUS
10
6.5877433464566924
20
-4.3502217322834644
11
6.5877432677165348
21
-4.3502216141732282
0
LINE
8
BLACK
6
CONTINUOUS
10
6.5877432677165348
20
-4.3502216141732282
11
6.5754250787401576
21
-4.33790342519685
0
LINE
8
BLACK
6
CONTINUOUS
10
6.5754250787401576
20
-4.33790342519685
11
6.5647785433070869
21
-4.3272568897637793
0
LINE
8
BLACK
6
CONTINUOUS
10
6.5647785433070869
20
-4.3272568897637793
11
6.5647781496062994
21
-4.3272565748031493
0
LINE
8
BLACK
6
CONTINUOUS
10
6.5647781496062994
20
-4.3272565748031493
11
6.561147047244094
21
-4.3251601574803145
0
LINE
8
BLACK
6
CONTINUOUS
10
6.561147047244094
20
-4.3251601574803145
11
6.5611469291338578
21
-4.3251601181102357
0
LINE
8
BLACK
6
CONTINUOUS
10
6.5611469291338578
20
-4.3251601181102357
11
6.561146889763779
21
-4.325160078740157
0
LINE
8
BLACK
6
CONTINUOUS
10
6.561146889763779
20
-4.325160078740157
11
6.5611468110236215
21
-4.3251600393700782
0
LINE
8
BLACK
6
CONTINUOUS
10
6.5611468110236215
20
-4.3251600393700782
11
6.5611467716535428
21
-4.3251600393700782
0
LINE
8
BLACK
6
CONTINUOUS
10
6.5611467716535428
20
-4.3251600393700782
11
6.560061456692913
21
-4.3248692125984247
0
LINE
8
BLACK
6
CONTINUOUS
10
6.560061456692913
20
-4.3248692125984247
11
6.5570965748031496
21
-4.3240748031496059
0
LINE
8
BLACK
6
CONTINUOUS
10
6.5570965748031496
20
-4.3240748031496059
11
6.5570964960629921
21
-4.3240748031496059
0
LINE
8
BLACK
6
CONTINUOUS
10
6.5570964960629921
20
-4.3240748031496059
11
6.5267906299212601
21
-4.3240748031496059
0
LINE
8
BLACK
6
CONTINUOUS
10
6.5267906299212601
20
-4.3240748031496059
11
6.5241087007874015
21
-4.3232873228346458
0
LINE
8
BLACK
6
CONTINUOUS
10
6.5241087007874015
20
-4.3232873228346458
11
6.5237711811023624
21
-4.3230500000000003
0
LINE
8
BLACK
6
CONTINUOUS
10
6.5237711811023624
20
-4.3230500000000003
11
6.5210095669291341
21
-4.320930905511811
0
LINE
8
BLACK
6
CONTINUOUS
10
6.5210095669291341
20
-4.320930905511811
11
6.5180364173228345
21
-4.3196993700787401
0
LINE
8
BLACK
6
CONTINUOUS
10
6.5180364173228345
20
-4.3196993700787401
11
6.5156988976377948
21
-4.3187311417322833
0
LINE
8
BLACK
6
CONTINUOUS
10
6.5156988976377948
20
-4.3187311417322833
11
6.5099999999999998
21
-4.3179809055118108
0
LINE
8
BLACK
6
CONTINUOUS
10
6.5099999999999998
20
-4.3179809055118108
11
6.5043010629921261
21
-4.3187311417322833
0
LINE
8
BLACK
6
CONTINUOUS
10
6.5043010629921261
20
-4.3187311417322833
11
6.5019642913385827
21
-4.3196990944881888
0
LINE
8
BLACK
6
CONTINUOUS
10
6.5019642913385827
20
-4.3196990944881888
11
6.4989904724409451
21
-4.320930905511811
0
LINE
8
BLACK
6
CONTINUOUS
10
6.4989904724409451
20
-4.320930905511811
11
6.4989904330708663
21
-4.3209309448818898
0
LINE
8
BLACK
6
CONTINUOUS
10
6.4989904330708663
20
-4.3209309448818898
11
6.4989901574803151
21
-4.3209311023622048
0
LINE
8
BLACK
6
CONTINUOUS
10
6.4989901574803151
20
-4.3209311023622048
11
6.4985847637795278
21
-4.3212422047244097
0
LINE
8
BLACK
6
CONTINUOUS
10
6.4985847637795278
20
-4.3212422047244097
11
6.4959777165354327
21
-4.3222501574803145
0
LINE
8
BLACK
6
CONTINUOUS
10
6.4959777165354327
20
-4.3222501574803145
11
6.4955648818897638
21
-4.3222673622047241
0
LINE
8
BLACK
6
CONTINUOUS
10
6.4955648818897638
20
-4.3222673622047241
11
6.3861432677165348
21
-4.3222673622047241
0
LINE
8
BLACK
6
CONTINUOUS
10
6.3861432677165348
20
-4.3222673622047241
11
6.3834613385826771
21
-4.321479881889764
0
LINE
8
BLACK
6
CONTINUOUS
10
6.3834613385826771
20
-4.321479881889764
11
6.3816309055118108
21
-4.3193674409448821
0
LINE
8
BLACK
6
CONTINUOUS
10
6.3816309055118108
20
-4.3193674409448821
11
6.3812411023622042
21
-4.3166563385826775
0
LINE
8
BLACK
6
CONTINUOUS
10
6.3812411023622042
20
-4.3166563385826775
11
6.381226377952756
21
-4.3166544094488186
0
LINE
8
BLACK
6
CONTINUOUS
10
6.381226377952756
20
-4.3166544094488186
11
6.3812332677165351
21
-4.3166019291338582
0
LINE
8
BLACK
6
CONTINUOUS
10
6.3812332677165351
20
-4.3166019291338582
11
6.3812331102362201
21
-4.3166007480314956
0
LINE
8
BLACK
6
CONTINUOUS
10
6.3812331102362201
20
-4.3166007480314956
11
6.3812340157480314
21
-4.3165962204724408
0
LINE
8
BLACK
6
CONTINUOUS
10
6.3812340157480314
20
-4.3165962204724408
11
6.3812687795275593
21
-4.3163321259842515
0
LINE
8
BLACK
6
CONTINUOUS
10
6.3812687795275593
20
-4.3163321259842515
11
6.3812688188976381
21
-4.316332047244094
0
LINE
8
BLACK
6
CONTINUOUS
10
6.3812688188976381
20
-4.316332047244094
11
6.3820190944881885
21
-4.3106330708661416
0
LINE
8
BLACK
6
CONTINUOUS
10
6.3820190944881885
20
-4.3106330708661416
11
6.3812688188976381
21
-4.3049340944881891
0
LINE
8
BLACK
6
CONTINUOUS
10
6.3812688188976381
20
-4.3049340944881891
11
6.3790690944881892
21
-4.2996235433070868
0
LINE
8
BLACK
6
CONTINUOUS
10
6.3790690944881892
20
-4.2996235433070868
11
6.3755698425196847
21
-4.2950632283464563
0
LINE
8
BLACK
6
CONTINUOUS
10
6.3755698425196847
20
-4.2950632283464563
11
6.3755697637795272
21
-4.2950631496062988
0
LINE
8
BLACK
6
CONTINUOUS
10
6.3755697637795272
20
-4.2950631496062988
11
6.3755697244094485
21
-4.29506311023622
0
LINE
8
BLACK
6
CONTINUOUS
10
6.3755697244094485
20
-4.29506311023622
11
6.3710098031496063
21
-4.2915641338582677
0
LINE
8
BLACK
6
CONTINUOUS
10
6.3710098031496063
20
-4.2915641338582677
11
6.3710094881889763
21
-4.291563937007874
0
LINE
8
BLACK
6
CONTINUOUS
10
6.3710094881889763
20
-4.291563937007874
11
6.3656988976377953
21
-4.289364212598425
0
LINE
8
BLACK
6
CONTINUOUS
10
6.3656988976377953
20
-4.289364212598425
11
6.3599999999999994
21
-4.2886139763779525
0
LINE
8
BLACK
6
CONTINUOUS
10
6.3599999999999994
20
-4.2886139763779525
11
6.354301023622047
21
-4.289364212598425
0
LINE
8
BLACK
6
CONTINUOUS
10
6.354301023622047
20
-4.289364212598425
11
6.3543007480314957
21
-4.2893642913385825
0
LINE
8
BLACK
6
CONTINUOUS
10
6.3543007480314957
20
-4.2893642913385825
11
6.353331220472441
21
-4.2897659055118114
0
LINE
8
BLACK
6
CONTINUOUS
10
6.353331220472441
20
-4.2897659055118114
11
6.3527033464566927
21
-4.2899352755905511
0
LINE
8
BLACK
6
CONTINUOUS
10
6.3527033464566927
20
-4.2899352755905511
11
6.3527139763779523
21
-4.2899748425196851
0
LINE
8
BLACK
6
CONTINUOUS
10
6.3527139763779523
20
-4.2899748425196851
11
6.348600039370079
21
-4.2910771653543307
0
LINE
8
BLACK
6
CONTINUOUS
10
6.348600039370079
20
-4.2910771653543307
11
6.3451930708661415
21
-4.2930441732283464
0
LINE
8
BLACK
6
CONTINUOUS
10
6.3451930708661415
20
-4.2930441732283464
11
6.345192677165354
21
-4.2930444881889764
0
LINE
8
BLACK
6
CONTINUOUS
10
6.345192677165354
20
-4.2930444881889764
11
6.3424114173228343
21
-4.2958257480314961
0
LINE
8
BLACK
6
CONTINUOUS
10
6.3424114173228343
20
-4.2958257480314961
11
6.3424111023622043
21
-4.2958261417322836
0
LINE
8
BLACK
6
CONTINUOUS
10
6.3424111023622043
20
-4.2958261417322836
11
6.3404440944881886
21
-4.2992331102362202
0
LINE
8
BLACK
6
CONTINUOUS
10
6.3404440944881886
20
-4.2992331102362202
11
6.339341771653543
21
-4.3033470472440944
0
LINE
8
BLACK
6
CONTINUOUS
10
6.339341771653543
20
-4.3033470472440944
11
6.3393016535433073
21
-4.3033362992125985
0
LINE
8
BLACK
6
CONTINUOUS
10
6.3393016535433073
20
-4.3033362992125985
11
6.3391328346456692
21
-4.303964330708661
0
LINE
8
BLACK
6
CONTINUOUS
10
6.3391328346456692
20
-4.303964330708661
11
6.3387311811023617
21
-4.3049340157480316
0
LINE
8
BLACK
6
CONTINUOUS
10
6.3387311811023617
20
-4.3049340157480316
11
6.3379809055118113
21
-4.3106330314960628
0
LINE
8
BLACK
6
CONTINUOUS
10
6.3379809055118113
20
-4.3106330314960628
11
6.3379809055118113
21
-4.3106330708661416
0
LINE
8
BLACK
6
CONTINUOUS
10
6.3379809055118113
20
-4.3106330708661416
11
6.3387736220472437
21
-4.3166544094488186
0
LINE
8
BLACK
6
CONTINUOUS
10
6.3387736220472437
20
-4.3166544094488186
11
6.338632598425197
21
-4.3166729527559058
0
LINE
8
BLACK
6
CONTINUOUS
10
6.338632598425197
20
-4.3166729527559058
11
6.3385822834645671
21
-4.3188156692913386
0
LINE
8
BLACK
6
CONTINUOUS
10
6.3385822834645671
20
-4.3188156692913386
11
6.3370163385826768
21
-4.3211309448818893
0
LINE
8
BLACK
6
CONTINUOUS
10
6.3370163385826768
20
-4.3211309448818893
11
6.3344472440944877
21
-4.3222320866141732
0
LINE
8
BLACK
6
CONTINUOUS
10
6.3344472440944877
20
-4.3222320866141732
11
6.333856732283464
21
-4.3222673622047241
0
LINE
8
BLACK
6
CONTINUOUS
10
6.333856732283464
20
-4.3222673622047241
11
5.4541245669291341
21
-4.3222673622047241
0
LINE
8
BLACK
6
CONTINUOUS
10
5.4541245669291341
20
-4.3222673622047241
11
5.4514426377952754
21
-4.321479881889764
0
LINE
8
BLACK
6
CONTINUOUS
10
5.4514426377952754
20
-4.321479881889764
11
5.4499842913385823
21
-4.3199504330708658
0
LINE
8
BLACK
6
CONTINUOUS
10
5.4499842913385823
20
-4.3199504330708658
11
5.4499756692913381
21
-4.3199570866141732
0
LINE
8
BLACK
6
CONTINUOUS
10
5.4499756692913381
20
-4.3199570866141732
11
5.4499140944881885
21
-4.3198768110236223
0
LINE
8
BLACK
6
CONTINUOUS
10
5.4499140944881885
20
-4.3198768110236223
11
5.4498286614173228
21
-4.3197872440944884
0
LINE
8
BLACK
6
CONTINUOUS
10
5.4498286614173228
20
-4.3197872440944884
11
5.4497779133858266
21
-4.3196993700787401
0
LINE
8
BLACK
6
CONTINUOUS
10
5.4497779133858266
20
-4.3196993700787401
11
5.4497777559055116
21
-4.3196991732283463
0
LINE
8
BLACK
6
CONTINUOUS
10
5.4497777559055116
20
-4.3196991732283463
11
5.4497777559055116
21
-4.3196991338582675
0
LINE
8
BLACK
6
CONTINUOUS
10
5.4497777559055116
20
-4.3196991338582675
11
5.4462785039370081
21
-4.3151388188976378
0
LINE
8
BLACK
6
CONTINUOUS
10
5.4462785039370081
20
-4.3151388188976378
11
5.4462784251968506
21
-4.3151387401574803
0
LINE
8
BLACK
6
CONTINUOUS
10
5.4462784251968506
20
-4.3151387401574803
11
5.4462783858267718
21
-4.3151387007874016
0
LINE
8
BLACK
6
CONTINUOUS
10
5.4462783858267718
20
-4.3151387007874016
11
5.4417184645669288
21
-4.3116397244094484
0
LINE
8
BLACK
6
CONTINUOUS
10
5.4417184645669288
20
-4.3116397244094484
11
5.4417181496062987
21
-4.3116395275590547
0
LINE
8
BLACK
6
CONTINUOUS
10
5.4417181496062987
20
-4.3116395275590547
11
5.4364075590551177
21
-4.3094398031496066
0
LINE
8
BLACK
6
CONTINUOUS
10
5.4364075590551177
20
-4.3094398031496066
11
5.4307086614173228
21
-4.3086895669291341
0
LINE
8
BLACK
6
CONTINUOUS
10
5.4307086614173228
20
-4.3086895669291341
11
5.4250097244094491
21
-4.3094398031496066
0
LINE
8
BLACK
6
CONTINUOUS
10
5.4250097244094491
20
-4.3094398031496066
11
5.4223544094488192
21
-4.3105396850393696
0
LINE
8
BLACK
6
CONTINUOUS
10
5.4223544094488192
20
-4.3105396850393696
11
5.4196991338582672
21
-4.3116395669291334
0
LINE
8
BLACK
6
CONTINUOUS
10
5.4196991338582672
20
-4.3116395669291334
11
5.4196990944881884
21
-4.3116396062992122
0
LINE
8
BLACK
6
CONTINUOUS
10
5.4196990944881884
20
-4.3116396062992122
11
5.4196990551181097
21
-4.3116396062992122
0
LINE
8
BLACK
6
CONTINUOUS
10
5.4196990551181097
20
-4.3116396062992122
11
5.4151388188976375
21
-4.3151388188976378
0
LINE
8
BLACK
6
CONTINUOUS
10
5.4151388188976375
20
-4.3151388188976378
11
5.4116396062992127
21
-4.31969905511811
0
LINE
8
BLACK
6
CONTINUOUS
10
5.4116396062992127
20
-4.31969905511811
11
5.4116395669291339
21
-4.3196991338582675
0
LINE
8
BLACK
6
CONTINUOUS
10
5.4116395669291339
20
-4.3196991338582675
11
5.4105828740157476
21
-4.3222501574803145
0
LINE
8
BLACK
6
CONTINUOUS
10
5.4105828740157476
20
-4.3222501574803145
11
5.4094398031496063
21
-4.3250097244094485
0
LINE
8
BLACK
6
CONTINUOUS
10
5.4094398031496063
20
-4.3250097244094485
11
5.4086895669291337
21
-4.3307086220472444
0
LINE
8
BLACK
6
CONTINUOUS
10
5.4086895669291337
20
-4.3307086220472444
11
5.4086895669291337
21
-4.3307086614173231
0
LINE
8
BLACK
6
CONTINUOUS
10
6.3879809055118111
20
-4.3949999999999996
11
6.3887311417322836
21
-4.4006988976377954
0
LINE
8
BLACK
6
CONTINUOUS
10
6.3887311417322836
20
-4.4006988976377954
11
6.3904800000000002
21
-4.4049209448818898
0
LINE
8
BLACK
6
CONTINUOUS
10
6.3904800000000002
20
-4.4049209448818898
11
6.3909309055118113
21
-4.4060095669291339
0
LINE
8
BLACK
6
CONTINUOUS
10
6.3909309055118113
20
-4.4060095669291339
11
6.3930496850393697
21
-4.4087707874015747
0
LINE
8
BLACK
6
CONTINUOUS
10
6.3930496850393697
20
-4.4087707874015747
11
6.3940575984251966
21
-4.4113778346456689
0
LINE
8
BLACK
6
CONTINUOUS
10
6.3940575984251966
20
-4.4113778346456689
11
6.3940748031496062
21
-4.4117906299212599
0
LINE
8
BLACK
6
CONTINUOUS
10
6.3940748031496062
20
-4.4117906299212599
11
6.3940748031496062
21
-4.4879034251968504
0
LINE
8
BLACK
6
CONTINUOUS
10
6.3940748031496062
20
-4.4879034251968504
11
6.3940748031496062
21
-4.4920965748031492
0
LINE
8
BLACK
6
CONTINUOUS
10
6.3940748031496062
20
-4.4920965748031492
11
6.3946499999999995
21
-4.4942431889763776
0
LINE
8
BLACK
6
CONTINUOUS
10
6.3946499999999995
20
-4.4942431889763776
11
6.3951600393700785
21
-4.4961467716535433
0
LINE
8
BLACK
6
CONTINUOUS
10
6.3951600393700785
20
-4.4961467716535433
11
6.3951601574803147
21
-4.4961470472440945
0
LINE
8
BLACK
6
CONTINUOUS
10
6.3951601574803147
20
-4.4961470472440945
11
6.3972565748031496
21
-4.499778149606299
0
LINE
8
BLACK
6
CONTINUOUS
10
6.3972565748031496
20
-4.499778149606299
11
6.3972566535433071
21
-4.4997782283464565
0
LINE
8
BLACK
6
CONTINUOUS
10
6.3972566535433071
20
-4.4997782283464565
11
6.3972566929133858
21
-4.499778307086614
0
LINE
8
BLACK
6
CONTINUOUS
10
6.3972566929133858
20
-4.499778307086614
11
6.4218663779527558
21
-4.524387992125984
0
LINE
8
BLACK
6
CONTINUOUS
10
6.4218663779527558
20
-4.524387992125984
11
6.4232059055118107
21
-4.5268411811023617
0
LINE
8
BLACK
6
CONTINUOUS
10
6.4232059055118107
20
-4.5268411811023617
11
6.4232768503937008
21
-4.5272481102362203
0
LINE
8
BLACK
6
CONTINUOUS
10
6.4232768503937008
20
-4.5272481102362203
11
6.4237311417322829
21
-4.5306988976377953
0
LINE
8
BLACK
6
CONTINUOUS
10
6.4237311417322829
20
-4.5306988976377953
11
6.4259308661417318
21
-4.5360094881889763
0
LINE
8
BLACK
6
CONTINUOUS
10
6.4259308661417318
20
-4.5360094881889763
11
6.4259310629921256
21
-4.5360098031496063
0
LINE
8
BLACK
6
CONTINUOUS
10
6.4259310629921256
20
-4.5360098031496063
11
6.4294301181102362
21
-4.5405698425196848
0
LINE
8
BLACK
6
CONTINUOUS
10
6.4294301181102362
20
-4.5405698425196848
11
6.4339901574803147
21
-4.5440688976377954
0
LINE
8
BLACK
6
CONTINUOUS
10
6.4339901574803147
20
-4.5440688976377954
11
6.4339904330708659
21
-4.5440690944881892
0
LINE
8
BLACK
6
CONTINUOUS
10
6.4339904330708659
20
-4.5440690944881892
11
6.4393010236220469
21
-4.5462688188976381
0
LINE
8
BLACK
6
CONTINUOUS
10
6.4393010236220469
20
-4.5462688188976381
11
6.4450000000000003
21
-4.5470190944881885
0
LINE
8
BLACK
6
CONTINUOUS
10
6.4450000000000003
20
-4.5470190944881885
11
6.4506989763779528
21
-4.5462688188976381
0
LINE
8
BLACK
6
CONTINUOUS
10
6.4506989763779528
20
-4.5462688188976381
11
6.4560095669291337
21
-4.5440690944881892
0
LINE
8
BLACK
6
CONTINUOUS
10
6.4560095669291337
20
-4.5440690944881892
11
6.4605698425196847
21
-4.5405698425196848
0
LINE
8
BLACK
6
CONTINUOUS
10
6.4605698425196847
20
-4.5405698425196848
11
6.4640690944881891
21
-4.5360095669291338
0
LINE
8
BLACK
6
CONTINUOUS
10
6.4640690944881891
20
-4.5360095669291338
11
6.466268818897638
21
-4.5306989763779528
0
LINE
8
BLACK
6
CONTINUOUS
10
6.466268818897638
20
-4.5306989763779528
11
6.4670190944881885
21
-4.5249999999999995
0
LINE
8
BLACK
6
CONTINUOUS
10
6.4670190944881885
20
-4.5249999999999995
11
6.466268818897638
21
-4.519301023622047
0
LINE
8
BLACK
6
CONTINUOUS
10
6.466268818897638
20
-4.519301023622047
11
6.4640690944881891
21
-4.5139904724409448
0
LINE
8
BLACK
6
CONTINUOUS
10
6.4640690944881891
20
-4.5139904724409448
11
6.4605698425196847
21
-4.5094301574803151
0
LINE
8
BLACK
6
CONTINUOUS
10
6.4605698425196847
20
-4.5094301574803151
11
6.4605697637795272
21
-4.5094300787401576
0
LINE
8
BLACK
6
CONTINUOUS
10
6.4605697637795272
20
-4.5094300787401576
11
6.4605697244094484
21
-4.5094300393700788
0
LINE
8
BLACK
6
CONTINUOUS
10
6.4605697244094484
20
-4.5094300393700788
11
6.4560098031496063
21
-4.5059310629921256
0
LINE
8
BLACK
6
CONTINUOUS
10
6.4560098031496063
20
-4.5059310629921256
11
6.4560094881889762
21
-4.5059308661417319
0
LINE
8
BLACK
6
CONTINUOUS
10
6.4560094881889762
20
-4.5059308661417319
11
6.4506988976377952
21
-4.5037311417322829
0
LINE
8
BLACK
6
CONTINUOUS
10
6.4506988976377952
20
-4.5037311417322829
11
6.4472481102362202
21
-4.5032768503937008
0
LINE
8
BLACK
6
CONTINUOUS
10
6.4472481102362202
20
-4.5032768503937008
11
6.4446919291338585
21
-4.5021460236220472
0
LINE
8
BLACK
6
CONTINUOUS
10
6.4446919291338585
20
-4.5021460236220472
11
6.4443879527559051
21
-4.5018663385826772
0
LINE
8
BLACK
6
CONTINUOUS
10
6.4443879527559051
20
-4.5018663385826772
11
6.4273781496062989
21
-4.4848565354330709
0
LINE
8
BLACK
6
CONTINUOUS
10
6.4273781496062989
20
-4.4848565354330709
11
6.4260385433070866
21
-4.4824033070866145
0
LINE
8
BLACK
6
CONTINUOUS
10
6.4260385433070866
20
-4.4824033070866145
11
6.4259251968503932
21
-4.4813488582677161
0
LINE
8
BLACK
6
CONTINUOUS
10
6.4259251968503932
20
-4.4813488582677161
11
6.4259251968503932
21
-4.4117906299212599
0
LINE
8
BLACK
6
CONTINUOUS
10
6.4259251968503932
20
-4.4117906299212599
11
6.4267126771653542
21
-4.4091087007874012
0
LINE
8
BLACK
6
CONTINUOUS
10
6.4267126771653542
20
-4.4091087007874012
11
6.426949960629921
21
-4.4087711811023622
0
LINE
8
BLACK
6
CONTINUOUS
10
6.426949960629921
20
-4.4087711811023622
11
6.429069094488189
21
-4.4060095669291339
0
LINE
8
BLACK
6
CONTINUOUS
10
6.429069094488189
20
-4.4060095669291339
11
6.4312688188976379
21
-4.4006989763779529
0
LINE
8
BLACK
6
CONTINUOUS
10
6.4312688188976379
20
-4.4006989763779529
11
6.4320190944881892
21
-4.3949999999999996
0
LINE
8
BLACK
6
CONTINUOUS
10
6.4320190944881892
20
-4.3949999999999996
11
6.4312688188976379
21
-4.3893010236220471
0
LINE
8
BLACK
6
CONTINUOUS
10
6.4312688188976379
20
-4.3893010236220471
11
6.429069094488189
21
-4.3839904724409449
0
LINE
8
BLACK
6
CONTINUOUS
10
6.429069094488189
20
-4.3839904724409449
11
6.4255698425196845
21
-4.3794301574803152
0
LINE
8
BLACK
6
CONTINUOUS
10
6.4255698425196845
20
-4.3794301574803152
11
6.425569763779527
21
-4.3794300787401577
0
LINE
8
BLACK
6
CONTINUOUS
10
6.425569763779527
20
-4.3794300787401577
11
6.4255697244094483
21
-4.3794300393700789
0
LINE
8
BLACK
6
CONTINUOUS
10
6.4255697244094483
20
-4.3794300393700789
11
6.4210098031496061
21
-4.3759310629921258
0
LINE
8
BLACK
6
CONTINUOUS
10
6.4210098031496061
20
-4.3759310629921258
11
6.4210094881889761
21
-4.375930866141732
0
LINE
8
BLACK
6
CONTINUOUS
10
6.4210094881889761
20
-4.375930866141732
11
6.4156988976377951
21
-4.3737311417322831
0
LINE
8
BLACK
6
CONTINUOUS
10
6.4156988976377951
20
-4.3737311417322831
11
6.4100000000000001
21
-4.3729809055118105
0
LINE
8
BLACK
6
CONTINUOUS
10
6.4100000000000001
20
-4.3729809055118105
11
6.4043010629921255
21
-4.3737311417322831
0
LINE
8
BLACK
6
CONTINUOUS
10
6.4043010629921255
20
-4.3737311417322831
11
6.4025410236220468
21
-4.3744601968503938
0
LINE
8
BLACK
6
CONTINUOUS
10
6.4025410236220468
20
-4.3744601968503938
11
6.3989904724409445
21
-4.3759309055118107
0
LINE
8
BLACK
6
CONTINUOUS
10
6.3989904724409445
20
-4.3759309055118107
11
6.3989904330708658
21
-4.3759309448818895
0
LINE
8
BLACK
6
CONTINUOUS
10
6.3989904330708658
20
-4.3759309448818895
11
6.398990393700787
21
-4.3759309448818895
0
LINE
8
BLACK
6
CONTINUOUS
10
6.398990393700787
20
-4.3759309448818895
11
6.3944301574803148
21
-4.3794301574803152
0
LINE
8
BLACK
6
CONTINUOUS
10
6.3944301574803148
20
-4.3794301574803152
11
6.3909309448818892
21
-4.3839903937007874
0
LINE
8
BLACK
6
CONTINUOUS
10
6.3909309448818892
20
-4.3839903937007874
11
6.3909309055118113
21
-4.3839904724409449
0
LINE
8
BLACK
6
CONTINUOUS
10
6.3909309055118113
20
-4.3839904724409449
11
6.3905107480314962
21
-4.3850048031496058
0
LINE
8
BLACK
6
CONTINUOUS
10
6.3905107480314962
20
-4.3850048031496058
11
6.3887311417322836
21
-4.3893010629921259
0
LINE
8
BLACK
6
CONTINUOUS
10
6.3887311417322836
20
-4.3893010629921259
11
6.3879809055118111
21
-4.3949999606299208
0
LINE
8
BLACK
6
CONTINUOUS
10
6.3879809055118111
20
-4.3949999606299208
11
6.3879809055118111
21
-4.3949999999999996
0
LINE
8
BLACK
6
CONTINUOUS
10
6.6148622047244094
20
-4.3420965748031497
11
6.6156566141732283
21
-4.3450614566929131
0
LINE
8
BLACK
6
CONTINUOUS
10
6.6156566141732283
20
-4.3450614566929131
11
6.6159474409448817
21
-4.3461467716535429
0
LINE
8
BLACK
6
CONTINUOUS
10
6.6159474409448817
20
-4.3461467716535429
11
6.615947559055118
21
-4.3461470472440942
0
LINE
8
BLACK
6
CONTINUOUS
10
6.615947559055118
20
-4.3461470472440942
11
6.6180439763779528
21
-4.3497781496062995
0
LINE
8
BLACK
6
CONTINUOUS
10
6.6180439763779528
20
-4.3497781496062995
11
6.6180442913385829
21
-4.3497785433070861
0
LINE
8
BLACK
6
CONTINUOUS
10
6.6180442913385829
20
-4.3497785433070861
11
6.6210088188976375
21
-4.3527430708661417
0
LINE
8
BLACK
6
CONTINUOUS
10
6.6210088188976375
20
-4.3527430708661417
11
6.6210090157480312
21
-4.3527432283464567
0
LINE
8
BLACK
6
CONTINUOUS
10
6.6210090157480312
20
-4.3527432283464567
11
6.6210090944881888
21
-4.3527433070866142
0
LINE
8
BLACK
6
CONTINUOUS
10
6.6210090944881888
20
-4.3527433070866142
11
6.6246405118110232
21
-4.3548399212598428
0
LINE
8
BLACK
6
CONTINUOUS
10
6.6246405118110232
20
-4.3548399212598428
11
6.6286908267716536
21
-4.3559251968503938
0
LINE
8
BLACK
6
CONTINUOUS
10
6.6286908267716536
20
-4.3559251968503938
11
6.6432093700787398
21
-4.3559251968503938
0
LINE
8
BLACK
6
CONTINUOUS
10
6.6432093700787398
20
-4.3559251968503938
11
6.6458912992125985
21
-4.3567126771653539
0
LINE
8
BLACK
6
CONTINUOUS
10
6.6458912992125985
20
-4.3567126771653539
11
6.6462287795275587
21
-4.3569499606299216
0
LINE
8
BLACK
6
CONTINUOUS
10
6.6462287795275587
20
-4.3569499606299216
11
6.6489904330708658
21
-4.3590690944881887
0
LINE
8
BLACK
6
CONTINUOUS
10
6.6489904330708658
20
-4.3590690944881887
11
6.6543010236220468
21
-4.3612688188976376
0
LINE
8
BLACK
6
CONTINUOUS
10
6.6543010236220468
20
-4.3612688188976376
11
6.6600000000000001
21
-4.3620190944881889
0
LINE
8
BLACK
6
CONTINUOUS
10
6.6600000000000001
20
-4.3620190944881889
11
6.6656989763779526
21
-4.3612688188976376
0
LINE
8
BLACK
6
CONTINUOUS
10
6.6656989763779526
20
-4.3612688188976376
11
6.6710095669291336
21
-4.3590690944881887
0
LINE
8
BLACK
6
CONTINUOUS
10
6.6710095669291336
20
-4.3590690944881887
11
6.6755698425196845
21
-4.3555698425196852
0
LINE
8
BLACK
6
CONTINUOUS
10
6.6755698425196845
20
-4.3555698425196852
11
6.679069094488189
21
-4.3510095669291333
0
LINE
8
BLACK
6
CONTINUOUS
10
6.679069094488189
20
-4.3510095669291333
11
6.6812688188976379
21
-4.3456989763779523
0
LINE
8
BLACK
6
CONTINUOUS
10
6.6812688188976379
20
-4.3456989763779523
11
6.6820190944881892
21
-4.3399999999999999
0
LINE
8
BLACK
6
CONTINUOUS
10
6.6820190944881892
20
-4.3399999999999999
11
6.6812688188976379
21
-4.3343010236220474
0
LINE
8
BLACK
6
CONTINUOUS
10
6.6812688188976379
20
-4.3343010236220474
11
6.679069094488189
21
-4.3289904724409451
0
LINE
8
BLACK
6
CONTINUOUS
10
6.679069094488189
20
-4.3289904724409451
11
6.6755698425196845
21
-4.3244301574803146
0
LINE
8
BLACK
6
CONTINUOUS
10
6.6755698425196845
20
-4.3244301574803146
11
6.675569763779527
21
-4.3244300787401571
0
LINE
8
BLACK
6
CONTINUOUS
10
6.675569763779527
20
-4.3244300787401571
11
6.6755697244094483
21
-4.3244300393700783
0
LINE
8
BLACK
6
CONTINUOUS
10
6.6755697244094483
20
-4.3244300393700783
11
6.6710098031496061
21
-4.320931062992126
0
LINE
8
BLACK
6
CONTINUOUS
10
6.6710098031496061
20
-4.320931062992126
11
6.6710094881889761
21
-4.3209308661417323
0
LINE
8
BLACK
6
CONTINUOUS
10
6.6710094881889761
20
-4.3209308661417323
11
6.6656988976377951
21
-4.3187311417322833
0
LINE
8
BLACK
6
CONTINUOUS
10
6.6656988976377951
20
-4.3187311417322833
11
6.6600000000000001
21
-4.3179809055118108
0
LINE
8
BLACK
6
CONTINUOUS
10
6.6600000000000001
20
-4.3179809055118108
11
6.6543010629921255
21
-4.3187311417322833
0
LINE
8
BLACK
6
CONTINUOUS
10
6.6543010629921255
20
-4.3187311417322833
11
6.6519642913385821
21
-4.3196990944881888
0
LINE
8
BLACK
6
CONTINUOUS
10
6.6519642913385821
20
-4.3196990944881888
11
6.6489904724409445
21
-4.320930905511811
0
LINE
8
BLACK
6
CONTINUOUS
10
6.6489904724409445
20
-4.320930905511811
11
6.6489904330708658
21
-4.3209309448818898
0
LINE
8
BLACK
6
CONTINUOUS
10
6.6489904330708658
20
-4.3209309448818898
11
6.6489901968503933
21
-4.320931062992126
0
LINE
8
BLACK
6
CONTINUOUS
10
6.6489901968503933
20
-4.320931062992126
11
6.646229212598425
21
-4.3230496850393703
0
LINE
8
BLACK
6
CONTINUOUS
10
6.646229212598425
20
-4.3230496850393703
11
6.6436221259842521
21
-4.3240575984251963
0
LINE
8
BLACK
6
CONTINUOUS
10
6.6436221259842521
20
-4.3240575984251963
11
6.6432093700787398
21
-4.3240748031496059
0
LINE
8
BLACK
6
CONTINUOUS
10
6.6432093700787398
20
-4.3240748031496059
11
6.6286908267716536
21
-4.3240748031496059
0
LINE
8
BLACK
6
CONTINUOUS
10
6.6286908267716536
20
-4.3240748031496059
11
6.6265203543307081
21
-4.3246563385826775
0
LINE
8
BLACK
6
CONTINUOUS
10
6.6265203543307081
20
-4.3246563385826775
11
6.6246405905511807
21
-4.3251600393700782
0
LINE
8
BLACK
6
CONTINUOUS
10
6.6246405905511807
20
-4.3251600393700782
11
6.6246403149606294
21
-4.3251601574803145
0
LINE
8
BLACK
6
CONTINUOUS
10
6.6246403149606294
20
-4.3251601574803145
11
6.621009212598425
21
-4.3272565748031493
0
LINE
8
BLACK
6
CONTINUOUS
10
6.621009212598425
20
-4.3272565748031493
11
6.6210088188976375
21
-4.3272568897637793
0
LINE
8
BLACK
6
CONTINUOUS
10
6.6210088188976375
20
-4.3272568897637793
11
6.6180442913385829
21
-4.3302214173228348
0
LINE
8
BLACK
6
CONTINUOUS
10
6.6180442913385829
20
-4.3302214173228348
11
6.6180439763779528
21
-4.3302218110236224
0
LINE
8
BLACK
6
CONTINUOUS
10
6.6180439763779528
20
-4.3302218110236224
11
6.615947559055118
21
-4.3338529133858268
0
LINE
8
BLACK
6
CONTINUOUS
10
6.615947559055118
20
-4.3338529133858268
11
6.6159474409448817
21
-4.3338531889763781
0
LINE
8
BLACK
6
CONTINUOUS
10
6.6159474409448817
20
-4.3338531889763781
11
6.6158274409448818
21
-4.3343010629921261
0
LINE
8
BLACK
6
CONTINUOUS
10
6.6158274409448818
20
-4.3343010629921261
11
6.6148622047244094
21
-4.33790342519685
0
LINE
8
BLACK
6
CONTINUOUS
10
6.6148622047244094
20
-4.33790342519685
11
6.6148622047244094
21
-4.3420965748031497
0
LINE
8
BLACK
6
CONTINUOUS
10
6.8590669291338582
20
-4.5141021653543305
11
6.8609055118110236
21
-4.5147713385826771
0
LINE
8
BLACK
6
CONTINUOUS
10
6.8609055118110236
20
-4.5147713385826771
11
6.8640477559055117
21
-4.5174080314960632
0
LINE
8
BLACK
6
CONTINUOUS
10
6.8640477559055117
20
-4.5174080314960632
11
6.8660987401574802
21
-4.5209603937007872
0
LINE
8
BLACK
6
CONTINUOUS
10
6.8660987401574802
20
-4.5209603937007872
11
6.8668110236220468
21
-4.5249999999999995
0
LINE
8
BLACK
6
CONTINUOUS
10
6.8668110236220468
20
-4.5249999999999995
11
6.8660987401574802
21
-4.5290396062992127
0
LINE
8
BLACK
6
CONTINUOUS
10
6.8660987401574802
20
-4.5290396062992127
11
6.8640477559055117
21
-4.5325919685039366
0
LINE
8
BLACK
6
CONTINUOUS
10
6.8640477559055117
20
-4.5325919685039366
11
6.8612883858267715
21
-4.5349073622047245
0
LINE
8
BLACK
6
CONTINUOUS
10
6.8612883858267715
20
-4.5349073622047245
11
6.8618628346456694
21
-4.5357670866141735
0
LINE
8
BLACK
6
CONTINUOUS
10
6.8618628346456694
20
-4.5357670866141735
11
6.8651770472440941
21
-4.5379816141732281
0
LINE
8
BLACK
6
CONTINUOUS
10
6.8651770472440941
20
-4.5379816141732281
11
6.8651771259842516
21
-4.5379816535433068
0
LINE
8
BLACK
6
CONTINUOUS
10
6.8651771259842516
20
-4.5379816535433068
11
6.8680997244094488
21
-4.5385629921259838
0
LINE
8
BLACK
6
CONTINUOUS
10
6.8680997244094488
20
-4.5385629921259838
11
6.8821094094488187
21
-4.538562952755905
0
LINE
8
BLACK
6
CONTINUOUS
10
6.8821094094488187
20
-4.538562952755905
11
6.8809522440944884
21
-4.5375919685039365
0
LINE
8
BLACK
6
CONTINUOUS
10
6.8809522440944884
20
-4.5375919685039365
11
6.8789012598425199
21
-4.5340396062992125
0
LINE
8
BLACK
6
CONTINUOUS
10
6.8789012598425199
20
-4.5340396062992125
11
6.8781889763779525
21
-4.5300000000000002
0
LINE
8
BLACK
6
CONTINUOUS
10
6.8781889763779525
20
-4.5300000000000002
11
6.8784458267716531
21
-4.5285433070866139
0
LINE
8
BLACK
6
CONTINUOUS
10
6.8784458267716531
20
-4.5285433070866139
11
6.8690866141732281
21
-4.5285433070866139
0
LINE
8
BLACK
6
CONTINUOUS
10
6.8690866141732281
20
-4.5285433070866139
11
6.8690866141732281
21
-4.4714566929133861
0
LINE
8
BLACK
6
CONTINUOUS
10
6.8690866141732281
20
-4.4714566929133861
11
6.9281417322834642
21
-4.4714566929133861
0
LINE
8
BLACK
6
CONTINUOUS
10
6.9281417322834642
20
-4.4714566929133861
11
6.9281417322834642
21
-4.5285433070866139
0
LINE
8
BLACK
6
CONTINUOUS
10
6.9281417322834642
20
-4.5285433070866139
11
6.9015541732283463
21
-4.5285433070866139
0
LINE
8
BLACK
6
CONTINUOUS
10
6.9015541732283463
20
-4.5285433070866139
11
6.9018110236220469
21
-4.5300000000000002
0
LINE
8
BLACK
6
CONTINUOUS
10
6.9018110236220469
20
-4.5300000000000002
11
6.9010987401574804
21
-4.5340396062992125
0
LINE
8
BLACK
6
CONTINUOUS
10
6.9010987401574804
20
-4.5340396062992125
11
6.8990477559055119
21
-4.5375919685039365
0
LINE
8
BLACK
6
CONTINUOUS
10
6.8990477559055119
20
-4.5375919685039365
11
6.8978905511811019
21
-4.538562952755905
0
LINE
8
BLACK
6
CONTINUOUS
10
6.8978905511811019
20
-4.538562952755905
11
6.9291285826771656
21
-4.538562952755905
0
LINE
8
BLACK
6
CONTINUOUS
10
6.9291285826771656
20
-4.538562952755905
11
6.9291287007874018
21
-4.5385629133858263
0
LINE
8
BLACK
6
CONTINUOUS
10
6.9291287007874018
20
-4.5385629133858263
11
6.929128858267716
21
-4.5385629133858263
0
LINE
8
BLACK
6
CONTINUOUS
10
6.929128858267716
20
-4.5385629133858263
11
6.9310679527559049
21
-4.5381772047244091
0
LINE
8
BLACK
6
CONTINUOUS
10
6.9310679527559049
20
-4.5381772047244091
11
6.9320512204724407
21
-4.5379816535433068
0
LINE
8
BLACK
6
CONTINUOUS
10
6.9320512204724407
20
-4.5379816535433068
11
6.9353655118110238
21
-4.5357670866141735
0
LINE
8
BLACK
6
CONTINUOUS
10
6.9353655118110238
20
-4.5357670866141735
11
6.9375800787401571
21
-4.5324527952755904
0
LINE
8
BLACK
6
CONTINUOUS
10
6.9375800787401571
20
-4.5324527952755904
11
6.9381614173228341
21
-4.529530196850394
0
LINE
8
BLACK
6
CONTINUOUS
10
6.9381614173228341
20
-4.529530196850394
11
6.9381613779527553
21
-4.4704698425196847
0
LINE
8
BLACK
6
CONTINUOUS
10
6.9381613779527553
20
-4.4704698425196847
11
6.9381613385826766
21
-4.4704696850393697
0
LINE
8
BLACK
6
CONTINUOUS
10
6.9381613385826766
20
-4.4704696850393697
11
6.9381613385826766
21
-4.4704695275590547
0
LINE
8
BLACK
6
CONTINUOUS
10
6.9381613385826766
20
-4.4704695275590547
11
6.9375800787401571
21
-4.4675472047244096
0
LINE
8
BLACK
6
CONTINUOUS
10
6.9375800787401571
20
-4.4675472047244096
11
6.9373355511811026
21
-4.46718125984252
0
LINE
8
BLACK
6
CONTINUOUS
10
6.9373355511811026
20
-4.46718125984252
11
6.9353655118110238
21
-4.4642329133858265
0
LINE
8
BLACK
6
CONTINUOUS
10
6.9353655118110238
20
-4.4642329133858265
11
6.935365472440945
21
-4.4642328740157478
0
LINE
8
BLACK
6
CONTINUOUS
10
6.935365472440945
20
-4.4642328740157478
11
6.9320512598425195
21
-4.4620183464566932
0
LINE
8
BLACK
6
CONTINUOUS
10
6.9320512598425195
20
-4.4620183464566932
11
6.9291286220472443
21
-4.4614370078740153
0
LINE
8
BLACK
6
CONTINUOUS
10
6.9291286220472443
20
-4.4614370078740153
11
6.8680998425196851
21
-4.4614370078740153
0
LINE
8
BLACK
6
CONTINUOUS
10
6.8680998425196851
20
-4.4614370078740153
11
6.8680994488188976
21
-4.4614370472440941
0
LINE
8
BLACK
6
CONTINUOUS
10
6.8680994488188976
20
-4.4614370472440941
11
6.8651771259842516
21
-4.4620183070866144
0
LINE
8
BLACK
6
CONTINUOUS
10
6.8651771259842516
20
-4.4620183070866144
11
6.8618627952755906
21
-4.4642329133858265
0
LINE
8
BLACK
6
CONTINUOUS
10
6.8618627952755906
20
-4.4642329133858265
11
6.8596482677165351
21
-4.4675471259842521
0
LINE
8
BLACK
6
CONTINUOUS
10
6.8596482677165351
20
-4.4675471259842521
11
6.8590669291338582
21
-4.4704696850393697
0
LINE
8
BLACK
6
CONTINUOUS
10
6.8590669291338582
20
-4.4704696850393697
11
6.8590669291338582
21
-4.5141021653543305
0
LINE
8
BLACK
6
CONTINUOUS
10
7.2559055118110232
20
-4.5397713385826775
11
7.2590477559055113
21
-4.5424080314960626
0
LINE
8
BLACK
6
CONTINUOUS
10
7.2590477559055113
20
-4.5424080314960626
11
7.2610987401574798
21
-4.5459603937007875
0
LINE
8
BLACK
6
CONTINUOUS
10
7.2610987401574798
20
-4.5459603937007875
11
7.2618110236220472
21
-4.5499999999999998
0
LINE
8
BLACK
6
CONTINUOUS
10
7.2618110236220472
20
-4.5499999999999998
11
7.2610987401574798
21
-4.5540396062992121
0
LINE
8
BLACK
6
CONTINUOUS
10
7.2610987401574798
20
-4.5540396062992121
11
7.2590477559055113
21
-4.557591968503937
0
LINE
8
BLACK
6
CONTINUOUS
10
7.2590477559055113
20
-4.557591968503937
11
7.2559055118110232
21
-4.5602286614173231
0
LINE
8
BLACK
6
CONTINUOUS
10
7.2559055118110232
20
-4.5602286614173231
11
7.2520509448818897
21
-4.5616315748031493
0
LINE
8
BLACK
6
CONTINUOUS
10
7.2520509448818897
20
-4.5616315748031493
11
7.2479490551181103
21
-4.5616315748031493
0
LINE
8
BLACK
6
CONTINUOUS
10
7.2479490551181103
20
-4.5616315748031493
11
7.2440944881889759
21
-4.5602286614173231
0
LINE
8
BLACK
6
CONTINUOUS
10
7.2440944881889759
20
-4.5602286614173231
11
7.2409522440944878
21
-4.557591968503937
0
LINE
8
BLACK
6
CONTINUOUS
10
7.2409522440944878
20
-4.557591968503937
11
7.2389012598425193
21
-4.5540396062992121
0
LINE
8
BLACK
6
CONTINUOUS
10
7.2389012598425193
20
-4.5540396062992121
11
7.2381889763779528
21
-4.5499999999999998
0
LINE
8
BLACK
6
CONTINUOUS
10
7.2381889763779528
20
-4.5499999999999998
11
7.2389012598425193
21
-4.5459603937007875
0
LINE
8
BLACK
6
CONTINUOUS
10
7.2389012598425193
20
-4.5459603937007875
11
7.2409522440944878
21
-4.5424080314960626
0
LINE
8
BLACK
6
CONTINUOUS
10
7.2409522440944878
20
-4.5424080314960626
11
7.2440944881889759
21
-4.5397713385826775
0
LINE
8
BLACK
6
CONTINUOUS
10
7.2440944881889759
20
-4.5397713385826775
11
7.2479490551181103
21
-4.5383684251968504
0
LINE
8
BLACK
6
CONTINUOUS
10
7.2479490551181103
20
-4.5383684251968504
11
7.2520509448818897
21
-4.5383684251968504
0
LINE
8
BLACK
6
CONTINUOUS
10
7.2520509448818897
20
-4.5383684251968504
11
7.2559055118110232
21
-4.5397713385826775
0
LINE
8
BLACK
6
CONTINUOUS
10
7.2559055118110232
20
-4.4897713385826767
11
7.2590477559055113
21
-4.4924080314960628
0
LINE
8
BLACK
6
CONTINUOUS
10
7.2590477559055113
20
-4.4924080314960628
11
7.2610987401574798
21
-4.4959603937007877
0
LINE
8
BLACK
6
CONTINUOUS
10
7.2610987401574798
20
-4.4959603937007877
11
7.2618110236220472
21
-4.5
0
LINE
8
BLACK
6
CONTINUOUS
10
7.2618110236220472
20
-4.5
11
7.2610987401574798
21
-4.5040396062992123
0
LINE
8
BLACK
6
CONTINUOUS
10
7.2610987401574798
20
-4.5040396062992123
11
7.2590477559055113
21
-4.5075919685039372
0
LINE
8
BLACK
6
CONTINUOUS
10
7.2590477559055113
20
-4.5075919685039372
11
7.2559055118110232
21
-4.5102286614173224
0
LINE
8
BLACK
6
CONTINUOUS
10
7.2559055118110232
20
-4.5102286614173224
11
7.2520509448818897
21
-4.5116315748031495
0
LINE
8
BLACK
6
CONTINUOUS
10
7.2520509448818897
20
-4.5116315748031495
11
7.2479490551181103
21
-4.5116315748031495
0
LINE
8
BLACK
6
CONTINUOUS
10
7.2479490551181103
20
-4.5116315748031495
11
7.2440944881889759
21
-4.5102286614173224
0
LINE
8
BLACK
6
CONTINUOUS
10
7.2440944881889759
20
-4.5102286614173224
11
7.2409522440944878
21
-4.5075919685039372
0
LINE
8
BLACK
6
CONTINUOUS
10
7.2409522440944878
20
-4.5075919685039372
11
7.2389012598425193
21
-4.5040396062992123
0
LINE
8
BLACK
6
CONTINUOUS
10
7.2389012598425193
20
-4.5040396062992123
11
7.2381889763779528
21
-4.5
0
LINE
8
BLACK
6
CONTINUOUS
10
7.2381889763779528
20
-4.5
11
7.2389012598425193
21
-4.4959603937007877
0
LINE
8
BLACK
6
CONTINUOUS
10
7.2389012598425193
20
-4.4959603937007877
11
7.2409522440944878
21
-4.4924080314960628
0
LINE
8
BLACK
6
CONTINUOUS
10
7.2409522440944878
20
-4.4924080314960628
11
7.2440944881889759
21
-4.4897713385826767
0
LINE
8
BLACK
6
CONTINUOUS
10
7.2440944881889759
20
-4.4897713385826767
11
7.2479490551181103
21
-4.4883684251968505
0
LINE
8
BLACK
6
CONTINUOUS
10
7.2479490551181103
20
-4.4883684251968505
11
7.2520509448818897
21
-4.4883684251968505
0
LINE
8
BLACK
6
CONTINUOUS
10
7.2520509448818897
20
-4.4883684251968505
11
7.2559055118110232
21
-4.4897713385826767
0
LINE
8
BLACK
6
CONTINUOUS
10
7.2559055118110232
20
-4.4397713385826769
11
7.2590477559055113
21
-4.442408031496063
0
LINE
8
BLACK
6
CONTINUOUS
10
7.2590477559055113
20
-4.442408031496063
11
7.2610987401574798
21
-4.445960393700787
0
LINE
8
BLACK
6
CONTINUOUS
10
7.2610987401574798
20
-4.445960393700787
11
7.2618110236220472
21
-4.4500000000000002
0
LINE
8
BLACK
6
CONTINUOUS
10
7.2618110236220472
20
-4.4500000000000002
11
7.2610987401574798
21
-4.4540396062992125
0
LINE
8
BLACK
6
CONTINUOUS
10
7.2610987401574798
20
-4.4540396062992125
11
7.2590477559055113
21
-4.4575919685039365
0
LINE
8
BLACK
6
CONTINUOUS
10
7.2590477559055113
20
-4.4575919685039365
11
7.2559055118110232
21
-4.4602286614173225
0
LINE
8
BLACK
6
CONTINUOUS
10
7.2559055118110232
20
-4.4602286614173225
11
7.2520509448818897
21
-4.4616315748031496
0
LINE
8
BLACK
6
CONTINUOUS
10
7.2520509448818897
20
-4.4616315748031496
11
7.2479490551181103
21
-4.4616315748031496
0
LINE
8
BLACK
6
CONTINUOUS
10
7.2479490551181103
20
-4.4616315748031496
11
7.2440944881889759
21
-4.4602286614173225
0
LINE
8
BLACK
6
CONTINUOUS
10
7.2440944881889759
20
-4.4602286614173225
11
7.2409522440944878
21
-4.4575919685039365
0
LINE
8
BLACK
6
CONTINUOUS
10
7.2409522440944878
20
-4.4575919685039365
11
7.2389012598425193
21
-4.4540396062992125
0
LINE
8
BLACK
6
CONTINUOUS
10
7.2389012598425193
20
-4.4540396062992125
11
7.2381889763779528
21
-4.4500000000000002
0
LINE
8
BLACK
6
CONTINUOUS
10
7.2381889763779528
20
-4.4500000000000002
11
7.2389012598425193
21
-4.445960393700787
0
LINE
8
BLACK
6
CONTINUOUS
10
7.2389012598425193
20
-4.445960393700787
11
7.2409522440944878
21
-4.442408031496063
0
LINE
8
BLACK
6
CONTINUOUS
10
7.2409522440944878
20
-4.442408031496063
11
7.2440944881889759
21
-4.4397713385826769
0
LINE
8
BLACK
6
CONTINUOUS
10
7.2440944881889759
20
-4.4397713385826769
11
7.2479490551181103
21
-4.4383684251968507
0
LINE
8
BLACK
6
CONTINUOUS
10
7.2479490551181103
20
-4.4383684251968507
11
7.2520509448818897
21
-4.4383684251968507
0
LINE
8
BLACK
6
CONTINUOUS
10
7.2520509448818897
20
-4.4383684251968507
11
7.2559055118110232
21
-4.4397713385826769
0
CIRCLE
8
BLACK
10
5.8585826771653542
20
-4.6730708661417326
40
0.0039370078740157
0
CIRCLE
8
BLACK
10
5.8999212598425199
20
-4.6730708661417326
40
0.0039370078740157
0
CIRCLE
8
BLACK
10
5.9412598425196848
20
-4.6730708661417326
40
0.0039370078740157
0
CIRCLE
8
BLACK
10
5.8585826771653542
20
-4.6317322834645669
40
0.0039370078740157
0
CIRCLE
8
BLACK
10
5.8999212598425199
20
-4.6317322834645669
40
0.0039370078740157
0
CIRCLE
8
BLACK
10
5.9412598425196848
20
-4.6317322834645669
40
0.0039370078740157
0
CIRCLE
8
BLACK
10
5.8585826771653542
20
-4.5903937007874012
40
0.0039370078740157
0
CIRCLE
8
BLACK
10
5.8999212598425199
20
-4.5903937007874012
40
0.0039370078740157
0
CIRCLE
8
BLACK
10
5.9412598425196848
20
-4.5903937007874012
40
0.0039370078740157
0
CIRCLE
8
BLACK
10
5.7109448818897635
20
-4.4900000000000002
40
0.0059055118110236
0
CIRCLE
8
BLACK
10
5.6479527559055116
20
-4.4900000000000002
40
0.0059055118110236
0
CIRCLE
8
BLACK
10
5.9588661417322832
20
-5.792755905511811
40
0.0059055118110236
0
CIRCLE
8
BLACK
10
6.0454803149606295
20
-5.8439370078740156
40
0.0059055118110236
0
CIRCLE
8
BLACK
10
6.4500000000000002
20
-4.4749999999999996
40
0.0059055118110236
0
CIRCLE
8
BLACK
10
7.25
20
-4.7000000000000002
40
0.0059055118110236
0
CIRCLE
8
BLACK
10
5.9630000000000001
20
-5.9900000000000002
40
0.0059055118110236
0
CIRCLE
8
BLACK
10
6.4500000000000002
20
-3.9499999999999997
40
0.0059055118110236
0
CIRCLE
8
BLACK
10
6.3700000000000001
20
-4.4850000000000003
40
0.0059055118110236
0
CIRCLE
8
BLACK
10
6.7349999999999994
20
-4.3949999999999996
40
0.0059055118110236
0
CIRCLE
8
BLACK
10
7.25
20
-4.6499999999999995
40
0.0059055118110236
0
CIRCLE
8
BLACK
10
6.1951440944881888
20
-4.6591266535433071
40
0.0059055118110236
0
CIRCLE
8
BLACK
10
7.25
20
-4.5
40
0.0059055118110236
0
CIRCLE
8
BLACK
10
5.7149999999999999
20
-4.8149999999999995
40
0.0059055118110236
0
CIRCLE
8
BLACK
10
6.6499999999999995
20
-4.3949999999999996
40
0.0059055118110236
0
CIRCLE
8
BLACK
10
5.718
20
-5.9900000000000002
40
0.0059055118110236
0
CIRCLE
8
BLACK
10
7.25
20
-4.3499999999999996
40
0.0059055118110236
0
CIRCLE
8
BLACK
10
6.6099999999999994
20
-4.3949999999999996
40
0.0059055118110236
0
CIRCLE
8
BLACK
10
5.6449999999999996
20
-4.2299999999999995
40
0.0059055118110236
0
CIRCLE
8
BLACK
10
5.8330000000000002
20
-5.7949999999999999
40
0.0059055118110236
0
CIRCLE
8
BLACK
10
6.1754015748031499
20
-5.8591338582677164
40
0.0059055118110236
0
CIRCLE
8
BLACK
10
5.8780000000000001
20
-5.9900000000000002
40
0.0059055118110236
0
CIRCLE
8
BLACK
10
6.6299999999999999
20
-4.8200000000000003
40
0.0059055118110236
0
CIRCLE
8
BLACK
10
5.6600000000000001
20
-4.4349999999999996
40
0.0059055118110236
0
CIRCLE
8
BLACK
10
6.0499999999999998
20
-3.9499999999999997
40
0.0059055118110236
0
CIRCLE
8
BLACK
10
6.6600000000000001
20
-4.6049999999999995
40
0.0059055118110236
0
CIRCLE
8
BLACK
10
7.
20
-4.2749999999999995
40
0.0059055118110236
0
CIRCLE
8
BLACK
10
6.6950000000000003
20
-4.3949999999999996
40
0.0059055118110236
0
CIRCLE
8
BLACK
10
6.7749999999999995
20
-5.0499999999999998
40
0.0059055118110236
0
CIRCLE
8
BLACK
10
6.4649999999999999
20
-4.79
40
0.0059055118110236
0
CIRCLE
8
BLACK
10
6.3499999999999996
20
-3.9499999999999997
40
0.0059055118110236
0
CIRCLE
8
BLACK
10
6.7800000000000002
20
-4.3899999999999997
40
0.0059055118110236
0
CIRCLE
8
BLACK
10
6.4249999999999998
20
-5.0499999999999998
40
0.0059055118110236
0
CIRCLE
8
BLACK
10
6.3250000000000002
20
-5.0499999999999998
40
0.0059055118110236
0
CIRCLE
8
BLACK
10
6.6049999999999995
20
-4.5
40
0.0059055118110236
0
CIRCLE
8
BLACK
10
6.0999999999999996
20
-3.9499999999999997
40
0.0059055118110236
0
CIRCLE
8
BLACK
10
6.1579999999999995
20
-5.8000787401574803
40
0.0059055118110236
0
CIRCLE
8
BLACK
10
6.7999999999999998
20
-3.9499999999999997
40
0.0059055118110236
0
CIRCLE
8
BLACK
10
6.2000000000000002
20
-3.9499999999999997
40
0.0059055118110236
0
CIRCLE
8
BLACK
10
6.3999999999999995
20
-4.8999999999999995
40
0.0059055118110236
0
CIRCLE
8
BLACK
10
6.1361417322834644
20
-4.6592913385826771
40
0.0059055118110236
0
CIRCLE
8
BLACK
10
6.1129999999999995
20
-5.9900000000000002
40
0.0059055118110236
0
CIRCLE
8
BLACK
10
6.8549999999999995
20
-4.5249999999999995
40
0.0059055118110236
0
CIRCLE
8
BLACK
10
6.5499999999999998
20
-3.9499999999999997
40
0.0059055118110236
0
CIRCLE
8
BLACK
10
5.9509999999999996
20
-4.8040000000000003
40
0.0059055118110236
0
CIRCLE
8
BLACK
10
7.1499999999999995
20
-4.7249999999999996
40
0.0059055118110236
0
CIRCLE
8
BLACK
10
6.29
20
-4.835
40
0.0059055118110236
0
CIRCLE
8
BLACK
10
6.0179212598425194
20
-5.8163779527559054
40
0.0059055118110236
0
CIRCLE
8
BLACK
10
6.173
20
-5.9050000000000002
40
0.0059055118110236
0
CIRCLE
8
BLACK
10
5.9392913385826773
20
-4.7695275590551178
40
0.0059055118110236
0
CIRCLE
8
BLACK
10
6.125
20
-5.0499999999999998
40
0.0059055118110236
0
CIRCLE
8
BLACK
10
5.8330000000000002
20
-5.9900000000000002
40
0.0059055118110236
0
CIRCLE
8
BLACK
10
6.7249999999999996
20
-5.0499999999999998
40
0.0059055118110236
0
CIRCLE
8
BLACK
10
5.6499999999999995
20
-3.9499999999999997
40
0.0059055118110236
0
CIRCLE
8
BLACK
10
5.7000000000000002
20
-3.9499999999999997
40
0.0059055118110236
0
CIRCLE
8
BLACK
10
5.3499999999999996
20
-4.75
40
0.0059055118110236
0
CIRCLE
8
BLACK
10
6.625
20
-5.0499999999999998
40
0.0059055118110236
0
CIRCLE
8
BLACK
10
6.25
20
-3.9499999999999997
40
0.0059055118110236
0
CIRCLE
8
BLACK
10
6.8049999999999997
20
-4.6049999999999995
40
0.0059055118110236
0
CIRCLE
8
BLACK
10
5.75
20
-3.9499999999999997
40
0.0059055118110236
0
CIRCLE
8
BLACK
10
6.8149999999999995
20
-4.3899999999999997
40
0.0059055118110236
0
CIRCLE
8
BLACK
10
6.6749999999999998
20
-4.7599999999999998
40
0.0059055118110236
0
CIRCLE
8
BLACK
10
7.
20
-3.9499999999999997
40
0.0059055118110236
0
CIRCLE
8
BLACK
10
6.8999999999999995
20
-3.9499999999999997
40
0.0059055118110236
0
CIRCLE
8
BLACK
10
6.9500000000000002
20
-4.2749999999999995
40
0.0059055118110236
0
CIRCLE
8
BLACK
10
5.7850000000000001
20
-4.4349999999999996
40
0.0059055118110236
0
CIRCLE
8
BLACK
10
6.2249999999999996
20
-5.0499999999999998
40
0.0059055118110236
0
CIRCLE
8
BLACK
10
6.6200000000000001
20
-4.6049999999999995
40
0.0059055118110236
0
CIRCLE
8
BLACK
10
6.1499999999999995
20
-3.9499999999999997
40
0.0059055118110236
0
CIRCLE
8
BLACK
10
7.1749999999999998
20
-4.2749999999999995
40
0.0059055118110236
0
CIRCLE
8
BLACK
10
5.8999999999999995
20
-3.9499999999999997
40
0.0059055118110236
0
CIRCLE
8
BLACK
10
6.415
20
-4.5549999999999997
40
0.0059055118110236
0
CIRCLE
8
BLACK
10
6.5999999999999996
20
-3.9499999999999997
40
0.0059055118110236
0
CIRCLE
8
BLACK
10
6.8499999999999996
20
-3.9499999999999997
40
0.0059055118110236
0
CIRCLE
8
BLACK
10
7.2249999999999996
20
-4.7249999999999996
40
0.0059055118110236
0
CIRCLE
8
BLACK
10
5.8625201181102362
20
-4.7695268110236215
40
0.0059055118110236
0
CIRCLE
8
BLACK
10
5.8499999999999996
20
-3.9499999999999997
40
0.0059055118110236
0
CIRCLE
8
BLACK
10
6.7000000000000002
20
-3.9499999999999997
40
0.0059055118110236
0
CIRCLE
8
BLACK
10
6.4900000000000002
20
-4.3949999999999996
40
0.0059055118110236
0
CIRCLE
8
BLACK
10
5.3499999999999996
20
-4.7000000000000002
40
0.0059055118110236
0
CIRCLE
8
BLACK
10
6.3881102362204727
20
-4.6592913385826771
40
0.0059055118110236
0
CIRCLE
8
BLACK
10
6.4749999999999996
20
-5.0499999999999998
40
0.0059055118110236
0
CIRCLE
8
BLACK
10
5.8679999999999994
20
-5.9399999999999995
40
0.0059055118110236
0
CIRCLE
8
BLACK
10
5.3499999999999996
20
-4.5999999999999996
40
0.0059055118110236
0
CIRCLE
8
BLACK
10
7.25
20
-4.5999999999999996
40
0.0059055118110236
0
CIRCLE
8
BLACK
10
6.0999999999999996
20
-4.6592913385826771
40
0.0059055118110236
0
CIRCLE
8
BLACK
10
6.8499999999999996
20
-4.3899999999999997
40
0.0059055118110236
0
CIRCLE
8
BLACK
10
6.8700000000000001
20
-4.4199999999999999
40
0.0059055118110236
0
CIRCLE
8
BLACK
10
6.5249999999999995
20
-5.0499999999999998
40
0.0059055118110236
0
CIRCLE
8
BLACK
10
6.75
20
-3.9499999999999997
40
0.0059055118110236
0
CIRCLE
8
BLACK
10
6.4900000000000002
20
-4.6449999999999996
40
0.0059055118110236
0
CIRCLE
8
BLACK
10
6.7149999999999999
20
-4.6049999999999995
40
0.0059055118110236
0
CIRCLE
8
BLACK
10
6.0750000000000002
20
-5.0499999999999998
40
0.0059055118110236
0
CIRCLE
8
BLACK
10
5.9849999999999994
20
-4.8149999999999995
40
0.0059055118110236
0
CIRCLE
8
BLACK
10
6.0249999999999995
20
-4.5499999999999998
40
0.0059055118110236
0
CIRCLE
8
BLACK
10
6.4511041732283463
20
-4.6592913385826771
40
0.0059055118110236
0
CIRCLE
8
BLACK
10
6.8499999999999996
20
-4.6499999999999995
40
0.0059055118110236
0
CIRCLE
8
BLACK
10
6.375
20
-5.0499999999999998
40
0.0059055118110236
0
CIRCLE
8
BLACK
10
5.8330000000000002
20
-5.875
40
0.0059055118110236
0
CIRCLE
8
BLACK
10
6.0298425196850394
20
-4.7931496062992123
40
0.0059055118110236
0
CIRCLE
8
BLACK
10
6.6499999999999995
20
-3.9499999999999997
40
0.0059055118110236
0
CIRCLE
8
BLACK
10
6.9749999999999996
20
-5.0499999999999998
40
0.0059055118110236
0
CIRCLE
8
BLACK
10
6.8250000000000002
20
-5.0499999999999998
40
0.0059055118110236
0
CIRCLE
8
BLACK
10
5.8549999999999995
20
-4.8099999999999996
40
0.0059055118110236
0
CIRCLE
8
BLACK
10
6.3251181102362199
20
-4.6592913385826771
40
0.0059055118110236
0
CIRCLE
8
BLACK
10
5.8330000000000002
20
-5.9249999999999998
40
0.0059055118110236
0
CIRCLE
8
BLACK
10
6.5
20
-3.9499999999999997
40
0.0059055118110236
0
CIRCLE
8
BLACK
10
5.7999999999999998
20
-4.7999999999999998
40
0.0059055118110236
0
CIRCLE
8
BLACK
10
5.7503149606299209
20
-4.6829133858267715
40
0.0059055118110236
0
CIRCLE
8
BLACK
10
6.9249999999999998
20
-4.7249999999999996
40
0.0059055118110236
0
CIRCLE
8
BLACK
10
6.3999999999999995
20
-3.9499999999999997
40
0.0059055118110236
0
CIRCLE
8
BLACK
10
7.25
20
-4.4500000000000002
40
0.0059055118110236
0
CIRCLE
8
BLACK
10
6.3399999999999999
20
-4.835
40
0.0059055118110236
0
CIRCLE
8
BLACK
10
7.25
20
-4.25
40
0.0059055118110236
0
CIRCLE
8
BLACK
10
6.7599999999999998
20
-4.6049999999999995
40
0.0059055118110236
0
CIRCLE
8
BLACK
10
7.0750000000000002
20
-4.6749999999999998
40
0.0059055118110236
0
CIRCLE
8
BLACK
10
7.0499999999999998
20
-4.7249999999999996
40
0.0059055118110236
0
CIRCLE
8
BLACK
10
6.5549999999999997
20
-4.7699999999999996
40
0.0059055118110236
0
CIRCLE
8
BLACK
10
6.2999999999999998
20
-3.9499999999999997
40
0.0059055118110236
0
CIRCLE
8
BLACK
10
6.2000000000000002
20
-4.835
40
0.0059055118110236
0
CIRCLE
8
BLACK
10
5.9500000000000002
20
-3.9499999999999997
40
0.0059055118110236
0
CIRCLE
8
BLACK
10
6.4649999999999999
20
-4.835
40
0.0059055118110236
0
CIRCLE
8
BLACK
10
6.6749999999999998
20
-4.8200000000000003
40
0.0059055118110236
0
CIRCLE
8
BLACK
10
6.5800000000000001
20
-4.6049999999999995
40
0.0059055118110236
0
CIRCLE
8
BLACK
10
7.25
20
-4.5499999999999998
40
0.0059055118110236
0
CIRCLE
8
BLACK
10
6.7450000000000001
20
-4.5
40
0.0059055118110236
0
CIRCLE
8
BLACK
10
5.9942992125984249
20
-5.8439370078740156
40
0.0059055118110236
0
CIRCLE
8
BLACK
10
6.3399999999999999
20
-4.8999999999999995
40
0.0059055118110236
0
CIRCLE
8
BLACK
10
6.6699999999999999
20
-4.6449999999999996
40
0.0059055118110236
0
CIRCLE
8
BLACK
10
5.923
20
-5.9900000000000002
40
0.0059055118110236
0
CIRCLE
8
BLACK
10
6.1505511811023617
20
-4.5199999999999996
40
0.0059055118110236
0
CIRCLE
8
BLACK
10
6.7050000000000001
20
-4.5
40
0.0059055118110236
0
CIRCLE
8
BLACK
10
7.25
20
-4.75
40
0.0059055118110236
0
CIRCLE
8
BLACK
10
6.9249999999999998
20
-5.0499999999999998
40
0.0059055118110236
0
CIRCLE
8
BLACK
10
6.6749999999999998
20
-5.0499999999999998
40
0.0059055118110236
0
CIRCLE
8
BLACK
10
6.5049999999999999
20
-4.7699999999999996
40
0.0059055118110236
0
CIRCLE
8
BLACK
10
6.875
20
-4.7249999999999996
40
0.0059055118110236
0
CIRCLE
8
BLACK
10
5.9391811023622045
20
-5.9226771653543304
40
0.0059055118110236
0
CIRCLE
8
BLACK
10
6.1429999999999998
20
-5.9450000000000003
40
0.0059055118110236
0
CIRCLE
8
BLACK
10
5.3650000000000002
20
-4.2249999999999996
40
0.0059055118110236
0
CIRCLE
8
BLACK
10
7.25
20
-4.2999999999999998
40
0.0059055118110236
0
CIRCLE
8
BLACK
10
6.
20
-3.9499999999999997
40
0.0059055118110236
0
CIRCLE
8
BLACK
10
5.7149999999999999
20
-4.4349999999999996
40
0.0059055118110236
0
CIRCLE
8
BLACK
10
6.5750000000000002
20
-5.0499999999999998
40
0.0059055118110236
0
CIRCLE
8
BLACK
10
6.2621259842519681
20
-4.6592913385826771
40
0.0059055118110236
0
CIRCLE
8
BLACK
10
6.8549999999999995
20
-4.6049999999999995
40
0.0059055118110236
0
CIRCLE
8
BLACK
10
6.9500000000000002
20
-3.9499999999999997
40
0.0059055118110236
0
CIRCLE
8
BLACK
10
6.2749999999999995
20
-5.0499999999999998
40
0.0059055118110236
0
CIRCLE
8
BLACK
10
6.008
20
-5.9900000000000002
40
0.0059055118110236
0
CIRCLE
8
BLACK
10
7.125
20
-4.2749999999999995
40
0.0059055118110236
0
CIRCLE
8
BLACK
10
6.4699999999999998
20
-4.8999999999999995
40
0.0059055118110236
0
CIRCLE
8
BLACK
10
5.7679999999999998
20
-5.9900000000000002
40
0.0059055118110236
0
CIRCLE
8
BLACK
10
5.7999999999999998
20
-3.9499999999999997
40
0.0059055118110236
0
CIRCLE
8
BLACK
10
6.5350000000000001
20
-4.3949999999999996
40
0.0059055118110236
0
CIRCLE
8
BLACK
10
6.8899999999999997
20
-4.5300000000000002
40
0.0059055118110236
0
CIRCLE
8
BLACK
10
5.3499999999999996
20
-4.6499999999999995
40
0.0059055118110236
0
CIRCLE
8
BLACK
10
7.
20
-4.7249999999999996
40
0.0059055118110236
0
CIRCLE
8
BLACK
10
5.585
20
-4.2350000000000003
40
0.0059055118110236
0
CIRCLE
8
BLACK
10
6.4500000000000002
20
-4.3949999999999996
40
0.0059055118110236
0
CIRCLE
8
BLACK
10
5.6550000000000002
20
-4.7999999999999998
40
0.0059055118110236
0
CIRCLE
8
BLACK
10
6.2450000000000001
20
-4.835
40
0.0059055118110236
0
CIRCLE
8
BLACK
10
6.8499999999999996
20
-4.7000000000000002
40
0.0059055118110236
0
CIRCLE
8
BLACK
10
6.54
20
-4.4850000000000003
40
0.0059055118110236
0
CIRCLE
8
BLACK
10
5.8330000000000002
20
-5.835
40
0.0059055118110236
0
CIRCLE
8
BLACK
10
6.1749999999999998
20
-5.0499999999999998
40
0.0059055118110236
0
CIRCLE
8
BLACK
10
6.5800000000000001
20
-4.8200000000000003
40
0.0059055118110236
0
CIRCLE
8
BLACK
10
7.0499999999999998
20
-4.3499999999999996
40
0.0059055118110236
0
CIRCLE
8
BLACK
10
6.0579999999999998
20
-5.9900000000000002
40
0.0059055118110236
0
CIRCLE
8
BLACK
10
5.75
20
-4.7999999999999998
40
0.0059055118110236
0
CIRCLE
8
BLACK
10
6.6749999999999998
20
-4.6899999999999995
40
0.0059055118110236
0
CIRCLE
8
BLACK
10
6.4500000000000002
20
-4.4349999999999996
40
0.0059055118110236
0
CIRCLE
8
BLACK
10
7.25
20
-4.3999999999999995
40
0.0059055118110236
0
CIRCLE
8
BLACK
10
6.875
20
-5.0499999999999998
40
0.0059055118110236
0
CIRCLE
8
BLACK
10
7.25
20
-4.2000000000000002
40
0.0059055118110236
0
CIRCLE
8
BLACK
10
5.6099999999999994
20
-4.4349999999999996
40
0.0059055118110236
0
CIRCLE
8
BLACK
10
6.5750000000000002
20
-4.5449999999999999
40
0.0059055118110236
0
CIRCLE
8
BLACK
10
6.5099999999999998
20
-4.3399999999999999
40
0.0059055118110236
0
CIRCLE
8
BLACK
10
5.4307086614173228
20
-4.3307086614173231
40
0.0059055118110236
0
CIRCLE
8
BLACK
10
5.9786614173228347
20
-4.7695275590551178
40
0.0059055118110236
0
CIRCLE
8
BLACK
10
5.7818110236220468
20
-4.6120472440944882
40
0.0059055118110236
0
CIRCLE
8
BLACK
10
6.0769763779527555
20
-5.792755905511811
40
0.0059055118110236
0
CIRCLE
8
BLACK
10
6.6600000000000001
20
-4.3399999999999999
40
0.0059055118110236
0
CIRCLE
8
BLACK
10
6.3599999999999994
20
-4.3106330708661416
40
0.0059055118110236
0
CIRCLE
8
BLACK
10
5.7503149606299209
20
-4.4781907874015747
40
0.0059055118110236
0
CIRCLE
8
BLACK
10
5.8228944488188974
20
-4.7695275590551178
40
0.0059055118110236
0
CIRCLE
8
BLACK
10
6.4100000000000001
20
-4.3949999999999996
40
0.0059055118110236
0
CIRCLE
8
BLACK
10
6.4450000000000003
20
-4.5249999999999995
40
0.0059055118110236
  0
ENDSEC
  0
EOF
