  0
SECTION
  2
HEADER
  9
$ANGBASE
  50
0.0
  9
$ANGDIR
  70
1
  9
$MEASUREMENT
  70
0
  0
ENDSEC
  0
SECTION
  2
TABLES
  0
TABLE
  2
LTYPE
  70
4
  0
LTYPE
  5
40F
  2
CONTINUOUS
  70
0
  3
Solid line
  72
65
  73
0
  40
0.0
  0
LTYPE
  5
410
  2
DASHDOT
 70
0
  3
Dash Dot ____ _ ____ _
 72
65
 73
4
 40
2.0
 49
1.25
 49
-0.25
 49
0.25
 49
-0.25
  0
LTYPE
  5
411
  2
DASHED
 70
0
  3
Dashed __ __ __ __ __
 72
65
 73
2
 40
0.75
 49
0.5
 49
-0.25
  0
LTYPE
  5
43B
  2
DOTTED
 70
0
  3
Dotted .  .  .  .
 72
65
 73
2
 40
0.2
 49
0.0
 49
-0.2
  0
ENDTAB
  0
TABLE
  2
STYLE
  70
4
  0
STYLE
  2
KICAD
  70
0
  40
0
  41
1
  42
1
  50
0
  71
0
  3
isocp.shx
  0
STYLE
  2
KICADB
  70
0
  40
0
  41
1
  42
1
  50
0
  71
0
  3
isocp.shx
  0
STYLE
  2
KICADI
  70
0
  40
0
  41
1
  42
1
  50
15
  71
0
  3
isocp.shx
  0
STYLE
  2
KICADBI
  70
0
  40
0
  41
1
  42
1
  50
15
  71
0
  3
isocp.shx
  0
ENDTAB
  0
TABLE
  2
LAYER
  70
1
  0
LAYER
  2
BLACK
  70
0
  62
7
  6
CONTINUOUS
  0
ENDTAB
  0
ENDSEC
  0
SECTION
  2
ENTITIES
0
LINE
8
BLACK
6
CONTINUOUS
10
6.051116811023622
20
-4.8591615354330706
11
6.0516494881889766
21
-4.8596942125984253
0
LINE
8
BLACK
6
CONTINUOUS
10
6.0516494881889766
20
-4.8596942125984253
11
6.051724409448819
21
-4.860070866141732
0
LINE
8
BLACK
6
CONTINUOUS
10
6.051724409448819
20
-4.860070866141732
11
6.051724409448819
21
-4.9939291338582672
0
LINE
8
BLACK
6
CONTINUOUS
10
6.051724409448819
20
-4.9939291338582672
11
6.0516494881889766
21
-4.9943057874015748
0
LINE
8
BLACK
6
CONTINUOUS
10
6.0516494881889766
20
-4.9943057874015748
11
6.051116811023622
21
-4.9948384645669286
0
LINE
8
BLACK
6
CONTINUOUS
10
6.051116811023622
20
-4.9948384645669286
11
6.0507401574803152
21
-4.9949133858267718
0
LINE
8
BLACK
6
CONTINUOUS
10
6.0507401574803152
20
-4.9949133858267718
11
5.8932598425196847
21
-4.9949133858267718
0
LINE
8
BLACK
6
CONTINUOUS
10
5.8932598425196847
20
-4.9949133858267718
11
5.892883188976378
21
-4.9948384645669286
0
LINE
8
BLACK
6
CONTINUOUS
10
5.892883188976378
20
-4.9948384645669286
11
5.8923505118110233
21
-4.9943057874015748
0
LINE
8
BLACK
6
CONTINUOUS
10
5.8923505118110233
20
-4.9943057874015748
11
5.892275590551181
21
-4.9939291338582672
0
LINE
8
BLACK
6
CONTINUOUS
10
5.892275590551181
20
-4.9939291338582672
11
5.892275590551181
21
-4.860070866141732
0
LINE
8
BLACK
6
CONTINUOUS
10
5.892275590551181
20
-4.860070866141732
11
5.8923505118110233
21
-4.8596942125984253
0
LINE
8
BLACK
6
CONTINUOUS
10
5.8923505118110233
20
-4.8596942125984253
11
5.892883188976378
21
-4.8591615354330706
0
LINE
8
BLACK
6
CONTINUOUS
10
5.892883188976378
20
-4.8591615354330706
11
5.8932598425196847
21
-4.8590866141732283
0
LINE
8
BLACK
6
CONTINUOUS
10
5.8932598425196847
20
-4.8590866141732283
11
6.0507401574803152
21
-4.8590866141732283
0
LINE
8
BLACK
6
CONTINUOUS
10
6.0507401574803152
20
-4.8590866141732283
11
6.051116811023622
21
-4.8591615354330706
0
LINE
8
BLACK
6
CONTINUOUS
10
5.8942440944881884
20
-4.8610551181102357
11
5.8942440944881884
21
-4.9929448818897635
0
LINE
8
BLACK
6
CONTINUOUS
10
5.8942440944881884
20
-4.9929448818897635
11
6.0497559055118106
21
-4.9929448818897635
0
LINE
8
BLACK
6
CONTINUOUS
10
6.0497559055118106
20
-4.9929448818897635
11
6.0497559055118106
21
-4.8610551181102357
0
LINE
8
BLACK
6
CONTINUOUS
10
6.0497559055118106
20
-4.8610551181102357
11
5.8942440944881884
21
-4.8610551181102357
0
LINE
8
BLACK
6
CONTINUOUS
10
6.1191168110236216
20
-4.8458229527559054
11
6.1196494881889762
21
-4.84635562992126
0
LINE
8
BLACK
6
CONTINUOUS
10
6.1196494881889762
20
-4.84635562992126
11
6.1197244094488186
21
-4.8467322834645667
0
LINE
8
BLACK
6
CONTINUOUS
10
6.1197244094488186
20
-4.8467322834645667
11
6.1197244094488186
21
-4.9632677165354329
0
LINE
8
BLACK
6
CONTINUOUS
10
6.1197244094488186
20
-4.9632677165354329
11
6.1196494881889762
21
-4.9636443700787405
0
LINE
8
BLACK
6
CONTINUOUS
10
6.1196494881889762
20
-4.9636443700787405
11
6.1191168110236216
21
-4.9641770472440943
0
LINE
8
BLACK
6
CONTINUOUS
10
6.1191168110236216
20
-4.9641770472440943
11
6.1187401574803149
21
-4.9642519685039366
0
LINE
8
BLACK
6
CONTINUOUS
10
6.1187401574803149
20
-4.9642519685039366
11
6.0612598425196849
21
-4.9642519685039366
0
LINE
8
BLACK
6
CONTINUOUS
10
6.0612598425196849
20
-4.9642519685039366
11
6.0608831889763781
21
-4.9641770472440943
0
LINE
8
BLACK
6
CONTINUOUS
10
6.0608831889763781
20
-4.9641770472440943
11
6.0603505118110235
21
-4.9636443700787405
0
LINE
8
BLACK
6
CONTINUOUS
10
6.0603505118110235
20
-4.9636443700787405
11
6.0602755905511811
21
-4.9632677165354329
0
LINE
8
BLACK
6
CONTINUOUS
10
6.0602755905511811
20
-4.9632677165354329
11
6.0602755905511811
21
-4.8467322834645667
0
LINE
8
BLACK
6
CONTINUOUS
10
6.0602755905511811
20
-4.8467322834645667
11
6.0603505118110235
21
-4.84635562992126
0
LINE
8
BLACK
6
CONTINUOUS
10
6.0603505118110235
20
-4.84635562992126
11
6.0608831889763781
21
-4.8458229527559054
0
LINE
8
BLACK
6
CONTINUOUS
10
6.0608831889763781
20
-4.8458229527559054
11
6.0612598425196849
21
-4.845748031496063
0
LINE
8
BLACK
6
CONTINUOUS
10
6.0612598425196849
20
-4.845748031496063
11
6.1187401574803149
21
-4.845748031496063
0
LINE
8
BLACK
6
CONTINUOUS
10
6.1187401574803149
20
-4.845748031496063
11
6.1191168110236216
21
-4.8458229527559054
0
LINE
8
BLACK
6
CONTINUOUS
10
6.0622440944881886
20
-4.8477165354330705
11
6.0622440944881886
21
-4.9622834645669291
0
LINE
8
BLACK
6
CONTINUOUS
10
6.0622440944881886
20
-4.9622834645669291
11
6.1177559055118111
21
-4.9622834645669291
0
LINE
8
BLACK
6
CONTINUOUS
10
6.1177559055118111
20
-4.9622834645669291
11
6.1177559055118111
21
-4.8477165354330705
0
LINE
8
BLACK
6
CONTINUOUS
10
6.1177559055118111
20
-4.8477165354330705
11
6.0622440944881886
21
-4.8477165354330705
0
LINE
8
BLACK
6
CONTINUOUS
10
5.8044975196850395
20
-4.8325668110236215
11
5.804816850393701
21
-4.8327801574803146
0
LINE
8
BLACK
6
CONTINUOUS
10
5.804816850393701
20
-4.8327801574803146
11
5.8872198425196851
21
-4.9151831496062988
0
LINE
8
BLACK
6
CONTINUOUS
10
5.8872198425196851
20
-4.9151831496062988
11
5.8874331889763782
21
-4.9155024803149603
0
LINE
8
BLACK
6
CONTINUOUS
10
5.8874331889763782
20
-4.9155024803149603
11
5.8874331889763782
21
-4.9162557874015747
0
LINE
8
BLACK
6
CONTINUOUS
10
5.8874331889763782
20
-4.9162557874015747
11
5.8872198425196851
21
-4.9165751181102362
0
LINE
8
BLACK
6
CONTINUOUS
10
5.8872198425196851
20
-4.9165751181102362
11
5.8465751181102359
21
-4.9572198425196845
0
LINE
8
BLACK
6
CONTINUOUS
10
5.8465751181102359
20
-4.9572198425196845
11
5.8462557874015744
21
-4.9574331889763776
0
LINE
8
BLACK
6
CONTINUOUS
10
5.8462557874015744
20
-4.9574331889763776
11
5.8455024803149609
21
-4.9574331889763776
0
LINE
8
BLACK
6
CONTINUOUS
10
5.8455024803149609
20
-4.9574331889763776
11
5.8451831496062994
21
-4.9572198425196845
0
LINE
8
BLACK
6
CONTINUOUS
10
5.8451831496062994
20
-4.9572198425196845
11
5.7627801574803152
21
-4.8748168503937004
0
LINE
8
BLACK
6
CONTINUOUS
10
5.7627801574803152
20
-4.8748168503937004
11
5.7625668110236221
21
-4.8744975196850389
0
LINE
8
BLACK
6
CONTINUOUS
10
5.7625668110236221
20
-4.8744975196850389
11
5.7625668110236221
21
-4.8737442125984254
0
LINE
8
BLACK
6
CONTINUOUS
10
5.7625668110236221
20
-4.8737442125984254
11
5.7627801574803152
21
-4.8734248818897639
0
LINE
8
BLACK
6
CONTINUOUS
10
5.7627801574803152
20
-4.8734248818897639
11
5.8034248818897636
21
-4.8327801574803146
0
LINE
8
BLACK
6
CONTINUOUS
10
5.8034248818897636
20
-4.8327801574803146
11
5.8037442125984251
21
-4.8325668110236215
0
LINE
8
BLACK
6
CONTINUOUS
10
5.8037442125984251
20
-4.8325668110236215
11
5.8044975196850395
21
-4.8325668110236215
0
LINE
8
BLACK
6
CONTINUOUS
10
5.76486811023622
20
-4.8741208661417321
11
5.8458791338582676
21
-4.9551318897637797
0
LINE
8
BLACK
6
CONTINUOUS
10
5.8458791338582676
20
-4.9551318897637797
11
5.8851318897637794
21
-4.9158791338582679
0
LINE
8
BLACK
6
CONTINUOUS
10
5.8851318897637794
20
-4.9158791338582679
11
5.8041208661417318
21
-4.8348681102362203
0
LINE
8
BLACK
6
CONTINUOUS
10
5.8041208661417318
20
-4.8348681102362203
11
5.76486811023622
21
-4.8741208661417321
0
LINE
8
BLACK
6
CONTINUOUS
10
5.5644514566929129
20
-4.8431851574803151
11
5.5649841338582675
21
-4.8437178346456689
0
LINE
8
BLACK
6
CONTINUOUS
10
5.5649841338582675
20
-4.8437178346456689
11
5.5650590551181098
21
-4.8440944881889765
0
LINE
8
BLACK
6
CONTINUOUS
10
5.5650590551181098
20
-4.8440944881889765
11
5.5650590551181098
21
-4.9212598425196852
0
LINE
8
BLACK
6
CONTINUOUS
10
5.5650590551181098
20
-4.9212598425196852
11
5.5649841338582675
21
-4.9216364960629919
0
LINE
8
BLACK
6
CONTINUOUS
10
5.5649841338582675
20
-4.9216364960629919
11
5.5644514566929129
21
-4.9221691732283466
0
LINE
8
BLACK
6
CONTINUOUS
10
5.5644514566929129
20
-4.9221691732283466
11
5.5640748031496061
21
-4.9222440944881889
0
LINE
8
BLACK
6
CONTINUOUS
10
5.5640748031496061
20
-4.9222440944881889
11
5.4302165354330709
21
-4.9222440944881889
0
LINE
8
BLACK
6
CONTINUOUS
10
5.4302165354330709
20
-4.9222440944881889
11
5.4298398818897633
21
-4.9221691732283466
0
LINE
8
BLACK
6
CONTINUOUS
10
5.4298398818897633
20
-4.9221691732283466
11
5.4293072047244095
21
-4.9216364960629919
0
LINE
8
BLACK
6
CONTINUOUS
10
5.4293072047244095
20
-4.9216364960629919
11
5.4292322834645672
21
-4.9212598425196852
0
LINE
8
BLACK
6
CONTINUOUS
10
5.4292322834645672
20
-4.9212598425196852
11
5.4292322834645672
21
-4.8440944881889765
0
LINE
8
BLACK
6
CONTINUOUS
10
5.4292322834645672
20
-4.8440944881889765
11
5.4293072047244095
21
-4.8437178346456689
0
LINE
8
BLACK
6
CONTINUOUS
10
5.4293072047244095
20
-4.8437178346456689
11
5.4298398818897633
21
-4.8431851574803151
0
LINE
8
BLACK
6
CONTINUOUS
10
5.4298398818897633
20
-4.8431851574803151
11
5.4302165354330709
21
-4.8431102362204728
0
LINE
8
BLACK
6
CONTINUOUS
10
5.4302165354330709
20
-4.8431102362204728
11
5.5640748031496061
21
-4.8431102362204728
0
LINE
8
BLACK
6
CONTINUOUS
10
5.5640748031496061
20
-4.8431102362204728
11
5.5644514566929129
21
-4.8431851574803151
0
LINE
8
BLACK
6
CONTINUOUS
10
5.4312007874015746
20
-4.8450787401574802
11
5.4312007874015746
21
-4.9202755905511806
0
LINE
8
BLACK
6
CONTINUOUS
10
5.4312007874015746
20
-4.9202755905511806
11
5.5630905511811024
21
-4.9202755905511806
0
LINE
8
BLACK
6
CONTINUOUS
10
5.5630905511811024
20
-4.9202755905511806
11
5.5630905511811024
21
-4.8450787401574802
0
LINE
8
BLACK
6
CONTINUOUS
10
5.5630905511811024
20
-4.8450787401574802
11
5.4312007874015746
21
-4.8450787401574802
0
LINE
8
BLACK
6
CONTINUOUS
10
5.901255787401575
20
-4.7475668110236215
11
5.9015751181102365
21
-4.7477801574803147
0
LINE
8
BLACK
6
CONTINUOUS
10
5.9015751181102365
20
-4.7477801574803147
11
5.9422198425196848
21
-4.7884248818897639
0
LINE
8
BLACK
6
CONTINUOUS
10
5.9422198425196848
20
-4.7884248818897639
11
5.942433188976378
21
-4.7887442125984254
0
LINE
8
BLACK
6
CONTINUOUS
10
5.942433188976378
20
-4.7887442125984254
11
5.942433188976378
21
-4.7894975196850389
0
LINE
8
BLACK
6
CONTINUOUS
10
5.942433188976378
20
-4.7894975196850389
11
5.9422198425196848
21
-4.7898168503937004
0
LINE
8
BLACK
6
CONTINUOUS
10
5.9422198425196848
20
-4.7898168503937004
11
5.8598168503937007
21
-4.8722198425196845
0
LINE
8
BLACK
6
CONTINUOUS
10
5.8598168503937007
20
-4.8722198425196845
11
5.8594975196850392
21
-4.8724331889763777
0
LINE
8
BLACK
6
CONTINUOUS
10
5.8594975196850392
20
-4.8724331889763777
11
5.8587442125984248
21
-4.8724331889763777
0
LINE
8
BLACK
6
CONTINUOUS
10
5.8587442125984248
20
-4.8724331889763777
11
5.8584248818897633
21
-4.8722198425196845
0
LINE
8
BLACK
6
CONTINUOUS
10
5.8584248818897633
20
-4.8722198425196845
11
5.817780157480315
21
-4.8315751181102362
0
LINE
8
BLACK
6
CONTINUOUS
10
5.817780157480315
20
-4.8315751181102362
11
5.8175668110236218
21
-4.8312557874015747
0
LINE
8
BLACK
6
CONTINUOUS
10
5.8175668110236218
20
-4.8312557874015747
11
5.8175668110236218
21
-4.8305024803149603
0
LINE
8
BLACK
6
CONTINUOUS
10
5.8175668110236218
20
-4.8305024803149603
11
5.817780157480315
21
-4.8301831496062988
0
LINE
8
BLACK
6
CONTINUOUS
10
5.817780157480315
20
-4.8301831496062988
11
5.9001831496062991
21
-4.7477801574803147
0
LINE
8
BLACK
6
CONTINUOUS
10
5.9001831496062991
20
-4.7477801574803147
11
5.9005024803149606
21
-4.7475668110236215
0
LINE
8
BLACK
6
CONTINUOUS
10
5.9005024803149606
20
-4.7475668110236215
11
5.901255787401575
21
-4.7475668110236215
0
LINE
8
BLACK
6
CONTINUOUS
10
5.8198681102362206
20
-4.8308791338582679
11
5.8591208661417324
21
-4.8701318897637798
0
LINE
8
BLACK
6
CONTINUOUS
10
5.8591208661417324
20
-4.8701318897637798
11
5.9401318897637791
21
-4.7891208661417322
0
LINE
8
BLACK
6
CONTINUOUS
10
5.9401318897637791
20
-4.7891208661417322
11
5.9008791338582673
21
-4.7498681102362204
0
LINE
8
BLACK
6
CONTINUOUS
10
5.9008791338582673
20
-4.7498681102362204
11
5.8198681102362206
21
-4.8308791338582679
0
LINE
8
BLACK
6
CONTINUOUS
10
6.0091168110236222
20
-4.735822952755905
11
6.0096494881889759
21
-4.7363556299212597
0
LINE
8
BLACK
6
CONTINUOUS
10
6.0096494881889759
20
-4.7363556299212597
11
6.0097244094488191
21
-4.7367322834645664
0
LINE
8
BLACK
6
CONTINUOUS
10
6.0097244094488191
20
-4.7367322834645664
11
6.0097244094488191
21
-4.8532677165354325
0
LINE
8
BLACK
6
CONTINUOUS
10
6.0097244094488191
20
-4.8532677165354325
11
6.0096494881889759
21
-4.8536443700787402
0
LINE
8
BLACK
6
CONTINUOUS
10
6.0096494881889759
20
-4.8536443700787402
11
6.0091168110236222
21
-4.8541770472440939
0
LINE
8
BLACK
6
CONTINUOUS
10
6.0091168110236222
20
-4.8541770472440939
11
6.0087401574803145
21
-4.8542519685039371
0
LINE
8
BLACK
6
CONTINUOUS
10
6.0087401574803145
20
-4.8542519685039371
11
5.9512598425196845
21
-4.8542519685039371
0
LINE
8
BLACK
6
CONTINUOUS
10
5.9512598425196845
20
-4.8542519685039371
11
5.9508831889763778
21
-4.8541770472440939
0
LINE
8
BLACK
6
CONTINUOUS
10
5.9508831889763778
20
-4.8541770472440939
11
5.9503505118110231
21
-4.8536443700787402
0
LINE
8
BLACK
6
CONTINUOUS
10
5.9503505118110231
20
-4.8536443700787402
11
5.9502755905511808
21
-4.8532677165354325
0
LINE
8
BLACK
6
CONTINUOUS
10
5.9502755905511808
20
-4.8532677165354325
11
5.9502755905511808
21
-4.7367322834645664
0
LINE
8
BLACK
6
CONTINUOUS
10
5.9502755905511808
20
-4.7367322834645664
11
5.9503505118110231
21
-4.7363556299212597
0
LINE
8
BLACK
6
CONTINUOUS
10
5.9503505118110231
20
-4.7363556299212597
11
5.9508831889763778
21
-4.735822952755905
0
LINE
8
BLACK
6
CONTINUOUS
10
5.9508831889763778
20
-4.735822952755905
11
5.9512598425196845
21
-4.7357480314960627
0
LINE
8
BLACK
6
CONTINUOUS
10
5.9512598425196845
20
-4.7357480314960627
11
6.0087401574803145
21
-4.7357480314960627
0
LINE
8
BLACK
6
CONTINUOUS
10
6.0087401574803145
20
-4.7357480314960627
11
6.0091168110236222
21
-4.735822952755905
0
LINE
8
BLACK
6
CONTINUOUS
10
5.9522440944881891
20
-4.737716535433071
11
5.9522440944881891
21
-4.8522834645669288
0
LINE
8
BLACK
6
CONTINUOUS
10
5.9522440944881891
20
-4.8522834645669288
11
6.0077559055118108
21
-4.8522834645669288
0
LINE
8
BLACK
6
CONTINUOUS
10
6.0077559055118108
20
-4.8522834645669288
11
6.0077559055118108
21
-4.737716535433071
0
LINE
8
BLACK
6
CONTINUOUS
10
6.0077559055118108
20
-4.737716535433071
11
5.9522440944881891
21
-4.737716535433071
0
LINE
8
BLACK
6
CONTINUOUS
10
6.0691168110236218
20
-4.7258229527559052
11
6.0696494881889764
21
-4.7263556299212599
0
LINE
8
BLACK
6
CONTINUOUS
10
6.0696494881889764
20
-4.7263556299212599
11
6.0697244094488187
21
-4.7267322834645666
0
LINE
8
BLACK
6
CONTINUOUS
10
6.0697244094488187
20
-4.7267322834645666
11
6.0697244094488187
21
-4.8432677165354328
0
LINE
8
BLACK
6
CONTINUOUS
10
6.0697244094488187
20
-4.8432677165354328
11
6.0696494881889764
21
-4.8436443700787404
0
LINE
8
BLACK
6
CONTINUOUS
10
6.0696494881889764
20
-4.8436443700787404
11
6.0691168110236218
21
-4.8441770472440941
0
LINE
8
BLACK
6
CONTINUOUS
10
6.0691168110236218
20
-4.8441770472440941
11
6.068740157480315
21
-4.8442519685039365
0
LINE
8
BLACK
6
CONTINUOUS
10
6.068740157480315
20
-4.8442519685039365
11
6.011259842519685
21
-4.8442519685039365
0
LINE
8
BLACK
6
CONTINUOUS
10
6.011259842519685
20
-4.8442519685039365
11
6.0108831889763774
21
-4.8441770472440941
0
LINE
8
BLACK
6
CONTINUOUS
10
6.0108831889763774
20
-4.8441770472440941
11
6.0103505118110236
21
-4.8436443700787404
0
LINE
8
BLACK
6
CONTINUOUS
10
6.0103505118110236
20
-4.8436443700787404
11
6.0102755905511813
21
-4.8432677165354328
0
LINE
8
BLACK
6
CONTINUOUS
10
6.0102755905511813
20
-4.8432677165354328
11
6.0102755905511813
21
-4.7267322834645666
0
LINE
8
BLACK
6
CONTINUOUS
10
6.0102755905511813
20
-4.7267322834645666
11
6.0103505118110236
21
-4.7263556299212599
0
LINE
8
BLACK
6
CONTINUOUS
10
6.0103505118110236
20
-4.7263556299212599
11
6.0108831889763774
21
-4.7258229527559052
0
LINE
8
BLACK
6
CONTINUOUS
10
6.0108831889763774
20
-4.7258229527559052
11
6.011259842519685
21
-4.7257480314960629
0
LINE
8
BLACK
6
CONTINUOUS
10
6.011259842519685
20
-4.7257480314960629
11
6.068740157480315
21
-4.7257480314960629
0
LINE
8
BLACK
6
CONTINUOUS
10
6.068740157480315
20
-4.7257480314960629
11
6.0691168110236218
21
-4.7258229527559052
0
LINE
8
BLACK
6
CONTINUOUS
10
6.0122440944881888
20
-4.7277165354330704
11
6.0122440944881888
21
-4.842283464566929
0
LINE
8
BLACK
6
CONTINUOUS
10
6.0122440944881888
20
-4.842283464566929
11
6.0677559055118113
21
-4.842283464566929
0
LINE
8
BLACK
6
CONTINUOUS
10
6.0677559055118113
20
-4.842283464566929
11
6.0677559055118113
21
-4.7277165354330704
0
LINE
8
BLACK
6
CONTINUOUS
10
6.0677559055118113
20
-4.7277165354330704
11
6.0122440944881888
21
-4.7277165354330704
0
LINE
8
BLACK
6
CONTINUOUS
10
6.1291168110236223
20
-4.7258229527559052
11
6.129649488188976
21
-4.7263556299212599
0
LINE
8
BLACK
6
CONTINUOUS
10
6.129649488188976
20
-4.7263556299212599
11
6.1297244094488184
21
-4.7267322834645666
0
LINE
8
BLACK
6
CONTINUOUS
10
6.1297244094488184
20
-4.7267322834645666
11
6.1297244094488184
21
-4.8432677165354328
0
LINE
8
BLACK
6
CONTINUOUS
10
6.1297244094488184
20
-4.8432677165354328
11
6.129649488188976
21
-4.8436443700787404
0
LINE
8
BLACK
6
CONTINUOUS
10
6.129649488188976
20
-4.8436443700787404
11
6.1291168110236223
21
-4.8441770472440941
0
LINE
8
BLACK
6
CONTINUOUS
10
6.1291168110236223
20
-4.8441770472440941
11
6.1287401574803146
21
-4.8442519685039365
0
LINE
8
BLACK
6
CONTINUOUS
10
6.1287401574803146
20
-4.8442519685039365
11
6.0712598425196846
21
-4.8442519685039365
0
LINE
8
BLACK
6
CONTINUOUS
10
6.0712598425196846
20
-4.8442519685039365
11
6.0708831889763779
21
-4.8441770472440941
0
LINE
8
BLACK
6
CONTINUOUS
10
6.0708831889763779
20
-4.8441770472440941
11
6.0703505118110233
21
-4.8436443700787404
0
LINE
8
BLACK
6
CONTINUOUS
10
6.0703505118110233
20
-4.8436443700787404
11
6.0702755905511809
21
-4.8432677165354328
0
LINE
8
BLACK
6
CONTINUOUS
10
6.0702755905511809
20
-4.8432677165354328
11
6.0702755905511809
21
-4.7267322834645666
0
LINE
8
BLACK
6
CONTINUOUS
10
6.0702755905511809
20
-4.7267322834645666
11
6.0703505118110233
21
-4.7263556299212599
0
LINE
8
BLACK
6
CONTINUOUS
10
6.0703505118110233
20
-4.7263556299212599
11
6.0708831889763779
21
-4.7258229527559052
0
LINE
8
BLACK
6
CONTINUOUS
10
6.0708831889763779
20
-4.7258229527559052
11
6.0712598425196846
21
-4.7257480314960629
0
LINE
8
BLACK
6
CONTINUOUS
10
6.0712598425196846
20
-4.7257480314960629
11
6.1287401574803146
21
-4.7257480314960629
0
LINE
8
BLACK
6
CONTINUOUS
10
6.1287401574803146
20
-4.7257480314960629
11
6.1291168110236223
21
-4.7258229527559052
0
LINE
8
BLACK
6
CONTINUOUS
10
6.0722440944881892
20
-4.7277165354330704
11
6.0722440944881892
21
-4.842283464566929
0
LINE
8
BLACK
6
CONTINUOUS
10
6.0722440944881892
20
-4.842283464566929
11
6.1277559055118109
21
-4.842283464566929
0
LINE
8
BLACK
6
CONTINUOUS
10
6.1277559055118109
20
-4.842283464566929
11
6.1277559055118109
21
-4.7277165354330704
0
LINE
8
BLACK
6
CONTINUOUS
10
6.1277559055118109
20
-4.7277165354330704
11
6.0722440944881892
21
-4.7277165354330704
0
LINE
8
BLACK
6
CONTINUOUS
10
5.5786443700787398
20
-4.6775946062992126
11
5.5791770472440945
21
-4.6781272834645664
0
LINE
8
BLACK
6
CONTINUOUS
10
5.5791770472440945
20
-4.6781272834645664
11
5.5792519685039368
21
-4.678503937007874
0
LINE
8
BLACK
6
CONTINUOUS
10
5.5792519685039368
20
-4.678503937007874
11
5.5792519685039368
21
-4.8281102362204722
0
LINE
8
BLACK
6
CONTINUOUS
10
5.5792519685039368
20
-4.8281102362204722
11
5.5791770472440945
21
-4.8284868897637798
0
LINE
8
BLACK
6
CONTINUOUS
10
5.5791770472440945
20
-4.8284868897637798
11
5.5786443700787398
21
-4.8290195669291336
0
LINE
8
BLACK
6
CONTINUOUS
10
5.5786443700787398
20
-4.8290195669291336
11
5.5782677165354331
21
-4.8290944881889759
0
LINE
8
BLACK
6
CONTINUOUS
10
5.5782677165354331
20
-4.8290944881889759
11
5.4365354330708664
21
-4.8290944881889759
0
LINE
8
BLACK
6
CONTINUOUS
10
5.4365354330708664
20
-4.8290944881889759
11
5.4361587795275588
21
-4.8290195669291336
0
LINE
8
BLACK
6
CONTINUOUS
10
5.4361587795275588
20
-4.8290195669291336
11
5.435626102362205
21
-4.8284868897637798
0
LINE
8
BLACK
6
CONTINUOUS
10
5.435626102362205
20
-4.8284868897637798
11
5.4355511811023618
21
-4.8281102362204722
0
LINE
8
BLACK
6
CONTINUOUS
10
5.4355511811023618
20
-4.8281102362204722
11
5.4355511811023618
21
-4.678503937007874
0
LINE
8
BLACK
6
CONTINUOUS
10
5.4355511811023618
20
-4.678503937007874
11
5.435626102362205
21
-4.6781272834645664
0
LINE
8
BLACK
6
CONTINUOUS
10
5.435626102362205
20
-4.6781272834645664
11
5.4361587795275588
21
-4.6775946062992126
0
LINE
8
BLACK
6
CONTINUOUS
10
5.4361587795275588
20
-4.6775946062992126
11
5.4365354330708664
21
-4.6775196850393703
0
LINE
8
BLACK
6
CONTINUOUS
10
5.4365354330708664
20
-4.6775196850393703
11
5.5782677165354331
21
-4.6775196850393703
0
LINE
8
BLACK
6
CONTINUOUS
10
5.5782677165354331
20
-4.6775196850393703
11
5.5786443700787398
21
-4.6775946062992126
0
LINE
8
BLACK
6
CONTINUOUS
10
5.4375196850393701
20
-4.6794881889763777
11
5.4375196850393701
21
-4.8271259842519685
0
LINE
8
BLACK
6
CONTINUOUS
10
5.4375196850393701
20
-4.8271259842519685
11
5.5772834645669294
21
-4.8271259842519685
0
LINE
8
BLACK
6
CONTINUOUS
10
5.5772834645669294
20
-4.8271259842519685
11
5.5772834645669294
21
-4.6794881889763777
0
LINE
8
BLACK
6
CONTINUOUS
10
5.5772834645669294
20
-4.6794881889763777
11
5.4375196850393701
21
-4.6794881889763777
0
LINE
8
BLACK
6
CONTINUOUS
10
6.1306443700787403
20
-4.6653505118110239
11
6.1311770472440941
21
-4.6658831889763777
0
LINE
8
BLACK
6
CONTINUOUS
10
6.1311770472440941
20
-4.6658831889763777
11
6.1312519685039373
21
-4.6662598425196853
0
LINE
8
BLACK
6
CONTINUOUS
10
6.1312519685039373
20
-4.6662598425196853
11
6.1312519685039373
21
-4.6707495669291337
0
LINE
8
BLACK
6
CONTINUOUS
10
6.1312519685039373
20
-4.6707495669291337
11
6.1312598425196851
21
-4.6707480314960632
0
LINE
8
BLACK
6
CONTINUOUS
10
6.1312598425196851
20
-4.6707480314960632
11
6.1887401574803151
21
-4.6707480314960632
0
LINE
8
BLACK
6
CONTINUOUS
10
6.1887401574803151
20
-4.6707480314960632
11
6.1891168110236219
21
-4.6708229527559055
0
LINE
8
BLACK
6
CONTINUOUS
10
6.1891168110236219
20
-4.6708229527559055
11
6.1894999999999998
21
-4.6712061417322834
0
LINE
8
BLACK
6
CONTINUOUS
10
6.1894999999999998
20
-4.6712061417322834
11
6.1898831889763777
21
-4.6708229527559055
0
LINE
8
BLACK
6
CONTINUOUS
10
6.1898831889763777
20
-4.6708229527559055
11
6.1902598425196853
21
-4.6707480314960632
0
LINE
8
BLACK
6
CONTINUOUS
10
6.1902598425196853
20
-4.6707480314960632
11
6.2477401574803144
21
-4.6707480314960632
0
LINE
8
BLACK
6
CONTINUOUS
10
6.2477401574803144
20
-4.6707480314960632
11
6.248116811023622
21
-4.6708229527559055
0
LINE
8
BLACK
6
CONTINUOUS
10
6.248116811023622
20
-4.6708229527559055
11
6.2485964566929129
21
-4.6713025984251964
0
LINE
8
BLACK
6
CONTINUOUS
10
6.2485964566929129
20
-4.6713025984251964
11
6.2487322834645669
21
-4.6712755905511809
0
LINE
8
BLACK
6
CONTINUOUS
10
6.2487322834645669
20
-4.6712755905511809
11
6.365267716535433
21
-4.6712755905511809
0
LINE
8
BLACK
6
CONTINUOUS
10
6.365267716535433
20
-4.6712755905511809
11
6.3656443700787397
21
-4.6713505118110232
0
LINE
8
BLACK
6
CONTINUOUS
10
6.3656443700787397
20
-4.6713505118110232
11
6.3660418897637792
21
-4.6717480314960627
0
LINE
8
BLACK
6
CONTINUOUS
10
6.3660418897637792
20
-4.6717480314960627
11
6.4219581102362202
21
-4.6717480314960627
0
LINE
8
BLACK
6
CONTINUOUS
10
6.4219581102362202
20
-4.6717480314960627
11
6.4223556299212596
21
-4.6713505118110232
0
LINE
8
BLACK
6
CONTINUOUS
10
6.4223556299212596
20
-4.6713505118110232
11
6.4227322834645664
21
-4.6712755905511809
0
LINE
8
BLACK
6
CONTINUOUS
10
6.4227322834645664
20
-4.6712755905511809
11
6.5392677165354325
21
-4.6712755905511809
0
LINE
8
BLACK
6
CONTINUOUS
10
6.5392677165354325
20
-4.6712755905511809
11
6.6544305511811022
21
-4.6712755905511809
0
LINE
8
BLACK
6
CONTINUOUS
10
6.6544305511811022
20
-4.6712755905511809
11
6.6548831889763775
21
-4.6708229527559055
0
LINE
8
BLACK
6
CONTINUOUS
10
6.6548831889763775
20
-4.6708229527559055
11
6.6552598425196852
21
-4.6707480314960632
0
LINE
8
BLACK
6
CONTINUOUS
10
6.6552598425196852
20
-4.6707480314960632
11
6.7127401574803152
21
-4.6707480314960632
0
LINE
8
BLACK
6
CONTINUOUS
10
6.7127401574803152
20
-4.6707480314960632
11
6.7131168110236219
21
-4.6708229527559055
0
LINE
8
BLACK
6
CONTINUOUS
10
6.7131168110236219
20
-4.6708229527559055
11
6.7136494881889766
21
-4.6713556299212593
0
LINE
8
BLACK
6
CONTINUOUS
10
6.7136494881889766
20
-4.6713556299212593
11
6.7137244094488189
21
-4.6717322834645669
0
LINE
8
BLACK
6
CONTINUOUS
10
6.7137244094488189
20
-4.6717322834645669
11
6.7137244094488189
21
-4.788267716535433
0
LINE
8
BLACK
6
CONTINUOUS
10
6.7137244094488189
20
-4.788267716535433
11
6.7136494881889766
21
-4.7886443700787398
0
LINE
8
BLACK
6
CONTINUOUS
10
6.7136494881889766
20
-4.7886443700787398
11
6.7131168110236219
21
-4.7891770472440944
0
LINE
8
BLACK
6
CONTINUOUS
10
6.7131168110236219
20
-4.7891770472440944
11
6.7127401574803152
21
-4.7892519685039368
0
LINE
8
BLACK
6
CONTINUOUS
10
6.7127401574803152
20
-4.7892519685039368
11
6.6552598425196852
21
-4.7892519685039368
0
LINE
8
BLACK
6
CONTINUOUS
10
6.6552598425196852
20
-4.7892519685039368
11
6.6548831889763775
21
-4.7891770472440944
0
LINE
8
BLACK
6
CONTINUOUS
10
6.6548831889763775
20
-4.7891770472440944
11
6.6543505118110238
21
-4.7886443700787398
0
LINE
8
BLACK
6
CONTINUOUS
10
6.6543505118110238
20
-4.7886443700787398
11
6.6542755905511806
21
-4.788267716535433
0
LINE
8
BLACK
6
CONTINUOUS
10
6.6542755905511806
20
-4.788267716535433
11
6.6542755905511806
21
-4.7307244094488192
0
LINE
8
BLACK
6
CONTINUOUS
10
6.6542755905511806
20
-4.7307244094488192
11
6.5387322834645669
21
-4.7307244094488192
0
LINE
8
BLACK
6
CONTINUOUS
10
6.5387322834645669
20
-4.7307244094488192
11
6.4237244094488188
21
-4.7307244094488192
0
LINE
8
BLACK
6
CONTINUOUS
10
6.4237244094488188
20
-4.7307244094488192
11
6.4237244094488188
21
-4.7892677165354334
0
LINE
8
BLACK
6
CONTINUOUS
10
6.4237244094488188
20
-4.7892677165354334
11
6.4236494881889765
21
-4.7896443700787401
0
LINE
8
BLACK
6
CONTINUOUS
10
6.4236494881889765
20
-4.7896443700787401
11
6.4231168110236219
21
-4.7901770472440948
0
LINE
8
BLACK
6
CONTINUOUS
10
6.4231168110236219
20
-4.7901770472440948
11
6.4227401574803151
21
-4.7902519685039371
0
LINE
8
BLACK
6
CONTINUOUS
10
6.4227401574803151
20
-4.7902519685039371
11
6.3652598425196851
21
-4.7902519685039371
0
LINE
8
BLACK
6
CONTINUOUS
10
6.3652598425196851
20
-4.7902519685039371
11
6.3648831889763775
21
-4.7901770472440948
0
LINE
8
BLACK
6
CONTINUOUS
10
6.3648831889763775
20
-4.7901770472440948
11
6.3644305511811021
21
-4.7897244094488185
0
LINE
8
BLACK
6
CONTINUOUS
10
6.3644305511811021
20
-4.7897244094488185
11
6.2487322834645669
21
-4.7897244094488185
0
LINE
8
BLACK
6
CONTINUOUS
10
6.2487322834645669
20
-4.7897244094488185
11
6.2483556299212593
21
-4.7896494881889762
0
LINE
8
BLACK
6
CONTINUOUS
10
6.2483556299212593
20
-4.7896494881889762
11
6.2479219291338577
21
-4.7892157874015746
0
LINE
8
BLACK
6
CONTINUOUS
10
6.2479219291338577
20
-4.7892157874015746
11
6.2477401574803144
21
-4.7892519685039368
0
LINE
8
BLACK
6
CONTINUOUS
10
6.2477401574803144
20
-4.7892519685039368
11
6.1902598425196853
21
-4.7892519685039368
0
LINE
8
BLACK
6
CONTINUOUS
10
6.1902598425196853
20
-4.7892519685039368
11
6.1898831889763777
21
-4.7891770472440944
0
LINE
8
BLACK
6
CONTINUOUS
10
6.1898831889763777
20
-4.7891770472440944
11
6.1894999999999998
21
-4.7887938582677165
0
LINE
8
BLACK
6
CONTINUOUS
10
6.1894999999999998
20
-4.7887938582677165
11
6.1891168110236219
21
-4.7891770472440944
0
LINE
8
BLACK
6
CONTINUOUS
10
6.1891168110236219
20
-4.7891770472440944
11
6.1887401574803151
21
-4.7892519685039368
0
LINE
8
BLACK
6
CONTINUOUS
10
6.1887401574803151
20
-4.7892519685039368
11
6.1312598425196851
21
-4.7892519685039368
0
LINE
8
BLACK
6
CONTINUOUS
10
6.1312598425196851
20
-4.7892519685039368
11
6.1308831889763775
21
-4.7891770472440944
0
LINE
8
BLACK
6
CONTINUOUS
10
6.1308831889763775
20
-4.7891770472440944
11
6.1303505118110238
21
-4.7886443700787398
0
LINE
8
BLACK
6
CONTINUOUS
10
6.1303505118110238
20
-4.7886443700787398
11
6.1302755905511805
21
-4.788267716535433
0
LINE
8
BLACK
6
CONTINUOUS
10
6.1302755905511805
20
-4.788267716535433
11
6.1302755905511805
21
-4.7247228346456689
0
LINE
8
BLACK
6
CONTINUOUS
10
6.1302755905511805
20
-4.7247228346456689
11
6.1302677165354327
21
-4.724724409448819
0
LINE
8
BLACK
6
CONTINUOUS
10
6.1302677165354327
20
-4.724724409448819
11
6.0137322834645666
21
-4.724724409448819
0
LINE
8
BLACK
6
CONTINUOUS
10
6.0137322834645666
20
-4.724724409448819
11
6.0133556299212598
21
-4.7246494881889767
0
LINE
8
BLACK
6
CONTINUOUS
10
6.0133556299212598
20
-4.7246494881889767
11
6.0128229527559052
21
-4.724116811023622
0
LINE
8
BLACK
6
CONTINUOUS
10
6.0128229527559052
20
-4.724116811023622
11
6.0127480314960629
21
-4.7237401574803153
0
LINE
8
BLACK
6
CONTINUOUS
10
6.0127480314960629
20
-4.7237401574803153
11
6.0127480314960629
21
-4.6662598425196853
0
LINE
8
BLACK
6
CONTINUOUS
10
6.0127480314960629
20
-4.6662598425196853
11
6.0128229527559052
21
-4.6658831889763777
0
LINE
8
BLACK
6
CONTINUOUS
10
6.0128229527559052
20
-4.6658831889763777
11
6.0133556299212598
21
-4.6653505118110239
0
LINE
8
BLACK
6
CONTINUOUS
10
6.0133556299212598
20
-4.6653505118110239
11
6.0137322834645666
21
-4.6652755905511807
0
LINE
8
BLACK
6
CONTINUOUS
10
6.0137322834645666
20
-4.6652755905511807
11
6.1302677165354327
21
-4.6652755905511807
0
LINE
8
BLACK
6
CONTINUOUS
10
6.1302677165354327
20
-4.6652755905511807
11
6.1306443700787403
21
-4.6653505118110239
0
LINE
8
BLACK
6
CONTINUOUS
10
6.3662519685039367
20
-4.673716535433071
11
6.3662519685039367
21
-4.7297401574803146
0
LINE
8
BLACK
6
CONTINUOUS
10
6.3662519685039367
20
-4.7297401574803146
11
6.3662440944881888
21
-4.7297797244094486
0
LINE
8
BLACK
6
CONTINUOUS
10
6.3662440944881888
20
-4.7297797244094486
11
6.3662440944881888
21
-4.7312202362204721
0
LINE
8
BLACK
6
CONTINUOUS
10
6.3662440944881888
20
-4.7312202362204721
11
6.3662519685039367
21
-4.7312598425196848
0
LINE
8
BLACK
6
CONTINUOUS
10
6.3662519685039367
20
-4.7312598425196848
11
6.3662519685039367
21
-4.7882834645669288
0
LINE
8
BLACK
6
CONTINUOUS
10
6.3662519685039367
20
-4.7882834645669288
11
6.4217559055118105
21
-4.7882834645669288
0
LINE
8
BLACK
6
CONTINUOUS
10
6.4217559055118105
20
-4.7882834645669288
11
6.4217559055118105
21
-4.7297797244094486
0
LINE
8
BLACK
6
CONTINUOUS
10
6.4217559055118105
20
-4.7297797244094486
11
6.4217480314960627
21
-4.7297401574803146
0
LINE
8
BLACK
6
CONTINUOUS
10
6.4217480314960627
20
-4.7297401574803146
11
6.4217480314960627
21
-4.673716535433071
0
LINE
8
BLACK
6
CONTINUOUS
10
6.4217480314960627
20
-4.673716535433071
11
6.3662519685039367
21
-4.673716535433071
0
LINE
8
BLACK
6
CONTINUOUS
10
6.2497165354330706
20
-4.7322440944881885
11
6.2497165354330706
21
-4.7877559055118111
0
LINE
8
BLACK
6
CONTINUOUS
10
6.2497165354330706
20
-4.7877559055118111
11
6.3642755905511805
21
-4.7877559055118111
0
LINE
8
BLACK
6
CONTINUOUS
10
6.3642755905511805
20
-4.7877559055118111
11
6.3642755905511805
21
-4.7322440944881885
0
LINE
8
BLACK
6
CONTINUOUS
10
6.3642755905511805
20
-4.7322440944881885
11
6.2497165354330706
21
-4.7322440944881885
0
LINE
8
BLACK
6
CONTINUOUS
10
6.6562519685039367
20
-4.6727165354330706
11
6.6562519685039367
21
-4.7297401574803146
0
LINE
8
BLACK
6
CONTINUOUS
10
6.6562519685039367
20
-4.7297401574803146
11
6.6562440944881889
21
-4.7297797244094486
0
LINE
8
BLACK
6
CONTINUOUS
10
6.6562440944881889
20
-4.7297797244094486
11
6.6562440944881889
21
-4.7872834645669293
0
LINE
8
BLACK
6
CONTINUOUS
10
6.6562440944881889
20
-4.7872834645669293
11
6.7117559055118106
21
-4.7872834645669293
0
LINE
8
BLACK
6
CONTINUOUS
10
6.7117559055118106
20
-4.7872834645669293
11
6.7117559055118106
21
-4.6727165354330706
0
LINE
8
BLACK
6
CONTINUOUS
10
6.7117559055118106
20
-4.6727165354330706
11
6.6562519685039367
21
-4.6727165354330706
0
LINE
8
BLACK
6
CONTINUOUS
10
6.191244094488189
20
-4.6727165354330706
11
6.191244094488189
21
-4.7872834645669293
0
LINE
8
BLACK
6
CONTINUOUS
10
6.191244094488189
20
-4.7872834645669293
11
6.2467559055118107
21
-4.7872834645669293
0
LINE
8
BLACK
6
CONTINUOUS
10
6.2467559055118107
20
-4.7872834645669293
11
6.2467559055118107
21
-4.6727165354330706
0
LINE
8
BLACK
6
CONTINUOUS
10
6.2467559055118107
20
-4.6727165354330706
11
6.191244094488189
21
-4.6727165354330706
0
LINE
8
BLACK
6
CONTINUOUS
10
6.1322440944881889
20
-4.6727165354330706
11
6.1322440944881889
21
-4.7872834645669293
0
LINE
8
BLACK
6
CONTINUOUS
10
6.1322440944881889
20
-4.7872834645669293
11
6.1877559055118105
21
-4.7872834645669293
0
LINE
8
BLACK
6
CONTINUOUS
10
6.1877559055118105
20
-4.7872834645669293
11
6.1877559055118105
21
-4.6727165354330706
0
LINE
8
BLACK
6
CONTINUOUS
10
6.1877559055118105
20
-4.6727165354330706
11
6.1322440944881889
21
-4.6727165354330706
0
LINE
8
BLACK
6
CONTINUOUS
10
6.5402519685039371
20
-4.6732440944881892
11
6.5402519685039371
21
-4.7287559055118109
0
LINE
8
BLACK
6
CONTINUOUS
10
6.5402519685039371
20
-4.7287559055118109
11
6.6542755905511806
21
-4.7287559055118109
0
LINE
8
BLACK
6
CONTINUOUS
10
6.6542755905511806
20
-4.7287559055118109
11
6.6542755905511806
21
-4.6732440944881892
0
LINE
8
BLACK
6
CONTINUOUS
10
6.6542755905511806
20
-4.6732440944881892
11
6.5402519685039371
21
-4.6732440944881892
0
LINE
8
BLACK
6
CONTINUOUS
10
6.4237244094488188
20
-4.6732440944881892
11
6.4237244094488188
21
-4.7287559055118109
0
LINE
8
BLACK
6
CONTINUOUS
10
6.4237244094488188
20
-4.7287559055118109
11
6.5377480314960632
21
-4.7287559055118109
0
LINE
8
BLACK
6
CONTINUOUS
10
6.5377480314960632
20
-4.7287559055118109
11
6.5377480314960632
21
-4.6732440944881892
0
LINE
8
BLACK
6
CONTINUOUS
10
6.5377480314960632
20
-4.6732440944881892
11
6.4237244094488188
21
-4.6732440944881892
0
LINE
8
BLACK
6
CONTINUOUS
10
6.2497165354330706
20
-4.6732440944881892
11
6.2497165354330706
21
-4.7287559055118109
0
LINE
8
BLACK
6
CONTINUOUS
10
6.2497165354330706
20
-4.7287559055118109
11
6.3642755905511805
21
-4.7287559055118109
0
LINE
8
BLACK
6
CONTINUOUS
10
6.3642755905511805
20
-4.7287559055118109
11
6.3642755905511805
21
-4.6732440944881892
0
LINE
8
BLACK
6
CONTINUOUS
10
6.3642755905511805
20
-4.6732440944881892
11
6.2497165354330706
21
-4.6732440944881892
0
LINE
8
BLACK
6
CONTINUOUS
10
6.0147165354330712
20
-4.667244094488189
11
6.0147165354330712
21
-4.7227559055118107
0
LINE
8
BLACK
6
CONTINUOUS
10
6.0147165354330712
20
-4.7227559055118107
11
6.129283464566929
21
-4.7227559055118107
0
LINE
8
BLACK
6
CONTINUOUS
10
6.129283464566929
20
-4.7227559055118107
11
6.129283464566929
21
-4.667244094488189
0
LINE
8
BLACK
6
CONTINUOUS
10
6.129283464566929
20
-4.667244094488189
11
6.0147165354330712
21
-4.667244094488189
0
LINE
8
BLACK
6
CONTINUOUS
10
5.7400616929133861
20
-4.6552324015748034
11
5.7405943700787398
21
-4.6557650787401572
0
LINE
8
BLACK
6
CONTINUOUS
10
5.7405943700787398
20
-4.6557650787401572
11
5.7406692913385822
21
-4.6561417322834648
0
LINE
8
BLACK
6
CONTINUOUS
10
5.7406692913385822
20
-4.6561417322834648
11
5.7406692913385822
21
-4.772677165354331
0
LINE
8
BLACK
6
CONTINUOUS
10
5.7406692913385822
20
-4.772677165354331
11
5.7405943700787398
21
-4.7730538188976377
0
LINE
8
BLACK
6
CONTINUOUS
10
5.7405943700787398
20
-4.7730538188976377
11
5.7400616929133861
21
-4.7735864960629923
0
LINE
8
BLACK
6
CONTINUOUS
10
5.7400616929133861
20
-4.7735864960629923
11
5.7396850393700785
21
-4.7736614173228347
0
LINE
8
BLACK
6
CONTINUOUS
10
5.7396850393700785
20
-4.7736614173228347
11
5.6822047244094485
21
-4.7736614173228347
0
LINE
8
BLACK
6
CONTINUOUS
10
5.6822047244094485
20
-4.7736614173228347
11
5.6818280708661417
21
-4.7735864960629923
0
LINE
8
BLACK
6
CONTINUOUS
10
5.6818280708661417
20
-4.7735864960629923
11
5.6812953937007871
21
-4.7730538188976377
0
LINE
8
BLACK
6
CONTINUOUS
10
5.6812953937007871
20
-4.7730538188976377
11
5.6812204724409447
21
-4.772677165354331
0
LINE
8
BLACK
6
CONTINUOUS
10
5.6812204724409447
20
-4.772677165354331
11
5.6812204724409447
21
-4.6561417322834648
0
LINE
8
BLACK
6
CONTINUOUS
10
5.6812204724409447
20
-4.6561417322834648
11
5.6812953937007871
21
-4.6557650787401572
0
LINE
8
BLACK
6
CONTINUOUS
10
5.6812953937007871
20
-4.6557650787401572
11
5.6818280708661417
21
-4.6552324015748034
0
LINE
8
BLACK
6
CONTINUOUS
10
5.6818280708661417
20
-4.6552324015748034
11
5.6822047244094485
21
-4.6551574803149602
0
LINE
8
BLACK
6
CONTINUOUS
10
5.6822047244094485
20
-4.6551574803149602
11
5.7396850393700785
21
-4.6551574803149602
0
LINE
8
BLACK
6
CONTINUOUS
10
5.7396850393700785
20
-4.6551574803149602
11
5.7400616929133861
21
-4.6552324015748034
0
LINE
8
BLACK
6
CONTINUOUS
10
5.6831889763779531
20
-4.6571259842519686
11
5.6831889763779531
21
-4.7716929133858264
0
LINE
8
BLACK
6
CONTINUOUS
10
5.6831889763779531
20
-4.7716929133858264
11
5.7387007874015747
21
-4.7716929133858264
0
LINE
8
BLACK
6
CONTINUOUS
10
5.7387007874015747
20
-4.7716929133858264
11
5.7387007874015747
21
-4.6571259842519686
0
LINE
8
BLACK
6
CONTINUOUS
10
5.7387007874015747
20
-4.6571259842519686
11
5.6831889763779531
21
-4.6571259842519686
0
LINE
8
BLACK
6
CONTINUOUS
10
5.6699829527559054
20
-4.6301930314960629
11
5.67051562992126
21
-4.6307257086614175
0
LINE
8
BLACK
6
CONTINUOUS
10
5.67051562992126
20
-4.6307257086614175
11
5.6705905511811023
21
-4.6311023622047243
0
LINE
8
BLACK
6
CONTINUOUS
10
5.6705905511811023
20
-4.6311023622047243
11
5.6705905511811023
21
-4.7688976377952752
0
LINE
8
BLACK
6
CONTINUOUS
10
5.6705905511811023
20
-4.7688976377952752
11
5.67051562992126
21
-4.7692742913385828
0
LINE
8
BLACK
6
CONTINUOUS
10
5.67051562992126
20
-4.7692742913385828
11
5.6699829527559054
21
-4.7698069685039366
0
LINE
8
BLACK
6
CONTINUOUS
10
5.6699829527559054
20
-4.7698069685039366
11
5.6696062992125986
21
-4.7698818897637798
0
LINE
8
BLACK
6
CONTINUOUS
10
5.6696062992125986
20
-4.7698818897637798
11
5.602677165354331
21
-4.7698818897637798
0
LINE
8
BLACK
6
CONTINUOUS
10
5.602677165354331
20
-4.7698818897637798
11
5.6023005118110234
21
-4.7698069685039366
0
LINE
8
BLACK
6
CONTINUOUS
10
5.6023005118110234
20
-4.7698069685039366
11
5.6017678346456687
21
-4.7692742913385828
0
LINE
8
BLACK
6
CONTINUOUS
10
5.6017678346456687
20
-4.7692742913385828
11
5.6016929133858264
21
-4.7688976377952752
0
LINE
8
BLACK
6
CONTINUOUS
10
5.6016929133858264
20
-4.7688976377952752
11
5.6016929133858264
21
-4.6311023622047243
0
LINE
8
BLACK
6
CONTINUOUS
10
5.6016929133858264
20
-4.6311023622047243
11
5.6017678346456687
21
-4.6307257086614175
0
LINE
8
BLACK
6
CONTINUOUS
10
5.6017678346456687
20
-4.6307257086614175
11
5.6023005118110234
21
-4.6301930314960629
0
LINE
8
BLACK
6
CONTINUOUS
10
5.6023005118110234
20
-4.6301930314960629
11
5.602677165354331
21
-4.6301181102362206
0
LINE
8
BLACK
6
CONTINUOUS
10
5.602677165354331
20
-4.6301181102362206
11
5.6696062992125986
21
-4.6301181102362206
0
LINE
8
BLACK
6
CONTINUOUS
10
5.6696062992125986
20
-4.6301181102362206
11
5.6699829527559054
21
-4.6301930314960629
0
LINE
8
BLACK
6
CONTINUOUS
10
5.6036614173228347
20
-4.632086614173228
11
5.6036614173228347
21
-4.7679133858267715
0
LINE
8
BLACK
6
CONTINUOUS
10
5.6036614173228347
20
-4.7679133858267715
11
5.668622047244094
21
-4.7679133858267715
0
LINE
8
BLACK
6
CONTINUOUS
10
5.668622047244094
20
-4.7679133858267715
11
5.668622047244094
21
-4.632086614173228
0
LINE
8
BLACK
6
CONTINUOUS
10
5.668622047244094
20
-4.632086614173228
11
5.6036614173228347
21
-4.632086614173228
0
LINE
8
BLACK
6
CONTINUOUS
10
6.0026601181102359
20
-4.5284607480314962
11
6.0031927952755906
21
-4.52899342519685
0
LINE
8
BLACK
6
CONTINUOUS
10
6.0031927952755906
20
-4.52899342519685
11
6.0032677165354329
21
-4.5293700787401576
0
LINE
8
BLACK
6
CONTINUOUS
10
6.0032677165354329
20
-4.5293700787401576
11
6.0032677165354329
21
-4.7340944881889762
0
LINE
8
BLACK
6
CONTINUOUS
10
6.0032677165354329
20
-4.7340944881889762
11
6.0031927952755906
21
-4.7344711417322838
0
LINE
8
BLACK
6
CONTINUOUS
10
6.0031927952755906
20
-4.7344711417322838
11
6.0026601181102359
21
-4.7350038188976376
0
LINE
8
BLACK
6
CONTINUOUS
10
6.0026601181102359
20
-4.7350038188976376
11
6.0022834645669292
21
-4.7350787401574799
0
LINE
8
BLACK
6
CONTINUOUS
10
6.0022834645669292
20
-4.7350787401574799
11
5.7975590551181098
21
-4.7350787401574799
0
LINE
8
BLACK
6
CONTINUOUS
10
5.7975590551181098
20
-4.7350787401574799
11
5.797182401574803
21
-4.7350038188976376
0
LINE
8
BLACK
6
CONTINUOUS
10
5.797182401574803
20
-4.7350038188976376
11
5.7966497244094484
21
-4.7344711417322838
0
LINE
8
BLACK
6
CONTINUOUS
10
5.7966497244094484
20
-4.7344711417322838
11
5.796574803149606
21
-4.7340944881889762
0
LINE
8
BLACK
6
CONTINUOUS
10
5.796574803149606
20
-4.7340944881889762
11
5.796574803149606
21
-4.5293700787401576
0
LINE
8
BLACK
6
CONTINUOUS
10
5.796574803149606
20
-4.5293700787401576
11
5.7966497244094484
21
-4.52899342519685
0
LINE
8
BLACK
6
CONTINUOUS
10
5.7966497244094484
20
-4.52899342519685
11
5.797182401574803
21
-4.5284607480314962
0
LINE
8
BLACK
6
CONTINUOUS
10
5.797182401574803
20
-4.5284607480314962
11
5.7975590551181098
21
-4.528385826771653
0
LINE
8
BLACK
6
CONTINUOUS
10
5.7975590551181098
20
-4.528385826771653
11
6.0022834645669292
21
-4.528385826771653
0
LINE
8
BLACK
6
CONTINUOUS
10
6.0022834645669292
20
-4.528385826771653
11
6.0026601181102359
21
-4.5284607480314962
0
LINE
8
BLACK
6
CONTINUOUS
10
5.7985433070866144
20
-4.5303543307086613
11
5.7985433070866144
21
-4.7331102362204724
0
LINE
8
BLACK
6
CONTINUOUS
10
5.7985433070866144
20
-4.7331102362204724
11
6.0012992125984255
21
-4.7331102362204724
0
LINE
8
BLACK
6
CONTINUOUS
10
6.0012992125984255
20
-4.7331102362204724
11
6.0012992125984255
21
-4.5303543307086613
0
LINE
8
BLACK
6
CONTINUOUS
10
6.0012992125984255
20
-4.5303543307086613
11
5.7985433070866144
21
-4.5303543307086613
0
LINE
8
BLACK
6
CONTINUOUS
10
6.9011325590551182
20
-4.583862322834646
11
6.9015662204724411
21
-4.5842959842519688
0
LINE
8
BLACK
6
CONTINUOUS
10
6.9015662204724411
20
-4.5842959842519688
11
6.9017480314960631
21
-4.5842598425196845
0
LINE
8
BLACK
6
CONTINUOUS
10
6.9017480314960631
20
-4.5842598425196845
11
6.9592283464566931
21
-4.5842598425196845
0
LINE
8
BLACK
6
CONTINUOUS
10
6.9592283464566931
20
-4.5842598425196845
11
6.9594101181102364
21
-4.5842959842519688
0
LINE
8
BLACK
6
CONTINUOUS
10
6.9594101181102364
20
-4.5842959842519688
11
6.9598438188976379
21
-4.583862322834646
0
LINE
8
BLACK
6
CONTINUOUS
10
6.9598438188976379
20
-4.583862322834646
11
6.9602204724409447
21
-4.5837874015748028
0
LINE
8
BLACK
6
CONTINUOUS
10
6.9602204724409447
20
-4.5837874015748028
11
7.0767559055118108
21
-4.5837874015748028
0
LINE
8
BLACK
6
CONTINUOUS
10
7.0767559055118108
20
-4.5837874015748028
11
7.0771325590551175
21
-4.583862322834646
0
LINE
8
BLACK
6
CONTINUOUS
10
7.0771325590551175
20
-4.583862322834646
11
7.0776652362204722
21
-4.5843949999999998
0
LINE
8
BLACK
6
CONTINUOUS
10
7.0776652362204722
20
-4.5843949999999998
11
7.0777401574803145
21
-4.5847716535433074
0
LINE
8
BLACK
6
CONTINUOUS
10
7.0777401574803145
20
-4.5847716535433074
11
7.0777401574803145
21
-4.6422519685039365
0
LINE
8
BLACK
6
CONTINUOUS
10
7.0777401574803145
20
-4.6422519685039365
11
7.0776652362204722
21
-4.6426286220472441
0
LINE
8
BLACK
6
CONTINUOUS
10
7.0776652362204722
20
-4.6426286220472441
11
7.0771325590551175
21
-4.6431612992125979
0
LINE
8
BLACK
6
CONTINUOUS
10
7.0771325590551175
20
-4.6431612992125979
11
7.0767559055118108
21
-4.6432362204724411
0
LINE
8
BLACK
6
CONTINUOUS
10
7.0767559055118108
20
-4.6432362204724411
11
6.9602204724409447
21
-4.6432362204724411
0
LINE
8
BLACK
6
CONTINUOUS
10
6.9602204724409447
20
-4.6432362204724411
11
6.9602125984251968
21
-4.643234645669291
0
LINE
8
BLACK
6
CONTINUOUS
10
6.9602125984251968
20
-4.643234645669291
11
6.9602125984251968
21
-4.7017795275590553
0
LINE
8
BLACK
6
CONTINUOUS
10
6.9602125984251968
20
-4.7017795275590553
11
6.9601376771653545
21
-4.702156181102362
0
LINE
8
BLACK
6
CONTINUOUS
10
6.9601376771653545
20
-4.702156181102362
11
6.9596049999999998
21
-4.7026888582677167
0
LINE
8
BLACK
6
CONTINUOUS
10
6.9596049999999998
20
-4.7026888582677167
11
6.9592283464566931
21
-4.702763779527559
0
LINE
8
BLACK
6
CONTINUOUS
10
6.9592283464566931
20
-4.702763779527559
11
6.9017480314960631
21
-4.702763779527559
0
LINE
8
BLACK
6
CONTINUOUS
10
6.9017480314960631
20
-4.702763779527559
11
6.9013713779527555
21
-4.7026888582677167
0
LINE
8
BLACK
6
CONTINUOUS
10
6.9013713779527555
20
-4.7026888582677167
11
6.9008387007874017
21
-4.702156181102362
0
LINE
8
BLACK
6
CONTINUOUS
10
6.9008387007874017
20
-4.702156181102362
11
6.9007637795275585
21
-4.7017795275590553
0
LINE
8
BLACK
6
CONTINUOUS
10
6.9007637795275585
20
-4.7017795275590553
11
6.9007637795275585
21
-4.643234645669291
0
LINE
8
BLACK
6
CONTINUOUS
10
6.9007637795275585
20
-4.643234645669291
11
6.9007559055118106
21
-4.6432362204724411
0
LINE
8
BLACK
6
CONTINUOUS
10
6.9007559055118106
20
-4.6432362204724411
11
6.7842204724409445
21
-4.6432362204724411
0
LINE
8
BLACK
6
CONTINUOUS
10
6.7842204724409445
20
-4.6432362204724411
11
6.7838438188976378
21
-4.6431612992125979
0
LINE
8
BLACK
6
CONTINUOUS
10
6.7838438188976378
20
-4.6431612992125979
11
6.7833111417322831
21
-4.6426286220472441
0
LINE
8
BLACK
6
CONTINUOUS
10
6.7833111417322831
20
-4.6426286220472441
11
6.7832362204724408
21
-4.6422519685039365
0
LINE
8
BLACK
6
CONTINUOUS
10
6.7832362204724408
20
-4.6422519685039365
11
6.7832362204724408
21
-4.5847716535433074
0
LINE
8
BLACK
6
CONTINUOUS
10
6.7832362204724408
20
-4.5847716535433074
11
6.7833111417322831
21
-4.5843949999999998
0
LINE
8
BLACK
6
CONTINUOUS
10
6.7833111417322831
20
-4.5843949999999998
11
6.7838438188976378
21
-4.583862322834646
0
LINE
8
BLACK
6
CONTINUOUS
10
6.7838438188976378
20
-4.583862322834646
11
6.7842204724409445
21
-4.5837874015748028
0
LINE
8
BLACK
6
CONTINUOUS
10
6.7842204724409445
20
-4.5837874015748028
11
6.9007559055118106
21
-4.5837874015748028
0
LINE
8
BLACK
6
CONTINUOUS
10
6.9007559055118106
20
-4.5837874015748028
11
6.9011325590551182
21
-4.583862322834646
0
LINE
8
BLACK
6
CONTINUOUS
10
6.9027322834645668
20
-4.5862283464566929
11
6.9027322834645668
21
-4.7007952755905507
0
LINE
8
BLACK
6
CONTINUOUS
10
6.9027322834645668
20
-4.7007952755905507
11
6.9582440944881885
21
-4.7007952755905507
0
LINE
8
BLACK
6
CONTINUOUS
10
6.9582440944881885
20
-4.7007952755905507
11
6.9582440944881885
21
-4.5862283464566929
0
LINE
8
BLACK
6
CONTINUOUS
10
6.9582440944881885
20
-4.5862283464566929
11
6.9027322834645668
21
-4.5862283464566929
0
LINE
8
BLACK
6
CONTINUOUS
10
6.9612047244094484
20
-4.5857559055118111
11
6.9612047244094484
21
-4.6412677165354328
0
LINE
8
BLACK
6
CONTINUOUS
10
6.9612047244094484
20
-4.6412677165354328
11
7.0757716535433071
21
-4.6412677165354328
0
LINE
8
BLACK
6
CONTINUOUS
10
7.0757716535433071
20
-4.6412677165354328
11
7.0757716535433071
21
-4.5857559055118111
0
LINE
8
BLACK
6
CONTINUOUS
10
7.0757716535433071
20
-4.5857559055118111
11
6.9612047244094484
21
-4.5857559055118111
0
LINE
8
BLACK
6
CONTINUOUS
10
6.7852047244094491
20
-4.5857559055118111
11
6.7852047244094491
21
-4.6412677165354328
0
LINE
8
BLACK
6
CONTINUOUS
10
6.7852047244094491
20
-4.6412677165354328
11
6.8997716535433069
21
-4.6412677165354328
0
LINE
8
BLACK
6
CONTINUOUS
10
6.8997716535433069
20
-4.6412677165354328
11
6.8997716535433069
21
-4.5857559055118111
0
LINE
8
BLACK
6
CONTINUOUS
10
6.8997716535433069
20
-4.5857559055118111
11
6.7852047244094491
21
-4.5857559055118111
0
LINE
8
BLACK
6
CONTINUOUS
10
5.5747073622047241
20
-4.591767834645669
11
5.5752400393700787
21
-4.5923005118110236
0
LINE
8
BLACK
6
CONTINUOUS
10
5.5752400393700787
20
-4.5923005118110236
11
5.575314960629921
21
-4.5926771653543303
0
LINE
8
BLACK
6
CONTINUOUS
10
5.575314960629921
20
-4.5926771653543303
11
5.575314960629921
21
-4.6698425196850391
0
LINE
8
BLACK
6
CONTINUOUS
10
5.575314960629921
20
-4.6698425196850391
11
5.5752400393700787
21
-4.6702191732283467
0
LINE
8
BLACK
6
CONTINUOUS
10
5.5752400393700787
20
-4.6702191732283467
11
5.5747073622047241
21
-4.6707518503937004
0
LINE
8
BLACK
6
CONTINUOUS
10
5.5747073622047241
20
-4.6707518503937004
11
5.5743307086614173
21
-4.6708267716535428
0
LINE
8
BLACK
6
CONTINUOUS
10
5.5743307086614173
20
-4.6708267716535428
11
5.4404724409448821
21
-4.6708267716535428
0
LINE
8
BLACK
6
CONTINUOUS
10
5.4404724409448821
20
-4.6708267716535428
11
5.4400957874015745
21
-4.6707518503937004
0
LINE
8
BLACK
6
CONTINUOUS
10
5.4400957874015745
20
-4.6707518503937004
11
5.4395631102362207
21
-4.6702191732283467
0
LINE
8
BLACK
6
CONTINUOUS
10
5.4395631102362207
20
-4.6702191732283467
11
5.4394881889763775
21
-4.6698425196850391
0
LINE
8
BLACK
6
CONTINUOUS
10
5.4394881889763775
20
-4.6698425196850391
11
5.4394881889763775
21
-4.5926771653543303
0
LINE
8
BLACK
6
CONTINUOUS
10
5.4394881889763775
20
-4.5926771653543303
11
5.4395631102362207
21
-4.5923005118110236
0
LINE
8
BLACK
6
CONTINUOUS
10
5.4395631102362207
20
-4.5923005118110236
11
5.4400957874015745
21
-4.591767834645669
0
LINE
8
BLACK
6
CONTINUOUS
10
5.4400957874015745
20
-4.591767834645669
11
5.4404724409448821
21
-4.5916929133858266
0
LINE
8
BLACK
6
CONTINUOUS
10
5.4404724409448821
20
-4.5916929133858266
11
5.5743307086614173
21
-4.5916929133858266
0
LINE
8
BLACK
6
CONTINUOUS
10
5.5743307086614173
20
-4.5916929133858266
11
5.5747073622047241
21
-4.591767834645669
0
LINE
8
BLACK
6
CONTINUOUS
10
5.4414566929133859
20
-4.593661417322835
11
5.4414566929133859
21
-4.6688582677165353
0
LINE
8
BLACK
6
CONTINUOUS
10
5.4414566929133859
20
-4.6688582677165353
11
5.5733464566929136
21
-4.6688582677165353
0
LINE
8
BLACK
6
CONTINUOUS
10
5.5733464566929136
20
-4.6688582677165353
11
5.5733464566929136
21
-4.593661417322835
0
LINE
8
BLACK
6
CONTINUOUS
10
5.5733464566929136
20
-4.593661417322835
11
5.4414566929133859
21
-4.593661417322835
0
LINE
8
BLACK
6
CONTINUOUS
10
6.7823687795275589
20
-4.5569725590551178
11
6.7829014566929136
21
-4.5575052362204724
0
LINE
8
BLACK
6
CONTINUOUS
10
6.7829014566929136
20
-4.5575052362204724
11
6.7829763779527559
21
-4.5578818897637792
0
LINE
8
BLACK
6
CONTINUOUS
10
6.7829763779527559
20
-4.5578818897637792
11
6.7829763779527559
21
-4.6681181102362208
0
LINE
8
BLACK
6
CONTINUOUS
10
6.7829763779527559
20
-4.6681181102362208
11
6.7829014566929136
21
-4.6684947637795275
0
LINE
8
BLACK
6
CONTINUOUS
10
6.7829014566929136
20
-4.6684947637795275
11
6.7823687795275589
21
-4.6690274409448822
0
LINE
8
BLACK
6
CONTINUOUS
10
6.7823687795275589
20
-4.6690274409448822
11
6.7819921259842522
21
-4.6691023622047245
0
LINE
8
BLACK
6
CONTINUOUS
10
6.7819921259842522
20
-4.6691023622047245
11
6.6560078740157476
21
-4.6691023622047245
0
LINE
8
BLACK
6
CONTINUOUS
10
6.6560078740157476
20
-4.6691023622047245
11
6.6556312204724408
21
-4.6690274409448822
0
LINE
8
BLACK
6
CONTINUOUS
10
6.6556312204724408
20
-4.6690274409448822
11
6.6550985433070862
21
-4.6684947637795275
0
LINE
8
BLACK
6
CONTINUOUS
10
6.6550985433070862
20
-4.6684947637795275
11
6.6550236220472438
21
-4.6681181102362208
0
LINE
8
BLACK
6
CONTINUOUS
10
6.6550236220472438
20
-4.6681181102362208
11
6.6550236220472438
21
-4.5578818897637792
0
LINE
8
BLACK
6
CONTINUOUS
10
6.6550236220472438
20
-4.5578818897637792
11
6.6550985433070862
21
-4.5575052362204724
0
LINE
8
BLACK
6
CONTINUOUS
10
6.6550985433070862
20
-4.5575052362204724
11
6.6556312204724408
21
-4.5569725590551178
0
LINE
8
BLACK
6
CONTINUOUS
10
6.6556312204724408
20
-4.5569725590551178
11
6.6560078740157476
21
-4.5568976377952755
0
LINE
8
BLACK
6
CONTINUOUS
10
6.6560078740157476
20
-4.5568976377952755
11
6.7819921259842522
21
-4.5568976377952755
0
LINE
8
BLACK
6
CONTINUOUS
10
6.7819921259842522
20
-4.5568976377952755
11
6.7823687795275589
21
-4.5569725590551178
0
LINE
8
BLACK
6
CONTINUOUS
10
6.6569921259842522
20
-4.5588661417322838
11
6.6569921259842522
21
-4.6671338582677162
0
LINE
8
BLACK
6
CONTINUOUS
10
6.6569921259842522
20
-4.6671338582677162
11
6.7810078740157476
21
-4.6671338582677162
0
LINE
8
BLACK
6
CONTINUOUS
10
6.7810078740157476
20
-4.6671338582677162
11
6.7810078740157476
21
-4.5588661417322838
0
LINE
8
BLACK
6
CONTINUOUS
10
6.7810078740157476
20
-4.5588661417322838
11
6.6569921259842522
21
-4.5588661417322838
0
LINE
8
BLACK
6
CONTINUOUS
10
7.3151325590551179
20
-4.5828623228346457
11
7.3156652362204726
21
-4.5833950000000003
0
LINE
8
BLACK
6
CONTINUOUS
10
7.3156652362204726
20
-4.5833950000000003
11
7.3157401574803149
21
-4.5837716535433071
0
LINE
8
BLACK
6
CONTINUOUS
10
7.3157401574803149
20
-4.5837716535433071
11
7.3157401574803149
21
-4.6412519685039371
0
LINE
8
BLACK
6
CONTINUOUS
10
7.3157401574803149
20
-4.6412519685039371
11
7.3156652362204726
21
-4.6416286220472438
0
LINE
8
BLACK
6
CONTINUOUS
10
7.3156652362204726
20
-4.6416286220472438
11
7.3151325590551179
21
-4.6421612992125985
0
LINE
8
BLACK
6
CONTINUOUS
10
7.3151325590551179
20
-4.6421612992125985
11
7.3147559055118112
21
-4.6422362204724408
0
LINE
8
BLACK
6
CONTINUOUS
10
7.3147559055118112
20
-4.6422362204724408
11
7.1982204724409451
21
-4.6422362204724408
0
LINE
8
BLACK
6
CONTINUOUS
10
7.1982204724409451
20
-4.6422362204724408
11
7.1978438188976375
21
-4.6421612992125985
0
LINE
8
BLACK
6
CONTINUOUS
10
7.1978438188976375
20
-4.6421612992125985
11
7.1973111417322837
21
-4.6416286220472438
0
LINE
8
BLACK
6
CONTINUOUS
10
7.1973111417322837
20
-4.6416286220472438
11
7.1972362204724405
21
-4.6412519685039371
0
LINE
8
BLACK
6
CONTINUOUS
10
7.1972362204724405
20
-4.6412519685039371
11
7.1972362204724405
21
-4.5837716535433071
0
LINE
8
BLACK
6
CONTINUOUS
10
7.1972362204724405
20
-4.5837716535433071
11
7.1973111417322837
21
-4.5833950000000003
0
LINE
8
BLACK
6
CONTINUOUS
10
7.1973111417322837
20
-4.5833950000000003
11
7.1978438188976375
21
-4.5828623228346457
0
LINE
8
BLACK
6
CONTINUOUS
10
7.1978438188976375
20
-4.5828623228346457
11
7.1982204724409451
21
-4.5827874015748034
0
LINE
8
BLACK
6
CONTINUOUS
10
7.1982204724409451
20
-4.5827874015748034
11
7.3147559055118112
21
-4.5827874015748034
0
LINE
8
BLACK
6
CONTINUOUS
10
7.3147559055118112
20
-4.5827874015748034
11
7.3151325590551179
21
-4.5828623228346457
0
LINE
8
BLACK
6
CONTINUOUS
10
7.1992047244094488
20
-4.5847559055118108
11
7.1992047244094488
21
-4.6402677165354334
0
LINE
8
BLACK
6
CONTINUOUS
10
7.1992047244094488
20
-4.6402677165354334
11
7.3137716535433066
21
-4.6402677165354334
0
LINE
8
BLACK
6
CONTINUOUS
10
7.3137716535433066
20
-4.6402677165354334
11
7.3137716535433066
21
-4.5847559055118108
0
LINE
8
BLACK
6
CONTINUOUS
10
7.3137716535433066
20
-4.5847559055118108
11
7.1992047244094488
21
-4.5847559055118108
0
LINE
8
BLACK
6
CONTINUOUS
10
6.1696679921259845
20
-4.5135001181102359
11
6.1702006692913383
21
-4.5140327952755905
0
LINE
8
BLACK
6
CONTINUOUS
10
6.1702006692913383
20
-4.5140327952755905
11
6.1702755905511806
21
-4.5144094488188973
0
LINE
8
BLACK
6
CONTINUOUS
10
6.1702755905511806
20
-4.5144094488188973
11
6.1702755905511806
21
-4.6309448818897634
0
LINE
8
BLACK
6
CONTINUOUS
10
6.1702755905511806
20
-4.6309448818897634
11
6.1702006692913383
21
-4.631321535433071
0
LINE
8
BLACK
6
CONTINUOUS
10
6.1702006692913383
20
-4.631321535433071
11
6.1696679921259845
21
-4.6318542125984248
0
LINE
8
BLACK
6
CONTINUOUS
10
6.1696679921259845
20
-4.6318542125984248
11
6.1692913385826769
21
-4.631929133858268
0
LINE
8
BLACK
6
CONTINUOUS
10
6.1692913385826769
20
-4.631929133858268
11
6.1118110236220469
21
-4.631929133858268
0
LINE
8
BLACK
6
CONTINUOUS
10
6.1118110236220469
20
-4.631929133858268
11
6.1114343700787401
21
-4.6318542125984248
0
LINE
8
BLACK
6
CONTINUOUS
10
6.1114343700787401
20
-4.6318542125984248
11
6.1109016929133855
21
-4.631321535433071
0
LINE
8
BLACK
6
CONTINUOUS
10
6.1109016929133855
20
-4.631321535433071
11
6.1108267716535432
21
-4.6309448818897634
0
LINE
8
BLACK
6
CONTINUOUS
10
6.1108267716535432
20
-4.6309448818897634
11
6.1108267716535432
21
-4.5144094488188973
0
LINE
8
BLACK
6
CONTINUOUS
10
6.1108267716535432
20
-4.5144094488188973
11
6.1109016929133855
21
-4.5140327952755905
0
LINE
8
BLACK
6
CONTINUOUS
10
6.1109016929133855
20
-4.5140327952755905
11
6.1114343700787401
21
-4.5135001181102359
0
LINE
8
BLACK
6
CONTINUOUS
10
6.1114343700787401
20
-4.5135001181102359
11
6.1118110236220469
21
-4.5134251968503936
0
LINE
8
BLACK
6
CONTINUOUS
10
6.1118110236220469
20
-4.5134251968503936
11
6.1692913385826769
21
-4.5134251968503936
0
LINE
8
BLACK
6
CONTINUOUS
10
6.1692913385826769
20
-4.5134251968503936
11
6.1696679921259845
21
-4.5135001181102359
0
LINE
8
BLACK
6
CONTINUOUS
10
6.1127952755905515
20
-4.5153937007874019
11
6.1127952755905515
21
-4.6299606299212597
0
LINE
8
BLACK
6
CONTINUOUS
10
6.1127952755905515
20
-4.6299606299212597
11
6.1683070866141732
21
-4.6299606299212597
0
LINE
8
BLACK
6
CONTINUOUS
10
6.1683070866141732
20
-4.6299606299212597
11
6.1683070866141732
21
-4.5153937007874019
0
LINE
8
BLACK
6
CONTINUOUS
10
6.1683070866141732
20
-4.5153937007874019
11
6.1127952755905515
21
-4.5153937007874019
0
LINE
8
BLACK
6
CONTINUOUS
10
6.2926443700787402
20
-4.5123505118110234
11
6.293177047244094
21
-4.5128831889763781
0
LINE
8
BLACK
6
CONTINUOUS
10
6.293177047244094
20
-4.5128831889763781
11
6.2932519685039372
21
-4.5132598425196848
0
LINE
8
BLACK
6
CONTINUOUS
10
6.2932519685039372
20
-4.5132598425196848
11
6.2932519685039372
21
-4.5707401574803148
0
LINE
8
BLACK
6
CONTINUOUS
10
6.2932519685039372
20
-4.5707401574803148
11
6.293177047244094
21
-4.5711168110236216
0
LINE
8
BLACK
6
CONTINUOUS
10
6.293177047244094
20
-4.5711168110236216
11
6.2927938582677161
21
-4.5714999999999995
0
LINE
8
BLACK
6
CONTINUOUS
10
6.2927938582677161
20
-4.5714999999999995
11
6.293177047244094
21
-4.5718831889763782
0
LINE
8
BLACK
6
CONTINUOUS
10
6.293177047244094
20
-4.5718831889763782
11
6.2932519685039372
21
-4.572259842519685
0
LINE
8
BLACK
6
CONTINUOUS
10
6.2932519685039372
20
-4.572259842519685
11
6.2932519685039372
21
-4.629740157480315
0
LINE
8
BLACK
6
CONTINUOUS
10
6.2932519685039372
20
-4.629740157480315
11
6.293177047244094
21
-4.6301168110236217
0
LINE
8
BLACK
6
CONTINUOUS
10
6.293177047244094
20
-4.6301168110236217
11
6.2926443700787402
21
-4.6306494881889764
0
LINE
8
BLACK
6
CONTINUOUS
10
6.2926443700787402
20
-4.6306494881889764
11
6.2922677165354326
21
-4.6307244094488187
0
LINE
8
BLACK
6
CONTINUOUS
10
6.2922677165354326
20
-4.6307244094488187
11
6.1757322834645665
21
-4.6307244094488187
0
LINE
8
BLACK
6
CONTINUOUS
10
6.1757322834645665
20
-4.6307244094488187
11
6.1753556299212597
21
-4.6306494881889764
0
LINE
8
BLACK
6
CONTINUOUS
10
6.1753556299212597
20
-4.6306494881889764
11
6.1748229527559051
21
-4.6301168110236217
0
LINE
8
BLACK
6
CONTINUOUS
10
6.1748229527559051
20
-4.6301168110236217
11
6.1747480314960628
21
-4.629740157480315
0
LINE
8
BLACK
6
CONTINUOUS
10
6.1747480314960628
20
-4.629740157480315
11
6.1747480314960628
21
-4.572259842519685
0
LINE
8
BLACK
6
CONTINUOUS
10
6.1747480314960628
20
-4.572259842519685
11
6.1748229527559051
21
-4.5718831889763782
0
LINE
8
BLACK
6
CONTINUOUS
10
6.1748229527559051
20
-4.5718831889763782
11
6.175206141732283
21
-4.5714999999999995
0
LINE
8
BLACK
6
CONTINUOUS
10
6.175206141732283
20
-4.5714999999999995
11
6.1748229527559051
21
-4.5711168110236216
0
LINE
8
BLACK
6
CONTINUOUS
10
6.1748229527559051
20
-4.5711168110236216
11
6.1747480314960628
21
-4.5707401574803148
0
LINE
8
BLACK
6
CONTINUOUS
10
6.1747480314960628
20
-4.5707401574803148
11
6.1747480314960628
21
-4.5132598425196848
0
LINE
8
BLACK
6
CONTINUOUS
10
6.1747480314960628
20
-4.5132598425196848
11
6.1748229527559051
21
-4.5128831889763781
0
LINE
8
BLACK
6
CONTINUOUS
10
6.1748229527559051
20
-4.5128831889763781
11
6.1753556299212597
21
-4.5123505118110234
0
LINE
8
BLACK
6
CONTINUOUS
10
6.1753556299212597
20
-4.5123505118110234
11
6.1757322834645665
21
-4.5122755905511811
0
LINE
8
BLACK
6
CONTINUOUS
10
6.1757322834645665
20
-4.5122755905511811
11
6.2922677165354326
21
-4.5122755905511811
0
LINE
8
BLACK
6
CONTINUOUS
10
6.2922677165354326
20
-4.5122755905511811
11
6.2926443700787402
21
-4.5123505118110234
0
LINE
8
BLACK
6
CONTINUOUS
10
6.1767165354330711
20
-4.5732440944881887
11
6.1767165354330711
21
-4.6287559055118113
0
LINE
8
BLACK
6
CONTINUOUS
10
6.1767165354330711
20
-4.6287559055118113
11
6.2912834645669289
21
-4.6287559055118113
0
LINE
8
BLACK
6
CONTINUOUS
10
6.2912834645669289
20
-4.6287559055118113
11
6.2912834645669289
21
-4.5732440944881887
0
LINE
8
BLACK
6
CONTINUOUS
10
6.2912834645669289
20
-4.5732440944881887
11
6.1767165354330711
21
-4.5732440944881887
0
LINE
8
BLACK
6
CONTINUOUS
10
6.1767165354330711
20
-4.5142440944881885
11
6.1767165354330711
21
-4.5697559055118111
0
LINE
8
BLACK
6
CONTINUOUS
10
6.1767165354330711
20
-4.5697559055118111
11
6.2912834645669289
21
-4.5697559055118111
0
LINE
8
BLACK
6
CONTINUOUS
10
6.2912834645669289
20
-4.5697559055118111
11
6.2912834645669289
21
-4.5142440944881885
0
LINE
8
BLACK
6
CONTINUOUS
10
6.2912834645669289
20
-4.5142440944881885
11
6.1767165354330711
21
-4.5142440944881885
0
LINE
8
BLACK
6
CONTINUOUS
10
6.3541168110236219
20
-4.5118229527559057
11
6.3546494881889766
21
-4.5123556299212595
0
LINE
8
BLACK
6
CONTINUOUS
10
6.3546494881889766
20
-4.5123556299212595
11
6.3547244094488189
21
-4.5127322834645671
0
LINE
8
BLACK
6
CONTINUOUS
10
6.3547244094488189
20
-4.5127322834645671
11
6.3547244094488189
21
-4.6292677165354332
0
LINE
8
BLACK
6
CONTINUOUS
10
6.3547244094488189
20
-4.6292677165354332
11
6.3546494881889766
21
-4.62964437007874
0
LINE
8
BLACK
6
CONTINUOUS
10
6.3546494881889766
20
-4.62964437007874
11
6.3541168110236219
21
-4.6301770472440946
0
LINE
8
BLACK
6
CONTINUOUS
10
6.3541168110236219
20
-4.6301770472440946
11
6.3537401574803152
21
-4.6302519685039369
0
LINE
8
BLACK
6
CONTINUOUS
10
6.3537401574803152
20
-4.6302519685039369
11
6.2962598425196852
21
-4.6302519685039369
0
LINE
8
BLACK
6
CONTINUOUS
10
6.2962598425196852
20
-4.6302519685039369
11
6.2958831889763776
21
-4.6301770472440946
0
LINE
8
BLACK
6
CONTINUOUS
10
6.2958831889763776
20
-4.6301770472440946
11
6.2953505118110238
21
-4.62964437007874
0
LINE
8
BLACK
6
CONTINUOUS
10
6.2953505118110238
20
-4.62964437007874
11
6.2952755905511806
21
-4.6292677165354332
0
LINE
8
BLACK
6
CONTINUOUS
10
6.2952755905511806
20
-4.6292677165354332
11
6.2952755905511806
21
-4.5127322834645671
0
LINE
8
BLACK
6
CONTINUOUS
10
6.2952755905511806
20
-4.5127322834645671
11
6.2953505118110238
21
-4.5123556299212595
0
LINE
8
BLACK
6
CONTINUOUS
10
6.2953505118110238
20
-4.5123556299212595
11
6.2958831889763776
21
-4.5118229527559057
0
LINE
8
BLACK
6
CONTINUOUS
10
6.2958831889763776
20
-4.5118229527559057
11
6.2962598425196852
21
-4.5117480314960625
0
LINE
8
BLACK
6
CONTINUOUS
10
6.2962598425196852
20
-4.5117480314960625
11
6.3537401574803152
21
-4.5117480314960625
0
LINE
8
BLACK
6
CONTINUOUS
10
6.3537401574803152
20
-4.5117480314960625
11
6.3541168110236219
21
-4.5118229527559057
0
LINE
8
BLACK
6
CONTINUOUS
10
6.2972440944881889
20
-4.5137165354330708
11
6.2972440944881889
21
-4.6282834645669286
0
LINE
8
BLACK
6
CONTINUOUS
10
6.2972440944881889
20
-4.6282834645669286
11
6.3527559055118106
21
-4.6282834645669286
0
LINE
8
BLACK
6
CONTINUOUS
10
6.3527559055118106
20
-4.6282834645669286
11
6.3527559055118106
21
-4.5137165354330708
0
LINE
8
BLACK
6
CONTINUOUS
10
6.3527559055118106
20
-4.5137165354330708
11
6.2972440944881889
21
-4.5137165354330708
0
LINE
8
BLACK
6
CONTINUOUS
10
5.6770695669291333
20
-4.5095631102362201
11
5.677602244094488
21
-4.5100957874015748
0
LINE
8
BLACK
6
CONTINUOUS
10
5.677602244094488
20
-4.5100957874015748
11
5.6776771653543303
21
-4.5104724409448815
0
LINE
8
BLACK
6
CONTINUOUS
10
5.6776771653543303
20
-4.5104724409448815
11
5.6776771653543303
21
-4.6270078740157476
0
LINE
8
BLACK
6
CONTINUOUS
10
5.6776771653543303
20
-4.6270078740157476
11
5.677602244094488
21
-4.6273845275590553
0
LINE
8
BLACK
6
CONTINUOUS
10
5.677602244094488
20
-4.6273845275590553
11
5.6770695669291333
21
-4.627917204724409
0
LINE
8
BLACK
6
CONTINUOUS
10
5.6770695669291333
20
-4.627917204724409
11
5.6766929133858266
21
-4.6279921259842522
0
LINE
8
BLACK
6
CONTINUOUS
10
5.6766929133858266
20
-4.6279921259842522
11
5.6192125984251966
21
-4.6279921259842522
0
LINE
8
BLACK
6
CONTINUOUS
10
5.6192125984251966
20
-4.6279921259842522
11
5.6188359448818899
21
-4.627917204724409
0
LINE
8
BLACK
6
CONTINUOUS
10
5.6188359448818899
20
-4.627917204724409
11
5.6183032677165352
21
-4.6273845275590553
0
LINE
8
BLACK
6
CONTINUOUS
10
5.6183032677165352
20
-4.6273845275590553
11
5.6182283464566929
21
-4.6270078740157476
0
LINE
8
BLACK
6
CONTINUOUS
10
5.6182283464566929
20
-4.6270078740157476
11
5.6182283464566929
21
-4.5104724409448815
0
LINE
8
BLACK
6
CONTINUOUS
10
5.6182283464566929
20
-4.5104724409448815
11
5.6183032677165352
21
-4.5100957874015748
0
LINE
8
BLACK
6
CONTINUOUS
10
5.6183032677165352
20
-4.5100957874015748
11
5.6188359448818899
21
-4.5095631102362201
0
LINE
8
BLACK
6
CONTINUOUS
10
5.6188359448818899
20
-4.5095631102362201
11
5.6192125984251966
21
-4.5094881889763778
0
LINE
8
BLACK
6
CONTINUOUS
10
5.6192125984251966
20
-4.5094881889763778
11
5.6766929133858266
21
-4.5094881889763778
0
LINE
8
BLACK
6
CONTINUOUS
10
5.6766929133858266
20
-4.5094881889763778
11
5.6770695669291333
21
-4.5095631102362201
0
LINE
8
BLACK
6
CONTINUOUS
10
5.6201968503937003
20
-4.5114566929133861
11
5.6201968503937003
21
-4.6260236220472439
0
LINE
8
BLACK
6
CONTINUOUS
10
5.6201968503937003
20
-4.6260236220472439
11
5.6757086614173229
21
-4.6260236220472439
0
LINE
8
BLACK
6
CONTINUOUS
10
5.6757086614173229
20
-4.6260236220472439
11
5.6757086614173229
21
-4.5114566929133861
0
LINE
8
BLACK
6
CONTINUOUS
10
5.6757086614173229
20
-4.5114566929133861
11
5.6201968503937003
21
-4.5114566929133861
0
LINE
8
BLACK
6
CONTINUOUS
10
5.7400616929133861
20
-4.5095631102362201
11
5.7405943700787398
21
-4.5100957874015748
0
LINE
8
BLACK
6
CONTINUOUS
10
5.7405943700787398
20
-4.5100957874015748
11
5.7406692913385822
21
-4.5104724409448815
0
LINE
8
BLACK
6
CONTINUOUS
10
5.7406692913385822
20
-4.5104724409448815
11
5.7406692913385822
21
-4.6270078740157476
0
LINE
8
BLACK
6
CONTINUOUS
10
5.7406692913385822
20
-4.6270078740157476
11
5.7405943700787398
21
-4.6273845275590553
0
LINE
8
BLACK
6
CONTINUOUS
10
5.7405943700787398
20
-4.6273845275590553
11
5.7400616929133861
21
-4.627917204724409
0
LINE
8
BLACK
6
CONTINUOUS
10
5.7400616929133861
20
-4.627917204724409
11
5.7396850393700785
21
-4.6279921259842522
0
LINE
8
BLACK
6
CONTINUOUS
10
5.7396850393700785
20
-4.6279921259842522
11
5.6822047244094485
21
-4.6279921259842522
0
LINE
8
BLACK
6
CONTINUOUS
10
5.6822047244094485
20
-4.6279921259842522
11
5.6818280708661417
21
-4.627917204724409
0
LINE
8
BLACK
6
CONTINUOUS
10
5.6818280708661417
20
-4.627917204724409
11
5.6812953937007871
21
-4.6273845275590553
0
LINE
8
BLACK
6
CONTINUOUS
10
5.6812953937007871
20
-4.6273845275590553
11
5.6812204724409447
21
-4.6270078740157476
0
LINE
8
BLACK
6
CONTINUOUS
10
5.6812204724409447
20
-4.6270078740157476
11
5.6812204724409447
21
-4.5104724409448815
0
LINE
8
BLACK
6
CONTINUOUS
10
5.6812204724409447
20
-4.5104724409448815
11
5.6812953937007871
21
-4.5100957874015748
0
LINE
8
BLACK
6
CONTINUOUS
10
5.6812953937007871
20
-4.5100957874015748
11
5.6818280708661417
21
-4.5095631102362201
0
LINE
8
BLACK
6
CONTINUOUS
10
5.6818280708661417
20
-4.5095631102362201
11
5.6822047244094485
21
-4.5094881889763778
0
LINE
8
BLACK
6
CONTINUOUS
10
5.6822047244094485
20
-4.5094881889763778
11
5.7396850393700785
21
-4.5094881889763778
0
LINE
8
BLACK
6
CONTINUOUS
10
5.7396850393700785
20
-4.5094881889763778
11
5.7400616929133861
21
-4.5095631102362201
0
LINE
8
BLACK
6
CONTINUOUS
10
5.6831889763779531
20
-4.5114566929133861
11
5.6831889763779531
21
-4.6260236220472439
0
LINE
8
BLACK
6
CONTINUOUS
10
5.6831889763779531
20
-4.6260236220472439
11
5.7387007874015747
21
-4.6260236220472439
0
LINE
8
BLACK
6
CONTINUOUS
10
5.7387007874015747
20
-4.6260236220472439
11
5.7387007874015747
21
-4.5114566929133861
0
LINE
8
BLACK
6
CONTINUOUS
10
5.7387007874015747
20
-4.5114566929133861
11
5.6831889763779531
21
-4.5114566929133861
0
LINE
8
BLACK
6
CONTINUOUS
10
5.5194514566929129
20
-4.5031851574803152
11
5.5199841338582676
21
-4.503717834645669
0
LINE
8
BLACK
6
CONTINUOUS
10
5.5199841338582676
20
-4.503717834645669
11
5.5200590551181099
21
-4.5040944881889766
0
LINE
8
BLACK
6
CONTINUOUS
10
5.5200590551181099
20
-4.5040944881889766
11
5.5200590551181099
21
-4.5812598425196853
0
LINE
8
BLACK
6
CONTINUOUS
10
5.5200590551181099
20
-4.5812598425196853
11
5.5199841338582676
21
-4.5816364960629921
0
LINE
8
BLACK
6
CONTINUOUS
10
5.5199841338582676
20
-4.5816364960629921
11
5.5194514566929129
21
-4.5821691732283467
0
LINE
8
BLACK
6
CONTINUOUS
10
5.5194514566929129
20
-4.5821691732283467
11
5.5190748031496062
21
-4.582244094488189
0
LINE
8
BLACK
6
CONTINUOUS
10
5.5190748031496062
20
-4.582244094488189
11
5.385216535433071
21
-4.582244094488189
0
LINE
8
BLACK
6
CONTINUOUS
10
5.385216535433071
20
-4.582244094488189
11
5.3848398818897634
21
-4.5821691732283467
0
LINE
8
BLACK
6
CONTINUOUS
10
5.3848398818897634
20
-4.5821691732283467
11
5.3843072047244096
21
-4.5816364960629921
0
LINE
8
BLACK
6
CONTINUOUS
10
5.3843072047244096
20
-4.5816364960629921
11
5.3842322834645664
21
-4.5812598425196853
0
LINE
8
BLACK
6
CONTINUOUS
10
5.3842322834645664
20
-4.5812598425196853
11
5.3842322834645664
21
-4.5040944881889766
0
LINE
8
BLACK
6
CONTINUOUS
10
5.3842322834645664
20
-4.5040944881889766
11
5.3843072047244096
21
-4.503717834645669
0
LINE
8
BLACK
6
CONTINUOUS
10
5.3843072047244096
20
-4.503717834645669
11
5.3848398818897634
21
-4.5031851574803152
0
LINE
8
BLACK
6
CONTINUOUS
10
5.3848398818897634
20
-4.5031851574803152
11
5.385216535433071
21
-4.503110236220472
0
LINE
8
BLACK
6
CONTINUOUS
10
5.385216535433071
20
-4.503110236220472
11
5.5190748031496062
21
-4.503110236220472
0
LINE
8
BLACK
6
CONTINUOUS
10
5.5190748031496062
20
-4.503110236220472
11
5.5194514566929129
21
-4.5031851574803152
0
LINE
8
BLACK
6
CONTINUOUS
10
5.3862007874015747
20
-4.5050787401574803
11
5.3862007874015747
21
-4.5802755905511807
0
LINE
8
BLACK
6
CONTINUOUS
10
5.3862007874015747
20
-4.5802755905511807
11
5.5180905511811025
21
-4.5802755905511807
0
LINE
8
BLACK
6
CONTINUOUS
10
5.5180905511811025
20
-4.5802755905511807
11
5.5180905511811025
21
-4.5050787401574803
0
LINE
8
BLACK
6
CONTINUOUS
10
5.5180905511811025
20
-4.5050787401574803
11
5.3862007874015747
21
-4.5050787401574803
0
LINE
8
BLACK
6
CONTINUOUS
10
5.5837624803149604
20
-4.4500355511811023
11
5.584295157480315
21
-4.4505682283464569
0
LINE
8
BLACK
6
CONTINUOUS
10
5.584295157480315
20
-4.4505682283464569
11
5.5843700787401573
21
-4.4509448818897637
0
LINE
8
BLACK
6
CONTINUOUS
10
5.5843700787401573
20
-4.4509448818897637
11
5.5843700787401573
21
-4.5674803149606298
0
LINE
8
BLACK
6
CONTINUOUS
10
5.5843700787401573
20
-4.5674803149606298
11
5.584295157480315
21
-4.5678569685039365
0
LINE
8
BLACK
6
CONTINUOUS
10
5.584295157480315
20
-4.5678569685039365
11
5.5837624803149604
21
-4.5683896456692912
0
LINE
8
BLACK
6
CONTINUOUS
10
5.5837624803149604
20
-4.5683896456692912
11
5.5833858267716536
21
-4.5684645669291335
0
LINE
8
BLACK
6
CONTINUOUS
10
5.5833858267716536
20
-4.5684645669291335
11
5.5259055118110236
21
-4.5684645669291335
0
LINE
8
BLACK
6
CONTINUOUS
10
5.5259055118110236
20
-4.5684645669291335
11
5.525528858267716
21
-4.5683896456692912
0
LINE
8
BLACK
6
CONTINUOUS
10
5.525528858267716
20
-4.5683896456692912
11
5.5249961811023622
21
-4.5678569685039365
0
LINE
8
BLACK
6
CONTINUOUS
10
5.5249961811023622
20
-4.5678569685039365
11
5.5249212598425199
21
-4.5674803149606298
0
LINE
8
BLACK
6
CONTINUOUS
10
5.5249212598425199
20
-4.5674803149606298
11
5.5249212598425199
21
-4.4509448818897637
0
LINE
8
BLACK
6
CONTINUOUS
10
5.5249212598425199
20
-4.4509448818897637
11
5.5249961811023622
21
-4.4505682283464569
0
LINE
8
BLACK
6
CONTINUOUS
10
5.5249961811023622
20
-4.4505682283464569
11
5.525528858267716
21
-4.4500355511811023
0
LINE
8
BLACK
6
CONTINUOUS
10
5.525528858267716
20
-4.4500355511811023
11
5.5259055118110236
21
-4.44996062992126
0
LINE
8
BLACK
6
CONTINUOUS
10
5.5259055118110236
20
-4.44996062992126
11
5.5833858267716536
21
-4.44996062992126
0
LINE
8
BLACK
6
CONTINUOUS
10
5.5833858267716536
20
-4.44996062992126
11
5.5837624803149604
21
-4.4500355511811023
0
LINE
8
BLACK
6
CONTINUOUS
10
5.5268897637795273
20
-4.4519291338582674
11
5.5268897637795273
21
-4.5664960629921261
0
LINE
8
BLACK
6
CONTINUOUS
10
5.5268897637795273
20
-4.5664960629921261
11
5.5824015748031499
21
-4.5664960629921261
0
LINE
8
BLACK
6
CONTINUOUS
10
5.5824015748031499
20
-4.5664960629921261
11
5.5824015748031499
21
-4.4519291338582674
0
LINE
8
BLACK
6
CONTINUOUS
10
5.5824015748031499
20
-4.4519291338582674
11
5.5268897637795273
21
-4.4519291338582674
0
LINE
8
BLACK
6
CONTINUOUS
10
6.7926443700787402
20
-4.4963505118110234
11
6.793177047244094
21
-4.4968831889763781
0
LINE
8
BLACK
6
CONTINUOUS
10
6.793177047244094
20
-4.4968831889763781
11
6.7932519685039372
21
-4.4972598425196848
0
LINE
8
BLACK
6
CONTINUOUS
10
6.7932519685039372
20
-4.4972598425196848
11
6.7932519685039372
21
-4.5547401574803148
0
LINE
8
BLACK
6
CONTINUOUS
10
6.7932519685039372
20
-4.5547401574803148
11
6.793177047244094
21
-4.5551168110236215
0
LINE
8
BLACK
6
CONTINUOUS
10
6.793177047244094
20
-4.5551168110236215
11
6.7926443700787402
21
-4.5556494881889762
0
LINE
8
BLACK
6
CONTINUOUS
10
6.7926443700787402
20
-4.5556494881889762
11
6.7922677165354326
21
-4.5557244094488185
0
LINE
8
BLACK
6
CONTINUOUS
10
6.7922677165354326
20
-4.5557244094488185
11
6.6757322834645665
21
-4.5557244094488185
0
LINE
8
BLACK
6
CONTINUOUS
10
6.6757322834645665
20
-4.5557244094488185
11
6.6753556299212597
21
-4.5556494881889762
0
LINE
8
BLACK
6
CONTINUOUS
10
6.6753556299212597
20
-4.5556494881889762
11
6.6748229527559051
21
-4.5551168110236215
0
LINE
8
BLACK
6
CONTINUOUS
10
6.6748229527559051
20
-4.5551168110236215
11
6.6747480314960628
21
-4.5547401574803148
0
LINE
8
BLACK
6
CONTINUOUS
10
6.6747480314960628
20
-4.5547401574803148
11
6.6747480314960628
21
-4.4972598425196848
0
LINE
8
BLACK
6
CONTINUOUS
10
6.6747480314960628
20
-4.4972598425196848
11
6.6748229527559051
21
-4.4968831889763781
0
LINE
8
BLACK
6
CONTINUOUS
10
6.6748229527559051
20
-4.4968831889763781
11
6.6753556299212597
21
-4.4963505118110234
0
LINE
8
BLACK
6
CONTINUOUS
10
6.6753556299212597
20
-4.4963505118110234
11
6.6757322834645665
21
-4.4962755905511811
0
LINE
8
BLACK
6
CONTINUOUS
10
6.6757322834645665
20
-4.4962755905511811
11
6.7922677165354326
21
-4.4962755905511811
0
LINE
8
BLACK
6
CONTINUOUS
10
6.7922677165354326
20
-4.4962755905511811
11
6.7926443700787402
21
-4.4963505118110234
0
LINE
8
BLACK
6
CONTINUOUS
10
6.6767165354330711
20
-4.4982440944881885
11
6.6767165354330711
21
-4.5537559055118111
0
LINE
8
BLACK
6
CONTINUOUS
10
6.6767165354330711
20
-4.5537559055118111
11
6.7912834645669289
21
-4.5537559055118111
0
LINE
8
BLACK
6
CONTINUOUS
10
6.7912834645669289
20
-4.5537559055118111
11
6.7912834645669289
21
-4.4982440944881885
0
LINE
8
BLACK
6
CONTINUOUS
10
6.7912834645669289
20
-4.4982440944881885
11
6.6767165354330711
21
-4.4982440944881885
0
LINE
8
BLACK
6
CONTINUOUS
10
6.6731168110236219
20
-4.4318229527559057
11
6.6736494881889765
21
-4.4323556299212594
0
LINE
8
BLACK
6
CONTINUOUS
10
6.6736494881889765
20
-4.4323556299212594
11
6.6737244094488188
21
-4.432732283464567
0
LINE
8
BLACK
6
CONTINUOUS
10
6.6737244094488188
20
-4.432732283464567
11
6.6737244094488188
21
-4.5492677165354332
0
LINE
8
BLACK
6
CONTINUOUS
10
6.6737244094488188
20
-4.5492677165354332
11
6.6736494881889765
21
-4.5496443700787399
0
LINE
8
BLACK
6
CONTINUOUS
10
6.6736494881889765
20
-4.5496443700787399
11
6.6731168110236219
21
-4.5501770472440946
0
LINE
8
BLACK
6
CONTINUOUS
10
6.6731168110236219
20
-4.5501770472440946
11
6.6727401574803151
21
-4.5502519685039369
0
LINE
8
BLACK
6
CONTINUOUS
10
6.6727401574803151
20
-4.5502519685039369
11
6.6152598425196851
21
-4.5502519685039369
0
LINE
8
BLACK
6
CONTINUOUS
10
6.6152598425196851
20
-4.5502519685039369
11
6.6148831889763775
21
-4.5501770472440946
0
LINE
8
BLACK
6
CONTINUOUS
10
6.6148831889763775
20
-4.5501770472440946
11
6.6143505118110237
21
-4.5496443700787399
0
LINE
8
BLACK
6
CONTINUOUS
10
6.6143505118110237
20
-4.5496443700787399
11
6.6142755905511805
21
-4.5492677165354332
0
LINE
8
BLACK
6
CONTINUOUS
10
6.6142755905511805
20
-4.5492677165354332
11
6.6142755905511805
21
-4.432732283464567
0
LINE
8
BLACK
6
CONTINUOUS
10
6.6142755905511805
20
-4.432732283464567
11
6.6143505118110237
21
-4.4323556299212594
0
LINE
8
BLACK
6
CONTINUOUS
10
6.6143505118110237
20
-4.4323556299212594
11
6.6148831889763775
21
-4.4318229527559057
0
LINE
8
BLACK
6
CONTINUOUS
10
6.6148831889763775
20
-4.4318229527559057
11
6.6152598425196851
21
-4.4317480314960633
0
LINE
8
BLACK
6
CONTINUOUS
10
6.6152598425196851
20
-4.4317480314960633
11
6.6727401574803151
21
-4.4317480314960633
0
LINE
8
BLACK
6
CONTINUOUS
10
6.6727401574803151
20
-4.4317480314960633
11
6.6731168110236219
21
-4.4318229527559057
0
LINE
8
BLACK
6
CONTINUOUS
10
6.6162440944881888
20
-4.4337165354330708
11
6.6162440944881888
21
-4.5482834645669294
0
LINE
8
BLACK
6
CONTINUOUS
10
6.6162440944881888
20
-4.5482834645669294
11
6.6717559055118105
21
-4.5482834645669294
0
LINE
8
BLACK
6
CONTINUOUS
10
6.6717559055118105
20
-4.5482834645669294
11
6.6717559055118105
21
-4.4337165354330708
0
LINE
8
BLACK
6
CONTINUOUS
10
6.6717559055118105
20
-4.4337165354330708
11
6.6162440944881888
21
-4.4337165354330708
0
LINE
8
BLACK
6
CONTINUOUS
10
5.7953372834645664
20
-4.4048780708661415
11
5.7958699606299211
21
-4.4054107480314961
0
LINE
8
BLACK
6
CONTINUOUS
10
5.7958699606299211
20
-4.4054107480314961
11
5.7959448818897634
21
-4.4057874015748029
0
LINE
8
BLACK
6
CONTINUOUS
10
5.7959448818897634
20
-4.4057874015748029
11
5.7959448818897634
21
-4.5042125984251964
0
LINE
8
BLACK
6
CONTINUOUS
10
5.7959448818897634
20
-4.5042125984251964
11
5.7958699606299211
21
-4.504589251968504
0
LINE
8
BLACK
6
CONTINUOUS
10
5.7958699606299211
20
-4.504589251968504
11
5.7953372834645664
21
-4.5051219291338578
0
LINE
8
BLACK
6
CONTINUOUS
10
5.7953372834645664
20
-4.5051219291338578
11
5.7949606299212597
21
-4.505196850393701
0
LINE
8
BLACK
6
CONTINUOUS
10
5.7949606299212597
20
-4.505196850393701
11
5.6650393700787403
21
-4.505196850393701
0
LINE
8
BLACK
6
CONTINUOUS
10
5.6650393700787403
20
-4.505196850393701
11
5.6646627165354326
21
-4.5051219291338578
0
LINE
8
BLACK
6
CONTINUOUS
10
5.6646627165354326
20
-4.5051219291338578
11
5.6641300393700789
21
-4.504589251968504
0
LINE
8
BLACK
6
CONTINUOUS
10
5.6641300393700789
20
-4.504589251968504
11
5.6640551181102357
21
-4.5042125984251964
0
LINE
8
BLACK
6
CONTINUOUS
10
5.6640551181102357
20
-4.5042125984251964
11
5.6640551181102357
21
-4.4057874015748029
0
LINE
8
BLACK
6
CONTINUOUS
10
5.6640551181102357
20
-4.4057874015748029
11
5.6641300393700789
21
-4.4054107480314961
0
LINE
8
BLACK
6
CONTINUOUS
10
5.6641300393700789
20
-4.4054107480314961
11
5.6646627165354326
21
-4.4048780708661415
0
LINE
8
BLACK
6
CONTINUOUS
10
5.6646627165354326
20
-4.4048780708661415
11
5.6650393700787403
21
-4.4048031496062992
0
LINE
8
BLACK
6
CONTINUOUS
10
5.6650393700787403
20
-4.4048031496062992
11
5.7949606299212597
21
-4.4048031496062992
0
LINE
8
BLACK
6
CONTINUOUS
10
5.7949606299212597
20
-4.4048031496062992
11
5.7953372834645664
21
-4.4048780708661415
0
LINE
8
BLACK
6
CONTINUOUS
10
5.666023622047244
20
-4.4067716535433066
11
5.666023622047244
21
-4.5032283464566927
0
LINE
8
BLACK
6
CONTINUOUS
10
5.666023622047244
20
-4.5032283464566927
11
5.793976377952756
21
-4.5032283464566927
0
LINE
8
BLACK
6
CONTINUOUS
10
5.793976377952756
20
-4.5032283464566927
11
5.793976377952756
21
-4.4067716535433066
0
LINE
8
BLACK
6
CONTINUOUS
10
5.793976377952756
20
-4.4067716535433066
11
5.666023622047244
21
-4.4067716535433066
0
LINE
8
BLACK
6
CONTINUOUS
10
5.935494763779527
20
-4.3360985433070862
11
5.9360274409448817
21
-4.3366312204724409
0
LINE
8
BLACK
6
CONTINUOUS
10
5.9360274409448817
20
-4.3366312204724409
11
5.936102362204724
21
-4.3370078740157476
0
LINE
8
BLACK
6
CONTINUOUS
10
5.936102362204724
20
-4.3370078740157476
11
5.936102362204724
21
-4.4629921259842522
0
LINE
8
BLACK
6
CONTINUOUS
10
5.936102362204724
20
-4.4629921259842522
11
5.9360274409448817
21
-4.4633687795275589
0
LINE
8
BLACK
6
CONTINUOUS
10
5.9360274409448817
20
-4.4633687795275589
11
5.935494763779527
21
-4.4639014566929136
0
LINE
8
BLACK
6
CONTINUOUS
10
5.935494763779527
20
-4.4639014566929136
11
5.9351181102362203
21
-4.4639763779527559
0
LINE
8
BLACK
6
CONTINUOUS
10
5.9351181102362203
20
-4.4639763779527559
11
5.8248818897637795
21
-4.4639763779527559
0
LINE
8
BLACK
6
CONTINUOUS
10
5.8248818897637795
20
-4.4639763779527559
11
5.8245052362204719
21
-4.4639014566929136
0
LINE
8
BLACK
6
CONTINUOUS
10
5.8245052362204719
20
-4.4639014566929136
11
5.8239725590551181
21
-4.4633687795275589
0
LINE
8
BLACK
6
CONTINUOUS
10
5.8239725590551181
20
-4.4633687795275589
11
5.8238976377952758
21
-4.4629921259842522
0
LINE
8
BLACK
6
CONTINUOUS
10
5.8238976377952758
20
-4.4629921259842522
11
5.8238976377952758
21
-4.3370078740157476
0
LINE
8
BLACK
6
CONTINUOUS
10
5.8238976377952758
20
-4.3370078740157476
11
5.8239725590551181
21
-4.3366312204724409
0
LINE
8
BLACK
6
CONTINUOUS
10
5.8239725590551181
20
-4.3366312204724409
11
5.8245052362204719
21
-4.3360985433070862
0
LINE
8
BLACK
6
CONTINUOUS
10
5.8245052362204719
20
-4.3360985433070862
11
5.8248818897637795
21
-4.3360236220472439
0
LINE
8
BLACK
6
CONTINUOUS
10
5.8248818897637795
20
-4.3360236220472439
11
5.9351181102362203
21
-4.3360236220472439
0
LINE
8
BLACK
6
CONTINUOUS
10
5.9351181102362203
20
-4.3360236220472439
11
5.935494763779527
21
-4.3360985433070862
0
LINE
8
BLACK
6
CONTINUOUS
10
5.8258661417322832
20
-4.3379921259842522
11
5.8258661417322832
21
-4.4620078740157476
0
LINE
8
BLACK
6
CONTINUOUS
10
5.8258661417322832
20
-4.4620078740157476
11
5.9341338582677166
21
-4.4620078740157476
0
LINE
8
BLACK
6
CONTINUOUS
10
5.9341338582677166
20
-4.4620078740157476
11
5.9341338582677166
21
-4.3379921259842522
0
LINE
8
BLACK
6
CONTINUOUS
10
5.9341338582677166
20
-4.3379921259842522
11
5.8258661417322832
21
-4.3379921259842522
0
LINE
8
BLACK
6
CONTINUOUS
10
5.4842349212598425
20
-4.4022087795275588
11
5.4847675984251971
21
-4.4027414566929135
0
LINE
8
BLACK
6
CONTINUOUS
10
5.4847675984251971
20
-4.4027414566929135
11
5.4848425196850394
21
-4.4031181102362202
0
LINE
8
BLACK
6
CONTINUOUS
10
5.4848425196850394
20
-4.4031181102362202
11
5.4848425196850394
21
-4.4582362204724406
0
LINE
8
BLACK
6
CONTINUOUS
10
5.4848425196850394
20
-4.4582362204724406
11
5.4847675984251971
21
-4.4586128740157482
0
LINE
8
BLACK
6
CONTINUOUS
10
5.4847675984251971
20
-4.4586128740157482
11
5.4842349212598425
21
-4.459145551181102
0
LINE
8
BLACK
6
CONTINUOUS
10
5.4842349212598425
20
-4.459145551181102
11
5.4838582677165357
21
-4.4592204724409452
0
LINE
8
BLACK
6
CONTINUOUS
10
5.4838582677165357
20
-4.4592204724409452
11
5.3854330708661413
21
-4.4592204724409452
0
LINE
8
BLACK
6
CONTINUOUS
10
5.3854330708661413
20
-4.4592204724409452
11
5.3850564173228346
21
-4.459145551181102
0
LINE
8
BLACK
6
CONTINUOUS
10
5.3850564173228346
20
-4.459145551181102
11
5.3845237401574799
21
-4.4586128740157482
0
LINE
8
BLACK
6
CONTINUOUS
10
5.3845237401574799
20
-4.4586128740157482
11
5.3844488188976376
21
-4.4582362204724406
0
LINE
8
BLACK
6
CONTINUOUS
10
5.3844488188976376
20
-4.4582362204724406
11
5.3844488188976376
21
-4.4031181102362202
0
LINE
8
BLACK
6
CONTINUOUS
10
5.3844488188976376
20
-4.4031181102362202
11
5.3845237401574799
21
-4.4027414566929135
0
LINE
8
BLACK
6
CONTINUOUS
10
5.3845237401574799
20
-4.4027414566929135
11
5.3850564173228346
21
-4.4022087795275588
0
LINE
8
BLACK
6
CONTINUOUS
10
5.3850564173228346
20
-4.4022087795275588
11
5.3854330708661413
21
-4.4021338582677165
0
LINE
8
BLACK
6
CONTINUOUS
10
5.3854330708661413
20
-4.4021338582677165
11
5.4838582677165357
21
-4.4021338582677165
0
LINE
8
BLACK
6
CONTINUOUS
10
5.4838582677165357
20
-4.4021338582677165
11
5.4842349212598425
21
-4.4022087795275588
0
LINE
8
BLACK
6
CONTINUOUS
10
5.3864173228346459
20
-4.404102362204724
11
5.3864173228346459
21
-4.4572519685039369
0
LINE
8
BLACK
6
CONTINUOUS
10
5.3864173228346459
20
-4.4572519685039369
11
5.4828740157480311
21
-4.4572519685039369
0
LINE
8
BLACK
6
CONTINUOUS
10
5.4828740157480311
20
-4.4572519685039369
11
5.4828740157480311
21
-4.404102362204724
0
LINE
8
BLACK
6
CONTINUOUS
10
5.4828740157480311
20
-4.404102362204724
11
5.3864173228346459
21
-4.404102362204724
0
LINE
8
BLACK
6
CONTINUOUS
10
5.7886443700787398
20
-4.3403505118110237
11
5.7891770472440944
21
-4.3408831889763775
0
LINE
8
BLACK
6
CONTINUOUS
10
5.7891770472440944
20
-4.3408831889763775
11
5.7892519685039368
21
-4.3412598425196851
0
LINE
8
BLACK
6
CONTINUOUS
10
5.7892519685039368
20
-4.3412598425196851
11
5.7892519685039368
21
-4.3987401574803151
0
LINE
8
BLACK
6
CONTINUOUS
10
5.7892519685039368
20
-4.3987401574803151
11
5.7891770472440944
21
-4.3991168110236218
0
LINE
8
BLACK
6
CONTINUOUS
10
5.7891770472440944
20
-4.3991168110236218
11
5.7886443700787398
21
-4.3996494881889765
0
LINE
8
BLACK
6
CONTINUOUS
10
5.7886443700787398
20
-4.3996494881889765
11
5.788267716535433
21
-4.3997244094488188
0
LINE
8
BLACK
6
CONTINUOUS
10
5.788267716535433
20
-4.3997244094488188
11
5.6717322834645669
21
-4.3997244094488188
0
LINE
8
BLACK
6
CONTINUOUS
10
5.6717322834645669
20
-4.3997244094488188
11
5.6713556299212593
21
-4.3996494881889765
0
LINE
8
BLACK
6
CONTINUOUS
10
5.6713556299212593
20
-4.3996494881889765
11
5.6708229527559055
21
-4.3991168110236218
0
LINE
8
BLACK
6
CONTINUOUS
10
5.6708229527559055
20
-4.3991168110236218
11
5.6707480314960632
21
-4.3987401574803151
0
LINE
8
BLACK
6
CONTINUOUS
10
5.6707480314960632
20
-4.3987401574803151
11
5.6707480314960632
21
-4.3412598425196851
0
LINE
8
BLACK
6
CONTINUOUS
10
5.6707480314960632
20
-4.3412598425196851
11
5.6708229527559055
21
-4.3408831889763775
0
LINE
8
BLACK
6
CONTINUOUS
10
5.6708229527559055
20
-4.3408831889763775
11
5.6713556299212593
21
-4.3403505118110237
0
LINE
8
BLACK
6
CONTINUOUS
10
5.6713556299212593
20
-4.3403505118110237
11
5.6717322834645669
21
-4.3402755905511814
0
LINE
8
BLACK
6
CONTINUOUS
10
5.6717322834645669
20
-4.3402755905511814
11
5.788267716535433
21
-4.3402755905511814
0
LINE
8
BLACK
6
CONTINUOUS
10
5.788267716535433
20
-4.3402755905511814
11
5.7886443700787398
21
-4.3403505118110237
0
LINE
8
BLACK
6
CONTINUOUS
10
5.6727165354330706
20
-4.3422440944881888
11
5.6727165354330706
21
-4.3977559055118105
0
LINE
8
BLACK
6
CONTINUOUS
10
5.6727165354330706
20
-4.3977559055118105
11
5.7872834645669293
21
-4.3977559055118105
0
LINE
8
BLACK
6
CONTINUOUS
10
5.7872834645669293
20
-4.3977559055118105
11
5.7872834645669293
21
-4.3422440944881888
0
LINE
8
BLACK
6
CONTINUOUS
10
5.7872834645669293
20
-4.3422440944881888
11
5.6727165354330706
21
-4.3422440944881888
0
LINE
8
BLACK
6
CONTINUOUS
10
5.7886443700787398
20
-4.2803505118110232
11
5.7891770472440944
21
-4.2808831889763779
0
LINE
8
BLACK
6
CONTINUOUS
10
5.7891770472440944
20
-4.2808831889763779
11
5.7892519685039368
21
-4.2812598425196846
0
LINE
8
BLACK
6
CONTINUOUS
10
5.7892519685039368
20
-4.2812598425196846
11
5.7892519685039368
21
-4.3387401574803146
0
LINE
8
BLACK
6
CONTINUOUS
10
5.7892519685039368
20
-4.3387401574803146
11
5.7891770472440944
21
-4.3391168110236222
0
LINE
8
BLACK
6
CONTINUOUS
10
5.7891770472440944
20
-4.3391168110236222
11
5.7886443700787398
21
-4.339649488188976
0
LINE
8
BLACK
6
CONTINUOUS
10
5.7886443700787398
20
-4.339649488188976
11
5.788267716535433
21
-4.3397244094488192
0
LINE
8
BLACK
6
CONTINUOUS
10
5.788267716535433
20
-4.3397244094488192
11
5.6717322834645669
21
-4.3397244094488192
0
LINE
8
BLACK
6
CONTINUOUS
10
5.6717322834645669
20
-4.3397244094488192
11
5.6713556299212593
21
-4.339649488188976
0
LINE
8
BLACK
6
CONTINUOUS
10
5.6713556299212593
20
-4.339649488188976
11
5.6708229527559055
21
-4.3391168110236222
0
LINE
8
BLACK
6
CONTINUOUS
10
5.6708229527559055
20
-4.3391168110236222
11
5.6707480314960632
21
-4.3387401574803146
0
LINE
8
BLACK
6
CONTINUOUS
10
5.6707480314960632
20
-4.3387401574803146
11
5.6707480314960632
21
-4.2812598425196846
0
LINE
8
BLACK
6
CONTINUOUS
10
5.6707480314960632
20
-4.2812598425196846
11
5.6708229527559055
21
-4.2808831889763779
0
LINE
8
BLACK
6
CONTINUOUS
10
5.6708229527559055
20
-4.2808831889763779
11
5.6713556299212593
21
-4.2803505118110232
0
LINE
8
BLACK
6
CONTINUOUS
10
5.6713556299212593
20
-4.2803505118110232
11
5.6717322834645669
21
-4.2802755905511809
0
LINE
8
BLACK
6
CONTINUOUS
10
5.6717322834645669
20
-4.2802755905511809
11
5.788267716535433
21
-4.2802755905511809
0
LINE
8
BLACK
6
CONTINUOUS
10
5.788267716535433
20
-4.2802755905511809
11
5.7886443700787398
21
-4.2803505118110232
0
LINE
8
BLACK
6
CONTINUOUS
10
5.6727165354330706
20
-4.2822440944881892
11
5.6727165354330706
21
-4.3377559055118109
0
LINE
8
BLACK
6
CONTINUOUS
10
5.6727165354330706
20
-4.3377559055118109
11
5.7872834645669293
21
-4.3377559055118109
0
LINE
8
BLACK
6
CONTINUOUS
10
5.7872834645669293
20
-4.3377559055118109
11
5.7872834645669293
21
-4.2822440944881892
0
LINE
8
BLACK
6
CONTINUOUS
10
5.7872834645669293
20
-4.2822440944881892
11
5.6727165354330706
21
-4.2822440944881892
0
LINE
8
BLACK
6
CONTINUOUS
10
5.9041168110236217
20
-4.1708229527559055
11
5.9046494881889764
21
-4.1713556299212602
0
LINE
8
BLACK
6
CONTINUOUS
10
5.9046494881889764
20
-4.1713556299212602
11
5.9047244094488187
21
-4.1717322834645669
0
LINE
8
BLACK
6
CONTINUOUS
10
5.9047244094488187
20
-4.1717322834645669
11
5.9047244094488187
21
-4.288267716535433
0
LINE
8
BLACK
6
CONTINUOUS
10
5.9047244094488187
20
-4.288267716535433
11
5.9046494881889764
21
-4.2886443700787398
0
LINE
8
BLACK
6
CONTINUOUS
10
5.9046494881889764
20
-4.2886443700787398
11
5.9041168110236217
21
-4.2891770472440944
0
LINE
8
BLACK
6
CONTINUOUS
10
5.9041168110236217
20
-4.2891770472440944
11
5.903740157480315
21
-4.2892519685039368
0
LINE
8
BLACK
6
CONTINUOUS
10
5.903740157480315
20
-4.2892519685039368
11
5.846259842519685
21
-4.2892519685039368
0
LINE
8
BLACK
6
CONTINUOUS
10
5.846259842519685
20
-4.2892519685039368
11
5.8458831889763774
21
-4.2891770472440944
0
LINE
8
BLACK
6
CONTINUOUS
10
5.8458831889763774
20
-4.2891770472440944
11
5.8453505118110236
21
-4.2886443700787398
0
LINE
8
BLACK
6
CONTINUOUS
10
5.8453505118110236
20
-4.2886443700787398
11
5.8452755905511813
21
-4.288267716535433
0
LINE
8
BLACK
6
CONTINUOUS
10
5.8452755905511813
20
-4.288267716535433
11
5.8452755905511813
21
-4.1717322834645669
0
LINE
8
BLACK
6
CONTINUOUS
10
5.8452755905511813
20
-4.1717322834645669
11
5.8453505118110236
21
-4.1713556299212602
0
LINE
8
BLACK
6
CONTINUOUS
10
5.8453505118110236
20
-4.1713556299212602
11
5.8458831889763774
21
-4.1708229527559055
0
LINE
8
BLACK
6
CONTINUOUS
10
5.8458831889763774
20
-4.1708229527559055
11
5.846259842519685
21
-4.1707480314960632
0
LINE
8
BLACK
6
CONTINUOUS
10
5.846259842519685
20
-4.1707480314960632
11
5.903740157480315
21
-4.1707480314960632
0
LINE
8
BLACK
6
CONTINUOUS
10
5.903740157480315
20
-4.1707480314960632
11
5.9041168110236217
21
-4.1708229527559055
0
LINE
8
BLACK
6
CONTINUOUS
10
5.8472440944881887
20
-4.1727165354330706
11
5.8472440944881887
21
-4.2872834645669293
0
LINE
8
BLACK
6
CONTINUOUS
10
5.8472440944881887
20
-4.2872834645669293
11
5.9027559055118113
21
-4.2872834645669293
0
LINE
8
BLACK
6
CONTINUOUS
10
5.9027559055118113
20
-4.2872834645669293
11
5.9027559055118113
21
-4.1727165354330706
0
LINE
8
BLACK
6
CONTINUOUS
10
5.9027559055118113
20
-4.1727165354330706
11
5.8472440944881887
21
-4.1727165354330706
0
LINE
8
BLACK
6
CONTINUOUS
10
5.9641168110236222
20
-4.1708229527559055
11
5.964649488188976
21
-4.1713556299212602
0
LINE
8
BLACK
6
CONTINUOUS
10
5.964649488188976
20
-4.1713556299212602
11
5.9647244094488183
21
-4.1717322834645669
0
LINE
8
BLACK
6
CONTINUOUS
10
5.9647244094488183
20
-4.1717322834645669
11
5.9647244094488183
21
-4.288267716535433
0
LINE
8
BLACK
6
CONTINUOUS
10
5.9647244094488183
20
-4.288267716535433
11
5.964649488188976
21
-4.2886443700787398
0
LINE
8
BLACK
6
CONTINUOUS
10
5.964649488188976
20
-4.2886443700787398
11
5.9641168110236222
21
-4.2891770472440944
0
LINE
8
BLACK
6
CONTINUOUS
10
5.9641168110236222
20
-4.2891770472440944
11
5.9637401574803146
21
-4.2892519685039368
0
LINE
8
BLACK
6
CONTINUOUS
10
5.9637401574803146
20
-4.2892519685039368
11
5.9062598425196846
21
-4.2892519685039368
0
LINE
8
BLACK
6
CONTINUOUS
10
5.9062598425196846
20
-4.2892519685039368
11
5.9058831889763779
21
-4.2891770472440944
0
LINE
8
BLACK
6
CONTINUOUS
10
5.9058831889763779
20
-4.2891770472440944
11
5.9053505118110232
21
-4.2886443700787398
0
LINE
8
BLACK
6
CONTINUOUS
10
5.9053505118110232
20
-4.2886443700787398
11
5.9052755905511809
21
-4.288267716535433
0
LINE
8
BLACK
6
CONTINUOUS
10
5.9052755905511809
20
-4.288267716535433
11
5.9052755905511809
21
-4.1717322834645669
0
LINE
8
BLACK
6
CONTINUOUS
10
5.9052755905511809
20
-4.1717322834645669
11
5.9053505118110232
21
-4.1713556299212602
0
LINE
8
BLACK
6
CONTINUOUS
10
5.9053505118110232
20
-4.1713556299212602
11
5.9058831889763779
21
-4.1708229527559055
0
LINE
8
BLACK
6
CONTINUOUS
10
5.9058831889763779
20
-4.1708229527559055
11
5.9062598425196846
21
-4.1707480314960632
0
LINE
8
BLACK
6
CONTINUOUS
10
5.9062598425196846
20
-4.1707480314960632
11
5.9637401574803146
21
-4.1707480314960632
0
LINE
8
BLACK
6
CONTINUOUS
10
5.9637401574803146
20
-4.1707480314960632
11
5.9641168110236222
21
-4.1708229527559055
0
LINE
8
BLACK
6
CONTINUOUS
10
5.9072440944881892
20
-4.1727165354330706
11
5.9072440944881892
21
-4.2872834645669293
0
LINE
8
BLACK
6
CONTINUOUS
10
5.9072440944881892
20
-4.2872834645669293
11
5.9627559055118109
21
-4.2872834645669293
0
LINE
8
BLACK
6
CONTINUOUS
10
5.9627559055118109
20
-4.2872834645669293
11
5.9627559055118109
21
-4.1727165354330706
0
LINE
8
BLACK
6
CONTINUOUS
10
5.9627559055118109
20
-4.1727165354330706
11
5.9072440944881892
21
-4.1727165354330706
0
LINE
8
BLACK
6
CONTINUOUS
10
6.0241168110236218
20
-4.1708229527559055
11
6.0246494881889765
21
-4.1713556299212602
0
LINE
8
BLACK
6
CONTINUOUS
10
6.0246494881889765
20
-4.1713556299212602
11
6.0247244094488188
21
-4.1717322834645669
0
LINE
8
BLACK
6
CONTINUOUS
10
6.0247244094488188
20
-4.1717322834645669
11
6.0247244094488188
21
-4.288267716535433
0
LINE
8
BLACK
6
CONTINUOUS
10
6.0247244094488188
20
-4.288267716535433
11
6.0246494881889765
21
-4.2886443700787398
0
LINE
8
BLACK
6
CONTINUOUS
10
6.0246494881889765
20
-4.2886443700787398
11
6.0241168110236218
21
-4.2891770472440944
0
LINE
8
BLACK
6
CONTINUOUS
10
6.0241168110236218
20
-4.2891770472440944
11
6.0237401574803151
21
-4.2892519685039368
0
LINE
8
BLACK
6
CONTINUOUS
10
6.0237401574803151
20
-4.2892519685039368
11
5.9662598425196851
21
-4.2892519685039368
0
LINE
8
BLACK
6
CONTINUOUS
10
5.9662598425196851
20
-4.2892519685039368
11
5.9658831889763775
21
-4.2891770472440944
0
LINE
8
BLACK
6
CONTINUOUS
10
5.9658831889763775
20
-4.2891770472440944
11
5.9653505118110237
21
-4.2886443700787398
0
LINE
8
BLACK
6
CONTINUOUS
10
5.9653505118110237
20
-4.2886443700787398
11
5.9652755905511814
21
-4.288267716535433
0
LINE
8
BLACK
6
CONTINUOUS
10
5.9652755905511814
20
-4.288267716535433
11
5.9652755905511814
21
-4.1717322834645669
0
LINE
8
BLACK
6
CONTINUOUS
10
5.9652755905511814
20
-4.1717322834645669
11
5.9653505118110237
21
-4.1713556299212602
0
LINE
8
BLACK
6
CONTINUOUS
10
5.9653505118110237
20
-4.1713556299212602
11
5.9658831889763775
21
-4.1708229527559055
0
LINE
8
BLACK
6
CONTINUOUS
10
5.9658831889763775
20
-4.1708229527559055
11
5.9662598425196851
21
-4.1707480314960632
0
LINE
8
BLACK
6
CONTINUOUS
10
5.9662598425196851
20
-4.1707480314960632
11
6.0237401574803151
21
-4.1707480314960632
0
LINE
8
BLACK
6
CONTINUOUS
10
6.0237401574803151
20
-4.1707480314960632
11
6.0241168110236218
21
-4.1708229527559055
0
LINE
8
BLACK
6
CONTINUOUS
10
5.9672440944881888
20
-4.1727165354330706
11
5.9672440944881888
21
-4.2872834645669293
0
LINE
8
BLACK
6
CONTINUOUS
10
5.9672440944881888
20
-4.2872834645669293
11
6.0227559055118105
21
-4.2872834645669293
0
LINE
8
BLACK
6
CONTINUOUS
10
6.0227559055118105
20
-4.2872834645669293
11
6.0227559055118105
21
-4.1727165354330706
0
LINE
8
BLACK
6
CONTINUOUS
10
6.0227559055118105
20
-4.1727165354330706
11
5.9672440944881888
21
-4.1727165354330706
0
LINE
8
BLACK
6
CONTINUOUS
10
6.0841168110236223
20
-4.1708229527559055
11
6.0846494881889761
21
-4.1713556299212602
0
LINE
8
BLACK
6
CONTINUOUS
10
6.0846494881889761
20
-4.1713556299212602
11
6.0847244094488184
21
-4.1717322834645669
0
LINE
8
BLACK
6
CONTINUOUS
10
6.0847244094488184
20
-4.1717322834645669
11
6.0847244094488184
21
-4.288267716535433
0
LINE
8
BLACK
6
CONTINUOUS
10
6.0847244094488184
20
-4.288267716535433
11
6.0846494881889761
21
-4.2886443700787398
0
LINE
8
BLACK
6
CONTINUOUS
10
6.0846494881889761
20
-4.2886443700787398
11
6.0841168110236223
21
-4.2891770472440944
0
LINE
8
BLACK
6
CONTINUOUS
10
6.0841168110236223
20
-4.2891770472440944
11
6.0837401574803147
21
-4.2892519685039368
0
LINE
8
BLACK
6
CONTINUOUS
10
6.0837401574803147
20
-4.2892519685039368
11
6.0262598425196847
21
-4.2892519685039368
0
LINE
8
BLACK
6
CONTINUOUS
10
6.0262598425196847
20
-4.2892519685039368
11
6.025883188976378
21
-4.2891770472440944
0
LINE
8
BLACK
6
CONTINUOUS
10
6.025883188976378
20
-4.2891770472440944
11
6.0253505118110233
21
-4.2886443700787398
0
LINE
8
BLACK
6
CONTINUOUS
10
6.0253505118110233
20
-4.2886443700787398
11
6.025275590551181
21
-4.288267716535433
0
LINE
8
BLACK
6
CONTINUOUS
10
6.025275590551181
20
-4.288267716535433
11
6.025275590551181
21
-4.1717322834645669
0
LINE
8
BLACK
6
CONTINUOUS
10
6.025275590551181
20
-4.1717322834645669
11
6.0253505118110233
21
-4.1713556299212602
0
LINE
8
BLACK
6
CONTINUOUS
10
6.0253505118110233
20
-4.1713556299212602
11
6.025883188976378
21
-4.1708229527559055
0
LINE
8
BLACK
6
CONTINUOUS
10
6.025883188976378
20
-4.1708229527559055
11
6.0262598425196847
21
-4.1707480314960632
0
LINE
8
BLACK
6
CONTINUOUS
10
6.0262598425196847
20
-4.1707480314960632
11
6.0837401574803147
21
-4.1707480314960632
0
LINE
8
BLACK
6
CONTINUOUS
10
6.0837401574803147
20
-4.1707480314960632
11
6.0841168110236223
21
-4.1708229527559055
0
LINE
8
BLACK
6
CONTINUOUS
10
6.0272440944881884
20
-4.1727165354330706
11
6.0272440944881884
21
-4.2872834645669293
0
LINE
8
BLACK
6
CONTINUOUS
10
6.0272440944881884
20
-4.2872834645669293
11
6.082755905511811
21
-4.2872834645669293
0
LINE
8
BLACK
6
CONTINUOUS
10
6.082755905511811
20
-4.2872834645669293
11
6.082755905511811
21
-4.1727165354330706
0
LINE
8
BLACK
6
CONTINUOUS
10
6.082755905511811
20
-4.1727165354330706
11
6.0272440944881884
21
-4.1727165354330706
0
LINE
8
BLACK
6
CONTINUOUS
10
6.1441168110236219
20
-4.1708229527559055
11
6.1446494881889766
21
-4.1713556299212602
0
LINE
8
BLACK
6
CONTINUOUS
10
6.1446494881889766
20
-4.1713556299212602
11
6.1447244094488189
21
-4.1717322834645669
0
LINE
8
BLACK
6
CONTINUOUS
10
6.1447244094488189
20
-4.1717322834645669
11
6.1447244094488189
21
-4.288267716535433
0
LINE
8
BLACK
6
CONTINUOUS
10
6.1447244094488189
20
-4.288267716535433
11
6.1446494881889766
21
-4.2886443700787398
0
LINE
8
BLACK
6
CONTINUOUS
10
6.1446494881889766
20
-4.2886443700787398
11
6.1441168110236219
21
-4.2891770472440944
0
LINE
8
BLACK
6
CONTINUOUS
10
6.1441168110236219
20
-4.2891770472440944
11
6.1437401574803152
21
-4.2892519685039368
0
LINE
8
BLACK
6
CONTINUOUS
10
6.1437401574803152
20
-4.2892519685039368
11
6.0862598425196852
21
-4.2892519685039368
0
LINE
8
BLACK
6
CONTINUOUS
10
6.0862598425196852
20
-4.2892519685039368
11
6.0858831889763776
21
-4.2891770472440944
0
LINE
8
BLACK
6
CONTINUOUS
10
6.0858831889763776
20
-4.2891770472440944
11
6.0853505118110238
21
-4.2886443700787398
0
LINE
8
BLACK
6
CONTINUOUS
10
6.0853505118110238
20
-4.2886443700787398
11
6.0852755905511806
21
-4.288267716535433
0
LINE
8
BLACK
6
CONTINUOUS
10
6.0852755905511806
20
-4.288267716535433
11
6.0852755905511806
21
-4.1717322834645669
0
LINE
8
BLACK
6
CONTINUOUS
10
6.0852755905511806
20
-4.1717322834645669
11
6.0853505118110238
21
-4.1713556299212602
0
LINE
8
BLACK
6
CONTINUOUS
10
6.0853505118110238
20
-4.1713556299212602
11
6.0858831889763776
21
-4.1708229527559055
0
LINE
8
BLACK
6
CONTINUOUS
10
6.0858831889763776
20
-4.1708229527559055
11
6.0862598425196852
21
-4.1707480314960632
0
LINE
8
BLACK
6
CONTINUOUS
10
6.0862598425196852
20
-4.1707480314960632
11
6.1437401574803152
21
-4.1707480314960632
0
LINE
8
BLACK
6
CONTINUOUS
10
6.1437401574803152
20
-4.1707480314960632
11
6.1441168110236219
21
-4.1708229527559055
0
LINE
8
BLACK
6
CONTINUOUS
10
6.0872440944881889
20
-4.1727165354330706
11
6.0872440944881889
21
-4.2872834645669293
0
LINE
8
BLACK
6
CONTINUOUS
10
6.0872440944881889
20
-4.2872834645669293
11
6.1427559055118106
21
-4.2872834645669293
0
LINE
8
BLACK
6
CONTINUOUS
10
6.1427559055118106
20
-4.2872834645669293
11
6.1427559055118106
21
-4.1727165354330706
0
LINE
8
BLACK
6
CONTINUOUS
10
6.1427559055118106
20
-4.1727165354330706
11
6.0872440944881889
21
-4.1727165354330706
0
LINE
8
BLACK
6
CONTINUOUS
10
5.7886443700787398
20
-4.2203505118110236
11
5.7891770472440944
21
-4.2208831889763783
0
LINE
8
BLACK
6
CONTINUOUS
10
5.7891770472440944
20
-4.2208831889763783
11
5.7892519685039368
21
-4.221259842519685
0
LINE
8
BLACK
6
CONTINUOUS
10
5.7892519685039368
20
-4.221259842519685
11
5.7892519685039368
21
-4.278740157480315
0
LINE
8
BLACK
6
CONTINUOUS
10
5.7892519685039368
20
-4.278740157480315
11
5.7891770472440944
21
-4.2791168110236217
0
LINE
8
BLACK
6
CONTINUOUS
10
5.7891770472440944
20
-4.2791168110236217
11
5.7886443700787398
21
-4.2796494881889764
0
LINE
8
BLACK
6
CONTINUOUS
10
5.7886443700787398
20
-4.2796494881889764
11
5.788267716535433
21
-4.2797244094488187
0
LINE
8
BLACK
6
CONTINUOUS
10
5.788267716535433
20
-4.2797244094488187
11
5.6717322834645669
21
-4.2797244094488187
0
LINE
8
BLACK
6
CONTINUOUS
10
5.6717322834645669
20
-4.2797244094488187
11
5.6713556299212593
21
-4.2796494881889764
0
LINE
8
BLACK
6
CONTINUOUS
10
5.6713556299212593
20
-4.2796494881889764
11
5.6708229527559055
21
-4.2791168110236217
0
LINE
8
BLACK
6
CONTINUOUS
10
5.6708229527559055
20
-4.2791168110236217
11
5.6707480314960632
21
-4.278740157480315
0
LINE
8
BLACK
6
CONTINUOUS
10
5.6707480314960632
20
-4.278740157480315
11
5.6707480314960632
21
-4.221259842519685
0
LINE
8
BLACK
6
CONTINUOUS
10
5.6707480314960632
20
-4.221259842519685
11
5.6708229527559055
21
-4.2208831889763783
0
LINE
8
BLACK
6
CONTINUOUS
10
5.6708229527559055
20
-4.2208831889763783
11
5.6713556299212593
21
-4.2203505118110236
0
LINE
8
BLACK
6
CONTINUOUS
10
5.6713556299212593
20
-4.2203505118110236
11
5.6717322834645669
21
-4.2202755905511813
0
LINE
8
BLACK
6
CONTINUOUS
10
5.6717322834645669
20
-4.2202755905511813
11
5.788267716535433
21
-4.2202755905511813
0
LINE
8
BLACK
6
CONTINUOUS
10
5.788267716535433
20
-4.2202755905511813
11
5.7886443700787398
21
-4.2203505118110236
0
LINE
8
BLACK
6
CONTINUOUS
10
5.6727165354330706
20
-4.2222440944881887
11
5.6727165354330706
21
-4.2777559055118113
0
LINE
8
BLACK
6
CONTINUOUS
10
5.6727165354330706
20
-4.2777559055118113
11
5.7872834645669293
21
-4.2777559055118113
0
LINE
8
BLACK
6
CONTINUOUS
10
5.7872834645669293
20
-4.2777559055118113
11
5.7872834645669293
21
-4.2222440944881887
0
LINE
8
BLACK
6
CONTINUOUS
10
5.7872834645669293
20
-4.2222440944881887
11
5.6727165354330706
21
-4.2222440944881887
0
LINE
8
BLACK
6
CONTINUOUS
10
5.7291168110236219
20
-4.0508229527559054
11
5.7296494881889766
21
-4.0513556299212601
0
LINE
8
BLACK
6
CONTINUOUS
10
5.7296494881889766
20
-4.0513556299212601
11
5.7297244094488189
21
-4.0517322834645668
0
LINE
8
BLACK
6
CONTINUOUS
10
5.7297244094488189
20
-4.0517322834645668
11
5.7297244094488189
21
-4.1682677165354329
0
LINE
8
BLACK
6
CONTINUOUS
10
5.7297244094488189
20
-4.1682677165354329
11
5.7296494881889766
21
-4.1686443700787397
0
LINE
8
BLACK
6
CONTINUOUS
10
5.7296494881889766
20
-4.1686443700787397
11
5.7291168110236219
21
-4.1691770472440943
0
LINE
8
BLACK
6
CONTINUOUS
10
5.7291168110236219
20
-4.1691770472440943
11
5.7287401574803152
21
-4.1692519685039366
0
LINE
8
BLACK
6
CONTINUOUS
10
5.7287401574803152
20
-4.1692519685039366
11
5.6712598425196852
21
-4.1692519685039366
0
LINE
8
BLACK
6
CONTINUOUS
10
5.6712598425196852
20
-4.1692519685039366
11
5.6708831889763776
21
-4.1691770472440943
0
LINE
8
BLACK
6
CONTINUOUS
10
5.6708831889763776
20
-4.1691770472440943
11
5.6703505118110238
21
-4.1686443700787397
0
LINE
8
BLACK
6
CONTINUOUS
10
5.6703505118110238
20
-4.1686443700787397
11
5.6702755905511806
21
-4.1682677165354329
0
LINE
8
BLACK
6
CONTINUOUS
10
5.6702755905511806
20
-4.1682677165354329
11
5.6702755905511806
21
-4.0517322834645668
0
LINE
8
BLACK
6
CONTINUOUS
10
5.6702755905511806
20
-4.0517322834645668
11
5.6703505118110238
21
-4.0513556299212601
0
LINE
8
BLACK
6
CONTINUOUS
10
5.6703505118110238
20
-4.0513556299212601
11
5.6708831889763776
21
-4.0508229527559054
0
LINE
8
BLACK
6
CONTINUOUS
10
5.6708831889763776
20
-4.0508229527559054
11
5.6712598425196852
21
-4.0507480314960631
0
LINE
8
BLACK
6
CONTINUOUS
10
5.6712598425196852
20
-4.0507480314960631
11
5.7287401574803152
21
-4.0507480314960631
0
LINE
8
BLACK
6
CONTINUOUS
10
5.7287401574803152
20
-4.0507480314960631
11
5.7291168110236219
21
-4.0508229527559054
0
LINE
8
BLACK
6
CONTINUOUS
10
5.6722440944881889
20
-4.0527165354330705
11
5.6722440944881889
21
-4.1672834645669292
0
LINE
8
BLACK
6
CONTINUOUS
10
5.6722440944881889
20
-4.1672834645669292
11
5.7277559055118106
21
-4.1672834645669292
0
LINE
8
BLACK
6
CONTINUOUS
10
5.7277559055118106
20
-4.1672834645669292
11
5.7277559055118106
21
-4.0527165354330705
0
LINE
8
BLACK
6
CONTINUOUS
10
5.7277559055118106
20
-4.0527165354330705
11
5.6722440944881889
21
-4.0527165354330705
0
LINE
8
BLACK
6
CONTINUOUS
10
6.2590065748031494
20
-3.9102717716535431
11
6.259539251968504
21
-3.9108044488188973
0
LINE
8
BLACK
6
CONTINUOUS
10
6.259539251968504
20
-3.9108044488188973
11
6.2596141732283463
21
-3.9111811023622045
0
LINE
8
BLACK
6
CONTINUOUS
10
6.2596141732283463
20
-3.9111811023622045
11
6.2596141732283463
21
-4.1631496062992124
0
LINE
8
BLACK
6
CONTINUOUS
10
6.2596141732283463
20
-4.1631496062992124
11
6.259539251968504
21
-4.16352625984252
0
LINE
8
BLACK
6
CONTINUOUS
10
6.259539251968504
20
-4.16352625984252
11
6.2590065748031494
21
-4.1640589370078738
0
LINE
8
BLACK
6
CONTINUOUS
10
6.2590065748031494
20
-4.1640589370078738
11
6.2586299212598426
21
-4.1641338582677161
0
LINE
8
BLACK
6
CONTINUOUS
10
6.2586299212598426
20
-4.1641338582677161
11
5.7389448818897639
21
-4.1641338582677161
0
LINE
8
BLACK
6
CONTINUOUS
10
5.7389448818897639
20
-4.1641338582677161
11
5.7385682283464563
21
-4.1640589370078738
0
LINE
8
BLACK
6
CONTINUOUS
10
5.7385682283464563
20
-4.1640589370078738
11
5.7380355511811025
21
-4.16352625984252
0
LINE
8
BLACK
6
CONTINUOUS
10
5.7380355511811025
20
-4.16352625984252
11
5.7379606299212593
21
-4.1631496062992124
0
LINE
8
BLACK
6
CONTINUOUS
10
5.7379606299212593
20
-4.1631496062992124
11
5.7379606299212593
21
-3.9111811023622045
0
LINE
8
BLACK
6
CONTINUOUS
10
5.7379606299212593
20
-3.9111811023622045
11
5.7380355511811025
21
-3.9108044488188973
0
LINE
8
BLACK
6
CONTINUOUS
10
5.7380355511811025
20
-3.9108044488188973
11
5.7385682283464563
21
-3.9102717716535431
0
LINE
8
BLACK
6
CONTINUOUS
10
5.7385682283464563
20
-3.9102717716535431
11
5.7389448818897639
21
-3.9101968503937008
0
LINE
8
BLACK
6
CONTINUOUS
10
5.7389448818897639
20
-3.9101968503937008
11
6.2586299212598426
21
-3.9101968503937008
0
LINE
8
BLACK
6
CONTINUOUS
10
6.2586299212598426
20
-3.9101968503937008
11
6.2590065748031494
21
-3.9102717716535431
0
LINE
8
BLACK
6
CONTINUOUS
10
5.7399291338582676
20
-3.9121653543307087
11
5.7399291338582676
21
-4.1621653543307087
0
LINE
8
BLACK
6
CONTINUOUS
10
5.7399291338582676
20
-4.1621653543307087
11
6.257645669291338
21
-4.1621653543307087
0
LINE
8
BLACK
6
CONTINUOUS
10
6.257645669291338
20
-4.1621653543307087
11
6.257645669291338
21
-3.9121653543307087
0
LINE
8
BLACK
6
CONTINUOUS
10
6.257645669291338
20
-3.9121653543307087
11
5.7399291338582676
21
-3.9121653543307087
0
CIRCLE
8
BLACK
10
5.8585826771653542
20
-4.6730708661417326
40
0.0039370078740157
0
CIRCLE
8
BLACK
10
5.8999212598425199
20
-4.6730708661417326
40
0.0039370078740157
0
CIRCLE
8
BLACK
10
5.9412598425196848
20
-4.6730708661417326
40
0.0039370078740157
0
CIRCLE
8
BLACK
10
5.8585826771653542
20
-4.6317322834645669
40
0.0039370078740157
0
CIRCLE
8
BLACK
10
5.8999212598425199
20
-4.6317322834645669
40
0.0039370078740157
0
CIRCLE
8
BLACK
10
5.9412598425196848
20
-4.6317322834645669
40
0.0039370078740157
0
CIRCLE
8
BLACK
10
5.8585826771653542
20
-4.5903937007874012
40
0.0039370078740157
0
CIRCLE
8
BLACK
10
5.8999212598425199
20
-4.5903937007874012
40
0.0039370078740157
0
CIRCLE
8
BLACK
10
5.9412598425196848
20
-4.5903937007874012
40
0.0039370078740157
0
CIRCLE
8
BLACK
10
7.1384881889763774
20
-4.6125118110236221
40
0.0068897637795276
0
CIRCLE
8
BLACK
10
7.2384881889763779
20
-4.7125118110236217
40
0.0068897637795276
0
CIRCLE
8
BLACK
10
7.2384881889763779
20
-4.5125118110236215
40
0.0068897637795276
0
CIRCLE
8
BLACK
10
7.0384881889763777
20
-4.7125118110236217
40
0.0068897637795276
0
CIRCLE
8
BLACK
10
7.0384881889763777
20
-4.5125118110236215
40
0.0068897637795276
  0
ENDSEC
  0
EOF
