  0
SECTION
  2
HEADER
  9
$ANGBASE
  50
0.0
  9
$ANGDIR
  70
1
  9
$MEASUREMENT
  70
0
  0
ENDSEC
  0
SECTION
  2
TABLES
  0
TABLE
  2
LTYPE
  70
4
  0
LTYPE
  5
40F
  2
CONTINUOUS
  70
0
  3
Solid line
  72
65
  73
0
  40
0.0
  0
LTYPE
  5
410
  2
DASHDOT
 70
0
  3
Dash Dot ____ _ ____ _
 72
65
 73
4
 40
2.0
 49
1.25
 49
-0.25
 49
0.25
 49
-0.25
  0
LTYPE
  5
411
  2
DASHED
 70
0
  3
Dashed __ __ __ __ __
 72
65
 73
2
 40
0.75
 49
0.5
 49
-0.25
  0
LTYPE
  5
43B
  2
DOTTED
 70
0
  3
Dotted .  .  .  .
 72
65
 73
2
 40
0.2
 49
0.0
 49
-0.2
  0
ENDTAB
  0
TABLE
  2
STYLE
  70
4
  0
STYLE
  2
KICAD
  70
0
  40
0
  41
1
  42
1
  50
0
  71
0
  3
isocp.shx
  0
STYLE
  2
KICADB
  70
0
  40
0
  41
1
  42
1
  50
0
  71
0
  3
isocp.shx
  0
STYLE
  2
KICADI
  70
0
  40
0
  41
1
  42
1
  50
15
  71
0
  3
isocp.shx
  0
STYLE
  2
KICADBI
  70
0
  40
0
  41
1
  42
1
  50
15
  71
0
  3
isocp.shx
  0
ENDTAB
  0
TABLE
  2
LAYER
  70
1
  0
LAYER
  2
BLACK
  70
0
  62
7
  6
CONTINUOUS
  0
ENDTAB
  0
ENDSEC
  0
SECTION
  2
ENTITIES
0
LINE
8
BLACK
6
CONTINUOUS
10
6.0541168110236221
20
-4.847161535433071
11
6.0546494881889759
21
-4.8476942125984248
0
LINE
8
BLACK
6
CONTINUOUS
10
6.0546494881889759
20
-4.8476942125984248
11
6.0547244094488191
21
-4.8480708661417324
0
LINE
8
BLACK
6
CONTINUOUS
10
6.0547244094488191
20
-4.8480708661417324
11
6.0547244094488191
21
-4.9819291338582676
0
LINE
8
BLACK
6
CONTINUOUS
10
6.0547244094488191
20
-4.9819291338582676
11
6.0546494881889759
21
-4.9823057874015744
0
LINE
8
BLACK
6
CONTINUOUS
10
6.0546494881889759
20
-4.9823057874015744
11
6.0541168110236221
21
-4.982838464566929
0
LINE
8
BLACK
6
CONTINUOUS
10
6.0541168110236221
20
-4.982838464566929
11
6.0537401574803145
21
-4.9829133858267713
0
LINE
8
BLACK
6
CONTINUOUS
10
6.0537401574803145
20
-4.9829133858267713
11
5.8962598425196848
21
-4.9829133858267713
0
LINE
8
BLACK
6
CONTINUOUS
10
5.8962598425196848
20
-4.9829133858267713
11
5.8958831889763781
21
-4.982838464566929
0
LINE
8
BLACK
6
CONTINUOUS
10
5.8958831889763781
20
-4.982838464566929
11
5.8953505118110234
21
-4.9823057874015744
0
LINE
8
BLACK
6
CONTINUOUS
10
5.8953505118110234
20
-4.9823057874015744
11
5.8952755905511811
21
-4.9819291338582676
0
LINE
8
BLACK
6
CONTINUOUS
10
5.8952755905511811
20
-4.9819291338582676
11
5.8952755905511811
21
-4.8480708661417324
0
LINE
8
BLACK
6
CONTINUOUS
10
5.8952755905511811
20
-4.8480708661417324
11
5.8953505118110234
21
-4.8476942125984248
0
LINE
8
BLACK
6
CONTINUOUS
10
5.8953505118110234
20
-4.8476942125984248
11
5.8958831889763781
21
-4.847161535433071
0
LINE
8
BLACK
6
CONTINUOUS
10
5.8958831889763781
20
-4.847161535433071
11
5.8962598425196848
21
-4.8470866141732278
0
LINE
8
BLACK
6
CONTINUOUS
10
5.8962598425196848
20
-4.8470866141732278
11
6.0537401574803145
21
-4.8470866141732278
0
LINE
8
BLACK
6
CONTINUOUS
10
6.0537401574803145
20
-4.8470866141732278
11
6.0541168110236221
21
-4.847161535433071
0
LINE
8
BLACK
6
CONTINUOUS
10
5.8972440944881885
20
-4.8490551181102362
11
5.8972440944881885
21
-4.9809448818897639
0
LINE
8
BLACK
6
CONTINUOUS
10
5.8972440944881885
20
-4.9809448818897639
11
6.0527559055118108
21
-4.9809448818897639
0
LINE
8
BLACK
6
CONTINUOUS
10
6.0527559055118108
20
-4.9809448818897639
11
6.0527559055118108
21
-4.8490551181102362
0
LINE
8
BLACK
6
CONTINUOUS
10
6.0527559055118108
20
-4.8490551181102362
11
5.8972440944881885
21
-4.8490551181102362
0
LINE
8
BLACK
6
CONTINUOUS
10
6.1191168110236216
20
-4.8458229527559054
11
6.1196494881889762
21
-4.84635562992126
0
LINE
8
BLACK
6
CONTINUOUS
10
6.1196494881889762
20
-4.84635562992126
11
6.1197244094488186
21
-4.8467322834645667
0
LINE
8
BLACK
6
CONTINUOUS
10
6.1197244094488186
20
-4.8467322834645667
11
6.1197244094488186
21
-4.9632677165354329
0
LINE
8
BLACK
6
CONTINUOUS
10
6.1197244094488186
20
-4.9632677165354329
11
6.1196494881889762
21
-4.9636443700787405
0
LINE
8
BLACK
6
CONTINUOUS
10
6.1196494881889762
20
-4.9636443700787405
11
6.1191168110236216
21
-4.9641770472440943
0
LINE
8
BLACK
6
CONTINUOUS
10
6.1191168110236216
20
-4.9641770472440943
11
6.1187401574803149
21
-4.9642519685039366
0
LINE
8
BLACK
6
CONTINUOUS
10
6.1187401574803149
20
-4.9642519685039366
11
6.0612598425196849
21
-4.9642519685039366
0
LINE
8
BLACK
6
CONTINUOUS
10
6.0612598425196849
20
-4.9642519685039366
11
6.0608831889763781
21
-4.9641770472440943
0
LINE
8
BLACK
6
CONTINUOUS
10
6.0608831889763781
20
-4.9641770472440943
11
6.0603505118110235
21
-4.9636443700787405
0
LINE
8
BLACK
6
CONTINUOUS
10
6.0603505118110235
20
-4.9636443700787405
11
6.0602755905511811
21
-4.9632677165354329
0
LINE
8
BLACK
6
CONTINUOUS
10
6.0602755905511811
20
-4.9632677165354329
11
6.0602755905511811
21
-4.8467322834645667
0
LINE
8
BLACK
6
CONTINUOUS
10
6.0602755905511811
20
-4.8467322834645667
11
6.0603505118110235
21
-4.84635562992126
0
LINE
8
BLACK
6
CONTINUOUS
10
6.0603505118110235
20
-4.84635562992126
11
6.0608831889763781
21
-4.8458229527559054
0
LINE
8
BLACK
6
CONTINUOUS
10
6.0608831889763781
20
-4.8458229527559054
11
6.0612598425196849
21
-4.845748031496063
0
LINE
8
BLACK
6
CONTINUOUS
10
6.0612598425196849
20
-4.845748031496063
11
6.1187401574803149
21
-4.845748031496063
0
LINE
8
BLACK
6
CONTINUOUS
10
6.1187401574803149
20
-4.845748031496063
11
6.1191168110236216
21
-4.8458229527559054
0
LINE
8
BLACK
6
CONTINUOUS
10
6.0622440944881886
20
-4.8477165354330705
11
6.0622440944881886
21
-4.9622834645669291
0
LINE
8
BLACK
6
CONTINUOUS
10
6.0622440944881886
20
-4.9622834645669291
11
6.1177559055118111
21
-4.9622834645669291
0
LINE
8
BLACK
6
CONTINUOUS
10
6.1177559055118111
20
-4.9622834645669291
11
6.1177559055118111
21
-4.8477165354330705
0
LINE
8
BLACK
6
CONTINUOUS
10
6.1177559055118111
20
-4.8477165354330705
11
6.0622440944881886
21
-4.8477165354330705
0
LINE
8
BLACK
6
CONTINUOUS
10
5.8044975196850395
20
-4.8325668110236215
11
5.804816850393701
21
-4.8327801574803146
0
LINE
8
BLACK
6
CONTINUOUS
10
5.804816850393701
20
-4.8327801574803146
11
5.8872198425196851
21
-4.9151831496062988
0
LINE
8
BLACK
6
CONTINUOUS
10
5.8872198425196851
20
-4.9151831496062988
11
5.8874331889763782
21
-4.9155024803149603
0
LINE
8
BLACK
6
CONTINUOUS
10
5.8874331889763782
20
-4.9155024803149603
11
5.8874331889763782
21
-4.9162557874015747
0
LINE
8
BLACK
6
CONTINUOUS
10
5.8874331889763782
20
-4.9162557874015747
11
5.8872198425196851
21
-4.9165751181102362
0
LINE
8
BLACK
6
CONTINUOUS
10
5.8872198425196851
20
-4.9165751181102362
11
5.8465751181102359
21
-4.9572198425196845
0
LINE
8
BLACK
6
CONTINUOUS
10
5.8465751181102359
20
-4.9572198425196845
11
5.8462557874015744
21
-4.9574331889763776
0
LINE
8
BLACK
6
CONTINUOUS
10
5.8462557874015744
20
-4.9574331889763776
11
5.8455024803149609
21
-4.9574331889763776
0
LINE
8
BLACK
6
CONTINUOUS
10
5.8455024803149609
20
-4.9574331889763776
11
5.8451831496062994
21
-4.9572198425196845
0
LINE
8
BLACK
6
CONTINUOUS
10
5.8451831496062994
20
-4.9572198425196845
11
5.7627801574803152
21
-4.8748168503937004
0
LINE
8
BLACK
6
CONTINUOUS
10
5.7627801574803152
20
-4.8748168503937004
11
5.7625668110236221
21
-4.8744975196850389
0
LINE
8
BLACK
6
CONTINUOUS
10
5.7625668110236221
20
-4.8744975196850389
11
5.7625668110236221
21
-4.8737442125984254
0
LINE
8
BLACK
6
CONTINUOUS
10
5.7625668110236221
20
-4.8737442125984254
11
5.7627801574803152
21
-4.8734248818897639
0
LINE
8
BLACK
6
CONTINUOUS
10
5.7627801574803152
20
-4.8734248818897639
11
5.8034248818897636
21
-4.8327801574803146
0
LINE
8
BLACK
6
CONTINUOUS
10
5.8034248818897636
20
-4.8327801574803146
11
5.8037442125984251
21
-4.8325668110236215
0
LINE
8
BLACK
6
CONTINUOUS
10
5.8037442125984251
20
-4.8325668110236215
11
5.8044975196850395
21
-4.8325668110236215
0
LINE
8
BLACK
6
CONTINUOUS
10
5.76486811023622
20
-4.8741208661417321
11
5.8458791338582676
21
-4.9551318897637797
0
LINE
8
BLACK
6
CONTINUOUS
10
5.8458791338582676
20
-4.9551318897637797
11
5.8851318897637794
21
-4.9158791338582679
0
LINE
8
BLACK
6
CONTINUOUS
10
5.8851318897637794
20
-4.9158791338582679
11
5.8041208661417318
21
-4.8348681102362203
0
LINE
8
BLACK
6
CONTINUOUS
10
5.8041208661417318
20
-4.8348681102362203
11
5.76486811023622
21
-4.8741208661417321
0
LINE
8
BLACK
6
CONTINUOUS
10
5.5644514566929129
20
-4.8431851574803151
11
5.5649841338582675
21
-4.8437178346456689
0
LINE
8
BLACK
6
CONTINUOUS
10
5.5649841338582675
20
-4.8437178346456689
11
5.5650590551181098
21
-4.8440944881889765
0
LINE
8
BLACK
6
CONTINUOUS
10
5.5650590551181098
20
-4.8440944881889765
11
5.5650590551181098
21
-4.9212598425196852
0
LINE
8
BLACK
6
CONTINUOUS
10
5.5650590551181098
20
-4.9212598425196852
11
5.5649841338582675
21
-4.9216364960629919
0
LINE
8
BLACK
6
CONTINUOUS
10
5.5649841338582675
20
-4.9216364960629919
11
5.5644514566929129
21
-4.9221691732283466
0
LINE
8
BLACK
6
CONTINUOUS
10
5.5644514566929129
20
-4.9221691732283466
11
5.5640748031496061
21
-4.9222440944881889
0
LINE
8
BLACK
6
CONTINUOUS
10
5.5640748031496061
20
-4.9222440944881889
11
5.4302165354330709
21
-4.9222440944881889
0
LINE
8
BLACK
6
CONTINUOUS
10
5.4302165354330709
20
-4.9222440944881889
11
5.4298398818897633
21
-4.9221691732283466
0
LINE
8
BLACK
6
CONTINUOUS
10
5.4298398818897633
20
-4.9221691732283466
11
5.4293072047244095
21
-4.9216364960629919
0
LINE
8
BLACK
6
CONTINUOUS
10
5.4293072047244095
20
-4.9216364960629919
11
5.4292322834645672
21
-4.9212598425196852
0
LINE
8
BLACK
6
CONTINUOUS
10
5.4292322834645672
20
-4.9212598425196852
11
5.4292322834645672
21
-4.8440944881889765
0
LINE
8
BLACK
6
CONTINUOUS
10
5.4292322834645672
20
-4.8440944881889765
11
5.4293072047244095
21
-4.8437178346456689
0
LINE
8
BLACK
6
CONTINUOUS
10
5.4293072047244095
20
-4.8437178346456689
11
5.4298398818897633
21
-4.8431851574803151
0
LINE
8
BLACK
6
CONTINUOUS
10
5.4298398818897633
20
-4.8431851574803151
11
5.4302165354330709
21
-4.8431102362204728
0
LINE
8
BLACK
6
CONTINUOUS
10
5.4302165354330709
20
-4.8431102362204728
11
5.5640748031496061
21
-4.8431102362204728
0
LINE
8
BLACK
6
CONTINUOUS
10
5.5640748031496061
20
-4.8431102362204728
11
5.5644514566929129
21
-4.8431851574803151
0
LINE
8
BLACK
6
CONTINUOUS
10
5.4312007874015746
20
-4.8450787401574802
11
5.4312007874015746
21
-4.9202755905511806
0
LINE
8
BLACK
6
CONTINUOUS
10
5.4312007874015746
20
-4.9202755905511806
11
5.5630905511811024
21
-4.9202755905511806
0
LINE
8
BLACK
6
CONTINUOUS
10
5.5630905511811024
20
-4.9202755905511806
11
5.5630905511811024
21
-4.8450787401574802
0
LINE
8
BLACK
6
CONTINUOUS
10
5.5630905511811024
20
-4.8450787401574802
11
5.4312007874015746
21
-4.8450787401574802
0
LINE
8
BLACK
6
CONTINUOUS
10
5.901255787401575
20
-4.7475668110236215
11
5.9015751181102365
21
-4.7477801574803147
0
LINE
8
BLACK
6
CONTINUOUS
10
5.9015751181102365
20
-4.7477801574803147
11
5.9422198425196848
21
-4.7884248818897639
0
LINE
8
BLACK
6
CONTINUOUS
10
5.9422198425196848
20
-4.7884248818897639
11
5.942433188976378
21
-4.7887442125984254
0
LINE
8
BLACK
6
CONTINUOUS
10
5.942433188976378
20
-4.7887442125984254
11
5.942433188976378
21
-4.7894975196850389
0
LINE
8
BLACK
6
CONTINUOUS
10
5.942433188976378
20
-4.7894975196850389
11
5.9422198425196848
21
-4.7898168503937004
0
LINE
8
BLACK
6
CONTINUOUS
10
5.9422198425196848
20
-4.7898168503937004
11
5.8598168503937007
21
-4.8722198425196845
0
LINE
8
BLACK
6
CONTINUOUS
10
5.8598168503937007
20
-4.8722198425196845
11
5.8594975196850392
21
-4.8724331889763777
0
LINE
8
BLACK
6
CONTINUOUS
10
5.8594975196850392
20
-4.8724331889763777
11
5.8587442125984248
21
-4.8724331889763777
0
LINE
8
BLACK
6
CONTINUOUS
10
5.8587442125984248
20
-4.8724331889763777
11
5.8584248818897633
21
-4.8722198425196845
0
LINE
8
BLACK
6
CONTINUOUS
10
5.8584248818897633
20
-4.8722198425196845
11
5.817780157480315
21
-4.8315751181102362
0
LINE
8
BLACK
6
CONTINUOUS
10
5.817780157480315
20
-4.8315751181102362
11
5.8175668110236218
21
-4.8312557874015747
0
LINE
8
BLACK
6
CONTINUOUS
10
5.8175668110236218
20
-4.8312557874015747
11
5.8175668110236218
21
-4.8305024803149603
0
LINE
8
BLACK
6
CONTINUOUS
10
5.8175668110236218
20
-4.8305024803149603
11
5.817780157480315
21
-4.8301831496062988
0
LINE
8
BLACK
6
CONTINUOUS
10
5.817780157480315
20
-4.8301831496062988
11
5.9001831496062991
21
-4.7477801574803147
0
LINE
8
BLACK
6
CONTINUOUS
10
5.9001831496062991
20
-4.7477801574803147
11
5.9005024803149606
21
-4.7475668110236215
0
LINE
8
BLACK
6
CONTINUOUS
10
5.9005024803149606
20
-4.7475668110236215
11
5.901255787401575
21
-4.7475668110236215
0
LINE
8
BLACK
6
CONTINUOUS
10
5.8198681102362206
20
-4.8308791338582679
11
5.8591208661417324
21
-4.8701318897637798
0
LINE
8
BLACK
6
CONTINUOUS
10
5.8591208661417324
20
-4.8701318897637798
11
5.9401318897637791
21
-4.7891208661417322
0
LINE
8
BLACK
6
CONTINUOUS
10
5.9401318897637791
20
-4.7891208661417322
11
5.9008791338582673
21
-4.7498681102362204
0
LINE
8
BLACK
6
CONTINUOUS
10
5.9008791338582673
20
-4.7498681102362204
11
5.8198681102362206
21
-4.8308791338582679
0
LINE
8
BLACK
6
CONTINUOUS
10
6.4369120866141731
20
-4.7502717716535434
11
6.4374447637795278
21
-4.7508044488188972
0
LINE
8
BLACK
6
CONTINUOUS
10
6.4374447637795278
20
-4.7508044488188972
11
6.4375196850393701
21
-4.7511811023622048
0
LINE
8
BLACK
6
CONTINUOUS
10
6.4375196850393701
20
-4.7511811023622048
11
6.4375196850393701
21
-4.8677165354330709
0
LINE
8
BLACK
6
CONTINUOUS
10
6.4375196850393701
20
-4.8677165354330709
11
6.4374447637795278
21
-4.8680931889763777
0
LINE
8
BLACK
6
CONTINUOUS
10
6.4374447637795278
20
-4.8680931889763777
11
6.4369120866141731
21
-4.8686258661417323
0
LINE
8
BLACK
6
CONTINUOUS
10
6.4369120866141731
20
-4.8686258661417323
11
6.4365354330708664
21
-4.8687007874015746
0
LINE
8
BLACK
6
CONTINUOUS
10
6.4365354330708664
20
-4.8687007874015746
11
6.3790551181102364
21
-4.8687007874015746
0
LINE
8
BLACK
6
CONTINUOUS
10
6.3790551181102364
20
-4.8687007874015746
11
6.3786784645669288
21
-4.8686258661417323
0
LINE
8
BLACK
6
CONTINUOUS
10
6.3786784645669288
20
-4.8686258661417323
11
6.378145787401575
21
-4.8680931889763777
0
LINE
8
BLACK
6
CONTINUOUS
10
6.378145787401575
20
-4.8680931889763777
11
6.3780708661417318
21
-4.8677165354330709
0
LINE
8
BLACK
6
CONTINUOUS
10
6.3780708661417318
20
-4.8677165354330709
11
6.3780708661417318
21
-4.7511811023622048
0
LINE
8
BLACK
6
CONTINUOUS
10
6.3780708661417318
20
-4.7511811023622048
11
6.378145787401575
21
-4.7508044488188972
0
LINE
8
BLACK
6
CONTINUOUS
10
6.378145787401575
20
-4.7508044488188972
11
6.3786784645669288
21
-4.7502717716535434
0
LINE
8
BLACK
6
CONTINUOUS
10
6.3786784645669288
20
-4.7502717716535434
11
6.3790551181102364
21
-4.7501968503937011
0
LINE
8
BLACK
6
CONTINUOUS
10
6.3790551181102364
20
-4.7501968503937011
11
6.4365354330708664
21
-4.7501968503937011
0
LINE
8
BLACK
6
CONTINUOUS
10
6.4365354330708664
20
-4.7501968503937011
11
6.4369120866141731
21
-4.7502717716535434
0
LINE
8
BLACK
6
CONTINUOUS
10
6.3800393700787401
20
-4.7521653543307085
11
6.3800393700787401
21
-4.8667322834645672
0
LINE
8
BLACK
6
CONTINUOUS
10
6.3800393700787401
20
-4.8667322834645672
11
6.4355511811023618
21
-4.8667322834645672
0
LINE
8
BLACK
6
CONTINUOUS
10
6.4355511811023618
20
-4.8667322834645672
11
6.4355511811023618
21
-4.7521653543307085
0
LINE
8
BLACK
6
CONTINUOUS
10
6.4355511811023618
20
-4.7521653543307085
11
6.3800393700787401
21
-4.7521653543307085
0
LINE
8
BLACK
6
CONTINUOUS
10
6.0691168110236218
20
-4.7208229527559054
11
6.0696494881889764
21
-4.72135562992126
0
LINE
8
BLACK
6
CONTINUOUS
10
6.0696494881889764
20
-4.72135562992126
11
6.0697244094488187
21
-4.7217322834645667
0
LINE
8
BLACK
6
CONTINUOUS
10
6.0697244094488187
20
-4.7217322834645667
11
6.0697244094488187
21
-4.8382677165354329
0
LINE
8
BLACK
6
CONTINUOUS
10
6.0697244094488187
20
-4.8382677165354329
11
6.0696494881889764
21
-4.8386443700787405
0
LINE
8
BLACK
6
CONTINUOUS
10
6.0696494881889764
20
-4.8386443700787405
11
6.0691168110236218
21
-4.8391770472440943
0
LINE
8
BLACK
6
CONTINUOUS
10
6.0691168110236218
20
-4.8391770472440943
11
6.068740157480315
21
-4.8392519685039366
0
LINE
8
BLACK
6
CONTINUOUS
10
6.068740157480315
20
-4.8392519685039366
11
6.011259842519685
21
-4.8392519685039366
0
LINE
8
BLACK
6
CONTINUOUS
10
6.011259842519685
20
-4.8392519685039366
11
6.0108831889763774
21
-4.8391770472440943
0
LINE
8
BLACK
6
CONTINUOUS
10
6.0108831889763774
20
-4.8391770472440943
11
6.0103505118110236
21
-4.8386443700787405
0
LINE
8
BLACK
6
CONTINUOUS
10
6.0103505118110236
20
-4.8386443700787405
11
6.0102755905511813
21
-4.8382677165354329
0
LINE
8
BLACK
6
CONTINUOUS
10
6.0102755905511813
20
-4.8382677165354329
11
6.0102755905511813
21
-4.7217322834645667
0
LINE
8
BLACK
6
CONTINUOUS
10
6.0102755905511813
20
-4.7217322834645667
11
6.0103505118110236
21
-4.72135562992126
0
LINE
8
BLACK
6
CONTINUOUS
10
6.0103505118110236
20
-4.72135562992126
11
6.0108831889763774
21
-4.7208229527559054
0
LINE
8
BLACK
6
CONTINUOUS
10
6.0108831889763774
20
-4.7208229527559054
11
6.011259842519685
21
-4.720748031496063
0
LINE
8
BLACK
6
CONTINUOUS
10
6.011259842519685
20
-4.720748031496063
11
6.068740157480315
21
-4.720748031496063
0
LINE
8
BLACK
6
CONTINUOUS
10
6.068740157480315
20
-4.720748031496063
11
6.0691168110236218
21
-4.7208229527559054
0
LINE
8
BLACK
6
CONTINUOUS
10
6.0122440944881888
20
-4.7227165354330705
11
6.0122440944881888
21
-4.8372834645669291
0
LINE
8
BLACK
6
CONTINUOUS
10
6.0122440944881888
20
-4.8372834645669291
11
6.0677559055118113
21
-4.8372834645669291
0
LINE
8
BLACK
6
CONTINUOUS
10
6.0677559055118113
20
-4.8372834645669291
11
6.0677559055118113
21
-4.7227165354330705
0
LINE
8
BLACK
6
CONTINUOUS
10
6.0677559055118113
20
-4.7227165354330705
11
6.0122440944881888
21
-4.7227165354330705
0
LINE
8
BLACK
6
CONTINUOUS
10
6.1291168110236223
20
-4.7208229527559054
11
6.129649488188976
21
-4.72135562992126
0
LINE
8
BLACK
6
CONTINUOUS
10
6.129649488188976
20
-4.72135562992126
11
6.1297244094488184
21
-4.7217322834645667
0
LINE
8
BLACK
6
CONTINUOUS
10
6.1297244094488184
20
-4.7217322834645667
11
6.1297244094488184
21
-4.8382677165354329
0
LINE
8
BLACK
6
CONTINUOUS
10
6.1297244094488184
20
-4.8382677165354329
11
6.129649488188976
21
-4.8386443700787405
0
LINE
8
BLACK
6
CONTINUOUS
10
6.129649488188976
20
-4.8386443700787405
11
6.1291168110236223
21
-4.8391770472440943
0
LINE
8
BLACK
6
CONTINUOUS
10
6.1291168110236223
20
-4.8391770472440943
11
6.1287401574803146
21
-4.8392519685039366
0
LINE
8
BLACK
6
CONTINUOUS
10
6.1287401574803146
20
-4.8392519685039366
11
6.0712598425196846
21
-4.8392519685039366
0
LINE
8
BLACK
6
CONTINUOUS
10
6.0712598425196846
20
-4.8392519685039366
11
6.0708831889763779
21
-4.8391770472440943
0
LINE
8
BLACK
6
CONTINUOUS
10
6.0708831889763779
20
-4.8391770472440943
11
6.0703505118110233
21
-4.8386443700787405
0
LINE
8
BLACK
6
CONTINUOUS
10
6.0703505118110233
20
-4.8386443700787405
11
6.0702755905511809
21
-4.8382677165354329
0
LINE
8
BLACK
6
CONTINUOUS
10
6.0702755905511809
20
-4.8382677165354329
11
6.0702755905511809
21
-4.7217322834645667
0
LINE
8
BLACK
6
CONTINUOUS
10
6.0702755905511809
20
-4.7217322834645667
11
6.0703505118110233
21
-4.72135562992126
0
LINE
8
BLACK
6
CONTINUOUS
10
6.0703505118110233
20
-4.72135562992126
11
6.0708831889763779
21
-4.7208229527559054
0
LINE
8
BLACK
6
CONTINUOUS
10
6.0708831889763779
20
-4.7208229527559054
11
6.0712598425196846
21
-4.720748031496063
0
LINE
8
BLACK
6
CONTINUOUS
10
6.0712598425196846
20
-4.720748031496063
11
6.1287401574803146
21
-4.720748031496063
0
LINE
8
BLACK
6
CONTINUOUS
10
6.1287401574803146
20
-4.720748031496063
11
6.1291168110236223
21
-4.7208229527559054
0
LINE
8
BLACK
6
CONTINUOUS
10
6.0722440944881892
20
-4.7227165354330705
11
6.0722440944881892
21
-4.8372834645669291
0
LINE
8
BLACK
6
CONTINUOUS
10
6.0722440944881892
20
-4.8372834645669291
11
6.1277559055118109
21
-4.8372834645669291
0
LINE
8
BLACK
6
CONTINUOUS
10
6.1277559055118109
20
-4.8372834645669291
11
6.1277559055118109
21
-4.7227165354330705
0
LINE
8
BLACK
6
CONTINUOUS
10
6.1277559055118109
20
-4.7227165354330705
11
6.0722440944881892
21
-4.7227165354330705
0
LINE
8
BLACK
6
CONTINUOUS
10
5.5786443700787398
20
-4.6775946062992126
11
5.5791770472440945
21
-4.6781272834645664
0
LINE
8
BLACK
6
CONTINUOUS
10
5.5791770472440945
20
-4.6781272834645664
11
5.5792519685039368
21
-4.678503937007874
0
LINE
8
BLACK
6
CONTINUOUS
10
5.5792519685039368
20
-4.678503937007874
11
5.5792519685039368
21
-4.8281102362204722
0
LINE
8
BLACK
6
CONTINUOUS
10
5.5792519685039368
20
-4.8281102362204722
11
5.5791770472440945
21
-4.8284868897637798
0
LINE
8
BLACK
6
CONTINUOUS
10
5.5791770472440945
20
-4.8284868897637798
11
5.5786443700787398
21
-4.8290195669291336
0
LINE
8
BLACK
6
CONTINUOUS
10
5.5786443700787398
20
-4.8290195669291336
11
5.5782677165354331
21
-4.8290944881889759
0
LINE
8
BLACK
6
CONTINUOUS
10
5.5782677165354331
20
-4.8290944881889759
11
5.4365354330708664
21
-4.8290944881889759
0
LINE
8
BLACK
6
CONTINUOUS
10
5.4365354330708664
20
-4.8290944881889759
11
5.4361587795275588
21
-4.8290195669291336
0
LINE
8
BLACK
6
CONTINUOUS
10
5.4361587795275588
20
-4.8290195669291336
11
5.435626102362205
21
-4.8284868897637798
0
LINE
8
BLACK
6
CONTINUOUS
10
5.435626102362205
20
-4.8284868897637798
11
5.4355511811023618
21
-4.8281102362204722
0
LINE
8
BLACK
6
CONTINUOUS
10
5.4355511811023618
20
-4.8281102362204722
11
5.4355511811023618
21
-4.678503937007874
0
LINE
8
BLACK
6
CONTINUOUS
10
5.4355511811023618
20
-4.678503937007874
11
5.435626102362205
21
-4.6781272834645664
0
LINE
8
BLACK
6
CONTINUOUS
10
5.435626102362205
20
-4.6781272834645664
11
5.4361587795275588
21
-4.6775946062992126
0
LINE
8
BLACK
6
CONTINUOUS
10
5.4361587795275588
20
-4.6775946062992126
11
5.4365354330708664
21
-4.6775196850393703
0
LINE
8
BLACK
6
CONTINUOUS
10
5.4365354330708664
20
-4.6775196850393703
11
5.5782677165354331
21
-4.6775196850393703
0
LINE
8
BLACK
6
CONTINUOUS
10
5.5782677165354331
20
-4.6775196850393703
11
5.5786443700787398
21
-4.6775946062992126
0
LINE
8
BLACK
6
CONTINUOUS
10
5.4375196850393701
20
-4.6794881889763777
11
5.4375196850393701
21
-4.8271259842519685
0
LINE
8
BLACK
6
CONTINUOUS
10
5.4375196850393701
20
-4.8271259842519685
11
5.5772834645669294
21
-4.8271259842519685
0
LINE
8
BLACK
6
CONTINUOUS
10
5.5772834645669294
20
-4.8271259842519685
11
5.5772834645669294
21
-4.6794881889763777
0
LINE
8
BLACK
6
CONTINUOUS
10
5.5772834645669294
20
-4.6794881889763777
11
5.4375196850393701
21
-4.6794881889763777
0
LINE
8
BLACK
6
CONTINUOUS
10
6.2400616929133861
20
-4.6827914566929136
11
6.2405943700787398
21
-4.6833241338582674
0
LINE
8
BLACK
6
CONTINUOUS
10
6.2405943700787398
20
-4.6833241338582674
11
6.2406692913385822
21
-4.683700787401575
0
LINE
8
BLACK
6
CONTINUOUS
10
6.2406692913385822
20
-4.683700787401575
11
6.2406692913385822
21
-4.8002362204724411
0
LINE
8
BLACK
6
CONTINUOUS
10
6.2406692913385822
20
-4.8002362204724411
11
6.2405943700787398
21
-4.8006128740157479
0
LINE
8
BLACK
6
CONTINUOUS
10
6.2405943700787398
20
-4.8006128740157479
11
6.2400616929133861
21
-4.8011455511811025
0
LINE
8
BLACK
6
CONTINUOUS
10
6.2400616929133861
20
-4.8011455511811025
11
6.2396850393700785
21
-4.8012204724409449
0
LINE
8
BLACK
6
CONTINUOUS
10
6.2396850393700785
20
-4.8012204724409449
11
6.1822047244094485
21
-4.8012204724409449
0
LINE
8
BLACK
6
CONTINUOUS
10
6.1822047244094485
20
-4.8012204724409449
11
6.1818280708661417
21
-4.8011455511811025
0
LINE
8
BLACK
6
CONTINUOUS
10
6.1818280708661417
20
-4.8011455511811025
11
6.1812953937007871
21
-4.8006128740157479
0
LINE
8
BLACK
6
CONTINUOUS
10
6.1812953937007871
20
-4.8006128740157479
11
6.1812204724409447
21
-4.8002362204724411
0
LINE
8
BLACK
6
CONTINUOUS
10
6.1812204724409447
20
-4.8002362204724411
11
6.1812204724409447
21
-4.683700787401575
0
LINE
8
BLACK
6
CONTINUOUS
10
6.1812204724409447
20
-4.683700787401575
11
6.1812953937007871
21
-4.6833241338582674
0
LINE
8
BLACK
6
CONTINUOUS
10
6.1812953937007871
20
-4.6833241338582674
11
6.1818280708661417
21
-4.6827914566929136
0
LINE
8
BLACK
6
CONTINUOUS
10
6.1818280708661417
20
-4.6827914566929136
11
6.1822047244094485
21
-4.6827165354330704
0
LINE
8
BLACK
6
CONTINUOUS
10
6.1822047244094485
20
-4.6827165354330704
11
6.2396850393700785
21
-4.6827165354330704
0
LINE
8
BLACK
6
CONTINUOUS
10
6.2396850393700785
20
-4.6827165354330704
11
6.2400616929133861
21
-4.6827914566929136
0
LINE
8
BLACK
6
CONTINUOUS
10
6.1831889763779522
20
-4.6846850393700787
11
6.1831889763779522
21
-4.7992519685039365
0
LINE
8
BLACK
6
CONTINUOUS
10
6.1831889763779522
20
-4.7992519685039365
11
6.2387007874015747
21
-4.7992519685039365
0
LINE
8
BLACK
6
CONTINUOUS
10
6.2387007874015747
20
-4.7992519685039365
11
6.2387007874015747
21
-4.6846850393700787
0
LINE
8
BLACK
6
CONTINUOUS
10
6.2387007874015747
20
-4.6846850393700787
11
6.1831889763779522
21
-4.6846850393700787
0
LINE
8
BLACK
6
CONTINUOUS
10
6.3463609055118111
20
-4.7540512992125983
11
6.3468935826771649
21
-4.7545839763779529
0
LINE
8
BLACK
6
CONTINUOUS
10
6.3468935826771649
20
-4.7545839763779529
11
6.3469685039370081
21
-4.7549606299212597
0
LINE
8
BLACK
6
CONTINUOUS
10
6.3469685039370081
20
-4.7549606299212597
11
6.3469685039370081
21
-4.7919685039370075
0
LINE
8
BLACK
6
CONTINUOUS
10
6.3469685039370081
20
-4.7919685039370075
11
6.3468935826771649
21
-4.7923451574803151
0
LINE
8
BLACK
6
CONTINUOUS
10
6.3468935826771649
20
-4.7923451574803151
11
6.3463609055118111
21
-4.7928778346456689
0
LINE
8
BLACK
6
CONTINUOUS
10
6.3463609055118111
20
-4.7928778346456689
11
6.3459842519685035
21
-4.7929527559055121
0
LINE
8
BLACK
6
CONTINUOUS
10
6.3459842519685035
20
-4.7929527559055121
11
6.2727559055118105
21
-4.7929527559055121
0
LINE
8
BLACK
6
CONTINUOUS
10
6.2727559055118105
20
-4.7929527559055121
11
6.2723792519685038
21
-4.7928778346456689
0
LINE
8
BLACK
6
CONTINUOUS
10
6.2723792519685038
20
-4.7928778346456689
11
6.2718465748031491
21
-4.7923451574803151
0
LINE
8
BLACK
6
CONTINUOUS
10
6.2718465748031491
20
-4.7923451574803151
11
6.2717716535433068
21
-4.7919685039370075
0
LINE
8
BLACK
6
CONTINUOUS
10
6.2717716535433068
20
-4.7919685039370075
11
6.2717716535433068
21
-4.7549606299212597
0
LINE
8
BLACK
6
CONTINUOUS
10
6.2717716535433068
20
-4.7549606299212597
11
6.2718465748031491
21
-4.7545839763779529
0
LINE
8
BLACK
6
CONTINUOUS
10
6.2718465748031491
20
-4.7545839763779529
11
6.2723792519685038
21
-4.7540512992125983
0
LINE
8
BLACK
6
CONTINUOUS
10
6.2723792519685038
20
-4.7540512992125983
11
6.2727559055118105
21
-4.753976377952756
0
LINE
8
BLACK
6
CONTINUOUS
10
6.2727559055118105
20
-4.753976377952756
11
6.3459842519685035
21
-4.753976377952756
0
LINE
8
BLACK
6
CONTINUOUS
10
6.3459842519685035
20
-4.753976377952756
11
6.3463609055118111
21
-4.7540512992125983
0
LINE
8
BLACK
6
CONTINUOUS
10
6.2737401574803151
20
-4.7559448818897634
11
6.2737401574803151
21
-4.7909842519685037
0
LINE
8
BLACK
6
CONTINUOUS
10
6.2737401574803151
20
-4.7909842519685037
11
6.3449999999999998
21
-4.7909842519685037
0
LINE
8
BLACK
6
CONTINUOUS
10
6.3449999999999998
20
-4.7909842519685037
11
6.3449999999999998
21
-4.7559448818897634
0
LINE
8
BLACK
6
CONTINUOUS
10
6.3449999999999998
20
-4.7559448818897634
11
6.2737401574803151
21
-4.7559448818897634
0
LINE
8
BLACK
6
CONTINUOUS
10
6.6491168110236218
20
-4.6608229527559057
11
6.6496494881889765
21
-4.6613556299212595
0
LINE
8
BLACK
6
CONTINUOUS
10
6.6496494881889765
20
-4.6613556299212595
11
6.6497244094488188
21
-4.6617322834645671
0
LINE
8
BLACK
6
CONTINUOUS
10
6.6497244094488188
20
-4.6617322834645671
11
6.6497244094488188
21
-4.7782677165354333
0
LINE
8
BLACK
6
CONTINUOUS
10
6.6497244094488188
20
-4.7782677165354333
11
6.6496494881889765
21
-4.77864437007874
0
LINE
8
BLACK
6
CONTINUOUS
10
6.6496494881889765
20
-4.77864437007874
11
6.6491168110236218
21
-4.7791770472440946
0
LINE
8
BLACK
6
CONTINUOUS
10
6.6491168110236218
20
-4.7791770472440946
11
6.6487401574803151
21
-4.779251968503937
0
LINE
8
BLACK
6
CONTINUOUS
10
6.6487401574803151
20
-4.779251968503937
11
6.5912598425196851
21
-4.779251968503937
0
LINE
8
BLACK
6
CONTINUOUS
10
6.5912598425196851
20
-4.779251968503937
11
6.5908831889763775
21
-4.7791770472440946
0
LINE
8
BLACK
6
CONTINUOUS
10
6.5908831889763775
20
-4.7791770472440946
11
6.5903505118110237
21
-4.77864437007874
0
LINE
8
BLACK
6
CONTINUOUS
10
6.5903505118110237
20
-4.77864437007874
11
6.5902755905511814
21
-4.7782677165354333
0
LINE
8
BLACK
6
CONTINUOUS
10
6.5902755905511814
20
-4.7782677165354333
11
6.5902755905511814
21
-4.6617322834645671
0
LINE
8
BLACK
6
CONTINUOUS
10
6.5902755905511814
20
-4.6617322834645671
11
6.5903505118110237
21
-4.6613556299212595
0
LINE
8
BLACK
6
CONTINUOUS
10
6.5903505118110237
20
-4.6613556299212595
11
6.5908831889763775
21
-4.6608229527559057
0
LINE
8
BLACK
6
CONTINUOUS
10
6.5908831889763775
20
-4.6608229527559057
11
6.5912598425196851
21
-4.6607480314960625
0
LINE
8
BLACK
6
CONTINUOUS
10
6.5912598425196851
20
-4.6607480314960625
11
6.6487401574803151
21
-4.6607480314960625
0
LINE
8
BLACK
6
CONTINUOUS
10
6.6487401574803151
20
-4.6607480314960625
11
6.6491168110236218
21
-4.6608229527559057
0
LINE
8
BLACK
6
CONTINUOUS
10
6.5922440944881888
20
-4.6627165354330709
11
6.5922440944881888
21
-4.7772834645669287
0
LINE
8
BLACK
6
CONTINUOUS
10
6.5922440944881888
20
-4.7772834645669287
11
6.6477559055118105
21
-4.7772834645669287
0
LINE
8
BLACK
6
CONTINUOUS
10
6.6477559055118105
20
-4.7772834645669287
11
6.6477559055118105
21
-4.6627165354330709
0
LINE
8
BLACK
6
CONTINUOUS
10
6.6477559055118105
20
-4.6627165354330709
11
6.5922440944881888
21
-4.6627165354330709
0
LINE
8
BLACK
6
CONTINUOUS
10
5.7400616929133861
20
-4.6552324015748034
11
5.7405943700787398
21
-4.6557650787401572
0
LINE
8
BLACK
6
CONTINUOUS
10
5.7405943700787398
20
-4.6557650787401572
11
5.7406692913385822
21
-4.6561417322834648
0
LINE
8
BLACK
6
CONTINUOUS
10
5.7406692913385822
20
-4.6561417322834648
11
5.7406692913385822
21
-4.772677165354331
0
LINE
8
BLACK
6
CONTINUOUS
10
5.7406692913385822
20
-4.772677165354331
11
5.7405943700787398
21
-4.7730538188976377
0
LINE
8
BLACK
6
CONTINUOUS
10
5.7405943700787398
20
-4.7730538188976377
11
5.7400616929133861
21
-4.7735864960629923
0
LINE
8
BLACK
6
CONTINUOUS
10
5.7400616929133861
20
-4.7735864960629923
11
5.7396850393700785
21
-4.7736614173228347
0
LINE
8
BLACK
6
CONTINUOUS
10
5.7396850393700785
20
-4.7736614173228347
11
5.6822047244094485
21
-4.7736614173228347
0
LINE
8
BLACK
6
CONTINUOUS
10
5.6822047244094485
20
-4.7736614173228347
11
5.6818280708661417
21
-4.7735864960629923
0
LINE
8
BLACK
6
CONTINUOUS
10
5.6818280708661417
20
-4.7735864960629923
11
5.6812953937007871
21
-4.7730538188976377
0
LINE
8
BLACK
6
CONTINUOUS
10
5.6812953937007871
20
-4.7730538188976377
11
5.6812204724409447
21
-4.772677165354331
0
LINE
8
BLACK
6
CONTINUOUS
10
5.6812204724409447
20
-4.772677165354331
11
5.6812204724409447
21
-4.6561417322834648
0
LINE
8
BLACK
6
CONTINUOUS
10
5.6812204724409447
20
-4.6561417322834648
11
5.6812953937007871
21
-4.6557650787401572
0
LINE
8
BLACK
6
CONTINUOUS
10
5.6812953937007871
20
-4.6557650787401572
11
5.6818280708661417
21
-4.6552324015748034
0
LINE
8
BLACK
6
CONTINUOUS
10
5.6818280708661417
20
-4.6552324015748034
11
5.6822047244094485
21
-4.6551574803149602
0
LINE
8
BLACK
6
CONTINUOUS
10
5.6822047244094485
20
-4.6551574803149602
11
5.7396850393700785
21
-4.6551574803149602
0
LINE
8
BLACK
6
CONTINUOUS
10
5.7396850393700785
20
-4.6551574803149602
11
5.7400616929133861
21
-4.6552324015748034
0
LINE
8
BLACK
6
CONTINUOUS
10
5.6831889763779531
20
-4.6571259842519686
11
5.6831889763779531
21
-4.7716929133858264
0
LINE
8
BLACK
6
CONTINUOUS
10
5.6831889763779531
20
-4.7716929133858264
11
5.7387007874015747
21
-4.7716929133858264
0
LINE
8
BLACK
6
CONTINUOUS
10
5.7387007874015747
20
-4.7716929133858264
11
5.7387007874015747
21
-4.6571259842519686
0
LINE
8
BLACK
6
CONTINUOUS
10
5.7387007874015747
20
-4.6571259842519686
11
5.6831889763779531
21
-4.6571259842519686
0
LINE
8
BLACK
6
CONTINUOUS
10
5.6699829527559054
20
-4.6301930314960629
11
5.67051562992126
21
-4.6307257086614175
0
LINE
8
BLACK
6
CONTINUOUS
10
5.67051562992126
20
-4.6307257086614175
11
5.6705905511811023
21
-4.6311023622047243
0
LINE
8
BLACK
6
CONTINUOUS
10
5.6705905511811023
20
-4.6311023622047243
11
5.6705905511811023
21
-4.7688976377952752
0
LINE
8
BLACK
6
CONTINUOUS
10
5.6705905511811023
20
-4.7688976377952752
11
5.67051562992126
21
-4.7692742913385828
0
LINE
8
BLACK
6
CONTINUOUS
10
5.67051562992126
20
-4.7692742913385828
11
5.6699829527559054
21
-4.7698069685039366
0
LINE
8
BLACK
6
CONTINUOUS
10
5.6699829527559054
20
-4.7698069685039366
11
5.6696062992125986
21
-4.7698818897637798
0
LINE
8
BLACK
6
CONTINUOUS
10
5.6696062992125986
20
-4.7698818897637798
11
5.602677165354331
21
-4.7698818897637798
0
LINE
8
BLACK
6
CONTINUOUS
10
5.602677165354331
20
-4.7698818897637798
11
5.6023005118110234
21
-4.7698069685039366
0
LINE
8
BLACK
6
CONTINUOUS
10
5.6023005118110234
20
-4.7698069685039366
11
5.6017678346456687
21
-4.7692742913385828
0
LINE
8
BLACK
6
CONTINUOUS
10
5.6017678346456687
20
-4.7692742913385828
11
5.6016929133858264
21
-4.7688976377952752
0
LINE
8
BLACK
6
CONTINUOUS
10
5.6016929133858264
20
-4.7688976377952752
11
5.6016929133858264
21
-4.6311023622047243
0
LINE
8
BLACK
6
CONTINUOUS
10
5.6016929133858264
20
-4.6311023622047243
11
5.6017678346456687
21
-4.6307257086614175
0
LINE
8
BLACK
6
CONTINUOUS
10
5.6017678346456687
20
-4.6307257086614175
11
5.6023005118110234
21
-4.6301930314960629
0
LINE
8
BLACK
6
CONTINUOUS
10
5.6023005118110234
20
-4.6301930314960629
11
5.602677165354331
21
-4.6301181102362206
0
LINE
8
BLACK
6
CONTINUOUS
10
5.602677165354331
20
-4.6301181102362206
11
5.6696062992125986
21
-4.6301181102362206
0
LINE
8
BLACK
6
CONTINUOUS
10
5.6696062992125986
20
-4.6301181102362206
11
5.6699829527559054
21
-4.6301930314960629
0
LINE
8
BLACK
6
CONTINUOUS
10
5.6036614173228347
20
-4.632086614173228
11
5.6036614173228347
21
-4.7679133858267715
0
LINE
8
BLACK
6
CONTINUOUS
10
5.6036614173228347
20
-4.7679133858267715
11
5.668622047244094
21
-4.7679133858267715
0
LINE
8
BLACK
6
CONTINUOUS
10
5.668622047244094
20
-4.7679133858267715
11
5.668622047244094
21
-4.632086614173228
0
LINE
8
BLACK
6
CONTINUOUS
10
5.668622047244094
20
-4.632086614173228
11
5.6036614173228347
21
-4.632086614173228
0
LINE
8
BLACK
6
CONTINUOUS
10
6.1707703543307089
20
-4.6808229527559053
11
6.1713030314960626
21
-4.68135562992126
0
LINE
8
BLACK
6
CONTINUOUS
10
6.1713030314960626
20
-4.68135562992126
11
6.1713779527559049
21
-4.6817322834645667
0
LINE
8
BLACK
6
CONTINUOUS
10
6.1713779527559049
20
-4.6817322834645667
11
6.1713779527559049
21
-4.7549606299212597
0
LINE
8
BLACK
6
CONTINUOUS
10
6.1713779527559049
20
-4.7549606299212597
11
6.1713030314960626
21
-4.7553372834645664
0
LINE
8
BLACK
6
CONTINUOUS
10
6.1713030314960626
20
-4.7553372834645664
11
6.1707703543307089
21
-4.7558699606299211
0
LINE
8
BLACK
6
CONTINUOUS
10
6.1707703543307089
20
-4.7558699606299211
11
6.1703937007874012
21
-4.7559448818897634
0
LINE
8
BLACK
6
CONTINUOUS
10
6.1703937007874012
20
-4.7559448818897634
11
6.1333858267716534
21
-4.7559448818897634
0
LINE
8
BLACK
6
CONTINUOUS
10
6.1333858267716534
20
-4.7559448818897634
11
6.1330091732283467
21
-4.7558699606299211
0
LINE
8
BLACK
6
CONTINUOUS
10
6.1330091732283467
20
-4.7558699606299211
11
6.1324764960629921
21
-4.7553372834645664
0
LINE
8
BLACK
6
CONTINUOUS
10
6.1324764960629921
20
-4.7553372834645664
11
6.1324015748031497
21
-4.7549606299212597
0
LINE
8
BLACK
6
CONTINUOUS
10
6.1324015748031497
20
-4.7549606299212597
11
6.1324015748031497
21
-4.6817322834645667
0
LINE
8
BLACK
6
CONTINUOUS
10
6.1324015748031497
20
-4.6817322834645667
11
6.1324764960629921
21
-4.68135562992126
0
LINE
8
BLACK
6
CONTINUOUS
10
6.1324764960629921
20
-4.68135562992126
11
6.1330091732283467
21
-4.6808229527559053
0
LINE
8
BLACK
6
CONTINUOUS
10
6.1330091732283467
20
-4.6808229527559053
11
6.1333858267716534
21
-4.680748031496063
0
LINE
8
BLACK
6
CONTINUOUS
10
6.1333858267716534
20
-4.680748031496063
11
6.1703937007874012
21
-4.680748031496063
0
LINE
8
BLACK
6
CONTINUOUS
10
6.1703937007874012
20
-4.680748031496063
11
6.1707703543307089
21
-4.6808229527559053
0
LINE
8
BLACK
6
CONTINUOUS
10
6.1343700787401572
20
-4.6827165354330704
11
6.1343700787401572
21
-4.753976377952756
0
LINE
8
BLACK
6
CONTINUOUS
10
6.1343700787401572
20
-4.753976377952756
11
6.1694094488188975
21
-4.753976377952756
0
LINE
8
BLACK
6
CONTINUOUS
10
6.1694094488188975
20
-4.753976377952756
11
6.1694094488188975
21
-4.6827165354330704
0
LINE
8
BLACK
6
CONTINUOUS
10
6.1694094488188975
20
-4.6827165354330704
11
6.1343700787401572
21
-4.6827165354330704
0
LINE
8
BLACK
6
CONTINUOUS
10
6.5628805905511811
20
-4.6624764960629923
11
6.5634132677165349
21
-4.6630091732283461
0
LINE
8
BLACK
6
CONTINUOUS
10
6.5634132677165349
20
-4.6630091732283461
11
6.5634881889763781
21
-4.6633858267716537
0
LINE
8
BLACK
6
CONTINUOUS
10
6.5634881889763781
20
-4.6633858267716537
11
6.5634881889763781
21
-4.7366141732283467
0
LINE
8
BLACK
6
CONTINUOUS
10
6.5634881889763781
20
-4.7366141732283467
11
6.5634132677165349
21
-4.7369908267716534
0
LINE
8
BLACK
6
CONTINUOUS
10
6.5634132677165349
20
-4.7369908267716534
11
6.5628805905511811
21
-4.7375235039370081
0
LINE
8
BLACK
6
CONTINUOUS
10
6.5628805905511811
20
-4.7375235039370081
11
6.5625039370078735
21
-4.7375984251968504
0
LINE
8
BLACK
6
CONTINUOUS
10
6.5625039370078735
20
-4.7375984251968504
11
6.5254960629921257
21
-4.7375984251968504
0
LINE
8
BLACK
6
CONTINUOUS
10
6.5254960629921257
20
-4.7375984251968504
11
6.525119409448819
21
-4.7375235039370081
0
LINE
8
BLACK
6
CONTINUOUS
10
6.525119409448819
20
-4.7375235039370081
11
6.5245867322834643
21
-4.7369908267716534
0
LINE
8
BLACK
6
CONTINUOUS
10
6.5245867322834643
20
-4.7369908267716534
11
6.524511811023622
21
-4.7366141732283467
0
LINE
8
BLACK
6
CONTINUOUS
10
6.524511811023622
20
-4.7366141732283467
11
6.524511811023622
21
-4.6633858267716537
0
LINE
8
BLACK
6
CONTINUOUS
10
6.524511811023622
20
-4.6633858267716537
11
6.5245867322834643
21
-4.6630091732283461
0
LINE
8
BLACK
6
CONTINUOUS
10
6.5245867322834643
20
-4.6630091732283461
11
6.525119409448819
21
-4.6624764960629923
0
LINE
8
BLACK
6
CONTINUOUS
10
6.525119409448819
20
-4.6624764960629923
11
6.5254960629921257
21
-4.6624015748031491
0
LINE
8
BLACK
6
CONTINUOUS
10
6.5254960629921257
20
-4.6624015748031491
11
6.5625039370078735
21
-4.6624015748031491
0
LINE
8
BLACK
6
CONTINUOUS
10
6.5625039370078735
20
-4.6624015748031491
11
6.5628805905511811
21
-4.6624764960629923
0
LINE
8
BLACK
6
CONTINUOUS
10
6.5264803149606294
20
-4.6643700787401574
11
6.5264803149606294
21
-4.7356299212598421
0
LINE
8
BLACK
6
CONTINUOUS
10
6.5264803149606294
20
-4.7356299212598421
11
6.5615196850393698
21
-4.7356299212598421
0
LINE
8
BLACK
6
CONTINUOUS
10
6.5615196850393698
20
-4.7356299212598421
11
6.5615196850393698
21
-4.6643700787401574
0
LINE
8
BLACK
6
CONTINUOUS
10
6.5615196850393698
20
-4.6643700787401574
11
6.5264803149606294
21
-4.6643700787401574
0
LINE
8
BLACK
6
CONTINUOUS
10
6.3680144488188972
20
-4.6768859448818896
11
6.3685471259842519
21
-4.6774186220472442
0
LINE
8
BLACK
6
CONTINUOUS
10
6.3685471259842519
20
-4.6774186220472442
11
6.3686220472440942
21
-4.677795275590551
0
LINE
8
BLACK
6
CONTINUOUS
10
6.3686220472440942
20
-4.677795275590551
11
6.3686220472440942
21
-4.735275590551181
0
LINE
8
BLACK
6
CONTINUOUS
10
6.3686220472440942
20
-4.735275590551181
11
6.3685471259842519
21
-4.7356522440944877
0
LINE
8
BLACK
6
CONTINUOUS
10
6.3685471259842519
20
-4.7356522440944877
11
6.3680144488188972
21
-4.7361849212598424
0
LINE
8
BLACK
6
CONTINUOUS
10
6.3680144488188972
20
-4.7361849212598424
11
6.3676377952755905
21
-4.7362598425196847
0
LINE
8
BLACK
6
CONTINUOUS
10
6.3676377952755905
20
-4.7362598425196847
11
6.2511023622047244
21
-4.7362598425196847
0
LINE
8
BLACK
6
CONTINUOUS
10
6.2511023622047244
20
-4.7362598425196847
11
6.2507257086614167
21
-4.7361849212598424
0
LINE
8
BLACK
6
CONTINUOUS
10
6.2507257086614167
20
-4.7361849212598424
11
6.250193031496063
21
-4.7356522440944877
0
LINE
8
BLACK
6
CONTINUOUS
10
6.250193031496063
20
-4.7356522440944877
11
6.2501181102362207
21
-4.735275590551181
0
LINE
8
BLACK
6
CONTINUOUS
10
6.2501181102362207
20
-4.735275590551181
11
6.2501181102362207
21
-4.677795275590551
0
LINE
8
BLACK
6
CONTINUOUS
10
6.2501181102362207
20
-4.677795275590551
11
6.250193031496063
21
-4.6774186220472442
0
LINE
8
BLACK
6
CONTINUOUS
10
6.250193031496063
20
-4.6774186220472442
11
6.2507257086614167
21
-4.6768859448818896
0
LINE
8
BLACK
6
CONTINUOUS
10
6.2507257086614167
20
-4.6768859448818896
11
6.2511023622047244
21
-4.6768110236220473
0
LINE
8
BLACK
6
CONTINUOUS
10
6.2511023622047244
20
-4.6768110236220473
11
6.3676377952755905
21
-4.6768110236220473
0
LINE
8
BLACK
6
CONTINUOUS
10
6.3676377952755905
20
-4.6768110236220473
11
6.3680144488188972
21
-4.6768859448818896
0
LINE
8
BLACK
6
CONTINUOUS
10
6.2520866141732281
20
-4.6787795275590547
11
6.2520866141732281
21
-4.7342913385826773
0
LINE
8
BLACK
6
CONTINUOUS
10
6.2520866141732281
20
-4.7342913385826773
11
6.3666535433070868
21
-4.7342913385826773
0
LINE
8
BLACK
6
CONTINUOUS
10
6.3666535433070868
20
-4.7342913385826773
11
6.3666535433070868
21
-4.6787795275590547
0
LINE
8
BLACK
6
CONTINUOUS
10
6.3666535433070868
20
-4.6787795275590547
11
6.2520866141732281
21
-4.6787795275590547
0
LINE
8
BLACK
6
CONTINUOUS
10
6.5050931889763781
20
-4.6763505118110231
11
6.5056258661417319
21
-4.6768831889763778
0
LINE
8
BLACK
6
CONTINUOUS
10
6.5056258661417319
20
-4.6768831889763778
11
6.5057007874015751
21
-4.6772598425196845
0
LINE
8
BLACK
6
CONTINUOUS
10
6.5057007874015751
20
-4.6772598425196845
11
6.5057007874015751
21
-4.7347401574803145
0
LINE
8
BLACK
6
CONTINUOUS
10
6.5057007874015751
20
-4.7347401574803145
11
6.5056258661417319
21
-4.7351168110236221
0
LINE
8
BLACK
6
CONTINUOUS
10
6.5056258661417319
20
-4.7351168110236221
11
6.5050931889763781
21
-4.7356494881889759
0
LINE
8
BLACK
6
CONTINUOUS
10
6.5050931889763781
20
-4.7356494881889759
11
6.5047165354330705
21
-4.7357244094488191
0
LINE
8
BLACK
6
CONTINUOUS
10
6.5047165354330705
20
-4.7357244094488191
11
6.3881811023622044
21
-4.7357244094488191
0
LINE
8
BLACK
6
CONTINUOUS
10
6.3881811023622044
20
-4.7357244094488191
11
6.3878044488188976
21
-4.7356494881889759
0
LINE
8
BLACK
6
CONTINUOUS
10
6.3878044488188976
20
-4.7356494881889759
11
6.387271771653543
21
-4.7351168110236221
0
LINE
8
BLACK
6
CONTINUOUS
10
6.387271771653543
20
-4.7351168110236221
11
6.3871968503937007
21
-4.7347401574803145
0
LINE
8
BLACK
6
CONTINUOUS
10
6.3871968503937007
20
-4.7347401574803145
11
6.3871968503937007
21
-4.6772598425196845
0
LINE
8
BLACK
6
CONTINUOUS
10
6.3871968503937007
20
-4.6772598425196845
11
6.387271771653543
21
-4.6768831889763778
0
LINE
8
BLACK
6
CONTINUOUS
10
6.387271771653543
20
-4.6768831889763778
11
6.3878044488188976
21
-4.6763505118110231
0
LINE
8
BLACK
6
CONTINUOUS
10
6.3878044488188976
20
-4.6763505118110231
11
6.3881811023622044
21
-4.6762755905511808
0
LINE
8
BLACK
6
CONTINUOUS
10
6.3881811023622044
20
-4.6762755905511808
11
6.5047165354330705
21
-4.6762755905511808
0
LINE
8
BLACK
6
CONTINUOUS
10
6.5047165354330705
20
-4.6762755905511808
11
6.5050931889763781
21
-4.6763505118110231
0
LINE
8
BLACK
6
CONTINUOUS
10
6.3891653543307081
20
-4.6782440944881891
11
6.3891653543307081
21
-4.7337559055118108
0
LINE
8
BLACK
6
CONTINUOUS
10
6.3891653543307081
20
-4.7337559055118108
11
6.5037322834645668
21
-4.7337559055118108
0
LINE
8
BLACK
6
CONTINUOUS
10
6.5037322834645668
20
-4.7337559055118108
11
6.5037322834645668
21
-4.6782440944881891
0
LINE
8
BLACK
6
CONTINUOUS
10
6.5037322834645668
20
-4.6782440944881891
11
6.3891653543307081
21
-4.6782440944881891
0
LINE
8
BLACK
6
CONTINUOUS
10
6.0026601181102359
20
-4.5284607480314962
11
6.0031927952755906
21
-4.52899342519685
0
LINE
8
BLACK
6
CONTINUOUS
10
6.0031927952755906
20
-4.52899342519685
11
6.0032677165354329
21
-4.5293700787401576
0
LINE
8
BLACK
6
CONTINUOUS
10
6.0032677165354329
20
-4.5293700787401576
11
6.0032677165354329
21
-4.7340944881889762
0
LINE
8
BLACK
6
CONTINUOUS
10
6.0032677165354329
20
-4.7340944881889762
11
6.0031927952755906
21
-4.7344711417322838
0
LINE
8
BLACK
6
CONTINUOUS
10
6.0031927952755906
20
-4.7344711417322838
11
6.0026601181102359
21
-4.7350038188976376
0
LINE
8
BLACK
6
CONTINUOUS
10
6.0026601181102359
20
-4.7350038188976376
11
6.0022834645669292
21
-4.7350787401574799
0
LINE
8
BLACK
6
CONTINUOUS
10
6.0022834645669292
20
-4.7350787401574799
11
5.7975590551181098
21
-4.7350787401574799
0
LINE
8
BLACK
6
CONTINUOUS
10
5.7975590551181098
20
-4.7350787401574799
11
5.797182401574803
21
-4.7350038188976376
0
LINE
8
BLACK
6
CONTINUOUS
10
5.797182401574803
20
-4.7350038188976376
11
5.7966497244094484
21
-4.7344711417322838
0
LINE
8
BLACK
6
CONTINUOUS
10
5.7966497244094484
20
-4.7344711417322838
11
5.796574803149606
21
-4.7340944881889762
0
LINE
8
BLACK
6
CONTINUOUS
10
5.796574803149606
20
-4.7340944881889762
11
5.796574803149606
21
-4.5293700787401576
0
LINE
8
BLACK
6
CONTINUOUS
10
5.796574803149606
20
-4.5293700787401576
11
5.7966497244094484
21
-4.52899342519685
0
LINE
8
BLACK
6
CONTINUOUS
10
5.7966497244094484
20
-4.52899342519685
11
5.797182401574803
21
-4.5284607480314962
0
LINE
8
BLACK
6
CONTINUOUS
10
5.797182401574803
20
-4.5284607480314962
11
5.7975590551181098
21
-4.528385826771653
0
LINE
8
BLACK
6
CONTINUOUS
10
5.7975590551181098
20
-4.528385826771653
11
6.0022834645669292
21
-4.528385826771653
0
LINE
8
BLACK
6
CONTINUOUS
10
6.0022834645669292
20
-4.528385826771653
11
6.0026601181102359
21
-4.5284607480314962
0
LINE
8
BLACK
6
CONTINUOUS
10
5.7985433070866144
20
-4.5303543307086613
11
5.7985433070866144
21
-4.7331102362204724
0
LINE
8
BLACK
6
CONTINUOUS
10
5.7985433070866144
20
-4.7331102362204724
11
6.0012992125984255
21
-4.7331102362204724
0
LINE
8
BLACK
6
CONTINUOUS
10
6.0012992125984255
20
-4.7331102362204724
11
6.0012992125984255
21
-4.5303543307086613
0
LINE
8
BLACK
6
CONTINUOUS
10
6.0012992125984255
20
-4.5303543307086613
11
5.7985433070866144
21
-4.5303543307086613
0
LINE
8
BLACK
6
CONTINUOUS
10
6.121951456692913
20
-4.6792481496062992
11
6.1224841338582676
21
-4.6797808267716539
0
LINE
8
BLACK
6
CONTINUOUS
10
6.1224841338582676
20
-4.6797808267716539
11
6.1225590551181099
21
-4.6801574803149606
0
LINE
8
BLACK
6
CONTINUOUS
10
6.1225590551181099
20
-4.6801574803149606
11
6.1225590551181099
21
-4.7171653543307084
0
LINE
8
BLACK
6
CONTINUOUS
10
6.1225590551181099
20
-4.7171653543307084
11
6.1224841338582676
21
-4.717542007874016
0
LINE
8
BLACK
6
CONTINUOUS
10
6.1224841338582676
20
-4.717542007874016
11
6.121951456692913
21
-4.7180746850393698
0
LINE
8
BLACK
6
CONTINUOUS
10
6.121951456692913
20
-4.7180746850393698
11
6.1215748031496062
21
-4.7181496062992121
0
LINE
8
BLACK
6
CONTINUOUS
10
6.1215748031496062
20
-4.7181496062992121
11
6.0483464566929133
21
-4.7181496062992121
0
LINE
8
BLACK
6
CONTINUOUS
10
6.0483464566929133
20
-4.7181496062992121
11
6.0479698031496065
21
-4.7180746850393698
0
LINE
8
BLACK
6
CONTINUOUS
10
6.0479698031496065
20
-4.7180746850393698
11
6.0474371259842519
21
-4.717542007874016
0
LINE
8
BLACK
6
CONTINUOUS
10
6.0474371259842519
20
-4.717542007874016
11
6.0473622047244096
21
-4.7171653543307084
0
LINE
8
BLACK
6
CONTINUOUS
10
6.0473622047244096
20
-4.7171653543307084
11
6.0473622047244096
21
-4.6801574803149606
0
LINE
8
BLACK
6
CONTINUOUS
10
6.0473622047244096
20
-4.6801574803149606
11
6.0474371259842519
21
-4.6797808267716539
0
LINE
8
BLACK
6
CONTINUOUS
10
6.0474371259842519
20
-4.6797808267716539
11
6.0479698031496065
21
-4.6792481496062992
0
LINE
8
BLACK
6
CONTINUOUS
10
6.0479698031496065
20
-4.6792481496062992
11
6.0483464566929133
21
-4.6791732283464569
0
LINE
8
BLACK
6
CONTINUOUS
10
6.0483464566929133
20
-4.6791732283464569
11
6.1215748031496062
21
-4.6791732283464569
0
LINE
8
BLACK
6
CONTINUOUS
10
6.1215748031496062
20
-4.6791732283464569
11
6.121951456692913
21
-4.6792481496062992
0
LINE
8
BLACK
6
CONTINUOUS
10
6.049330708661417
20
-4.6811417322834643
11
6.049330708661417
21
-4.7161811023622047
0
LINE
8
BLACK
6
CONTINUOUS
10
6.049330708661417
20
-4.7161811023622047
11
6.1205905511811025
21
-4.7161811023622047
0
LINE
8
BLACK
6
CONTINUOUS
10
6.1205905511811025
20
-4.7161811023622047
11
6.1205905511811025
21
-4.6811417322834643
0
LINE
8
BLACK
6
CONTINUOUS
10
6.1205905511811025
20
-4.6811417322834643
11
6.049330708661417
21
-4.6811417322834643
0
LINE
8
BLACK
6
CONTINUOUS
10
5.5747073622047241
20
-4.591767834645669
11
5.5752400393700787
21
-4.5923005118110236
0
LINE
8
BLACK
6
CONTINUOUS
10
5.5752400393700787
20
-4.5923005118110236
11
5.575314960629921
21
-4.5926771653543303
0
LINE
8
BLACK
6
CONTINUOUS
10
5.575314960629921
20
-4.5926771653543303
11
5.575314960629921
21
-4.6698425196850391
0
LINE
8
BLACK
6
CONTINUOUS
10
5.575314960629921
20
-4.6698425196850391
11
5.5752400393700787
21
-4.6702191732283467
0
LINE
8
BLACK
6
CONTINUOUS
10
5.5752400393700787
20
-4.6702191732283467
11
5.5747073622047241
21
-4.6707518503937004
0
LINE
8
BLACK
6
CONTINUOUS
10
5.5747073622047241
20
-4.6707518503937004
11
5.5743307086614173
21
-4.6708267716535428
0
LINE
8
BLACK
6
CONTINUOUS
10
5.5743307086614173
20
-4.6708267716535428
11
5.4404724409448821
21
-4.6708267716535428
0
LINE
8
BLACK
6
CONTINUOUS
10
5.4404724409448821
20
-4.6708267716535428
11
5.4400957874015745
21
-4.6707518503937004
0
LINE
8
BLACK
6
CONTINUOUS
10
5.4400957874015745
20
-4.6707518503937004
11
5.4395631102362207
21
-4.6702191732283467
0
LINE
8
BLACK
6
CONTINUOUS
10
5.4395631102362207
20
-4.6702191732283467
11
5.4394881889763775
21
-4.6698425196850391
0
LINE
8
BLACK
6
CONTINUOUS
10
5.4394881889763775
20
-4.6698425196850391
11
5.4394881889763775
21
-4.5926771653543303
0
LINE
8
BLACK
6
CONTINUOUS
10
5.4394881889763775
20
-4.5926771653543303
11
5.4395631102362207
21
-4.5923005118110236
0
LINE
8
BLACK
6
CONTINUOUS
10
5.4395631102362207
20
-4.5923005118110236
11
5.4400957874015745
21
-4.591767834645669
0
LINE
8
BLACK
6
CONTINUOUS
10
5.4400957874015745
20
-4.591767834645669
11
5.4404724409448821
21
-4.5916929133858266
0
LINE
8
BLACK
6
CONTINUOUS
10
5.4404724409448821
20
-4.5916929133858266
11
5.5743307086614173
21
-4.5916929133858266
0
LINE
8
BLACK
6
CONTINUOUS
10
5.5743307086614173
20
-4.5916929133858266
11
5.5747073622047241
21
-4.591767834645669
0
LINE
8
BLACK
6
CONTINUOUS
10
5.4414566929133859
20
-4.593661417322835
11
5.4414566929133859
21
-4.6688582677165353
0
LINE
8
BLACK
6
CONTINUOUS
10
5.4414566929133859
20
-4.6688582677165353
11
5.5733464566929136
21
-4.6688582677165353
0
LINE
8
BLACK
6
CONTINUOUS
10
5.5733464566929136
20
-4.6688582677165353
11
5.5733464566929136
21
-4.593661417322835
0
LINE
8
BLACK
6
CONTINUOUS
10
5.5733464566929136
20
-4.593661417322835
11
5.4414566929133859
21
-4.593661417322835
0
LINE
8
BLACK
6
CONTINUOUS
10
6.2991955511811026
20
-4.5784607480314961
11
6.2997282283464564
21
-4.5789934251968507
0
LINE
8
BLACK
6
CONTINUOUS
10
6.2997282283464564
20
-4.5789934251968507
11
6.2998031496062987
21
-4.5793700787401574
0
LINE
8
BLACK
6
CONTINUOUS
10
6.2998031496062987
20
-4.5793700787401574
11
6.2998031496062987
21
-4.6368503937007874
0
LINE
8
BLACK
6
CONTINUOUS
10
6.2998031496062987
20
-4.6368503937007874
11
6.2997282283464564
21
-4.6372270472440942
0
LINE
8
BLACK
6
CONTINUOUS
10
6.2997282283464564
20
-4.6372270472440942
11
6.2991955511811026
21
-4.6377597244094488
0
LINE
8
BLACK
6
CONTINUOUS
10
6.2991955511811026
20
-4.6377597244094488
11
6.298818897637795
21
-4.6378346456692912
0
LINE
8
BLACK
6
CONTINUOUS
10
6.298818897637795
20
-4.6378346456692912
11
6.1822834645669289
21
-4.6378346456692912
0
LINE
8
BLACK
6
CONTINUOUS
10
6.1822834645669289
20
-4.6378346456692912
11
6.1819068110236222
21
-4.6377597244094488
0
LINE
8
BLACK
6
CONTINUOUS
10
6.1819068110236222
20
-4.6377597244094488
11
6.1813741338582675
21
-4.6372270472440942
0
LINE
8
BLACK
6
CONTINUOUS
10
6.1813741338582675
20
-4.6372270472440942
11
6.1812992125984252
21
-4.6368503937007874
0
LINE
8
BLACK
6
CONTINUOUS
10
6.1812992125984252
20
-4.6368503937007874
11
6.1812992125984252
21
-4.5793700787401574
0
LINE
8
BLACK
6
CONTINUOUS
10
6.1812992125984252
20
-4.5793700787401574
11
6.1813741338582675
21
-4.5789934251968507
0
LINE
8
BLACK
6
CONTINUOUS
10
6.1813741338582675
20
-4.5789934251968507
11
6.1819068110236222
21
-4.5784607480314961
0
LINE
8
BLACK
6
CONTINUOUS
10
6.1819068110236222
20
-4.5784607480314961
11
6.1822834645669289
21
-4.5783858267716537
0
LINE
8
BLACK
6
CONTINUOUS
10
6.1822834645669289
20
-4.5783858267716537
11
6.298818897637795
21
-4.5783858267716537
0
LINE
8
BLACK
6
CONTINUOUS
10
6.298818897637795
20
-4.5783858267716537
11
6.2991955511811026
21
-4.5784607480314961
0
LINE
8
BLACK
6
CONTINUOUS
10
6.1832677165354326
20
-4.5803543307086612
11
6.1832677165354326
21
-4.6358661417322837
0
LINE
8
BLACK
6
CONTINUOUS
10
6.1832677165354326
20
-4.6358661417322837
11
6.2978346456692913
21
-4.6358661417322837
0
LINE
8
BLACK
6
CONTINUOUS
10
6.2978346456692913
20
-4.6358661417322837
11
6.2978346456692913
21
-4.5803543307086612
0
LINE
8
BLACK
6
CONTINUOUS
10
6.2978346456692913
20
-4.5803543307086612
11
6.1832677165354326
21
-4.5803543307086612
0
LINE
8
BLACK
6
CONTINUOUS
10
6.3896679921259842
20
-4.5135001181102359
11
6.390200669291338
21
-4.5140327952755905
0
LINE
8
BLACK
6
CONTINUOUS
10
6.390200669291338
20
-4.5140327952755905
11
6.3902755905511812
21
-4.5144094488188973
0
LINE
8
BLACK
6
CONTINUOUS
10
6.3902755905511812
20
-4.5144094488188973
11
6.3902755905511812
21
-4.6309448818897634
0
LINE
8
BLACK
6
CONTINUOUS
10
6.3902755905511812
20
-4.6309448818897634
11
6.390200669291338
21
-4.631321535433071
0
LINE
8
BLACK
6
CONTINUOUS
10
6.390200669291338
20
-4.631321535433071
11
6.3896679921259842
21
-4.6318542125984248
0
LINE
8
BLACK
6
CONTINUOUS
10
6.3896679921259842
20
-4.6318542125984248
11
6.3892913385826766
21
-4.631929133858268
0
LINE
8
BLACK
6
CONTINUOUS
10
6.3892913385826766
20
-4.631929133858268
11
6.3318110236220475
21
-4.631929133858268
0
LINE
8
BLACK
6
CONTINUOUS
10
6.3318110236220475
20
-4.631929133858268
11
6.3314343700787399
21
-4.6318542125984248
0
LINE
8
BLACK
6
CONTINUOUS
10
6.3314343700787399
20
-4.6318542125984248
11
6.3309016929133861
21
-4.631321535433071
0
LINE
8
BLACK
6
CONTINUOUS
10
6.3309016929133861
20
-4.631321535433071
11
6.3308267716535429
21
-4.6309448818897634
0
LINE
8
BLACK
6
CONTINUOUS
10
6.3308267716535429
20
-4.6309448818897634
11
6.3308267716535429
21
-4.5144094488188973
0
LINE
8
BLACK
6
CONTINUOUS
10
6.3308267716535429
20
-4.5144094488188973
11
6.3309016929133861
21
-4.5140327952755905
0
LINE
8
BLACK
6
CONTINUOUS
10
6.3309016929133861
20
-4.5140327952755905
11
6.3314343700787399
21
-4.5135001181102359
0
LINE
8
BLACK
6
CONTINUOUS
10
6.3314343700787399
20
-4.5135001181102359
11
6.3318110236220475
21
-4.5134251968503936
0
LINE
8
BLACK
6
CONTINUOUS
10
6.3318110236220475
20
-4.5134251968503936
11
6.3892913385826766
21
-4.5134251968503936
0
LINE
8
BLACK
6
CONTINUOUS
10
6.3892913385826766
20
-4.5134251968503936
11
6.3896679921259842
21
-4.5135001181102359
0
LINE
8
BLACK
6
CONTINUOUS
10
6.3327952755905512
20
-4.5153937007874019
11
6.3327952755905512
21
-4.6299606299212597
0
LINE
8
BLACK
6
CONTINUOUS
10
6.3327952755905512
20
-4.6299606299212597
11
6.3883070866141729
21
-4.6299606299212597
0
LINE
8
BLACK
6
CONTINUOUS
10
6.3883070866141729
20
-4.6299606299212597
11
6.3883070866141729
21
-4.5153937007874019
0
LINE
8
BLACK
6
CONTINUOUS
10
6.3883070866141729
20
-4.5153937007874019
11
6.3327952755905512
21
-4.5153937007874019
0
LINE
8
BLACK
6
CONTINUOUS
10
5.6770695669291333
20
-4.5095631102362201
11
5.677602244094488
21
-4.5100957874015748
0
LINE
8
BLACK
6
CONTINUOUS
10
5.677602244094488
20
-4.5100957874015748
11
5.6776771653543303
21
-4.5104724409448815
0
LINE
8
BLACK
6
CONTINUOUS
10
5.6776771653543303
20
-4.5104724409448815
11
5.6776771653543303
21
-4.6270078740157476
0
LINE
8
BLACK
6
CONTINUOUS
10
5.6776771653543303
20
-4.6270078740157476
11
5.677602244094488
21
-4.6273845275590553
0
LINE
8
BLACK
6
CONTINUOUS
10
5.677602244094488
20
-4.6273845275590553
11
5.6770695669291333
21
-4.627917204724409
0
LINE
8
BLACK
6
CONTINUOUS
10
5.6770695669291333
20
-4.627917204724409
11
5.6766929133858266
21
-4.6279921259842522
0
LINE
8
BLACK
6
CONTINUOUS
10
5.6766929133858266
20
-4.6279921259842522
11
5.6192125984251966
21
-4.6279921259842522
0
LINE
8
BLACK
6
CONTINUOUS
10
5.6192125984251966
20
-4.6279921259842522
11
5.6188359448818899
21
-4.627917204724409
0
LINE
8
BLACK
6
CONTINUOUS
10
5.6188359448818899
20
-4.627917204724409
11
5.6183032677165352
21
-4.6273845275590553
0
LINE
8
BLACK
6
CONTINUOUS
10
5.6183032677165352
20
-4.6273845275590553
11
5.6182283464566929
21
-4.6270078740157476
0
LINE
8
BLACK
6
CONTINUOUS
10
5.6182283464566929
20
-4.6270078740157476
11
5.6182283464566929
21
-4.5104724409448815
0
LINE
8
BLACK
6
CONTINUOUS
10
5.6182283464566929
20
-4.5104724409448815
11
5.6183032677165352
21
-4.5100957874015748
0
LINE
8
BLACK
6
CONTINUOUS
10
5.6183032677165352
20
-4.5100957874015748
11
5.6188359448818899
21
-4.5095631102362201
0
LINE
8
BLACK
6
CONTINUOUS
10
5.6188359448818899
20
-4.5095631102362201
11
5.6192125984251966
21
-4.5094881889763778
0
LINE
8
BLACK
6
CONTINUOUS
10
5.6192125984251966
20
-4.5094881889763778
11
5.6766929133858266
21
-4.5094881889763778
0
LINE
8
BLACK
6
CONTINUOUS
10
5.6766929133858266
20
-4.5094881889763778
11
5.6770695669291333
21
-4.5095631102362201
0
LINE
8
BLACK
6
CONTINUOUS
10
5.6201968503937003
20
-4.5114566929133861
11
5.6201968503937003
21
-4.6260236220472439
0
LINE
8
BLACK
6
CONTINUOUS
10
5.6201968503937003
20
-4.6260236220472439
11
5.6757086614173229
21
-4.6260236220472439
0
LINE
8
BLACK
6
CONTINUOUS
10
5.6757086614173229
20
-4.6260236220472439
11
5.6757086614173229
21
-4.5114566929133861
0
LINE
8
BLACK
6
CONTINUOUS
10
5.6757086614173229
20
-4.5114566929133861
11
5.6201968503937003
21
-4.5114566929133861
0
LINE
8
BLACK
6
CONTINUOUS
10
5.7400616929133861
20
-4.5095631102362201
11
5.7405943700787398
21
-4.5100957874015748
0
LINE
8
BLACK
6
CONTINUOUS
10
5.7405943700787398
20
-4.5100957874015748
11
5.7406692913385822
21
-4.5104724409448815
0
LINE
8
BLACK
6
CONTINUOUS
10
5.7406692913385822
20
-4.5104724409448815
11
5.7406692913385822
21
-4.6270078740157476
0
LINE
8
BLACK
6
CONTINUOUS
10
5.7406692913385822
20
-4.6270078740157476
11
5.7405943700787398
21
-4.6273845275590553
0
LINE
8
BLACK
6
CONTINUOUS
10
5.7405943700787398
20
-4.6273845275590553
11
5.7400616929133861
21
-4.627917204724409
0
LINE
8
BLACK
6
CONTINUOUS
10
5.7400616929133861
20
-4.627917204724409
11
5.7396850393700785
21
-4.6279921259842522
0
LINE
8
BLACK
6
CONTINUOUS
10
5.7396850393700785
20
-4.6279921259842522
11
5.6822047244094485
21
-4.6279921259842522
0
LINE
8
BLACK
6
CONTINUOUS
10
5.6822047244094485
20
-4.6279921259842522
11
5.6818280708661417
21
-4.627917204724409
0
LINE
8
BLACK
6
CONTINUOUS
10
5.6818280708661417
20
-4.627917204724409
11
5.6812953937007871
21
-4.6273845275590553
0
LINE
8
BLACK
6
CONTINUOUS
10
5.6812953937007871
20
-4.6273845275590553
11
5.6812204724409447
21
-4.6270078740157476
0
LINE
8
BLACK
6
CONTINUOUS
10
5.6812204724409447
20
-4.6270078740157476
11
5.6812204724409447
21
-4.5104724409448815
0
LINE
8
BLACK
6
CONTINUOUS
10
5.6812204724409447
20
-4.5104724409448815
11
5.6812953937007871
21
-4.5100957874015748
0
LINE
8
BLACK
6
CONTINUOUS
10
5.6812953937007871
20
-4.5100957874015748
11
5.6818280708661417
21
-4.5095631102362201
0
LINE
8
BLACK
6
CONTINUOUS
10
5.6818280708661417
20
-4.5095631102362201
11
5.6822047244094485
21
-4.5094881889763778
0
LINE
8
BLACK
6
CONTINUOUS
10
5.6822047244094485
20
-4.5094881889763778
11
5.7396850393700785
21
-4.5094881889763778
0
LINE
8
BLACK
6
CONTINUOUS
10
5.7396850393700785
20
-4.5094881889763778
11
5.7400616929133861
21
-4.5095631102362201
0
LINE
8
BLACK
6
CONTINUOUS
10
5.6831889763779531
20
-4.5114566929133861
11
5.6831889763779531
21
-4.6260236220472439
0
LINE
8
BLACK
6
CONTINUOUS
10
5.6831889763779531
20
-4.6260236220472439
11
5.7387007874015747
21
-4.6260236220472439
0
LINE
8
BLACK
6
CONTINUOUS
10
5.7387007874015747
20
-4.6260236220472439
11
5.7387007874015747
21
-4.5114566929133861
0
LINE
8
BLACK
6
CONTINUOUS
10
5.7387007874015747
20
-4.5114566929133861
11
5.6831889763779531
21
-4.5114566929133861
0
LINE
8
BLACK
6
CONTINUOUS
10
6.5554947637795271
20
-4.4985394881889764
11
6.5560274409448818
21
-4.4990721653543302
0
LINE
8
BLACK
6
CONTINUOUS
10
6.5560274409448818
20
-4.4990721653543302
11
6.5561023622047241
21
-4.4994488188976378
0
LINE
8
BLACK
6
CONTINUOUS
10
6.5561023622047241
20
-4.4994488188976378
11
6.5561023622047241
21
-4.6254330708661415
0
LINE
8
BLACK
6
CONTINUOUS
10
6.5561023622047241
20
-4.6254330708661415
11
6.5560274409448818
21
-4.6258097244094492
0
LINE
8
BLACK
6
CONTINUOUS
10
6.5560274409448818
20
-4.6258097244094492
11
6.5554947637795271
21
-4.6263424015748029
0
LINE
8
BLACK
6
CONTINUOUS
10
6.5554947637795271
20
-4.6263424015748029
11
6.5551181102362204
21
-4.6264173228346452
0
LINE
8
BLACK
6
CONTINUOUS
10
6.5551181102362204
20
-4.6264173228346452
11
6.4448818897637796
21
-4.6264173228346452
0
LINE
8
BLACK
6
CONTINUOUS
10
6.4448818897637796
20
-4.6264173228346452
11
6.444505236220472
21
-4.6263424015748029
0
LINE
8
BLACK
6
CONTINUOUS
10
6.444505236220472
20
-4.6263424015748029
11
6.4439725590551182
21
-4.6258097244094492
0
LINE
8
BLACK
6
CONTINUOUS
10
6.4439725590551182
20
-4.6258097244094492
11
6.443897637795275
21
-4.6254330708661415
0
LINE
8
BLACK
6
CONTINUOUS
10
6.443897637795275
20
-4.6254330708661415
11
6.443897637795275
21
-4.4994488188976378
0
LINE
8
BLACK
6
CONTINUOUS
10
6.443897637795275
20
-4.4994488188976378
11
6.4439725590551182
21
-4.4990721653543302
0
LINE
8
BLACK
6
CONTINUOUS
10
6.4439725590551182
20
-4.4990721653543302
11
6.444505236220472
21
-4.4985394881889764
0
LINE
8
BLACK
6
CONTINUOUS
10
6.444505236220472
20
-4.4985394881889764
11
6.4448818897637796
21
-4.4984645669291341
0
LINE
8
BLACK
6
CONTINUOUS
10
6.4448818897637796
20
-4.4984645669291341
11
6.5551181102362204
21
-4.4984645669291341
0
LINE
8
BLACK
6
CONTINUOUS
10
6.5551181102362204
20
-4.4984645669291341
11
6.5554947637795271
21
-4.4985394881889764
0
LINE
8
BLACK
6
CONTINUOUS
10
6.4458661417322833
20
-4.5004330708661415
11
6.4458661417322833
21
-4.6244488188976378
0
LINE
8
BLACK
6
CONTINUOUS
10
6.4458661417322833
20
-4.6244488188976378
11
6.5541338582677167
21
-4.6244488188976378
0
LINE
8
BLACK
6
CONTINUOUS
10
6.5541338582677167
20
-4.6244488188976378
11
6.5541338582677167
21
-4.5004330708661415
0
LINE
8
BLACK
6
CONTINUOUS
10
6.5541338582677167
20
-4.5004330708661415
11
6.4458661417322833
21
-4.5004330708661415
0
LINE
8
BLACK
6
CONTINUOUS
10
6.1594317716535434
20
-4.5351536614173229
11
6.1599644488188972
21
-4.5356863385826767
0
LINE
8
BLACK
6
CONTINUOUS
10
6.1599644488188972
20
-4.5356863385826767
11
6.1600393700787404
21
-4.5360629921259843
0
LINE
8
BLACK
6
CONTINUOUS
10
6.1600393700787404
20
-4.5360629921259843
11
6.1600393700787404
21
-4.6092913385826773
0
LINE
8
BLACK
6
CONTINUOUS
10
6.1600393700787404
20
-4.6092913385826773
11
6.1599644488188972
21
-4.609667992125984
0
LINE
8
BLACK
6
CONTINUOUS
10
6.1599644488188972
20
-4.609667992125984
11
6.1594317716535434
21
-4.6102006692913386
0
LINE
8
BLACK
6
CONTINUOUS
10
6.1594317716535434
20
-4.6102006692913386
11
6.1590551181102358
21
-4.610275590551181
0
LINE
8
BLACK
6
CONTINUOUS
10
6.1590551181102358
20
-4.610275590551181
11
6.122047244094488
21
-4.610275590551181
0
LINE
8
BLACK
6
CONTINUOUS
10
6.122047244094488
20
-4.610275590551181
11
6.1216705905511812
21
-4.6102006692913386
0
LINE
8
BLACK
6
CONTINUOUS
10
6.1216705905511812
20
-4.6102006692913386
11
6.1211379133858266
21
-4.609667992125984
0
LINE
8
BLACK
6
CONTINUOUS
10
6.1211379133858266
20
-4.609667992125984
11
6.1210629921259843
21
-4.6092913385826773
0
LINE
8
BLACK
6
CONTINUOUS
10
6.1210629921259843
20
-4.6092913385826773
11
6.1210629921259843
21
-4.5360629921259843
0
LINE
8
BLACK
6
CONTINUOUS
10
6.1210629921259843
20
-4.5360629921259843
11
6.1211379133858266
21
-4.5356863385826767
0
LINE
8
BLACK
6
CONTINUOUS
10
6.1211379133858266
20
-4.5356863385826767
11
6.1216705905511812
21
-4.5351536614173229
0
LINE
8
BLACK
6
CONTINUOUS
10
6.1216705905511812
20
-4.5351536614173229
11
6.122047244094488
21
-4.5350787401574806
0
LINE
8
BLACK
6
CONTINUOUS
10
6.122047244094488
20
-4.5350787401574806
11
6.1590551181102358
21
-4.5350787401574806
0
LINE
8
BLACK
6
CONTINUOUS
10
6.1590551181102358
20
-4.5350787401574806
11
6.1594317716535434
21
-4.5351536614173229
0
LINE
8
BLACK
6
CONTINUOUS
10
6.1230314960629917
20
-4.537047244094488
11
6.1230314960629917
21
-4.6083070866141735
0
LINE
8
BLACK
6
CONTINUOUS
10
6.1230314960629917
20
-4.6083070866141735
11
6.158070866141732
21
-4.6083070866141735
0
LINE
8
BLACK
6
CONTINUOUS
10
6.158070866141732
20
-4.6083070866141735
11
6.158070866141732
21
-4.537047244094488
0
LINE
8
BLACK
6
CONTINUOUS
10
6.158070866141732
20
-4.537047244094488
11
6.1230314960629917
21
-4.537047244094488
0
LINE
8
BLACK
6
CONTINUOUS
10
5.5194514566929129
20
-4.5031851574803152
11
5.5199841338582676
21
-4.503717834645669
0
LINE
8
BLACK
6
CONTINUOUS
10
5.5199841338582676
20
-4.503717834645669
11
5.5200590551181099
21
-4.5040944881889766
0
LINE
8
BLACK
6
CONTINUOUS
10
5.5200590551181099
20
-4.5040944881889766
11
5.5200590551181099
21
-4.5812598425196853
0
LINE
8
BLACK
6
CONTINUOUS
10
5.5200590551181099
20
-4.5812598425196853
11
5.5199841338582676
21
-4.5816364960629921
0
LINE
8
BLACK
6
CONTINUOUS
10
5.5199841338582676
20
-4.5816364960629921
11
5.5194514566929129
21
-4.5821691732283467
0
LINE
8
BLACK
6
CONTINUOUS
10
5.5194514566929129
20
-4.5821691732283467
11
5.5190748031496062
21
-4.582244094488189
0
LINE
8
BLACK
6
CONTINUOUS
10
5.5190748031496062
20
-4.582244094488189
11
5.385216535433071
21
-4.582244094488189
0
LINE
8
BLACK
6
CONTINUOUS
10
5.385216535433071
20
-4.582244094488189
11
5.3848398818897634
21
-4.5821691732283467
0
LINE
8
BLACK
6
CONTINUOUS
10
5.3848398818897634
20
-4.5821691732283467
11
5.3843072047244096
21
-4.5816364960629921
0
LINE
8
BLACK
6
CONTINUOUS
10
5.3843072047244096
20
-4.5816364960629921
11
5.3842322834645664
21
-4.5812598425196853
0
LINE
8
BLACK
6
CONTINUOUS
10
5.3842322834645664
20
-4.5812598425196853
11
5.3842322834645664
21
-4.5040944881889766
0
LINE
8
BLACK
6
CONTINUOUS
10
5.3842322834645664
20
-4.5040944881889766
11
5.3843072047244096
21
-4.503717834645669
0
LINE
8
BLACK
6
CONTINUOUS
10
5.3843072047244096
20
-4.503717834645669
11
5.3848398818897634
21
-4.5031851574803152
0
LINE
8
BLACK
6
CONTINUOUS
10
5.3848398818897634
20
-4.5031851574803152
11
5.385216535433071
21
-4.503110236220472
0
LINE
8
BLACK
6
CONTINUOUS
10
5.385216535433071
20
-4.503110236220472
11
5.5190748031496062
21
-4.503110236220472
0
LINE
8
BLACK
6
CONTINUOUS
10
5.5190748031496062
20
-4.503110236220472
11
5.5194514566929129
21
-4.5031851574803152
0
LINE
8
BLACK
6
CONTINUOUS
10
5.3862007874015747
20
-4.5050787401574803
11
5.3862007874015747
21
-4.5802755905511807
0
LINE
8
BLACK
6
CONTINUOUS
10
5.3862007874015747
20
-4.5802755905511807
11
5.5180905511811025
21
-4.5802755905511807
0
LINE
8
BLACK
6
CONTINUOUS
10
5.5180905511811025
20
-4.5802755905511807
11
5.5180905511811025
21
-4.5050787401574803
0
LINE
8
BLACK
6
CONTINUOUS
10
5.5180905511811025
20
-4.5050787401574803
11
5.3862007874015747
21
-4.5050787401574803
0
LINE
8
BLACK
6
CONTINUOUS
10
6.2991955511811026
20
-4.5103505118110236
11
6.2997282283464564
21
-4.5108831889763774
0
LINE
8
BLACK
6
CONTINUOUS
10
6.2997282283464564
20
-4.5108831889763774
11
6.2998031496062987
21
-4.511259842519685
0
LINE
8
BLACK
6
CONTINUOUS
10
6.2998031496062987
20
-4.511259842519685
11
6.2998031496062987
21
-4.568740157480315
0
LINE
8
BLACK
6
CONTINUOUS
10
6.2998031496062987
20
-4.568740157480315
11
6.2997282283464564
21
-4.5691168110236218
0
LINE
8
BLACK
6
CONTINUOUS
10
6.2997282283464564
20
-4.5691168110236218
11
6.2991955511811026
21
-4.5696494881889764
0
LINE
8
BLACK
6
CONTINUOUS
10
6.2991955511811026
20
-4.5696494881889764
11
6.298818897637795
21
-4.5697244094488187
0
LINE
8
BLACK
6
CONTINUOUS
10
6.298818897637795
20
-4.5697244094488187
11
6.1822834645669289
21
-4.5697244094488187
0
LINE
8
BLACK
6
CONTINUOUS
10
6.1822834645669289
20
-4.5697244094488187
11
6.1819068110236222
21
-4.5696494881889764
0
LINE
8
BLACK
6
CONTINUOUS
10
6.1819068110236222
20
-4.5696494881889764
11
6.1813741338582675
21
-4.5691168110236218
0
LINE
8
BLACK
6
CONTINUOUS
10
6.1813741338582675
20
-4.5691168110236218
11
6.1812992125984252
21
-4.568740157480315
0
LINE
8
BLACK
6
CONTINUOUS
10
6.1812992125984252
20
-4.568740157480315
11
6.1812992125984252
21
-4.511259842519685
0
LINE
8
BLACK
6
CONTINUOUS
10
6.1812992125984252
20
-4.511259842519685
11
6.1813741338582675
21
-4.5108831889763774
0
LINE
8
BLACK
6
CONTINUOUS
10
6.1813741338582675
20
-4.5108831889763774
11
6.1819068110236222
21
-4.5103505118110236
0
LINE
8
BLACK
6
CONTINUOUS
10
6.1819068110236222
20
-4.5103505118110236
11
6.1822834645669289
21
-4.5102755905511813
0
LINE
8
BLACK
6
CONTINUOUS
10
6.1822834645669289
20
-4.5102755905511813
11
6.298818897637795
21
-4.5102755905511813
0
LINE
8
BLACK
6
CONTINUOUS
10
6.298818897637795
20
-4.5102755905511813
11
6.2991955511811026
21
-4.5103505118110236
0
LINE
8
BLACK
6
CONTINUOUS
10
6.1832677165354326
20
-4.5122440944881888
11
6.1832677165354326
21
-4.5677559055118113
0
LINE
8
BLACK
6
CONTINUOUS
10
6.1832677165354326
20
-4.5677559055118113
11
6.2978346456692913
21
-4.5677559055118113
0
LINE
8
BLACK
6
CONTINUOUS
10
6.2978346456692913
20
-4.5677559055118113
11
6.2978346456692913
21
-4.5122440944881888
0
LINE
8
BLACK
6
CONTINUOUS
10
6.2978346456692913
20
-4.5122440944881888
11
6.1832677165354326
21
-4.5122440944881888
0
LINE
8
BLACK
6
CONTINUOUS
10
5.5837624803149604
20
-4.4500355511811023
11
5.584295157480315
21
-4.4505682283464569
0
LINE
8
BLACK
6
CONTINUOUS
10
5.584295157480315
20
-4.4505682283464569
11
5.5843700787401573
21
-4.4509448818897637
0
LINE
8
BLACK
6
CONTINUOUS
10
5.5843700787401573
20
-4.4509448818897637
11
5.5843700787401573
21
-4.5674803149606298
0
LINE
8
BLACK
6
CONTINUOUS
10
5.5843700787401573
20
-4.5674803149606298
11
5.584295157480315
21
-4.5678569685039365
0
LINE
8
BLACK
6
CONTINUOUS
10
5.584295157480315
20
-4.5678569685039365
11
5.5837624803149604
21
-4.5683896456692912
0
LINE
8
BLACK
6
CONTINUOUS
10
5.5837624803149604
20
-4.5683896456692912
11
5.5833858267716536
21
-4.5684645669291335
0
LINE
8
BLACK
6
CONTINUOUS
10
5.5833858267716536
20
-4.5684645669291335
11
5.5259055118110236
21
-4.5684645669291335
0
LINE
8
BLACK
6
CONTINUOUS
10
5.5259055118110236
20
-4.5684645669291335
11
5.525528858267716
21
-4.5683896456692912
0
LINE
8
BLACK
6
CONTINUOUS
10
5.525528858267716
20
-4.5683896456692912
11
5.5249961811023622
21
-4.5678569685039365
0
LINE
8
BLACK
6
CONTINUOUS
10
5.5249961811023622
20
-4.5678569685039365
11
5.5249212598425199
21
-4.5674803149606298
0
LINE
8
BLACK
6
CONTINUOUS
10
5.5249212598425199
20
-4.5674803149606298
11
5.5249212598425199
21
-4.4509448818897637
0
LINE
8
BLACK
6
CONTINUOUS
10
5.5249212598425199
20
-4.4509448818897637
11
5.5249961811023622
21
-4.4505682283464569
0
LINE
8
BLACK
6
CONTINUOUS
10
5.5249961811023622
20
-4.4505682283464569
11
5.525528858267716
21
-4.4500355511811023
0
LINE
8
BLACK
6
CONTINUOUS
10
5.525528858267716
20
-4.4500355511811023
11
5.5259055118110236
21
-4.44996062992126
0
LINE
8
BLACK
6
CONTINUOUS
10
5.5259055118110236
20
-4.44996062992126
11
5.5833858267716536
21
-4.44996062992126
0
LINE
8
BLACK
6
CONTINUOUS
10
5.5833858267716536
20
-4.44996062992126
11
5.5837624803149604
21
-4.4500355511811023
0
LINE
8
BLACK
6
CONTINUOUS
10
5.5268897637795273
20
-4.4519291338582674
11
5.5268897637795273
21
-4.5664960629921261
0
LINE
8
BLACK
6
CONTINUOUS
10
5.5268897637795273
20
-4.5664960629921261
11
5.5824015748031499
21
-4.5664960629921261
0
LINE
8
BLACK
6
CONTINUOUS
10
5.5824015748031499
20
-4.5664960629921261
11
5.5824015748031499
21
-4.4519291338582674
0
LINE
8
BLACK
6
CONTINUOUS
10
5.5824015748031499
20
-4.4519291338582674
11
5.5268897637795273
21
-4.4519291338582674
0
LINE
8
BLACK
6
CONTINUOUS
10
6.6806758661417325
20
-4.426256023622047
11
6.6812085433070862
21
-4.4267887007874016
0
LINE
8
BLACK
6
CONTINUOUS
10
6.6812085433070862
20
-4.4267887007874016
11
6.6812834645669286
21
-4.4271653543307083
0
LINE
8
BLACK
6
CONTINUOUS
10
6.6812834645669286
20
-4.4271653543307083
11
6.6812834645669286
21
-4.5437007874015745
0
LINE
8
BLACK
6
CONTINUOUS
10
6.6812834645669286
20
-4.5437007874015745
11
6.6812085433070862
21
-4.5440774409448821
0
LINE
8
BLACK
6
CONTINUOUS
10
6.6812085433070862
20
-4.5440774409448821
11
6.6806758661417325
21
-4.5446101181102359
0
LINE
8
BLACK
6
CONTINUOUS
10
6.6806758661417325
20
-4.5446101181102359
11
6.6802992125984249
21
-4.5446850393700791
0
LINE
8
BLACK
6
CONTINUOUS
10
6.6802992125984249
20
-4.5446850393700791
11
6.6228188976377949
21
-4.5446850393700791
0
LINE
8
BLACK
6
CONTINUOUS
10
6.6228188976377949
20
-4.5446850393700791
11
6.6224422440944881
21
-4.5446101181102359
0
LINE
8
BLACK
6
CONTINUOUS
10
6.6224422440944881
20
-4.5446101181102359
11
6.6219095669291335
21
-4.5440774409448821
0
LINE
8
BLACK
6
CONTINUOUS
10
6.6219095669291335
20
-4.5440774409448821
11
6.6218346456692911
21
-4.5437007874015745
0
LINE
8
BLACK
6
CONTINUOUS
10
6.6218346456692911
20
-4.5437007874015745
11
6.6218346456692911
21
-4.4271653543307083
0
LINE
8
BLACK
6
CONTINUOUS
10
6.6218346456692911
20
-4.4271653543307083
11
6.6219095669291335
21
-4.4267887007874016
0
LINE
8
BLACK
6
CONTINUOUS
10
6.6219095669291335
20
-4.4267887007874016
11
6.6224422440944881
21
-4.426256023622047
0
LINE
8
BLACK
6
CONTINUOUS
10
6.6224422440944881
20
-4.426256023622047
11
6.6228188976377949
21
-4.4261811023622046
0
LINE
8
BLACK
6
CONTINUOUS
10
6.6228188976377949
20
-4.4261811023622046
11
6.6802992125984249
21
-4.4261811023622046
0
LINE
8
BLACK
6
CONTINUOUS
10
6.6802992125984249
20
-4.4261811023622046
11
6.6806758661417325
21
-4.426256023622047
0
LINE
8
BLACK
6
CONTINUOUS
10
6.6238031496062995
20
-4.4281496062992121
11
6.6238031496062995
21
-4.5427165354330707
0
LINE
8
BLACK
6
CONTINUOUS
10
6.6238031496062995
20
-4.5427165354330707
11
6.6793149606299211
21
-4.5427165354330707
0
LINE
8
BLACK
6
CONTINUOUS
10
6.6793149606299211
20
-4.5427165354330707
11
6.6793149606299211
21
-4.4281496062992121
0
LINE
8
BLACK
6
CONTINUOUS
10
6.6793149606299211
20
-4.4281496062992121
11
6.6238031496062995
21
-4.4281496062992121
0
LINE
8
BLACK
6
CONTINUOUS
10
6.8291168110236216
20
-4.4208229527559055
11
6.8296494881889762
21
-4.4213556299212593
0
LINE
8
BLACK
6
CONTINUOUS
10
6.8296494881889762
20
-4.4213556299212593
11
6.8297244094488185
21
-4.4217322834645669
0
LINE
8
BLACK
6
CONTINUOUS
10
6.8297244094488185
20
-4.4217322834645669
11
6.8297244094488185
21
-4.538267716535433
0
LINE
8
BLACK
6
CONTINUOUS
10
6.8297244094488185
20
-4.538267716535433
11
6.8296494881889762
21
-4.5386443700787398
0
LINE
8
BLACK
6
CONTINUOUS
10
6.8296494881889762
20
-4.5386443700787398
11
6.8291168110236216
21
-4.5391770472440944
0
LINE
8
BLACK
6
CONTINUOUS
10
6.8291168110236216
20
-4.5391770472440944
11
6.8287401574803148
21
-4.5392519685039368
0
LINE
8
BLACK
6
CONTINUOUS
10
6.8287401574803148
20
-4.5392519685039368
11
6.7712598425196848
21
-4.5392519685039368
0
LINE
8
BLACK
6
CONTINUOUS
10
6.7712598425196848
20
-4.5392519685039368
11
6.7708831889763781
21
-4.5391770472440944
0
LINE
8
BLACK
6
CONTINUOUS
10
6.7708831889763781
20
-4.5391770472440944
11
6.7703505118110234
21
-4.5386443700787398
0
LINE
8
BLACK
6
CONTINUOUS
10
6.7703505118110234
20
-4.5386443700787398
11
6.7702755905511811
21
-4.538267716535433
0
LINE
8
BLACK
6
CONTINUOUS
10
6.7702755905511811
20
-4.538267716535433
11
6.7702755905511811
21
-4.4217322834645669
0
LINE
8
BLACK
6
CONTINUOUS
10
6.7702755905511811
20
-4.4217322834645669
11
6.7703505118110234
21
-4.4213556299212593
0
LINE
8
BLACK
6
CONTINUOUS
10
6.7703505118110234
20
-4.4213556299212593
11
6.7708831889763781
21
-4.4208229527559055
0
LINE
8
BLACK
6
CONTINUOUS
10
6.7708831889763781
20
-4.4208229527559055
11
6.7712598425196848
21
-4.4207480314960632
0
LINE
8
BLACK
6
CONTINUOUS
10
6.7712598425196848
20
-4.4207480314960632
11
6.8287401574803148
21
-4.4207480314960632
0
LINE
8
BLACK
6
CONTINUOUS
10
6.8287401574803148
20
-4.4207480314960632
11
6.8291168110236216
21
-4.4208229527559055
0
LINE
8
BLACK
6
CONTINUOUS
10
6.7722440944881885
20
-4.4227165354330706
11
6.7722440944881885
21
-4.5372834645669293
0
LINE
8
BLACK
6
CONTINUOUS
10
6.7722440944881885
20
-4.5372834645669293
11
6.8277559055118111
21
-4.5372834645669293
0
LINE
8
BLACK
6
CONTINUOUS
10
6.8277559055118111
20
-4.5372834645669293
11
6.8277559055118111
21
-4.4227165354330706
0
LINE
8
BLACK
6
CONTINUOUS
10
6.8277559055118111
20
-4.4227165354330706
11
6.7722440944881885
21
-4.4227165354330706
0
LINE
8
BLACK
6
CONTINUOUS
10
5.7953372834645664
20
-4.4048780708661415
11
5.7958699606299211
21
-4.4054107480314961
0
LINE
8
BLACK
6
CONTINUOUS
10
5.7958699606299211
20
-4.4054107480314961
11
5.7959448818897634
21
-4.4057874015748029
0
LINE
8
BLACK
6
CONTINUOUS
10
5.7959448818897634
20
-4.4057874015748029
11
5.7959448818897634
21
-4.5042125984251964
0
LINE
8
BLACK
6
CONTINUOUS
10
5.7959448818897634
20
-4.5042125984251964
11
5.7958699606299211
21
-4.504589251968504
0
LINE
8
BLACK
6
CONTINUOUS
10
5.7958699606299211
20
-4.504589251968504
11
5.7953372834645664
21
-4.5051219291338578
0
LINE
8
BLACK
6
CONTINUOUS
10
5.7953372834645664
20
-4.5051219291338578
11
5.7949606299212597
21
-4.505196850393701
0
LINE
8
BLACK
6
CONTINUOUS
10
5.7949606299212597
20
-4.505196850393701
11
5.6650393700787403
21
-4.505196850393701
0
LINE
8
BLACK
6
CONTINUOUS
10
5.6650393700787403
20
-4.505196850393701
11
5.6646627165354326
21
-4.5051219291338578
0
LINE
8
BLACK
6
CONTINUOUS
10
5.6646627165354326
20
-4.5051219291338578
11
5.6641300393700789
21
-4.504589251968504
0
LINE
8
BLACK
6
CONTINUOUS
10
5.6641300393700789
20
-4.504589251968504
11
5.6640551181102357
21
-4.5042125984251964
0
LINE
8
BLACK
6
CONTINUOUS
10
5.6640551181102357
20
-4.5042125984251964
11
5.6640551181102357
21
-4.4057874015748029
0
LINE
8
BLACK
6
CONTINUOUS
10
5.6640551181102357
20
-4.4057874015748029
11
5.6641300393700789
21
-4.4054107480314961
0
LINE
8
BLACK
6
CONTINUOUS
10
5.6641300393700789
20
-4.4054107480314961
11
5.6646627165354326
21
-4.4048780708661415
0
LINE
8
BLACK
6
CONTINUOUS
10
5.6646627165354326
20
-4.4048780708661415
11
5.6650393700787403
21
-4.4048031496062992
0
LINE
8
BLACK
6
CONTINUOUS
10
5.6650393700787403
20
-4.4048031496062992
11
5.7949606299212597
21
-4.4048031496062992
0
LINE
8
BLACK
6
CONTINUOUS
10
5.7949606299212597
20
-4.4048031496062992
11
5.7953372834645664
21
-4.4048780708661415
0
LINE
8
BLACK
6
CONTINUOUS
10
5.666023622047244
20
-4.4067716535433066
11
5.666023622047244
21
-4.5032283464566927
0
LINE
8
BLACK
6
CONTINUOUS
10
5.666023622047244
20
-4.5032283464566927
11
5.793976377952756
21
-4.5032283464566927
0
LINE
8
BLACK
6
CONTINUOUS
10
5.793976377952756
20
-4.5032283464566927
11
5.793976377952756
21
-4.4067716535433066
0
LINE
8
BLACK
6
CONTINUOUS
10
5.793976377952756
20
-4.4067716535433066
11
5.666023622047244
21
-4.4067716535433066
0
LINE
8
BLACK
6
CONTINUOUS
10
6.5981955511811021
20
-4.4203505118110238
11
6.5987282283464568
21
-4.4208831889763776
0
LINE
8
BLACK
6
CONTINUOUS
10
6.5987282283464568
20
-4.4208831889763776
11
6.5988031496062991
21
-4.4212598425196852
0
LINE
8
BLACK
6
CONTINUOUS
10
6.5988031496062991
20
-4.4212598425196852
11
6.5988031496062991
21
-4.4787401574803152
0
LINE
8
BLACK
6
CONTINUOUS
10
6.5988031496062991
20
-4.4787401574803152
11
6.5987282283464568
21
-4.4791168110236219
0
LINE
8
BLACK
6
CONTINUOUS
10
6.5987282283464568
20
-4.4791168110236219
11
6.5981955511811021
21
-4.4796494881889766
0
LINE
8
BLACK
6
CONTINUOUS
10
6.5981955511811021
20
-4.4796494881889766
11
6.5978188976377954
21
-4.4797244094488189
0
LINE
8
BLACK
6
CONTINUOUS
10
6.5978188976377954
20
-4.4797244094488189
11
6.4812834645669293
21
-4.4797244094488189
0
LINE
8
BLACK
6
CONTINUOUS
10
6.4812834645669293
20
-4.4797244094488189
11
6.4809068110236216
21
-4.4796494881889766
0
LINE
8
BLACK
6
CONTINUOUS
10
6.4809068110236216
20
-4.4796494881889766
11
6.4803741338582679
21
-4.4791168110236219
0
LINE
8
BLACK
6
CONTINUOUS
10
6.4803741338582679
20
-4.4791168110236219
11
6.4802992125984247
21
-4.4787401574803152
0
LINE
8
BLACK
6
CONTINUOUS
10
6.4802992125984247
20
-4.4787401574803152
11
6.4802992125984247
21
-4.4212598425196852
0
LINE
8
BLACK
6
CONTINUOUS
10
6.4802992125984247
20
-4.4212598425196852
11
6.4803741338582679
21
-4.4208831889763776
0
LINE
8
BLACK
6
CONTINUOUS
10
6.4803741338582679
20
-4.4208831889763776
11
6.4809068110236216
21
-4.4203505118110238
0
LINE
8
BLACK
6
CONTINUOUS
10
6.4809068110236216
20
-4.4203505118110238
11
6.4812834645669293
21
-4.4202755905511806
0
LINE
8
BLACK
6
CONTINUOUS
10
6.4812834645669293
20
-4.4202755905511806
11
6.5978188976377954
21
-4.4202755905511806
0
LINE
8
BLACK
6
CONTINUOUS
10
6.5978188976377954
20
-4.4202755905511806
11
6.5981955511811021
21
-4.4203505118110238
0
LINE
8
BLACK
6
CONTINUOUS
10
6.482267716535433
20
-4.4222440944881889
11
6.482267716535433
21
-4.4777559055118106
0
LINE
8
BLACK
6
CONTINUOUS
10
6.482267716535433
20
-4.4777559055118106
11
6.5968346456692908
21
-4.4777559055118106
0
LINE
8
BLACK
6
CONTINUOUS
10
6.5968346456692908
20
-4.4777559055118106
11
6.5968346456692908
21
-4.4222440944881889
0
LINE
8
BLACK
6
CONTINUOUS
10
6.5968346456692908
20
-4.4222440944881889
11
6.482267716535433
21
-4.4222440944881889
0
LINE
8
BLACK
6
CONTINUOUS
10
6.7672900393700788
20
-4.4305867322834649
11
6.7678227165354325
21
-4.4311194094488187
0
LINE
8
BLACK
6
CONTINUOUS
10
6.7678227165354325
20
-4.4311194094488187
11
6.7678976377952758
21
-4.4314960629921263
0
LINE
8
BLACK
6
CONTINUOUS
10
6.7678976377952758
20
-4.4314960629921263
11
6.7678976377952758
21
-4.4685039370078741
0
LINE
8
BLACK
6
CONTINUOUS
10
6.7678976377952758
20
-4.4685039370078741
11
6.7678227165354325
21
-4.4688805905511808
0
LINE
8
BLACK
6
CONTINUOUS
10
6.7678227165354325
20
-4.4688805905511808
11
6.7672900393700788
21
-4.4694132677165355
0
LINE
8
BLACK
6
CONTINUOUS
10
6.7672900393700788
20
-4.4694132677165355
11
6.7669133858267712
21
-4.4694881889763778
0
LINE
8
BLACK
6
CONTINUOUS
10
6.7669133858267712
20
-4.4694881889763778
11
6.6936850393700782
21
-4.4694881889763778
0
LINE
8
BLACK
6
CONTINUOUS
10
6.6936850393700782
20
-4.4694881889763778
11
6.6933083858267715
21
-4.4694132677165355
0
LINE
8
BLACK
6
CONTINUOUS
10
6.6933083858267715
20
-4.4694132677165355
11
6.6927757086614168
21
-4.4688805905511808
0
LINE
8
BLACK
6
CONTINUOUS
10
6.6927757086614168
20
-4.4688805905511808
11
6.6927007874015745
21
-4.4685039370078741
0
LINE
8
BLACK
6
CONTINUOUS
10
6.6927007874015745
20
-4.4685039370078741
11
6.6927007874015745
21
-4.4314960629921263
0
LINE
8
BLACK
6
CONTINUOUS
10
6.6927007874015745
20
-4.4314960629921263
11
6.6927757086614168
21
-4.4311194094488187
0
LINE
8
BLACK
6
CONTINUOUS
10
6.6927757086614168
20
-4.4311194094488187
11
6.6933083858267715
21
-4.4305867322834649
0
LINE
8
BLACK
6
CONTINUOUS
10
6.6933083858267715
20
-4.4305867322834649
11
6.6936850393700782
21
-4.4305118110236217
0
LINE
8
BLACK
6
CONTINUOUS
10
6.6936850393700782
20
-4.4305118110236217
11
6.7669133858267712
21
-4.4305118110236217
0
LINE
8
BLACK
6
CONTINUOUS
10
6.7669133858267712
20
-4.4305118110236217
11
6.7672900393700788
21
-4.4305867322834649
0
LINE
8
BLACK
6
CONTINUOUS
10
6.6946692913385828
20
-4.43248031496063
11
6.6946692913385828
21
-4.4675196850393704
0
LINE
8
BLACK
6
CONTINUOUS
10
6.6946692913385828
20
-4.4675196850393704
11
6.7659291338582674
21
-4.4675196850393704
0
LINE
8
BLACK
6
CONTINUOUS
10
6.7659291338582674
20
-4.4675196850393704
11
6.7659291338582674
21
-4.43248031496063
0
LINE
8
BLACK
6
CONTINUOUS
10
6.7659291338582674
20
-4.43248031496063
11
6.6946692913385828
21
-4.43248031496063
0
LINE
8
BLACK
6
CONTINUOUS
10
5.935494763779527
20
-4.3360985433070862
11
5.9360274409448817
21
-4.3366312204724409
0
LINE
8
BLACK
6
CONTINUOUS
10
5.9360274409448817
20
-4.3366312204724409
11
5.936102362204724
21
-4.3370078740157476
0
LINE
8
BLACK
6
CONTINUOUS
10
5.936102362204724
20
-4.3370078740157476
11
5.936102362204724
21
-4.4629921259842522
0
LINE
8
BLACK
6
CONTINUOUS
10
5.936102362204724
20
-4.4629921259842522
11
5.9360274409448817
21
-4.4633687795275589
0
LINE
8
BLACK
6
CONTINUOUS
10
5.9360274409448817
20
-4.4633687795275589
11
5.935494763779527
21
-4.4639014566929136
0
LINE
8
BLACK
6
CONTINUOUS
10
5.935494763779527
20
-4.4639014566929136
11
5.9351181102362203
21
-4.4639763779527559
0
LINE
8
BLACK
6
CONTINUOUS
10
5.9351181102362203
20
-4.4639763779527559
11
5.8248818897637795
21
-4.4639763779527559
0
LINE
8
BLACK
6
CONTINUOUS
10
5.8248818897637795
20
-4.4639763779527559
11
5.8245052362204719
21
-4.4639014566929136
0
LINE
8
BLACK
6
CONTINUOUS
10
5.8245052362204719
20
-4.4639014566929136
11
5.8239725590551181
21
-4.4633687795275589
0
LINE
8
BLACK
6
CONTINUOUS
10
5.8239725590551181
20
-4.4633687795275589
11
5.8238976377952758
21
-4.4629921259842522
0
LINE
8
BLACK
6
CONTINUOUS
10
5.8238976377952758
20
-4.4629921259842522
11
5.8238976377952758
21
-4.3370078740157476
0
LINE
8
BLACK
6
CONTINUOUS
10
5.8238976377952758
20
-4.3370078740157476
11
5.8239725590551181
21
-4.3366312204724409
0
LINE
8
BLACK
6
CONTINUOUS
10
5.8239725590551181
20
-4.3366312204724409
11
5.8245052362204719
21
-4.3360985433070862
0
LINE
8
BLACK
6
CONTINUOUS
10
5.8245052362204719
20
-4.3360985433070862
11
5.8248818897637795
21
-4.3360236220472439
0
LINE
8
BLACK
6
CONTINUOUS
10
5.8248818897637795
20
-4.3360236220472439
11
5.9351181102362203
21
-4.3360236220472439
0
LINE
8
BLACK
6
CONTINUOUS
10
5.9351181102362203
20
-4.3360236220472439
11
5.935494763779527
21
-4.3360985433070862
0
LINE
8
BLACK
6
CONTINUOUS
10
5.8258661417322832
20
-4.3379921259842522
11
5.8258661417322832
21
-4.4620078740157476
0
LINE
8
BLACK
6
CONTINUOUS
10
5.8258661417322832
20
-4.4620078740157476
11
5.9341338582677166
21
-4.4620078740157476
0
LINE
8
BLACK
6
CONTINUOUS
10
5.9341338582677166
20
-4.4620078740157476
11
5.9341338582677166
21
-4.3379921259842522
0
LINE
8
BLACK
6
CONTINUOUS
10
5.9341338582677166
20
-4.3379921259842522
11
5.8258661417322832
21
-4.3379921259842522
0
LINE
8
BLACK
6
CONTINUOUS
10
5.4842349212598425
20
-4.4022087795275588
11
5.4847675984251971
21
-4.4027414566929135
0
LINE
8
BLACK
6
CONTINUOUS
10
5.4847675984251971
20
-4.4027414566929135
11
5.4848425196850394
21
-4.4031181102362202
0
LINE
8
BLACK
6
CONTINUOUS
10
5.4848425196850394
20
-4.4031181102362202
11
5.4848425196850394
21
-4.4582362204724406
0
LINE
8
BLACK
6
CONTINUOUS
10
5.4848425196850394
20
-4.4582362204724406
11
5.4847675984251971
21
-4.4586128740157482
0
LINE
8
BLACK
6
CONTINUOUS
10
5.4847675984251971
20
-4.4586128740157482
11
5.4842349212598425
21
-4.459145551181102
0
LINE
8
BLACK
6
CONTINUOUS
10
5.4842349212598425
20
-4.459145551181102
11
5.4838582677165357
21
-4.4592204724409452
0
LINE
8
BLACK
6
CONTINUOUS
10
5.4838582677165357
20
-4.4592204724409452
11
5.3854330708661413
21
-4.4592204724409452
0
LINE
8
BLACK
6
CONTINUOUS
10
5.3854330708661413
20
-4.4592204724409452
11
5.3850564173228346
21
-4.459145551181102
0
LINE
8
BLACK
6
CONTINUOUS
10
5.3850564173228346
20
-4.459145551181102
11
5.3845237401574799
21
-4.4586128740157482
0
LINE
8
BLACK
6
CONTINUOUS
10
5.3845237401574799
20
-4.4586128740157482
11
5.3844488188976376
21
-4.4582362204724406
0
LINE
8
BLACK
6
CONTINUOUS
10
5.3844488188976376
20
-4.4582362204724406
11
5.3844488188976376
21
-4.4031181102362202
0
LINE
8
BLACK
6
CONTINUOUS
10
5.3844488188976376
20
-4.4031181102362202
11
5.3845237401574799
21
-4.4027414566929135
0
LINE
8
BLACK
6
CONTINUOUS
10
5.3845237401574799
20
-4.4027414566929135
11
5.3850564173228346
21
-4.4022087795275588
0
LINE
8
BLACK
6
CONTINUOUS
10
5.3850564173228346
20
-4.4022087795275588
11
5.3854330708661413
21
-4.4021338582677165
0
LINE
8
BLACK
6
CONTINUOUS
10
5.3854330708661413
20
-4.4021338582677165
11
5.4838582677165357
21
-4.4021338582677165
0
LINE
8
BLACK
6
CONTINUOUS
10
5.4838582677165357
20
-4.4021338582677165
11
5.4842349212598425
21
-4.4022087795275588
0
LINE
8
BLACK
6
CONTINUOUS
10
5.3864173228346459
20
-4.404102362204724
11
5.3864173228346459
21
-4.4572519685039369
0
LINE
8
BLACK
6
CONTINUOUS
10
5.3864173228346459
20
-4.4572519685039369
11
5.4828740157480311
21
-4.4572519685039369
0
LINE
8
BLACK
6
CONTINUOUS
10
5.4828740157480311
20
-4.4572519685039369
11
5.4828740157480311
21
-4.404102362204724
0
LINE
8
BLACK
6
CONTINUOUS
10
5.4828740157480311
20
-4.404102362204724
11
5.3864173228346459
21
-4.404102362204724
0
LINE
8
BLACK
6
CONTINUOUS
10
6.3891955511811025
20
-4.3853505118110236
11
6.3897282283464563
21
-4.3858831889763774
0
LINE
8
BLACK
6
CONTINUOUS
10
6.3897282283464563
20
-4.3858831889763774
11
6.3898031496062995
21
-4.386259842519685
0
LINE
8
BLACK
6
CONTINUOUS
10
6.3898031496062995
20
-4.386259842519685
11
6.3898031496062995
21
-4.443740157480315
0
LINE
8
BLACK
6
CONTINUOUS
10
6.3898031496062995
20
-4.443740157480315
11
6.3897282283464563
21
-4.4441168110236218
0
LINE
8
BLACK
6
CONTINUOUS
10
6.3897282283464563
20
-4.4441168110236218
11
6.3891955511811025
21
-4.4446494881889764
0
LINE
8
BLACK
6
CONTINUOUS
10
6.3891955511811025
20
-4.4446494881889764
11
6.3888188976377949
21
-4.4447244094488187
0
LINE
8
BLACK
6
CONTINUOUS
10
6.3888188976377949
20
-4.4447244094488187
11
6.2722834645669288
21
-4.4447244094488187
0
LINE
8
BLACK
6
CONTINUOUS
10
6.2722834645669288
20
-4.4447244094488187
11
6.271906811023622
21
-4.4446494881889764
0
LINE
8
BLACK
6
CONTINUOUS
10
6.271906811023622
20
-4.4446494881889764
11
6.2713741338582674
21
-4.4441168110236218
0
LINE
8
BLACK
6
CONTINUOUS
10
6.2713741338582674
20
-4.4441168110236218
11
6.271299212598425
21
-4.443740157480315
0
LINE
8
BLACK
6
CONTINUOUS
10
6.271299212598425
20
-4.443740157480315
11
6.271299212598425
21
-4.386259842519685
0
LINE
8
BLACK
6
CONTINUOUS
10
6.271299212598425
20
-4.386259842519685
11
6.2713741338582674
21
-4.3858831889763774
0
LINE
8
BLACK
6
CONTINUOUS
10
6.2713741338582674
20
-4.3858831889763774
11
6.271906811023622
21
-4.3853505118110236
0
LINE
8
BLACK
6
CONTINUOUS
10
6.271906811023622
20
-4.3853505118110236
11
6.2722834645669288
21
-4.3852755905511813
0
LINE
8
BLACK
6
CONTINUOUS
10
6.2722834645669288
20
-4.3852755905511813
11
6.3888188976377949
21
-4.3852755905511813
0
LINE
8
BLACK
6
CONTINUOUS
10
6.3888188976377949
20
-4.3852755905511813
11
6.3891955511811025
21
-4.3853505118110236
0
LINE
8
BLACK
6
CONTINUOUS
10
6.2732677165354334
20
-4.3872440944881888
11
6.2732677165354334
21
-4.4427559055118113
0
LINE
8
BLACK
6
CONTINUOUS
10
6.2732677165354334
20
-4.4427559055118113
11
6.3878346456692912
21
-4.4427559055118113
0
LINE
8
BLACK
6
CONTINUOUS
10
6.3878346456692912
20
-4.4427559055118113
11
6.3878346456692912
21
-4.3872440944881888
0
LINE
8
BLACK
6
CONTINUOUS
10
6.3878346456692912
20
-4.3872440944881888
11
6.2732677165354334
21
-4.3872440944881888
0
LINE
8
BLACK
6
CONTINUOUS
10
5.7886443700787398
20
-4.3403505118110237
11
5.7891770472440944
21
-4.3408831889763775
0
LINE
8
BLACK
6
CONTINUOUS
10
5.7891770472440944
20
-4.3408831889763775
11
5.7892519685039368
21
-4.3412598425196851
0
LINE
8
BLACK
6
CONTINUOUS
10
5.7892519685039368
20
-4.3412598425196851
11
5.7892519685039368
21
-4.3987401574803151
0
LINE
8
BLACK
6
CONTINUOUS
10
5.7892519685039368
20
-4.3987401574803151
11
5.7891770472440944
21
-4.3991168110236218
0
LINE
8
BLACK
6
CONTINUOUS
10
5.7891770472440944
20
-4.3991168110236218
11
5.7886443700787398
21
-4.3996494881889765
0
LINE
8
BLACK
6
CONTINUOUS
10
5.7886443700787398
20
-4.3996494881889765
11
5.788267716535433
21
-4.3997244094488188
0
LINE
8
BLACK
6
CONTINUOUS
10
5.788267716535433
20
-4.3997244094488188
11
5.6717322834645669
21
-4.3997244094488188
0
LINE
8
BLACK
6
CONTINUOUS
10
5.6717322834645669
20
-4.3997244094488188
11
5.6713556299212593
21
-4.3996494881889765
0
LINE
8
BLACK
6
CONTINUOUS
10
5.6713556299212593
20
-4.3996494881889765
11
5.6708229527559055
21
-4.3991168110236218
0
LINE
8
BLACK
6
CONTINUOUS
10
5.6708229527559055
20
-4.3991168110236218
11
5.6707480314960632
21
-4.3987401574803151
0
LINE
8
BLACK
6
CONTINUOUS
10
5.6707480314960632
20
-4.3987401574803151
11
5.6707480314960632
21
-4.3412598425196851
0
LINE
8
BLACK
6
CONTINUOUS
10
5.6707480314960632
20
-4.3412598425196851
11
5.6708229527559055
21
-4.3408831889763775
0
LINE
8
BLACK
6
CONTINUOUS
10
5.6708229527559055
20
-4.3408831889763775
11
5.6713556299212593
21
-4.3403505118110237
0
LINE
8
BLACK
6
CONTINUOUS
10
5.6713556299212593
20
-4.3403505118110237
11
5.6717322834645669
21
-4.3402755905511814
0
LINE
8
BLACK
6
CONTINUOUS
10
5.6717322834645669
20
-4.3402755905511814
11
5.788267716535433
21
-4.3402755905511814
0
LINE
8
BLACK
6
CONTINUOUS
10
5.788267716535433
20
-4.3402755905511814
11
5.7886443700787398
21
-4.3403505118110237
0
LINE
8
BLACK
6
CONTINUOUS
10
5.6727165354330706
20
-4.3422440944881888
11
5.6727165354330706
21
-4.3977559055118105
0
LINE
8
BLACK
6
CONTINUOUS
10
5.6727165354330706
20
-4.3977559055118105
11
5.7872834645669293
21
-4.3977559055118105
0
LINE
8
BLACK
6
CONTINUOUS
10
5.7872834645669293
20
-4.3977559055118105
11
5.7872834645669293
21
-4.3422440944881888
0
LINE
8
BLACK
6
CONTINUOUS
10
5.7872834645669293
20
-4.3422440944881888
11
5.6727165354330706
21
-4.3422440944881888
0
LINE
8
BLACK
6
CONTINUOUS
10
6.4826404330708662
20
-4.3103505118110235
11
6.48317311023622
21
-4.3108831889763781
0
LINE
8
BLACK
6
CONTINUOUS
10
6.48317311023622
20
-4.3108831889763781
11
6.4832480314960632
21
-4.3112598425196849
0
LINE
8
BLACK
6
CONTINUOUS
10
6.4832480314960632
20
-4.3112598425196849
11
6.4832480314960632
21
-4.3687401574803149
0
LINE
8
BLACK
6
CONTINUOUS
10
6.4832480314960632
20
-4.3687401574803149
11
6.48317311023622
21
-4.3691168110236216
0
LINE
8
BLACK
6
CONTINUOUS
10
6.48317311023622
20
-4.3691168110236216
11
6.4826404330708662
21
-4.3696494881889762
0
LINE
8
BLACK
6
CONTINUOUS
10
6.4826404330708662
20
-4.3696494881889762
11
6.4822637795275586
21
-4.3697244094488186
0
LINE
8
BLACK
6
CONTINUOUS
10
6.4822637795275586
20
-4.3697244094488186
11
6.3657283464566925
21
-4.3697244094488186
0
LINE
8
BLACK
6
CONTINUOUS
10
6.3657283464566925
20
-4.3697244094488186
11
6.3653516929133858
21
-4.3696494881889762
0
LINE
8
BLACK
6
CONTINUOUS
10
6.3653516929133858
20
-4.3696494881889762
11
6.3648190157480311
21
-4.3691168110236216
0
LINE
8
BLACK
6
CONTINUOUS
10
6.3648190157480311
20
-4.3691168110236216
11
6.3647440944881888
21
-4.3687401574803149
0
LINE
8
BLACK
6
CONTINUOUS
10
6.3647440944881888
20
-4.3687401574803149
11
6.3647440944881888
21
-4.3112598425196849
0
LINE
8
BLACK
6
CONTINUOUS
10
6.3647440944881888
20
-4.3112598425196849
11
6.3648190157480311
21
-4.3108831889763781
0
LINE
8
BLACK
6
CONTINUOUS
10
6.3648190157480311
20
-4.3108831889763781
11
6.3653516929133858
21
-4.3103505118110235
0
LINE
8
BLACK
6
CONTINUOUS
10
6.3653516929133858
20
-4.3103505118110235
11
6.3657283464566925
21
-4.3102755905511811
0
LINE
8
BLACK
6
CONTINUOUS
10
6.3657283464566925
20
-4.3102755905511811
11
6.4822637795275586
21
-4.3102755905511811
0
LINE
8
BLACK
6
CONTINUOUS
10
6.4822637795275586
20
-4.3102755905511811
11
6.4826404330708662
21
-4.3103505118110235
0
LINE
8
BLACK
6
CONTINUOUS
10
6.3667125984251971
20
-4.3122440944881886
11
6.3667125984251971
21
-4.3677559055118111
0
LINE
8
BLACK
6
CONTINUOUS
10
6.3667125984251971
20
-4.3677559055118111
11
6.4812795275590549
21
-4.3677559055118111
0
LINE
8
BLACK
6
CONTINUOUS
10
6.4812795275590549
20
-4.3677559055118111
11
6.4812795275590549
21
-4.3122440944881886
0
LINE
8
BLACK
6
CONTINUOUS
10
6.4812795275590549
20
-4.3122440944881886
11
6.3667125984251971
21
-4.3122440944881886
0
LINE
8
BLACK
6
CONTINUOUS
10
5.7886443700787398
20
-4.2803505118110232
11
5.7891770472440944
21
-4.2808831889763779
0
LINE
8
BLACK
6
CONTINUOUS
10
5.7891770472440944
20
-4.2808831889763779
11
5.7892519685039368
21
-4.2812598425196846
0
LINE
8
BLACK
6
CONTINUOUS
10
5.7892519685039368
20
-4.2812598425196846
11
5.7892519685039368
21
-4.3387401574803146
0
LINE
8
BLACK
6
CONTINUOUS
10
5.7892519685039368
20
-4.3387401574803146
11
5.7891770472440944
21
-4.3391168110236222
0
LINE
8
BLACK
6
CONTINUOUS
10
5.7891770472440944
20
-4.3391168110236222
11
5.7886443700787398
21
-4.339649488188976
0
LINE
8
BLACK
6
CONTINUOUS
10
5.7886443700787398
20
-4.339649488188976
11
5.788267716535433
21
-4.3397244094488192
0
LINE
8
BLACK
6
CONTINUOUS
10
5.788267716535433
20
-4.3397244094488192
11
5.6717322834645669
21
-4.3397244094488192
0
LINE
8
BLACK
6
CONTINUOUS
10
5.6717322834645669
20
-4.3397244094488192
11
5.6713556299212593
21
-4.339649488188976
0
LINE
8
BLACK
6
CONTINUOUS
10
5.6713556299212593
20
-4.339649488188976
11
5.6708229527559055
21
-4.3391168110236222
0
LINE
8
BLACK
6
CONTINUOUS
10
5.6708229527559055
20
-4.3391168110236222
11
5.6707480314960632
21
-4.3387401574803146
0
LINE
8
BLACK
6
CONTINUOUS
10
5.6707480314960632
20
-4.3387401574803146
11
5.6707480314960632
21
-4.2812598425196846
0
LINE
8
BLACK
6
CONTINUOUS
10
5.6707480314960632
20
-4.2812598425196846
11
5.6708229527559055
21
-4.2808831889763779
0
LINE
8
BLACK
6
CONTINUOUS
10
5.6708229527559055
20
-4.2808831889763779
11
5.6713556299212593
21
-4.2803505118110232
0
LINE
8
BLACK
6
CONTINUOUS
10
5.6713556299212593
20
-4.2803505118110232
11
5.6717322834645669
21
-4.2802755905511809
0
LINE
8
BLACK
6
CONTINUOUS
10
5.6717322834645669
20
-4.2802755905511809
11
5.788267716535433
21
-4.2802755905511809
0
LINE
8
BLACK
6
CONTINUOUS
10
5.788267716535433
20
-4.2802755905511809
11
5.7886443700787398
21
-4.2803505118110232
0
LINE
8
BLACK
6
CONTINUOUS
10
5.6727165354330706
20
-4.2822440944881892
11
5.6727165354330706
21
-4.3377559055118109
0
LINE
8
BLACK
6
CONTINUOUS
10
5.6727165354330706
20
-4.3377559055118109
11
5.7872834645669293
21
-4.3377559055118109
0
LINE
8
BLACK
6
CONTINUOUS
10
5.7872834645669293
20
-4.3377559055118109
11
5.7872834645669293
21
-4.2822440944881892
0
LINE
8
BLACK
6
CONTINUOUS
10
5.7872834645669293
20
-4.2822440944881892
11
5.6727165354330706
21
-4.2822440944881892
0
LINE
8
BLACK
6
CONTINUOUS
10
5.9041168110236217
20
-4.1708229527559055
11
5.9046494881889764
21
-4.1713556299212602
0
LINE
8
BLACK
6
CONTINUOUS
10
5.9046494881889764
20
-4.1713556299212602
11
5.9047244094488187
21
-4.1717322834645669
0
LINE
8
BLACK
6
CONTINUOUS
10
5.9047244094488187
20
-4.1717322834645669
11
5.9047244094488187
21
-4.288267716535433
0
LINE
8
BLACK
6
CONTINUOUS
10
5.9047244094488187
20
-4.288267716535433
11
5.9046494881889764
21
-4.2886443700787398
0
LINE
8
BLACK
6
CONTINUOUS
10
5.9046494881889764
20
-4.2886443700787398
11
5.9041168110236217
21
-4.2891770472440944
0
LINE
8
BLACK
6
CONTINUOUS
10
5.9041168110236217
20
-4.2891770472440944
11
5.903740157480315
21
-4.2892519685039368
0
LINE
8
BLACK
6
CONTINUOUS
10
5.903740157480315
20
-4.2892519685039368
11
5.846259842519685
21
-4.2892519685039368
0
LINE
8
BLACK
6
CONTINUOUS
10
5.846259842519685
20
-4.2892519685039368
11
5.8458831889763774
21
-4.2891770472440944
0
LINE
8
BLACK
6
CONTINUOUS
10
5.8458831889763774
20
-4.2891770472440944
11
5.8453505118110236
21
-4.2886443700787398
0
LINE
8
BLACK
6
CONTINUOUS
10
5.8453505118110236
20
-4.2886443700787398
11
5.8452755905511813
21
-4.288267716535433
0
LINE
8
BLACK
6
CONTINUOUS
10
5.8452755905511813
20
-4.288267716535433
11
5.8452755905511813
21
-4.1717322834645669
0
LINE
8
BLACK
6
CONTINUOUS
10
5.8452755905511813
20
-4.1717322834645669
11
5.8453505118110236
21
-4.1713556299212602
0
LINE
8
BLACK
6
CONTINUOUS
10
5.8453505118110236
20
-4.1713556299212602
11
5.8458831889763774
21
-4.1708229527559055
0
LINE
8
BLACK
6
CONTINUOUS
10
5.8458831889763774
20
-4.1708229527559055
11
5.846259842519685
21
-4.1707480314960632
0
LINE
8
BLACK
6
CONTINUOUS
10
5.846259842519685
20
-4.1707480314960632
11
5.903740157480315
21
-4.1707480314960632
0
LINE
8
BLACK
6
CONTINUOUS
10
5.903740157480315
20
-4.1707480314960632
11
5.9041168110236217
21
-4.1708229527559055
0
LINE
8
BLACK
6
CONTINUOUS
10
5.8472440944881887
20
-4.1727165354330706
11
5.8472440944881887
21
-4.2872834645669293
0
LINE
8
BLACK
6
CONTINUOUS
10
5.8472440944881887
20
-4.2872834645669293
11
5.9027559055118113
21
-4.2872834645669293
0
LINE
8
BLACK
6
CONTINUOUS
10
5.9027559055118113
20
-4.2872834645669293
11
5.9027559055118113
21
-4.1727165354330706
0
LINE
8
BLACK
6
CONTINUOUS
10
5.9027559055118113
20
-4.1727165354330706
11
5.8472440944881887
21
-4.1727165354330706
0
LINE
8
BLACK
6
CONTINUOUS
10
5.9641168110236222
20
-4.1708229527559055
11
5.964649488188976
21
-4.1713556299212602
0
LINE
8
BLACK
6
CONTINUOUS
10
5.964649488188976
20
-4.1713556299212602
11
5.9647244094488183
21
-4.1717322834645669
0
LINE
8
BLACK
6
CONTINUOUS
10
5.9647244094488183
20
-4.1717322834645669
11
5.9647244094488183
21
-4.288267716535433
0
LINE
8
BLACK
6
CONTINUOUS
10
5.9647244094488183
20
-4.288267716535433
11
5.964649488188976
21
-4.2886443700787398
0
LINE
8
BLACK
6
CONTINUOUS
10
5.964649488188976
20
-4.2886443700787398
11
5.9641168110236222
21
-4.2891770472440944
0
LINE
8
BLACK
6
CONTINUOUS
10
5.9641168110236222
20
-4.2891770472440944
11
5.9637401574803146
21
-4.2892519685039368
0
LINE
8
BLACK
6
CONTINUOUS
10
5.9637401574803146
20
-4.2892519685039368
11
5.9062598425196846
21
-4.2892519685039368
0
LINE
8
BLACK
6
CONTINUOUS
10
5.9062598425196846
20
-4.2892519685039368
11
5.9058831889763779
21
-4.2891770472440944
0
LINE
8
BLACK
6
CONTINUOUS
10
5.9058831889763779
20
-4.2891770472440944
11
5.9053505118110232
21
-4.2886443700787398
0
LINE
8
BLACK
6
CONTINUOUS
10
5.9053505118110232
20
-4.2886443700787398
11
5.9052755905511809
21
-4.288267716535433
0
LINE
8
BLACK
6
CONTINUOUS
10
5.9052755905511809
20
-4.288267716535433
11
5.9052755905511809
21
-4.1717322834645669
0
LINE
8
BLACK
6
CONTINUOUS
10
5.9052755905511809
20
-4.1717322834645669
11
5.9053505118110232
21
-4.1713556299212602
0
LINE
8
BLACK
6
CONTINUOUS
10
5.9053505118110232
20
-4.1713556299212602
11
5.9058831889763779
21
-4.1708229527559055
0
LINE
8
BLACK
6
CONTINUOUS
10
5.9058831889763779
20
-4.1708229527559055
11
5.9062598425196846
21
-4.1707480314960632
0
LINE
8
BLACK
6
CONTINUOUS
10
5.9062598425196846
20
-4.1707480314960632
11
5.9637401574803146
21
-4.1707480314960632
0
LINE
8
BLACK
6
CONTINUOUS
10
5.9637401574803146
20
-4.1707480314960632
11
5.9641168110236222
21
-4.1708229527559055
0
LINE
8
BLACK
6
CONTINUOUS
10
5.9072440944881892
20
-4.1727165354330706
11
5.9072440944881892
21
-4.2872834645669293
0
LINE
8
BLACK
6
CONTINUOUS
10
5.9072440944881892
20
-4.2872834645669293
11
5.9627559055118109
21
-4.2872834645669293
0
LINE
8
BLACK
6
CONTINUOUS
10
5.9627559055118109
20
-4.2872834645669293
11
5.9627559055118109
21
-4.1727165354330706
0
LINE
8
BLACK
6
CONTINUOUS
10
5.9627559055118109
20
-4.1727165354330706
11
5.9072440944881892
21
-4.1727165354330706
0
LINE
8
BLACK
6
CONTINUOUS
10
6.0241168110236218
20
-4.1708229527559055
11
6.0246494881889765
21
-4.1713556299212602
0
LINE
8
BLACK
6
CONTINUOUS
10
6.0246494881889765
20
-4.1713556299212602
11
6.0247244094488188
21
-4.1717322834645669
0
LINE
8
BLACK
6
CONTINUOUS
10
6.0247244094488188
20
-4.1717322834645669
11
6.0247244094488188
21
-4.288267716535433
0
LINE
8
BLACK
6
CONTINUOUS
10
6.0247244094488188
20
-4.288267716535433
11
6.0246494881889765
21
-4.2886443700787398
0
LINE
8
BLACK
6
CONTINUOUS
10
6.0246494881889765
20
-4.2886443700787398
11
6.0241168110236218
21
-4.2891770472440944
0
LINE
8
BLACK
6
CONTINUOUS
10
6.0241168110236218
20
-4.2891770472440944
11
6.0237401574803151
21
-4.2892519685039368
0
LINE
8
BLACK
6
CONTINUOUS
10
6.0237401574803151
20
-4.2892519685039368
11
5.9662598425196851
21
-4.2892519685039368
0
LINE
8
BLACK
6
CONTINUOUS
10
5.9662598425196851
20
-4.2892519685039368
11
5.9658831889763775
21
-4.2891770472440944
0
LINE
8
BLACK
6
CONTINUOUS
10
5.9658831889763775
20
-4.2891770472440944
11
5.9653505118110237
21
-4.2886443700787398
0
LINE
8
BLACK
6
CONTINUOUS
10
5.9653505118110237
20
-4.2886443700787398
11
5.9652755905511814
21
-4.288267716535433
0
LINE
8
BLACK
6
CONTINUOUS
10
5.9652755905511814
20
-4.288267716535433
11
5.9652755905511814
21
-4.1717322834645669
0
LINE
8
BLACK
6
CONTINUOUS
10
5.9652755905511814
20
-4.1717322834645669
11
5.9653505118110237
21
-4.1713556299212602
0
LINE
8
BLACK
6
CONTINUOUS
10
5.9653505118110237
20
-4.1713556299212602
11
5.9658831889763775
21
-4.1708229527559055
0
LINE
8
BLACK
6
CONTINUOUS
10
5.9658831889763775
20
-4.1708229527559055
11
5.9662598425196851
21
-4.1707480314960632
0
LINE
8
BLACK
6
CONTINUOUS
10
5.9662598425196851
20
-4.1707480314960632
11
6.0237401574803151
21
-4.1707480314960632
0
LINE
8
BLACK
6
CONTINUOUS
10
6.0237401574803151
20
-4.1707480314960632
11
6.0241168110236218
21
-4.1708229527559055
0
LINE
8
BLACK
6
CONTINUOUS
10
5.9672440944881888
20
-4.1727165354330706
11
5.9672440944881888
21
-4.2872834645669293
0
LINE
8
BLACK
6
CONTINUOUS
10
5.9672440944881888
20
-4.2872834645669293
11
6.0227559055118105
21
-4.2872834645669293
0
LINE
8
BLACK
6
CONTINUOUS
10
6.0227559055118105
20
-4.2872834645669293
11
6.0227559055118105
21
-4.1727165354330706
0
LINE
8
BLACK
6
CONTINUOUS
10
6.0227559055118105
20
-4.1727165354330706
11
5.9672440944881888
21
-4.1727165354330706
0
LINE
8
BLACK
6
CONTINUOUS
10
6.0841168110236223
20
-4.1708229527559055
11
6.0846494881889761
21
-4.1713556299212602
0
LINE
8
BLACK
6
CONTINUOUS
10
6.0846494881889761
20
-4.1713556299212602
11
6.0847244094488184
21
-4.1717322834645669
0
LINE
8
BLACK
6
CONTINUOUS
10
6.0847244094488184
20
-4.1717322834645669
11
6.0847244094488184
21
-4.288267716535433
0
LINE
8
BLACK
6
CONTINUOUS
10
6.0847244094488184
20
-4.288267716535433
11
6.0846494881889761
21
-4.2886443700787398
0
LINE
8
BLACK
6
CONTINUOUS
10
6.0846494881889761
20
-4.2886443700787398
11
6.0841168110236223
21
-4.2891770472440944
0
LINE
8
BLACK
6
CONTINUOUS
10
6.0841168110236223
20
-4.2891770472440944
11
6.0837401574803147
21
-4.2892519685039368
0
LINE
8
BLACK
6
CONTINUOUS
10
6.0837401574803147
20
-4.2892519685039368
11
6.0262598425196847
21
-4.2892519685039368
0
LINE
8
BLACK
6
CONTINUOUS
10
6.0262598425196847
20
-4.2892519685039368
11
6.025883188976378
21
-4.2891770472440944
0
LINE
8
BLACK
6
CONTINUOUS
10
6.025883188976378
20
-4.2891770472440944
11
6.0253505118110233
21
-4.2886443700787398
0
LINE
8
BLACK
6
CONTINUOUS
10
6.0253505118110233
20
-4.2886443700787398
11
6.025275590551181
21
-4.288267716535433
0
LINE
8
BLACK
6
CONTINUOUS
10
6.025275590551181
20
-4.288267716535433
11
6.025275590551181
21
-4.1717322834645669
0
LINE
8
BLACK
6
CONTINUOUS
10
6.025275590551181
20
-4.1717322834645669
11
6.0253505118110233
21
-4.1713556299212602
0
LINE
8
BLACK
6
CONTINUOUS
10
6.0253505118110233
20
-4.1713556299212602
11
6.025883188976378
21
-4.1708229527559055
0
LINE
8
BLACK
6
CONTINUOUS
10
6.025883188976378
20
-4.1708229527559055
11
6.0262598425196847
21
-4.1707480314960632
0
LINE
8
BLACK
6
CONTINUOUS
10
6.0262598425196847
20
-4.1707480314960632
11
6.0837401574803147
21
-4.1707480314960632
0
LINE
8
BLACK
6
CONTINUOUS
10
6.0837401574803147
20
-4.1707480314960632
11
6.0841168110236223
21
-4.1708229527559055
0
LINE
8
BLACK
6
CONTINUOUS
10
6.0272440944881884
20
-4.1727165354330706
11
6.0272440944881884
21
-4.2872834645669293
0
LINE
8
BLACK
6
CONTINUOUS
10
6.0272440944881884
20
-4.2872834645669293
11
6.082755905511811
21
-4.2872834645669293
0
LINE
8
BLACK
6
CONTINUOUS
10
6.082755905511811
20
-4.2872834645669293
11
6.082755905511811
21
-4.1727165354330706
0
LINE
8
BLACK
6
CONTINUOUS
10
6.082755905511811
20
-4.1727165354330706
11
6.0272440944881884
21
-4.1727165354330706
0
LINE
8
BLACK
6
CONTINUOUS
10
6.1441168110236219
20
-4.1708229527559055
11
6.1446494881889766
21
-4.1713556299212602
0
LINE
8
BLACK
6
CONTINUOUS
10
6.1446494881889766
20
-4.1713556299212602
11
6.1447244094488189
21
-4.1717322834645669
0
LINE
8
BLACK
6
CONTINUOUS
10
6.1447244094488189
20
-4.1717322834645669
11
6.1447244094488189
21
-4.288267716535433
0
LINE
8
BLACK
6
CONTINUOUS
10
6.1447244094488189
20
-4.288267716535433
11
6.1446494881889766
21
-4.2886443700787398
0
LINE
8
BLACK
6
CONTINUOUS
10
6.1446494881889766
20
-4.2886443700787398
11
6.1441168110236219
21
-4.2891770472440944
0
LINE
8
BLACK
6
CONTINUOUS
10
6.1441168110236219
20
-4.2891770472440944
11
6.1437401574803152
21
-4.2892519685039368
0
LINE
8
BLACK
6
CONTINUOUS
10
6.1437401574803152
20
-4.2892519685039368
11
6.0862598425196852
21
-4.2892519685039368
0
LINE
8
BLACK
6
CONTINUOUS
10
6.0862598425196852
20
-4.2892519685039368
11
6.0858831889763776
21
-4.2891770472440944
0
LINE
8
BLACK
6
CONTINUOUS
10
6.0858831889763776
20
-4.2891770472440944
11
6.0853505118110238
21
-4.2886443700787398
0
LINE
8
BLACK
6
CONTINUOUS
10
6.0853505118110238
20
-4.2886443700787398
11
6.0852755905511806
21
-4.288267716535433
0
LINE
8
BLACK
6
CONTINUOUS
10
6.0852755905511806
20
-4.288267716535433
11
6.0852755905511806
21
-4.1717322834645669
0
LINE
8
BLACK
6
CONTINUOUS
10
6.0852755905511806
20
-4.1717322834645669
11
6.0853505118110238
21
-4.1713556299212602
0
LINE
8
BLACK
6
CONTINUOUS
10
6.0853505118110238
20
-4.1713556299212602
11
6.0858831889763776
21
-4.1708229527559055
0
LINE
8
BLACK
6
CONTINUOUS
10
6.0858831889763776
20
-4.1708229527559055
11
6.0862598425196852
21
-4.1707480314960632
0
LINE
8
BLACK
6
CONTINUOUS
10
6.0862598425196852
20
-4.1707480314960632
11
6.1437401574803152
21
-4.1707480314960632
0
LINE
8
BLACK
6
CONTINUOUS
10
6.1437401574803152
20
-4.1707480314960632
11
6.1441168110236219
21
-4.1708229527559055
0
LINE
8
BLACK
6
CONTINUOUS
10
6.0872440944881889
20
-4.1727165354330706
11
6.0872440944881889
21
-4.2872834645669293
0
LINE
8
BLACK
6
CONTINUOUS
10
6.0872440944881889
20
-4.2872834645669293
11
6.1427559055118106
21
-4.2872834645669293
0
LINE
8
BLACK
6
CONTINUOUS
10
6.1427559055118106
20
-4.2872834645669293
11
6.1427559055118106
21
-4.1727165354330706
0
LINE
8
BLACK
6
CONTINUOUS
10
6.1427559055118106
20
-4.1727165354330706
11
6.0872440944881889
21
-4.1727165354330706
0
LINE
8
BLACK
6
CONTINUOUS
10
5.7886443700787398
20
-4.2203505118110236
11
5.7891770472440944
21
-4.2208831889763783
0
LINE
8
BLACK
6
CONTINUOUS
10
5.7891770472440944
20
-4.2208831889763783
11
5.7892519685039368
21
-4.221259842519685
0
LINE
8
BLACK
6
CONTINUOUS
10
5.7892519685039368
20
-4.221259842519685
11
5.7892519685039368
21
-4.278740157480315
0
LINE
8
BLACK
6
CONTINUOUS
10
5.7892519685039368
20
-4.278740157480315
11
5.7891770472440944
21
-4.2791168110236217
0
LINE
8
BLACK
6
CONTINUOUS
10
5.7891770472440944
20
-4.2791168110236217
11
5.7886443700787398
21
-4.2796494881889764
0
LINE
8
BLACK
6
CONTINUOUS
10
5.7886443700787398
20
-4.2796494881889764
11
5.788267716535433
21
-4.2797244094488187
0
LINE
8
BLACK
6
CONTINUOUS
10
5.788267716535433
20
-4.2797244094488187
11
5.6717322834645669
21
-4.2797244094488187
0
LINE
8
BLACK
6
CONTINUOUS
10
5.6717322834645669
20
-4.2797244094488187
11
5.6713556299212593
21
-4.2796494881889764
0
LINE
8
BLACK
6
CONTINUOUS
10
5.6713556299212593
20
-4.2796494881889764
11
5.6708229527559055
21
-4.2791168110236217
0
LINE
8
BLACK
6
CONTINUOUS
10
5.6708229527559055
20
-4.2791168110236217
11
5.6707480314960632
21
-4.278740157480315
0
LINE
8
BLACK
6
CONTINUOUS
10
5.6707480314960632
20
-4.278740157480315
11
5.6707480314960632
21
-4.221259842519685
0
LINE
8
BLACK
6
CONTINUOUS
10
5.6707480314960632
20
-4.221259842519685
11
5.6708229527559055
21
-4.2208831889763783
0
LINE
8
BLACK
6
CONTINUOUS
10
5.6708229527559055
20
-4.2208831889763783
11
5.6713556299212593
21
-4.2203505118110236
0
LINE
8
BLACK
6
CONTINUOUS
10
5.6713556299212593
20
-4.2203505118110236
11
5.6717322834645669
21
-4.2202755905511813
0
LINE
8
BLACK
6
CONTINUOUS
10
5.6717322834645669
20
-4.2202755905511813
11
5.788267716535433
21
-4.2202755905511813
0
LINE
8
BLACK
6
CONTINUOUS
10
5.788267716535433
20
-4.2202755905511813
11
5.7886443700787398
21
-4.2203505118110236
0
LINE
8
BLACK
6
CONTINUOUS
10
5.6727165354330706
20
-4.2222440944881887
11
5.6727165354330706
21
-4.2777559055118113
0
LINE
8
BLACK
6
CONTINUOUS
10
5.6727165354330706
20
-4.2777559055118113
11
5.7872834645669293
21
-4.2777559055118113
0
LINE
8
BLACK
6
CONTINUOUS
10
5.7872834645669293
20
-4.2777559055118113
11
5.7872834645669293
21
-4.2222440944881887
0
LINE
8
BLACK
6
CONTINUOUS
10
5.7872834645669293
20
-4.2222440944881887
11
5.6727165354330706
21
-4.2222440944881887
0
LINE
8
BLACK
6
CONTINUOUS
10
5.7291168110236219
20
-4.0508229527559054
11
5.7296494881889766
21
-4.0513556299212601
0
LINE
8
BLACK
6
CONTINUOUS
10
5.7296494881889766
20
-4.0513556299212601
11
5.7297244094488189
21
-4.0517322834645668
0
LINE
8
BLACK
6
CONTINUOUS
10
5.7297244094488189
20
-4.0517322834645668
11
5.7297244094488189
21
-4.1682677165354329
0
LINE
8
BLACK
6
CONTINUOUS
10
5.7297244094488189
20
-4.1682677165354329
11
5.7296494881889766
21
-4.1686443700787397
0
LINE
8
BLACK
6
CONTINUOUS
10
5.7296494881889766
20
-4.1686443700787397
11
5.7291168110236219
21
-4.1691770472440943
0
LINE
8
BLACK
6
CONTINUOUS
10
5.7291168110236219
20
-4.1691770472440943
11
5.7287401574803152
21
-4.1692519685039366
0
LINE
8
BLACK
6
CONTINUOUS
10
5.7287401574803152
20
-4.1692519685039366
11
5.6712598425196852
21
-4.1692519685039366
0
LINE
8
BLACK
6
CONTINUOUS
10
5.6712598425196852
20
-4.1692519685039366
11
5.6708831889763776
21
-4.1691770472440943
0
LINE
8
BLACK
6
CONTINUOUS
10
5.6708831889763776
20
-4.1691770472440943
11
5.6703505118110238
21
-4.1686443700787397
0
LINE
8
BLACK
6
CONTINUOUS
10
5.6703505118110238
20
-4.1686443700787397
11
5.6702755905511806
21
-4.1682677165354329
0
LINE
8
BLACK
6
CONTINUOUS
10
5.6702755905511806
20
-4.1682677165354329
11
5.6702755905511806
21
-4.0517322834645668
0
LINE
8
BLACK
6
CONTINUOUS
10
5.6702755905511806
20
-4.0517322834645668
11
5.6703505118110238
21
-4.0513556299212601
0
LINE
8
BLACK
6
CONTINUOUS
10
5.6703505118110238
20
-4.0513556299212601
11
5.6708831889763776
21
-4.0508229527559054
0
LINE
8
BLACK
6
CONTINUOUS
10
5.6708831889763776
20
-4.0508229527559054
11
5.6712598425196852
21
-4.0507480314960631
0
LINE
8
BLACK
6
CONTINUOUS
10
5.6712598425196852
20
-4.0507480314960631
11
5.7287401574803152
21
-4.0507480314960631
0
LINE
8
BLACK
6
CONTINUOUS
10
5.7287401574803152
20
-4.0507480314960631
11
5.7291168110236219
21
-4.0508229527559054
0
LINE
8
BLACK
6
CONTINUOUS
10
5.6722440944881889
20
-4.0527165354330705
11
5.6722440944881889
21
-4.1672834645669292
0
LINE
8
BLACK
6
CONTINUOUS
10
5.6722440944881889
20
-4.1672834645669292
11
5.7277559055118106
21
-4.1672834645669292
0
LINE
8
BLACK
6
CONTINUOUS
10
5.7277559055118106
20
-4.1672834645669292
11
5.7277559055118106
21
-4.0527165354330705
0
LINE
8
BLACK
6
CONTINUOUS
10
5.7277559055118106
20
-4.0527165354330705
11
5.6722440944881889
21
-4.0527165354330705
0
LINE
8
BLACK
6
CONTINUOUS
10
6.2590065748031494
20
-3.9102717716535431
11
6.259539251968504
21
-3.9108044488188973
0
LINE
8
BLACK
6
CONTINUOUS
10
6.259539251968504
20
-3.9108044488188973
11
6.2596141732283463
21
-3.9111811023622045
0
LINE
8
BLACK
6
CONTINUOUS
10
6.2596141732283463
20
-3.9111811023622045
11
6.2596141732283463
21
-4.1631496062992124
0
LINE
8
BLACK
6
CONTINUOUS
10
6.2596141732283463
20
-4.1631496062992124
11
6.259539251968504
21
-4.16352625984252
0
LINE
8
BLACK
6
CONTINUOUS
10
6.259539251968504
20
-4.16352625984252
11
6.2590065748031494
21
-4.1640589370078738
0
LINE
8
BLACK
6
CONTINUOUS
10
6.2590065748031494
20
-4.1640589370078738
11
6.2586299212598426
21
-4.1641338582677161
0
LINE
8
BLACK
6
CONTINUOUS
10
6.2586299212598426
20
-4.1641338582677161
11
5.7389448818897639
21
-4.1641338582677161
0
LINE
8
BLACK
6
CONTINUOUS
10
5.7389448818897639
20
-4.1641338582677161
11
5.7385682283464563
21
-4.1640589370078738
0
LINE
8
BLACK
6
CONTINUOUS
10
5.7385682283464563
20
-4.1640589370078738
11
5.7380355511811025
21
-4.16352625984252
0
LINE
8
BLACK
6
CONTINUOUS
10
5.7380355511811025
20
-4.16352625984252
11
5.7379606299212593
21
-4.1631496062992124
0
LINE
8
BLACK
6
CONTINUOUS
10
5.7379606299212593
20
-4.1631496062992124
11
5.7379606299212593
21
-3.9111811023622045
0
LINE
8
BLACK
6
CONTINUOUS
10
5.7379606299212593
20
-3.9111811023622045
11
5.7380355511811025
21
-3.9108044488188973
0
LINE
8
BLACK
6
CONTINUOUS
10
5.7380355511811025
20
-3.9108044488188973
11
5.7385682283464563
21
-3.9102717716535431
0
LINE
8
BLACK
6
CONTINUOUS
10
5.7385682283464563
20
-3.9102717716535431
11
5.7389448818897639
21
-3.9101968503937008
0
LINE
8
BLACK
6
CONTINUOUS
10
5.7389448818897639
20
-3.9101968503937008
11
6.2586299212598426
21
-3.9101968503937008
0
LINE
8
BLACK
6
CONTINUOUS
10
6.2586299212598426
20
-3.9101968503937008
11
6.2590065748031494
21
-3.9102717716535431
0
LINE
8
BLACK
6
CONTINUOUS
10
5.7399291338582676
20
-3.9121653543307087
11
5.7399291338582676
21
-4.1621653543307087
0
LINE
8
BLACK
6
CONTINUOUS
10
5.7399291338582676
20
-4.1621653543307087
11
6.257645669291338
21
-4.1621653543307087
0
LINE
8
BLACK
6
CONTINUOUS
10
6.257645669291338
20
-4.1621653543307087
11
6.257645669291338
21
-3.9121653543307087
0
LINE
8
BLACK
6
CONTINUOUS
10
6.257645669291338
20
-3.9121653543307087
11
5.7399291338582676
21
-3.9121653543307087
0
CIRCLE
8
BLACK
10
5.8585826771653542
20
-4.6730708661417326
40
0.0039370078740157
0
CIRCLE
8
BLACK
10
5.8999212598425199
20
-4.6730708661417326
40
0.0039370078740157
0
CIRCLE
8
BLACK
10
5.9412598425196848
20
-4.6730708661417326
40
0.0039370078740157
0
CIRCLE
8
BLACK
10
5.8585826771653542
20
-4.6317322834645669
40
0.0039370078740157
0
CIRCLE
8
BLACK
10
5.8999212598425199
20
-4.6317322834645669
40
0.0039370078740157
0
CIRCLE
8
BLACK
10
5.9412598425196848
20
-4.6317322834645669
40
0.0039370078740157
0
CIRCLE
8
BLACK
10
5.8585826771653542
20
-4.5903937007874012
40
0.0039370078740157
0
CIRCLE
8
BLACK
10
5.8999212598425199
20
-4.5903937007874012
40
0.0039370078740157
0
CIRCLE
8
BLACK
10
5.9412598425196848
20
-4.5903937007874012
40
0.0039370078740157
0
CIRCLE
8
BLACK
10
7.0599999999999996
20
-4.5
40
0.0068897637795276
0
CIRCLE
8
BLACK
10
7.1600000000000001
20
-4.5999999999999996
40
0.0068897637795276
0
CIRCLE
8
BLACK
10
7.1600000000000001
20
-4.3999999999999995
40
0.0068897637795276
0
CIRCLE
8
BLACK
10
6.96
20
-4.5999999999999996
40
0.0068897637795276
0
CIRCLE
8
BLACK
10
6.96
20
-4.3999999999999995
40
0.0068897637795276
  0
ENDSEC
  0
EOF
