  0
SECTION
  2
HEADER
  9
$ANGBASE
  50
0.0
  9
$ANGDIR
  70
1
  9
$MEASUREMENT
  70
0
  0
ENDSEC
  0
SECTION
  2
TABLES
  0
TABLE
  2
LTYPE
  70
4
  0
LTYPE
  5
40F
  2
CONTINUOUS
  70
0
  3
Solid line
  72
65
  73
0
  40
0.0
  0
LTYPE
  5
410
  2
DASHDOT
 70
0
  3
Dash Dot ____ _ ____ _
 72
65
 73
4
 40
2.0
 49
1.25
 49
-0.25
 49
0.25
 49
-0.25
  0
LTYPE
  5
411
  2
DASHED
 70
0
  3
Dashed __ __ __ __ __
 72
65
 73
2
 40
0.75
 49
0.5
 49
-0.25
  0
LTYPE
  5
43B
  2
DOTTED
 70
0
  3
Dotted .  .  .  .
 72
65
 73
2
 40
0.2
 49
0.0
 49
-0.2
  0
ENDTAB
  0
TABLE
  2
STYLE
  70
4
  0
STYLE
  2
KICAD
  70
0
  40
0
  41
1
  42
1
  50
0
  71
0
  3
isocp.shx
  0
STYLE
  2
KICADB
  70
0
  40
0
  41
1
  42
1
  50
0
  71
0
  3
isocp.shx
  0
STYLE
  2
KICADI
  70
0
  40
0
  41
1
  42
1
  50
15
  71
0
  3
isocp.shx
  0
STYLE
  2
KICADBI
  70
0
  40
0
  41
1
  42
1
  50
15
  71
0
  3
isocp.shx
  0
ENDTAB
  0
TABLE
  2
LAYER
  70
1
  0
LAYER
  2
BLACK
  70
0
  62
7
  6
CONTINUOUS
  0
ENDTAB
  0
ENDSEC
  0
SECTION
  2
ENTITIES
0
LINE
8
BLACK
6
CONTINUOUS
10
4.9214960629921256
20
-5.0516456692913385
11
4.9254500393700784
21
-5.052271929133858
0
LINE
8
BLACK
6
CONTINUOUS
10
4.9254500393700784
20
-5.052271929133858
11
4.9290169291338586
21
-5.0540893307086616
0
LINE
8
BLACK
6
CONTINUOUS
10
4.9290169291338586
20
-5.0540893307086616
11
4.9318476771653543
21
-5.0569200787401574
0
LINE
8
BLACK
6
CONTINUOUS
10
4.9318476771653543
20
-5.0569200787401574
11
4.933665078740157
21
-5.0604869685039366
0
LINE
8
BLACK
6
CONTINUOUS
10
4.933665078740157
20
-5.0604869685039366
11
4.9342913385826774
21
-5.0644409448818895
0
LINE
8
BLACK
6
CONTINUOUS
10
4.9342913385826774
20
-5.0644409448818895
11
4.9342913385826774
21
-5.1195590551181098
0
LINE
8
BLACK
6
CONTINUOUS
10
4.9342913385826774
20
-5.1195590551181098
11
4.933665078740157
21
-5.1235130314960626
0
LINE
8
BLACK
6
CONTINUOUS
10
4.933665078740157
20
-5.1235130314960626
11
4.9318476771653543
21
-5.1270799212598428
0
LINE
8
BLACK
6
CONTINUOUS
10
4.9318476771653543
20
-5.1270799212598428
11
4.9290169291338586
21
-5.1299106692913385
0
LINE
8
BLACK
6
CONTINUOUS
10
4.9290169291338586
20
-5.1299106692913385
11
4.9254500393700784
21
-5.1317280708661412
0
LINE
8
BLACK
6
CONTINUOUS
10
4.9254500393700784
20
-5.1317280708661412
11
4.9214960629921256
21
-5.1323543307086616
0
LINE
8
BLACK
6
CONTINUOUS
10
4.9214960629921256
20
-5.1323543307086616
11
4.8585039370078738
21
-5.1323543307086616
0
LINE
8
BLACK
6
CONTINUOUS
10
4.8585039370078738
20
-5.1323543307086616
11
4.8545499606299209
21
-5.1317280708661412
0
LINE
8
BLACK
6
CONTINUOUS
10
4.8545499606299209
20
-5.1317280708661412
11
4.8509830708661417
21
-5.1299106692913385
0
LINE
8
BLACK
6
CONTINUOUS
10
4.8509830708661417
20
-5.1299106692913385
11
4.8481523228346459
21
-5.1270799212598428
0
LINE
8
BLACK
6
CONTINUOUS
10
4.8481523228346459
20
-5.1270799212598428
11
4.8463349212598423
21
-5.1235130314960626
0
LINE
8
BLACK
6
CONTINUOUS
10
4.8463349212598423
20
-5.1235130314960626
11
4.8457086614173228
21
-5.1195590551181098
0
LINE
8
BLACK
6
CONTINUOUS
10
4.8457086614173228
20
-5.1195590551181098
11
4.8457086614173228
21
-5.0644409448818895
0
LINE
8
BLACK
6
CONTINUOUS
10
4.8457086614173228
20
-5.0644409448818895
11
4.8463349212598423
21
-5.0604869685039366
0
LINE
8
BLACK
6
CONTINUOUS
10
4.8463349212598423
20
-5.0604869685039366
11
4.8481523228346459
21
-5.0569200787401574
0
LINE
8
BLACK
6
CONTINUOUS
10
4.8481523228346459
20
-5.0569200787401574
11
4.8509830708661417
21
-5.0540893307086616
0
LINE
8
BLACK
6
CONTINUOUS
10
4.8509830708661417
20
-5.0540893307086616
11
4.8545499606299209
21
-5.052271929133858
0
LINE
8
BLACK
6
CONTINUOUS
10
4.8545499606299209
20
-5.052271929133858
11
4.8585039370078738
21
-5.0516456692913385
0
LINE
8
BLACK
6
CONTINUOUS
10
4.8585039370078738
20
-5.0516456692913385
11
4.9214960629921256
21
-5.0516456692913385
0
LINE
8
BLACK
6
CONTINUOUS
10
4.8585039370078738
20
-5.0536141732283459
11
4.8567891338582676
21
-5.0536141732283459
0
LINE
8
BLACK
6
CONTINUOUS
10
4.8567891338582676
20
-5.0536141732283459
11
4.8535274015748033
21
-5.0546739763779529
0
LINE
8
BLACK
6
CONTINUOUS
10
4.8535274015748033
20
-5.0546739763779529
11
4.850752834645669
21
-5.0566898425196847
0
LINE
8
BLACK
6
CONTINUOUS
10
4.850752834645669
20
-5.0566898425196847
11
4.8487369685039372
21
-5.059464409448819
0
LINE
8
BLACK
6
CONTINUOUS
10
4.8487369685039372
20
-5.059464409448819
11
4.8476771653543302
21
-5.0627261417322833
0
LINE
8
BLACK
6
CONTINUOUS
10
4.8476771653543302
20
-5.0627261417322833
11
4.8476771653543302
21
-5.0644409448818895
0
LINE
8
BLACK
6
CONTINUOUS
10
4.8476771653543302
20
-5.0644409448818895
11
4.8476771653543302
21
-5.1195590551181098
0
LINE
8
BLACK
6
CONTINUOUS
10
4.8476771653543302
20
-5.1195590551181098
11
4.8476771653543302
21
-5.1212738582677169
0
LINE
8
BLACK
6
CONTINUOUS
10
4.8476771653543302
20
-5.1212738582677169
11
4.8487369685039372
21
-5.1245355905511811
0
LINE
8
BLACK
6
CONTINUOUS
10
4.8487369685039372
20
-5.1245355905511811
11
4.850752834645669
21
-5.1273101574803146
0
LINE
8
BLACK
6
CONTINUOUS
10
4.850752834645669
20
-5.1273101574803146
11
4.8535274015748033
21
-5.1293260236220473
0
LINE
8
BLACK
6
CONTINUOUS
10
4.8535274015748033
20
-5.1293260236220473
11
4.8567891338582676
21
-5.1303858267716533
0
LINE
8
BLACK
6
CONTINUOUS
10
4.8567891338582676
20
-5.1303858267716533
11
4.8585039370078738
21
-5.1303858267716533
0
LINE
8
BLACK
6
CONTINUOUS
10
4.8585039370078738
20
-5.1303858267716533
11
4.9214960629921256
21
-5.1303858267716533
0
LINE
8
BLACK
6
CONTINUOUS
10
4.9214960629921256
20
-5.1303858267716533
11
4.9232108661417318
21
-5.1303858267716533
0
LINE
8
BLACK
6
CONTINUOUS
10
4.9232108661417318
20
-5.1303858267716533
11
4.9264725984251969
21
-5.1293260236220473
0
LINE
8
BLACK
6
CONTINUOUS
10
4.9264725984251969
20
-5.1293260236220473
11
4.9292471653543304
21
-5.1273101574803146
0
LINE
8
BLACK
6
CONTINUOUS
10
4.9292471653543304
20
-5.1273101574803146
11
4.931263031496063
21
-5.1245355905511811
0
LINE
8
BLACK
6
CONTINUOUS
10
4.931263031496063
20
-5.1245355905511811
11
4.9323228346456691
21
-5.1212738582677169
0
LINE
8
BLACK
6
CONTINUOUS
10
4.9323228346456691
20
-5.1212738582677169
11
4.9323228346456691
21
-5.1195590551181098
0
LINE
8
BLACK
6
CONTINUOUS
10
4.9323228346456691
20
-5.1195590551181098
11
4.9323228346456691
21
-5.0644409448818895
0
LINE
8
BLACK
6
CONTINUOUS
10
4.9323228346456691
20
-5.0644409448818895
11
4.9323228346456691
21
-5.0627261417322833
0
LINE
8
BLACK
6
CONTINUOUS
10
4.9323228346456691
20
-5.0627261417322833
11
4.931263031496063
21
-5.059464409448819
0
LINE
8
BLACK
6
CONTINUOUS
10
4.931263031496063
20
-5.059464409448819
11
4.9292471653543304
21
-5.0566898425196847
0
LINE
8
BLACK
6
CONTINUOUS
10
4.9292471653543304
20
-5.0566898425196847
11
4.9264725984251969
21
-5.0546739763779529
0
LINE
8
BLACK
6
CONTINUOUS
10
4.9264725984251969
20
-5.0546739763779529
11
4.9232108661417318
21
-5.0536141732283459
0
LINE
8
BLACK
6
CONTINUOUS
10
4.9232108661417318
20
-5.0536141732283459
11
4.9214960629921256
21
-5.0536141732283459
0
LINE
8
BLACK
6
CONTINUOUS
10
4.9214960629921256
20
-5.0536141732283459
11
4.8585039370078738
21
-5.0536141732283459
0
LINE
8
BLACK
6
CONTINUOUS
10
7.255666692913386
20
-4.4007403937007874
11
7.2567320472440944
21
-4.4018057480314958
0
LINE
8
BLACK
6
CONTINUOUS
10
7.2567320472440944
20
-4.4018057480314958
11
7.2567320472440944
21
-4.4033123622047246
0
LINE
8
BLACK
6
CONTINUOUS
10
7.2567320472440944
20
-4.4033123622047246
11
7.255666692913386
21
-4.404377716535433
0
LINE
8
BLACK
6
CONTINUOUS
10
7.255666692913386
20
-4.404377716535433
11
7.2549133858267716
21
-4.4045275590551176
0
LINE
8
BLACK
6
CONTINUOUS
10
7.2549133858267716
20
-4.4045275590551176
11
7.0029448818897633
21
-4.4045275590551176
0
LINE
8
BLACK
6
CONTINUOUS
10
7.0029448818897633
20
-4.4045275590551176
11
7.0029448818897633
21
-4.5954724409448815
0
LINE
8
BLACK
6
CONTINUOUS
10
7.0029448818897633
20
-4.5954724409448815
11
7.2549133858267716
21
-4.5954724409448815
0
LINE
8
BLACK
6
CONTINUOUS
10
7.2549133858267716
20
-4.5954724409448815
11
7.255666692913386
21
-4.595622283464567
0
LINE
8
BLACK
6
CONTINUOUS
10
7.255666692913386
20
-4.595622283464567
11
7.2567320472440944
21
-4.5966876377952754
0
LINE
8
BLACK
6
CONTINUOUS
10
7.2567320472440944
20
-4.5966876377952754
11
7.2567320472440944
21
-4.5981942519685042
0
LINE
8
BLACK
6
CONTINUOUS
10
7.2567320472440944
20
-4.5981942519685042
11
7.255666692913386
21
-4.5992596062992126
0
LINE
8
BLACK
6
CONTINUOUS
10
7.255666692913386
20
-4.5992596062992126
11
7.2549133858267716
21
-4.5994094488188972
0
LINE
8
BLACK
6
CONTINUOUS
10
7.2549133858267716
20
-4.5994094488188972
11
7.0009763779527558
21
-4.5994094488188972
0
LINE
8
BLACK
6
CONTINUOUS
10
7.0009763779527558
20
-4.5994094488188972
11
7.0002230708661415
21
-4.5992596062992126
0
LINE
8
BLACK
6
CONTINUOUS
10
7.0002230708661415
20
-4.5992596062992126
11
6.9991577165354331
21
-4.5981942519685042
0
LINE
8
BLACK
6
CONTINUOUS
10
6.9991577165354331
20
-4.5981942519685042
11
6.9990078740157475
21
-4.5974409448818898
0
LINE
8
BLACK
6
CONTINUOUS
10
6.9990078740157475
20
-4.5974409448818898
11
6.9990078740157475
21
-4.4025590551181102
0
LINE
8
BLACK
6
CONTINUOUS
10
6.9990078740157475
20
-4.4025590551181102
11
6.9991577165354331
21
-4.4018057480314958
0
LINE
8
BLACK
6
CONTINUOUS
10
6.9991577165354331
20
-4.4018057480314958
11
7.0002230708661415
21
-4.4007403937007874
0
LINE
8
BLACK
6
CONTINUOUS
10
7.0002230708661415
20
-4.4007403937007874
11
7.0009763779527558
21
-4.4005905511811019
0
LINE
8
BLACK
6
CONTINUOUS
10
7.0009763779527558
20
-4.4005905511811019
11
7.2549133858267716
21
-4.4005905511811019
0
LINE
8
BLACK
6
CONTINUOUS
10
7.2549133858267716
20
-4.4005905511811019
11
7.255666692913386
21
-4.4007403937007874
0
LINE
8
BLACK
6
CONTINUOUS
10
7.2905760629921259
20
-3.9071039763779525
11
7.2916404724409452
21
-3.9075448818897636
0
LINE
8
BLACK
6
CONTINUOUS
10
7.2916404724409452
20
-3.9075448818897636
11
7.2924551181102357
21
-3.908359527559055
0
LINE
8
BLACK
6
CONTINUOUS
10
7.2924551181102357
20
-3.908359527559055
11
7.2928960236220473
21
-3.9094239370078738
0
LINE
8
BLACK
6
CONTINUOUS
10
7.2928960236220473
20
-3.9094239370078738
11
7.2929527559055121
21
-3.9099999999999997
0
LINE
8
BLACK
6
CONTINUOUS
10
7.2929527559055121
20
-3.9099999999999997
11
7.2929527559055121
21
-5.0899999999999999
0
LINE
8
BLACK
6
CONTINUOUS
10
7.2929527559055121
20
-5.0899999999999999
11
7.2928960236220473
21
-5.0905760629921257
0
LINE
8
BLACK
6
CONTINUOUS
10
7.2928960236220473
20
-5.0905760629921257
11
7.2924551181102357
21
-5.091640472440945
0
LINE
8
BLACK
6
CONTINUOUS
10
7.2924551181102357
20
-5.091640472440945
11
7.2916404724409452
21
-5.0924551181102364
0
LINE
8
BLACK
6
CONTINUOUS
10
7.2916404724409452
20
-5.0924551181102364
11
7.2905760629921259
21
-5.0928960236220471
0
LINE
8
BLACK
6
CONTINUOUS
10
7.2905760629921259
20
-5.0928960236220471
11
7.29
21
-5.0929527559055119
0
LINE
8
BLACK
6
CONTINUOUS
10
7.29
20
-5.0929527559055119
11
5.3099999999999996
21
-5.0929527559055119
0
LINE
8
BLACK
6
CONTINUOUS
10
5.3099999999999996
20
-5.0929527559055119
11
5.3094239370078737
21
-5.0928960236220471
0
LINE
8
BLACK
6
CONTINUOUS
10
5.3094239370078737
20
-5.0928960236220471
11
5.3083595275590554
21
-5.0924551181102364
0
LINE
8
BLACK
6
CONTINUOUS
10
5.3083595275590554
20
-5.0924551181102364
11
5.3075448818897639
21
-5.091640472440945
0
LINE
8
BLACK
6
CONTINUOUS
10
5.3075448818897639
20
-5.091640472440945
11
5.3071039763779524
21
-5.0905760629921257
0
LINE
8
BLACK
6
CONTINUOUS
10
5.3071039763779524
20
-5.0905760629921257
11
5.3070472440944885
21
-5.0899999999999999
0
LINE
8
BLACK
6
CONTINUOUS
10
5.3070472440944885
20
-5.0899999999999999
11
5.3070472440944885
21
-3.9099999999999997
0
LINE
8
BLACK
6
CONTINUOUS
10
5.3070472440944885
20
-3.9099999999999997
11
5.3071039763779524
21
-3.9094239370078738
0
LINE
8
BLACK
6
CONTINUOUS
10
5.3071039763779524
20
-3.9094239370078738
11
5.3075448818897639
21
-3.908359527559055
0
LINE
8
BLACK
6
CONTINUOUS
10
5.3075448818897639
20
-3.908359527559055
11
5.3083595275590554
21
-3.9075448818897636
0
LINE
8
BLACK
6
CONTINUOUS
10
5.3083595275590554
20
-3.9075448818897636
11
5.3094239370078737
21
-3.9071039763779525
0
LINE
8
BLACK
6
CONTINUOUS
10
5.3094239370078737
20
-3.9071039763779525
11
5.3099999999999996
21
-3.9070472440944881
0
LINE
8
BLACK
6
CONTINUOUS
10
5.3099999999999996
20
-3.9070472440944881
11
7.29
21
-3.9070472440944881
0
LINE
8
BLACK
6
CONTINUOUS
10
7.29
20
-3.9070472440944881
11
7.2905760629921259
21
-3.9071039763779525
0
LINE
8
BLACK
6
CONTINUOUS
10
5.3129527559055116
20
-3.9129527559055117
11
5.3129527559055116
21
-5.0870472440944878
0
LINE
8
BLACK
6
CONTINUOUS
10
5.3129527559055116
20
-5.0870472440944878
11
7.287047244094488
21
-5.0870472440944878
0
LINE
8
BLACK
6
CONTINUOUS
10
7.287047244094488
20
-5.0870472440944878
11
7.287047244094488
21
-3.9129527559055117
0
LINE
8
BLACK
6
CONTINUOUS
10
7.287047244094488
20
-3.9129527559055117
11
5.3129527559055116
21
-3.9129527559055117
0
LINE
8
BLACK
6
CONTINUOUS
10
7.8056666929133858
20
-4.3847403937007874
11
7.8067320472440942
21
-4.3858057480314958
0
LINE
8
BLACK
6
CONTINUOUS
10
7.8067320472440942
20
-4.3858057480314958
11
7.8067320472440942
21
-4.3873123622047245
0
LINE
8
BLACK
6
CONTINUOUS
10
7.8067320472440942
20
-4.3873123622047245
11
7.8056666929133858
21
-4.388377716535433
0
LINE
8
BLACK
6
CONTINUOUS
10
7.8056666929133858
20
-4.388377716535433
11
7.8049133858267714
21
-4.3885275590551176
0
LINE
8
BLACK
6
CONTINUOUS
10
7.8049133858267714
20
-4.3885275590551176
11
7.552944881889764
21
-4.3885275590551176
0
LINE
8
BLACK
6
CONTINUOUS
10
7.552944881889764
20
-4.3885275590551176
11
7.552944881889764
21
-4.5794724409448815
0
LINE
8
BLACK
6
CONTINUOUS
10
7.552944881889764
20
-4.5794724409448815
11
7.8049133858267714
21
-4.5794724409448815
0
LINE
8
BLACK
6
CONTINUOUS
10
7.8049133858267714
20
-4.5794724409448815
11
7.8056666929133858
21
-4.579622283464567
0
LINE
8
BLACK
6
CONTINUOUS
10
7.8056666929133858
20
-4.579622283464567
11
7.8067320472440942
21
-4.5806876377952754
0
LINE
8
BLACK
6
CONTINUOUS
10
7.8067320472440942
20
-4.5806876377952754
11
7.8067320472440942
21
-4.5821942519685042
0
LINE
8
BLACK
6
CONTINUOUS
10
7.8067320472440942
20
-4.5821942519685042
11
7.8056666929133858
21
-4.5832596062992126
0
LINE
8
BLACK
6
CONTINUOUS
10
7.8056666929133858
20
-4.5832596062992126
11
7.8049133858267714
21
-4.5834094488188972
0
LINE
8
BLACK
6
CONTINUOUS
10
7.8049133858267714
20
-4.5834094488188972
11
7.5509763779527557
21
-4.5834094488188972
0
LINE
8
BLACK
6
CONTINUOUS
10
7.5509763779527557
20
-4.5834094488188972
11
7.5502230708661413
21
-4.5832596062992126
0
LINE
8
BLACK
6
CONTINUOUS
10
7.5502230708661413
20
-4.5832596062992126
11
7.5491577165354329
21
-4.5821942519685042
0
LINE
8
BLACK
6
CONTINUOUS
10
7.5491577165354329
20
-4.5821942519685042
11
7.5490078740157482
21
-4.5814409448818898
0
LINE
8
BLACK
6
CONTINUOUS
10
7.5490078740157482
20
-4.5814409448818898
11
7.5490078740157482
21
-4.3865590551181102
0
LINE
8
BLACK
6
CONTINUOUS
10
7.5490078740157482
20
-4.3865590551181102
11
7.5491577165354329
21
-4.3858057480314958
0
LINE
8
BLACK
6
CONTINUOUS
10
7.5491577165354329
20
-4.3858057480314958
11
7.5502230708661413
21
-4.3847403937007874
0
LINE
8
BLACK
6
CONTINUOUS
10
7.5502230708661413
20
-4.3847403937007874
11
7.5509763779527557
21
-4.3845905511811019
0
LINE
8
BLACK
6
CONTINUOUS
10
7.5509763779527557
20
-4.3845905511811019
11
7.8049133858267714
21
-4.3845905511811019
0
LINE
8
BLACK
6
CONTINUOUS
10
7.8049133858267714
20
-4.3845905511811019
11
7.8056666929133858
21
-4.3847403937007874
0
LINE
8
BLACK
6
CONTINUOUS
10
8.2322104724409453
20
-4.1141417322834641
11
8.2322105511811028
21
-4.1141417322834641
0
LINE
8
BLACK
6
CONTINUOUS
10
8.2322105511811028
20
-4.1141417322834641
11
8.2361640551181097
21
-4.1147684251968499
0
LINE
8
BLACK
6
CONTINUOUS
10
8.2361640551181097
20
-4.1147684251968499
11
8.2397304330708661
21
-4.116586062992126
0
LINE
8
BLACK
6
CONTINUOUS
10
8.2397304330708661
20
-4.116586062992126
11
8.2425607086614168
21
-4.1194167322834643
0
LINE
8
BLACK
6
CONTINUOUS
10
8.2425607086614168
20
-4.1194167322834643
11
8.2443777952755912
21
-4.1229834251968507
0
LINE
8
BLACK
6
CONTINUOUS
10
8.2443777952755912
20
-4.1229834251968507
11
8.2449971653543308
21
-4.1268942519685039
0
LINE
8
BLACK
6
CONTINUOUS
10
8.2449971653543308
20
-4.1268942519685039
11
8.2450056692913378
21
-4.126937007874016
0
LINE
8
BLACK
6
CONTINUOUS
10
8.2450056692913378
20
-4.126937007874016
11
8.2450056692913378
21
-4.1820551181102363
0
LINE
8
BLACK
6
CONTINUOUS
10
8.2450056692913378
20
-4.1820551181102363
11
8.2443794488188971
21
-4.1860092519685042
0
LINE
8
BLACK
6
CONTINUOUS
10
8.2443794488188971
20
-4.1860092519685042
11
8.2425620866141731
21
-4.1895764173228347
0
LINE
8
BLACK
6
CONTINUOUS
10
8.2425620866141731
20
-4.1895764173228347
11
8.2397314566929136
21
-4.1924074409448817
0
LINE
8
BLACK
6
CONTINUOUS
10
8.2397314566929136
20
-4.1924074409448817
11
8.2361645669291335
21
-4.1942253149606294
0
LINE
8
BLACK
6
CONTINUOUS
10
8.2361645669291335
20
-4.1942253149606294
11
8.2322105511811028
21
-4.1948521259842515
0
LINE
8
BLACK
6
CONTINUOUS
10
8.2322105511811028
20
-4.1948521259842515
11
8.2322105511811028
21
-4.1948503937007873
0
LINE
8
BLACK
6
CONTINUOUS
10
8.2322105511811028
20
-4.1948503937007873
11
8.2322104724409453
21
-4.1948503543307085
0
LINE
8
BLACK
6
CONTINUOUS
10
8.2322104724409453
20
-4.1948503543307085
11
8.2322103937007878
21
-4.1948503937007873
0
LINE
8
BLACK
6
CONTINUOUS
10
8.2322103937007878
20
-4.1948503937007873
11
8.1692184251968509
21
-4.1948503937007873
0
LINE
8
BLACK
6
CONTINUOUS
10
8.1692184251968509
20
-4.1948503937007873
11
8.1692182677165359
21
-4.1948503937007873
0
LINE
8
BLACK
6
CONTINUOUS
10
8.1692182677165359
20
-4.1948503937007873
11
8.1692176377952759
21
-4.1948502362204723
0
LINE
8
BLACK
6
CONTINUOUS
10
8.1692176377952759
20
-4.1948502362204723
11
8.165264015748031
21
-4.1942246062992128
0
LINE
8
BLACK
6
CONTINUOUS
10
8.165264015748031
20
-4.1942246062992128
11
8.16169657480315
21
-4.1924073622047242
0
LINE
8
BLACK
6
CONTINUOUS
10
8.16169657480315
20
-4.1924073622047242
11
8.158865393700788
21
-4.1895766141732285
0
LINE
8
BLACK
6
CONTINUOUS
10
8.158865393700788
20
-4.1895766141732285
11
8.1570476377952748
21
-4.1860094488188979
0
LINE
8
BLACK
6
CONTINUOUS
10
8.1570476377952748
20
-4.1860094488188979
11
8.156421259842519
21
-4.1820551181102363
0
LINE
8
BLACK
6
CONTINUOUS
10
8.156421259842519
20
-4.1820551181102363
11
8.1564229921259841
21
-4.1820551181102363
0
LINE
8
BLACK
6
CONTINUOUS
10
8.1564229921259841
20
-4.1820551181102363
11
8.1564229921259841
21
-4.126937007874016
0
LINE
8
BLACK
6
CONTINUOUS
10
8.1564229921259841
20
-4.126937007874016
11
8.1570492519685036
21
-4.1229832283464569
0
LINE
8
BLACK
6
CONTINUOUS
10
8.1570492519685036
20
-4.1229832283464569
11
8.1588667716535426
21
-4.1194165354330705
0
LINE
8
BLACK
6
CONTINUOUS
10
8.1588667716535426
20
-4.1194165354330705
11
8.1616975984251958
21
-4.1165861417322835
0
LINE
8
BLACK
6
CONTINUOUS
10
8.1616975984251958
20
-4.1165861417322835
11
8.1652645275590547
21
-4.1147691732283462
0
LINE
8
BLACK
6
CONTINUOUS
10
8.1652645275590547
20
-4.1147691732283462
11
8.1691750393700779
21
-4.1141503149606296
0
LINE
8
BLACK
6
CONTINUOUS
10
8.1691750393700779
20
-4.1141503149606296
11
8.1692182677165359
21
-4.1141417322834641
0
LINE
8
BLACK
6
CONTINUOUS
10
8.1692182677165359
20
-4.1141417322834641
11
8.2322103937007878
21
-4.1141417322834641
0
LINE
8
BLACK
6
CONTINUOUS
10
8.2322103937007878
20
-4.1141417322834641
11
8.2322104724409453
21
-4.1141417322834641
0
LINE
8
BLACK
6
CONTINUOUS
10
8.1692181102362209
20
-4.1161102362204725
11
8.1692181102362209
21
-4.1161119685039367
0
LINE
8
BLACK
6
CONTINUOUS
10
8.1692181102362209
20
-4.1161119685039367
11
8.1675034645669289
21
-4.1161117716535429
0
LINE
8
BLACK
6
CONTINUOUS
10
8.1675034645669289
20
-4.1161117716535429
11
8.1642418110236221
21
-4.1171711023622048
0
LINE
8
BLACK
6
CONTINUOUS
10
8.1642418110236221
20
-4.1171711023622048
11
8.1614672440944886
21
-4.1191865748031491
0
LINE
8
BLACK
6
CONTINUOUS
10
8.1614672440944886
20
-4.1191865748031491
11
8.1594513385826772
21
-4.1219608661417322
0
LINE
8
BLACK
6
CONTINUOUS
10
8.1594513385826772
20
-4.1219608661417322
11
8.1583915354330703
21
-4.1252223228346452
0
LINE
8
BLACK
6
CONTINUOUS
10
8.1583915354330703
20
-4.1252223228346452
11
8.1583914960629915
21
-4.126937007874016
0
LINE
8
BLACK
6
CONTINUOUS
10
8.1583914960629915
20
-4.126937007874016
11
8.1583914960629915
21
-4.1820551181102363
0
LINE
8
BLACK
6
CONTINUOUS
10
8.1583914960629915
20
-4.1820551181102363
11
8.1583897637795282
21
-4.182063818897638
0
LINE
8
BLACK
6
CONTINUOUS
10
8.1583897637795282
20
-4.182063818897638
11
8.1583898031496069
21
-4.1837700787401575
0
LINE
8
BLACK
6
CONTINUOUS
10
8.1583898031496069
20
-4.1837700787401575
11
8.1594497637795271
21
-4.187032086614173
0
LINE
8
BLACK
6
CONTINUOUS
10
8.1594497637795271
20
-4.187032086614173
11
8.1614659842519686
21
-4.1898068110236215
0
LINE
8
BLACK
6
CONTINUOUS
10
8.1614659842519686
20
-4.1898068110236215
11
8.1642410236220471
21
-4.1918225984251967
0
LINE
8
BLACK
6
CONTINUOUS
10
8.1642410236220471
20
-4.1918225984251967
11
8.1675031889763776
21
-4.1928821259842515
0
LINE
8
BLACK
6
CONTINUOUS
10
8.1675031889763776
20
-4.1928821259842515
11
8.1692181102362209
21
-4.1928818897637798
0
LINE
8
BLACK
6
CONTINUOUS
10
8.1692181102362209
20
-4.1928818897637798
11
8.1692181496062997
21
-4.1928818897637798
0
LINE
8
BLACK
6
CONTINUOUS
10
8.1692181496062997
20
-4.1928818897637798
11
8.1692182677165359
21
-4.1928818897637798
0
LINE
8
BLACK
6
CONTINUOUS
10
8.1692182677165359
20
-4.1928818897637798
11
8.2322103937007878
21
-4.1928818897637798
0
LINE
8
BLACK
6
CONTINUOUS
10
8.2322103937007878
20
-4.1928818897637798
11
8.2322190944881886
21
-4.1928835826771653
0
LINE
8
BLACK
6
CONTINUOUS
10
8.2322190944881886
20
-4.1928835826771653
11
8.2339251574803143
21
-4.1928833858267716
0
LINE
8
BLACK
6
CONTINUOUS
10
8.2339251574803143
20
-4.1928833858267716
11
8.2371869685039361
21
-4.1918231102362205
0
LINE
8
BLACK
6
CONTINUOUS
10
8.2371869685039361
20
-4.1918231102362205
11
8.2399615748031501
21
-4.189806889763779
0
LINE
8
BLACK
6
CONTINUOUS
10
8.2399615748031501
20
-4.189806889763779
11
8.2419774015748022
21
-4.1870320078740155
0
LINE
8
BLACK
6
CONTINUOUS
10
8.2419774015748022
20
-4.1870320078740155
11
8.2430371653543304
21
-4.1837700393700787
0
LINE
8
BLACK
6
CONTINUOUS
10
8.2430371653543304
20
-4.1837700393700787
11
8.2430371653543304
21
-4.1820551181102363
0
LINE
8
BLACK
6
CONTINUOUS
10
8.2430371653543304
20
-4.1820551181102363
11
8.2430371653543304
21
-4.126937007874016
0
LINE
8
BLACK
6
CONTINUOUS
10
8.2430371653543304
20
-4.126937007874016
11
8.2430354330708653
21
-4.126937007874016
0
LINE
8
BLACK
6
CONTINUOUS
10
8.2430354330708653
20
-4.126937007874016
11
8.243035472440944
21
-4.1252223622047239
0
LINE
8
BLACK
6
CONTINUOUS
10
8.243035472440944
20
-4.1252223622047239
11
8.2419758661417326
21
-4.1219609055118109
0
LINE
8
BLACK
6
CONTINUOUS
10
8.2419758661417326
20
-4.1219609055118109
11
8.2399603543307087
21
-4.1191864566929137
0
LINE
8
BLACK
6
CONTINUOUS
10
8.2399603543307087
20
-4.1191864566929137
11
8.2371861811023628
21
-4.1171705511811023
0
LINE
8
BLACK
6
CONTINUOUS
10
8.2371861811023628
20
-4.1171705511811023
11
8.233924881889763
21
-4.116110472440945
0
LINE
8
BLACK
6
CONTINUOUS
10
8.233924881889763
20
-4.116110472440945
11
8.2322102362204728
21
-4.1161102362204725
0
LINE
8
BLACK
6
CONTINUOUS
10
8.2322102362204728
20
-4.1161102362204725
11
8.1692182677165359
21
-4.1161102362204725
0
LINE
8
BLACK
6
CONTINUOUS
10
8.1692182677165359
20
-4.1161102362204725
11
8.1692181496062997
21
-4.1161101968503937
0
LINE
8
BLACK
6
CONTINUOUS
10
8.1692181496062997
20
-4.1161101968503937
11
8.1692181102362209
21
-4.1161102362204725
0
LINE
8
BLACK
6
CONTINUOUS
10
8.2322104724409453
20
-3.9743779527559053
11
8.2322105511811028
21
-3.9743779527559053
0
LINE
8
BLACK
6
CONTINUOUS
10
8.2322105511811028
20
-3.9743779527559053
11
8.2361640551181097
21
-3.9750046456692911
0
LINE
8
BLACK
6
CONTINUOUS
10
8.2361640551181097
20
-3.9750046456692911
11
8.2397304330708661
21
-3.9768222834645668
0
LINE
8
BLACK
6
CONTINUOUS
10
8.2397304330708661
20
-3.9768222834645668
11
8.2425607086614168
21
-3.9796529527559055
0
LINE
8
BLACK
6
CONTINUOUS
10
8.2425607086614168
20
-3.9796529527559055
11
8.2443777952755912
21
-3.9832196456692914
0
LINE
8
BLACK
6
CONTINUOUS
10
8.2443777952755912
20
-3.9832196456692914
11
8.2449971653543308
21
-3.9871304724409447
0
LINE
8
BLACK
6
CONTINUOUS
10
8.2449971653543308
20
-3.9871304724409447
11
8.2450056692913378
21
-3.9871732283464567
0
LINE
8
BLACK
6
CONTINUOUS
10
8.2450056692913378
20
-3.9871732283464567
11
8.2450056692913378
21
-4.0422913385826771
0
LINE
8
BLACK
6
CONTINUOUS
10
8.2450056692913378
20
-4.0422913385826771
11
8.2443794488188971
21
-4.0462454724409449
0
LINE
8
BLACK
6
CONTINUOUS
10
8.2443794488188971
20
-4.0462454724409449
11
8.2425620866141731
21
-4.0498126377952754
0
LINE
8
BLACK
6
CONTINUOUS
10
8.2425620866141731
20
-4.0498126377952754
11
8.2397314566929136
21
-4.0526436614173225
0
LINE
8
BLACK
6
CONTINUOUS
10
8.2397314566929136
20
-4.0526436614173225
11
8.2361645669291335
21
-4.0544615354330711
0
LINE
8
BLACK
6
CONTINUOUS
10
8.2361645669291335
20
-4.0544615354330711
11
8.2322105511811028
21
-4.0550883464566931
0
LINE
8
BLACK
6
CONTINUOUS
10
8.2322105511811028
20
-4.0550883464566931
11
8.2322105511811028
21
-4.055086614173228
0
LINE
8
BLACK
6
CONTINUOUS
10
8.2322105511811028
20
-4.055086614173228
11
8.2322104724409453
21
-4.0550865748031493
0
LINE
8
BLACK
6
CONTINUOUS
10
8.2322104724409453
20
-4.0550865748031493
11
8.2322103937007878
21
-4.055086614173228
0
LINE
8
BLACK
6
CONTINUOUS
10
8.2322103937007878
20
-4.055086614173228
11
8.1692184251968509
21
-4.055086614173228
0
LINE
8
BLACK
6
CONTINUOUS
10
8.1692184251968509
20
-4.055086614173228
11
8.1692182677165359
21
-4.055086614173228
0
LINE
8
BLACK
6
CONTINUOUS
10
8.1692182677165359
20
-4.055086614173228
11
8.1692176377952759
21
-4.055086456692913
0
LINE
8
BLACK
6
CONTINUOUS
10
8.1692176377952759
20
-4.055086456692913
11
8.165264015748031
21
-4.0544608267716535
0
LINE
8
BLACK
6
CONTINUOUS
10
8.165264015748031
20
-4.0544608267716535
11
8.16169657480315
21
-4.052643582677165
0
LINE
8
BLACK
6
CONTINUOUS
10
8.16169657480315
20
-4.052643582677165
11
8.158865393700788
21
-4.0498128346456692
0
LINE
8
BLACK
6
CONTINUOUS
10
8.158865393700788
20
-4.0498128346456692
11
8.1570476377952748
21
-4.0462456692913387
0
LINE
8
BLACK
6
CONTINUOUS
10
8.1570476377952748
20
-4.0462456692913387
11
8.156421259842519
21
-4.0422913385826771
0
LINE
8
BLACK
6
CONTINUOUS
10
8.156421259842519
20
-4.0422913385826771
11
8.1564229921259841
21
-4.0422913385826771
0
LINE
8
BLACK
6
CONTINUOUS
10
8.1564229921259841
20
-4.0422913385826771
11
8.1564229921259841
21
-3.9871732283464567
0
LINE
8
BLACK
6
CONTINUOUS
10
8.1564229921259841
20
-3.9871732283464567
11
8.1570492519685036
21
-3.9832194488188977
0
LINE
8
BLACK
6
CONTINUOUS
10
8.1570492519685036
20
-3.9832194488188977
11
8.1588667716535426
21
-3.9796527559055117
0
LINE
8
BLACK
6
CONTINUOUS
10
8.1588667716535426
20
-3.9796527559055117
11
8.1616975984251958
21
-3.9768223622047243
0
LINE
8
BLACK
6
CONTINUOUS
10
8.1616975984251958
20
-3.9768223622047243
11
8.1652645275590547
21
-3.9750053937007874
0
LINE
8
BLACK
6
CONTINUOUS
10
8.1652645275590547
20
-3.9750053937007874
11
8.1691750393700779
21
-3.9743865354330707
0
LINE
8
BLACK
6
CONTINUOUS
10
8.1691750393700779
20
-3.9743865354330707
11
8.1692182677165359
21
-3.9743779527559053
0
LINE
8
BLACK
6
CONTINUOUS
10
8.1692182677165359
20
-3.9743779527559053
11
8.2322103937007878
21
-3.9743779527559053
0
LINE
8
BLACK
6
CONTINUOUS
10
8.2322103937007878
20
-3.9743779527559053
11
8.2322104724409453
21
-3.9743779527559053
0
LINE
8
BLACK
6
CONTINUOUS
10
8.1692181102362209
20
-3.9763464566929132
11
8.1692181102362209
21
-3.9763481889763779
0
LINE
8
BLACK
6
CONTINUOUS
10
8.1692181102362209
20
-3.9763481889763779
11
8.1675034645669289
21
-3.9763479921259841
0
LINE
8
BLACK
6
CONTINUOUS
10
8.1675034645669289
20
-3.9763479921259841
11
8.1642418110236221
21
-3.9774073228346456
0
LINE
8
BLACK
6
CONTINUOUS
10
8.1642418110236221
20
-3.9774073228346456
11
8.1614672440944886
21
-3.9794227952755903
0
LINE
8
BLACK
6
CONTINUOUS
10
8.1614672440944886
20
-3.9794227952755903
11
8.1594513385826772
21
-3.9821970866141729
0
LINE
8
BLACK
6
CONTINUOUS
10
8.1594513385826772
20
-3.9821970866141729
11
8.1583915354330703
21
-3.9854585433070864
0
LINE
8
BLACK
6
CONTINUOUS
10
8.1583915354330703
20
-3.9854585433070864
11
8.1583914960629915
21
-3.9871732283464567
0
LINE
8
BLACK
6
CONTINUOUS
10
8.1583914960629915
20
-3.9871732283464567
11
8.1583914960629915
21
-4.0422913385826771
0
LINE
8
BLACK
6
CONTINUOUS
10
8.1583914960629915
20
-4.0422913385826771
11
8.1583897637795282
21
-4.0423000393700788
0
LINE
8
BLACK
6
CONTINUOUS
10
8.1583897637795282
20
-4.0423000393700788
11
8.1583898031496069
21
-4.0440062992125982
0
LINE
8
BLACK
6
CONTINUOUS
10
8.1583898031496069
20
-4.0440062992125982
11
8.1594497637795271
21
-4.0472683070866138
0
LINE
8
BLACK
6
CONTINUOUS
10
8.1594497637795271
20
-4.0472683070866138
11
8.1614659842519686
21
-4.0500430314960632
0
LINE
8
BLACK
6
CONTINUOUS
10
8.1614659842519686
20
-4.0500430314960632
11
8.1642410236220471
21
-4.0520588188976374
0
LINE
8
BLACK
6
CONTINUOUS
10
8.1642410236220471
20
-4.0520588188976374
11
8.1675031889763776
21
-4.0531183464566931
0
LINE
8
BLACK
6
CONTINUOUS
10
8.1675031889763776
20
-4.0531183464566931
11
8.1692181102362209
21
-4.0531181102362206
0
LINE
8
BLACK
6
CONTINUOUS
10
8.1692181102362209
20
-4.0531181102362206
11
8.1692181496062997
21
-4.0531181102362206
0
LINE
8
BLACK
6
CONTINUOUS
10
8.1692181496062997
20
-4.0531181102362206
11
8.1692182677165359
21
-4.0531181102362206
0
LINE
8
BLACK
6
CONTINUOUS
10
8.1692182677165359
20
-4.0531181102362206
11
8.2322103937007878
21
-4.0531181102362206
0
LINE
8
BLACK
6
CONTINUOUS
10
8.2322103937007878
20
-4.0531181102362206
11
8.2322190944881886
21
-4.0531198031496061
0
LINE
8
BLACK
6
CONTINUOUS
10
8.2322190944881886
20
-4.0531198031496061
11
8.2339251574803143
21
-4.0531196062992123
0
LINE
8
BLACK
6
CONTINUOUS
10
8.2339251574803143
20
-4.0531196062992123
11
8.2371869685039361
21
-4.0520593307086612
0
LINE
8
BLACK
6
CONTINUOUS
10
8.2371869685039361
20
-4.0520593307086612
11
8.2399615748031501
21
-4.0500431102362207
0
LINE
8
BLACK
6
CONTINUOUS
10
8.2399615748031501
20
-4.0500431102362207
11
8.2419774015748022
21
-4.0472682283464563
0
LINE
8
BLACK
6
CONTINUOUS
10
8.2419774015748022
20
-4.0472682283464563
11
8.2430371653543304
21
-4.0440062598425195
0
LINE
8
BLACK
6
CONTINUOUS
10
8.2430371653543304
20
-4.0440062598425195
11
8.2430371653543304
21
-4.0422913385826771
0
LINE
8
BLACK
6
CONTINUOUS
10
8.2430371653543304
20
-4.0422913385826771
11
8.2430371653543304
21
-3.9871732283464567
0
LINE
8
BLACK
6
CONTINUOUS
10
8.2430371653543304
20
-3.9871732283464567
11
8.2430354330708653
21
-3.9871732283464567
0
LINE
8
BLACK
6
CONTINUOUS
10
8.2430354330708653
20
-3.9871732283464567
11
8.243035472440944
21
-3.9854585826771651
0
LINE
8
BLACK
6
CONTINUOUS
10
8.243035472440944
20
-3.9854585826771651
11
8.2419758661417326
21
-3.9821971259842517
0
LINE
8
BLACK
6
CONTINUOUS
10
8.2419758661417326
20
-3.9821971259842517
11
8.2399603543307087
21
-3.979422677165354
0
LINE
8
BLACK
6
CONTINUOUS
10
8.2399603543307087
20
-3.979422677165354
11
8.2371861811023628
21
-3.9774067716535431
0
LINE
8
BLACK
6
CONTINUOUS
10
8.2371861811023628
20
-3.9774067716535431
11
8.233924881889763
21
-3.9763466929133857
0
LINE
8
BLACK
6
CONTINUOUS
10
8.233924881889763
20
-3.9763466929133857
11
8.2322102362204728
21
-3.9763464566929132
0
LINE
8
BLACK
6
CONTINUOUS
10
8.2322102362204728
20
-3.9763464566929132
11
8.1692182677165359
21
-3.9763464566929132
0
LINE
8
BLACK
6
CONTINUOUS
10
8.1692182677165359
20
-3.9763464566929132
11
8.1692181496062997
21
-3.9763464173228344
0
LINE
8
BLACK
6
CONTINUOUS
10
8.1692181496062997
20
-3.9763464173228344
11
8.1692181102362209
21
-3.9763464566929132
0
CIRCLE
8
BLACK
10
5.8585826771653542
20
-4.6730708661417326
40
0.0039370078740157
0
CIRCLE
8
BLACK
10
5.8999212598425199
20
-4.6730708661417326
40
0.0039370078740157
0
CIRCLE
8
BLACK
10
5.9412598425196848
20
-4.6730708661417326
40
0.0039370078740157
0
CIRCLE
8
BLACK
10
5.8585826771653542
20
-4.6317322834645669
40
0.0039370078740157
0
CIRCLE
8
BLACK
10
5.8999212598425199
20
-4.6317322834645669
40
0.0039370078740157
0
CIRCLE
8
BLACK
10
5.9412598425196848
20
-4.6317322834645669
40
0.0039370078740157
0
CIRCLE
8
BLACK
10
5.8585826771653542
20
-4.5903937007874012
40
0.0039370078740157
0
CIRCLE
8
BLACK
10
5.8999212598425199
20
-4.5903937007874012
40
0.0039370078740157
0
CIRCLE
8
BLACK
10
5.9412598425196848
20
-4.5903937007874012
40
0.0039370078740157
  0
ENDSEC
  0
EOF
