  0
SECTION
  2
HEADER
  9
$ANGBASE
  50
0.0
  9
$ANGDIR
  70
1
  9
$MEASUREMENT
  70
0
  0
ENDSEC
  0
SECTION
  2
TABLES
  0
TABLE
  2
LTYPE
  70
4
  0
LTYPE
  5
40F
  2
CONTINUOUS
  70
0
  3
Solid line
  72
65
  73
0
  40
0.0
  0
LTYPE
  5
410
  2
DASHDOT
 70
0
  3
Dash Dot ____ _ ____ _
 72
65
 73
4
 40
2.0
 49
1.25
 49
-0.25
 49
0.25
 49
-0.25
  0
LTYPE
  5
411
  2
DASHED
 70
0
  3
Dashed __ __ __ __ __
 72
65
 73
2
 40
0.75
 49
0.5
 49
-0.25
  0
LTYPE
  5
43B
  2
DOTTED
 70
0
  3
Dotted .  .  .  .
 72
65
 73
2
 40
0.2
 49
0.0
 49
-0.2
  0
ENDTAB
  0
TABLE
  2
STYLE
  70
4
  0
STYLE
  2
KICAD
  70
0
  40
0
  41
1
  42
1
  50
0
  71
0
  3
isocp.shx
  0
STYLE
  2
KICADB
  70
0
  40
0
  41
1
  42
1
  50
0
  71
0
  3
isocp.shx
  0
STYLE
  2
KICADI
  70
0
  40
0
  41
1
  42
1
  50
15
  71
0
  3
isocp.shx
  0
STYLE
  2
KICADBI
  70
0
  40
0
  41
1
  42
1
  50
15
  71
0
  3
isocp.shx
  0
ENDTAB
  0
TABLE
  2
LAYER
  70
1
  0
LAYER
  2
BLACK
  70
0
  62
7
  6
CONTINUOUS
  0
ENDTAB
  0
ENDSEC
  0
SECTION
  2
ENTITIES
0
LINE
8
BLACK
6
CONTINUOUS
10
6.0314002755905509
20
-4.8408229527559055
11
6.0319329527559056
21
-4.8413556299212601
0
LINE
8
BLACK
6
CONTINUOUS
10
6.0319329527559056
20
-4.8413556299212601
11
6.0320078740157479
21
-4.8417322834645669
0
LINE
8
BLACK
6
CONTINUOUS
10
6.0320078740157479
20
-4.8417322834645669
11
6.0320078740157479
21
-4.958267716535433
0
LINE
8
BLACK
6
CONTINUOUS
10
6.0320078740157479
20
-4.958267716535433
11
6.0319329527559056
21
-4.9586443700787397
0
LINE
8
BLACK
6
CONTINUOUS
10
6.0319329527559056
20
-4.9586443700787397
11
6.0314002755905509
21
-4.9591770472440944
0
LINE
8
BLACK
6
CONTINUOUS
10
6.0314002755905509
20
-4.9591770472440944
11
6.0310236220472442
21
-4.9592519685039367
0
LINE
8
BLACK
6
CONTINUOUS
10
6.0310236220472442
20
-4.9592519685039367
11
5.9735433070866142
21
-4.9592519685039367
0
LINE
8
BLACK
6
CONTINUOUS
10
5.9735433070866142
20
-4.9592519685039367
11
5.9731666535433066
21
-4.9591770472440944
0
LINE
8
BLACK
6
CONTINUOUS
10
5.9731666535433066
20
-4.9591770472440944
11
5.9726339763779528
21
-4.9586443700787397
0
LINE
8
BLACK
6
CONTINUOUS
10
5.9726339763779528
20
-4.9586443700787397
11
5.9725590551181105
21
-4.958267716535433
0
LINE
8
BLACK
6
CONTINUOUS
10
5.9725590551181105
20
-4.958267716535433
11
5.9725590551181105
21
-4.8417322834645669
0
LINE
8
BLACK
6
CONTINUOUS
10
5.9725590551181105
20
-4.8417322834645669
11
5.9726339763779528
21
-4.8413556299212601
0
LINE
8
BLACK
6
CONTINUOUS
10
5.9726339763779528
20
-4.8413556299212601
11
5.9731666535433066
21
-4.8408229527559055
0
LINE
8
BLACK
6
CONTINUOUS
10
5.9731666535433066
20
-4.8408229527559055
11
5.9735433070866142
21
-4.8407480314960631
0
LINE
8
BLACK
6
CONTINUOUS
10
5.9735433070866142
20
-4.8407480314960631
11
6.0310236220472442
21
-4.8407480314960631
0
LINE
8
BLACK
6
CONTINUOUS
10
6.0310236220472442
20
-4.8407480314960631
11
6.0314002755905509
21
-4.8408229527559055
0
LINE
8
BLACK
6
CONTINUOUS
10
5.9745275590551179
20
-4.8427165354330706
11
5.9745275590551179
21
-4.9572834645669293
0
LINE
8
BLACK
6
CONTINUOUS
10
5.9745275590551179
20
-4.9572834645669293
11
6.0300393700787396
21
-4.9572834645669293
0
LINE
8
BLACK
6
CONTINUOUS
10
6.0300393700787396
20
-4.9572834645669293
11
6.0300393700787396
21
-4.8427165354330706
0
LINE
8
BLACK
6
CONTINUOUS
10
6.0300393700787396
20
-4.8427165354330706
11
5.9745275590551179
21
-4.8427165354330706
0
LINE
8
BLACK
6
CONTINUOUS
10
6.1662427952755907
20
-4.8304292519685035
11
6.1667754724409445
21
-4.8309619291338581
0
LINE
8
BLACK
6
CONTINUOUS
10
6.1667754724409445
20
-4.8309619291338581
11
6.1668503937007877
21
-4.8313385826771649
0
LINE
8
BLACK
6
CONTINUOUS
10
6.1668503937007877
20
-4.8313385826771649
11
6.1668503937007877
21
-4.8888188976377949
0
LINE
8
BLACK
6
CONTINUOUS
10
6.1668503937007877
20
-4.8888188976377949
11
6.1667754724409445
21
-4.8891955511811025
0
LINE
8
BLACK
6
CONTINUOUS
10
6.1667754724409445
20
-4.8891955511811025
11
6.1662427952755907
21
-4.8897282283464563
0
LINE
8
BLACK
6
CONTINUOUS
10
6.1662427952755907
20
-4.8897282283464563
11
6.1658661417322831
21
-4.8898031496062995
0
LINE
8
BLACK
6
CONTINUOUS
10
6.1658661417322831
20
-4.8898031496062995
11
6.049330708661417
21
-4.8898031496062995
0
LINE
8
BLACK
6
CONTINUOUS
10
6.049330708661417
20
-4.8898031496062995
11
6.0489540551181102
21
-4.8897282283464563
0
LINE
8
BLACK
6
CONTINUOUS
10
6.0489540551181102
20
-4.8897282283464563
11
6.0484213779527556
21
-4.8891955511811025
0
LINE
8
BLACK
6
CONTINUOUS
10
6.0484213779527556
20
-4.8891955511811025
11
6.0483464566929133
21
-4.8888188976377949
0
LINE
8
BLACK
6
CONTINUOUS
10
6.0483464566929133
20
-4.8888188976377949
11
6.0483464566929133
21
-4.8313385826771649
0
LINE
8
BLACK
6
CONTINUOUS
10
6.0483464566929133
20
-4.8313385826771649
11
6.0484213779527556
21
-4.8309619291338581
0
LINE
8
BLACK
6
CONTINUOUS
10
6.0484213779527556
20
-4.8309619291338581
11
6.0489540551181102
21
-4.8304292519685035
0
LINE
8
BLACK
6
CONTINUOUS
10
6.0489540551181102
20
-4.8304292519685035
11
6.049330708661417
21
-4.8303543307086612
0
LINE
8
BLACK
6
CONTINUOUS
10
6.049330708661417
20
-4.8303543307086612
11
6.1658661417322831
21
-4.8303543307086612
0
LINE
8
BLACK
6
CONTINUOUS
10
6.1658661417322831
20
-4.8303543307086612
11
6.1662427952755907
21
-4.8304292519685035
0
LINE
8
BLACK
6
CONTINUOUS
10
6.0503149606299207
20
-4.8323228346456695
11
6.0503149606299207
21
-4.8878346456692912
0
LINE
8
BLACK
6
CONTINUOUS
10
6.0503149606299207
20
-4.8878346456692912
11
6.1648818897637794
21
-4.8878346456692912
0
LINE
8
BLACK
6
CONTINUOUS
10
6.1648818897637794
20
-4.8878346456692912
11
6.1648818897637794
21
-4.8323228346456695
0
LINE
8
BLACK
6
CONTINUOUS
10
6.1648818897637794
20
-4.8323228346456695
11
6.0503149606299207
21
-4.8323228346456695
0
LINE
8
BLACK
6
CONTINUOUS
10
6.4369120866141731
20
-4.7502717716535434
11
6.4374447637795278
21
-4.7508044488188972
0
LINE
8
BLACK
6
CONTINUOUS
10
6.4374447637795278
20
-4.7508044488188972
11
6.4375196850393701
21
-4.7511811023622048
0
LINE
8
BLACK
6
CONTINUOUS
10
6.4375196850393701
20
-4.7511811023622048
11
6.4375196850393701
21
-4.8677165354330709
0
LINE
8
BLACK
6
CONTINUOUS
10
6.4375196850393701
20
-4.8677165354330709
11
6.4374447637795278
21
-4.8680931889763777
0
LINE
8
BLACK
6
CONTINUOUS
10
6.4374447637795278
20
-4.8680931889763777
11
6.4369120866141731
21
-4.8686258661417323
0
LINE
8
BLACK
6
CONTINUOUS
10
6.4369120866141731
20
-4.8686258661417323
11
6.4365354330708664
21
-4.8687007874015746
0
LINE
8
BLACK
6
CONTINUOUS
10
6.4365354330708664
20
-4.8687007874015746
11
6.3790551181102364
21
-4.8687007874015746
0
LINE
8
BLACK
6
CONTINUOUS
10
6.3790551181102364
20
-4.8687007874015746
11
6.3786784645669288
21
-4.8686258661417323
0
LINE
8
BLACK
6
CONTINUOUS
10
6.3786784645669288
20
-4.8686258661417323
11
6.378145787401575
21
-4.8680931889763777
0
LINE
8
BLACK
6
CONTINUOUS
10
6.378145787401575
20
-4.8680931889763777
11
6.3780708661417318
21
-4.8677165354330709
0
LINE
8
BLACK
6
CONTINUOUS
10
6.3780708661417318
20
-4.8677165354330709
11
6.3780708661417318
21
-4.7511811023622048
0
LINE
8
BLACK
6
CONTINUOUS
10
6.3780708661417318
20
-4.7511811023622048
11
6.378145787401575
21
-4.7508044488188972
0
LINE
8
BLACK
6
CONTINUOUS
10
6.378145787401575
20
-4.7508044488188972
11
6.3786784645669288
21
-4.7502717716535434
0
LINE
8
BLACK
6
CONTINUOUS
10
6.3786784645669288
20
-4.7502717716535434
11
6.3790551181102364
21
-4.7501968503937011
0
LINE
8
BLACK
6
CONTINUOUS
10
6.3790551181102364
20
-4.7501968503937011
11
6.4365354330708664
21
-4.7501968503937011
0
LINE
8
BLACK
6
CONTINUOUS
10
6.4365354330708664
20
-4.7501968503937011
11
6.4369120866141731
21
-4.7502717716535434
0
LINE
8
BLACK
6
CONTINUOUS
10
6.3800393700787401
20
-4.7521653543307085
11
6.3800393700787401
21
-4.8667322834645672
0
LINE
8
BLACK
6
CONTINUOUS
10
6.3800393700787401
20
-4.8667322834645672
11
6.4355511811023618
21
-4.8667322834645672
0
LINE
8
BLACK
6
CONTINUOUS
10
6.4355511811023618
20
-4.8667322834645672
11
6.4355511811023618
21
-4.7521653543307085
0
LINE
8
BLACK
6
CONTINUOUS
10
6.4355511811023618
20
-4.7521653543307085
11
6.3800393700787401
21
-4.7521653543307085
0
LINE
8
BLACK
6
CONTINUOUS
10
5.4189593307086614
20
-4.2546615354330708
11
5.4194920078740152
21
-4.2551942125984255
0
LINE
8
BLACK
6
CONTINUOUS
10
5.4194920078740152
20
-4.2551942125984255
11
5.4195669291338584
21
-4.2555708661417322
0
LINE
8
BLACK
6
CONTINUOUS
10
5.4195669291338584
20
-4.2555708661417322
11
5.4195669291338584
21
-4.323173228346457
0
LINE
8
BLACK
6
CONTINUOUS
10
5.4195669291338584
20
-4.323173228346457
11
5.4335826771653544
21
-4.323173228346457
0
LINE
8
BLACK
6
CONTINUOUS
10
5.4335826771653544
20
-4.323173228346457
11
5.4335826771653544
21
-4.2618897637795277
0
LINE
8
BLACK
6
CONTINUOUS
10
5.4335826771653544
20
-4.2618897637795277
11
5.4336575984251967
21
-4.26151311023622
0
LINE
8
BLACK
6
CONTINUOUS
10
5.4336575984251967
20
-4.26151311023622
11
5.4341902755905513
21
-4.2609804330708663
0
LINE
8
BLACK
6
CONTINUOUS
10
5.4341902755905513
20
-4.2609804330708663
11
5.4345669291338581
21
-4.2609055118110239
0
LINE
8
BLACK
6
CONTINUOUS
10
5.4345669291338581
20
-4.2609055118110239
11
5.5841732283464562
21
-4.2609055118110239
0
LINE
8
BLACK
6
CONTINUOUS
10
5.5841732283464562
20
-4.2609055118110239
11
5.5845498818897639
21
-4.2609804330708663
0
LINE
8
BLACK
6
CONTINUOUS
10
5.5845498818897639
20
-4.2609804330708663
11
5.5850825590551176
21
-4.26151311023622
0
LINE
8
BLACK
6
CONTINUOUS
10
5.5850825590551176
20
-4.26151311023622
11
5.5851574803149608
21
-4.2618897637795277
0
LINE
8
BLACK
6
CONTINUOUS
10
5.5851574803149608
20
-4.2618897637795277
11
5.5851574803149608
21
-4.323173228346457
0
LINE
8
BLACK
6
CONTINUOUS
10
5.5851574803149608
20
-4.323173228346457
11
5.5918503937007875
21
-4.323173228346457
0
LINE
8
BLACK
6
CONTINUOUS
10
5.5918503937007875
20
-4.323173228346457
11
5.5918503937007875
21
-4.2658267716535434
0
LINE
8
BLACK
6
CONTINUOUS
10
5.5918503937007875
20
-4.2658267716535434
11
5.5919253149606298
21
-4.2654501181102358
0
LINE
8
BLACK
6
CONTINUOUS
10
5.5919253149606298
20
-4.2654501181102358
11
5.5924579921259845
21
-4.264917440944882
0
LINE
8
BLACK
6
CONTINUOUS
10
5.5924579921259845
20
-4.264917440944882
11
5.5928346456692912
21
-4.2648425196850397
0
LINE
8
BLACK
6
CONTINUOUS
10
5.5928346456692912
20
-4.2648425196850397
11
5.6699999999999999
21
-4.2648425196850397
0
LINE
8
BLACK
6
CONTINUOUS
10
5.6699999999999999
20
-4.2648425196850397
11
5.6703766535433067
21
-4.264917440944882
0
LINE
8
BLACK
6
CONTINUOUS
10
5.6703766535433067
20
-4.264917440944882
11
5.6709093307086613
21
-4.2654501181102358
0
LINE
8
BLACK
6
CONTINUOUS
10
5.6709093307086613
20
-4.2654501181102358
11
5.6709842519685036
21
-4.2658267716535434
0
LINE
8
BLACK
6
CONTINUOUS
10
5.6709842519685036
20
-4.2658267716535434
11
5.6709842519685036
21
-4.3996850393700786
0
LINE
8
BLACK
6
CONTINUOUS
10
5.6709842519685036
20
-4.3996850393700786
11
5.6709093307086613
21
-4.4000616929133853
0
LINE
8
BLACK
6
CONTINUOUS
10
5.6709093307086613
20
-4.4000616929133853
11
5.6703766535433067
21
-4.40059437007874
0
LINE
8
BLACK
6
CONTINUOUS
10
5.6703766535433067
20
-4.40059437007874
11
5.6699999999999999
21
-4.4006692913385823
0
LINE
8
BLACK
6
CONTINUOUS
10
5.6699999999999999
20
-4.4006692913385823
11
5.6209685039370081
21
-4.4006692913385823
0
LINE
8
BLACK
6
CONTINUOUS
10
5.6209685039370081
20
-4.4006692913385823
11
5.6209685039370081
21
-4.5094881889763778
0
LINE
8
BLACK
6
CONTINUOUS
10
5.6209685039370081
20
-4.5094881889763778
11
5.6766929133858266
21
-4.5094881889763778
0
LINE
8
BLACK
6
CONTINUOUS
10
5.6766929133858266
20
-4.5094881889763778
11
5.6770695669291333
21
-4.5095631102362201
0
LINE
8
BLACK
6
CONTINUOUS
10
5.6770695669291333
20
-4.5095631102362201
11
5.677602244094488
21
-4.5100957874015748
0
LINE
8
BLACK
6
CONTINUOUS
10
5.677602244094488
20
-4.5100957874015748
11
5.6776771653543303
21
-4.5104724409448815
0
LINE
8
BLACK
6
CONTINUOUS
10
5.6776771653543303
20
-4.5104724409448815
11
5.6776771653543303
21
-4.6270078740157476
0
LINE
8
BLACK
6
CONTINUOUS
10
5.6776771653543303
20
-4.6270078740157476
11
5.677602244094488
21
-4.6273845275590553
0
LINE
8
BLACK
6
CONTINUOUS
10
5.677602244094488
20
-4.6273845275590553
11
5.6770695669291333
21
-4.627917204724409
0
LINE
8
BLACK
6
CONTINUOUS
10
5.6770695669291333
20
-4.627917204724409
11
5.6766929133858266
21
-4.6279921259842522
0
LINE
8
BLACK
6
CONTINUOUS
10
5.6766929133858266
20
-4.6279921259842522
11
5.6209685039370081
21
-4.6279921259842522
0
LINE
8
BLACK
6
CONTINUOUS
10
5.6209685039370081
20
-4.6279921259842522
11
5.6209685039370081
21
-4.6301181102362206
0
LINE
8
BLACK
6
CONTINUOUS
10
5.6209685039370081
20
-4.6301181102362206
11
5.6696062992125986
21
-4.6301181102362206
0
LINE
8
BLACK
6
CONTINUOUS
10
5.6696062992125986
20
-4.6301181102362206
11
5.6699829527559054
21
-4.6301930314960629
0
LINE
8
BLACK
6
CONTINUOUS
10
5.6699829527559054
20
-4.6301930314960629
11
5.67051562992126
21
-4.6307257086614175
0
LINE
8
BLACK
6
CONTINUOUS
10
5.67051562992126
20
-4.6307257086614175
11
5.6705905511811023
21
-4.6311023622047243
0
LINE
8
BLACK
6
CONTINUOUS
10
5.6705905511811023
20
-4.6311023622047243
11
5.6705905511811023
21
-4.7688976377952752
0
LINE
8
BLACK
6
CONTINUOUS
10
5.6705905511811023
20
-4.7688976377952752
11
5.67051562992126
21
-4.7692742913385828
0
LINE
8
BLACK
6
CONTINUOUS
10
5.67051562992126
20
-4.7692742913385828
11
5.6699829527559054
21
-4.7698069685039366
0
LINE
8
BLACK
6
CONTINUOUS
10
5.6699829527559054
20
-4.7698069685039366
11
5.6696062992125986
21
-4.7698818897637798
0
LINE
8
BLACK
6
CONTINUOUS
10
5.6696062992125986
20
-4.7698818897637798
11
5.6209685039370081
21
-4.7698818897637798
0
LINE
8
BLACK
6
CONTINUOUS
10
5.6209685039370081
20
-4.7698818897637798
11
5.6209685039370081
21
-4.8438425196850394
0
LINE
8
BLACK
6
CONTINUOUS
10
5.6209685039370081
20
-4.8438425196850394
11
5.6208935826771649
21
-4.8442191732283462
0
LINE
8
BLACK
6
CONTINUOUS
10
5.6208935826771649
20
-4.8442191732283462
11
5.6203609055118111
21
-4.8447518503937008
0
LINE
8
BLACK
6
CONTINUOUS
10
5.6203609055118111
20
-4.8447518503937008
11
5.6199842519685035
21
-4.8448267716535431
0
LINE
8
BLACK
6
CONTINUOUS
10
5.6199842519685035
20
-4.8448267716535431
11
5.3680157480314961
21
-4.8448267716535431
0
LINE
8
BLACK
6
CONTINUOUS
10
5.3680157480314961
20
-4.8448267716535431
11
5.3676390944881884
21
-4.8447518503937008
0
LINE
8
BLACK
6
CONTINUOUS
10
5.3676390944881884
20
-4.8447518503937008
11
5.3671064173228347
21
-4.8442191732283462
0
LINE
8
BLACK
6
CONTINUOUS
10
5.3671064173228347
20
-4.8442191732283462
11
5.3670314960629923
21
-4.8438425196850394
0
LINE
8
BLACK
6
CONTINUOUS
10
5.3670314960629923
20
-4.8438425196850394
11
5.3670314960629923
21
-4.390413385826772
0
LINE
8
BLACK
6
CONTINUOUS
10
5.3670314960629923
20
-4.390413385826772
11
5.341417322834646
21
-4.390413385826772
0
LINE
8
BLACK
6
CONTINUOUS
10
5.341417322834646
20
-4.390413385826772
11
5.3410406692913384
21
-4.3903384645669288
0
LINE
8
BLACK
6
CONTINUOUS
10
5.3410406692913384
20
-4.3903384645669288
11
5.3405079921259837
21
-4.389805787401575
0
LINE
8
BLACK
6
CONTINUOUS
10
5.3405079921259837
20
-4.389805787401575
11
5.3404330708661414
21
-4.3894291338582674
0
LINE
8
BLACK
6
CONTINUOUS
10
5.3404330708661414
20
-4.3894291338582674
11
5.3404330708661414
21
-4.2555708661417322
0
LINE
8
BLACK
6
CONTINUOUS
10
5.3404330708661414
20
-4.2555708661417322
11
5.3405079921259837
21
-4.2551942125984255
0
LINE
8
BLACK
6
CONTINUOUS
10
5.3405079921259837
20
-4.2551942125984255
11
5.3410406692913384
21
-4.2546615354330708
0
LINE
8
BLACK
6
CONTINUOUS
10
5.3410406692913384
20
-4.2546615354330708
11
5.341417322834646
21
-4.2545866141732285
0
LINE
8
BLACK
6
CONTINUOUS
10
5.341417322834646
20
-4.2545866141732285
11
5.4185826771653538
21
-4.2545866141732285
0
LINE
8
BLACK
6
CONTINUOUS
10
5.4185826771653538
20
-4.2545866141732285
11
5.4189593307086614
21
-4.2546615354330708
0
LINE
8
BLACK
6
CONTINUOUS
10
5.5851574803149608
20
-4.3251417322834644
11
5.5851574803149608
21
-4.4036220472440943
0
LINE
8
BLACK
6
CONTINUOUS
10
5.5851574803149608
20
-4.4036220472440943
11
5.5850825590551176
21
-4.4039987007874011
0
LINE
8
BLACK
6
CONTINUOUS
10
5.5850825590551176
20
-4.4039987007874011
11
5.5845498818897639
21
-4.4045313779527557
0
LINE
8
BLACK
6
CONTINUOUS
10
5.5845498818897639
20
-4.4045313779527557
11
5.5841732283464562
21
-4.4046062992125981
0
LINE
8
BLACK
6
CONTINUOUS
10
5.5841732283464562
20
-4.4046062992125981
11
5.4345669291338581
21
-4.4046062992125981
0
LINE
8
BLACK
6
CONTINUOUS
10
5.4345669291338581
20
-4.4046062992125981
11
5.4341902755905513
21
-4.4045313779527557
0
LINE
8
BLACK
6
CONTINUOUS
10
5.4341902755905513
20
-4.4045313779527557
11
5.4336575984251967
21
-4.4039987007874011
0
LINE
8
BLACK
6
CONTINUOUS
10
5.4336575984251967
20
-4.4039987007874011
11
5.4335826771653544
21
-4.4036220472440943
0
LINE
8
BLACK
6
CONTINUOUS
10
5.4335826771653544
20
-4.4036220472440943
11
5.4335826771653544
21
-4.3251417322834644
0
LINE
8
BLACK
6
CONTINUOUS
10
5.4335826771653544
20
-4.3251417322834644
11
5.4195669291338584
21
-4.3251417322834644
0
LINE
8
BLACK
6
CONTINUOUS
10
5.4195669291338584
20
-4.3251417322834644
11
5.4195669291338584
21
-4.3894291338582674
0
LINE
8
BLACK
6
CONTINUOUS
10
5.4195669291338584
20
-4.3894291338582674
11
5.4194920078740152
21
-4.389805787401575
0
LINE
8
BLACK
6
CONTINUOUS
10
5.4194920078740152
20
-4.389805787401575
11
5.4189593307086614
21
-4.3903384645669288
0
LINE
8
BLACK
6
CONTINUOUS
10
5.4189593307086614
20
-4.3903384645669288
11
5.4185826771653538
21
-4.390413385826772
0
LINE
8
BLACK
6
CONTINUOUS
10
5.4185826771653538
20
-4.390413385826772
11
5.3689999999999998
21
-4.390413385826772
0
LINE
8
BLACK
6
CONTINUOUS
10
5.3689999999999998
20
-4.390413385826772
11
5.3689999999999998
21
-4.8428582677165357
0
LINE
8
BLACK
6
CONTINUOUS
10
5.3689999999999998
20
-4.8428582677165357
11
5.6189999999999998
21
-4.8428582677165357
0
LINE
8
BLACK
6
CONTINUOUS
10
5.6189999999999998
20
-4.8428582677165357
11
5.6189999999999998
21
-4.7698818897637798
0
LINE
8
BLACK
6
CONTINUOUS
10
5.6189999999999998
20
-4.7698818897637798
11
5.602677165354331
21
-4.7698818897637798
0
LINE
8
BLACK
6
CONTINUOUS
10
5.602677165354331
20
-4.7698818897637798
11
5.6023005118110234
21
-4.7698069685039366
0
LINE
8
BLACK
6
CONTINUOUS
10
5.6023005118110234
20
-4.7698069685039366
11
5.6017678346456687
21
-4.7692742913385828
0
LINE
8
BLACK
6
CONTINUOUS
10
5.6017678346456687
20
-4.7692742913385828
11
5.6016929133858264
21
-4.7688976377952752
0
LINE
8
BLACK
6
CONTINUOUS
10
5.6016929133858264
20
-4.7688976377952752
11
5.6016929133858264
21
-4.6311023622047243
0
LINE
8
BLACK
6
CONTINUOUS
10
5.6016929133858264
20
-4.6311023622047243
11
5.6017678346456687
21
-4.6307257086614175
0
LINE
8
BLACK
6
CONTINUOUS
10
5.6017678346456687
20
-4.6307257086614175
11
5.6023005118110234
21
-4.6301930314960629
0
LINE
8
BLACK
6
CONTINUOUS
10
5.6023005118110234
20
-4.6301930314960629
11
5.602677165354331
21
-4.6301181102362206
0
LINE
8
BLACK
6
CONTINUOUS
10
5.602677165354331
20
-4.6301181102362206
11
5.6189999999999998
21
-4.6301181102362206
0
LINE
8
BLACK
6
CONTINUOUS
10
5.6189999999999998
20
-4.6301181102362206
11
5.6189999999999998
21
-4.6279498031496065
0
LINE
8
BLACK
6
CONTINUOUS
10
5.6189999999999998
20
-4.6279498031496065
11
5.6188359448818899
21
-4.627917204724409
0
LINE
8
BLACK
6
CONTINUOUS
10
5.6188359448818899
20
-4.627917204724409
11
5.6183032677165352
21
-4.6273845275590553
0
LINE
8
BLACK
6
CONTINUOUS
10
5.6183032677165352
20
-4.6273845275590553
11
5.6182283464566929
21
-4.6270078740157476
0
LINE
8
BLACK
6
CONTINUOUS
10
5.6182283464566929
20
-4.6270078740157476
11
5.6182283464566929
21
-4.5104724409448815
0
LINE
8
BLACK
6
CONTINUOUS
10
5.6182283464566929
20
-4.5104724409448815
11
5.6183032677165352
21
-4.5100957874015748
0
LINE
8
BLACK
6
CONTINUOUS
10
5.6183032677165352
20
-4.5100957874015748
11
5.6188359448818899
21
-4.5095631102362201
0
LINE
8
BLACK
6
CONTINUOUS
10
5.6188359448818899
20
-4.5095631102362201
11
5.6189999999999998
21
-4.5095304724409448
0
LINE
8
BLACK
6
CONTINUOUS
10
5.6189999999999998
20
-4.5095304724409448
11
5.6189999999999998
21
-4.4006692913385823
0
LINE
8
BLACK
6
CONTINUOUS
10
5.6189999999999998
20
-4.4006692913385823
11
5.5928346456692912
21
-4.4006692913385823
0
LINE
8
BLACK
6
CONTINUOUS
10
5.5928346456692912
20
-4.4006692913385823
11
5.5924579921259845
21
-4.40059437007874
0
LINE
8
BLACK
6
CONTINUOUS
10
5.5924579921259845
20
-4.40059437007874
11
5.5919253149606298
21
-4.4000616929133853
0
LINE
8
BLACK
6
CONTINUOUS
10
5.5919253149606298
20
-4.4000616929133853
11
5.5918503937007875
21
-4.3996850393700786
0
LINE
8
BLACK
6
CONTINUOUS
10
5.5918503937007875
20
-4.3996850393700786
11
5.5918503937007875
21
-4.3251417322834644
0
LINE
8
BLACK
6
CONTINUOUS
10
5.5918503937007875
20
-4.3251417322834644
11
5.5851574803149608
21
-4.3251417322834644
0
LINE
8
BLACK
6
CONTINUOUS
10
5.6036614173228347
20
-4.632086614173228
11
5.6036614173228347
21
-4.7679133858267715
0
LINE
8
BLACK
6
CONTINUOUS
10
5.6036614173228347
20
-4.7679133858267715
11
5.6189999999999998
21
-4.7679133858267715
0
LINE
8
BLACK
6
CONTINUOUS
10
5.6189999999999998
20
-4.7679133858267715
11
5.6189999999999998
21
-4.632086614173228
0
LINE
8
BLACK
6
CONTINUOUS
10
5.6189999999999998
20
-4.632086614173228
11
5.6036614173228347
21
-4.632086614173228
0
LINE
8
BLACK
6
CONTINUOUS
10
5.6209685039370081
20
-4.632086614173228
11
5.6209685039370081
21
-4.7679133858267715
0
LINE
8
BLACK
6
CONTINUOUS
10
5.6209685039370081
20
-4.7679133858267715
11
5.668622047244094
21
-4.7679133858267715
0
LINE
8
BLACK
6
CONTINUOUS
10
5.668622047244094
20
-4.7679133858267715
11
5.668622047244094
21
-4.632086614173228
0
LINE
8
BLACK
6
CONTINUOUS
10
5.668622047244094
20
-4.632086614173228
11
5.6209685039370081
21
-4.632086614173228
0
LINE
8
BLACK
6
CONTINUOUS
10
5.6209685039370081
20
-4.5114566929133861
11
5.6209685039370081
21
-4.6260236220472439
0
LINE
8
BLACK
6
CONTINUOUS
10
5.6209685039370081
20
-4.6260236220472439
11
5.6757086614173229
21
-4.6260236220472439
0
LINE
8
BLACK
6
CONTINUOUS
10
5.6757086614173229
20
-4.6260236220472439
11
5.6757086614173229
21
-4.5114566929133861
0
LINE
8
BLACK
6
CONTINUOUS
10
5.6757086614173229
20
-4.5114566929133861
11
5.6209685039370081
21
-4.5114566929133861
0
LINE
8
BLACK
6
CONTINUOUS
10
5.4355511811023618
20
-4.3251417322834644
11
5.4355511811023618
21
-4.4026377952755906
0
LINE
8
BLACK
6
CONTINUOUS
10
5.4355511811023618
20
-4.4026377952755906
11
5.5831889763779525
21
-4.4026377952755906
0
LINE
8
BLACK
6
CONTINUOUS
10
5.5831889763779525
20
-4.4026377952755906
11
5.5831889763779525
21
-4.3251417322834644
0
LINE
8
BLACK
6
CONTINUOUS
10
5.5831889763779525
20
-4.3251417322834644
11
5.4355511811023618
21
-4.3251417322834644
0
LINE
8
BLACK
6
CONTINUOUS
10
5.5938188976377949
20
-4.3251417322834644
11
5.5938188976377949
21
-4.3987007874015749
0
LINE
8
BLACK
6
CONTINUOUS
10
5.5938188976377949
20
-4.3987007874015749
11
5.6189999999999998
21
-4.3987007874015749
0
LINE
8
BLACK
6
CONTINUOUS
10
5.6189999999999998
20
-4.3987007874015749
11
5.6189999999999998
21
-4.3251417322834644
0
LINE
8
BLACK
6
CONTINUOUS
10
5.6189999999999998
20
-4.3251417322834644
11
5.5938188976377949
21
-4.3251417322834644
0
LINE
8
BLACK
6
CONTINUOUS
10
5.5938188976377949
20
-4.2668110236220471
11
5.5938188976377949
21
-4.323173228346457
0
LINE
8
BLACK
6
CONTINUOUS
10
5.5938188976377949
20
-4.323173228346457
11
5.6199842519685035
21
-4.323173228346457
0
LINE
8
BLACK
6
CONTINUOUS
10
5.6199842519685035
20
-4.323173228346457
11
5.6203609055118111
21
-4.3232481496062993
0
LINE
8
BLACK
6
CONTINUOUS
10
5.6203609055118111
20
-4.3232481496062993
11
5.6208935826771649
21
-4.3237808267716531
0
LINE
8
BLACK
6
CONTINUOUS
10
5.6208935826771649
20
-4.3237808267716531
11
5.6209685039370081
21
-4.3241574803149607
0
LINE
8
BLACK
6
CONTINUOUS
10
5.6209685039370081
20
-4.3241574803149607
11
5.6209685039370081
21
-4.3987007874015749
0
LINE
8
BLACK
6
CONTINUOUS
10
5.6209685039370081
20
-4.3987007874015749
11
5.6690157480314962
21
-4.3987007874015749
0
LINE
8
BLACK
6
CONTINUOUS
10
5.6690157480314962
20
-4.3987007874015749
11
5.6690157480314962
21
-4.2668110236220471
0
LINE
8
BLACK
6
CONTINUOUS
10
5.6690157480314962
20
-4.2668110236220471
11
5.5938188976377949
21
-4.2668110236220471
0
LINE
8
BLACK
6
CONTINUOUS
10
5.3424015748031497
20
-4.2565551181102359
11
5.3424015748031497
21
-4.3884448818897637
0
LINE
8
BLACK
6
CONTINUOUS
10
5.3424015748031497
20
-4.3884448818897637
11
5.3670314960629923
21
-4.3884448818897637
0
LINE
8
BLACK
6
CONTINUOUS
10
5.3670314960629923
20
-4.3884448818897637
11
5.3670314960629923
21
-4.3241574803149607
0
LINE
8
BLACK
6
CONTINUOUS
10
5.3670314960629923
20
-4.3241574803149607
11
5.3671064173228347
21
-4.3237808267716531
0
LINE
8
BLACK
6
CONTINUOUS
10
5.3671064173228347
20
-4.3237808267716531
11
5.3676390944881884
21
-4.3232481496062993
0
LINE
8
BLACK
6
CONTINUOUS
10
5.3676390944881884
20
-4.3232481496062993
11
5.3680157480314961
21
-4.323173228346457
0
LINE
8
BLACK
6
CONTINUOUS
10
5.3680157480314961
20
-4.323173228346457
11
5.4175984251968501
21
-4.323173228346457
0
LINE
8
BLACK
6
CONTINUOUS
10
5.4175984251968501
20
-4.323173228346457
11
5.4175984251968501
21
-4.2565551181102359
0
LINE
8
BLACK
6
CONTINUOUS
10
5.4175984251968501
20
-4.2565551181102359
11
5.3424015748031497
21
-4.2565551181102359
0
LINE
8
BLACK
6
CONTINUOUS
10
5.3689999999999998
20
-4.3251417322834644
11
5.3689999999999998
21
-4.3884448818897637
0
LINE
8
BLACK
6
CONTINUOUS
10
5.3689999999999998
20
-4.3884448818897637
11
5.4175984251968501
21
-4.3884448818897637
0
LINE
8
BLACK
6
CONTINUOUS
10
5.4175984251968501
20
-4.3884448818897637
11
5.4175984251968501
21
-4.3251417322834644
0
LINE
8
BLACK
6
CONTINUOUS
10
5.4175984251968501
20
-4.3251417322834644
11
5.3689999999999998
21
-4.3251417322834644
0
LINE
8
BLACK
6
CONTINUOUS
10
5.4355511811023618
20
-4.2628740157480314
11
5.4355511811023618
21
-4.323173228346457
0
LINE
8
BLACK
6
CONTINUOUS
10
5.4355511811023618
20
-4.323173228346457
11
5.5831889763779525
21
-4.323173228346457
0
LINE
8
BLACK
6
CONTINUOUS
10
5.5831889763779525
20
-4.323173228346457
11
5.5831889763779525
21
-4.2628740157480314
0
LINE
8
BLACK
6
CONTINUOUS
10
5.5831889763779525
20
-4.2628740157480314
11
5.4355511811023618
21
-4.2628740157480314
0
LINE
8
BLACK
6
CONTINUOUS
10
6.1662427952755907
20
-4.7635001181102359
11
6.1667754724409445
21
-4.7640327952755905
0
LINE
8
BLACK
6
CONTINUOUS
10
6.1667754724409445
20
-4.7640327952755905
11
6.1668503937007877
21
-4.7644094488188973
0
LINE
8
BLACK
6
CONTINUOUS
10
6.1668503937007877
20
-4.7644094488188973
11
6.1668503937007877
21
-4.8218897637795273
0
LINE
8
BLACK
6
CONTINUOUS
10
6.1668503937007877
20
-4.8218897637795273
11
6.1667754724409445
21
-4.8222664173228349
0
LINE
8
BLACK
6
CONTINUOUS
10
6.1667754724409445
20
-4.8222664173228349
11
6.1662427952755907
21
-4.8227990944881887
0
LINE
8
BLACK
6
CONTINUOUS
10
6.1662427952755907
20
-4.8227990944881887
11
6.1658661417322831
21
-4.822874015748031
0
LINE
8
BLACK
6
CONTINUOUS
10
6.1658661417322831
20
-4.822874015748031
11
6.049330708661417
21
-4.822874015748031
0
LINE
8
BLACK
6
CONTINUOUS
10
6.049330708661417
20
-4.822874015748031
11
6.0489540551181102
21
-4.8227990944881887
0
LINE
8
BLACK
6
CONTINUOUS
10
6.0489540551181102
20
-4.8227990944881887
11
6.0484213779527556
21
-4.8222664173228349
0
LINE
8
BLACK
6
CONTINUOUS
10
6.0484213779527556
20
-4.8222664173228349
11
6.0483464566929133
21
-4.8218897637795273
0
LINE
8
BLACK
6
CONTINUOUS
10
6.0483464566929133
20
-4.8218897637795273
11
6.0483464566929133
21
-4.7644094488188973
0
LINE
8
BLACK
6
CONTINUOUS
10
6.0483464566929133
20
-4.7644094488188973
11
6.0484213779527556
21
-4.7640327952755905
0
LINE
8
BLACK
6
CONTINUOUS
10
6.0484213779527556
20
-4.7640327952755905
11
6.0489540551181102
21
-4.7635001181102359
0
LINE
8
BLACK
6
CONTINUOUS
10
6.0489540551181102
20
-4.7635001181102359
11
6.049330708661417
21
-4.7634251968503936
0
LINE
8
BLACK
6
CONTINUOUS
10
6.049330708661417
20
-4.7634251968503936
11
6.1658661417322831
21
-4.7634251968503936
0
LINE
8
BLACK
6
CONTINUOUS
10
6.1658661417322831
20
-4.7634251968503936
11
6.1662427952755907
21
-4.7635001181102359
0
LINE
8
BLACK
6
CONTINUOUS
10
6.0503149606299207
20
-4.7653937007874019
11
6.0503149606299207
21
-4.8209055118110236
0
LINE
8
BLACK
6
CONTINUOUS
10
6.0503149606299207
20
-4.8209055118110236
11
6.1648818897637794
21
-4.8209055118110236
0
LINE
8
BLACK
6
CONTINUOUS
10
6.1648818897637794
20
-4.8209055118110236
11
6.1648818897637794
21
-4.7653937007874019
0
LINE
8
BLACK
6
CONTINUOUS
10
6.1648818897637794
20
-4.7653937007874019
11
6.0503149606299207
21
-4.7653937007874019
0
LINE
8
BLACK
6
CONTINUOUS
10
6.2400616929133861
20
-4.6827914566929136
11
6.2405943700787398
21
-4.6833241338582674
0
LINE
8
BLACK
6
CONTINUOUS
10
6.2405943700787398
20
-4.6833241338582674
11
6.2406692913385822
21
-4.683700787401575
0
LINE
8
BLACK
6
CONTINUOUS
10
6.2406692913385822
20
-4.683700787401575
11
6.2406692913385822
21
-4.8002362204724411
0
LINE
8
BLACK
6
CONTINUOUS
10
6.2406692913385822
20
-4.8002362204724411
11
6.2405943700787398
21
-4.8006128740157479
0
LINE
8
BLACK
6
CONTINUOUS
10
6.2405943700787398
20
-4.8006128740157479
11
6.2400616929133861
21
-4.8011455511811025
0
LINE
8
BLACK
6
CONTINUOUS
10
6.2400616929133861
20
-4.8011455511811025
11
6.2396850393700785
21
-4.8012204724409449
0
LINE
8
BLACK
6
CONTINUOUS
10
6.2396850393700785
20
-4.8012204724409449
11
6.1822047244094485
21
-4.8012204724409449
0
LINE
8
BLACK
6
CONTINUOUS
10
6.1822047244094485
20
-4.8012204724409449
11
6.1818280708661417
21
-4.8011455511811025
0
LINE
8
BLACK
6
CONTINUOUS
10
6.1818280708661417
20
-4.8011455511811025
11
6.1812953937007871
21
-4.8006128740157479
0
LINE
8
BLACK
6
CONTINUOUS
10
6.1812953937007871
20
-4.8006128740157479
11
6.1812204724409447
21
-4.8002362204724411
0
LINE
8
BLACK
6
CONTINUOUS
10
6.1812204724409447
20
-4.8002362204724411
11
6.1812204724409447
21
-4.683700787401575
0
LINE
8
BLACK
6
CONTINUOUS
10
6.1812204724409447
20
-4.683700787401575
11
6.1812953937007871
21
-4.6833241338582674
0
LINE
8
BLACK
6
CONTINUOUS
10
6.1812953937007871
20
-4.6833241338582674
11
6.1818280708661417
21
-4.6827914566929136
0
LINE
8
BLACK
6
CONTINUOUS
10
6.1818280708661417
20
-4.6827914566929136
11
6.1822047244094485
21
-4.6827165354330704
0
LINE
8
BLACK
6
CONTINUOUS
10
6.1822047244094485
20
-4.6827165354330704
11
6.2396850393700785
21
-4.6827165354330704
0
LINE
8
BLACK
6
CONTINUOUS
10
6.2396850393700785
20
-4.6827165354330704
11
6.2400616929133861
21
-4.6827914566929136
0
LINE
8
BLACK
6
CONTINUOUS
10
6.1831889763779522
20
-4.6846850393700787
11
6.1831889763779522
21
-4.7992519685039365
0
LINE
8
BLACK
6
CONTINUOUS
10
6.1831889763779522
20
-4.7992519685039365
11
6.2387007874015747
21
-4.7992519685039365
0
LINE
8
BLACK
6
CONTINUOUS
10
6.2387007874015747
20
-4.7992519685039365
11
6.2387007874015747
21
-4.6846850393700787
0
LINE
8
BLACK
6
CONTINUOUS
10
6.2387007874015747
20
-4.6846850393700787
11
6.1831889763779522
21
-4.6846850393700787
0
LINE
8
BLACK
6
CONTINUOUS
10
6.3463609055118111
20
-4.7540512992125983
11
6.3468935826771649
21
-4.7545839763779529
0
LINE
8
BLACK
6
CONTINUOUS
10
6.3468935826771649
20
-4.7545839763779529
11
6.3469685039370081
21
-4.7549606299212597
0
LINE
8
BLACK
6
CONTINUOUS
10
6.3469685039370081
20
-4.7549606299212597
11
6.3469685039370081
21
-4.7919685039370075
0
LINE
8
BLACK
6
CONTINUOUS
10
6.3469685039370081
20
-4.7919685039370075
11
6.3468935826771649
21
-4.7923451574803151
0
LINE
8
BLACK
6
CONTINUOUS
10
6.3468935826771649
20
-4.7923451574803151
11
6.3463609055118111
21
-4.7928778346456689
0
LINE
8
BLACK
6
CONTINUOUS
10
6.3463609055118111
20
-4.7928778346456689
11
6.3459842519685035
21
-4.7929527559055121
0
LINE
8
BLACK
6
CONTINUOUS
10
6.3459842519685035
20
-4.7929527559055121
11
6.2727559055118105
21
-4.7929527559055121
0
LINE
8
BLACK
6
CONTINUOUS
10
6.2727559055118105
20
-4.7929527559055121
11
6.2723792519685038
21
-4.7928778346456689
0
LINE
8
BLACK
6
CONTINUOUS
10
6.2723792519685038
20
-4.7928778346456689
11
6.2718465748031491
21
-4.7923451574803151
0
LINE
8
BLACK
6
CONTINUOUS
10
6.2718465748031491
20
-4.7923451574803151
11
6.2717716535433068
21
-4.7919685039370075
0
LINE
8
BLACK
6
CONTINUOUS
10
6.2717716535433068
20
-4.7919685039370075
11
6.2717716535433068
21
-4.7549606299212597
0
LINE
8
BLACK
6
CONTINUOUS
10
6.2717716535433068
20
-4.7549606299212597
11
6.2718465748031491
21
-4.7545839763779529
0
LINE
8
BLACK
6
CONTINUOUS
10
6.2718465748031491
20
-4.7545839763779529
11
6.2723792519685038
21
-4.7540512992125983
0
LINE
8
BLACK
6
CONTINUOUS
10
6.2723792519685038
20
-4.7540512992125983
11
6.2727559055118105
21
-4.753976377952756
0
LINE
8
BLACK
6
CONTINUOUS
10
6.2727559055118105
20
-4.753976377952756
11
6.3459842519685035
21
-4.753976377952756
0
LINE
8
BLACK
6
CONTINUOUS
10
6.3459842519685035
20
-4.753976377952756
11
6.3463609055118111
21
-4.7540512992125983
0
LINE
8
BLACK
6
CONTINUOUS
10
6.2737401574803151
20
-4.7559448818897634
11
6.2737401574803151
21
-4.7909842519685037
0
LINE
8
BLACK
6
CONTINUOUS
10
6.2737401574803151
20
-4.7909842519685037
11
6.3449999999999998
21
-4.7909842519685037
0
LINE
8
BLACK
6
CONTINUOUS
10
6.3449999999999998
20
-4.7909842519685037
11
6.3449999999999998
21
-4.7559448818897634
0
LINE
8
BLACK
6
CONTINUOUS
10
6.3449999999999998
20
-4.7559448818897634
11
6.2737401574803151
21
-4.7559448818897634
0
LINE
8
BLACK
6
CONTINUOUS
10
6.6491168110236218
20
-4.6608229527559057
11
6.6496494881889765
21
-4.6613556299212595
0
LINE
8
BLACK
6
CONTINUOUS
10
6.6496494881889765
20
-4.6613556299212595
11
6.6497244094488188
21
-4.6617322834645671
0
LINE
8
BLACK
6
CONTINUOUS
10
6.6497244094488188
20
-4.6617322834645671
11
6.6497244094488188
21
-4.7782677165354333
0
LINE
8
BLACK
6
CONTINUOUS
10
6.6497244094488188
20
-4.7782677165354333
11
6.6496494881889765
21
-4.77864437007874
0
LINE
8
BLACK
6
CONTINUOUS
10
6.6496494881889765
20
-4.77864437007874
11
6.6491168110236218
21
-4.7791770472440946
0
LINE
8
BLACK
6
CONTINUOUS
10
6.6491168110236218
20
-4.7791770472440946
11
6.6487401574803151
21
-4.779251968503937
0
LINE
8
BLACK
6
CONTINUOUS
10
6.6487401574803151
20
-4.779251968503937
11
6.5912598425196851
21
-4.779251968503937
0
LINE
8
BLACK
6
CONTINUOUS
10
6.5912598425196851
20
-4.779251968503937
11
6.5908831889763775
21
-4.7791770472440946
0
LINE
8
BLACK
6
CONTINUOUS
10
6.5908831889763775
20
-4.7791770472440946
11
6.5903505118110237
21
-4.77864437007874
0
LINE
8
BLACK
6
CONTINUOUS
10
6.5903505118110237
20
-4.77864437007874
11
6.5902755905511814
21
-4.7782677165354333
0
LINE
8
BLACK
6
CONTINUOUS
10
6.5902755905511814
20
-4.7782677165354333
11
6.5902755905511814
21
-4.6617322834645671
0
LINE
8
BLACK
6
CONTINUOUS
10
6.5902755905511814
20
-4.6617322834645671
11
6.5903505118110237
21
-4.6613556299212595
0
LINE
8
BLACK
6
CONTINUOUS
10
6.5903505118110237
20
-4.6613556299212595
11
6.5908831889763775
21
-4.6608229527559057
0
LINE
8
BLACK
6
CONTINUOUS
10
6.5908831889763775
20
-4.6608229527559057
11
6.5912598425196851
21
-4.6607480314960625
0
LINE
8
BLACK
6
CONTINUOUS
10
6.5912598425196851
20
-4.6607480314960625
11
6.6487401574803151
21
-4.6607480314960625
0
LINE
8
BLACK
6
CONTINUOUS
10
6.6487401574803151
20
-4.6607480314960625
11
6.6491168110236218
21
-4.6608229527559057
0
LINE
8
BLACK
6
CONTINUOUS
10
6.5922440944881888
20
-4.6627165354330709
11
6.5922440944881888
21
-4.7772834645669287
0
LINE
8
BLACK
6
CONTINUOUS
10
6.5922440944881888
20
-4.7772834645669287
11
6.6477559055118105
21
-4.7772834645669287
0
LINE
8
BLACK
6
CONTINUOUS
10
6.6477559055118105
20
-4.7772834645669287
11
6.6477559055118105
21
-4.6627165354330709
0
LINE
8
BLACK
6
CONTINUOUS
10
6.6477559055118105
20
-4.6627165354330709
11
6.5922440944881888
21
-4.6627165354330709
0
LINE
8
BLACK
6
CONTINUOUS
10
5.7400616929133861
20
-4.6552324015748034
11
5.7405943700787398
21
-4.6557650787401572
0
LINE
8
BLACK
6
CONTINUOUS
10
5.7405943700787398
20
-4.6557650787401572
11
5.7406692913385822
21
-4.6561417322834648
0
LINE
8
BLACK
6
CONTINUOUS
10
5.7406692913385822
20
-4.6561417322834648
11
5.7406692913385822
21
-4.772677165354331
0
LINE
8
BLACK
6
CONTINUOUS
10
5.7406692913385822
20
-4.772677165354331
11
5.7405943700787398
21
-4.7730538188976377
0
LINE
8
BLACK
6
CONTINUOUS
10
5.7405943700787398
20
-4.7730538188976377
11
5.7400616929133861
21
-4.7735864960629923
0
LINE
8
BLACK
6
CONTINUOUS
10
5.7400616929133861
20
-4.7735864960629923
11
5.7396850393700785
21
-4.7736614173228347
0
LINE
8
BLACK
6
CONTINUOUS
10
5.7396850393700785
20
-4.7736614173228347
11
5.6822047244094485
21
-4.7736614173228347
0
LINE
8
BLACK
6
CONTINUOUS
10
5.6822047244094485
20
-4.7736614173228347
11
5.6818280708661417
21
-4.7735864960629923
0
LINE
8
BLACK
6
CONTINUOUS
10
5.6818280708661417
20
-4.7735864960629923
11
5.6812953937007871
21
-4.7730538188976377
0
LINE
8
BLACK
6
CONTINUOUS
10
5.6812953937007871
20
-4.7730538188976377
11
5.6812204724409447
21
-4.772677165354331
0
LINE
8
BLACK
6
CONTINUOUS
10
5.6812204724409447
20
-4.772677165354331
11
5.6812204724409447
21
-4.6561417322834648
0
LINE
8
BLACK
6
CONTINUOUS
10
5.6812204724409447
20
-4.6561417322834648
11
5.6812953937007871
21
-4.6557650787401572
0
LINE
8
BLACK
6
CONTINUOUS
10
5.6812953937007871
20
-4.6557650787401572
11
5.6818280708661417
21
-4.6552324015748034
0
LINE
8
BLACK
6
CONTINUOUS
10
5.6818280708661417
20
-4.6552324015748034
11
5.6822047244094485
21
-4.6551574803149602
0
LINE
8
BLACK
6
CONTINUOUS
10
5.6822047244094485
20
-4.6551574803149602
11
5.7396850393700785
21
-4.6551574803149602
0
LINE
8
BLACK
6
CONTINUOUS
10
5.7396850393700785
20
-4.6551574803149602
11
5.7400616929133861
21
-4.6552324015748034
0
LINE
8
BLACK
6
CONTINUOUS
10
5.6831889763779531
20
-4.6571259842519686
11
5.6831889763779531
21
-4.7716929133858264
0
LINE
8
BLACK
6
CONTINUOUS
10
5.6831889763779531
20
-4.7716929133858264
11
5.7387007874015747
21
-4.7716929133858264
0
LINE
8
BLACK
6
CONTINUOUS
10
5.7387007874015747
20
-4.7716929133858264
11
5.7387007874015747
21
-4.6571259842519686
0
LINE
8
BLACK
6
CONTINUOUS
10
5.7387007874015747
20
-4.6571259842519686
11
5.6831889763779531
21
-4.6571259842519686
0
LINE
8
BLACK
6
CONTINUOUS
10
6.1707703543307089
20
-4.6808229527559053
11
6.1713030314960626
21
-4.68135562992126
0
LINE
8
BLACK
6
CONTINUOUS
10
6.1713030314960626
20
-4.68135562992126
11
6.1713779527559049
21
-4.6817322834645667
0
LINE
8
BLACK
6
CONTINUOUS
10
6.1713779527559049
20
-4.6817322834645667
11
6.1713779527559049
21
-4.7549606299212597
0
LINE
8
BLACK
6
CONTINUOUS
10
6.1713779527559049
20
-4.7549606299212597
11
6.1713030314960626
21
-4.7553372834645664
0
LINE
8
BLACK
6
CONTINUOUS
10
6.1713030314960626
20
-4.7553372834645664
11
6.1707703543307089
21
-4.7558699606299211
0
LINE
8
BLACK
6
CONTINUOUS
10
6.1707703543307089
20
-4.7558699606299211
11
6.1703937007874012
21
-4.7559448818897634
0
LINE
8
BLACK
6
CONTINUOUS
10
6.1703937007874012
20
-4.7559448818897634
11
6.1333858267716534
21
-4.7559448818897634
0
LINE
8
BLACK
6
CONTINUOUS
10
6.1333858267716534
20
-4.7559448818897634
11
6.1330091732283467
21
-4.7558699606299211
0
LINE
8
BLACK
6
CONTINUOUS
10
6.1330091732283467
20
-4.7558699606299211
11
6.1324764960629921
21
-4.7553372834645664
0
LINE
8
BLACK
6
CONTINUOUS
10
6.1324764960629921
20
-4.7553372834645664
11
6.1324015748031497
21
-4.7549606299212597
0
LINE
8
BLACK
6
CONTINUOUS
10
6.1324015748031497
20
-4.7549606299212597
11
6.1324015748031497
21
-4.6817322834645667
0
LINE
8
BLACK
6
CONTINUOUS
10
6.1324015748031497
20
-4.6817322834645667
11
6.1324764960629921
21
-4.68135562992126
0
LINE
8
BLACK
6
CONTINUOUS
10
6.1324764960629921
20
-4.68135562992126
11
6.1330091732283467
21
-4.6808229527559053
0
LINE
8
BLACK
6
CONTINUOUS
10
6.1330091732283467
20
-4.6808229527559053
11
6.1333858267716534
21
-4.680748031496063
0
LINE
8
BLACK
6
CONTINUOUS
10
6.1333858267716534
20
-4.680748031496063
11
6.1703937007874012
21
-4.680748031496063
0
LINE
8
BLACK
6
CONTINUOUS
10
6.1703937007874012
20
-4.680748031496063
11
6.1707703543307089
21
-4.6808229527559053
0
LINE
8
BLACK
6
CONTINUOUS
10
6.1343700787401572
20
-4.6827165354330704
11
6.1343700787401572
21
-4.753976377952756
0
LINE
8
BLACK
6
CONTINUOUS
10
6.1343700787401572
20
-4.753976377952756
11
6.1694094488188975
21
-4.753976377952756
0
LINE
8
BLACK
6
CONTINUOUS
10
6.1694094488188975
20
-4.753976377952756
11
6.1694094488188975
21
-4.6827165354330704
0
LINE
8
BLACK
6
CONTINUOUS
10
6.1694094488188975
20
-4.6827165354330704
11
6.1343700787401572
21
-4.6827165354330704
0
LINE
8
BLACK
6
CONTINUOUS
10
6.5628805905511811
20
-4.6624764960629923
11
6.5634132677165349
21
-4.6630091732283461
0
LINE
8
BLACK
6
CONTINUOUS
10
6.5634132677165349
20
-4.6630091732283461
11
6.5634881889763781
21
-4.6633858267716537
0
LINE
8
BLACK
6
CONTINUOUS
10
6.5634881889763781
20
-4.6633858267716537
11
6.5634881889763781
21
-4.7366141732283467
0
LINE
8
BLACK
6
CONTINUOUS
10
6.5634881889763781
20
-4.7366141732283467
11
6.5634132677165349
21
-4.7369908267716534
0
LINE
8
BLACK
6
CONTINUOUS
10
6.5634132677165349
20
-4.7369908267716534
11
6.5628805905511811
21
-4.7375235039370081
0
LINE
8
BLACK
6
CONTINUOUS
10
6.5628805905511811
20
-4.7375235039370081
11
6.5625039370078735
21
-4.7375984251968504
0
LINE
8
BLACK
6
CONTINUOUS
10
6.5625039370078735
20
-4.7375984251968504
11
6.5254960629921257
21
-4.7375984251968504
0
LINE
8
BLACK
6
CONTINUOUS
10
6.5254960629921257
20
-4.7375984251968504
11
6.525119409448819
21
-4.7375235039370081
0
LINE
8
BLACK
6
CONTINUOUS
10
6.525119409448819
20
-4.7375235039370081
11
6.5245867322834643
21
-4.7369908267716534
0
LINE
8
BLACK
6
CONTINUOUS
10
6.5245867322834643
20
-4.7369908267716534
11
6.524511811023622
21
-4.7366141732283467
0
LINE
8
BLACK
6
CONTINUOUS
10
6.524511811023622
20
-4.7366141732283467
11
6.524511811023622
21
-4.6633858267716537
0
LINE
8
BLACK
6
CONTINUOUS
10
6.524511811023622
20
-4.6633858267716537
11
6.5245867322834643
21
-4.6630091732283461
0
LINE
8
BLACK
6
CONTINUOUS
10
6.5245867322834643
20
-4.6630091732283461
11
6.525119409448819
21
-4.6624764960629923
0
LINE
8
BLACK
6
CONTINUOUS
10
6.525119409448819
20
-4.6624764960629923
11
6.5254960629921257
21
-4.6624015748031491
0
LINE
8
BLACK
6
CONTINUOUS
10
6.5254960629921257
20
-4.6624015748031491
11
6.5625039370078735
21
-4.6624015748031491
0
LINE
8
BLACK
6
CONTINUOUS
10
6.5625039370078735
20
-4.6624015748031491
11
6.5628805905511811
21
-4.6624764960629923
0
LINE
8
BLACK
6
CONTINUOUS
10
6.5264803149606294
20
-4.6643700787401574
11
6.5264803149606294
21
-4.7356299212598421
0
LINE
8
BLACK
6
CONTINUOUS
10
6.5264803149606294
20
-4.7356299212598421
11
6.5615196850393698
21
-4.7356299212598421
0
LINE
8
BLACK
6
CONTINUOUS
10
6.5615196850393698
20
-4.7356299212598421
11
6.5615196850393698
21
-4.6643700787401574
0
LINE
8
BLACK
6
CONTINUOUS
10
6.5615196850393698
20
-4.6643700787401574
11
6.5264803149606294
21
-4.6643700787401574
0
LINE
8
BLACK
6
CONTINUOUS
10
6.3680144488188972
20
-4.6768859448818896
11
6.3685471259842519
21
-4.6774186220472442
0
LINE
8
BLACK
6
CONTINUOUS
10
6.3685471259842519
20
-4.6774186220472442
11
6.3686220472440942
21
-4.677795275590551
0
LINE
8
BLACK
6
CONTINUOUS
10
6.3686220472440942
20
-4.677795275590551
11
6.3686220472440942
21
-4.735275590551181
0
LINE
8
BLACK
6
CONTINUOUS
10
6.3686220472440942
20
-4.735275590551181
11
6.3685471259842519
21
-4.7356522440944877
0
LINE
8
BLACK
6
CONTINUOUS
10
6.3685471259842519
20
-4.7356522440944877
11
6.3680144488188972
21
-4.7361849212598424
0
LINE
8
BLACK
6
CONTINUOUS
10
6.3680144488188972
20
-4.7361849212598424
11
6.3676377952755905
21
-4.7362598425196847
0
LINE
8
BLACK
6
CONTINUOUS
10
6.3676377952755905
20
-4.7362598425196847
11
6.2511023622047244
21
-4.7362598425196847
0
LINE
8
BLACK
6
CONTINUOUS
10
6.2511023622047244
20
-4.7362598425196847
11
6.2507257086614167
21
-4.7361849212598424
0
LINE
8
BLACK
6
CONTINUOUS
10
6.2507257086614167
20
-4.7361849212598424
11
6.250193031496063
21
-4.7356522440944877
0
LINE
8
BLACK
6
CONTINUOUS
10
6.250193031496063
20
-4.7356522440944877
11
6.2501181102362207
21
-4.735275590551181
0
LINE
8
BLACK
6
CONTINUOUS
10
6.2501181102362207
20
-4.735275590551181
11
6.2501181102362207
21
-4.677795275590551
0
LINE
8
BLACK
6
CONTINUOUS
10
6.2501181102362207
20
-4.677795275590551
11
6.250193031496063
21
-4.6774186220472442
0
LINE
8
BLACK
6
CONTINUOUS
10
6.250193031496063
20
-4.6774186220472442
11
6.2507257086614167
21
-4.6768859448818896
0
LINE
8
BLACK
6
CONTINUOUS
10
6.2507257086614167
20
-4.6768859448818896
11
6.2511023622047244
21
-4.6768110236220473
0
LINE
8
BLACK
6
CONTINUOUS
10
6.2511023622047244
20
-4.6768110236220473
11
6.3676377952755905
21
-4.6768110236220473
0
LINE
8
BLACK
6
CONTINUOUS
10
6.3676377952755905
20
-4.6768110236220473
11
6.3680144488188972
21
-4.6768859448818896
0
LINE
8
BLACK
6
CONTINUOUS
10
6.2520866141732281
20
-4.6787795275590547
11
6.2520866141732281
21
-4.7342913385826773
0
LINE
8
BLACK
6
CONTINUOUS
10
6.2520866141732281
20
-4.7342913385826773
11
6.3666535433070868
21
-4.7342913385826773
0
LINE
8
BLACK
6
CONTINUOUS
10
6.3666535433070868
20
-4.7342913385826773
11
6.3666535433070868
21
-4.6787795275590547
0
LINE
8
BLACK
6
CONTINUOUS
10
6.3666535433070868
20
-4.6787795275590547
11
6.2520866141732281
21
-4.6787795275590547
0
LINE
8
BLACK
6
CONTINUOUS
10
6.5050931889763781
20
-4.6763505118110231
11
6.5056258661417319
21
-4.6768831889763778
0
LINE
8
BLACK
6
CONTINUOUS
10
6.5056258661417319
20
-4.6768831889763778
11
6.5057007874015751
21
-4.6772598425196845
0
LINE
8
BLACK
6
CONTINUOUS
10
6.5057007874015751
20
-4.6772598425196845
11
6.5057007874015751
21
-4.7347401574803145
0
LINE
8
BLACK
6
CONTINUOUS
10
6.5057007874015751
20
-4.7347401574803145
11
6.5056258661417319
21
-4.7351168110236221
0
LINE
8
BLACK
6
CONTINUOUS
10
6.5056258661417319
20
-4.7351168110236221
11
6.5050931889763781
21
-4.7356494881889759
0
LINE
8
BLACK
6
CONTINUOUS
10
6.5050931889763781
20
-4.7356494881889759
11
6.5047165354330705
21
-4.7357244094488191
0
LINE
8
BLACK
6
CONTINUOUS
10
6.5047165354330705
20
-4.7357244094488191
11
6.3881811023622044
21
-4.7357244094488191
0
LINE
8
BLACK
6
CONTINUOUS
10
6.3881811023622044
20
-4.7357244094488191
11
6.3878044488188976
21
-4.7356494881889759
0
LINE
8
BLACK
6
CONTINUOUS
10
6.3878044488188976
20
-4.7356494881889759
11
6.387271771653543
21
-4.7351168110236221
0
LINE
8
BLACK
6
CONTINUOUS
10
6.387271771653543
20
-4.7351168110236221
11
6.3871968503937007
21
-4.7347401574803145
0
LINE
8
BLACK
6
CONTINUOUS
10
6.3871968503937007
20
-4.7347401574803145
11
6.3871968503937007
21
-4.6772598425196845
0
LINE
8
BLACK
6
CONTINUOUS
10
6.3871968503937007
20
-4.6772598425196845
11
6.387271771653543
21
-4.6768831889763778
0
LINE
8
BLACK
6
CONTINUOUS
10
6.387271771653543
20
-4.6768831889763778
11
6.3878044488188976
21
-4.6763505118110231
0
LINE
8
BLACK
6
CONTINUOUS
10
6.3878044488188976
20
-4.6763505118110231
11
6.3881811023622044
21
-4.6762755905511808
0
LINE
8
BLACK
6
CONTINUOUS
10
6.3881811023622044
20
-4.6762755905511808
11
6.5047165354330705
21
-4.6762755905511808
0
LINE
8
BLACK
6
CONTINUOUS
10
6.5047165354330705
20
-4.6762755905511808
11
6.5050931889763781
21
-4.6763505118110231
0
LINE
8
BLACK
6
CONTINUOUS
10
6.3891653543307081
20
-4.6782440944881891
11
6.3891653543307081
21
-4.7337559055118108
0
LINE
8
BLACK
6
CONTINUOUS
10
6.3891653543307081
20
-4.7337559055118108
11
6.5037322834645668
21
-4.7337559055118108
0
LINE
8
BLACK
6
CONTINUOUS
10
6.5037322834645668
20
-4.7337559055118108
11
6.5037322834645668
21
-4.6782440944881891
0
LINE
8
BLACK
6
CONTINUOUS
10
6.5037322834645668
20
-4.6782440944881891
11
6.3891653543307081
21
-4.6782440944881891
0
LINE
8
BLACK
6
CONTINUOUS
10
6.0026601181102359
20
-4.5284607480314962
11
6.0031927952755906
21
-4.52899342519685
0
LINE
8
BLACK
6
CONTINUOUS
10
6.0031927952755906
20
-4.52899342519685
11
6.0032677165354329
21
-4.5293700787401576
0
LINE
8
BLACK
6
CONTINUOUS
10
6.0032677165354329
20
-4.5293700787401576
11
6.0032677165354329
21
-4.7340944881889762
0
LINE
8
BLACK
6
CONTINUOUS
10
6.0032677165354329
20
-4.7340944881889762
11
6.0031927952755906
21
-4.7344711417322838
0
LINE
8
BLACK
6
CONTINUOUS
10
6.0031927952755906
20
-4.7344711417322838
11
6.0026601181102359
21
-4.7350038188976376
0
LINE
8
BLACK
6
CONTINUOUS
10
6.0026601181102359
20
-4.7350038188976376
11
6.0022834645669292
21
-4.7350787401574799
0
LINE
8
BLACK
6
CONTINUOUS
10
6.0022834645669292
20
-4.7350787401574799
11
5.7975590551181098
21
-4.7350787401574799
0
LINE
8
BLACK
6
CONTINUOUS
10
5.7975590551181098
20
-4.7350787401574799
11
5.797182401574803
21
-4.7350038188976376
0
LINE
8
BLACK
6
CONTINUOUS
10
5.797182401574803
20
-4.7350038188976376
11
5.7966497244094484
21
-4.7344711417322838
0
LINE
8
BLACK
6
CONTINUOUS
10
5.7966497244094484
20
-4.7344711417322838
11
5.796574803149606
21
-4.7340944881889762
0
LINE
8
BLACK
6
CONTINUOUS
10
5.796574803149606
20
-4.7340944881889762
11
5.796574803149606
21
-4.5293700787401576
0
LINE
8
BLACK
6
CONTINUOUS
10
5.796574803149606
20
-4.5293700787401576
11
5.7966497244094484
21
-4.52899342519685
0
LINE
8
BLACK
6
CONTINUOUS
10
5.7966497244094484
20
-4.52899342519685
11
5.797182401574803
21
-4.5284607480314962
0
LINE
8
BLACK
6
CONTINUOUS
10
5.797182401574803
20
-4.5284607480314962
11
5.7975590551181098
21
-4.528385826771653
0
LINE
8
BLACK
6
CONTINUOUS
10
5.7975590551181098
20
-4.528385826771653
11
6.0022834645669292
21
-4.528385826771653
0
LINE
8
BLACK
6
CONTINUOUS
10
6.0022834645669292
20
-4.528385826771653
11
6.0026601181102359
21
-4.5284607480314962
0
LINE
8
BLACK
6
CONTINUOUS
10
5.7985433070866144
20
-4.5303543307086613
11
5.7985433070866144
21
-4.7331102362204724
0
LINE
8
BLACK
6
CONTINUOUS
10
5.7985433070866144
20
-4.7331102362204724
11
6.0012992125984255
21
-4.7331102362204724
0
LINE
8
BLACK
6
CONTINUOUS
10
6.0012992125984255
20
-4.7331102362204724
11
6.0012992125984255
21
-4.5303543307086613
0
LINE
8
BLACK
6
CONTINUOUS
10
6.0012992125984255
20
-4.5303543307086613
11
5.7985433070866144
21
-4.5303543307086613
0
LINE
8
BLACK
6
CONTINUOUS
10
6.121951456692913
20
-4.6792481496062992
11
6.1224841338582676
21
-4.6797808267716539
0
LINE
8
BLACK
6
CONTINUOUS
10
6.1224841338582676
20
-4.6797808267716539
11
6.1225590551181099
21
-4.6801574803149606
0
LINE
8
BLACK
6
CONTINUOUS
10
6.1225590551181099
20
-4.6801574803149606
11
6.1225590551181099
21
-4.7171653543307084
0
LINE
8
BLACK
6
CONTINUOUS
10
6.1225590551181099
20
-4.7171653543307084
11
6.1224841338582676
21
-4.717542007874016
0
LINE
8
BLACK
6
CONTINUOUS
10
6.1224841338582676
20
-4.717542007874016
11
6.121951456692913
21
-4.7180746850393698
0
LINE
8
BLACK
6
CONTINUOUS
10
6.121951456692913
20
-4.7180746850393698
11
6.1215748031496062
21
-4.7181496062992121
0
LINE
8
BLACK
6
CONTINUOUS
10
6.1215748031496062
20
-4.7181496062992121
11
6.0483464566929133
21
-4.7181496062992121
0
LINE
8
BLACK
6
CONTINUOUS
10
6.0483464566929133
20
-4.7181496062992121
11
6.0479698031496065
21
-4.7180746850393698
0
LINE
8
BLACK
6
CONTINUOUS
10
6.0479698031496065
20
-4.7180746850393698
11
6.0474371259842519
21
-4.717542007874016
0
LINE
8
BLACK
6
CONTINUOUS
10
6.0474371259842519
20
-4.717542007874016
11
6.0473622047244096
21
-4.7171653543307084
0
LINE
8
BLACK
6
CONTINUOUS
10
6.0473622047244096
20
-4.7171653543307084
11
6.0473622047244096
21
-4.6801574803149606
0
LINE
8
BLACK
6
CONTINUOUS
10
6.0473622047244096
20
-4.6801574803149606
11
6.0474371259842519
21
-4.6797808267716539
0
LINE
8
BLACK
6
CONTINUOUS
10
6.0474371259842519
20
-4.6797808267716539
11
6.0479698031496065
21
-4.6792481496062992
0
LINE
8
BLACK
6
CONTINUOUS
10
6.0479698031496065
20
-4.6792481496062992
11
6.0483464566929133
21
-4.6791732283464569
0
LINE
8
BLACK
6
CONTINUOUS
10
6.0483464566929133
20
-4.6791732283464569
11
6.1215748031496062
21
-4.6791732283464569
0
LINE
8
BLACK
6
CONTINUOUS
10
6.1215748031496062
20
-4.6791732283464569
11
6.121951456692913
21
-4.6792481496062992
0
LINE
8
BLACK
6
CONTINUOUS
10
6.049330708661417
20
-4.6811417322834643
11
6.049330708661417
21
-4.7161811023622047
0
LINE
8
BLACK
6
CONTINUOUS
10
6.049330708661417
20
-4.7161811023622047
11
6.1205905511811025
21
-4.7161811023622047
0
LINE
8
BLACK
6
CONTINUOUS
10
6.1205905511811025
20
-4.7161811023622047
11
6.1205905511811025
21
-4.6811417322834643
0
LINE
8
BLACK
6
CONTINUOUS
10
6.1205905511811025
20
-4.6811417322834643
11
6.049330708661417
21
-4.6811417322834643
0
LINE
8
BLACK
6
CONTINUOUS
10
8.3014846850393695
20
-4.3839016929133861
11
8.3020173622047242
21
-4.3844343700787398
0
LINE
8
BLACK
6
CONTINUOUS
10
8.3020173622047242
20
-4.3844343700787398
11
8.3020922834645674
21
-4.3848110236220474
0
LINE
8
BLACK
6
CONTINUOUS
10
8.3020922834645674
20
-4.3848110236220474
11
8.3020922834645674
21
-4.7048110236220468
0
LINE
8
BLACK
6
CONTINUOUS
10
8.3020922834645674
20
-4.7048110236220468
11
8.3020173622047242
21
-4.7051876771653545
0
LINE
8
BLACK
6
CONTINUOUS
10
8.3020173622047242
20
-4.7051876771653545
11
8.3014846850393695
21
-4.7057203543307082
0
LINE
8
BLACK
6
CONTINUOUS
10
8.3014846850393695
20
-4.7057203543307082
11
8.3011080314960637
21
-4.7057952755905514
0
LINE
8
BLACK
6
CONTINUOUS
10
8.3011080314960637
20
-4.7057952755905514
11
7.8811080314960629
21
-4.7057952755905514
0
LINE
8
BLACK
6
CONTINUOUS
10
7.8811080314960629
20
-4.7057952755905514
11
7.8807313779527561
21
-4.7057203543307082
0
LINE
8
BLACK
6
CONTINUOUS
10
7.8807313779527561
20
-4.7057203543307082
11
7.8801987007874015
21
-4.7051876771653545
0
LINE
8
BLACK
6
CONTINUOUS
10
7.8801987007874015
20
-4.7051876771653545
11
7.8801237795275592
21
-4.7048110236220468
0
LINE
8
BLACK
6
CONTINUOUS
10
7.8801237795275592
20
-4.7048110236220468
11
7.8801237795275592
21
-4.3848110236220474
0
LINE
8
BLACK
6
CONTINUOUS
10
7.8801237795275592
20
-4.3848110236220474
11
7.8801987007874015
21
-4.3844343700787398
0
LINE
8
BLACK
6
CONTINUOUS
10
7.8801987007874015
20
-4.3844343700787398
11
7.8807313779527561
21
-4.3839016929133861
0
LINE
8
BLACK
6
CONTINUOUS
10
7.8807313779527561
20
-4.3839016929133861
11
7.8811080314960629
21
-4.3838267716535428
0
LINE
8
BLACK
6
CONTINUOUS
10
7.8811080314960629
20
-4.3838267716535428
11
8.3011080314960637
21
-4.3838267716535428
0
LINE
8
BLACK
6
CONTINUOUS
10
8.3011080314960637
20
-4.3838267716535428
11
8.3014846850393695
21
-4.3839016929133861
0
LINE
8
BLACK
6
CONTINUOUS
10
7.8820922834645666
20
-4.3857952755905512
11
7.8820922834645666
21
-4.7038267716535431
0
LINE
8
BLACK
6
CONTINUOUS
10
7.8820922834645666
20
-4.7038267716535431
11
8.3001237795275582
21
-4.7038267716535431
0
LINE
8
BLACK
6
CONTINUOUS
10
8.3001237795275582
20
-4.7038267716535431
11
8.3001237795275582
21
-4.3857952755905512
0
LINE
8
BLACK
6
CONTINUOUS
10
8.3001237795275582
20
-4.3857952755905512
11
7.8820922834645666
21
-4.3857952755905512
0
LINE
8
BLACK
6
CONTINUOUS
10
6.2991955511811026
20
-4.5784607480314961
11
6.2997282283464564
21
-4.5789934251968507
0
LINE
8
BLACK
6
CONTINUOUS
10
6.2997282283464564
20
-4.5789934251968507
11
6.2998031496062987
21
-4.5793700787401574
0
LINE
8
BLACK
6
CONTINUOUS
10
6.2998031496062987
20
-4.5793700787401574
11
6.2998031496062987
21
-4.6368503937007874
0
LINE
8
BLACK
6
CONTINUOUS
10
6.2998031496062987
20
-4.6368503937007874
11
6.2997282283464564
21
-4.6372270472440942
0
LINE
8
BLACK
6
CONTINUOUS
10
6.2997282283464564
20
-4.6372270472440942
11
6.2991955511811026
21
-4.6377597244094488
0
LINE
8
BLACK
6
CONTINUOUS
10
6.2991955511811026
20
-4.6377597244094488
11
6.298818897637795
21
-4.6378346456692912
0
LINE
8
BLACK
6
CONTINUOUS
10
6.298818897637795
20
-4.6378346456692912
11
6.1822834645669289
21
-4.6378346456692912
0
LINE
8
BLACK
6
CONTINUOUS
10
6.1822834645669289
20
-4.6378346456692912
11
6.1819068110236222
21
-4.6377597244094488
0
LINE
8
BLACK
6
CONTINUOUS
10
6.1819068110236222
20
-4.6377597244094488
11
6.1813741338582675
21
-4.6372270472440942
0
LINE
8
BLACK
6
CONTINUOUS
10
6.1813741338582675
20
-4.6372270472440942
11
6.1812992125984252
21
-4.6368503937007874
0
LINE
8
BLACK
6
CONTINUOUS
10
6.1812992125984252
20
-4.6368503937007874
11
6.1812992125984252
21
-4.5793700787401574
0
LINE
8
BLACK
6
CONTINUOUS
10
6.1812992125984252
20
-4.5793700787401574
11
6.1813741338582675
21
-4.5789934251968507
0
LINE
8
BLACK
6
CONTINUOUS
10
6.1813741338582675
20
-4.5789934251968507
11
6.1819068110236222
21
-4.5784607480314961
0
LINE
8
BLACK
6
CONTINUOUS
10
6.1819068110236222
20
-4.5784607480314961
11
6.1822834645669289
21
-4.5783858267716537
0
LINE
8
BLACK
6
CONTINUOUS
10
6.1822834645669289
20
-4.5783858267716537
11
6.298818897637795
21
-4.5783858267716537
0
LINE
8
BLACK
6
CONTINUOUS
10
6.298818897637795
20
-4.5783858267716537
11
6.2991955511811026
21
-4.5784607480314961
0
LINE
8
BLACK
6
CONTINUOUS
10
6.1832677165354326
20
-4.5803543307086612
11
6.1832677165354326
21
-4.6358661417322837
0
LINE
8
BLACK
6
CONTINUOUS
10
6.1832677165354326
20
-4.6358661417322837
11
6.2978346456692913
21
-4.6358661417322837
0
LINE
8
BLACK
6
CONTINUOUS
10
6.2978346456692913
20
-4.6358661417322837
11
6.2978346456692913
21
-4.5803543307086612
0
LINE
8
BLACK
6
CONTINUOUS
10
6.2978346456692913
20
-4.5803543307086612
11
6.1832677165354326
21
-4.5803543307086612
0
LINE
8
BLACK
6
CONTINUOUS
10
6.3896679921259842
20
-4.5135001181102359
11
6.390200669291338
21
-4.5140327952755905
0
LINE
8
BLACK
6
CONTINUOUS
10
6.390200669291338
20
-4.5140327952755905
11
6.3902755905511812
21
-4.5144094488188973
0
LINE
8
BLACK
6
CONTINUOUS
10
6.3902755905511812
20
-4.5144094488188973
11
6.3902755905511812
21
-4.6309448818897634
0
LINE
8
BLACK
6
CONTINUOUS
10
6.3902755905511812
20
-4.6309448818897634
11
6.390200669291338
21
-4.631321535433071
0
LINE
8
BLACK
6
CONTINUOUS
10
6.390200669291338
20
-4.631321535433071
11
6.3896679921259842
21
-4.6318542125984248
0
LINE
8
BLACK
6
CONTINUOUS
10
6.3896679921259842
20
-4.6318542125984248
11
6.3892913385826766
21
-4.631929133858268
0
LINE
8
BLACK
6
CONTINUOUS
10
6.3892913385826766
20
-4.631929133858268
11
6.3318110236220475
21
-4.631929133858268
0
LINE
8
BLACK
6
CONTINUOUS
10
6.3318110236220475
20
-4.631929133858268
11
6.3314343700787399
21
-4.6318542125984248
0
LINE
8
BLACK
6
CONTINUOUS
10
6.3314343700787399
20
-4.6318542125984248
11
6.3309016929133861
21
-4.631321535433071
0
LINE
8
BLACK
6
CONTINUOUS
10
6.3309016929133861
20
-4.631321535433071
11
6.3308267716535429
21
-4.6309448818897634
0
LINE
8
BLACK
6
CONTINUOUS
10
6.3308267716535429
20
-4.6309448818897634
11
6.3308267716535429
21
-4.5144094488188973
0
LINE
8
BLACK
6
CONTINUOUS
10
6.3308267716535429
20
-4.5144094488188973
11
6.3309016929133861
21
-4.5140327952755905
0
LINE
8
BLACK
6
CONTINUOUS
10
6.3309016929133861
20
-4.5140327952755905
11
6.3314343700787399
21
-4.5135001181102359
0
LINE
8
BLACK
6
CONTINUOUS
10
6.3314343700787399
20
-4.5135001181102359
11
6.3318110236220475
21
-4.5134251968503936
0
LINE
8
BLACK
6
CONTINUOUS
10
6.3318110236220475
20
-4.5134251968503936
11
6.3892913385826766
21
-4.5134251968503936
0
LINE
8
BLACK
6
CONTINUOUS
10
6.3892913385826766
20
-4.5134251968503936
11
6.3896679921259842
21
-4.5135001181102359
0
LINE
8
BLACK
6
CONTINUOUS
10
6.3327952755905512
20
-4.5153937007874019
11
6.3327952755905512
21
-4.6299606299212597
0
LINE
8
BLACK
6
CONTINUOUS
10
6.3327952755905512
20
-4.6299606299212597
11
6.3883070866141729
21
-4.6299606299212597
0
LINE
8
BLACK
6
CONTINUOUS
10
6.3883070866141729
20
-4.6299606299212597
11
6.3883070866141729
21
-4.5153937007874019
0
LINE
8
BLACK
6
CONTINUOUS
10
6.3883070866141729
20
-4.5153937007874019
11
6.3327952755905512
21
-4.5153937007874019
0
LINE
8
BLACK
6
CONTINUOUS
10
5.7400616929133861
20
-4.5095631102362201
11
5.7405943700787398
21
-4.5100957874015748
0
LINE
8
BLACK
6
CONTINUOUS
10
5.7405943700787398
20
-4.5100957874015748
11
5.7406692913385822
21
-4.5104724409448815
0
LINE
8
BLACK
6
CONTINUOUS
10
5.7406692913385822
20
-4.5104724409448815
11
5.7406692913385822
21
-4.6270078740157476
0
LINE
8
BLACK
6
CONTINUOUS
10
5.7406692913385822
20
-4.6270078740157476
11
5.7405943700787398
21
-4.6273845275590553
0
LINE
8
BLACK
6
CONTINUOUS
10
5.7405943700787398
20
-4.6273845275590553
11
5.7400616929133861
21
-4.627917204724409
0
LINE
8
BLACK
6
CONTINUOUS
10
5.7400616929133861
20
-4.627917204724409
11
5.7396850393700785
21
-4.6279921259842522
0
LINE
8
BLACK
6
CONTINUOUS
10
5.7396850393700785
20
-4.6279921259842522
11
5.6822047244094485
21
-4.6279921259842522
0
LINE
8
BLACK
6
CONTINUOUS
10
5.6822047244094485
20
-4.6279921259842522
11
5.6818280708661417
21
-4.627917204724409
0
LINE
8
BLACK
6
CONTINUOUS
10
5.6818280708661417
20
-4.627917204724409
11
5.6812953937007871
21
-4.6273845275590553
0
LINE
8
BLACK
6
CONTINUOUS
10
5.6812953937007871
20
-4.6273845275590553
11
5.6812204724409447
21
-4.6270078740157476
0
LINE
8
BLACK
6
CONTINUOUS
10
5.6812204724409447
20
-4.6270078740157476
11
5.6812204724409447
21
-4.5104724409448815
0
LINE
8
BLACK
6
CONTINUOUS
10
5.6812204724409447
20
-4.5104724409448815
11
5.6812953937007871
21
-4.5100957874015748
0
LINE
8
BLACK
6
CONTINUOUS
10
5.6812953937007871
20
-4.5100957874015748
11
5.6818280708661417
21
-4.5095631102362201
0
LINE
8
BLACK
6
CONTINUOUS
10
5.6818280708661417
20
-4.5095631102362201
11
5.6822047244094485
21
-4.5094881889763778
0
LINE
8
BLACK
6
CONTINUOUS
10
5.6822047244094485
20
-4.5094881889763778
11
5.7396850393700785
21
-4.5094881889763778
0
LINE
8
BLACK
6
CONTINUOUS
10
5.7396850393700785
20
-4.5094881889763778
11
5.7400616929133861
21
-4.5095631102362201
0
LINE
8
BLACK
6
CONTINUOUS
10
5.6831889763779531
20
-4.5114566929133861
11
5.6831889763779531
21
-4.6260236220472439
0
LINE
8
BLACK
6
CONTINUOUS
10
5.6831889763779531
20
-4.6260236220472439
11
5.7387007874015747
21
-4.6260236220472439
0
LINE
8
BLACK
6
CONTINUOUS
10
5.7387007874015747
20
-4.6260236220472439
11
5.7387007874015747
21
-4.5114566929133861
0
LINE
8
BLACK
6
CONTINUOUS
10
5.7387007874015747
20
-4.5114566929133861
11
5.6831889763779531
21
-4.5114566929133861
0
LINE
8
BLACK
6
CONTINUOUS
10
6.5554947637795271
20
-4.4985394881889764
11
6.5560274409448818
21
-4.4990721653543302
0
LINE
8
BLACK
6
CONTINUOUS
10
6.5560274409448818
20
-4.4990721653543302
11
6.5561023622047241
21
-4.4994488188976378
0
LINE
8
BLACK
6
CONTINUOUS
10
6.5561023622047241
20
-4.4994488188976378
11
6.5561023622047241
21
-4.6254330708661415
0
LINE
8
BLACK
6
CONTINUOUS
10
6.5561023622047241
20
-4.6254330708661415
11
6.5560274409448818
21
-4.6258097244094492
0
LINE
8
BLACK
6
CONTINUOUS
10
6.5560274409448818
20
-4.6258097244094492
11
6.5554947637795271
21
-4.6263424015748029
0
LINE
8
BLACK
6
CONTINUOUS
10
6.5554947637795271
20
-4.6263424015748029
11
6.5551181102362204
21
-4.6264173228346452
0
LINE
8
BLACK
6
CONTINUOUS
10
6.5551181102362204
20
-4.6264173228346452
11
6.4448818897637796
21
-4.6264173228346452
0
LINE
8
BLACK
6
CONTINUOUS
10
6.4448818897637796
20
-4.6264173228346452
11
6.444505236220472
21
-4.6263424015748029
0
LINE
8
BLACK
6
CONTINUOUS
10
6.444505236220472
20
-4.6263424015748029
11
6.4439725590551182
21
-4.6258097244094492
0
LINE
8
BLACK
6
CONTINUOUS
10
6.4439725590551182
20
-4.6258097244094492
11
6.443897637795275
21
-4.6254330708661415
0
LINE
8
BLACK
6
CONTINUOUS
10
6.443897637795275
20
-4.6254330708661415
11
6.443897637795275
21
-4.4994488188976378
0
LINE
8
BLACK
6
CONTINUOUS
10
6.443897637795275
20
-4.4994488188976378
11
6.4439725590551182
21
-4.4990721653543302
0
LINE
8
BLACK
6
CONTINUOUS
10
6.4439725590551182
20
-4.4990721653543302
11
6.444505236220472
21
-4.4985394881889764
0
LINE
8
BLACK
6
CONTINUOUS
10
6.444505236220472
20
-4.4985394881889764
11
6.4448818897637796
21
-4.4984645669291341
0
LINE
8
BLACK
6
CONTINUOUS
10
6.4448818897637796
20
-4.4984645669291341
11
6.5551181102362204
21
-4.4984645669291341
0
LINE
8
BLACK
6
CONTINUOUS
10
6.5551181102362204
20
-4.4984645669291341
11
6.5554947637795271
21
-4.4985394881889764
0
LINE
8
BLACK
6
CONTINUOUS
10
6.4458661417322833
20
-4.5004330708661415
11
6.4458661417322833
21
-4.6244488188976378
0
LINE
8
BLACK
6
CONTINUOUS
10
6.4458661417322833
20
-4.6244488188976378
11
6.5541338582677167
21
-4.6244488188976378
0
LINE
8
BLACK
6
CONTINUOUS
10
6.5541338582677167
20
-4.6244488188976378
11
6.5541338582677167
21
-4.5004330708661415
0
LINE
8
BLACK
6
CONTINUOUS
10
6.5541338582677167
20
-4.5004330708661415
11
6.4458661417322833
21
-4.5004330708661415
0
LINE
8
BLACK
6
CONTINUOUS
10
6.1594317716535434
20
-4.5351536614173229
11
6.1599644488188972
21
-4.5356863385826767
0
LINE
8
BLACK
6
CONTINUOUS
10
6.1599644488188972
20
-4.5356863385826767
11
6.1600393700787404
21
-4.5360629921259843
0
LINE
8
BLACK
6
CONTINUOUS
10
6.1600393700787404
20
-4.5360629921259843
11
6.1600393700787404
21
-4.6092913385826773
0
LINE
8
BLACK
6
CONTINUOUS
10
6.1600393700787404
20
-4.6092913385826773
11
6.1599644488188972
21
-4.609667992125984
0
LINE
8
BLACK
6
CONTINUOUS
10
6.1599644488188972
20
-4.609667992125984
11
6.1594317716535434
21
-4.6102006692913386
0
LINE
8
BLACK
6
CONTINUOUS
10
6.1594317716535434
20
-4.6102006692913386
11
6.1590551181102358
21
-4.610275590551181
0
LINE
8
BLACK
6
CONTINUOUS
10
6.1590551181102358
20
-4.610275590551181
11
6.122047244094488
21
-4.610275590551181
0
LINE
8
BLACK
6
CONTINUOUS
10
6.122047244094488
20
-4.610275590551181
11
6.1216705905511812
21
-4.6102006692913386
0
LINE
8
BLACK
6
CONTINUOUS
10
6.1216705905511812
20
-4.6102006692913386
11
6.1211379133858266
21
-4.609667992125984
0
LINE
8
BLACK
6
CONTINUOUS
10
6.1211379133858266
20
-4.609667992125984
11
6.1210629921259843
21
-4.6092913385826773
0
LINE
8
BLACK
6
CONTINUOUS
10
6.1210629921259843
20
-4.6092913385826773
11
6.1210629921259843
21
-4.5360629921259843
0
LINE
8
BLACK
6
CONTINUOUS
10
6.1210629921259843
20
-4.5360629921259843
11
6.1211379133858266
21
-4.5356863385826767
0
LINE
8
BLACK
6
CONTINUOUS
10
6.1211379133858266
20
-4.5356863385826767
11
6.1216705905511812
21
-4.5351536614173229
0
LINE
8
BLACK
6
CONTINUOUS
10
6.1216705905511812
20
-4.5351536614173229
11
6.122047244094488
21
-4.5350787401574806
0
LINE
8
BLACK
6
CONTINUOUS
10
6.122047244094488
20
-4.5350787401574806
11
6.1590551181102358
21
-4.5350787401574806
0
LINE
8
BLACK
6
CONTINUOUS
10
6.1590551181102358
20
-4.5350787401574806
11
6.1594317716535434
21
-4.5351536614173229
0
LINE
8
BLACK
6
CONTINUOUS
10
6.1230314960629917
20
-4.537047244094488
11
6.1230314960629917
21
-4.6083070866141735
0
LINE
8
BLACK
6
CONTINUOUS
10
6.1230314960629917
20
-4.6083070866141735
11
6.158070866141732
21
-4.6083070866141735
0
LINE
8
BLACK
6
CONTINUOUS
10
6.158070866141732
20
-4.6083070866141735
11
6.158070866141732
21
-4.537047244094488
0
LINE
8
BLACK
6
CONTINUOUS
10
6.158070866141732
20
-4.537047244094488
11
6.1230314960629917
21
-4.537047244094488
0
LINE
8
BLACK
6
CONTINUOUS
10
6.2991955511811026
20
-4.5103505118110236
11
6.2997282283464564
21
-4.5108831889763774
0
LINE
8
BLACK
6
CONTINUOUS
10
6.2997282283464564
20
-4.5108831889763774
11
6.2998031496062987
21
-4.511259842519685
0
LINE
8
BLACK
6
CONTINUOUS
10
6.2998031496062987
20
-4.511259842519685
11
6.2998031496062987
21
-4.568740157480315
0
LINE
8
BLACK
6
CONTINUOUS
10
6.2998031496062987
20
-4.568740157480315
11
6.2997282283464564
21
-4.5691168110236218
0
LINE
8
BLACK
6
CONTINUOUS
10
6.2997282283464564
20
-4.5691168110236218
11
6.2991955511811026
21
-4.5696494881889764
0
LINE
8
BLACK
6
CONTINUOUS
10
6.2991955511811026
20
-4.5696494881889764
11
6.298818897637795
21
-4.5697244094488187
0
LINE
8
BLACK
6
CONTINUOUS
10
6.298818897637795
20
-4.5697244094488187
11
6.1822834645669289
21
-4.5697244094488187
0
LINE
8
BLACK
6
CONTINUOUS
10
6.1822834645669289
20
-4.5697244094488187
11
6.1819068110236222
21
-4.5696494881889764
0
LINE
8
BLACK
6
CONTINUOUS
10
6.1819068110236222
20
-4.5696494881889764
11
6.1813741338582675
21
-4.5691168110236218
0
LINE
8
BLACK
6
CONTINUOUS
10
6.1813741338582675
20
-4.5691168110236218
11
6.1812992125984252
21
-4.568740157480315
0
LINE
8
BLACK
6
CONTINUOUS
10
6.1812992125984252
20
-4.568740157480315
11
6.1812992125984252
21
-4.511259842519685
0
LINE
8
BLACK
6
CONTINUOUS
10
6.1812992125984252
20
-4.511259842519685
11
6.1813741338582675
21
-4.5108831889763774
0
LINE
8
BLACK
6
CONTINUOUS
10
6.1813741338582675
20
-4.5108831889763774
11
6.1819068110236222
21
-4.5103505118110236
0
LINE
8
BLACK
6
CONTINUOUS
10
6.1819068110236222
20
-4.5103505118110236
11
6.1822834645669289
21
-4.5102755905511813
0
LINE
8
BLACK
6
CONTINUOUS
10
6.1822834645669289
20
-4.5102755905511813
11
6.298818897637795
21
-4.5102755905511813
0
LINE
8
BLACK
6
CONTINUOUS
10
6.298818897637795
20
-4.5102755905511813
11
6.2991955511811026
21
-4.5103505118110236
0
LINE
8
BLACK
6
CONTINUOUS
10
6.1832677165354326
20
-4.5122440944881888
11
6.1832677165354326
21
-4.5677559055118113
0
LINE
8
BLACK
6
CONTINUOUS
10
6.1832677165354326
20
-4.5677559055118113
11
6.2978346456692913
21
-4.5677559055118113
0
LINE
8
BLACK
6
CONTINUOUS
10
6.2978346456692913
20
-4.5677559055118113
11
6.2978346456692913
21
-4.5122440944881888
0
LINE
8
BLACK
6
CONTINUOUS
10
6.2978346456692913
20
-4.5122440944881888
11
6.1832677165354326
21
-4.5122440944881888
0
LINE
8
BLACK
6
CONTINUOUS
10
6.6806758661417325
20
-4.426256023622047
11
6.6812085433070862
21
-4.4267887007874016
0
LINE
8
BLACK
6
CONTINUOUS
10
6.6812085433070862
20
-4.4267887007874016
11
6.6812834645669286
21
-4.4271653543307083
0
LINE
8
BLACK
6
CONTINUOUS
10
6.6812834645669286
20
-4.4271653543307083
11
6.6812834645669286
21
-4.5437007874015745
0
LINE
8
BLACK
6
CONTINUOUS
10
6.6812834645669286
20
-4.5437007874015745
11
6.6812085433070862
21
-4.5440774409448821
0
LINE
8
BLACK
6
CONTINUOUS
10
6.6812085433070862
20
-4.5440774409448821
11
6.6806758661417325
21
-4.5446101181102359
0
LINE
8
BLACK
6
CONTINUOUS
10
6.6806758661417325
20
-4.5446101181102359
11
6.6802992125984249
21
-4.5446850393700791
0
LINE
8
BLACK
6
CONTINUOUS
10
6.6802992125984249
20
-4.5446850393700791
11
6.6228188976377949
21
-4.5446850393700791
0
LINE
8
BLACK
6
CONTINUOUS
10
6.6228188976377949
20
-4.5446850393700791
11
6.6224422440944881
21
-4.5446101181102359
0
LINE
8
BLACK
6
CONTINUOUS
10
6.6224422440944881
20
-4.5446101181102359
11
6.6219095669291335
21
-4.5440774409448821
0
LINE
8
BLACK
6
CONTINUOUS
10
6.6219095669291335
20
-4.5440774409448821
11
6.6218346456692911
21
-4.5437007874015745
0
LINE
8
BLACK
6
CONTINUOUS
10
6.6218346456692911
20
-4.5437007874015745
11
6.6218346456692911
21
-4.4271653543307083
0
LINE
8
BLACK
6
CONTINUOUS
10
6.6218346456692911
20
-4.4271653543307083
11
6.6219095669291335
21
-4.4267887007874016
0
LINE
8
BLACK
6
CONTINUOUS
10
6.6219095669291335
20
-4.4267887007874016
11
6.6224422440944881
21
-4.426256023622047
0
LINE
8
BLACK
6
CONTINUOUS
10
6.6224422440944881
20
-4.426256023622047
11
6.6228188976377949
21
-4.4261811023622046
0
LINE
8
BLACK
6
CONTINUOUS
10
6.6228188976377949
20
-4.4261811023622046
11
6.6802992125984249
21
-4.4261811023622046
0
LINE
8
BLACK
6
CONTINUOUS
10
6.6802992125984249
20
-4.4261811023622046
11
6.6806758661417325
21
-4.426256023622047
0
LINE
8
BLACK
6
CONTINUOUS
10
6.6238031496062995
20
-4.4281496062992121
11
6.6238031496062995
21
-4.5427165354330707
0
LINE
8
BLACK
6
CONTINUOUS
10
6.6238031496062995
20
-4.5427165354330707
11
6.6793149606299211
21
-4.5427165354330707
0
LINE
8
BLACK
6
CONTINUOUS
10
6.6793149606299211
20
-4.5427165354330707
11
6.6793149606299211
21
-4.4281496062992121
0
LINE
8
BLACK
6
CONTINUOUS
10
6.6793149606299211
20
-4.4281496062992121
11
6.6238031496062995
21
-4.4281496062992121
0
LINE
8
BLACK
6
CONTINUOUS
10
6.8291168110236216
20
-4.4208229527559055
11
6.8296494881889762
21
-4.4213556299212593
0
LINE
8
BLACK
6
CONTINUOUS
10
6.8296494881889762
20
-4.4213556299212593
11
6.8297244094488185
21
-4.4217322834645669
0
LINE
8
BLACK
6
CONTINUOUS
10
6.8297244094488185
20
-4.4217322834645669
11
6.8297244094488185
21
-4.538267716535433
0
LINE
8
BLACK
6
CONTINUOUS
10
6.8297244094488185
20
-4.538267716535433
11
6.8296494881889762
21
-4.5386443700787398
0
LINE
8
BLACK
6
CONTINUOUS
10
6.8296494881889762
20
-4.5386443700787398
11
6.8291168110236216
21
-4.5391770472440944
0
LINE
8
BLACK
6
CONTINUOUS
10
6.8291168110236216
20
-4.5391770472440944
11
6.8287401574803148
21
-4.5392519685039368
0
LINE
8
BLACK
6
CONTINUOUS
10
6.8287401574803148
20
-4.5392519685039368
11
6.7712598425196848
21
-4.5392519685039368
0
LINE
8
BLACK
6
CONTINUOUS
10
6.7712598425196848
20
-4.5392519685039368
11
6.7708831889763781
21
-4.5391770472440944
0
LINE
8
BLACK
6
CONTINUOUS
10
6.7708831889763781
20
-4.5391770472440944
11
6.7703505118110234
21
-4.5386443700787398
0
LINE
8
BLACK
6
CONTINUOUS
10
6.7703505118110234
20
-4.5386443700787398
11
6.7702755905511811
21
-4.538267716535433
0
LINE
8
BLACK
6
CONTINUOUS
10
6.7702755905511811
20
-4.538267716535433
11
6.7702755905511811
21
-4.4217322834645669
0
LINE
8
BLACK
6
CONTINUOUS
10
6.7702755905511811
20
-4.4217322834645669
11
6.7703505118110234
21
-4.4213556299212593
0
LINE
8
BLACK
6
CONTINUOUS
10
6.7703505118110234
20
-4.4213556299212593
11
6.7708831889763781
21
-4.4208229527559055
0
LINE
8
BLACK
6
CONTINUOUS
10
6.7708831889763781
20
-4.4208229527559055
11
6.7712598425196848
21
-4.4207480314960632
0
LINE
8
BLACK
6
CONTINUOUS
10
6.7712598425196848
20
-4.4207480314960632
11
6.8287401574803148
21
-4.4207480314960632
0
LINE
8
BLACK
6
CONTINUOUS
10
6.8287401574803148
20
-4.4207480314960632
11
6.8291168110236216
21
-4.4208229527559055
0
LINE
8
BLACK
6
CONTINUOUS
10
6.7722440944881885
20
-4.4227165354330706
11
6.7722440944881885
21
-4.5372834645669293
0
LINE
8
BLACK
6
CONTINUOUS
10
6.7722440944881885
20
-4.5372834645669293
11
6.8277559055118111
21
-4.5372834645669293
0
LINE
8
BLACK
6
CONTINUOUS
10
6.8277559055118111
20
-4.5372834645669293
11
6.8277559055118111
21
-4.4227165354330706
0
LINE
8
BLACK
6
CONTINUOUS
10
6.8277559055118111
20
-4.4227165354330706
11
6.7722440944881885
21
-4.4227165354330706
0
LINE
8
BLACK
6
CONTINUOUS
10
8.4593587007874014
20
-4.4587048425196851
11
8.459891377952756
21
-4.4592375196850389
0
LINE
8
BLACK
6
CONTINUOUS
10
8.459891377952756
20
-4.4592375196850389
11
8.4599662992125975
21
-4.4596141732283465
0
LINE
8
BLACK
6
CONTINUOUS
10
8.4599662992125975
20
-4.4596141732283465
11
8.4599662992125975
21
-4.5170944881889765
0
LINE
8
BLACK
6
CONTINUOUS
10
8.4599662992125975
20
-4.5170944881889765
11
8.459891377952756
21
-4.5174711417322833
0
LINE
8
BLACK
6
CONTINUOUS
10
8.459891377952756
20
-4.5174711417322833
11
8.4593587007874014
21
-4.5180038188976379
0
LINE
8
BLACK
6
CONTINUOUS
10
8.4593587007874014
20
-4.5180038188976379
11
8.4589820472440937
21
-4.5180787401574802
0
LINE
8
BLACK
6
CONTINUOUS
10
8.4589820472440937
20
-4.5180787401574802
11
8.3424466141732285
21
-4.5180787401574802
0
LINE
8
BLACK
6
CONTINUOUS
10
8.3424466141732285
20
-4.5180787401574802
11
8.3420699606299209
21
-4.5180038188976379
0
LINE
8
BLACK
6
CONTINUOUS
10
8.3420699606299209
20
-4.5180038188976379
11
8.3415372834645662
21
-4.5174711417322833
0
LINE
8
BLACK
6
CONTINUOUS
10
8.3415372834645662
20
-4.5174711417322833
11
8.3414623622047248
21
-4.5170944881889765
0
LINE
8
BLACK
6
CONTINUOUS
10
8.3414623622047248
20
-4.5170944881889765
11
8.3414623622047248
21
-4.4596141732283465
0
LINE
8
BLACK
6
CONTINUOUS
10
8.3414623622047248
20
-4.4596141732283465
11
8.3415372834645662
21
-4.4592375196850389
0
LINE
8
BLACK
6
CONTINUOUS
10
8.3415372834645662
20
-4.4592375196850389
11
8.3420699606299209
21
-4.4587048425196851
0
LINE
8
BLACK
6
CONTINUOUS
10
8.3420699606299209
20
-4.4587048425196851
11
8.3424466141732285
21
-4.4586299212598428
0
LINE
8
BLACK
6
CONTINUOUS
10
8.3424466141732285
20
-4.4586299212598428
11
8.4589820472440937
21
-4.4586299212598428
0
LINE
8
BLACK
6
CONTINUOUS
10
8.4589820472440937
20
-4.4586299212598428
11
8.4593587007874014
21
-4.4587048425196851
0
LINE
8
BLACK
6
CONTINUOUS
10
8.3434308661417322
20
-4.4605984251968502
11
8.3434308661417322
21
-4.5161102362204719
0
LINE
8
BLACK
6
CONTINUOUS
10
8.3434308661417322
20
-4.5161102362204719
11
8.45799779527559
21
-4.5161102362204719
0
LINE
8
BLACK
6
CONTINUOUS
10
8.45799779527559
20
-4.5161102362204719
11
8.45799779527559
21
-4.4605984251968502
0
LINE
8
BLACK
6
CONTINUOUS
10
8.45799779527559
20
-4.4605984251968502
11
8.3434308661417322
21
-4.4605984251968502
0
LINE
8
BLACK
6
CONTINUOUS
10
6.5981955511811021
20
-4.4203505118110238
11
6.5987282283464568
21
-4.4208831889763776
0
LINE
8
BLACK
6
CONTINUOUS
10
6.5987282283464568
20
-4.4208831889763776
11
6.5988031496062991
21
-4.4212598425196852
0
LINE
8
BLACK
6
CONTINUOUS
10
6.5988031496062991
20
-4.4212598425196852
11
6.5988031496062991
21
-4.4787401574803152
0
LINE
8
BLACK
6
CONTINUOUS
10
6.5988031496062991
20
-4.4787401574803152
11
6.5987282283464568
21
-4.4791168110236219
0
LINE
8
BLACK
6
CONTINUOUS
10
6.5987282283464568
20
-4.4791168110236219
11
6.5981955511811021
21
-4.4796494881889766
0
LINE
8
BLACK
6
CONTINUOUS
10
6.5981955511811021
20
-4.4796494881889766
11
6.5978188976377954
21
-4.4797244094488189
0
LINE
8
BLACK
6
CONTINUOUS
10
6.5978188976377954
20
-4.4797244094488189
11
6.4812834645669293
21
-4.4797244094488189
0
LINE
8
BLACK
6
CONTINUOUS
10
6.4812834645669293
20
-4.4797244094488189
11
6.4809068110236216
21
-4.4796494881889766
0
LINE
8
BLACK
6
CONTINUOUS
10
6.4809068110236216
20
-4.4796494881889766
11
6.4803741338582679
21
-4.4791168110236219
0
LINE
8
BLACK
6
CONTINUOUS
10
6.4803741338582679
20
-4.4791168110236219
11
6.4802992125984247
21
-4.4787401574803152
0
LINE
8
BLACK
6
CONTINUOUS
10
6.4802992125984247
20
-4.4787401574803152
11
6.4802992125984247
21
-4.4212598425196852
0
LINE
8
BLACK
6
CONTINUOUS
10
6.4802992125984247
20
-4.4212598425196852
11
6.4803741338582679
21
-4.4208831889763776
0
LINE
8
BLACK
6
CONTINUOUS
10
6.4803741338582679
20
-4.4208831889763776
11
6.4809068110236216
21
-4.4203505118110238
0
LINE
8
BLACK
6
CONTINUOUS
10
6.4809068110236216
20
-4.4203505118110238
11
6.4812834645669293
21
-4.4202755905511806
0
LINE
8
BLACK
6
CONTINUOUS
10
6.4812834645669293
20
-4.4202755905511806
11
6.5978188976377954
21
-4.4202755905511806
0
LINE
8
BLACK
6
CONTINUOUS
10
6.5978188976377954
20
-4.4202755905511806
11
6.5981955511811021
21
-4.4203505118110238
0
LINE
8
BLACK
6
CONTINUOUS
10
6.482267716535433
20
-4.4222440944881889
11
6.482267716535433
21
-4.4777559055118106
0
LINE
8
BLACK
6
CONTINUOUS
10
6.482267716535433
20
-4.4777559055118106
11
6.5968346456692908
21
-4.4777559055118106
0
LINE
8
BLACK
6
CONTINUOUS
10
6.5968346456692908
20
-4.4777559055118106
11
6.5968346456692908
21
-4.4222440944881889
0
LINE
8
BLACK
6
CONTINUOUS
10
6.5968346456692908
20
-4.4222440944881889
11
6.482267716535433
21
-4.4222440944881889
0
LINE
8
BLACK
6
CONTINUOUS
10
6.7672900393700788
20
-4.4305867322834649
11
6.7678227165354325
21
-4.4311194094488187
0
LINE
8
BLACK
6
CONTINUOUS
10
6.7678227165354325
20
-4.4311194094488187
11
6.7678976377952758
21
-4.4314960629921263
0
LINE
8
BLACK
6
CONTINUOUS
10
6.7678976377952758
20
-4.4314960629921263
11
6.7678976377952758
21
-4.4685039370078741
0
LINE
8
BLACK
6
CONTINUOUS
10
6.7678976377952758
20
-4.4685039370078741
11
6.7678227165354325
21
-4.4688805905511808
0
LINE
8
BLACK
6
CONTINUOUS
10
6.7678227165354325
20
-4.4688805905511808
11
6.7672900393700788
21
-4.4694132677165355
0
LINE
8
BLACK
6
CONTINUOUS
10
6.7672900393700788
20
-4.4694132677165355
11
6.7669133858267712
21
-4.4694881889763778
0
LINE
8
BLACK
6
CONTINUOUS
10
6.7669133858267712
20
-4.4694881889763778
11
6.6936850393700782
21
-4.4694881889763778
0
LINE
8
BLACK
6
CONTINUOUS
10
6.6936850393700782
20
-4.4694881889763778
11
6.6933083858267715
21
-4.4694132677165355
0
LINE
8
BLACK
6
CONTINUOUS
10
6.6933083858267715
20
-4.4694132677165355
11
6.6927757086614168
21
-4.4688805905511808
0
LINE
8
BLACK
6
CONTINUOUS
10
6.6927757086614168
20
-4.4688805905511808
11
6.6927007874015745
21
-4.4685039370078741
0
LINE
8
BLACK
6
CONTINUOUS
10
6.6927007874015745
20
-4.4685039370078741
11
6.6927007874015745
21
-4.4314960629921263
0
LINE
8
BLACK
6
CONTINUOUS
10
6.6927007874015745
20
-4.4314960629921263
11
6.6927757086614168
21
-4.4311194094488187
0
LINE
8
BLACK
6
CONTINUOUS
10
6.6927757086614168
20
-4.4311194094488187
11
6.6933083858267715
21
-4.4305867322834649
0
LINE
8
BLACK
6
CONTINUOUS
10
6.6933083858267715
20
-4.4305867322834649
11
6.6936850393700782
21
-4.4305118110236217
0
LINE
8
BLACK
6
CONTINUOUS
10
6.6936850393700782
20
-4.4305118110236217
11
6.7669133858267712
21
-4.4305118110236217
0
LINE
8
BLACK
6
CONTINUOUS
10
6.7669133858267712
20
-4.4305118110236217
11
6.7672900393700788
21
-4.4305867322834649
0
LINE
8
BLACK
6
CONTINUOUS
10
6.6946692913385828
20
-4.43248031496063
11
6.6946692913385828
21
-4.4675196850393704
0
LINE
8
BLACK
6
CONTINUOUS
10
6.6946692913385828
20
-4.4675196850393704
11
6.7659291338582674
21
-4.4675196850393704
0
LINE
8
BLACK
6
CONTINUOUS
10
6.7659291338582674
20
-4.4675196850393704
11
6.7659291338582674
21
-4.43248031496063
0
LINE
8
BLACK
6
CONTINUOUS
10
6.7659291338582674
20
-4.43248031496063
11
6.6946692913385828
21
-4.43248031496063
0
LINE
8
BLACK
6
CONTINUOUS
10
6.3891955511811025
20
-4.3853505118110236
11
6.3897282283464563
21
-4.3858831889763774
0
LINE
8
BLACK
6
CONTINUOUS
10
6.3897282283464563
20
-4.3858831889763774
11
6.3898031496062995
21
-4.386259842519685
0
LINE
8
BLACK
6
CONTINUOUS
10
6.3898031496062995
20
-4.386259842519685
11
6.3898031496062995
21
-4.443740157480315
0
LINE
8
BLACK
6
CONTINUOUS
10
6.3898031496062995
20
-4.443740157480315
11
6.3897282283464563
21
-4.4441168110236218
0
LINE
8
BLACK
6
CONTINUOUS
10
6.3897282283464563
20
-4.4441168110236218
11
6.3891955511811025
21
-4.4446494881889764
0
LINE
8
BLACK
6
CONTINUOUS
10
6.3891955511811025
20
-4.4446494881889764
11
6.3888188976377949
21
-4.4447244094488187
0
LINE
8
BLACK
6
CONTINUOUS
10
6.3888188976377949
20
-4.4447244094488187
11
6.2722834645669288
21
-4.4447244094488187
0
LINE
8
BLACK
6
CONTINUOUS
10
6.2722834645669288
20
-4.4447244094488187
11
6.271906811023622
21
-4.4446494881889764
0
LINE
8
BLACK
6
CONTINUOUS
10
6.271906811023622
20
-4.4446494881889764
11
6.2713741338582674
21
-4.4441168110236218
0
LINE
8
BLACK
6
CONTINUOUS
10
6.2713741338582674
20
-4.4441168110236218
11
6.271299212598425
21
-4.443740157480315
0
LINE
8
BLACK
6
CONTINUOUS
10
6.271299212598425
20
-4.443740157480315
11
6.271299212598425
21
-4.386259842519685
0
LINE
8
BLACK
6
CONTINUOUS
10
6.271299212598425
20
-4.386259842519685
11
6.2713741338582674
21
-4.3858831889763774
0
LINE
8
BLACK
6
CONTINUOUS
10
6.2713741338582674
20
-4.3858831889763774
11
6.271906811023622
21
-4.3853505118110236
0
LINE
8
BLACK
6
CONTINUOUS
10
6.271906811023622
20
-4.3853505118110236
11
6.2722834645669288
21
-4.3852755905511813
0
LINE
8
BLACK
6
CONTINUOUS
10
6.2722834645669288
20
-4.3852755905511813
11
6.3888188976377949
21
-4.3852755905511813
0
LINE
8
BLACK
6
CONTINUOUS
10
6.3888188976377949
20
-4.3852755905511813
11
6.3891955511811025
21
-4.3853505118110236
0
LINE
8
BLACK
6
CONTINUOUS
10
6.2732677165354334
20
-4.3872440944881888
11
6.2732677165354334
21
-4.4427559055118113
0
LINE
8
BLACK
6
CONTINUOUS
10
6.2732677165354334
20
-4.4427559055118113
11
6.3878346456692912
21
-4.4427559055118113
0
LINE
8
BLACK
6
CONTINUOUS
10
6.3878346456692912
20
-4.4427559055118113
11
6.3878346456692912
21
-4.3872440944881888
0
LINE
8
BLACK
6
CONTINUOUS
10
6.3878346456692912
20
-4.3872440944881888
11
6.2732677165354334
21
-4.3872440944881888
0
LINE
8
BLACK
6
CONTINUOUS
10
8.4593587007874014
20
-4.3598859448818894
11
8.459891377952756
21
-4.3604186220472441
0
LINE
8
BLACK
6
CONTINUOUS
10
8.459891377952756
20
-4.3604186220472441
11
8.4599662992125975
21
-4.3607952755905508
0
LINE
8
BLACK
6
CONTINUOUS
10
8.4599662992125975
20
-4.3607952755905508
11
8.4599662992125975
21
-4.4182755905511808
0
LINE
8
BLACK
6
CONTINUOUS
10
8.4599662992125975
20
-4.4182755905511808
11
8.459891377952756
21
-4.4186522440944884
0
LINE
8
BLACK
6
CONTINUOUS
10
8.459891377952756
20
-4.4186522440944884
11
8.4593587007874014
21
-4.4191849212598422
0
LINE
8
BLACK
6
CONTINUOUS
10
8.4593587007874014
20
-4.4191849212598422
11
8.4589820472440937
21
-4.4192598425196845
0
LINE
8
BLACK
6
CONTINUOUS
10
8.4589820472440937
20
-4.4192598425196845
11
8.3424466141732285
21
-4.4192598425196845
0
LINE
8
BLACK
6
CONTINUOUS
10
8.3424466141732285
20
-4.4192598425196845
11
8.3420699606299209
21
-4.4191849212598422
0
LINE
8
BLACK
6
CONTINUOUS
10
8.3420699606299209
20
-4.4191849212598422
11
8.3415372834645662
21
-4.4186522440944884
0
LINE
8
BLACK
6
CONTINUOUS
10
8.3415372834645662
20
-4.4186522440944884
11
8.3414623622047248
21
-4.4182755905511808
0
LINE
8
BLACK
6
CONTINUOUS
10
8.3414623622047248
20
-4.4182755905511808
11
8.3414623622047248
21
-4.3607952755905508
0
LINE
8
BLACK
6
CONTINUOUS
10
8.3414623622047248
20
-4.3607952755905508
11
8.3415372834645662
21
-4.3604186220472441
0
LINE
8
BLACK
6
CONTINUOUS
10
8.3415372834645662
20
-4.3604186220472441
11
8.3420699606299209
21
-4.3598859448818894
0
LINE
8
BLACK
6
CONTINUOUS
10
8.3420699606299209
20
-4.3598859448818894
11
8.3424466141732285
21
-4.3598110236220471
0
LINE
8
BLACK
6
CONTINUOUS
10
8.3424466141732285
20
-4.3598110236220471
11
8.4589820472440937
21
-4.3598110236220471
0
LINE
8
BLACK
6
CONTINUOUS
10
8.4589820472440937
20
-4.3598110236220471
11
8.4593587007874014
21
-4.3598859448818894
0
LINE
8
BLACK
6
CONTINUOUS
10
8.3434308661417322
20
-4.3617795275590554
11
8.3434308661417322
21
-4.4172913385826771
0
LINE
8
BLACK
6
CONTINUOUS
10
8.3434308661417322
20
-4.4172913385826771
11
8.45799779527559
21
-4.4172913385826771
0
LINE
8
BLACK
6
CONTINUOUS
10
8.45799779527559
20
-4.4172913385826771
11
8.45799779527559
21
-4.3617795275590554
0
LINE
8
BLACK
6
CONTINUOUS
10
8.45799779527559
20
-4.3617795275590554
11
8.3434308661417322
21
-4.3617795275590554
0
LINE
8
BLACK
6
CONTINUOUS
10
5.8121089370078742
20
-4.3503505118110235
11
5.812641614173228
21
-4.3508831889763782
0
LINE
8
BLACK
6
CONTINUOUS
10
5.812641614173228
20
-4.3508831889763782
11
5.8127165354330703
21
-4.3512598425196849
0
LINE
8
BLACK
6
CONTINUOUS
10
5.8127165354330703
20
-4.3512598425196849
11
5.8127165354330703
21
-4.4087401574803149
0
LINE
8
BLACK
6
CONTINUOUS
10
5.8127165354330703
20
-4.4087401574803149
11
5.812641614173228
21
-4.4091168110236216
0
LINE
8
BLACK
6
CONTINUOUS
10
5.812641614173228
20
-4.4091168110236216
11
5.8121089370078742
21
-4.4096494881889763
0
LINE
8
BLACK
6
CONTINUOUS
10
5.8121089370078742
20
-4.4096494881889763
11
5.8117322834645666
21
-4.4097244094488186
0
LINE
8
BLACK
6
CONTINUOUS
10
5.8117322834645666
20
-4.4097244094488186
11
5.6951968503937005
21
-4.4097244094488186
0
LINE
8
BLACK
6
CONTINUOUS
10
5.6951968503937005
20
-4.4097244094488186
11
5.6948201968503938
21
-4.4096494881889763
0
LINE
8
BLACK
6
CONTINUOUS
10
5.6948201968503938
20
-4.4096494881889763
11
5.6942875196850391
21
-4.4091168110236216
0
LINE
8
BLACK
6
CONTINUOUS
10
5.6942875196850391
20
-4.4091168110236216
11
5.6942125984251968
21
-4.4087401574803149
0
LINE
8
BLACK
6
CONTINUOUS
10
5.6942125984251968
20
-4.4087401574803149
11
5.6942125984251968
21
-4.3512598425196849
0
LINE
8
BLACK
6
CONTINUOUS
10
5.6942125984251968
20
-4.3512598425196849
11
5.6942875196850391
21
-4.3508831889763782
0
LINE
8
BLACK
6
CONTINUOUS
10
5.6942875196850391
20
-4.3508831889763782
11
5.6948201968503938
21
-4.3503505118110235
0
LINE
8
BLACK
6
CONTINUOUS
10
5.6948201968503938
20
-4.3503505118110235
11
5.6951968503937005
21
-4.3502755905511812
0
LINE
8
BLACK
6
CONTINUOUS
10
5.6951968503937005
20
-4.3502755905511812
11
5.8117322834645666
21
-4.3502755905511812
0
LINE
8
BLACK
6
CONTINUOUS
10
5.8117322834645666
20
-4.3502755905511812
11
5.8121089370078742
21
-4.3503505118110235
0
LINE
8
BLACK
6
CONTINUOUS
10
5.6961811023622042
20
-4.3522440944881886
11
5.6961811023622042
21
-4.4077559055118112
0
LINE
8
BLACK
6
CONTINUOUS
10
5.6961811023622042
20
-4.4077559055118112
11
5.8107480314960629
21
-4.4077559055118112
0
LINE
8
BLACK
6
CONTINUOUS
10
5.8107480314960629
20
-4.4077559055118112
11
5.8107480314960629
21
-4.3522440944881886
0
LINE
8
BLACK
6
CONTINUOUS
10
5.8107480314960629
20
-4.3522440944881886
11
5.6961811023622042
21
-4.3522440944881886
0
LINE
8
BLACK
6
CONTINUOUS
10
6.4826404330708662
20
-4.3103505118110235
11
6.48317311023622
21
-4.3108831889763781
0
LINE
8
BLACK
6
CONTINUOUS
10
6.48317311023622
20
-4.3108831889763781
11
6.4832480314960632
21
-4.3112598425196849
0
LINE
8
BLACK
6
CONTINUOUS
10
6.4832480314960632
20
-4.3112598425196849
11
6.4832480314960632
21
-4.3687401574803149
0
LINE
8
BLACK
6
CONTINUOUS
10
6.4832480314960632
20
-4.3687401574803149
11
6.48317311023622
21
-4.3691168110236216
0
LINE
8
BLACK
6
CONTINUOUS
10
6.48317311023622
20
-4.3691168110236216
11
6.4826404330708662
21
-4.3696494881889762
0
LINE
8
BLACK
6
CONTINUOUS
10
6.4826404330708662
20
-4.3696494881889762
11
6.4822637795275586
21
-4.3697244094488186
0
LINE
8
BLACK
6
CONTINUOUS
10
6.4822637795275586
20
-4.3697244094488186
11
6.3657283464566925
21
-4.3697244094488186
0
LINE
8
BLACK
6
CONTINUOUS
10
6.3657283464566925
20
-4.3697244094488186
11
6.3653516929133858
21
-4.3696494881889762
0
LINE
8
BLACK
6
CONTINUOUS
10
6.3653516929133858
20
-4.3696494881889762
11
6.3648190157480311
21
-4.3691168110236216
0
LINE
8
BLACK
6
CONTINUOUS
10
6.3648190157480311
20
-4.3691168110236216
11
6.3647440944881888
21
-4.3687401574803149
0
LINE
8
BLACK
6
CONTINUOUS
10
6.3647440944881888
20
-4.3687401574803149
11
6.3647440944881888
21
-4.3112598425196849
0
LINE
8
BLACK
6
CONTINUOUS
10
6.3647440944881888
20
-4.3112598425196849
11
6.3648190157480311
21
-4.3108831889763781
0
LINE
8
BLACK
6
CONTINUOUS
10
6.3648190157480311
20
-4.3108831889763781
11
6.3653516929133858
21
-4.3103505118110235
0
LINE
8
BLACK
6
CONTINUOUS
10
6.3653516929133858
20
-4.3103505118110235
11
6.3657283464566925
21
-4.3102755905511811
0
LINE
8
BLACK
6
CONTINUOUS
10
6.3657283464566925
20
-4.3102755905511811
11
6.4822637795275586
21
-4.3102755905511811
0
LINE
8
BLACK
6
CONTINUOUS
10
6.4822637795275586
20
-4.3102755905511811
11
6.4826404330708662
21
-4.3103505118110235
0
LINE
8
BLACK
6
CONTINUOUS
10
6.3667125984251971
20
-4.3122440944881886
11
6.3667125984251971
21
-4.3677559055118111
0
LINE
8
BLACK
6
CONTINUOUS
10
6.3667125984251971
20
-4.3677559055118111
11
6.4812795275590549
21
-4.3677559055118111
0
LINE
8
BLACK
6
CONTINUOUS
10
6.4812795275590549
20
-4.3677559055118111
11
6.4812795275590549
21
-4.3122440944881886
0
LINE
8
BLACK
6
CONTINUOUS
10
6.4812795275590549
20
-4.3122440944881886
11
6.3667125984251971
21
-4.3122440944881886
0
LINE
8
BLACK
6
CONTINUOUS
10
6.6426404330708664
20
-4.3103505118110235
11
6.6431731102362201
21
-4.3108831889763781
0
LINE
8
BLACK
6
CONTINUOUS
10
6.6431731102362201
20
-4.3108831889763781
11
6.6432480314960625
21
-4.3112598425196849
0
LINE
8
BLACK
6
CONTINUOUS
10
6.6432480314960625
20
-4.3112598425196849
11
6.6432480314960625
21
-4.3687401574803149
0
LINE
8
BLACK
6
CONTINUOUS
10
6.6432480314960625
20
-4.3687401574803149
11
6.6431731102362201
21
-4.3691168110236216
0
LINE
8
BLACK
6
CONTINUOUS
10
6.6431731102362201
20
-4.3691168110236216
11
6.6426404330708664
21
-4.3696494881889762
0
LINE
8
BLACK
6
CONTINUOUS
10
6.6426404330708664
20
-4.3696494881889762
11
6.6422637795275588
21
-4.3697244094488186
0
LINE
8
BLACK
6
CONTINUOUS
10
6.6422637795275588
20
-4.3697244094488186
11
6.5257283464566926
21
-4.3697244094488186
0
LINE
8
BLACK
6
CONTINUOUS
10
6.5257283464566926
20
-4.3697244094488186
11
6.5253516929133859
21
-4.3696494881889762
0
LINE
8
BLACK
6
CONTINUOUS
10
6.5253516929133859
20
-4.3696494881889762
11
6.5248190157480312
21
-4.3691168110236216
0
LINE
8
BLACK
6
CONTINUOUS
10
6.5248190157480312
20
-4.3691168110236216
11
6.5247440944881889
21
-4.3687401574803149
0
LINE
8
BLACK
6
CONTINUOUS
10
6.5247440944881889
20
-4.3687401574803149
11
6.5247440944881889
21
-4.3112598425196849
0
LINE
8
BLACK
6
CONTINUOUS
10
6.5247440944881889
20
-4.3112598425196849
11
6.5248190157480312
21
-4.3108831889763781
0
LINE
8
BLACK
6
CONTINUOUS
10
6.5248190157480312
20
-4.3108831889763781
11
6.5253516929133859
21
-4.3103505118110235
0
LINE
8
BLACK
6
CONTINUOUS
10
6.5253516929133859
20
-4.3103505118110235
11
6.5257283464566926
21
-4.3102755905511811
0
LINE
8
BLACK
6
CONTINUOUS
10
6.5257283464566926
20
-4.3102755905511811
11
6.6422637795275588
21
-4.3102755905511811
0
LINE
8
BLACK
6
CONTINUOUS
10
6.6422637795275588
20
-4.3102755905511811
11
6.6426404330708664
21
-4.3103505118110235
0
LINE
8
BLACK
6
CONTINUOUS
10
6.5267125984251964
20
-4.3122440944881886
11
6.5267125984251964
21
-4.3677559055118111
0
LINE
8
BLACK
6
CONTINUOUS
10
6.5267125984251964
20
-4.3677559055118111
11
6.641279527559055
21
-4.3677559055118111
0
LINE
8
BLACK
6
CONTINUOUS
10
6.641279527559055
20
-4.3677559055118111
11
6.641279527559055
21
-4.3122440944881886
0
LINE
8
BLACK
6
CONTINUOUS
10
6.641279527559055
20
-4.3122440944881886
11
6.5267125984251964
21
-4.3122440944881886
0
LINE
8
BLACK
6
CONTINUOUS
10
5.7589593307086613
20
-4.2096615354330709
11
5.7594920078740159
21
-4.2101942125984255
0
LINE
8
BLACK
6
CONTINUOUS
10
5.7594920078740159
20
-4.2101942125984255
11
5.7595669291338583
21
-4.2105708661417323
0
LINE
8
BLACK
6
CONTINUOUS
10
5.7595669291338583
20
-4.2105708661417323
11
5.7595669291338583
21
-4.3444291338582675
0
LINE
8
BLACK
6
CONTINUOUS
10
5.7595669291338583
20
-4.3444291338582675
11
5.7594920078740159
21
-4.3448057874015751
0
LINE
8
BLACK
6
CONTINUOUS
10
5.7594920078740159
20
-4.3448057874015751
11
5.7589593307086613
21
-4.3453384645669288
0
LINE
8
BLACK
6
CONTINUOUS
10
5.7589593307086613
20
-4.3453384645669288
11
5.7585826771653545
21
-4.3454133858267712
0
LINE
8
BLACK
6
CONTINUOUS
10
5.7585826771653545
20
-4.3454133858267712
11
5.6814173228346458
21
-4.3454133858267712
0
LINE
8
BLACK
6
CONTINUOUS
10
5.6814173228346458
20
-4.3454133858267712
11
5.6810406692913382
21
-4.3453384645669288
0
LINE
8
BLACK
6
CONTINUOUS
10
5.6810406692913382
20
-4.3453384645669288
11
5.6805079921259845
21
-4.3448057874015751
0
LINE
8
BLACK
6
CONTINUOUS
10
5.6805079921259845
20
-4.3448057874015751
11
5.6804330708661412
21
-4.3444291338582675
0
LINE
8
BLACK
6
CONTINUOUS
10
5.6804330708661412
20
-4.3444291338582675
11
5.6804330708661412
21
-4.2105708661417323
0
LINE
8
BLACK
6
CONTINUOUS
10
5.6804330708661412
20
-4.2105708661417323
11
5.6805079921259845
21
-4.2101942125984255
0
LINE
8
BLACK
6
CONTINUOUS
10
5.6805079921259845
20
-4.2101942125984255
11
5.6810406692913382
21
-4.2096615354330709
0
LINE
8
BLACK
6
CONTINUOUS
10
5.6810406692913382
20
-4.2096615354330709
11
5.6814173228346458
21
-4.2095866141732285
0
LINE
8
BLACK
6
CONTINUOUS
10
5.6814173228346458
20
-4.2095866141732285
11
5.7585826771653545
21
-4.2095866141732285
0
LINE
8
BLACK
6
CONTINUOUS
10
5.7585826771653545
20
-4.2095866141732285
11
5.7589593307086613
21
-4.2096615354330709
0
LINE
8
BLACK
6
CONTINUOUS
10
5.6824015748031496
20
-4.211555118110236
11
5.6824015748031496
21
-4.3434448818897637
0
LINE
8
BLACK
6
CONTINUOUS
10
5.6824015748031496
20
-4.3434448818897637
11
5.7575984251968499
21
-4.3434448818897637
0
LINE
8
BLACK
6
CONTINUOUS
10
5.7575984251968499
20
-4.3434448818897637
11
5.7575984251968499
21
-4.211555118110236
0
LINE
8
BLACK
6
CONTINUOUS
10
5.7575984251968499
20
-4.211555118110236
11
5.6824015748031496
21
-4.211555118110236
0
LINE
8
BLACK
6
CONTINUOUS
10
8.4593587007874014
20
-4.2610670472440946
11
8.459891377952756
21
-4.2615997244094483
0
LINE
8
BLACK
6
CONTINUOUS
10
8.459891377952756
20
-4.2615997244094483
11
8.4599662992125975
21
-4.261976377952756
0
LINE
8
BLACK
6
CONTINUOUS
10
8.4599662992125975
20
-4.261976377952756
11
8.4599662992125975
21
-4.319456692913386
0
LINE
8
BLACK
6
CONTINUOUS
10
8.4599662992125975
20
-4.319456692913386
11
8.459891377952756
21
-4.3198333464566927
0
LINE
8
BLACK
6
CONTINUOUS
10
8.459891377952756
20
-4.3198333464566927
11
8.4593587007874014
21
-4.3203660236220474
0
LINE
8
BLACK
6
CONTINUOUS
10
8.4593587007874014
20
-4.3203660236220474
11
8.4589820472440937
21
-4.3204409448818897
0
LINE
8
BLACK
6
CONTINUOUS
10
8.4589820472440937
20
-4.3204409448818897
11
8.3424466141732285
21
-4.3204409448818897
0
LINE
8
BLACK
6
CONTINUOUS
10
8.3424466141732285
20
-4.3204409448818897
11
8.3420699606299209
21
-4.3203660236220474
0
LINE
8
BLACK
6
CONTINUOUS
10
8.3420699606299209
20
-4.3203660236220474
11
8.3415372834645662
21
-4.3198333464566927
0
LINE
8
BLACK
6
CONTINUOUS
10
8.3415372834645662
20
-4.3198333464566927
11
8.3414623622047248
21
-4.319456692913386
0
LINE
8
BLACK
6
CONTINUOUS
10
8.3414623622047248
20
-4.319456692913386
11
8.3414623622047248
21
-4.261976377952756
0
LINE
8
BLACK
6
CONTINUOUS
10
8.3414623622047248
20
-4.261976377952756
11
8.3415372834645662
21
-4.2615997244094483
0
LINE
8
BLACK
6
CONTINUOUS
10
8.3415372834645662
20
-4.2615997244094483
11
8.3420699606299209
21
-4.2610670472440946
0
LINE
8
BLACK
6
CONTINUOUS
10
8.3420699606299209
20
-4.2610670472440946
11
8.3424466141732285
21
-4.2609921259842523
0
LINE
8
BLACK
6
CONTINUOUS
10
8.3424466141732285
20
-4.2609921259842523
11
8.4589820472440937
21
-4.2609921259842523
0
LINE
8
BLACK
6
CONTINUOUS
10
8.4589820472440937
20
-4.2609921259842523
11
8.4593587007874014
21
-4.2610670472440946
0
LINE
8
BLACK
6
CONTINUOUS
10
8.3434308661417322
20
-4.2629606299212597
11
8.3434308661417322
21
-4.3184724409448814
0
LINE
8
BLACK
6
CONTINUOUS
10
8.3434308661417322
20
-4.3184724409448814
11
8.45799779527559
21
-4.3184724409448814
0
LINE
8
BLACK
6
CONTINUOUS
10
8.45799779527559
20
-4.3184724409448814
11
8.45799779527559
21
-4.2629606299212597
0
LINE
8
BLACK
6
CONTINUOUS
10
8.45799779527559
20
-4.2629606299212597
11
8.3434308661417322
21
-4.2629606299212597
0
LINE
8
BLACK
6
CONTINUOUS
10
5.8599357086614168
20
-4.2098780708661421
11
5.8604683858267714
21
-4.2104107480314958
0
LINE
8
BLACK
6
CONTINUOUS
10
5.8604683858267714
20
-4.2104107480314958
11
5.8605433070866138
21
-4.2107874015748035
0
LINE
8
BLACK
6
CONTINUOUS
10
5.8605433070866138
20
-4.2107874015748035
11
5.8605433070866138
21
-4.309212598425197
0
LINE
8
BLACK
6
CONTINUOUS
10
5.8605433070866138
20
-4.309212598425197
11
5.8604683858267714
21
-4.3095892519685037
0
LINE
8
BLACK
6
CONTINUOUS
10
5.8604683858267714
20
-4.3095892519685037
11
5.8599357086614168
21
-4.3101219291338584
0
LINE
8
BLACK
6
CONTINUOUS
10
5.8599357086614168
20
-4.3101219291338584
11
5.85955905511811
21
-4.3101968503937007
0
LINE
8
BLACK
6
CONTINUOUS
10
5.85955905511811
20
-4.3101968503937007
11
5.8044409448818897
21
-4.3101968503937007
0
LINE
8
BLACK
6
CONTINUOUS
10
5.8044409448818897
20
-4.3101968503937007
11
5.8040642913385829
21
-4.3101219291338584
0
LINE
8
BLACK
6
CONTINUOUS
10
5.8040642913385829
20
-4.3101219291338584
11
5.8035316141732283
21
-4.3095892519685037
0
LINE
8
BLACK
6
CONTINUOUS
10
5.8035316141732283
20
-4.3095892519685037
11
5.803456692913386
21
-4.309212598425197
0
LINE
8
BLACK
6
CONTINUOUS
10
5.803456692913386
20
-4.309212598425197
11
5.803456692913386
21
-4.2107874015748035
0
LINE
8
BLACK
6
CONTINUOUS
10
5.803456692913386
20
-4.2107874015748035
11
5.8035316141732283
21
-4.2104107480314958
0
LINE
8
BLACK
6
CONTINUOUS
10
5.8035316141732283
20
-4.2104107480314958
11
5.8040642913385829
21
-4.2098780708661421
0
LINE
8
BLACK
6
CONTINUOUS
10
5.8040642913385829
20
-4.2098780708661421
11
5.8044409448818897
21
-4.2098031496062989
0
LINE
8
BLACK
6
CONTINUOUS
10
5.8044409448818897
20
-4.2098031496062989
11
5.85955905511811
21
-4.2098031496062989
0
LINE
8
BLACK
6
CONTINUOUS
10
5.85955905511811
20
-4.2098031496062989
11
5.8599357086614168
21
-4.2098780708661421
0
LINE
8
BLACK
6
CONTINUOUS
10
5.8054251968503934
20
-4.2117716535433072
11
5.8054251968503934
21
-4.3082283464566924
0
LINE
8
BLACK
6
CONTINUOUS
10
5.8054251968503934
20
-4.3082283464566924
11
5.8585748031496063
21
-4.3082283464566924
0
LINE
8
BLACK
6
CONTINUOUS
10
5.8585748031496063
20
-4.3082283464566924
11
5.8585748031496063
21
-4.2117716535433072
0
LINE
8
BLACK
6
CONTINUOUS
10
5.8585748031496063
20
-4.2117716535433072
11
5.8054251968503934
21
-4.2117716535433072
0
LINE
8
BLACK
6
CONTINUOUS
10
8.4593587007874014
20
-4.1622481496062989
11
8.459891377952756
21
-4.1627808267716535
0
LINE
8
BLACK
6
CONTINUOUS
10
8.459891377952756
20
-4.1627808267716535
11
8.4599662992125975
21
-4.1631574803149602
0
LINE
8
BLACK
6
CONTINUOUS
10
8.4599662992125975
20
-4.1631574803149602
11
8.4599662992125975
21
-4.2206377952755902
0
LINE
8
BLACK
6
CONTINUOUS
10
8.4599662992125975
20
-4.2206377952755902
11
8.459891377952756
21
-4.2210144488188979
0
LINE
8
BLACK
6
CONTINUOUS
10
8.459891377952756
20
-4.2210144488188979
11
8.4593587007874014
21
-4.2215471259842516
0
LINE
8
BLACK
6
CONTINUOUS
10
8.4593587007874014
20
-4.2215471259842516
11
8.4589820472440937
21
-4.221622047244094
0
LINE
8
BLACK
6
CONTINUOUS
10
8.4589820472440937
20
-4.221622047244094
11
8.3424466141732285
21
-4.221622047244094
0
LINE
8
BLACK
6
CONTINUOUS
10
8.3424466141732285
20
-4.221622047244094
11
8.3420699606299209
21
-4.2215471259842516
0
LINE
8
BLACK
6
CONTINUOUS
10
8.3420699606299209
20
-4.2215471259842516
11
8.3415372834645662
21
-4.2210144488188979
0
LINE
8
BLACK
6
CONTINUOUS
10
8.3415372834645662
20
-4.2210144488188979
11
8.3414623622047248
21
-4.2206377952755902
0
LINE
8
BLACK
6
CONTINUOUS
10
8.3414623622047248
20
-4.2206377952755902
11
8.3414623622047248
21
-4.1631574803149602
0
LINE
8
BLACK
6
CONTINUOUS
10
8.3414623622047248
20
-4.1631574803149602
11
8.3415372834645662
21
-4.1627808267716535
0
LINE
8
BLACK
6
CONTINUOUS
10
8.3415372834645662
20
-4.1627808267716535
11
8.3420699606299209
21
-4.1622481496062989
0
LINE
8
BLACK
6
CONTINUOUS
10
8.3420699606299209
20
-4.1622481496062989
11
8.3424466141732285
21
-4.1621732283464565
0
LINE
8
BLACK
6
CONTINUOUS
10
8.3424466141732285
20
-4.1621732283464565
11
8.4589820472440937
21
-4.1621732283464565
0
LINE
8
BLACK
6
CONTINUOUS
10
8.4589820472440937
20
-4.1621732283464565
11
8.4593587007874014
21
-4.1622481496062989
0
LINE
8
BLACK
6
CONTINUOUS
10
8.3434308661417322
20
-4.1641417322834648
11
8.3434308661417322
21
-4.2196535433070865
0
LINE
8
BLACK
6
CONTINUOUS
10
8.3434308661417322
20
-4.2196535433070865
11
8.45799779527559
21
-4.2196535433070865
0
LINE
8
BLACK
6
CONTINUOUS
10
8.45799779527559
20
-4.2196535433070865
11
8.45799779527559
21
-4.1641417322834648
0
LINE
8
BLACK
6
CONTINUOUS
10
8.45799779527559
20
-4.1641417322834648
11
8.3434308661417322
21
-4.1641417322834648
0
LINE
8
BLACK
6
CONTINUOUS
10
8.4593587007874014
20
-4.063429251968504
11
8.459891377952756
21
-4.0639619291338578
0
LINE
8
BLACK
6
CONTINUOUS
10
8.459891377952756
20
-4.0639619291338578
11
8.4599662992125975
21
-4.0643385826771654
0
LINE
8
BLACK
6
CONTINUOUS
10
8.4599662992125975
20
-4.0643385826771654
11
8.4599662992125975
21
-4.1218188976377954
0
LINE
8
BLACK
6
CONTINUOUS
10
8.4599662992125975
20
-4.1218188976377954
11
8.459891377952756
21
-4.1221955511811021
0
LINE
8
BLACK
6
CONTINUOUS
10
8.459891377952756
20
-4.1221955511811021
11
8.4593587007874014
21
-4.1227282283464568
0
LINE
8
BLACK
6
CONTINUOUS
10
8.4593587007874014
20
-4.1227282283464568
11
8.4589820472440937
21
-4.1228031496062991
0
LINE
8
BLACK
6
CONTINUOUS
10
8.4589820472440937
20
-4.1228031496062991
11
8.3424466141732285
21
-4.1228031496062991
0
LINE
8
BLACK
6
CONTINUOUS
10
8.3424466141732285
20
-4.1228031496062991
11
8.3420699606299209
21
-4.1227282283464568
0
LINE
8
BLACK
6
CONTINUOUS
10
8.3420699606299209
20
-4.1227282283464568
11
8.3415372834645662
21
-4.1221955511811021
0
LINE
8
BLACK
6
CONTINUOUS
10
8.3415372834645662
20
-4.1221955511811021
11
8.3414623622047248
21
-4.1218188976377954
0
LINE
8
BLACK
6
CONTINUOUS
10
8.3414623622047248
20
-4.1218188976377954
11
8.3414623622047248
21
-4.0643385826771654
0
LINE
8
BLACK
6
CONTINUOUS
10
8.3414623622047248
20
-4.0643385826771654
11
8.3415372834645662
21
-4.0639619291338578
0
LINE
8
BLACK
6
CONTINUOUS
10
8.3415372834645662
20
-4.0639619291338578
11
8.3420699606299209
21
-4.063429251968504
0
LINE
8
BLACK
6
CONTINUOUS
10
8.3420699606299209
20
-4.063429251968504
11
8.3424466141732285
21
-4.0633543307086617
0
LINE
8
BLACK
6
CONTINUOUS
10
8.3424466141732285
20
-4.0633543307086617
11
8.4589820472440937
21
-4.0633543307086617
0
LINE
8
BLACK
6
CONTINUOUS
10
8.4589820472440937
20
-4.0633543307086617
11
8.4593587007874014
21
-4.063429251968504
0
LINE
8
BLACK
6
CONTINUOUS
10
8.3434308661417322
20
-4.0653228346456691
11
8.3434308661417322
21
-4.1208346456692908
0
LINE
8
BLACK
6
CONTINUOUS
10
8.3434308661417322
20
-4.1208346456692908
11
8.45799779527559
21
-4.1208346456692908
0
LINE
8
BLACK
6
CONTINUOUS
10
8.45799779527559
20
-4.1208346456692908
11
8.45799779527559
21
-4.0653228346456691
0
LINE
8
BLACK
6
CONTINUOUS
10
8.45799779527559
20
-4.0653228346456691
11
8.3434308661417322
21
-4.0653228346456691
0
LINE
8
BLACK
6
CONTINUOUS
10
8.4593587007874014
20
-3.9646103543307087
11
8.459891377952756
21
-3.965143031496063
0
LINE
8
BLACK
6
CONTINUOUS
10
8.459891377952756
20
-3.965143031496063
11
8.4599662992125975
21
-3.9655196850393701
0
LINE
8
BLACK
6
CONTINUOUS
10
8.4599662992125975
20
-3.9655196850393701
11
8.4599662992125975
21
-4.0229999999999997
0
LINE
8
BLACK
6
CONTINUOUS
10
8.4599662992125975
20
-4.0229999999999997
11
8.459891377952756
21
-4.0233766535433073
0
LINE
8
BLACK
6
CONTINUOUS
10
8.459891377952756
20
-4.0233766535433073
11
8.4593587007874014
21
-4.0239093307086611
0
LINE
8
BLACK
6
CONTINUOUS
10
8.4593587007874014
20
-4.0239093307086611
11
8.4589820472440937
21
-4.0239842519685043
0
LINE
8
BLACK
6
CONTINUOUS
10
8.4589820472440937
20
-4.0239842519685043
11
8.3424466141732285
21
-4.0239842519685043
0
LINE
8
BLACK
6
CONTINUOUS
10
8.3424466141732285
20
-4.0239842519685043
11
8.3420699606299209
21
-4.0239093307086611
0
LINE
8
BLACK
6
CONTINUOUS
10
8.3420699606299209
20
-4.0239093307086611
11
8.3415372834645662
21
-4.0233766535433073
0
LINE
8
BLACK
6
CONTINUOUS
10
8.3415372834645662
20
-4.0233766535433073
11
8.3414623622047248
21
-4.0229999999999997
0
LINE
8
BLACK
6
CONTINUOUS
10
8.3414623622047248
20
-4.0229999999999997
11
8.3414623622047248
21
-3.9655196850393701
0
LINE
8
BLACK
6
CONTINUOUS
10
8.3414623622047248
20
-3.9655196850393701
11
8.3415372834645662
21
-3.965143031496063
0
LINE
8
BLACK
6
CONTINUOUS
10
8.3415372834645662
20
-3.965143031496063
11
8.3420699606299209
21
-3.9646103543307087
0
LINE
8
BLACK
6
CONTINUOUS
10
8.3420699606299209
20
-3.9646103543307087
11
8.3424466141732285
21
-3.964535433070866
0
LINE
8
BLACK
6
CONTINUOUS
10
8.3424466141732285
20
-3.964535433070866
11
8.4589820472440937
21
-3.964535433070866
0
LINE
8
BLACK
6
CONTINUOUS
10
8.4589820472440937
20
-3.964535433070866
11
8.4593587007874014
21
-3.9646103543307087
0
LINE
8
BLACK
6
CONTINUOUS
10
8.3434308661417322
20
-3.9665039370078738
11
8.3434308661417322
21
-4.022015748031496
0
LINE
8
BLACK
6
CONTINUOUS
10
8.3434308661417322
20
-4.022015748031496
11
8.45799779527559
21
-4.022015748031496
0
LINE
8
BLACK
6
CONTINUOUS
10
8.45799779527559
20
-4.022015748031496
11
8.45799779527559
21
-3.9665039370078738
0
LINE
8
BLACK
6
CONTINUOUS
10
8.45799779527559
20
-3.9665039370078738
11
8.3434308661417322
21
-3.9665039370078738
0
CIRCLE
8
BLACK
10
6.10548031496063
20
-3.3428346456692912
40
0.0068897637795276
0
CIRCLE
8
BLACK
10
6.7054803149606297
20
-3.3428346456692912
40
0.0068897637795276
0
CIRCLE
8
BLACK
10
6.7054803149606297
20
-3.0428346456692914
40
0.0068897637795276
0
CIRCLE
8
BLACK
10
6.10548031496063
20
-3.0428346456692914
40
0.0068897637795276
0
CIRCLE
8
BLACK
10
5.8585826771653542
20
-4.6730708661417326
40
0.0039370078740157
0
CIRCLE
8
BLACK
10
5.8999212598425199
20
-4.6730708661417326
40
0.0039370078740157
0
CIRCLE
8
BLACK
10
5.9412598425196848
20
-4.6730708661417326
40
0.0039370078740157
0
CIRCLE
8
BLACK
10
5.8585826771653542
20
-4.6317322834645669
40
0.0039370078740157
0
CIRCLE
8
BLACK
10
5.8999212598425199
20
-4.6317322834645669
40
0.0039370078740157
0
CIRCLE
8
BLACK
10
5.9412598425196848
20
-4.6317322834645669
40
0.0039370078740157
0
CIRCLE
8
BLACK
10
5.8585826771653542
20
-4.5903937007874012
40
0.0039370078740157
0
CIRCLE
8
BLACK
10
5.8999212598425199
20
-4.5903937007874012
40
0.0039370078740157
0
CIRCLE
8
BLACK
10
5.9412598425196848
20
-4.5903937007874012
40
0.0039370078740157
  0
ENDSEC
  0
EOF
