  0
SECTION
  2
HEADER
  9
$ANGBASE
  50
0.0
  9
$ANGDIR
  70
1
  9
$MEASUREMENT
  70
0
  0
ENDSEC
  0
SECTION
  2
TABLES
  0
TABLE
  2
LTYPE
  70
4
  0
LTYPE
  5
40F
  2
CONTINUOUS
  70
0
  3
Solid line
  72
65
  73
0
  40
0.0
  0
LTYPE
  5
410
  2
DASHDOT
 70
0
  3
Dash Dot ____ _ ____ _
 72
65
 73
4
 40
2.0
 49
1.25
 49
-0.25
 49
0.25
 49
-0.25
  0
LTYPE
  5
411
  2
DASHED
 70
0
  3
Dashed __ __ __ __ __
 72
65
 73
2
 40
0.75
 49
0.5
 49
-0.25
  0
LTYPE
  5
43B
  2
DOTTED
 70
0
  3
Dotted .  .  .  .
 72
65
 73
2
 40
0.2
 49
0.0
 49
-0.2
  0
ENDTAB
  0
TABLE
  2
STYLE
  70
4
  0
STYLE
  2
KICAD
  70
0
  40
0
  41
1
  42
1
  50
0
  71
0
  3
isocp.shx
  0
STYLE
  2
KICADB
  70
0
  40
0
  41
1
  42
1
  50
0
  71
0
  3
isocp.shx
  0
STYLE
  2
KICADI
  70
0
  40
0
  41
1
  42
1
  50
15
  71
0
  3
isocp.shx
  0
STYLE
  2
KICADBI
  70
0
  40
0
  41
1
  42
1
  50
15
  71
0
  3
isocp.shx
  0
ENDTAB
  0
TABLE
  2
LAYER
  70
1
  0
LAYER
  2
BLACK
  70
0
  62
7
  6
CONTINUOUS
  0
ENDTAB
  0
ENDSEC
  0
SECTION
  2
ENTITIES
0
LINE
8
BLACK
6
CONTINUOUS
10
7.0477175196850395
20
-4.6601696850393699
11
7.0566664173228348
21
-4.6625675196850391
0
LINE
8
BLACK
6
CONTINUOUS
10
7.0566664173228348
20
-4.6625675196850391
11
7.0650629921259842
21
-4.6664829133858268
0
LINE
8
BLACK
6
CONTINUOUS
10
7.0650629921259842
20
-4.6664829133858268
11
7.0726520866141733
21
-4.6717968503937009
0
LINE
8
BLACK
6
CONTINUOUS
10
7.0726520866141733
20
-4.6717968503937009
11
7.0792031496062995
21
-4.678347913385827
0
LINE
8
BLACK
6
CONTINUOUS
10
7.0792031496062995
20
-4.678347913385827
11
7.0845170866141727
21
-4.6859370078740152
0
LINE
8
BLACK
6
CONTINUOUS
10
7.0845170866141727
20
-4.6859370078740152
11
7.0884324803149603
21
-4.6943335826771655
0
LINE
8
BLACK
6
CONTINUOUS
10
7.0884324803149603
20
-4.6943335826771655
11
7.0908303149606295
21
-4.7032824803149609
0
LINE
8
BLACK
6
CONTINUOUS
10
7.0908303149606295
20
-4.7032824803149609
11
7.0916377952755907
21
-4.7125118110236217
0
LINE
8
BLACK
6
CONTINUOUS
10
7.0916377952755907
20
-4.7125118110236217
11
7.0908303149606295
21
-4.7217411417322834
0
LINE
8
BLACK
6
CONTINUOUS
10
7.0908303149606295
20
-4.7217411417322834
11
7.0884324803149603
21
-4.7306900393700788
0
LINE
8
BLACK
6
CONTINUOUS
10
7.0884324803149603
20
-4.7306900393700788
11
7.0845170866141727
21
-4.7390866141732282
0
LINE
8
BLACK
6
CONTINUOUS
10
7.0845170866141727
20
-4.7390866141732282
11
7.0792031496062995
21
-4.7466757086614173
0
LINE
8
BLACK
6
CONTINUOUS
10
7.0792031496062995
20
-4.7466757086614173
11
7.0726520866141733
21
-4.7532267716535435
0
LINE
8
BLACK
6
CONTINUOUS
10
7.0726520866141733
20
-4.7532267716535435
11
7.0650629921259842
21
-4.7585407086614175
0
LINE
8
BLACK
6
CONTINUOUS
10
7.0650629921259842
20
-4.7585407086614175
11
7.0566664173228348
21
-4.7624561023622043
0
LINE
8
BLACK
6
CONTINUOUS
10
7.0566664173228348
20
-4.7624561023622043
11
7.0477175196850395
21
-4.7648539370078735
0
LINE
8
BLACK
6
CONTINUOUS
10
7.0477175196850395
20
-4.7648539370078735
11
7.0384881889763777
21
-4.7656614173228347
0
LINE
8
BLACK
6
CONTINUOUS
10
7.0384881889763777
20
-4.7656614173228347
11
7.029258858267716
21
-4.7648539370078735
0
LINE
8
BLACK
6
CONTINUOUS
10
7.029258858267716
20
-4.7648539370078735
11
7.0203099606299215
21
-4.7624561023622043
0
LINE
8
BLACK
6
CONTINUOUS
10
7.0203099606299215
20
-4.7624561023622043
11
7.0119133858267713
21
-4.7585407086614175
0
LINE
8
BLACK
6
CONTINUOUS
10
7.0119133858267713
20
-4.7585407086614175
11
7.0043242913385821
21
-4.7532267716535435
0
LINE
8
BLACK
6
CONTINUOUS
10
7.0043242913385821
20
-4.7532267716535435
11
6.9977732283464569
21
-4.7466757086614173
0
LINE
8
BLACK
6
CONTINUOUS
10
6.9977732283464569
20
-4.7466757086614173
11
6.9924592913385828
21
-4.7390866141732282
0
LINE
8
BLACK
6
CONTINUOUS
10
6.9924592913385828
20
-4.7390866141732282
11
6.9885438976377952
21
-4.7306900393700788
0
LINE
8
BLACK
6
CONTINUOUS
10
6.9885438976377952
20
-4.7306900393700788
11
6.9861460629921259
21
-4.7217411417322834
0
LINE
8
BLACK
6
CONTINUOUS
10
6.9861460629921259
20
-4.7217411417322834
11
6.9853385826771648
21
-4.7125118110236217
0
LINE
8
BLACK
6
CONTINUOUS
10
6.9853385826771648
20
-4.7125118110236217
11
6.9861460629921259
21
-4.7032824803149609
0
LINE
8
BLACK
6
CONTINUOUS
10
6.9861460629921259
20
-4.7032824803149609
11
6.9885438976377952
21
-4.6943335826771655
0
LINE
8
BLACK
6
CONTINUOUS
10
6.9885438976377952
20
-4.6943335826771655
11
6.9924592913385828
21
-4.6859370078740152
0
LINE
8
BLACK
6
CONTINUOUS
10
6.9924592913385828
20
-4.6859370078740152
11
6.9977732283464569
21
-4.678347913385827
0
LINE
8
BLACK
6
CONTINUOUS
10
6.9977732283464569
20
-4.678347913385827
11
7.0043242913385821
21
-4.6717968503937009
0
LINE
8
BLACK
6
CONTINUOUS
10
7.0043242913385821
20
-4.6717968503937009
11
7.0119133858267713
21
-4.6664829133858268
0
LINE
8
BLACK
6
CONTINUOUS
10
7.0119133858267713
20
-4.6664829133858268
11
7.0203099606299215
21
-4.6625675196850391
0
LINE
8
BLACK
6
CONTINUOUS
10
7.0203099606299215
20
-4.6625675196850391
11
7.029258858267716
21
-4.6601696850393699
0
LINE
8
BLACK
6
CONTINUOUS
10
7.029258858267716
20
-4.6601696850393699
11
7.0384881889763777
21
-4.6593622047244097
0
LINE
8
BLACK
6
CONTINUOUS
10
7.0384881889763777
20
-4.6593622047244097
11
7.0477175196850395
21
-4.6601696850393699
0
LINE
8
BLACK
6
CONTINUOUS
10
7.2477175196850396
20
-4.6601696850393699
11
7.2566664173228341
21
-4.6625675196850391
0
LINE
8
BLACK
6
CONTINUOUS
10
7.2566664173228341
20
-4.6625675196850391
11
7.2650629921259844
21
-4.6664829133858268
0
LINE
8
BLACK
6
CONTINUOUS
10
7.2650629921259844
20
-4.6664829133858268
11
7.2726520866141735
21
-4.6717968503937009
0
LINE
8
BLACK
6
CONTINUOUS
10
7.2726520866141735
20
-4.6717968503937009
11
7.2792031496062988
21
-4.678347913385827
0
LINE
8
BLACK
6
CONTINUOUS
10
7.2792031496062988
20
-4.678347913385827
11
7.2845170866141729
21
-4.6859370078740152
0
LINE
8
BLACK
6
CONTINUOUS
10
7.2845170866141729
20
-4.6859370078740152
11
7.2884324803149605
21
-4.6943335826771655
0
LINE
8
BLACK
6
CONTINUOUS
10
7.2884324803149605
20
-4.6943335826771655
11
7.2908303149606297
21
-4.7032824803149609
0
LINE
8
BLACK
6
CONTINUOUS
10
7.2908303149606297
20
-4.7032824803149609
11
7.29163779527559
21
-4.7125118110236217
0
LINE
8
BLACK
6
CONTINUOUS
10
7.29163779527559
20
-4.7125118110236217
11
7.2908303149606297
21
-4.7217411417322834
0
LINE
8
BLACK
6
CONTINUOUS
10
7.2908303149606297
20
-4.7217411417322834
11
7.2884324803149605
21
-4.7306900393700788
0
LINE
8
BLACK
6
CONTINUOUS
10
7.2884324803149605
20
-4.7306900393700788
11
7.2845170866141729
21
-4.7390866141732282
0
LINE
8
BLACK
6
CONTINUOUS
10
7.2845170866141729
20
-4.7390866141732282
11
7.2792031496062988
21
-4.7466757086614173
0
LINE
8
BLACK
6
CONTINUOUS
10
7.2792031496062988
20
-4.7466757086614173
11
7.2726520866141735
21
-4.7532267716535435
0
LINE
8
BLACK
6
CONTINUOUS
10
7.2726520866141735
20
-4.7532267716535435
11
7.2650629921259844
21
-4.7585407086614175
0
LINE
8
BLACK
6
CONTINUOUS
10
7.2650629921259844
20
-4.7585407086614175
11
7.2566664173228341
21
-4.7624561023622043
0
LINE
8
BLACK
6
CONTINUOUS
10
7.2566664173228341
20
-4.7624561023622043
11
7.2477175196850396
21
-4.7648539370078735
0
LINE
8
BLACK
6
CONTINUOUS
10
7.2477175196850396
20
-4.7648539370078735
11
7.2384881889763779
21
-4.7656614173228347
0
LINE
8
BLACK
6
CONTINUOUS
10
7.2384881889763779
20
-4.7656614173228347
11
7.2292588582677162
21
-4.7648539370078735
0
LINE
8
BLACK
6
CONTINUOUS
10
7.2292588582677162
20
-4.7648539370078735
11
7.2203099606299208
21
-4.7624561023622043
0
LINE
8
BLACK
6
CONTINUOUS
10
7.2203099606299208
20
-4.7624561023622043
11
7.2119133858267714
21
-4.7585407086614175
0
LINE
8
BLACK
6
CONTINUOUS
10
7.2119133858267714
20
-4.7585407086614175
11
7.2043242913385823
21
-4.7532267716535435
0
LINE
8
BLACK
6
CONTINUOUS
10
7.2043242913385823
20
-4.7532267716535435
11
7.1977732283464562
21
-4.7466757086614173
0
LINE
8
BLACK
6
CONTINUOUS
10
7.1977732283464562
20
-4.7466757086614173
11
7.1924592913385821
21
-4.7390866141732282
0
LINE
8
BLACK
6
CONTINUOUS
10
7.1924592913385821
20
-4.7390866141732282
11
7.1885438976377953
21
-4.7306900393700788
0
LINE
8
BLACK
6
CONTINUOUS
10
7.1885438976377953
20
-4.7306900393700788
11
7.1861460629921261
21
-4.7217411417322834
0
LINE
8
BLACK
6
CONTINUOUS
10
7.1861460629921261
20
-4.7217411417322834
11
7.185338582677165
21
-4.7125118110236217
0
LINE
8
BLACK
6
CONTINUOUS
10
7.185338582677165
20
-4.7125118110236217
11
7.1861460629921261
21
-4.7032824803149609
0
LINE
8
BLACK
6
CONTINUOUS
10
7.1861460629921261
20
-4.7032824803149609
11
7.1885438976377953
21
-4.6943335826771655
0
LINE
8
BLACK
6
CONTINUOUS
10
7.1885438976377953
20
-4.6943335826771655
11
7.1924592913385821
21
-4.6859370078740152
0
LINE
8
BLACK
6
CONTINUOUS
10
7.1924592913385821
20
-4.6859370078740152
11
7.1977732283464562
21
-4.678347913385827
0
LINE
8
BLACK
6
CONTINUOUS
10
7.1977732283464562
20
-4.678347913385827
11
7.2043242913385823
21
-4.6717968503937009
0
LINE
8
BLACK
6
CONTINUOUS
10
7.2043242913385823
20
-4.6717968503937009
11
7.2119133858267714
21
-4.6664829133858268
0
LINE
8
BLACK
6
CONTINUOUS
10
7.2119133858267714
20
-4.6664829133858268
11
7.2203099606299208
21
-4.6625675196850391
0
LINE
8
BLACK
6
CONTINUOUS
10
7.2203099606299208
20
-4.6625675196850391
11
7.2292588582677162
21
-4.6601696850393699
0
LINE
8
BLACK
6
CONTINUOUS
10
7.2292588582677162
20
-4.6601696850393699
11
7.2384881889763779
21
-4.6593622047244097
0
LINE
8
BLACK
6
CONTINUOUS
10
7.2384881889763779
20
-4.6593622047244097
11
7.2477175196850396
21
-4.6601696850393699
0
LINE
8
BLACK
6
CONTINUOUS
10
7.147033858267716
20
-4.5640468503937006
11
7.1553198818897634
21
-4.5662670866141735
0
LINE
8
BLACK
6
CONTINUOUS
10
7.1553198818897634
20
-4.5662670866141735
11
7.1630944881889764
21
-4.5698924409448818
0
LINE
8
BLACK
6
CONTINUOUS
10
7.1630944881889764
20
-4.5698924409448818
11
7.1701214566929128
21
-4.5748127559055121
0
LINE
8
BLACK
6
CONTINUOUS
10
7.1701214566929128
20
-4.5748127559055121
11
7.1761872440944883
21
-4.5808785433070867
0
LINE
8
BLACK
6
CONTINUOUS
10
7.1761872440944883
20
-4.5808785433070867
11
7.1811075590551177
21
-4.5879055118110239
0
LINE
8
BLACK
6
CONTINUOUS
10
7.1811075590551177
20
-4.5879055118110239
11
7.1847329133858269
21
-4.595680118110236
0
LINE
8
BLACK
6
CONTINUOUS
10
7.1847329133858269
20
-4.595680118110236
11
7.1869531496062988
21
-4.6039661417322835
0
LINE
8
BLACK
6
CONTINUOUS
10
7.1869531496062988
20
-4.6039661417322835
11
7.1877007874015746
21
-4.6125118110236221
0
LINE
8
BLACK
6
CONTINUOUS
10
7.1877007874015746
20
-4.6125118110236221
11
7.1869531496062988
21
-4.6210574803149607
0
LINE
8
BLACK
6
CONTINUOUS
10
7.1869531496062988
20
-4.6210574803149607
11
7.1847329133858269
21
-4.6293435039370081
0
LINE
8
BLACK
6
CONTINUOUS
10
7.1847329133858269
20
-4.6293435039370081
11
7.1811075590551177
21
-4.6371181102362202
0
LINE
8
BLACK
6
CONTINUOUS
10
7.1811075590551177
20
-4.6371181102362202
11
7.1761872440944883
21
-4.6441450787401575
0
LINE
8
BLACK
6
CONTINUOUS
10
7.1761872440944883
20
-4.6441450787401575
11
7.1701214566929128
21
-4.6502108661417321
0
LINE
8
BLACK
6
CONTINUOUS
10
7.1701214566929128
20
-4.6502108661417321
11
7.1630944881889764
21
-4.6551311811023623
0
LINE
8
BLACK
6
CONTINUOUS
10
7.1630944881889764
20
-4.6551311811023623
11
7.1553198818897634
21
-4.6587565354330707
0
LINE
8
BLACK
6
CONTINUOUS
10
7.1553198818897634
20
-4.6587565354330707
11
7.147033858267716
21
-4.6609767716535435
0
LINE
8
BLACK
6
CONTINUOUS
10
7.147033858267716
20
-4.6609767716535435
11
7.1384881889763774
21
-4.6617244094488184
0
LINE
8
BLACK
6
CONTINUOUS
10
7.1384881889763774
20
-4.6617244094488184
11
7.1299425196850388
21
-4.6609767716535435
0
LINE
8
BLACK
6
CONTINUOUS
10
7.1299425196850388
20
-4.6609767716535435
11
7.1216564960629922
21
-4.6587565354330707
0
LINE
8
BLACK
6
CONTINUOUS
10
7.1216564960629922
20
-4.6587565354330707
11
7.1138818897637792
21
-4.6551311811023623
0
LINE
8
BLACK
6
CONTINUOUS
10
7.1138818897637792
20
-4.6551311811023623
11
7.106854921259842
21
-4.6502108661417321
0
LINE
8
BLACK
6
CONTINUOUS
10
7.106854921259842
20
-4.6502108661417321
11
7.1007891338582674
21
-4.6441450787401575
0
LINE
8
BLACK
6
CONTINUOUS
10
7.1007891338582674
20
-4.6441450787401575
11
7.095868818897638
21
-4.6371181102362202
0
LINE
8
BLACK
6
CONTINUOUS
10
7.095868818897638
20
-4.6371181102362202
11
7.0922434645669288
21
-4.6293435039370081
0
LINE
8
BLACK
6
CONTINUOUS
10
7.0922434645669288
20
-4.6293435039370081
11
7.0900232283464568
21
-4.6210574803149607
0
LINE
8
BLACK
6
CONTINUOUS
10
7.0900232283464568
20
-4.6210574803149607
11
7.0892755905511811
21
-4.6125118110236221
0
LINE
8
BLACK
6
CONTINUOUS
10
7.0892755905511811
20
-4.6125118110236221
11
7.0900232283464568
21
-4.6039661417322835
0
LINE
8
BLACK
6
CONTINUOUS
10
7.0900232283464568
20
-4.6039661417322835
11
7.0922434645669288
21
-4.595680118110236
0
LINE
8
BLACK
6
CONTINUOUS
10
7.0922434645669288
20
-4.595680118110236
11
7.095868818897638
21
-4.5879055118110239
0
LINE
8
BLACK
6
CONTINUOUS
10
7.095868818897638
20
-4.5879055118110239
11
7.1007891338582674
21
-4.5808785433070867
0
LINE
8
BLACK
6
CONTINUOUS
10
7.1007891338582674
20
-4.5808785433070867
11
7.106854921259842
21
-4.5748127559055121
0
LINE
8
BLACK
6
CONTINUOUS
10
7.106854921259842
20
-4.5748127559055121
11
7.1138818897637792
21
-4.5698924409448818
0
LINE
8
BLACK
6
CONTINUOUS
10
7.1138818897637792
20
-4.5698924409448818
11
7.1216564960629922
21
-4.5662670866141735
0
LINE
8
BLACK
6
CONTINUOUS
10
7.1216564960629922
20
-4.5662670866141735
11
7.1299425196850388
21
-4.5640468503937006
0
LINE
8
BLACK
6
CONTINUOUS
10
7.1299425196850388
20
-4.5640468503937006
11
7.1384881889763774
21
-4.5632992125984249
0
LINE
8
BLACK
6
CONTINUOUS
10
7.1384881889763774
20
-4.5632992125984249
11
7.147033858267716
21
-4.5640468503937006
0
LINE
8
BLACK
6
CONTINUOUS
10
7.0477175196850395
20
-4.4601696850393697
11
7.0566664173228348
21
-4.462567519685039
0
LINE
8
BLACK
6
CONTINUOUS
10
7.0566664173228348
20
-4.462567519685039
11
7.0650629921259842
21
-4.4664829133858266
0
LINE
8
BLACK
6
CONTINUOUS
10
7.0650629921259842
20
-4.4664829133858266
11
7.0726520866141733
21
-4.4717968503937007
0
LINE
8
BLACK
6
CONTINUOUS
10
7.0726520866141733
20
-4.4717968503937007
11
7.0792031496062995
21
-4.4783479133858268
0
LINE
8
BLACK
6
CONTINUOUS
10
7.0792031496062995
20
-4.4783479133858268
11
7.0845170866141727
21
-4.4859370078740159
0
LINE
8
BLACK
6
CONTINUOUS
10
7.0845170866141727
20
-4.4859370078740159
11
7.0884324803149603
21
-4.4943335826771653
0
LINE
8
BLACK
6
CONTINUOUS
10
7.0884324803149603
20
-4.4943335826771653
11
7.0908303149606295
21
-4.5032824803149607
0
LINE
8
BLACK
6
CONTINUOUS
10
7.0908303149606295
20
-4.5032824803149607
11
7.0916377952755907
21
-4.5125118110236215
0
LINE
8
BLACK
6
CONTINUOUS
10
7.0916377952755907
20
-4.5125118110236215
11
7.0908303149606295
21
-4.5217411417322833
0
LINE
8
BLACK
6
CONTINUOUS
10
7.0908303149606295
20
-4.5217411417322833
11
7.0884324803149603
21
-4.5306900393700786
0
LINE
8
BLACK
6
CONTINUOUS
10
7.0884324803149603
20
-4.5306900393700786
11
7.0845170866141727
21
-4.539086614173228
0
LINE
8
BLACK
6
CONTINUOUS
10
7.0845170866141727
20
-4.539086614173228
11
7.0792031496062995
21
-4.5466757086614171
0
LINE
8
BLACK
6
CONTINUOUS
10
7.0792031496062995
20
-4.5466757086614171
11
7.0726520866141733
21
-4.5532267716535433
0
LINE
8
BLACK
6
CONTINUOUS
10
7.0726520866141733
20
-4.5532267716535433
11
7.0650629921259842
21
-4.5585407086614174
0
LINE
8
BLACK
6
CONTINUOUS
10
7.0650629921259842
20
-4.5585407086614174
11
7.0566664173228348
21
-4.562456102362205
0
LINE
8
BLACK
6
CONTINUOUS
10
7.0566664173228348
20
-4.562456102362205
11
7.0477175196850395
21
-4.5648539370078742
0
LINE
8
BLACK
6
CONTINUOUS
10
7.0477175196850395
20
-4.5648539370078742
11
7.0384881889763777
21
-4.5656614173228345
0
LINE
8
BLACK
6
CONTINUOUS
10
7.0384881889763777
20
-4.5656614173228345
11
7.029258858267716
21
-4.5648539370078742
0
LINE
8
BLACK
6
CONTINUOUS
10
7.029258858267716
20
-4.5648539370078742
11
7.0203099606299215
21
-4.562456102362205
0
LINE
8
BLACK
6
CONTINUOUS
10
7.0203099606299215
20
-4.562456102362205
11
7.0119133858267713
21
-4.5585407086614174
0
LINE
8
BLACK
6
CONTINUOUS
10
7.0119133858267713
20
-4.5585407086614174
11
7.0043242913385821
21
-4.5532267716535433
0
LINE
8
BLACK
6
CONTINUOUS
10
7.0043242913385821
20
-4.5532267716535433
11
6.9977732283464569
21
-4.5466757086614171
0
LINE
8
BLACK
6
CONTINUOUS
10
6.9977732283464569
20
-4.5466757086614171
11
6.9924592913385828
21
-4.539086614173228
0
LINE
8
BLACK
6
CONTINUOUS
10
6.9924592913385828
20
-4.539086614173228
11
6.9885438976377952
21
-4.5306900393700786
0
LINE
8
BLACK
6
CONTINUOUS
10
6.9885438976377952
20
-4.5306900393700786
11
6.9861460629921259
21
-4.5217411417322833
0
LINE
8
BLACK
6
CONTINUOUS
10
6.9861460629921259
20
-4.5217411417322833
11
6.9853385826771648
21
-4.5125118110236215
0
LINE
8
BLACK
6
CONTINUOUS
10
6.9853385826771648
20
-4.5125118110236215
11
6.9861460629921259
21
-4.5032824803149607
0
LINE
8
BLACK
6
CONTINUOUS
10
6.9861460629921259
20
-4.5032824803149607
11
6.9885438976377952
21
-4.4943335826771653
0
LINE
8
BLACK
6
CONTINUOUS
10
6.9885438976377952
20
-4.4943335826771653
11
6.9924592913385828
21
-4.4859370078740159
0
LINE
8
BLACK
6
CONTINUOUS
10
6.9924592913385828
20
-4.4859370078740159
11
6.9977732283464569
21
-4.4783479133858268
0
LINE
8
BLACK
6
CONTINUOUS
10
6.9977732283464569
20
-4.4783479133858268
11
7.0043242913385821
21
-4.4717968503937007
0
LINE
8
BLACK
6
CONTINUOUS
10
7.0043242913385821
20
-4.4717968503937007
11
7.0119133858267713
21
-4.4664829133858266
0
LINE
8
BLACK
6
CONTINUOUS
10
7.0119133858267713
20
-4.4664829133858266
11
7.0203099606299215
21
-4.462567519685039
0
LINE
8
BLACK
6
CONTINUOUS
10
7.0203099606299215
20
-4.462567519685039
11
7.029258858267716
21
-4.4601696850393697
0
LINE
8
BLACK
6
CONTINUOUS
10
7.029258858267716
20
-4.4601696850393697
11
7.0384881889763777
21
-4.4593622047244095
0
LINE
8
BLACK
6
CONTINUOUS
10
7.0384881889763777
20
-4.4593622047244095
11
7.0477175196850395
21
-4.4601696850393697
0
LINE
8
BLACK
6
CONTINUOUS
10
7.2477175196850396
20
-4.4601696850393697
11
7.2566664173228341
21
-4.462567519685039
0
LINE
8
BLACK
6
CONTINUOUS
10
7.2566664173228341
20
-4.462567519685039
11
7.2650629921259844
21
-4.4664829133858266
0
LINE
8
BLACK
6
CONTINUOUS
10
7.2650629921259844
20
-4.4664829133858266
11
7.2726520866141735
21
-4.4717968503937007
0
LINE
8
BLACK
6
CONTINUOUS
10
7.2726520866141735
20
-4.4717968503937007
11
7.2792031496062988
21
-4.4783479133858268
0
LINE
8
BLACK
6
CONTINUOUS
10
7.2792031496062988
20
-4.4783479133858268
11
7.2845170866141729
21
-4.4859370078740159
0
LINE
8
BLACK
6
CONTINUOUS
10
7.2845170866141729
20
-4.4859370078740159
11
7.2884324803149605
21
-4.4943335826771653
0
LINE
8
BLACK
6
CONTINUOUS
10
7.2884324803149605
20
-4.4943335826771653
11
7.2908303149606297
21
-4.5032824803149607
0
LINE
8
BLACK
6
CONTINUOUS
10
7.2908303149606297
20
-4.5032824803149607
11
7.29163779527559
21
-4.5125118110236215
0
LINE
8
BLACK
6
CONTINUOUS
10
7.29163779527559
20
-4.5125118110236215
11
7.2908303149606297
21
-4.5217411417322833
0
LINE
8
BLACK
6
CONTINUOUS
10
7.2908303149606297
20
-4.5217411417322833
11
7.2884324803149605
21
-4.5306900393700786
0
LINE
8
BLACK
6
CONTINUOUS
10
7.2884324803149605
20
-4.5306900393700786
11
7.2845170866141729
21
-4.539086614173228
0
LINE
8
BLACK
6
CONTINUOUS
10
7.2845170866141729
20
-4.539086614173228
11
7.2792031496062988
21
-4.5466757086614171
0
LINE
8
BLACK
6
CONTINUOUS
10
7.2792031496062988
20
-4.5466757086614171
11
7.2726520866141735
21
-4.5532267716535433
0
LINE
8
BLACK
6
CONTINUOUS
10
7.2726520866141735
20
-4.5532267716535433
11
7.2650629921259844
21
-4.5585407086614174
0
LINE
8
BLACK
6
CONTINUOUS
10
7.2650629921259844
20
-4.5585407086614174
11
7.2566664173228341
21
-4.562456102362205
0
LINE
8
BLACK
6
CONTINUOUS
10
7.2566664173228341
20
-4.562456102362205
11
7.2477175196850396
21
-4.5648539370078742
0
LINE
8
BLACK
6
CONTINUOUS
10
7.2477175196850396
20
-4.5648539370078742
11
7.2384881889763779
21
-4.5656614173228345
0
LINE
8
BLACK
6
CONTINUOUS
10
7.2384881889763779
20
-4.5656614173228345
11
7.2292588582677162
21
-4.5648539370078742
0
LINE
8
BLACK
6
CONTINUOUS
10
7.2292588582677162
20
-4.5648539370078742
11
7.2203099606299208
21
-4.562456102362205
0
LINE
8
BLACK
6
CONTINUOUS
10
7.2203099606299208
20
-4.562456102362205
11
7.2119133858267714
21
-4.5585407086614174
0
LINE
8
BLACK
6
CONTINUOUS
10
7.2119133858267714
20
-4.5585407086614174
11
7.2043242913385823
21
-4.5532267716535433
0
LINE
8
BLACK
6
CONTINUOUS
10
7.2043242913385823
20
-4.5532267716535433
11
7.1977732283464562
21
-4.5466757086614171
0
LINE
8
BLACK
6
CONTINUOUS
10
7.1977732283464562
20
-4.5466757086614171
11
7.1924592913385821
21
-4.539086614173228
0
LINE
8
BLACK
6
CONTINUOUS
10
7.1924592913385821
20
-4.539086614173228
11
7.1885438976377953
21
-4.5306900393700786
0
LINE
8
BLACK
6
CONTINUOUS
10
7.1885438976377953
20
-4.5306900393700786
11
7.1861460629921261
21
-4.5217411417322833
0
LINE
8
BLACK
6
CONTINUOUS
10
7.1861460629921261
20
-4.5217411417322833
11
7.185338582677165
21
-4.5125118110236215
0
LINE
8
BLACK
6
CONTINUOUS
10
7.185338582677165
20
-4.5125118110236215
11
7.1861460629921261
21
-4.5032824803149607
0
LINE
8
BLACK
6
CONTINUOUS
10
7.1861460629921261
20
-4.5032824803149607
11
7.1885438976377953
21
-4.4943335826771653
0
LINE
8
BLACK
6
CONTINUOUS
10
7.1885438976377953
20
-4.4943335826771653
11
7.1924592913385821
21
-4.4859370078740159
0
LINE
8
BLACK
6
CONTINUOUS
10
7.1924592913385821
20
-4.4859370078740159
11
7.1977732283464562
21
-4.4783479133858268
0
LINE
8
BLACK
6
CONTINUOUS
10
7.1977732283464562
20
-4.4783479133858268
11
7.2043242913385823
21
-4.4717968503937007
0
LINE
8
BLACK
6
CONTINUOUS
10
7.2043242913385823
20
-4.4717968503937007
11
7.2119133858267714
21
-4.4664829133858266
0
LINE
8
BLACK
6
CONTINUOUS
10
7.2119133858267714
20
-4.4664829133858266
11
7.2203099606299208
21
-4.462567519685039
0
LINE
8
BLACK
6
CONTINUOUS
10
7.2203099606299208
20
-4.462567519685039
11
7.2292588582677162
21
-4.4601696850393697
0
LINE
8
BLACK
6
CONTINUOUS
10
7.2292588582677162
20
-4.4601696850393697
11
7.2384881889763779
21
-4.4593622047244095
0
LINE
8
BLACK
6
CONTINUOUS
10
7.2384881889763779
20
-4.4593622047244095
11
7.2477175196850396
21
-4.4601696850393697
  0
ENDSEC
  0
EOF
