  0
SECTION
  2
HEADER
  9
$ANGBASE
  50
0.0
  9
$ANGDIR
  70
1
  9
$MEASUREMENT
  70
0
  0
ENDSEC
  0
SECTION
  2
TABLES
  0
TABLE
  2
LTYPE
  70
4
  0
LTYPE
  5
40F
  2
CONTINUOUS
  70
0
  3
Solid line
  72
65
  73
0
  40
0.0
  0
LTYPE
  5
410
  2
DASHDOT
 70
0
  3
Dash Dot ____ _ ____ _
 72
65
 73
4
 40
2.0
 49
1.25
 49
-0.25
 49
0.25
 49
-0.25
  0
LTYPE
  5
411
  2
DASHED
 70
0
  3
Dashed __ __ __ __ __
 72
65
 73
2
 40
0.75
 49
0.5
 49
-0.25
  0
LTYPE
  5
43B
  2
DOTTED
 70
0
  3
Dotted .  .  .  .
 72
65
 73
2
 40
0.2
 49
0.0
 49
-0.2
  0
ENDTAB
  0
TABLE
  2
STYLE
  70
4
  0
STYLE
  2
KICAD
  70
0
  40
0
  41
1
  42
1
  50
0
  71
0
  3
isocp.shx
  0
STYLE
  2
KICADB
  70
0
  40
0
  41
1
  42
1
  50
0
  71
0
  3
isocp.shx
  0
STYLE
  2
KICADI
  70
0
  40
0
  41
1
  42
1
  50
15
  71
0
  3
isocp.shx
  0
STYLE
  2
KICADBI
  70
0
  40
0
  41
1
  42
1
  50
15
  71
0
  3
isocp.shx
  0
ENDTAB
  0
TABLE
  2
LAYER
  70
1
  0
LAYER
  2
BLACK
  70
0
  62
7
  6
CONTINUOUS
  0
ENDTAB
  0
ENDSEC
  0
SECTION
  2
ENTITIES
0
LINE
8
BLACK
6
CONTINUOUS
10
7.0508957086614172
20
-4.6608307480314961
11
7.058827677165354
21
-4.6634079921259843
0
LINE
8
BLACK
6
CONTINUOUS
10
7.058827677165354
20
-4.6634079921259843
11
7.0662587795275593
21
-4.6671943307086616
0
LINE
8
BLACK
6
CONTINUOUS
10
7.0662587795275593
20
-4.6671943307086616
11
7.0730061023622044
21
-4.672096535433071
0
LINE
8
BLACK
6
CONTINUOUS
10
7.0730061023622044
20
-4.672096535433071
11
7.0789034645669293
21
-4.6779938976377951
0
LINE
8
BLACK
6
CONTINUOUS
10
7.0789034645669293
20
-4.6779938976377951
11
7.0838056692913387
21
-4.684741220472441
0
LINE
8
BLACK
6
CONTINUOUS
10
7.0838056692913387
20
-4.684741220472441
11
7.087592007874016
21
-4.6921723228346455
0
LINE
8
BLACK
6
CONTINUOUS
10
7.087592007874016
20
-4.6921723228346455
11
7.0901692519685033
21
-4.7001042913385822
0
LINE
8
BLACK
6
CONTINUOUS
10
7.0901692519685033
20
-4.7001042913385822
11
7.0914739370078737
21
-4.7083417322834649
0
LINE
8
BLACK
6
CONTINUOUS
10
7.0914739370078737
20
-4.7083417322834649
11
7.0914739370078737
21
-4.7166818897637794
0
LINE
8
BLACK
6
CONTINUOUS
10
7.0914739370078737
20
-4.7166818897637794
11
7.0901692519685033
21
-4.7249193307086612
0
LINE
8
BLACK
6
CONTINUOUS
10
7.0901692519685033
20
-4.7249193307086612
11
7.087592007874016
21
-4.732851299212598
0
LINE
8
BLACK
6
CONTINUOUS
10
7.087592007874016
20
-4.732851299212598
11
7.0838056692913387
21
-4.7402824015748033
0
LINE
8
BLACK
6
CONTINUOUS
10
7.0838056692913387
20
-4.7402824015748033
11
7.0789034645669293
21
-4.7470297244094484
0
LINE
8
BLACK
6
CONTINUOUS
10
7.0789034645669293
20
-4.7470297244094484
11
7.0730061023622044
21
-4.7529270866141733
0
LINE
8
BLACK
6
CONTINUOUS
10
7.0730061023622044
20
-4.7529270866141733
11
7.0662587795275593
21
-4.7578292913385827
0
LINE
8
BLACK
6
CONTINUOUS
10
7.0662587795275593
20
-4.7578292913385827
11
7.058827677165354
21
-4.76161562992126
0
LINE
8
BLACK
6
CONTINUOUS
10
7.058827677165354
20
-4.76161562992126
11
7.0508957086614172
21
-4.7641928740157482
0
LINE
8
BLACK
6
CONTINUOUS
10
7.0508957086614172
20
-4.7641928740157482
11
7.0426582677165355
21
-4.7654975590551176
0
LINE
8
BLACK
6
CONTINUOUS
10
7.0426582677165355
20
-4.7654975590551176
11
7.03431811023622
21
-4.7654975590551176
0
LINE
8
BLACK
6
CONTINUOUS
10
7.03431811023622
20
-4.7654975590551176
11
7.0260806692913382
21
-4.7641928740157482
0
LINE
8
BLACK
6
CONTINUOUS
10
7.0260806692913382
20
-4.7641928740157482
11
7.0181487007874015
21
-4.76161562992126
0
LINE
8
BLACK
6
CONTINUOUS
10
7.0181487007874015
20
-4.76161562992126
11
7.010717598425197
21
-4.7578292913385827
0
LINE
8
BLACK
6
CONTINUOUS
10
7.010717598425197
20
-4.7578292913385827
11
7.0039702755905511
21
-4.7529270866141733
0
LINE
8
BLACK
6
CONTINUOUS
10
7.0039702755905511
20
-4.7529270866141733
11
6.998072913385827
21
-4.7470297244094484
0
LINE
8
BLACK
6
CONTINUOUS
10
6.998072913385827
20
-4.7470297244094484
11
6.9931707086614168
21
-4.7402824015748033
0
LINE
8
BLACK
6
CONTINUOUS
10
6.9931707086614168
20
-4.7402824015748033
11
6.9893843700787404
21
-4.732851299212598
0
LINE
8
BLACK
6
CONTINUOUS
10
6.9893843700787404
20
-4.732851299212598
11
6.9868071259842521
21
-4.7249193307086612
0
LINE
8
BLACK
6
CONTINUOUS
10
6.9868071259842521
20
-4.7249193307086612
11
6.9855024409448818
21
-4.7166818897637794
0
LINE
8
BLACK
6
CONTINUOUS
10
6.9855024409448818
20
-4.7166818897637794
11
6.9855024409448818
21
-4.7083417322834649
0
LINE
8
BLACK
6
CONTINUOUS
10
6.9855024409448818
20
-4.7083417322834649
11
6.9868071259842521
21
-4.7001042913385822
0
LINE
8
BLACK
6
CONTINUOUS
10
6.9868071259842521
20
-4.7001042913385822
11
6.9893843700787404
21
-4.6921723228346455
0
LINE
8
BLACK
6
CONTINUOUS
10
6.9893843700787404
20
-4.6921723228346455
11
6.9931707086614168
21
-4.684741220472441
0
LINE
8
BLACK
6
CONTINUOUS
10
6.9931707086614168
20
-4.684741220472441
11
6.998072913385827
21
-4.6779938976377951
0
LINE
8
BLACK
6
CONTINUOUS
10
6.998072913385827
20
-4.6779938976377951
11
7.0039702755905511
21
-4.672096535433071
0
LINE
8
BLACK
6
CONTINUOUS
10
7.0039702755905511
20
-4.672096535433071
11
7.010717598425197
21
-4.6671943307086616
0
LINE
8
BLACK
6
CONTINUOUS
10
7.010717598425197
20
-4.6671943307086616
11
7.0181487007874015
21
-4.6634079921259843
0
LINE
8
BLACK
6
CONTINUOUS
10
7.0181487007874015
20
-4.6634079921259843
11
7.0260806692913382
21
-4.6608307480314961
0
LINE
8
BLACK
6
CONTINUOUS
10
7.0260806692913382
20
-4.6608307480314961
11
7.03431811023622
21
-4.6595260629921258
0
LINE
8
BLACK
6
CONTINUOUS
10
7.03431811023622
20
-4.6595260629921258
11
7.0426582677165355
21
-4.6595260629921258
0
LINE
8
BLACK
6
CONTINUOUS
10
7.0426582677165355
20
-4.6595260629921258
11
7.0508957086614172
21
-4.6608307480314961
0
LINE
8
BLACK
6
CONTINUOUS
10
7.2508957086614174
20
-4.6608307480314961
11
7.2588276771653542
21
-4.6634079921259843
0
LINE
8
BLACK
6
CONTINUOUS
10
7.2588276771653542
20
-4.6634079921259843
11
7.2662587795275586
21
-4.6671943307086616
0
LINE
8
BLACK
6
CONTINUOUS
10
7.2662587795275586
20
-4.6671943307086616
11
7.2730061023622046
21
-4.672096535433071
0
LINE
8
BLACK
6
CONTINUOUS
10
7.2730061023622046
20
-4.672096535433071
11
7.2789034645669286
21
-4.6779938976377951
0
LINE
8
BLACK
6
CONTINUOUS
10
7.2789034645669286
20
-4.6779938976377951
11
7.283805669291338
21
-4.684741220472441
0
LINE
8
BLACK
6
CONTINUOUS
10
7.283805669291338
20
-4.684741220472441
11
7.2875920078740153
21
-4.6921723228346455
0
LINE
8
BLACK
6
CONTINUOUS
10
7.2875920078740153
20
-4.6921723228346455
11
7.2901692519685035
21
-4.7001042913385822
0
LINE
8
BLACK
6
CONTINUOUS
10
7.2901692519685035
20
-4.7001042913385822
11
7.2914739370078738
21
-4.7083417322834649
0
LINE
8
BLACK
6
CONTINUOUS
10
7.2914739370078738
20
-4.7083417322834649
11
7.2914739370078738
21
-4.7166818897637794
0
LINE
8
BLACK
6
CONTINUOUS
10
7.2914739370078738
20
-4.7166818897637794
11
7.2901692519685035
21
-4.7249193307086612
0
LINE
8
BLACK
6
CONTINUOUS
10
7.2901692519685035
20
-4.7249193307086612
11
7.2875920078740153
21
-4.732851299212598
0
LINE
8
BLACK
6
CONTINUOUS
10
7.2875920078740153
20
-4.732851299212598
11
7.283805669291338
21
-4.7402824015748033
0
LINE
8
BLACK
6
CONTINUOUS
10
7.283805669291338
20
-4.7402824015748033
11
7.2789034645669286
21
-4.7470297244094484
0
LINE
8
BLACK
6
CONTINUOUS
10
7.2789034645669286
20
-4.7470297244094484
11
7.2730061023622046
21
-4.7529270866141733
0
LINE
8
BLACK
6
CONTINUOUS
10
7.2730061023622046
20
-4.7529270866141733
11
7.2662587795275586
21
-4.7578292913385827
0
LINE
8
BLACK
6
CONTINUOUS
10
7.2662587795275586
20
-4.7578292913385827
11
7.2588276771653542
21
-4.76161562992126
0
LINE
8
BLACK
6
CONTINUOUS
10
7.2588276771653542
20
-4.76161562992126
11
7.2508957086614174
21
-4.7641928740157482
0
LINE
8
BLACK
6
CONTINUOUS
10
7.2508957086614174
20
-4.7641928740157482
11
7.2426582677165356
21
-4.7654975590551176
0
LINE
8
BLACK
6
CONTINUOUS
10
7.2426582677165356
20
-4.7654975590551176
11
7.2343181102362202
21
-4.7654975590551176
0
LINE
8
BLACK
6
CONTINUOUS
10
7.2343181102362202
20
-4.7654975590551176
11
7.2260806692913384
21
-4.7641928740157482
0
LINE
8
BLACK
6
CONTINUOUS
10
7.2260806692913384
20
-4.7641928740157482
11
7.2181487007874017
21
-4.76161562992126
0
LINE
8
BLACK
6
CONTINUOUS
10
7.2181487007874017
20
-4.76161562992126
11
7.2107175984251963
21
-4.7578292913385827
0
LINE
8
BLACK
6
CONTINUOUS
10
7.2107175984251963
20
-4.7578292913385827
11
7.2039702755905513
21
-4.7529270866141733
0
LINE
8
BLACK
6
CONTINUOUS
10
7.2039702755905513
20
-4.7529270866141733
11
7.1980729133858263
21
-4.7470297244094484
0
LINE
8
BLACK
6
CONTINUOUS
10
7.1980729133858263
20
-4.7470297244094484
11
7.1931707086614169
21
-4.7402824015748033
0
LINE
8
BLACK
6
CONTINUOUS
10
7.1931707086614169
20
-4.7402824015748033
11
7.1893843700787397
21
-4.732851299212598
0
LINE
8
BLACK
6
CONTINUOUS
10
7.1893843700787397
20
-4.732851299212598
11
7.1868071259842514
21
-4.7249193307086612
0
LINE
8
BLACK
6
CONTINUOUS
10
7.1868071259842514
20
-4.7249193307086612
11
7.185502440944882
21
-4.7166818897637794
0
LINE
8
BLACK
6
CONTINUOUS
10
7.185502440944882
20
-4.7166818897637794
11
7.185502440944882
21
-4.7083417322834649
0
LINE
8
BLACK
6
CONTINUOUS
10
7.185502440944882
20
-4.7083417322834649
11
7.1868071259842514
21
-4.7001042913385822
0
LINE
8
BLACK
6
CONTINUOUS
10
7.1868071259842514
20
-4.7001042913385822
11
7.1893843700787397
21
-4.6921723228346455
0
LINE
8
BLACK
6
CONTINUOUS
10
7.1893843700787397
20
-4.6921723228346455
11
7.1931707086614169
21
-4.684741220472441
0
LINE
8
BLACK
6
CONTINUOUS
10
7.1931707086614169
20
-4.684741220472441
11
7.1980729133858263
21
-4.6779938976377951
0
LINE
8
BLACK
6
CONTINUOUS
10
7.1980729133858263
20
-4.6779938976377951
11
7.2039702755905513
21
-4.672096535433071
0
LINE
8
BLACK
6
CONTINUOUS
10
7.2039702755905513
20
-4.672096535433071
11
7.2107175984251963
21
-4.6671943307086616
0
LINE
8
BLACK
6
CONTINUOUS
10
7.2107175984251963
20
-4.6671943307086616
11
7.2181487007874017
21
-4.6634079921259843
0
LINE
8
BLACK
6
CONTINUOUS
10
7.2181487007874017
20
-4.6634079921259843
11
7.2260806692913384
21
-4.6608307480314961
0
LINE
8
BLACK
6
CONTINUOUS
10
7.2260806692913384
20
-4.6608307480314961
11
7.2343181102362202
21
-4.6595260629921258
0
LINE
8
BLACK
6
CONTINUOUS
10
7.2343181102362202
20
-4.6595260629921258
11
7.2426582677165356
21
-4.6595260629921258
0
LINE
8
BLACK
6
CONTINUOUS
10
7.2426582677165356
20
-4.6595260629921258
11
7.2508957086614174
21
-4.6608307480314961
0
LINE
8
BLACK
6
CONTINUOUS
10
7.1499766535433071
20
-4.5646589763779524
11
7.157321023622047
21
-4.5670453149606294
0
LINE
8
BLACK
6
CONTINUOUS
10
7.157321023622047
20
-4.5670453149606294
11
7.1642016929133856
21
-4.5705511811023625
0
LINE
8
BLACK
6
CONTINUOUS
10
7.1642016929133856
20
-4.5705511811023625
11
7.1704492125984247
21
-4.5750902755905507
0
LINE
8
BLACK
6
CONTINUOUS
10
7.1704492125984247
20
-4.5750902755905507
11
7.1759097244094487
21
-4.5805507874015747
0
LINE
8
BLACK
6
CONTINUOUS
10
7.1759097244094487
20
-4.5805507874015747
11
7.1804488188976379
21
-4.5867983070866138
0
LINE
8
BLACK
6
CONTINUOUS
10
7.1804488188976379
20
-4.5867983070866138
11
7.1839546850393701
21
-4.5936789763779524
0
LINE
8
BLACK
6
CONTINUOUS
10
7.1839546850393701
20
-4.5936789763779524
11
7.1863410236220471
21
-4.6010233464566932
0
LINE
8
BLACK
6
CONTINUOUS
10
7.1863410236220471
20
-4.6010233464566932
11
7.1875490944881886
21
-4.60865062992126
0
LINE
8
BLACK
6
CONTINUOUS
10
7.1875490944881886
20
-4.60865062992126
11
7.1875490944881886
21
-4.6163729921259842
0
LINE
8
BLACK
6
CONTINUOUS
10
7.1875490944881886
20
-4.6163729921259842
11
7.1863410236220471
21
-4.6240002755905509
0
LINE
8
BLACK
6
CONTINUOUS
10
7.1863410236220471
20
-4.6240002755905509
11
7.1839546850393701
21
-4.6313446456692908
0
LINE
8
BLACK
6
CONTINUOUS
10
7.1839546850393701
20
-4.6313446456692908
11
7.1804488188976379
21
-4.6382253149606294
0
LINE
8
BLACK
6
CONTINUOUS
10
7.1804488188976379
20
-4.6382253149606294
11
7.1759097244094487
21
-4.6444728346456694
0
LINE
8
BLACK
6
CONTINUOUS
10
7.1759097244094487
20
-4.6444728346456694
11
7.1704492125984247
21
-4.6499333464566925
0
LINE
8
BLACK
6
CONTINUOUS
10
7.1704492125984247
20
-4.6499333464566925
11
7.1642016929133856
21
-4.6544724409448817
0
LINE
8
BLACK
6
CONTINUOUS
10
7.1642016929133856
20
-4.6544724409448817
11
7.157321023622047
21
-4.6579783070866139
0
LINE
8
BLACK
6
CONTINUOUS
10
7.157321023622047
20
-4.6579783070866139
11
7.1499766535433071
21
-4.6603646456692909
0
LINE
8
BLACK
6
CONTINUOUS
10
7.1499766535433071
20
-4.6603646456692909
11
7.1423493700787404
21
-4.6615727165354333
0
LINE
8
BLACK
6
CONTINUOUS
10
7.1423493700787404
20
-4.6615727165354333
11
7.1346270078740153
21
-4.6615727165354333
0
LINE
8
BLACK
6
CONTINUOUS
10
7.1346270078740153
20
-4.6615727165354333
11
7.1269997244094485
21
-4.6603646456692909
0
LINE
8
BLACK
6
CONTINUOUS
10
7.1269997244094485
20
-4.6603646456692909
11
7.1196553543307086
21
-4.6579783070866139
0
LINE
8
BLACK
6
CONTINUOUS
10
7.1196553543307086
20
-4.6579783070866139
11
7.11277468503937
21
-4.6544724409448817
0
LINE
8
BLACK
6
CONTINUOUS
10
7.11277468503937
20
-4.6544724409448817
11
7.1065271653543309
21
-4.6499333464566925
0
LINE
8
BLACK
6
CONTINUOUS
10
7.1065271653543309
20
-4.6499333464566925
11
7.1010666535433069
21
-4.6444728346456694
0
LINE
8
BLACK
6
CONTINUOUS
10
7.1010666535433069
20
-4.6444728346456694
11
7.0965275590551178
21
-4.6382253149606294
0
LINE
8
BLACK
6
CONTINUOUS
10
7.0965275590551178
20
-4.6382253149606294
11
7.0930216929133856
21
-4.6313446456692908
0
LINE
8
BLACK
6
CONTINUOUS
10
7.0930216929133856
20
-4.6313446456692908
11
7.0906353543307086
21
-4.6240002755905509
0
LINE
8
BLACK
6
CONTINUOUS
10
7.0906353543307086
20
-4.6240002755905509
11
7.0894272834645671
21
-4.6163729921259842
0
LINE
8
BLACK
6
CONTINUOUS
10
7.0894272834645671
20
-4.6163729921259842
11
7.0894272834645671
21
-4.60865062992126
0
LINE
8
BLACK
6
CONTINUOUS
10
7.0894272834645671
20
-4.60865062992126
11
7.0906353543307086
21
-4.6010233464566932
0
LINE
8
BLACK
6
CONTINUOUS
10
7.0906353543307086
20
-4.6010233464566932
11
7.0930216929133856
21
-4.5936789763779524
0
LINE
8
BLACK
6
CONTINUOUS
10
7.0930216929133856
20
-4.5936789763779524
11
7.0965275590551178
21
-4.5867983070866138
0
LINE
8
BLACK
6
CONTINUOUS
10
7.0965275590551178
20
-4.5867983070866138
11
7.1010666535433069
21
-4.5805507874015747
0
LINE
8
BLACK
6
CONTINUOUS
10
7.1010666535433069
20
-4.5805507874015747
11
7.1065271653543309
21
-4.5750902755905507
0
LINE
8
BLACK
6
CONTINUOUS
10
7.1065271653543309
20
-4.5750902755905507
11
7.11277468503937
21
-4.5705511811023625
0
LINE
8
BLACK
6
CONTINUOUS
10
7.11277468503937
20
-4.5705511811023625
11
7.1196553543307086
21
-4.5670453149606294
0
LINE
8
BLACK
6
CONTINUOUS
10
7.1196553543307086
20
-4.5670453149606294
11
7.1269997244094485
21
-4.5646589763779524
0
LINE
8
BLACK
6
CONTINUOUS
10
7.1269997244094485
20
-4.5646589763779524
11
7.1346270078740153
21
-4.5634509055118109
0
LINE
8
BLACK
6
CONTINUOUS
10
7.1346270078740153
20
-4.5634509055118109
11
7.1423493700787404
21
-4.5634509055118109
0
LINE
8
BLACK
6
CONTINUOUS
10
7.1423493700787404
20
-4.5634509055118109
11
7.1499766535433071
21
-4.5646589763779524
0
LINE
8
BLACK
6
CONTINUOUS
10
7.0508957086614172
20
-4.4608307480314959
11
7.058827677165354
21
-4.4634079921259842
0
LINE
8
BLACK
6
CONTINUOUS
10
7.058827677165354
20
-4.4634079921259842
11
7.0662587795275593
21
-4.4671943307086615
0
LINE
8
BLACK
6
CONTINUOUS
10
7.0662587795275593
20
-4.4671943307086615
11
7.0730061023622044
21
-4.4720965354330708
0
LINE
8
BLACK
6
CONTINUOUS
10
7.0730061023622044
20
-4.4720965354330708
11
7.0789034645669293
21
-4.4779938976377949
0
LINE
8
BLACK
6
CONTINUOUS
10
7.0789034645669293
20
-4.4779938976377949
11
7.0838056692913387
21
-4.4847412204724408
0
LINE
8
BLACK
6
CONTINUOUS
10
7.0838056692913387
20
-4.4847412204724408
11
7.087592007874016
21
-4.4921723228346453
0
LINE
8
BLACK
6
CONTINUOUS
10
7.087592007874016
20
-4.4921723228346453
11
7.0901692519685033
21
-4.5001042913385829
0
LINE
8
BLACK
6
CONTINUOUS
10
7.0901692519685033
20
-4.5001042913385829
11
7.0914739370078737
21
-4.5083417322834647
0
LINE
8
BLACK
6
CONTINUOUS
10
7.0914739370078737
20
-4.5083417322834647
11
7.0914739370078737
21
-4.5166818897637793
0
LINE
8
BLACK
6
CONTINUOUS
10
7.0914739370078737
20
-4.5166818897637793
11
7.0901692519685033
21
-4.524919330708661
0
LINE
8
BLACK
6
CONTINUOUS
10
7.0901692519685033
20
-4.524919330708661
11
7.087592007874016
21
-4.5328512992125987
0
LINE
8
BLACK
6
CONTINUOUS
10
7.087592007874016
20
-4.5328512992125987
11
7.0838056692913387
21
-4.5402824015748031
0
LINE
8
BLACK
6
CONTINUOUS
10
7.0838056692913387
20
-4.5402824015748031
11
7.0789034645669293
21
-4.5470297244094491
0
LINE
8
BLACK
6
CONTINUOUS
10
7.0789034645669293
20
-4.5470297244094491
11
7.0730061023622044
21
-4.5529270866141731
0
LINE
8
BLACK
6
CONTINUOUS
10
7.0730061023622044
20
-4.5529270866141731
11
7.0662587795275593
21
-4.5578292913385825
0
LINE
8
BLACK
6
CONTINUOUS
10
7.0662587795275593
20
-4.5578292913385825
11
7.058827677165354
21
-4.5616156299212598
0
LINE
8
BLACK
6
CONTINUOUS
10
7.058827677165354
20
-4.5616156299212598
11
7.0508957086614172
21
-4.564192874015748
0
LINE
8
BLACK
6
CONTINUOUS
10
7.0508957086614172
20
-4.564192874015748
11
7.0426582677165355
21
-4.5654975590551183
0
LINE
8
BLACK
6
CONTINUOUS
10
7.0426582677165355
20
-4.5654975590551183
11
7.03431811023622
21
-4.5654975590551183
0
LINE
8
BLACK
6
CONTINUOUS
10
7.03431811023622
20
-4.5654975590551183
11
7.0260806692913382
21
-4.564192874015748
0
LINE
8
BLACK
6
CONTINUOUS
10
7.0260806692913382
20
-4.564192874015748
11
7.0181487007874015
21
-4.5616156299212598
0
LINE
8
BLACK
6
CONTINUOUS
10
7.0181487007874015
20
-4.5616156299212598
11
7.010717598425197
21
-4.5578292913385825
0
LINE
8
BLACK
6
CONTINUOUS
10
7.010717598425197
20
-4.5578292913385825
11
7.0039702755905511
21
-4.5529270866141731
0
LINE
8
BLACK
6
CONTINUOUS
10
7.0039702755905511
20
-4.5529270866141731
11
6.998072913385827
21
-4.5470297244094491
0
LINE
8
BLACK
6
CONTINUOUS
10
6.998072913385827
20
-4.5470297244094491
11
6.9931707086614168
21
-4.5402824015748031
0
LINE
8
BLACK
6
CONTINUOUS
10
6.9931707086614168
20
-4.5402824015748031
11
6.9893843700787404
21
-4.5328512992125987
0
LINE
8
BLACK
6
CONTINUOUS
10
6.9893843700787404
20
-4.5328512992125987
11
6.9868071259842521
21
-4.524919330708661
0
LINE
8
BLACK
6
CONTINUOUS
10
6.9868071259842521
20
-4.524919330708661
11
6.9855024409448818
21
-4.5166818897637793
0
LINE
8
BLACK
6
CONTINUOUS
10
6.9855024409448818
20
-4.5166818897637793
11
6.9855024409448818
21
-4.5083417322834647
0
LINE
8
BLACK
6
CONTINUOUS
10
6.9855024409448818
20
-4.5083417322834647
11
6.9868071259842521
21
-4.5001042913385829
0
LINE
8
BLACK
6
CONTINUOUS
10
6.9868071259842521
20
-4.5001042913385829
11
6.9893843700787404
21
-4.4921723228346453
0
LINE
8
BLACK
6
CONTINUOUS
10
6.9893843700787404
20
-4.4921723228346453
11
6.9931707086614168
21
-4.4847412204724408
0
LINE
8
BLACK
6
CONTINUOUS
10
6.9931707086614168
20
-4.4847412204724408
11
6.998072913385827
21
-4.4779938976377949
0
LINE
8
BLACK
6
CONTINUOUS
10
6.998072913385827
20
-4.4779938976377949
11
7.0039702755905511
21
-4.4720965354330708
0
LINE
8
BLACK
6
CONTINUOUS
10
7.0039702755905511
20
-4.4720965354330708
11
7.010717598425197
21
-4.4671943307086615
0
LINE
8
BLACK
6
CONTINUOUS
10
7.010717598425197
20
-4.4671943307086615
11
7.0181487007874015
21
-4.4634079921259842
0
LINE
8
BLACK
6
CONTINUOUS
10
7.0181487007874015
20
-4.4634079921259842
11
7.0260806692913382
21
-4.4608307480314959
0
LINE
8
BLACK
6
CONTINUOUS
10
7.0260806692913382
20
-4.4608307480314959
11
7.03431811023622
21
-4.4595260629921256
0
LINE
8
BLACK
6
CONTINUOUS
10
7.03431811023622
20
-4.4595260629921256
11
7.0426582677165355
21
-4.4595260629921256
0
LINE
8
BLACK
6
CONTINUOUS
10
7.0426582677165355
20
-4.4595260629921256
11
7.0508957086614172
21
-4.4608307480314959
0
LINE
8
BLACK
6
CONTINUOUS
10
7.2508957086614174
20
-4.4608307480314959
11
7.2588276771653542
21
-4.4634079921259842
0
LINE
8
BLACK
6
CONTINUOUS
10
7.2588276771653542
20
-4.4634079921259842
11
7.2662587795275586
21
-4.4671943307086615
0
LINE
8
BLACK
6
CONTINUOUS
10
7.2662587795275586
20
-4.4671943307086615
11
7.2730061023622046
21
-4.4720965354330708
0
LINE
8
BLACK
6
CONTINUOUS
10
7.2730061023622046
20
-4.4720965354330708
11
7.2789034645669286
21
-4.4779938976377949
0
LINE
8
BLACK
6
CONTINUOUS
10
7.2789034645669286
20
-4.4779938976377949
11
7.283805669291338
21
-4.4847412204724408
0
LINE
8
BLACK
6
CONTINUOUS
10
7.283805669291338
20
-4.4847412204724408
11
7.2875920078740153
21
-4.4921723228346453
0
LINE
8
BLACK
6
CONTINUOUS
10
7.2875920078740153
20
-4.4921723228346453
11
7.2901692519685035
21
-4.5001042913385829
0
LINE
8
BLACK
6
CONTINUOUS
10
7.2901692519685035
20
-4.5001042913385829
11
7.2914739370078738
21
-4.5083417322834647
0
LINE
8
BLACK
6
CONTINUOUS
10
7.2914739370078738
20
-4.5083417322834647
11
7.2914739370078738
21
-4.5166818897637793
0
LINE
8
BLACK
6
CONTINUOUS
10
7.2914739370078738
20
-4.5166818897637793
11
7.2901692519685035
21
-4.524919330708661
0
LINE
8
BLACK
6
CONTINUOUS
10
7.2901692519685035
20
-4.524919330708661
11
7.2875920078740153
21
-4.5328512992125987
0
LINE
8
BLACK
6
CONTINUOUS
10
7.2875920078740153
20
-4.5328512992125987
11
7.283805669291338
21
-4.5402824015748031
0
LINE
8
BLACK
6
CONTINUOUS
10
7.283805669291338
20
-4.5402824015748031
11
7.2789034645669286
21
-4.5470297244094491
0
LINE
8
BLACK
6
CONTINUOUS
10
7.2789034645669286
20
-4.5470297244094491
11
7.2730061023622046
21
-4.5529270866141731
0
LINE
8
BLACK
6
CONTINUOUS
10
7.2730061023622046
20
-4.5529270866141731
11
7.2662587795275586
21
-4.5578292913385825
0
LINE
8
BLACK
6
CONTINUOUS
10
7.2662587795275586
20
-4.5578292913385825
11
7.2588276771653542
21
-4.5616156299212598
0
LINE
8
BLACK
6
CONTINUOUS
10
7.2588276771653542
20
-4.5616156299212598
11
7.2508957086614174
21
-4.564192874015748
0
LINE
8
BLACK
6
CONTINUOUS
10
7.2508957086614174
20
-4.564192874015748
11
7.2426582677165356
21
-4.5654975590551183
0
LINE
8
BLACK
6
CONTINUOUS
10
7.2426582677165356
20
-4.5654975590551183
11
7.2343181102362202
21
-4.5654975590551183
0
LINE
8
BLACK
6
CONTINUOUS
10
7.2343181102362202
20
-4.5654975590551183
11
7.2260806692913384
21
-4.564192874015748
0
LINE
8
BLACK
6
CONTINUOUS
10
7.2260806692913384
20
-4.564192874015748
11
7.2181487007874017
21
-4.5616156299212598
0
LINE
8
BLACK
6
CONTINUOUS
10
7.2181487007874017
20
-4.5616156299212598
11
7.2107175984251963
21
-4.5578292913385825
0
LINE
8
BLACK
6
CONTINUOUS
10
7.2107175984251963
20
-4.5578292913385825
11
7.2039702755905513
21
-4.5529270866141731
0
LINE
8
BLACK
6
CONTINUOUS
10
7.2039702755905513
20
-4.5529270866141731
11
7.1980729133858263
21
-4.5470297244094491
0
LINE
8
BLACK
6
CONTINUOUS
10
7.1980729133858263
20
-4.5470297244094491
11
7.1931707086614169
21
-4.5402824015748031
0
LINE
8
BLACK
6
CONTINUOUS
10
7.1931707086614169
20
-4.5402824015748031
11
7.1893843700787397
21
-4.5328512992125987
0
LINE
8
BLACK
6
CONTINUOUS
10
7.1893843700787397
20
-4.5328512992125987
11
7.1868071259842514
21
-4.524919330708661
0
LINE
8
BLACK
6
CONTINUOUS
10
7.1868071259842514
20
-4.524919330708661
11
7.185502440944882
21
-4.5166818897637793
0
LINE
8
BLACK
6
CONTINUOUS
10
7.185502440944882
20
-4.5166818897637793
11
7.185502440944882
21
-4.5083417322834647
0
LINE
8
BLACK
6
CONTINUOUS
10
7.185502440944882
20
-4.5083417322834647
11
7.1868071259842514
21
-4.5001042913385829
0
LINE
8
BLACK
6
CONTINUOUS
10
7.1868071259842514
20
-4.5001042913385829
11
7.1893843700787397
21
-4.4921723228346453
0
LINE
8
BLACK
6
CONTINUOUS
10
7.1893843700787397
20
-4.4921723228346453
11
7.1931707086614169
21
-4.4847412204724408
0
LINE
8
BLACK
6
CONTINUOUS
10
7.1931707086614169
20
-4.4847412204724408
11
7.1980729133858263
21
-4.4779938976377949
0
LINE
8
BLACK
6
CONTINUOUS
10
7.1980729133858263
20
-4.4779938976377949
11
7.2039702755905513
21
-4.4720965354330708
0
LINE
8
BLACK
6
CONTINUOUS
10
7.2039702755905513
20
-4.4720965354330708
11
7.2107175984251963
21
-4.4671943307086615
0
LINE
8
BLACK
6
CONTINUOUS
10
7.2107175984251963
20
-4.4671943307086615
11
7.2181487007874017
21
-4.4634079921259842
0
LINE
8
BLACK
6
CONTINUOUS
10
7.2181487007874017
20
-4.4634079921259842
11
7.2260806692913384
21
-4.4608307480314959
0
LINE
8
BLACK
6
CONTINUOUS
10
7.2260806692913384
20
-4.4608307480314959
11
7.2343181102362202
21
-4.4595260629921256
0
LINE
8
BLACK
6
CONTINUOUS
10
7.2343181102362202
20
-4.4595260629921256
11
7.2426582677165356
21
-4.4595260629921256
0
LINE
8
BLACK
6
CONTINUOUS
10
7.2426582677165356
20
-4.4595260629921256
11
7.2508957086614174
21
-4.4608307480314959
  0
ENDSEC
  0
EOF
