  0
SECTION
  2
HEADER
  9
$ANGBASE
  50
0.0
  9
$ANGDIR
  70
1
  9
$MEASUREMENT
  70
0
  0
ENDSEC
  0
SECTION
  2
TABLES
  0
TABLE
  2
LTYPE
  70
4
  0
LTYPE
  5
40F
  2
CONTINUOUS
  70
0
  3
Solid line
  72
65
  73
0
  40
0.0
  0
LTYPE
  5
410
  2
DASHDOT
 70
0
  3
Dash Dot ____ _ ____ _
 72
65
 73
4
 40
2.0
 49
1.25
 49
-0.25
 49
0.25
 49
-0.25
  0
LTYPE
  5
411
  2
DASHED
 70
0
  3
Dashed __ __ __ __ __
 72
65
 73
2
 40
0.75
 49
0.5
 49
-0.25
  0
LTYPE
  5
43B
  2
DOTTED
 70
0
  3
Dotted .  .  .  .
 72
65
 73
2
 40
0.2
 49
0.0
 49
-0.2
  0
ENDTAB
  0
TABLE
  2
STYLE
  70
4
  0
STYLE
  2
KICAD
  70
0
  40
0
  41
1
  42
1
  50
0
  71
0
  3
isocp.shx
  0
STYLE
  2
KICADB
  70
0
  40
0
  41
1
  42
1
  50
0
  71
0
  3
isocp.shx
  0
STYLE
  2
KICADI
  70
0
  40
0
  41
1
  42
1
  50
15
  71
0
  3
isocp.shx
  0
STYLE
  2
KICADBI
  70
0
  40
0
  41
1
  42
1
  50
15
  71
0
  3
isocp.shx
  0
ENDTAB
  0
TABLE
  2
LAYER
  70
1
  0
LAYER
  2
BLACK
  70
0
  62
7
  6
CONTINUOUS
  0
ENDTAB
  0
ENDSEC
  0
SECTION
  2
ENTITIES
0
LINE
8
BLACK
6
CONTINUOUS
10
4.7994544881889762
20
-5.0700810629921262
11
4.799901929133858
21
-5.070448267716535
0
LINE
8
BLACK
6
CONTINUOUS
10
4.799901929133858
20
-5.070448267716535
11
4.8173584251968506
21
-5.0879047637795276
0
LINE
8
BLACK
6
CONTINUOUS
10
4.8173584251968506
20
-5.0879047637795276
11
4.8173584251968506
21
-5.0725361811023619
0
LINE
8
BLACK
6
CONTINUOUS
10
4.8173584251968506
20
-5.0725361811023619
11
4.8174151574803146
21
-5.0719601181102361
0
LINE
8
BLACK
6
CONTINUOUS
10
4.8174151574803146
20
-5.0719601181102361
11
4.8178560629921261
21
-5.0708957086614168
0
LINE
8
BLACK
6
CONTINUOUS
10
4.8178560629921261
20
-5.0708957086614168
11
4.8186707086614176
21
-5.0700810629921262
0
LINE
8
BLACK
6
CONTINUOUS
10
4.8186707086614176
20
-5.0700810629921262
11
4.8197351181102359
21
-5.0696401574803147
0
LINE
8
BLACK
6
CONTINUOUS
10
4.8197351181102359
20
-5.0696401574803147
11
4.8208872440944877
21
-5.0696401574803147
0
LINE
8
BLACK
6
CONTINUOUS
10
4.8208872440944877
20
-5.0696401574803147
11
4.8219516535433069
21
-5.0700810629921262
0
LINE
8
BLACK
6
CONTINUOUS
10
4.8219516535433069
20
-5.0700810629921262
11
4.8227662992125984
21
-5.0708957086614168
0
LINE
8
BLACK
6
CONTINUOUS
10
4.8227662992125984
20
-5.0708957086614168
11
4.823207204724409
21
-5.0719601181102361
0
LINE
8
BLACK
6
CONTINUOUS
10
4.823207204724409
20
-5.0719601181102361
11
4.8232639370078738
21
-5.0725361811023619
0
LINE
8
BLACK
6
CONTINUOUS
10
4.8232639370078738
20
-5.0725361811023619
11
4.8232639370078738
21
-5.1119062598425193
0
LINE
8
BLACK
6
CONTINUOUS
10
4.8232639370078738
20
-5.1119062598425193
11
4.823207204724409
21
-5.1124823228346452
0
LINE
8
BLACK
6
CONTINUOUS
10
4.823207204724409
20
-5.1124823228346452
11
4.8227662992125984
21
-5.1135467322834645
0
LINE
8
BLACK
6
CONTINUOUS
10
4.8227662992125984
20
-5.1135467322834645
11
4.8219516535433069
21
-5.1143613779527559
0
LINE
8
BLACK
6
CONTINUOUS
10
4.8219516535433069
20
-5.1143613779527559
11
4.8208872440944877
21
-5.1148022834645666
0
LINE
8
BLACK
6
CONTINUOUS
10
4.8208872440944877
20
-5.1148022834645666
11
4.8197351181102359
21
-5.1148022834645666
0
LINE
8
BLACK
6
CONTINUOUS
10
4.8197351181102359
20
-5.1148022834645666
11
4.8186707086614176
21
-5.1143613779527559
0
LINE
8
BLACK
6
CONTINUOUS
10
4.8186707086614176
20
-5.1143613779527559
11
4.8178560629921261
21
-5.1135467322834645
0
LINE
8
BLACK
6
CONTINUOUS
10
4.8178560629921261
20
-5.1135467322834645
11
4.8174151574803146
21
-5.1124823228346452
0
LINE
8
BLACK
6
CONTINUOUS
10
4.8174151574803146
20
-5.1124823228346452
11
4.8173584251968506
21
-5.1119062598425193
0
LINE
8
BLACK
6
CONTINUOUS
10
4.8173584251968506
20
-5.1119062598425193
11
4.8173584251968506
21
-5.0962564173228344
0
LINE
8
BLACK
6
CONTINUOUS
10
4.8173584251968506
20
-5.0962564173228344
11
4.8150063385826769
21
-5.0939043307086616
0
LINE
8
BLACK
6
CONTINUOUS
10
4.8150063385826769
20
-5.0939043307086616
11
4.8001762204724407
21
-5.1136779133858266
0
LINE
8
BLACK
6
CONTINUOUS
10
4.8001762204724407
20
-5.1136779133858266
11
4.7997851968503937
21
-5.1141047244094491
0
LINE
8
BLACK
6
CONTINUOUS
10
4.7997851968503937
20
-5.1141047244094491
11
4.7987938188976376
21
-5.1146916929133859
0
LINE
8
BLACK
6
CONTINUOUS
10
4.7987938188976376
20
-5.1146916929133859
11
4.7976533070866143
21
-5.1148546456692916
0
LINE
8
BLACK
6
CONTINUOUS
10
4.7976533070866143
20
-5.1148546456692916
11
4.7965372440944885
21
-5.1145687007874017
0
LINE
8
BLACK
6
CONTINUOUS
10
4.7965372440944885
20
-5.1145687007874017
11
4.7956155511811023
21
-5.1138774409448819
0
LINE
8
BLACK
6
CONTINUOUS
10
4.7956155511811023
20
-5.1138774409448819
11
4.7950285826771655
21
-5.1128860629921258
0
LINE
8
BLACK
6
CONTINUOUS
10
4.7950285826771655
20
-5.1128860629921258
11
4.7948656299212598
21
-5.1117455511811025
0
LINE
8
BLACK
6
CONTINUOUS
10
4.7948656299212598
20
-5.1117455511811025
11
4.7951515748031497
21
-5.1106294881889767
0
LINE
8
BLACK
6
CONTINUOUS
10
4.7951515748031497
20
-5.1106294881889767
11
4.7954518110236215
21
-5.1101346062992121
0
LINE
8
BLACK
6
CONTINUOUS
10
4.7954518110236215
20
-5.1101346062992121
11
4.8107881102362207
21
-5.0896861023622044
0
LINE
8
BLACK
6
CONTINUOUS
10
4.8107881102362207
20
-5.0896861023622044
11
4.7957261023622042
21
-5.0746240944881889
0
LINE
8
BLACK
6
CONTINUOUS
10
4.7957261023622042
20
-5.0746240944881889
11
4.7953588976377954
21
-5.074176653543307
0
LINE
8
BLACK
6
CONTINUOUS
10
4.7953588976377954
20
-5.074176653543307
11
4.7949179921259839
21
-5.073112204724409
0
LINE
8
BLACK
6
CONTINUOUS
10
4.7949179921259839
20
-5.073112204724409
11
4.7949179921259839
21
-5.0719601574803148
0
LINE
8
BLACK
6
CONTINUOUS
10
4.7949179921259839
20
-5.0719601574803148
11
4.7953588976377954
21
-5.0708957086614168
0
LINE
8
BLACK
6
CONTINUOUS
10
4.7953588976377954
20
-5.0708957086614168
11
4.7961735433070869
21
-5.0700810629921262
0
LINE
8
BLACK
6
CONTINUOUS
10
4.7961735433070869
20
-5.0700810629921262
11
4.797237992125984
21
-5.0696401574803147
0
LINE
8
BLACK
6
CONTINUOUS
10
4.797237992125984
20
-5.0696401574803147
11
4.7983900393700782
21
-5.0696401574803147
0
LINE
8
BLACK
6
CONTINUOUS
10
4.7983900393700782
20
-5.0696401574803147
11
4.7994544881889762
21
-5.0700810629921262
0
LINE
8
BLACK
6
CONTINUOUS
10
7.0927930708661417
20
-4.4760810629921259
11
7.0936077165354332
21
-4.4768957086614174
0
LINE
8
BLACK
6
CONTINUOUS
10
7.0936077165354332
20
-4.4768957086614174
11
7.0940486220472438
21
-4.4779601181102358
0
LINE
8
BLACK
6
CONTINUOUS
10
7.0940486220472438
20
-4.4779601181102358
11
7.0941053543307087
21
-4.4785361811023625
0
LINE
8
BLACK
6
CONTINUOUS
10
7.0941053543307087
20
-4.4785361811023625
11
7.0941053543307087
21
-4.5066576377952758
0
LINE
8
BLACK
6
CONTINUOUS
10
7.0941053543307087
20
-4.5066576377952758
11
7.0940766141732281
21
-4.5069492125984247
0
LINE
8
BLACK
6
CONTINUOUS
10
7.0940766141732281
20
-4.5069492125984247
11
7.0940821653543304
21
-4.5070269685039372
0
LINE
8
BLACK
6
CONTINUOUS
10
7.0940821653543304
20
-4.5070269685039372
11
7.0940588976377947
21
-4.507129212598425
0
LINE
8
BLACK
6
CONTINUOUS
10
7.0940588976377947
20
-4.507129212598425
11
7.0940486220472438
21
-4.5072337007874017
0
LINE
8
BLACK
6
CONTINUOUS
10
7.0940486220472438
20
-4.5072337007874017
11
7.0940187401574804
21
-4.507305748031496
0
LINE
8
BLACK
6
CONTINUOUS
10
7.0940187401574804
20
-4.507305748031496
11
7.0939538188976377
21
-4.5075914173228346
0
LINE
8
BLACK
6
CONTINUOUS
10
7.0939538188976377
20
-4.5075914173228346
11
7.0920790551181101
21
-4.5132156692913385
0
LINE
8
BLACK
6
CONTINUOUS
10
7.0920790551181101
20
-4.5132156692913385
11
7.0918430708661413
21
-4.5137442519685038
0
LINE
8
BLACK
6
CONTINUOUS
10
7.0918430708661413
20
-4.5137442519685038
11
7.0917735433070863
21
-4.5138243700787397
0
LINE
8
BLACK
6
CONTINUOUS
10
7.0917735433070863
20
-4.5138243700787397
11
7.0917329921259844
21
-4.513922362204724
0
LINE
8
BLACK
6
CONTINUOUS
10
7.0917329921259844
20
-4.513922362204724
11
7.0913657874015747
21
-4.5143698031496058
0
LINE
8
BLACK
6
CONTINUOUS
10
7.0913657874015747
20
-4.5143698031496058
11
7.0876162204724409
21
-4.5181194094488184
0
LINE
8
BLACK
6
CONTINUOUS
10
7.0876162204724409
20
-4.5181194094488184
11
7.0871687795275591
21
-4.5184866141732281
0
LINE
8
BLACK
6
CONTINUOUS
10
7.0871687795275591
20
-4.5184866141732281
11
7.0870707086614173
21
-4.5185272047244096
0
LINE
8
BLACK
6
CONTINUOUS
10
7.0870707086614173
20
-4.5185272047244096
11
7.0869905905511805
21
-4.5185967322834646
0
LINE
8
BLACK
6
CONTINUOUS
10
7.0869905905511805
20
-4.5185967322834646
11
7.086462047244094
21
-4.5188327165354334
0
LINE
8
BLACK
6
CONTINUOUS
10
7.086462047244094
20
-4.5188327165354334
11
7.0808377559055113
21
-4.5207074803149609
0
LINE
8
BLACK
6
CONTINUOUS
10
7.0808377559055113
20
-4.5207074803149609
11
7.0805521653543302
21
-4.5207724015748028
0
LINE
8
BLACK
6
CONTINUOUS
10
7.0805521653543302
20
-4.5207724015748028
11
7.0804800787401572
21
-4.5208022834645671
0
LINE
8
BLACK
6
CONTINUOUS
10
7.0804800787401572
20
-4.5208022834645671
11
7.0803755511811026
21
-4.520812559055118
0
LINE
8
BLACK
6
CONTINUOUS
10
7.0803755511811026
20
-4.520812559055118
11
7.080273307086614
21
-4.5208358267716537
0
LINE
8
BLACK
6
CONTINUOUS
10
7.080273307086614
20
-4.5208358267716537
11
7.0801955511811023
21
-4.5208302755905514
0
LINE
8
BLACK
6
CONTINUOUS
10
7.0801955511811023
20
-4.5208302755905514
11
7.0799040157480313
21
-4.5208590157480311
0
LINE
8
BLACK
6
CONTINUOUS
10
7.0799040157480313
20
-4.5208590157480311
11
7.0761544881889762
21
-4.5208590157480311
0
LINE
8
BLACK
6
CONTINUOUS
10
7.0761544881889762
20
-4.5208590157480311
11
7.0755784251968503
21
-4.5208022834645671
0
LINE
8
BLACK
6
CONTINUOUS
10
7.0755784251968503
20
-4.5208022834645671
11
7.0745140157480311
21
-4.5203613779527556
0
LINE
8
BLACK
6
CONTINUOUS
10
7.0745140157480311
20
-4.5203613779527556
11
7.0736993700787396
21
-4.5195467322834642
0
LINE
8
BLACK
6
CONTINUOUS
10
7.0736993700787396
20
-4.5195467322834642
11
7.073258464566929
21
-4.5184823228346458
0
LINE
8
BLACK
6
CONTINUOUS
10
7.073258464566929
20
-4.5184823228346458
11
7.073258464566929
21
-4.5173301968503932
0
LINE
8
BLACK
6
CONTINUOUS
10
7.073258464566929
20
-4.5173301968503932
11
7.0736993700787396
21
-4.5162657874015748
0
LINE
8
BLACK
6
CONTINUOUS
10
7.0736993700787396
20
-4.5162657874015748
11
7.0745140157480311
21
-4.5154511417322833
0
LINE
8
BLACK
6
CONTINUOUS
10
7.0745140157480311
20
-4.5154511417322833
11
7.0755784251968503
21
-4.5150102362204727
0
LINE
8
BLACK
6
CONTINUOUS
10
7.0755784251968503
20
-4.5150102362204727
11
7.0761544881889762
21
-4.5149535039370079
0
LINE
8
BLACK
6
CONTINUOUS
10
7.0761544881889762
20
-4.5149535039370079
11
7.0794248818897634
21
-4.5149535039370079
0
LINE
8
BLACK
6
CONTINUOUS
10
7.0794248818897634
20
-4.5149535039370079
11
7.0839332677165352
21
-4.5134506692913385
0
LINE
8
BLACK
6
CONTINUOUS
10
7.0839332677165352
20
-4.5134506692913385
11
7.0866970078740152
21
-4.5106868897637797
0
LINE
8
BLACK
6
CONTINUOUS
10
7.0866970078740152
20
-4.5106868897637797
11
7.0881998425196846
21
-4.5061785039370079
0
LINE
8
BLACK
6
CONTINUOUS
10
7.0881998425196846
20
-4.5061785039370079
11
7.0881998425196846
21
-4.4785361811023625
0
LINE
8
BLACK
6
CONTINUOUS
10
7.0881998425196846
20
-4.4785361811023625
11
7.0882565748031494
21
-4.4779601181102358
0
LINE
8
BLACK
6
CONTINUOUS
10
7.0882565748031494
20
-4.4779601181102358
11
7.0886974803149601
21
-4.4768957086614174
0
LINE
8
BLACK
6
CONTINUOUS
10
7.0886974803149601
20
-4.4768957086614174
11
7.0895121259842515
21
-4.4760810629921259
0
LINE
8
BLACK
6
CONTINUOUS
10
7.0895121259842515
20
-4.4760810629921259
11
7.0905765354330708
21
-4.4756401574803153
0
LINE
8
BLACK
6
CONTINUOUS
10
7.0905765354330708
20
-4.4756401574803153
11
7.0917286614173225
21
-4.4756401574803153
0
LINE
8
BLACK
6
CONTINUOUS
10
7.0917286614173225
20
-4.4756401574803153
11
7.0927930708661417
21
-4.4760810629921259
0
LINE
8
BLACK
6
CONTINUOUS
10
7.1195577559055119
20
-4.4756401574803153
11
7.1198501574803146
21
-4.4756401574803153
0
LINE
8
BLACK
6
CONTINUOUS
10
7.1198501574803146
20
-4.4756401574803153
11
7.1201174015748032
21
-4.4757508661417322
0
LINE
8
BLACK
6
CONTINUOUS
10
7.1201174015748032
20
-4.4757508661417322
11
7.1204012204724405
21
-4.4758070078740158
0
LINE
8
BLACK
6
CONTINUOUS
10
7.1204012204724405
20
-4.4758070078740158
11
7.1206444881889759
21
-4.4759691732283464
0
LINE
8
BLACK
6
CONTINUOUS
10
7.1206444881889759
20
-4.4759691732283464
11
7.1209145669291338
21
-4.4760810629921259
0
LINE
8
BLACK
6
CONTINUOUS
10
7.1209145669291338
20
-4.4760810629921259
11
7.1211190157480315
21
-4.4762855118110236
0
LINE
8
BLACK
6
CONTINUOUS
10
7.1211190157480315
20
-4.4762855118110236
11
7.1213598425196851
21
-4.4764460629921254
0
LINE
8
BLACK
6
CONTINUOUS
10
7.1213598425196851
20
-4.4764460629921254
11
7.1215225590551183
21
-4.4766890551181104
0
LINE
8
BLACK
6
CONTINUOUS
10
7.1215225590551183
20
-4.4766890551181104
11
7.1217292125984253
21
-4.4768957086614174
0
LINE
8
BLACK
6
CONTINUOUS
10
7.1217292125984253
20
-4.4768957086614174
11
7.1218398818897635
21
-4.4771629133858264
0
LINE
8
BLACK
6
CONTINUOUS
10
7.1218398818897635
20
-4.4771629133858264
11
7.1220009055118112
21
-4.4774033464566925
0
LINE
8
BLACK
6
CONTINUOUS
10
7.1220009055118112
20
-4.4774033464566925
11
7.1220582283464564
21
-4.4776899999999999
0
LINE
8
BLACK
6
CONTINUOUS
10
7.1220582283464564
20
-4.4776899999999999
11
7.1221701181102359
21
-4.4779601181102358
0
LINE
8
BLACK
6
CONTINUOUS
10
7.1221701181102359
20
-4.4779601181102358
11
7.1222262204724407
21
-4.4785300393700789
0
LINE
8
BLACK
6
CONTINUOUS
10
7.1222262204724407
20
-4.4785300393700789
11
7.1222268503937007
21
-4.4785330708661419
0
LINE
8
BLACK
6
CONTINUOUS
10
7.1222268503937007
20
-4.4785330708661419
11
7.1222266141732282
21
-4.4785340944881886
0
LINE
8
BLACK
6
CONTINUOUS
10
7.1222266141732282
20
-4.4785340944881886
11
7.1222268503937007
21
-4.4785361811023625
0
LINE
8
BLACK
6
CONTINUOUS
10
7.1222268503937007
20
-4.4785361811023625
11
7.1222268503937007
21
-4.5149535039370079
0
LINE
8
BLACK
6
CONTINUOUS
10
7.1222268503937007
20
-4.5149535039370079
11
7.130522677165354
21
-4.5149535039370079
0
LINE
8
BLACK
6
CONTINUOUS
10
7.130522677165354
20
-4.5149535039370079
11
7.1310987401574799
21
-4.5150102362204727
0
LINE
8
BLACK
6
CONTINUOUS
10
7.1310987401574799
20
-4.5150102362204727
11
7.1321631496062992
21
-4.5154511417322833
0
LINE
8
BLACK
6
CONTINUOUS
10
7.1321631496062992
20
-4.5154511417322833
11
7.1329777952755906
21
-4.5162657874015748
0
LINE
8
BLACK
6
CONTINUOUS
10
7.1329777952755906
20
-4.5162657874015748
11
7.1334187007874013
21
-4.5173301968503932
0
LINE
8
BLACK
6
CONTINUOUS
10
7.1334187007874013
20
-4.5173301968503932
11
7.1334187007874013
21
-4.5184823228346458
0
LINE
8
BLACK
6
CONTINUOUS
10
7.1334187007874013
20
-4.5184823228346458
11
7.1329777952755906
21
-4.5195467322834642
0
LINE
8
BLACK
6
CONTINUOUS
10
7.1329777952755906
20
-4.5195467322834642
11
7.1321631496062992
21
-4.5203613779527556
0
LINE
8
BLACK
6
CONTINUOUS
10
7.1321631496062992
20
-4.5203613779527556
11
7.1310987401574799
21
-4.5208022834645671
0
LINE
8
BLACK
6
CONTINUOUS
10
7.1310987401574799
20
-4.5208022834645671
11
7.130522677165354
21
-4.5208590157480311
0
LINE
8
BLACK
6
CONTINUOUS
10
7.130522677165354
20
-4.5208590157480311
11
7.1080255118110234
21
-4.5208590157480311
0
LINE
8
BLACK
6
CONTINUOUS
10
7.1080255118110234
20
-4.5208590157480311
11
7.1074494488188975
21
-4.5208022834645671
0
LINE
8
BLACK
6
CONTINUOUS
10
7.1074494488188975
20
-4.5208022834645671
11
7.1063850393700783
21
-4.5203613779527556
0
LINE
8
BLACK
6
CONTINUOUS
10
7.1063850393700783
20
-4.5203613779527556
11
7.1055703937007868
21
-4.5195467322834642
0
LINE
8
BLACK
6
CONTINUOUS
10
7.1055703937007868
20
-4.5195467322834642
11
7.1051294881889762
21
-4.5184823228346458
0
LINE
8
BLACK
6
CONTINUOUS
10
7.1051294881889762
20
-4.5184823228346458
11
7.1051294881889762
21
-4.5173301968503932
0
LINE
8
BLACK
6
CONTINUOUS
10
7.1051294881889762
20
-4.5173301968503932
11
7.1055703937007868
21
-4.5162657874015748
0
LINE
8
BLACK
6
CONTINUOUS
10
7.1055703937007868
20
-4.5162657874015748
11
7.1063850393700783
21
-4.5154511417322833
0
LINE
8
BLACK
6
CONTINUOUS
10
7.1063850393700783
20
-4.5154511417322833
11
7.1074494488188975
21
-4.5150102362204727
0
LINE
8
BLACK
6
CONTINUOUS
10
7.1074494488188975
20
-4.5150102362204727
11
7.1080255118110234
21
-4.5149535039370079
0
LINE
8
BLACK
6
CONTINUOUS
10
7.1080255118110234
20
-4.5149535039370079
11
7.1163213385826767
21
-4.5149535039370079
0
LINE
8
BLACK
6
CONTINUOUS
10
7.1163213385826767
20
-4.5149535039370079
11
7.1163213385826767
21
-4.4875395275590551
0
LINE
8
BLACK
6
CONTINUOUS
10
7.1163213385826767
20
-4.4875395275590551
11
7.1138629527559054
21
-4.4899979133858263
0
LINE
8
BLACK
6
CONTINUOUS
10
7.1138629527559054
20
-4.4899979133858263
11
7.1136365748031496
21
-4.4901836614173227
0
LINE
8
BLACK
6
CONTINUOUS
10
7.1136365748031496
20
-4.4901836614173227
11
7.1135854330708659
21
-4.4902426771653543
0
LINE
8
BLACK
6
CONTINUOUS
10
7.1135854330708659
20
-4.4902426771653543
11
7.1134964566929133
21
-4.4902986220472441
0
LINE
8
BLACK
6
CONTINUOUS
10
7.1134964566929133
20
-4.4902986220472441
11
7.1134155118110236
21
-4.490365118110236
0
LINE
8
BLACK
6
CONTINUOUS
10
7.1134155118110236
20
-4.490365118110236
11
7.1133435433070868
21
-4.4903949212598429
0
LINE
8
BLACK
6
CONTINUOUS
10
7.1133435433070868
20
-4.4903949212598429
11
7.113095551181102
21
-4.4905510236220474
0
LINE
8
BLACK
6
CONTINUOUS
10
7.113095551181102
20
-4.4905510236220474
11
7.1093460236220469
21
-4.4924257874015749
0
LINE
8
BLACK
6
CONTINUOUS
10
7.1093460236220469
20
-4.4924257874015749
11
7.1088053937007869
21
-4.4926326771653544
0
LINE
8
BLACK
6
CONTINUOUS
10
7.1088053937007869
20
-4.4926326771653544
11
7.107656181102362
21
-4.4927143307086617
0
LINE
8
BLACK
6
CONTINUOUS
10
7.107656181102362
20
-4.4927143307086617
11
7.1065632283464568
21
-4.4923500000000001
0
LINE
8
BLACK
6
CONTINUOUS
10
7.1065632283464568
20
-4.4923500000000001
11
7.1056928346456694
21
-4.4915951574803152
0
LINE
8
BLACK
6
CONTINUOUS
10
7.1056928346456694
20
-4.4915951574803152
11
7.1051775984251968
21
-4.4905646456692914
0
LINE
8
BLACK
6
CONTINUOUS
10
7.1051775984251968
20
-4.4905646456692914
11
7.1050959448818896
21
-4.4894154330708664
0
LINE
8
BLACK
6
CONTINUOUS
10
7.1050959448818896
20
-4.4894154330708664
11
7.1054602755905512
21
-4.4883224803149604
0
LINE
8
BLACK
6
CONTINUOUS
10
7.1054602755905512
20
-4.4883224803149604
11
7.106215118110236
21
-4.4874520866141729
0
LINE
8
BLACK
6
CONTINUOUS
10
7.106215118110236
20
-4.4874520866141729
11
7.1067049999999998
21
-4.4871437401574799
0
LINE
8
BLACK
6
CONTINUOUS
10
7.1067049999999998
20
-4.4871437401574799
11
7.1100259448818894
21
-4.4854832677165355
0
LINE
8
BLACK
6
CONTINUOUS
10
7.1100259448818894
20
-4.4854832677165355
11
7.1132298425196847
21
-4.4822793700787402
0
LINE
8
BLACK
6
CONTINUOUS
10
7.1132298425196847
20
-4.4822793700787402
11
7.1168172440944879
21
-4.4768982677165354
0
LINE
8
BLACK
6
CONTINUOUS
10
7.1168172440944879
20
-4.4768982677165354
11
7.1168185826771655
21
-4.4768965748031491
0
LINE
8
BLACK
6
CONTINUOUS
10
7.1168185826771655
20
-4.4768965748031491
11
7.116818976377953
21
-4.4768957086614174
0
LINE
8
BLACK
6
CONTINUOUS
10
7.116818976377953
20
-4.4768957086614174
11
7.1168209842519685
21
-4.4768936614173231
0
LINE
8
BLACK
6
CONTINUOUS
10
7.1168209842519685
20
-4.4768936614173231
11
7.1171840157480313
21
-4.4764504330708661
0
LINE
8
BLACK
6
CONTINUOUS
10
7.1171840157480313
20
-4.4764504330708661
11
7.1174268897637791
21
-4.4762877559055116
0
LINE
8
BLACK
6
CONTINUOUS
10
7.1174268897637791
20
-4.4762877559055116
11
7.1176336220472436
21
-4.4760810629921259
0
LINE
8
BLACK
6
CONTINUOUS
10
7.1176336220472436
20
-4.4760810629921259
11
7.117900905511811
21
-4.4759703149606302
0
LINE
8
BLACK
6
CONTINUOUS
10
7.117900905511811
20
-4.4759703149606302
11
7.1181412992125983
21
-4.47580937007874
0
LINE
8
BLACK
6
CONTINUOUS
10
7.1181412992125983
20
-4.47580937007874
11
7.118427913385827
21
-4.4757520078740161
0
LINE
8
BLACK
6
CONTINUOUS
10
7.118427913385827
20
-4.4757520078740161
11
7.1186980314960628
21
-4.4756401574803153
0
LINE
8
BLACK
6
CONTINUOUS
10
7.1186980314960628
20
-4.4756401574803153
11
7.1189873228346459
21
-4.4756401574803153
0
LINE
8
BLACK
6
CONTINUOUS
10
7.1189873228346459
20
-4.4756401574803153
11
7.1192709842519681
21
-4.4755834251968505
0
LINE
8
BLACK
6
CONTINUOUS
10
7.1192709842519681
20
-4.4755834251968505
11
7.1195577559055119
21
-4.4756401574803153
0
LINE
8
BLACK
6
CONTINUOUS
10
7.1610949999999995
20
-4.4756401574803153
11
7.1611929921259838
21
-4.475680748031496
0
LINE
8
BLACK
6
CONTINUOUS
10
7.1611929921259838
20
-4.475680748031496
11
7.1612988188976372
21
-4.4756882677165351
0
LINE
8
BLACK
6
CONTINUOUS
10
7.1612988188976372
20
-4.4756882677165351
11
7.1618394488188972
21
-4.4758951574803145
0
LINE
8
BLACK
6
CONTINUOUS
10
7.1618394488188972
20
-4.4758951574803145
11
7.1655889763779523
21
-4.4777699212598421
0
LINE
8
BLACK
6
CONTINUOUS
10
7.1655889763779523
20
-4.4777699212598421
11
7.1658369685039371
21
-4.4779259842519687
0
LINE
8
BLACK
6
CONTINUOUS
10
7.1658369685039371
20
-4.4779259842519687
11
7.1659089370078739
21
-4.4779558267716535
0
LINE
8
BLACK
6
CONTINUOUS
10
7.1659089370078739
20
-4.4779558267716535
11
7.1659898818897636
21
-4.4780222834645667
0
LINE
8
BLACK
6
CONTINUOUS
10
7.1659898818897636
20
-4.4780222834645667
11
7.1660788582677162
21
-4.4780782677165352
0
LINE
8
BLACK
6
CONTINUOUS
10
7.1660788582677162
20
-4.4780782677165352
11
7.1661299999999999
21
-4.478137244094488
0
LINE
8
BLACK
6
CONTINUOUS
10
7.1661299999999999
20
-4.478137244094488
11
7.1663563779527557
21
-4.4783230314960631
0
LINE
8
BLACK
6
CONTINUOUS
10
7.1663563779527557
20
-4.4783230314960631
11
7.1682311417322833
21
-4.4801977952755907
0
LINE
8
BLACK
6
CONTINUOUS
10
7.1682311417322833
20
-4.4801977952755907
11
7.1684168897637797
21
-4.4804241338582678
0
LINE
8
BLACK
6
CONTINUOUS
10
7.1684168897637797
20
-4.4804241338582678
11
7.1684759055118112
21
-4.4804753149606302
0
LINE
8
BLACK
6
CONTINUOUS
10
7.1684759055118112
20
-4.4804753149606302
11
7.168531850393701
21
-4.4805642519685041
0
LINE
8
BLACK
6
CONTINUOUS
10
7.168531850393701
20
-4.4805642519685041
11
7.1685983464566929
21
-4.4806452362204725
0
LINE
8
BLACK
6
CONTINUOUS
10
7.1685983464566929
20
-4.4806452362204725
11
7.1686281496062989
21
-4.4807171653543305
0
LINE
8
BLACK
6
CONTINUOUS
10
7.1686281496062989
20
-4.4807171653543305
11
7.1687842519685034
21
-4.4809651968503932
0
LINE
8
BLACK
6
CONTINUOUS
10
7.1687842519685034
20
-4.4809651968503932
11
7.170659015748031
21
-4.4847147244094483
0
LINE
8
BLACK
6
CONTINUOUS
10
7.170659015748031
20
-4.4847147244094483
11
7.1708659055118105
21
-4.4852553149606296
0
LINE
8
BLACK
6
CONTINUOUS
10
7.1708659055118105
20
-4.4852553149606296
11
7.1708734251968504
21
-4.4853611811023617
0
LINE
8
BLACK
6
CONTINUOUS
10
7.1708734251968504
20
-4.4853611811023617
11
7.1709140157480311
21
-4.485459173228346
0
LINE
8
BLACK
6
CONTINUOUS
10
7.1709140157480311
20
-4.485459173228346
11
7.1709707480314959
21
-4.4860352362204727
0
LINE
8
BLACK
6
CONTINUOUS
10
7.1709707480314959
20
-4.4860352362204727
11
7.1709707480314959
21
-4.4897847637795278
0
LINE
8
BLACK
6
CONTINUOUS
10
7.1709707480314959
20
-4.4897847637795278
11
7.1709420078740154
21
-4.4900763385826767
0
LINE
8
BLACK
6
CONTINUOUS
10
7.1709420078740154
20
-4.4900763385826767
11
7.1709475590551177
21
-4.4901540944881893
0
LINE
8
BLACK
6
CONTINUOUS
10
7.1709475590551177
20
-4.4901540944881893
11
7.1709242913385829
21
-4.490256338582677
0
LINE
8
BLACK
6
CONTINUOUS
10
7.1709242913385829
20
-4.490256338582677
11
7.1709140157480311
21
-4.4903608267716537
0
LINE
8
BLACK
6
CONTINUOUS
10
7.1709140157480311
20
-4.4903608267716537
11
7.1708841338582676
21
-4.490432874015748
0
LINE
8
BLACK
6
CONTINUOUS
10
7.1708841338582676
20
-4.490432874015748
11
7.1708192125984249
21
-4.4907185433070866
0
LINE
8
BLACK
6
CONTINUOUS
10
7.1708192125984249
20
-4.4907185433070866
11
7.1689444488188974
21
-4.4963427952755906
0
LINE
8
BLACK
6
CONTINUOUS
10
7.1689444488188974
20
-4.4963427952755906
11
7.1687084645669286
21
-4.4968713779527558
0
LINE
8
BLACK
6
CONTINUOUS
10
7.1687084645669286
20
-4.4968713779527558
11
7.1686389763779523
21
-4.496951456692913
0
LINE
8
BLACK
6
CONTINUOUS
10
7.1686389763779523
20
-4.496951456692913
11
7.1685983858267717
21
-4.4970495275590547
0
LINE
8
BLACK
6
CONTINUOUS
10
7.1685983858267717
20
-4.4970495275590547
11
7.1682311417322833
21
-4.4974969685039365
0
LINE
8
BLACK
6
CONTINUOUS
10
7.1682311417322833
20
-4.4974969685039365
11
7.1507746456692916
21
-4.5149535039370079
0
LINE
8
BLACK
6
CONTINUOUS
10
7.1507746456692916
20
-4.5149535039370079
11
7.1680179921259839
21
-4.5149535039370079
0
LINE
8
BLACK
6
CONTINUOUS
10
7.1680179921259839
20
-4.5149535039370079
11
7.1685940551181098
21
-4.5150102362204727
0
LINE
8
BLACK
6
CONTINUOUS
10
7.1685940551181098
20
-4.5150102362204727
11
7.169658464566929
21
-4.5154511417322833
0
LINE
8
BLACK
6
CONTINUOUS
10
7.169658464566929
20
-4.5154511417322833
11
7.1704731102362205
21
-4.5162657874015748
0
LINE
8
BLACK
6
CONTINUOUS
10
7.1704731102362205
20
-4.5162657874015748
11
7.1709140157480311
21
-4.5173301968503932
0
LINE
8
BLACK
6
CONTINUOUS
10
7.1709140157480311
20
-4.5173301968503932
11
7.1709140157480311
21
-4.5184823228346458
0
LINE
8
BLACK
6
CONTINUOUS
10
7.1709140157480311
20
-4.5184823228346458
11
7.1704731102362205
21
-4.5195467322834642
0
LINE
8
BLACK
6
CONTINUOUS
10
7.1704731102362205
20
-4.5195467322834642
11
7.169658464566929
21
-4.5203613779527556
0
LINE
8
BLACK
6
CONTINUOUS
10
7.169658464566929
20
-4.5203613779527556
11
7.1685940551181098
21
-4.5208022834645671
0
LINE
8
BLACK
6
CONTINUOUS
10
7.1685940551181098
20
-4.5208022834645671
11
7.1680179921259839
21
-4.5208590157480311
0
LINE
8
BLACK
6
CONTINUOUS
10
7.1680179921259839
20
-4.5208590157480311
11
7.1436460629921257
21
-4.5208590157480311
0
LINE
8
BLACK
6
CONTINUOUS
10
7.1436460629921257
20
-4.5208590157480311
11
7.1430699999999998
21
-4.5208022834645671
0
LINE
8
BLACK
6
CONTINUOUS
10
7.1430699999999998
20
-4.5208022834645671
11
7.1420055905511806
21
-4.5203613779527556
0
LINE
8
BLACK
6
CONTINUOUS
10
7.1420055905511806
20
-4.5203613779527556
11
7.14119094488189
21
-4.5195467322834642
0
LINE
8
BLACK
6
CONTINUOUS
10
7.14119094488189
20
-4.5195467322834642
11
7.1407500393700785
21
-4.5184823228346458
0
LINE
8
BLACK
6
CONTINUOUS
10
7.1407500393700785
20
-4.5184823228346458
11
7.1407500393700785
21
-4.5173301968503932
0
LINE
8
BLACK
6
CONTINUOUS
10
7.1407500393700785
20
-4.5173301968503932
11
7.14119094488189
21
-4.5162657874015748
0
LINE
8
BLACK
6
CONTINUOUS
10
7.14119094488189
20
-4.5162657874015748
11
7.1415581496062988
21
-4.515818346456693
0
LINE
8
BLACK
6
CONTINUOUS
10
7.1415581496062988
20
-4.515818346456693
11
7.1635624015748034
21
-4.4938140157480317
0
LINE
8
BLACK
6
CONTINUOUS
10
7.1635624015748034
20
-4.4938140157480317
11
7.1650652362204719
21
-4.4893056299212599
0
LINE
8
BLACK
6
CONTINUOUS
10
7.1650652362204719
20
-4.4893056299212599
11
7.1650652362204719
21
-4.4867322834645664
0
LINE
8
BLACK
6
CONTINUOUS
10
7.1650652362204719
20
-4.4867322834645664
11
7.1637164960629915
21
-4.4840348031496058
0
LINE
8
BLACK
6
CONTINUOUS
10
7.1637164960629915
20
-4.4840348031496058
11
7.1625193700787397
21
-4.482837677165354
0
LINE
8
BLACK
6
CONTINUOUS
10
7.1625193700787397
20
-4.482837677165354
11
7.1598218897637791
21
-4.4814889370078737
0
LINE
8
BLACK
6
CONTINUOUS
10
7.1598218897637791
20
-4.4814889370078737
11
7.1518421653543305
21
-4.4814889370078737
0
LINE
8
BLACK
6
CONTINUOUS
10
7.1518421653543305
20
-4.4814889370078737
11
7.1491446850393698
21
-4.482837677165354
0
LINE
8
BLACK
6
CONTINUOUS
10
7.1491446850393698
20
-4.482837677165354
11
7.1476087401574802
21
-4.4843736220472437
0
LINE
8
BLACK
6
CONTINUOUS
10
7.1476087401574802
20
-4.4843736220472437
11
7.1471612992125984
21
-4.4847408267716533
0
LINE
8
BLACK
6
CONTINUOUS
10
7.1471612992125984
20
-4.4847408267716533
11
7.1460968503937004
21
-4.4851817322834648
0
LINE
8
BLACK
6
CONTINUOUS
10
7.1460968503937004
20
-4.4851817322834648
11
7.1449448031496061
21
-4.4851817322834648
0
LINE
8
BLACK
6
CONTINUOUS
10
7.1449448031496061
20
-4.4851817322834648
11
7.1438803543307081
21
-4.4847408267716533
0
LINE
8
BLACK
6
CONTINUOUS
10
7.1438803543307081
20
-4.4847408267716533
11
7.1430657086614175
21
-4.4839261811023619
0
LINE
8
BLACK
6
CONTINUOUS
10
7.1430657086614175
20
-4.4839261811023619
11
7.142624803149606
21
-4.4828617322834647
0
LINE
8
BLACK
6
CONTINUOUS
10
7.142624803149606
20
-4.4828617322834647
11
7.142624803149606
21
-4.4817096850393696
0
LINE
8
BLACK
6
CONTINUOUS
10
7.142624803149606
20
-4.4817096850393696
11
7.1430657086614175
21
-4.4806452362204725
0
LINE
8
BLACK
6
CONTINUOUS
10
7.1430657086614175
20
-4.4806452362204725
11
7.1434329133858263
21
-4.4801977952755907
0
LINE
8
BLACK
6
CONTINUOUS
10
7.1434329133858263
20
-4.4801977952755907
11
7.1453076771653539
21
-4.4783230314960631
0
LINE
8
BLACK
6
CONTINUOUS
10
7.1453076771653539
20
-4.4783230314960631
11
7.1455340157480309
21
-4.478137244094488
0
LINE
8
BLACK
6
CONTINUOUS
10
7.1455340157480309
20
-4.478137244094488
11
7.1455851968503934
21
-4.4780782677165352
0
LINE
8
BLACK
6
CONTINUOUS
10
7.1455851968503934
20
-4.4780782677165352
11
7.1456741338582672
21
-4.4780222834645667
0
LINE
8
BLACK
6
CONTINUOUS
10
7.1456741338582672
20
-4.4780222834645667
11
7.1457551181102357
21
-4.4779558267716535
0
LINE
8
BLACK
6
CONTINUOUS
10
7.1457551181102357
20
-4.4779558267716535
11
7.1458270472440946
21
-4.4779259842519687
0
LINE
8
BLACK
6
CONTINUOUS
10
7.1458270472440946
20
-4.4779259842519687
11
7.1460750787401572
21
-4.4777699212598421
0
LINE
8
BLACK
6
CONTINUOUS
10
7.1460750787401572
20
-4.4777699212598421
11
7.1498246062992123
21
-4.4758951574803145
0
LINE
8
BLACK
6
CONTINUOUS
10
7.1498246062992123
20
-4.4758951574803145
11
7.1503651968503936
21
-4.4756882677165351
0
LINE
8
BLACK
6
CONTINUOUS
10
7.1503651968503936
20
-4.4756882677165351
11
7.1504710629921258
21
-4.4756807086614172
0
LINE
8
BLACK
6
CONTINUOUS
10
7.1504710629921258
20
-4.4756807086614172
11
7.15056905511811
21
-4.4756401574803153
0
LINE
8
BLACK
6
CONTINUOUS
10
7.15056905511811
20
-4.4756401574803153
11
7.1511451181102359
21
-4.4755834251968505
0
LINE
8
BLACK
6
CONTINUOUS
10
7.1511451181102359
20
-4.4755834251968505
11
7.1605189370078737
21
-4.4755834251968505
0
LINE
8
BLACK
6
CONTINUOUS
10
7.1605189370078737
20
-4.4755834251968505
11
7.1610949999999995
21
-4.4756401574803153
0
LINE
8
BLACK
6
CONTINUOUS
10
7.255666692913386
20
-4.3554648031496059
11
7.2567320472440944
21
-4.3565301574803152
0
LINE
8
BLACK
6
CONTINUOUS
10
7.2567320472440944
20
-4.3565301574803152
11
7.256881889763779
21
-4.3572834645669287
0
LINE
8
BLACK
6
CONTINUOUS
10
7.256881889763779
20
-4.3572834645669287
11
7.256881889763779
21
-4.6427165354330704
0
LINE
8
BLACK
6
CONTINUOUS
10
7.256881889763779
20
-4.6427165354330704
11
7.2567320472440944
21
-4.6434698425196848
0
LINE
8
BLACK
6
CONTINUOUS
10
7.2567320472440944
20
-4.6434698425196848
11
7.255666692913386
21
-4.6445351968503932
0
LINE
8
BLACK
6
CONTINUOUS
10
7.255666692913386
20
-4.6445351968503932
11
7.2549133858267716
21
-4.6446850393700787
0
LINE
8
BLACK
6
CONTINUOUS
10
7.2549133858267716
20
-4.6446850393700787
11
6.8690866141732281
21
-4.6446850393700787
0
LINE
8
BLACK
6
CONTINUOUS
10
6.8690866141732281
20
-4.6446850393700787
11
6.8683333070866137
21
-4.6445351968503932
0
LINE
8
BLACK
6
CONTINUOUS
10
6.8683333070866137
20
-4.6445351968503932
11
6.8672679527559053
21
-4.6434698425196848
0
LINE
8
BLACK
6
CONTINUOUS
10
6.8672679527559053
20
-4.6434698425196848
11
6.8671181102362207
21
-4.6427165354330704
0
LINE
8
BLACK
6
CONTINUOUS
10
6.8671181102362207
20
-4.6427165354330704
11
6.8671181102362207
21
-4.3572834645669287
0
LINE
8
BLACK
6
CONTINUOUS
10
6.8671181102362207
20
-4.3572834645669287
11
6.8672679527559053
21
-4.3565301574803152
0
LINE
8
BLACK
6
CONTINUOUS
10
6.8672679527559053
20
-4.3565301574803152
11
6.8683333070866137
21
-4.3554648031496059
0
LINE
8
BLACK
6
CONTINUOUS
10
6.8683333070866137
20
-4.3554648031496059
11
6.8690866141732281
21
-4.3553149606299213
0
LINE
8
BLACK
6
CONTINUOUS
10
6.8690866141732281
20
-4.3553149606299213
11
7.2549133858267716
21
-4.3553149606299213
0
LINE
8
BLACK
6
CONTINUOUS
10
7.2549133858267716
20
-4.3553149606299213
11
7.255666692913386
21
-4.3554648031496059
0
LINE
8
BLACK
6
CONTINUOUS
10
6.8710551181102364
20
-4.359251968503937
11
6.8710551181102364
21
-4.4788453543307085
0
LINE
8
BLACK
6
CONTINUOUS
10
6.8710551181102364
20
-4.4788453543307085
11
6.8714041732283464
21
-4.4784962992125985
0
LINE
8
BLACK
6
CONTINUOUS
10
6.8714041732283464
20
-4.4784962992125985
11
6.8729107874015742
21
-4.4784962992125985
0
LINE
8
BLACK
6
CONTINUOUS
10
6.8729107874015742
20
-4.4784962992125985
11
6.8735494094488185
21
-4.4789230314960626
0
LINE
8
BLACK
6
CONTINUOUS
10
6.8735494094488185
20
-4.4789230314960626
11
6.8932344488188972
21
-4.4986080708661413
0
LINE
8
BLACK
6
CONTINUOUS
10
6.8932344488188972
20
-4.4986080708661413
11
6.8936611811023623
21
-4.4992466929133856
0
LINE
8
BLACK
6
CONTINUOUS
10
6.8936611811023623
20
-4.4992466929133856
11
6.8936611811023623
21
-4.5007533070866144
0
LINE
8
BLACK
6
CONTINUOUS
10
6.8936611811023623
20
-4.5007533070866144
11
6.8932344488188972
21
-4.5013919291338578
0
LINE
8
BLACK
6
CONTINUOUS
10
6.8932344488188972
20
-4.5013919291338578
11
6.8735494094488185
21
-4.5210769685039365
0
LINE
8
BLACK
6
CONTINUOUS
10
6.8735494094488185
20
-4.5210769685039365
11
6.8729107874015742
21
-4.5215037007874015
0
LINE
8
BLACK
6
CONTINUOUS
10
6.8729107874015742
20
-4.5215037007874015
11
6.8714041732283464
21
-4.5215037007874015
0
LINE
8
BLACK
6
CONTINUOUS
10
6.8714041732283464
20
-4.5215037007874015
11
6.8710551181102364
21
-4.5211546456692915
0
LINE
8
BLACK
6
CONTINUOUS
10
6.8710551181102364
20
-4.5211546456692915
11
6.8710551181102364
21
-4.640748031496063
0
LINE
8
BLACK
6
CONTINUOUS
10
6.8710551181102364
20
-4.640748031496063
11
7.2529448818897633
21
-4.640748031496063
0
LINE
8
BLACK
6
CONTINUOUS
10
7.2529448818897633
20
-4.640748031496063
11
7.2529448818897633
21
-4.359251968503937
0
LINE
8
BLACK
6
CONTINUOUS
10
7.2529448818897633
20
-4.359251968503937
11
6.8710551181102364
21
-4.359251968503937
0
LINE
8
BLACK
6
CONTINUOUS
10
6.8710551181102364
20
-4.5180035433070866
11
6.889058661417323
21
-4.5
0
LINE
8
BLACK
6
CONTINUOUS
10
6.889058661417323
20
-4.5
11
6.8710551181102364
21
-4.4819964566929134
0
LINE
8
BLACK
6
CONTINUOUS
10
6.8710551181102364
20
-4.4819964566929134
11
6.8710551181102364
21
-4.5180035433070866
0
LINE
8
BLACK
6
CONTINUOUS
10
8.1101688188976375
20
-4.1325771259842519
11
8.1106162598425193
21
-4.1329443307086615
0
LINE
8
BLACK
6
CONTINUOUS
10
8.1106162598425193
20
-4.1329443307086615
11
8.1280727559055119
21
-4.1504008267716532
0
LINE
8
BLACK
6
CONTINUOUS
10
8.1280727559055119
20
-4.1504008267716532
11
8.1280727559055119
21
-4.1350322440944884
0
LINE
8
BLACK
6
CONTINUOUS
10
8.1280727559055119
20
-4.1350322440944884
11
8.1281294881889767
21
-4.1344561811023617
0
LINE
8
BLACK
6
CONTINUOUS
10
8.1281294881889767
20
-4.1344561811023617
11
8.1285703937007874
21
-4.1333917716535433
0
LINE
8
BLACK
6
CONTINUOUS
10
8.1285703937007874
20
-4.1333917716535433
11
8.1293850393700779
21
-4.1325771259842519
0
LINE
8
BLACK
6
CONTINUOUS
10
8.1293850393700779
20
-4.1325771259842519
11
8.1304494488188972
21
-4.1321362204724412
0
LINE
8
BLACK
6
CONTINUOUS
10
8.1304494488188972
20
-4.1321362204724412
11
8.1316015748031489
21
-4.1321362204724412
0
LINE
8
BLACK
6
CONTINUOUS
10
8.1316015748031489
20
-4.1321362204724412
11
8.1326659842519682
21
-4.1325771259842519
0
LINE
8
BLACK
6
CONTINUOUS
10
8.1326659842519682
20
-4.1325771259842519
11
8.1334806299212605
21
-4.1333917716535433
0
LINE
8
BLACK
6
CONTINUOUS
10
8.1334806299212605
20
-4.1333917716535433
11
8.1339215354330712
21
-4.1344561811023617
0
LINE
8
BLACK
6
CONTINUOUS
10
8.1339215354330712
20
-4.1344561811023617
11
8.133978267716536
21
-4.1350322440944884
0
LINE
8
BLACK
6
CONTINUOUS
10
8.133978267716536
20
-4.1350322440944884
11
8.133978267716536
21
-4.1744023228346459
0
LINE
8
BLACK
6
CONTINUOUS
10
8.133978267716536
20
-4.1744023228346459
11
8.1339215354330712
21
-4.1749783858267717
0
LINE
8
BLACK
6
CONTINUOUS
10
8.1339215354330712
20
-4.1749783858267717
11
8.1334806299212605
21
-4.1760427952755901
0
LINE
8
BLACK
6
CONTINUOUS
10
8.1334806299212605
20
-4.1760427952755901
11
8.1326659842519682
21
-4.1768574409448815
0
LINE
8
BLACK
6
CONTINUOUS
10
8.1326659842519682
20
-4.1768574409448815
11
8.1316015748031489
21
-4.1772983464566931
0
LINE
8
BLACK
6
CONTINUOUS
10
8.1316015748031489
20
-4.1772983464566931
11
8.1304494488188972
21
-4.1772983464566931
0
LINE
8
BLACK
6
CONTINUOUS
10
8.1304494488188972
20
-4.1772983464566931
11
8.1293850393700779
21
-4.1768574409448815
0
LINE
8
BLACK
6
CONTINUOUS
10
8.1293850393700779
20
-4.1768574409448815
11
8.1285703937007874
21
-4.1760427952755901
0
LINE
8
BLACK
6
CONTINUOUS
10
8.1285703937007874
20
-4.1760427952755901
11
8.1281294881889767
21
-4.1749783858267717
0
LINE
8
BLACK
6
CONTINUOUS
10
8.1281294881889767
20
-4.1749783858267717
11
8.1280727559055119
21
-4.1744023228346459
0
LINE
8
BLACK
6
CONTINUOUS
10
8.1280727559055119
20
-4.1744023228346459
11
8.1280727559055119
21
-4.1587524803149609
0
LINE
8
BLACK
6
CONTINUOUS
10
8.1280727559055119
20
-4.1587524803149609
11
8.1257206692913382
21
-4.1564003937007872
0
LINE
8
BLACK
6
CONTINUOUS
10
8.1257206692913382
20
-4.1564003937007872
11
8.110890551181102
21
-4.1761739763779531
0
LINE
8
BLACK
6
CONTINUOUS
10
8.110890551181102
20
-4.1761739763779531
11
8.110499527559055
21
-4.1766007874015747
0
LINE
8
BLACK
6
CONTINUOUS
10
8.110499527559055
20
-4.1766007874015747
11
8.1095081496062988
21
-4.1771877559055115
0
LINE
8
BLACK
6
CONTINUOUS
10
8.1095081496062988
20
-4.1771877559055115
11
8.1083676377952756
21
-4.1773507086614172
0
LINE
8
BLACK
6
CONTINUOUS
10
8.1083676377952756
20
-4.1773507086614172
11
8.1072515748031488
21
-4.1770647637795273
0
LINE
8
BLACK
6
CONTINUOUS
10
8.1072515748031488
20
-4.1770647637795273
11
8.1063298818897636
21
-4.1763735039370076
0
LINE
8
BLACK
6
CONTINUOUS
10
8.1063298818897636
20
-4.1763735039370076
11
8.1057429133858268
21
-4.1753821259842523
0
LINE
8
BLACK
6
CONTINUOUS
10
8.1057429133858268
20
-4.1753821259842523
11
8.105579960629921
21
-4.1742416141732281
0
LINE
8
BLACK
6
CONTINUOUS
10
8.105579960629921
20
-4.1742416141732281
11
8.105865905511811
21
-4.1731255511811023
0
LINE
8
BLACK
6
CONTINUOUS
10
8.105865905511811
20
-4.1731255511811023
11
8.1061661417322828
21
-4.1726306692913386
0
LINE
8
BLACK
6
CONTINUOUS
10
8.1061661417322828
20
-4.1726306692913386
11
8.1215024409448819
21
-4.1521821653543309
0
LINE
8
BLACK
6
CONTINUOUS
10
8.1215024409448819
20
-4.1521821653543309
11
8.1064404330708655
21
-4.1371201574803145
0
LINE
8
BLACK
6
CONTINUOUS
10
8.1064404330708655
20
-4.1371201574803145
11
8.1060732283464567
21
-4.1366727165354327
0
LINE
8
BLACK
6
CONTINUOUS
10
8.1060732283464567
20
-4.1366727165354327
11
8.1056323228346461
21
-4.1356082677165356
0
LINE
8
BLACK
6
CONTINUOUS
10
8.1056323228346461
20
-4.1356082677165356
11
8.1056323228346461
21
-4.1344562204724404
0
LINE
8
BLACK
6
CONTINUOUS
10
8.1056323228346461
20
-4.1344562204724404
11
8.1060732283464567
21
-4.1333917716535433
0
LINE
8
BLACK
6
CONTINUOUS
10
8.1060732283464567
20
-4.1333917716535433
11
8.1068878740157473
21
-4.1325771259842519
0
LINE
8
BLACK
6
CONTINUOUS
10
8.1068878740157473
20
-4.1325771259842519
11
8.1079523228346453
21
-4.1321362204724412
0
LINE
8
BLACK
6
CONTINUOUS
10
8.1079523228346453
20
-4.1321362204724412
11
8.1091043700787395
21
-4.1321362204724412
0
LINE
8
BLACK
6
CONTINUOUS
10
8.1091043700787395
20
-4.1321362204724412
11
8.1101688188976375
21
-4.1325771259842519
0
LINE
8
BLACK
6
CONTINUOUS
10
8.1101688188976375
20
-3.9928133464566926
11
8.1106162598425193
21
-3.9931805511811023
0
LINE
8
BLACK
6
CONTINUOUS
10
8.1106162598425193
20
-3.9931805511811023
11
8.1280727559055119
21
-4.010637047244094
0
LINE
8
BLACK
6
CONTINUOUS
10
8.1280727559055119
20
-4.010637047244094
11
8.1280727559055119
21
-3.9952684645669292
0
LINE
8
BLACK
6
CONTINUOUS
10
8.1280727559055119
20
-3.9952684645669292
11
8.1281294881889767
21
-3.9946924015748029
0
LINE
8
BLACK
6
CONTINUOUS
10
8.1281294881889767
20
-3.9946924015748029
11
8.1285703937007874
21
-3.9936279921259841
0
LINE
8
BLACK
6
CONTINUOUS
10
8.1285703937007874
20
-3.9936279921259841
11
8.1293850393700779
21
-3.9928133464566926
0
LINE
8
BLACK
6
CONTINUOUS
10
8.1293850393700779
20
-3.9928133464566926
11
8.1304494488188972
21
-3.992372440944882
0
LINE
8
BLACK
6
CONTINUOUS
10
8.1304494488188972
20
-3.992372440944882
11
8.1316015748031489
21
-3.992372440944882
0
LINE
8
BLACK
6
CONTINUOUS
10
8.1316015748031489
20
-3.992372440944882
11
8.1326659842519682
21
-3.9928133464566926
0
LINE
8
BLACK
6
CONTINUOUS
10
8.1326659842519682
20
-3.9928133464566926
11
8.1334806299212605
21
-3.9936279921259841
0
LINE
8
BLACK
6
CONTINUOUS
10
8.1334806299212605
20
-3.9936279921259841
11
8.1339215354330712
21
-3.9946924015748029
0
LINE
8
BLACK
6
CONTINUOUS
10
8.1339215354330712
20
-3.9946924015748029
11
8.133978267716536
21
-3.9952684645669292
0
LINE
8
BLACK
6
CONTINUOUS
10
8.133978267716536
20
-3.9952684645669292
11
8.133978267716536
21
-4.0346385433070866
0
LINE
8
BLACK
6
CONTINUOUS
10
8.133978267716536
20
-4.0346385433070866
11
8.1339215354330712
21
-4.0352146062992125
0
LINE
8
BLACK
6
CONTINUOUS
10
8.1339215354330712
20
-4.0352146062992125
11
8.1334806299212605
21
-4.0362790157480317
0
LINE
8
BLACK
6
CONTINUOUS
10
8.1334806299212605
20
-4.0362790157480317
11
8.1326659842519682
21
-4.0370936614173232
0
LINE
8
BLACK
6
CONTINUOUS
10
8.1326659842519682
20
-4.0370936614173232
11
8.1316015748031489
21
-4.0375345669291338
0
LINE
8
BLACK
6
CONTINUOUS
10
8.1316015748031489
20
-4.0375345669291338
11
8.1304494488188972
21
-4.0375345669291338
0
LINE
8
BLACK
6
CONTINUOUS
10
8.1304494488188972
20
-4.0375345669291338
11
8.1293850393700779
21
-4.0370936614173232
0
LINE
8
BLACK
6
CONTINUOUS
10
8.1293850393700779
20
-4.0370936614173232
11
8.1285703937007874
21
-4.0362790157480317
0
LINE
8
BLACK
6
CONTINUOUS
10
8.1285703937007874
20
-4.0362790157480317
11
8.1281294881889767
21
-4.0352146062992125
0
LINE
8
BLACK
6
CONTINUOUS
10
8.1281294881889767
20
-4.0352146062992125
11
8.1280727559055119
21
-4.0346385433070866
0
LINE
8
BLACK
6
CONTINUOUS
10
8.1280727559055119
20
-4.0346385433070866
11
8.1280727559055119
21
-4.0189887007874017
0
LINE
8
BLACK
6
CONTINUOUS
10
8.1280727559055119
20
-4.0189887007874017
11
8.1257206692913382
21
-4.0166366141732279
0
LINE
8
BLACK
6
CONTINUOUS
10
8.1257206692913382
20
-4.0166366141732279
11
8.110890551181102
21
-4.0364101968503938
0
LINE
8
BLACK
6
CONTINUOUS
10
8.110890551181102
20
-4.0364101968503938
11
8.110499527559055
21
-4.0368370078740154
0
LINE
8
BLACK
6
CONTINUOUS
10
8.110499527559055
20
-4.0368370078740154
11
8.1095081496062988
21
-4.0374239763779523
0
LINE
8
BLACK
6
CONTINUOUS
10
8.1095081496062988
20
-4.0374239763779523
11
8.1083676377952756
21
-4.037586929133858
0
LINE
8
BLACK
6
CONTINUOUS
10
8.1083676377952756
20
-4.037586929133858
11
8.1072515748031488
21
-4.037300984251968
0
LINE
8
BLACK
6
CONTINUOUS
10
8.1072515748031488
20
-4.037300984251968
11
8.1063298818897636
21
-4.0366097244094483
0
LINE
8
BLACK
6
CONTINUOUS
10
8.1063298818897636
20
-4.0366097244094483
11
8.1057429133858268
21
-4.035618346456693
0
LINE
8
BLACK
6
CONTINUOUS
10
8.1057429133858268
20
-4.035618346456693
11
8.105579960629921
21
-4.0344778346456689
0
LINE
8
BLACK
6
CONTINUOUS
10
8.105579960629921
20
-4.0344778346456689
11
8.105865905511811
21
-4.033361771653543
0
LINE
8
BLACK
6
CONTINUOUS
10
8.105865905511811
20
-4.033361771653543
11
8.1061661417322828
21
-4.0328668897637794
0
LINE
8
BLACK
6
CONTINUOUS
10
8.1061661417322828
20
-4.0328668897637794
11
8.1215024409448819
21
-4.0124183858267717
0
LINE
8
BLACK
6
CONTINUOUS
10
8.1215024409448819
20
-4.0124183858267717
11
8.1064404330708655
21
-3.9973563779527557
0
LINE
8
BLACK
6
CONTINUOUS
10
8.1064404330708655
20
-3.9973563779527557
11
8.1060732283464567
21
-3.9969089370078739
0
LINE
8
BLACK
6
CONTINUOUS
10
8.1060732283464567
20
-3.9969089370078739
11
8.1056323228346461
21
-3.9958444881889763
0
LINE
8
BLACK
6
CONTINUOUS
10
8.1056323228346461
20
-3.9958444881889763
11
8.1056323228346461
21
-3.9946924409448816
0
LINE
8
BLACK
6
CONTINUOUS
10
8.1056323228346461
20
-3.9946924409448816
11
8.1060732283464567
21
-3.9936279921259841
0
LINE
8
BLACK
6
CONTINUOUS
10
8.1060732283464567
20
-3.9936279921259841
11
8.1068878740157473
21
-3.9928133464566926
0
LINE
8
BLACK
6
CONTINUOUS
10
8.1068878740157473
20
-3.9928133464566926
11
8.1079523228346453
21
-3.992372440944882
0
LINE
8
BLACK
6
CONTINUOUS
10
8.1079523228346453
20
-3.992372440944882
11
8.1091043700787395
21
-3.992372440944882
0
LINE
8
BLACK
6
CONTINUOUS
10
8.1091043700787395
20
-3.992372440944882
11
8.1101688188976375
21
-3.9928133464566926
0
CIRCLE
8
BLACK
10
5.8585826771653542
20
-4.6730708661417326
40
0.0039370078740157
0
CIRCLE
8
BLACK
10
5.8999212598425199
20
-4.6730708661417326
40
0.0039370078740157
0
CIRCLE
8
BLACK
10
5.9412598425196848
20
-4.6730708661417326
40
0.0039370078740157
0
CIRCLE
8
BLACK
10
5.8585826771653542
20
-4.6317322834645669
40
0.0039370078740157
0
CIRCLE
8
BLACK
10
5.8999212598425199
20
-4.6317322834645669
40
0.0039370078740157
0
CIRCLE
8
BLACK
10
5.9412598425196848
20
-4.6317322834645669
40
0.0039370078740157
0
CIRCLE
8
BLACK
10
5.8585826771653542
20
-4.5903937007874012
40
0.0039370078740157
0
CIRCLE
8
BLACK
10
5.8999212598425199
20
-4.5903937007874012
40
0.0039370078740157
0
CIRCLE
8
BLACK
10
5.9412598425196848
20
-4.5903937007874012
40
0.0039370078740157
  0
ENDSEC
  0
EOF
