  0
SECTION
  2
HEADER
  9
$ANGBASE
  50
0.0
  9
$ANGDIR
  70
1
  9
$MEASUREMENT
  70
0
  0
ENDSEC
  0
SECTION
  2
TABLES
  0
TABLE
  2
LTYPE
  70
4
  0
LTYPE
  5
40F
  2
CONTINUOUS
  70
0
  3
Solid line
  72
65
  73
0
  40
0.0
  0
LTYPE
  5
410
  2
DASHDOT
 70
0
  3
Dash Dot ____ _ ____ _
 72
65
 73
4
 40
2.0
 49
1.25
 49
-0.25
 49
0.25
 49
-0.25
  0
LTYPE
  5
411
  2
DASHED
 70
0
  3
Dashed __ __ __ __ __
 72
65
 73
2
 40
0.75
 49
0.5
 49
-0.25
  0
LTYPE
  5
43B
  2
DOTTED
 70
0
  3
Dotted .  .  .  .
 72
65
 73
2
 40
0.2
 49
0.0
 49
-0.2
  0
ENDTAB
  0
TABLE
  2
STYLE
  70
4
  0
STYLE
  2
KICAD
  70
0
  40
0
  41
1
  42
1
  50
0
  71
0
  3
isocp.shx
  0
STYLE
  2
KICADB
  70
0
  40
0
  41
1
  42
1
  50
0
  71
0
  3
isocp.shx
  0
STYLE
  2
KICADI
  70
0
  40
0
  41
1
  42
1
  50
15
  71
0
  3
isocp.shx
  0
STYLE
  2
KICADBI
  70
0
  40
0
  41
1
  42
1
  50
15
  71
0
  3
isocp.shx
  0
ENDTAB
  0
TABLE
  2
LAYER
  70
1
  0
LAYER
  2
BLACK
  70
0
  62
7
  6
CONTINUOUS
  0
ENDTAB
  0
ENDSEC
  0
SECTION
  2
ENTITIES
0
LINE
8
BLACK
6
CONTINUOUS
10
7.0029448818897633
20
-4.5994094488188972
11
7.256881889763779
21
-4.5994094488188972
0
LINE
8
BLACK
6
CONTINUOUS
10
7.256881889763779
20
-4.5994094488188972
11
7.256881889763779
21
-4.6427165354330704
0
LINE
8
BLACK
6
CONTINUOUS
10
7.256881889763779
20
-4.6427165354330704
11
7.0029448818897633
21
-4.6427165354330704
0
LINE
8
BLACK
6
CONTINUOUS
10
7.0029448818897633
20
-4.6427165354330704
11
6.8710551181102364
21
-4.6427165354330704
0
LINE
8
BLACK
6
CONTINUOUS
10
6.8710551181102364
20
-4.6427165354330704
11
6.8710551181102364
21
-4.5836614173228343
0
LINE
8
BLACK
6
CONTINUOUS
10
6.8710551181102364
20
-4.5836614173228343
11
7.0029448818897633
21
-4.5836614173228343
0
LINE
8
BLACK
6
CONTINUOUS
10
7.0029448818897633
20
-4.5836614173228343
11
7.0029448818897633
21
-4.5994094488188972
0
LINE
8
BLACK
6
CONTINUOUS
10
6.9281417322834642
20
-4.5285433070866139
11
6.8690866141732281
21
-4.5285433070866139
0
LINE
8
BLACK
6
CONTINUOUS
10
6.8690866141732281
20
-4.5285433070866139
11
6.8690866141732281
21
-4.4714566929133861
0
LINE
8
BLACK
6
CONTINUOUS
10
6.8690866141732281
20
-4.4714566929133861
11
6.9281417322834642
21
-4.4714566929133861
0
LINE
8
BLACK
6
CONTINUOUS
10
6.9281417322834642
20
-4.4714566929133861
11
6.9281417322834642
21
-4.5285433070866139
0
LINE
8
BLACK
6
CONTINUOUS
10
7.256881889763779
20
-4.4005905511811019
11
7.0029448818897633
21
-4.4005905511811019
0
LINE
8
BLACK
6
CONTINUOUS
10
7.0029448818897633
20
-4.4005905511811019
11
7.0029448818897633
21
-4.4163385826771648
0
LINE
8
BLACK
6
CONTINUOUS
10
7.0029448818897633
20
-4.4163385826771648
11
6.8710551181102364
21
-4.4163385826771648
0
LINE
8
BLACK
6
CONTINUOUS
10
6.8710551181102364
20
-4.4163385826771648
11
6.8710551181102364
21
-4.3572834645669287
0
LINE
8
BLACK
6
CONTINUOUS
10
6.8710551181102364
20
-4.3572834645669287
11
7.0029448818897633
21
-4.3572834645669287
0
LINE
8
BLACK
6
CONTINUOUS
10
7.0029448818897633
20
-4.3572834645669287
11
7.256881889763779
21
-4.3572834645669287
0
LINE
8
BLACK
6
CONTINUOUS
10
7.256881889763779
20
-4.3572834645669287
11
7.256881889763779
21
-4.4005905511811019
0
LINE
8
BLACK
6
CONTINUOUS
10
6.7847952755905512
20
-3.6818425196850395
11
6.7592047244094484
21
-3.6818425196850395
0
LINE
8
BLACK
6
CONTINUOUS
10
6.7592047244094484
20
-3.6818425196850395
11
6.7592047244094484
21
-3.6660944881889761
0
LINE
8
BLACK
6
CONTINUOUS
10
6.7592047244094484
20
-3.6660944881889761
11
6.7847952755905512
21
-3.6660944881889761
0
LINE
8
BLACK
6
CONTINUOUS
10
6.7847952755905512
20
-3.6660944881889761
11
6.7847952755905512
21
-3.6818425196850395
0
LINE
8
BLACK
6
CONTINUOUS
10
6.8595984251968503
20
-3.6818425196850395
11
6.8340078740157475
21
-3.6818425196850395
0
LINE
8
BLACK
6
CONTINUOUS
10
6.8340078740157475
20
-3.6818425196850395
11
6.8340078740157475
21
-3.6660944881889761
0
LINE
8
BLACK
6
CONTINUOUS
10
6.8340078740157475
20
-3.6660944881889761
11
6.8595984251968503
21
-3.6660944881889761
0
LINE
8
BLACK
6
CONTINUOUS
10
6.8595984251968503
20
-3.6660944881889761
11
6.8595984251968503
21
-3.6818425196850395
0
LINE
8
BLACK
6
CONTINUOUS
10
6.7847952755905512
20
-3.6562519685039367
11
6.7592047244094484
21
-3.6562519685039367
0
LINE
8
BLACK
6
CONTINUOUS
10
6.7592047244094484
20
-3.6562519685039367
11
6.7592047244094484
21
-3.6405039370078738
0
LINE
8
BLACK
6
CONTINUOUS
10
6.7592047244094484
20
-3.6405039370078738
11
6.7847952755905512
21
-3.6405039370078738
0
LINE
8
BLACK
6
CONTINUOUS
10
6.7847952755905512
20
-3.6405039370078738
11
6.7847952755905512
21
-3.6562519685039367
0
LINE
8
BLACK
6
CONTINUOUS
10
6.8595984251968503
20
-3.6562519685039367
11
6.8340078740157475
21
-3.6562519685039367
0
LINE
8
BLACK
6
CONTINUOUS
10
6.8340078740157475
20
-3.6562519685039367
11
6.8340078740157475
21
-3.6405039370078738
0
LINE
8
BLACK
6
CONTINUOUS
10
6.8340078740157475
20
-3.6405039370078738
11
6.8595984251968503
21
-3.6405039370078738
0
LINE
8
BLACK
6
CONTINUOUS
10
6.8595984251968503
20
-3.6405039370078738
11
6.8595984251968503
21
-3.6562519685039367
0
LINE
8
BLACK
6
CONTINUOUS
10
6.9537363779527555
20
-3.603973503937008
11
6.9566101968503933
21
-3.6058937401574802
0
LINE
8
BLACK
6
CONTINUOUS
10
6.9566101968503933
20
-3.6058937401574802
11
6.9585304330708659
21
-3.608767559055118
0
LINE
8
BLACK
6
CONTINUOUS
10
6.9585304330708659
20
-3.608767559055118
11
6.9592047244094486
21
-3.6121574803149605
0
LINE
8
BLACK
6
CONTINUOUS
10
6.9592047244094486
20
-3.6121574803149605
11
6.9592047244094486
21
-3.6318425196850392
0
LINE
8
BLACK
6
CONTINUOUS
10
6.9592047244094486
20
-3.6318425196850392
11
6.9585304330708659
21
-3.6352324409448817
0
LINE
8
BLACK
6
CONTINUOUS
10
6.9585304330708659
20
-3.6352324409448817
11
6.9566101968503933
21
-3.6381062598425196
0
LINE
8
BLACK
6
CONTINUOUS
10
6.9566101968503933
20
-3.6381062598425196
11
6.9537363779527555
21
-3.6400264960629922
0
LINE
8
BLACK
6
CONTINUOUS
10
6.9537363779527555
20
-3.6400264960629922
11
6.9503464566929134
21
-3.6407007874015749
0
LINE
8
BLACK
6
CONTINUOUS
10
6.9503464566929134
20
-3.6407007874015749
11
6.9326299212598421
21
-3.6407007874015749
0
LINE
8
BLACK
6
CONTINUOUS
10
6.9326299212598421
20
-3.6407007874015749
11
6.9292400000000001
21
-3.6400264960629922
0
LINE
8
BLACK
6
CONTINUOUS
10
6.9292400000000001
20
-3.6400264960629922
11
6.9263661811023622
21
-3.6381062598425196
0
LINE
8
BLACK
6
CONTINUOUS
10
6.9263661811023622
20
-3.6381062598425196
11
6.9244459448818896
21
-3.6352324409448817
0
LINE
8
BLACK
6
CONTINUOUS
10
6.9244459448818896
20
-3.6352324409448817
11
6.9237716535433069
21
-3.6318425196850392
0
LINE
8
BLACK
6
CONTINUOUS
10
6.9237716535433069
20
-3.6318425196850392
11
6.9237716535433069
21
-3.6121574803149605
0
LINE
8
BLACK
6
CONTINUOUS
10
6.9237716535433069
20
-3.6121574803149605
11
6.9244459448818896
21
-3.608767559055118
0
LINE
8
BLACK
6
CONTINUOUS
10
6.9244459448818896
20
-3.608767559055118
11
6.9263661811023622
21
-3.6058937401574802
0
LINE
8
BLACK
6
CONTINUOUS
10
6.9263661811023622
20
-3.6058937401574802
11
6.9292400000000001
21
-3.603973503937008
0
LINE
8
BLACK
6
CONTINUOUS
10
6.9292400000000001
20
-3.603973503937008
11
6.9326299212598421
21
-3.6032992125984249
0
LINE
8
BLACK
6
CONTINUOUS
10
6.9326299212598421
20
-3.6032992125984249
11
6.9503464566929134
21
-3.6032992125984249
0
LINE
8
BLACK
6
CONTINUOUS
10
6.9503464566929134
20
-3.6032992125984249
11
6.9537363779527555
21
-3.603973503937008
0
LINE
8
BLACK
6
CONTINUOUS
10
7.0147599999999999
20
-3.603973503937008
11
7.0176338188976377
21
-3.6058937401574802
0
LINE
8
BLACK
6
CONTINUOUS
10
7.0176338188976377
20
-3.6058937401574802
11
7.0195540551181104
21
-3.608767559055118
0
LINE
8
BLACK
6
CONTINUOUS
10
7.0195540551181104
20
-3.608767559055118
11
7.020228346456693
21
-3.6121574803149605
0
LINE
8
BLACK
6
CONTINUOUS
10
7.020228346456693
20
-3.6121574803149605
11
7.020228346456693
21
-3.6318425196850392
0
LINE
8
BLACK
6
CONTINUOUS
10
7.020228346456693
20
-3.6318425196850392
11
7.0195540551181104
21
-3.6352324409448817
0
LINE
8
BLACK
6
CONTINUOUS
10
7.0195540551181104
20
-3.6352324409448817
11
7.0176338188976377
21
-3.6381062598425196
0
LINE
8
BLACK
6
CONTINUOUS
10
7.0176338188976377
20
-3.6381062598425196
11
7.0147599999999999
21
-3.6400264960629922
0
LINE
8
BLACK
6
CONTINUOUS
10
7.0147599999999999
20
-3.6400264960629922
11
7.0113700787401569
21
-3.6407007874015749
0
LINE
8
BLACK
6
CONTINUOUS
10
7.0113700787401569
20
-3.6407007874015749
11
6.9936535433070866
21
-3.6407007874015749
0
LINE
8
BLACK
6
CONTINUOUS
10
6.9936535433070866
20
-3.6407007874015749
11
6.9902636220472436
21
-3.6400264960629922
0
LINE
8
BLACK
6
CONTINUOUS
10
6.9902636220472436
20
-3.6400264960629922
11
6.9873898031496058
21
-3.6381062598425196
0
LINE
8
BLACK
6
CONTINUOUS
10
6.9873898031496058
20
-3.6381062598425196
11
6.985469566929134
21
-3.6352324409448817
0
LINE
8
BLACK
6
CONTINUOUS
10
6.985469566929134
20
-3.6352324409448817
11
6.9847952755905514
21
-3.6318425196850392
0
LINE
8
BLACK
6
CONTINUOUS
10
6.9847952755905514
20
-3.6318425196850392
11
6.9847952755905514
21
-3.6121574803149605
0
LINE
8
BLACK
6
CONTINUOUS
10
6.9847952755905514
20
-3.6121574803149605
11
6.985469566929134
21
-3.608767559055118
0
LINE
8
BLACK
6
CONTINUOUS
10
6.985469566929134
20
-3.608767559055118
11
6.9873898031496058
21
-3.6058937401574802
0
LINE
8
BLACK
6
CONTINUOUS
10
6.9873898031496058
20
-3.6058937401574802
11
6.9902636220472436
21
-3.603973503937008
0
LINE
8
BLACK
6
CONTINUOUS
10
6.9902636220472436
20
-3.603973503937008
11
6.9936535433070866
21
-3.6032992125984249
0
LINE
8
BLACK
6
CONTINUOUS
10
6.9936535433070866
20
-3.6032992125984249
11
7.0113700787401569
21
-3.6032992125984249
0
LINE
8
BLACK
6
CONTINUOUS
10
7.0113700787401569
20
-3.6032992125984249
11
7.0147599999999999
21
-3.603973503937008
0
LINE
8
BLACK
6
CONTINUOUS
10
6.7847952755905512
20
-3.6306614173228344
11
6.7592047244094484
21
-3.6306614173228344
0
LINE
8
BLACK
6
CONTINUOUS
10
6.7592047244094484
20
-3.6306614173228344
11
6.7592047244094484
21
-3.6149133858267715
0
LINE
8
BLACK
6
CONTINUOUS
10
6.7592047244094484
20
-3.6149133858267715
11
6.7847952755905512
21
-3.6149133858267715
0
LINE
8
BLACK
6
CONTINUOUS
10
6.7847952755905512
20
-3.6149133858267715
11
6.7847952755905512
21
-3.6306614173228344
0
LINE
8
BLACK
6
CONTINUOUS
10
6.8595984251968503
20
-3.6306614173228344
11
6.8340078740157475
21
-3.6306614173228344
0
LINE
8
BLACK
6
CONTINUOUS
10
6.8340078740157475
20
-3.6306614173228344
11
6.8340078740157475
21
-3.6149133858267715
0
LINE
8
BLACK
6
CONTINUOUS
10
6.8340078740157475
20
-3.6149133858267715
11
6.8595984251968503
21
-3.6149133858267715
0
LINE
8
BLACK
6
CONTINUOUS
10
6.8595984251968503
20
-3.6149133858267715
11
6.8595984251968503
21
-3.6306614173228344
0
LINE
8
BLACK
6
CONTINUOUS
10
6.136976377952756
20
-3.3743307086614172
11
6.0739842519685041
21
-3.3743307086614172
0
LINE
8
BLACK
6
CONTINUOUS
10
6.0739842519685041
20
-3.3743307086614172
11
6.0739842519685041
21
-3.3113385826771653
0
LINE
8
BLACK
6
CONTINUOUS
10
6.0739842519685041
20
-3.3113385826771653
11
6.136976377952756
21
-3.3113385826771653
0
LINE
8
BLACK
6
CONTINUOUS
10
6.136976377952756
20
-3.3113385826771653
11
6.136976377952756
21
-3.3743307086614172
0
LINE
8
BLACK
6
CONTINUOUS
10
6.712488858267716
20
-3.3121282677165356
11
6.7191459448818893
21
-3.3144576771653544
0
LINE
8
BLACK
6
CONTINUOUS
10
6.7191459448818893
20
-3.3144576771653544
11
6.7251177952755903
21
-3.3182100393700789
0
LINE
8
BLACK
6
CONTINUOUS
10
6.7251177952755903
20
-3.3182100393700789
11
6.7301049212598425
21
-3.3231971653543306
0
LINE
8
BLACK
6
CONTINUOUS
10
6.7301049212598425
20
-3.3231971653543306
11
6.7338572834645669
21
-3.3291690157480316
0
LINE
8
BLACK
6
CONTINUOUS
10
6.7338572834645669
20
-3.3291690157480316
11
6.7361866929133853
21
-3.3358261023622044
0
LINE
8
BLACK
6
CONTINUOUS
10
6.7361866929133853
20
-3.3358261023622044
11
6.7369763779527556
21
-3.3428346456692912
0
LINE
8
BLACK
6
CONTINUOUS
10
6.7369763779527556
20
-3.3428346456692912
11
6.7361866929133853
21
-3.349843188976378
0
LINE
8
BLACK
6
CONTINUOUS
10
6.7361866929133853
20
-3.349843188976378
11
6.7338572834645669
21
-3.3565002755905513
0
LINE
8
BLACK
6
CONTINUOUS
10
6.7338572834645669
20
-3.3565002755905513
11
6.7301049212598425
21
-3.3624721259842518
0
LINE
8
BLACK
6
CONTINUOUS
10
6.7301049212598425
20
-3.3624721259842518
11
6.7251177952755903
21
-3.367459251968504
0
LINE
8
BLACK
6
CONTINUOUS
10
6.7251177952755903
20
-3.367459251968504
11
6.7191459448818893
21
-3.3712116141732285
0
LINE
8
BLACK
6
CONTINUOUS
10
6.7191459448818893
20
-3.3712116141732285
11
6.712488858267716
21
-3.3735410236220473
0
LINE
8
BLACK
6
CONTINUOUS
10
6.712488858267716
20
-3.3735410236220473
11
6.7054803149606297
21
-3.3743307086614172
0
LINE
8
BLACK
6
CONTINUOUS
10
6.7054803149606297
20
-3.3743307086614172
11
6.6984717716535433
21
-3.3735410236220473
0
LINE
8
BLACK
6
CONTINUOUS
10
6.6984717716535433
20
-3.3735410236220473
11
6.69181468503937
21
-3.3712116141732285
0
LINE
8
BLACK
6
CONTINUOUS
10
6.69181468503937
20
-3.3712116141732285
11
6.6858428346456691
21
-3.367459251968504
0
LINE
8
BLACK
6
CONTINUOUS
10
6.6858428346456691
20
-3.367459251968504
11
6.6808557086614169
21
-3.3624721259842518
0
LINE
8
BLACK
6
CONTINUOUS
10
6.6808557086614169
20
-3.3624721259842518
11
6.6771033464566925
21
-3.3565002755905513
0
LINE
8
BLACK
6
CONTINUOUS
10
6.6771033464566925
20
-3.3565002755905513
11
6.674773937007874
21
-3.349843188976378
0
LINE
8
BLACK
6
CONTINUOUS
10
6.674773937007874
20
-3.349843188976378
11
6.6739842519685038
21
-3.3428346456692912
0
LINE
8
BLACK
6
CONTINUOUS
10
6.6739842519685038
20
-3.3428346456692912
11
6.674773937007874
21
-3.3358261023622044
0
LINE
8
BLACK
6
CONTINUOUS
10
6.674773937007874
20
-3.3358261023622044
11
6.6771033464566925
21
-3.3291690157480316
0
LINE
8
BLACK
6
CONTINUOUS
10
6.6771033464566925
20
-3.3291690157480316
11
6.6808557086614169
21
-3.3231971653543306
0
LINE
8
BLACK
6
CONTINUOUS
10
6.6808557086614169
20
-3.3231971653543306
11
6.6858428346456691
21
-3.3182100393700789
0
LINE
8
BLACK
6
CONTINUOUS
10
6.6858428346456691
20
-3.3182100393700789
11
6.69181468503937
21
-3.3144576771653544
0
LINE
8
BLACK
6
CONTINUOUS
10
6.69181468503937
20
-3.3144576771653544
11
6.6984717716535433
21
-3.3121282677165356
0
LINE
8
BLACK
6
CONTINUOUS
10
6.6984717716535433
20
-3.3121282677165356
11
6.7054803149606297
21
-3.3113385826771653
0
LINE
8
BLACK
6
CONTINUOUS
10
6.7054803149606297
20
-3.3113385826771653
11
6.712488858267716
21
-3.3121282677165356
0
LINE
8
BLACK
6
CONTINUOUS
10
6.1124888582677164
20
-3.0121282677165353
11
6.1191459448818897
21
-3.0144576771653542
0
LINE
8
BLACK
6
CONTINUOUS
10
6.1191459448818897
20
-3.0144576771653542
11
6.1251177952755906
21
-3.0182100393700786
0
LINE
8
BLACK
6
CONTINUOUS
10
6.1251177952755906
20
-3.0182100393700786
11
6.130104921259842
21
-3.0231971653543308
0
LINE
8
BLACK
6
CONTINUOUS
10
6.130104921259842
20
-3.0231971653543308
11
6.1338572834645664
21
-3.0291690157480313
0
LINE
8
BLACK
6
CONTINUOUS
10
6.1338572834645664
20
-3.0291690157480313
11
6.1361866929133857
21
-3.0358261023622046
0
LINE
8
BLACK
6
CONTINUOUS
10
6.1361866929133857
20
-3.0358261023622046
11
6.136976377952756
21
-3.0428346456692914
0
LINE
8
BLACK
6
CONTINUOUS
10
6.136976377952756
20
-3.0428346456692914
11
6.1361866929133857
21
-3.0498431889763777
0
LINE
8
BLACK
6
CONTINUOUS
10
6.1361866929133857
20
-3.0498431889763777
11
6.1338572834645664
21
-3.056500275590551
0
LINE
8
BLACK
6
CONTINUOUS
10
6.1338572834645664
20
-3.056500275590551
11
6.130104921259842
21
-3.062472125984252
0
LINE
8
BLACK
6
CONTINUOUS
10
6.130104921259842
20
-3.062472125984252
11
6.1251177952755906
21
-3.0674592519685038
0
LINE
8
BLACK
6
CONTINUOUS
10
6.1251177952755906
20
-3.0674592519685038
11
6.1191459448818897
21
-3.0712116141732282
0
LINE
8
BLACK
6
CONTINUOUS
10
6.1191459448818897
20
-3.0712116141732282
11
6.1124888582677164
21
-3.0735410236220471
0
LINE
8
BLACK
6
CONTINUOUS
10
6.1124888582677164
20
-3.0735410236220471
11
6.10548031496063
21
-3.0743307086614173
0
LINE
8
BLACK
6
CONTINUOUS
10
6.10548031496063
20
-3.0743307086614173
11
6.0984717716535428
21
-3.0735410236220471
0
LINE
8
BLACK
6
CONTINUOUS
10
6.0984717716535428
20
-3.0735410236220471
11
6.0918146850393695
21
-3.0712116141732282
0
LINE
8
BLACK
6
CONTINUOUS
10
6.0918146850393695
20
-3.0712116141732282
11
6.0858428346456694
21
-3.0674592519685038
0
LINE
8
BLACK
6
CONTINUOUS
10
6.0858428346456694
20
-3.0674592519685038
11
6.0808557086614172
21
-3.062472125984252
0
LINE
8
BLACK
6
CONTINUOUS
10
6.0808557086614172
20
-3.062472125984252
11
6.0771033464566928
21
-3.056500275590551
0
LINE
8
BLACK
6
CONTINUOUS
10
6.0771033464566928
20
-3.056500275590551
11
6.0747739370078735
21
-3.0498431889763777
0
LINE
8
BLACK
6
CONTINUOUS
10
6.0747739370078735
20
-3.0498431889763777
11
6.0739842519685041
21
-3.0428346456692914
0
LINE
8
BLACK
6
CONTINUOUS
10
6.0739842519685041
20
-3.0428346456692914
11
6.0747739370078735
21
-3.0358261023622046
0
LINE
8
BLACK
6
CONTINUOUS
10
6.0747739370078735
20
-3.0358261023622046
11
6.0771033464566928
21
-3.0291690157480313
0
LINE
8
BLACK
6
CONTINUOUS
10
6.0771033464566928
20
-3.0291690157480313
11
6.0808557086614172
21
-3.0231971653543308
0
LINE
8
BLACK
6
CONTINUOUS
10
6.0808557086614172
20
-3.0231971653543308
11
6.0858428346456694
21
-3.0182100393700786
0
LINE
8
BLACK
6
CONTINUOUS
10
6.0858428346456694
20
-3.0182100393700786
11
6.0918146850393695
21
-3.0144576771653542
0
LINE
8
BLACK
6
CONTINUOUS
10
6.0918146850393695
20
-3.0144576771653542
11
6.0984717716535428
21
-3.0121282677165353
0
LINE
8
BLACK
6
CONTINUOUS
10
6.0984717716535428
20
-3.0121282677165353
11
6.10548031496063
21
-3.0113385826771655
0
LINE
8
BLACK
6
CONTINUOUS
10
6.10548031496063
20
-3.0113385826771655
11
6.1124888582677164
21
-3.0121282677165353
0
LINE
8
BLACK
6
CONTINUOUS
10
6.712488858267716
20
-3.0121282677165353
11
6.7191459448818893
21
-3.0144576771653542
0
LINE
8
BLACK
6
CONTINUOUS
10
6.7191459448818893
20
-3.0144576771653542
11
6.7251177952755903
21
-3.0182100393700786
0
LINE
8
BLACK
6
CONTINUOUS
10
6.7251177952755903
20
-3.0182100393700786
11
6.7301049212598425
21
-3.0231971653543308
0
LINE
8
BLACK
6
CONTINUOUS
10
6.7301049212598425
20
-3.0231971653543308
11
6.7338572834645669
21
-3.0291690157480313
0
LINE
8
BLACK
6
CONTINUOUS
10
6.7338572834645669
20
-3.0291690157480313
11
6.7361866929133853
21
-3.0358261023622046
0
LINE
8
BLACK
6
CONTINUOUS
10
6.7361866929133853
20
-3.0358261023622046
11
6.7369763779527556
21
-3.0428346456692914
0
LINE
8
BLACK
6
CONTINUOUS
10
6.7369763779527556
20
-3.0428346456692914
11
6.7361866929133853
21
-3.0498431889763777
0
LINE
8
BLACK
6
CONTINUOUS
10
6.7361866929133853
20
-3.0498431889763777
11
6.7338572834645669
21
-3.056500275590551
0
LINE
8
BLACK
6
CONTINUOUS
10
6.7338572834645669
20
-3.056500275590551
11
6.7301049212598425
21
-3.062472125984252
0
LINE
8
BLACK
6
CONTINUOUS
10
6.7301049212598425
20
-3.062472125984252
11
6.7251177952755903
21
-3.0674592519685038
0
LINE
8
BLACK
6
CONTINUOUS
10
6.7251177952755903
20
-3.0674592519685038
11
6.7191459448818893
21
-3.0712116141732282
0
LINE
8
BLACK
6
CONTINUOUS
10
6.7191459448818893
20
-3.0712116141732282
11
6.712488858267716
21
-3.0735410236220471
0
LINE
8
BLACK
6
CONTINUOUS
10
6.712488858267716
20
-3.0735410236220471
11
6.7054803149606297
21
-3.0743307086614173
0
LINE
8
BLACK
6
CONTINUOUS
10
6.7054803149606297
20
-3.0743307086614173
11
6.6984717716535433
21
-3.0735410236220471
0
LINE
8
BLACK
6
CONTINUOUS
10
6.6984717716535433
20
-3.0735410236220471
11
6.69181468503937
21
-3.0712116141732282
0
LINE
8
BLACK
6
CONTINUOUS
10
6.69181468503937
20
-3.0712116141732282
11
6.6858428346456691
21
-3.0674592519685038
0
LINE
8
BLACK
6
CONTINUOUS
10
6.6858428346456691
20
-3.0674592519685038
11
6.6808557086614169
21
-3.062472125984252
0
LINE
8
BLACK
6
CONTINUOUS
10
6.6808557086614169
20
-3.062472125984252
11
6.6771033464566925
21
-3.056500275590551
0
LINE
8
BLACK
6
CONTINUOUS
10
6.6771033464566925
20
-3.056500275590551
11
6.674773937007874
21
-3.0498431889763777
0
LINE
8
BLACK
6
CONTINUOUS
10
6.674773937007874
20
-3.0498431889763777
11
6.6739842519685038
21
-3.0428346456692914
0
LINE
8
BLACK
6
CONTINUOUS
10
6.6739842519685038
20
-3.0428346456692914
11
6.674773937007874
21
-3.0358261023622046
0
LINE
8
BLACK
6
CONTINUOUS
10
6.674773937007874
20
-3.0358261023622046
11
6.6771033464566925
21
-3.0291690157480313
0
LINE
8
BLACK
6
CONTINUOUS
10
6.6771033464566925
20
-3.0291690157480313
11
6.6808557086614169
21
-3.0231971653543308
0
LINE
8
BLACK
6
CONTINUOUS
10
6.6808557086614169
20
-3.0231971653543308
11
6.6858428346456691
21
-3.0182100393700786
0
LINE
8
BLACK
6
CONTINUOUS
10
6.6858428346456691
20
-3.0182100393700786
11
6.69181468503937
21
-3.0144576771653542
0
LINE
8
BLACK
6
CONTINUOUS
10
6.69181468503937
20
-3.0144576771653542
11
6.6984717716535433
21
-3.0121282677165353
0
LINE
8
BLACK
6
CONTINUOUS
10
6.6984717716535433
20
-3.0121282677165353
11
6.7054803149606297
21
-3.0113385826771655
0
LINE
8
BLACK
6
CONTINUOUS
10
6.7054803149606297
20
-3.0113385826771655
11
6.712488858267716
21
-3.0121282677165353
0
LINE
8
BLACK
6
CONTINUOUS
10
6.9008164173228348
20
-2.9436308661417323
11
6.9033709055118111
21
-2.9453377559055118
0
LINE
8
BLACK
6
CONTINUOUS
10
6.9033709055118111
20
-2.9453377559055118
11
6.9050777952755906
21
-2.9478922440944881
0
LINE
8
BLACK
6
CONTINUOUS
10
6.9050777952755906
20
-2.9478922440944881
11
6.905677165354331
21
-2.9509055118110235
0
LINE
8
BLACK
6
CONTINUOUS
10
6.905677165354331
20
-2.9509055118110235
11
6.905677165354331
21
-2.97255905511811
0
LINE
8
BLACK
6
CONTINUOUS
10
6.905677165354331
20
-2.97255905511811
11
6.9050777952755906
21
-2.9755723228346458
0
LINE
8
BLACK
6
CONTINUOUS
10
6.9050777952755906
20
-2.9755723228346458
11
6.9033709055118111
21
-2.9781268110236221
0
LINE
8
BLACK
6
CONTINUOUS
10
6.9033709055118111
20
-2.9781268110236221
11
6.9008164173228348
21
-2.9798337007874016
0
LINE
8
BLACK
6
CONTINUOUS
10
6.9008164173228348
20
-2.9798337007874016
11
6.8978031496062995
21
-2.9804330708661415
0
LINE
8
BLACK
6
CONTINUOUS
10
6.8978031496062995
20
-2.9804330708661415
11
6.8820551181102356
21
-2.9804330708661415
0
LINE
8
BLACK
6
CONTINUOUS
10
6.8820551181102356
20
-2.9804330708661415
11
6.8790418503937003
21
-2.9798337007874016
0
LINE
8
BLACK
6
CONTINUOUS
10
6.8790418503937003
20
-2.9798337007874016
11
6.876487362204724
21
-2.9781268110236221
0
LINE
8
BLACK
6
CONTINUOUS
10
6.876487362204724
20
-2.9781268110236221
11
6.8747804724409445
21
-2.9755723228346458
0
LINE
8
BLACK
6
CONTINUOUS
10
6.8747804724409445
20
-2.9755723228346458
11
6.8741811023622041
21
-2.97255905511811
0
LINE
8
BLACK
6
CONTINUOUS
10
6.8741811023622041
20
-2.97255905511811
11
6.8741811023622041
21
-2.9509055118110235
0
LINE
8
BLACK
6
CONTINUOUS
10
6.8741811023622041
20
-2.9509055118110235
11
6.8747804724409445
21
-2.9478922440944881
0
LINE
8
BLACK
6
CONTINUOUS
10
6.8747804724409445
20
-2.9478922440944881
11
6.876487362204724
21
-2.9453377559055118
0
LINE
8
BLACK
6
CONTINUOUS
10
6.876487362204724
20
-2.9453377559055118
11
6.8790418503937003
21
-2.9436308661417323
0
LINE
8
BLACK
6
CONTINUOUS
10
6.8790418503937003
20
-2.9436308661417323
11
6.8820551181102356
21
-2.943031496062992
0
LINE
8
BLACK
6
CONTINUOUS
10
6.8820551181102356
20
-2.943031496062992
11
6.8978031496062995
21
-2.943031496062992
0
LINE
8
BLACK
6
CONTINUOUS
10
6.8978031496062995
20
-2.943031496062992
11
6.9008164173228348
21
-2.9436308661417323
0
LINE
8
BLACK
6
CONTINUOUS
10
6.9657770472440941
20
-2.9436308661417323
11
6.9683315354330704
21
-2.9453377559055118
0
LINE
8
BLACK
6
CONTINUOUS
10
6.9683315354330704
20
-2.9453377559055118
11
6.9700384251968499
21
-2.9478922440944881
0
LINE
8
BLACK
6
CONTINUOUS
10
6.9700384251968499
20
-2.9478922440944881
11
6.9706377952755902
21
-2.9509055118110235
0
LINE
8
BLACK
6
CONTINUOUS
10
6.9706377952755902
20
-2.9509055118110235
11
6.9706377952755902
21
-2.97255905511811
0
LINE
8
BLACK
6
CONTINUOUS
10
6.9706377952755902
20
-2.97255905511811
11
6.9700384251968499
21
-2.9755723228346458
0
LINE
8
BLACK
6
CONTINUOUS
10
6.9700384251968499
20
-2.9755723228346458
11
6.9683315354330704
21
-2.9781268110236221
0
LINE
8
BLACK
6
CONTINUOUS
10
6.9683315354330704
20
-2.9781268110236221
11
6.9657770472440941
21
-2.9798337007874016
0
LINE
8
BLACK
6
CONTINUOUS
10
6.9657770472440941
20
-2.9798337007874016
11
6.9627637795275588
21
-2.9804330708661415
0
LINE
8
BLACK
6
CONTINUOUS
10
6.9627637795275588
20
-2.9804330708661415
11
6.9470157480314958
21
-2.9804330708661415
0
LINE
8
BLACK
6
CONTINUOUS
10
6.9470157480314958
20
-2.9804330708661415
11
6.9440024803149605
21
-2.9798337007874016
0
LINE
8
BLACK
6
CONTINUOUS
10
6.9440024803149605
20
-2.9798337007874016
11
6.9414479921259842
21
-2.9781268110236221
0
LINE
8
BLACK
6
CONTINUOUS
10
6.9414479921259842
20
-2.9781268110236221
11
6.9397411023622046
21
-2.9755723228346458
0
LINE
8
BLACK
6
CONTINUOUS
10
6.9397411023622046
20
-2.9755723228346458
11
6.9391417322834643
21
-2.97255905511811
0
LINE
8
BLACK
6
CONTINUOUS
10
6.9391417322834643
20
-2.97255905511811
11
6.9391417322834643
21
-2.9509055118110235
0
LINE
8
BLACK
6
CONTINUOUS
10
6.9391417322834643
20
-2.9509055118110235
11
6.9397411023622046
21
-2.9478922440944881
0
LINE
8
BLACK
6
CONTINUOUS
10
6.9397411023622046
20
-2.9478922440944881
11
6.9414479921259842
21
-2.9453377559055118
0
LINE
8
BLACK
6
CONTINUOUS
10
6.9414479921259842
20
-2.9453377559055118
11
6.9440024803149605
21
-2.9436308661417323
0
LINE
8
BLACK
6
CONTINUOUS
10
6.9440024803149605
20
-2.9436308661417323
11
6.9470157480314958
21
-2.943031496062992
0
LINE
8
BLACK
6
CONTINUOUS
10
6.9470157480314958
20
-2.943031496062992
11
6.9627637795275588
21
-2.943031496062992
0
LINE
8
BLACK
6
CONTINUOUS
10
6.9627637795275588
20
-2.943031496062992
11
6.9657770472440941
21
-2.9436308661417323
  0
ENDSEC
  0
EOF
