  0
SECTION
  2
HEADER
  9
$ANGBASE
  50
0.0
  9
$ANGDIR
  70
1
  9
$MEASUREMENT
  70
0
  0
ENDSEC
  0
SECTION
  2
TABLES
  0
TABLE
  2
LTYPE
  70
4
  0
LTYPE
  5
40F
  2
CONTINUOUS
  70
0
  3
Solid line
  72
65
  73
0
  40
0.0
  0
LTYPE
  5
410
  2
DASHDOT
 70
0
  3
Dash Dot ____ _ ____ _
 72
65
 73
4
 40
2.0
 49
1.25
 49
-0.25
 49
0.25
 49
-0.25
  0
LTYPE
  5
411
  2
DASHED
 70
0
  3
Dashed __ __ __ __ __
 72
65
 73
2
 40
0.75
 49
0.5
 49
-0.25
  0
LTYPE
  5
43B
  2
DOTTED
 70
0
  3
Dotted .  .  .  .
 72
65
 73
2
 40
0.2
 49
0.0
 49
-0.2
  0
ENDTAB
  0
TABLE
  2
STYLE
  70
4
  0
STYLE
  2
KICAD
  70
0
  40
0
  41
1
  42
1
  50
0
  71
0
  3
isocp.shx
  0
STYLE
  2
KICADB
  70
0
  40
0
  41
1
  42
1
  50
0
  71
0
  3
isocp.shx
  0
STYLE
  2
KICADI
  70
0
  40
0
  41
1
  42
1
  50
15
  71
0
  3
isocp.shx
  0
STYLE
  2
KICADBI
  70
0
  40
0
  41
1
  42
1
  50
15
  71
0
  3
isocp.shx
  0
ENDTAB
  0
TABLE
  2
LAYER
  70
1
  0
LAYER
  2
BLACK
  70
0
  62
7
  6
CONTINUOUS
  0
ENDTAB
  0
ENDSEC
  0
SECTION
  2
ENTITIES
0
LINE
8
BLACK
6
CONTINUOUS
10
5.5814960629921258
20
-4.2696456692913385
11
5.5854500393700786
21
-4.270271929133858
0
LINE
8
BLACK
6
CONTINUOUS
10
5.5854500393700786
20
-4.270271929133858
11
5.5890169291338578
21
-4.2720893307086616
0
LINE
8
BLACK
6
CONTINUOUS
10
5.5890169291338578
20
-4.2720893307086616
11
5.5918476771653545
21
-4.2749200787401573
0
LINE
8
BLACK
6
CONTINUOUS
10
5.5918476771653545
20
-4.2749200787401573
11
5.5936650787401572
21
-4.2784869685039366
0
LINE
8
BLACK
6
CONTINUOUS
10
5.5936650787401572
20
-4.2784869685039366
11
5.5942913385826767
21
-4.2824409448818894
0
LINE
8
BLACK
6
CONTINUOUS
10
5.5942913385826767
20
-4.2824409448818894
11
5.5942913385826767
21
-4.3375590551181098
0
LINE
8
BLACK
6
CONTINUOUS
10
5.5942913385826767
20
-4.3375590551181098
11
5.5936650787401572
21
-4.3415130314960626
0
LINE
8
BLACK
6
CONTINUOUS
10
5.5936650787401572
20
-4.3415130314960626
11
5.5918476771653545
21
-4.3450799212598428
0
LINE
8
BLACK
6
CONTINUOUS
10
5.5918476771653545
20
-4.3450799212598428
11
5.5890169291338578
21
-4.3479106692913385
0
LINE
8
BLACK
6
CONTINUOUS
10
5.5890169291338578
20
-4.3479106692913385
11
5.5854500393700786
21
-4.3497280708661412
0
LINE
8
BLACK
6
CONTINUOUS
10
5.5854500393700786
20
-4.3497280708661412
11
5.5814960629921258
21
-4.3503543307086616
0
LINE
8
BLACK
6
CONTINUOUS
10
5.5814960629921258
20
-4.3503543307086616
11
5.5185039370078739
21
-4.3503543307086616
0
LINE
8
BLACK
6
CONTINUOUS
10
5.5185039370078739
20
-4.3503543307086616
11
5.5145499606299211
21
-4.3497280708661412
0
LINE
8
BLACK
6
CONTINUOUS
10
5.5145499606299211
20
-4.3497280708661412
11
5.5109830708661418
21
-4.3479106692913385
0
LINE
8
BLACK
6
CONTINUOUS
10
5.5109830708661418
20
-4.3479106692913385
11
5.5081523228346452
21
-4.3450799212598428
0
LINE
8
BLACK
6
CONTINUOUS
10
5.5081523228346452
20
-4.3450799212598428
11
5.5063349212598425
21
-4.3415130314960626
0
LINE
8
BLACK
6
CONTINUOUS
10
5.5063349212598425
20
-4.3415130314960626
11
5.505708661417323
21
-4.3375590551181098
0
LINE
8
BLACK
6
CONTINUOUS
10
5.505708661417323
20
-4.3375590551181098
11
5.505708661417323
21
-4.2824409448818894
0
LINE
8
BLACK
6
CONTINUOUS
10
5.505708661417323
20
-4.2824409448818894
11
5.5063349212598425
21
-4.2784869685039366
0
LINE
8
BLACK
6
CONTINUOUS
10
5.5063349212598425
20
-4.2784869685039366
11
5.5081523228346452
21
-4.2749200787401573
0
LINE
8
BLACK
6
CONTINUOUS
10
5.5081523228346452
20
-4.2749200787401573
11
5.5109830708661418
21
-4.2720893307086616
0
LINE
8
BLACK
6
CONTINUOUS
10
5.5109830708661418
20
-4.2720893307086616
11
5.5145499606299211
21
-4.270271929133858
0
LINE
8
BLACK
6
CONTINUOUS
10
5.5145499606299211
20
-4.270271929133858
11
5.5185039370078739
21
-4.2696456692913385
0
LINE
8
BLACK
6
CONTINUOUS
10
5.5185039370078739
20
-4.2696456692913385
11
5.5814960629921258
21
-4.2696456692913385
0
LINE
8
BLACK
6
CONTINUOUS
10
5.5185039370078739
20
-4.2716141732283468
11
5.5167891338582677
21
-4.2716141732283468
0
LINE
8
BLACK
6
CONTINUOUS
10
5.5167891338582677
20
-4.2716141732283468
11
5.5135274015748026
21
-4.2726739763779529
0
LINE
8
BLACK
6
CONTINUOUS
10
5.5135274015748026
20
-4.2726739763779529
11
5.5107528346456691
21
-4.2746898425196846
0
LINE
8
BLACK
6
CONTINUOUS
10
5.5107528346456691
20
-4.2746898425196846
11
5.5087369685039365
21
-4.277464409448819
0
LINE
8
BLACK
6
CONTINUOUS
10
5.5087369685039365
20
-4.277464409448819
11
5.5076771653543304
21
-4.2807261417322833
0
LINE
8
BLACK
6
CONTINUOUS
10
5.5076771653543304
20
-4.2807261417322833
11
5.5076771653543304
21
-4.2824409448818894
0
LINE
8
BLACK
6
CONTINUOUS
10
5.5076771653543304
20
-4.2824409448818894
11
5.5076771653543304
21
-4.3375590551181098
0
LINE
8
BLACK
6
CONTINUOUS
10
5.5076771653543304
20
-4.3375590551181098
11
5.5076771653543304
21
-4.3392738582677168
0
LINE
8
BLACK
6
CONTINUOUS
10
5.5076771653543304
20
-4.3392738582677168
11
5.5087369685039365
21
-4.3425355905511811
0
LINE
8
BLACK
6
CONTINUOUS
10
5.5087369685039365
20
-4.3425355905511811
11
5.5107528346456691
21
-4.3453101574803146
0
LINE
8
BLACK
6
CONTINUOUS
10
5.5107528346456691
20
-4.3453101574803146
11
5.5135274015748026
21
-4.3473260236220472
0
LINE
8
BLACK
6
CONTINUOUS
10
5.5135274015748026
20
-4.3473260236220472
11
5.5167891338582677
21
-4.3483858267716533
0
LINE
8
BLACK
6
CONTINUOUS
10
5.5167891338582677
20
-4.3483858267716533
11
5.5185039370078739
21
-4.3483858267716533
0
LINE
8
BLACK
6
CONTINUOUS
10
5.5185039370078739
20
-4.3483858267716533
11
5.5814960629921258
21
-4.3483858267716533
0
LINE
8
BLACK
6
CONTINUOUS
10
5.5814960629921258
20
-4.3483858267716533
11
5.5832108661417319
21
-4.3483858267716533
0
LINE
8
BLACK
6
CONTINUOUS
10
5.5832108661417319
20
-4.3483858267716533
11
5.5864725984251971
21
-4.3473260236220472
0
LINE
8
BLACK
6
CONTINUOUS
10
5.5864725984251971
20
-4.3473260236220472
11
5.5892471653543305
21
-4.3453101574803146
0
LINE
8
BLACK
6
CONTINUOUS
10
5.5892471653543305
20
-4.3453101574803146
11
5.5912630314960632
21
-4.3425355905511811
0
LINE
8
BLACK
6
CONTINUOUS
10
5.5912630314960632
20
-4.3425355905511811
11
5.5923228346456693
21
-4.3392738582677168
0
LINE
8
BLACK
6
CONTINUOUS
10
5.5923228346456693
20
-4.3392738582677168
11
5.5923228346456693
21
-4.3375590551181098
0
LINE
8
BLACK
6
CONTINUOUS
10
5.5923228346456693
20
-4.3375590551181098
11
5.5923228346456693
21
-4.2824409448818894
0
LINE
8
BLACK
6
CONTINUOUS
10
5.5923228346456693
20
-4.2824409448818894
11
5.5923228346456693
21
-4.2807261417322833
0
LINE
8
BLACK
6
CONTINUOUS
10
5.5923228346456693
20
-4.2807261417322833
11
5.5912630314960632
21
-4.277464409448819
0
LINE
8
BLACK
6
CONTINUOUS
10
5.5912630314960632
20
-4.277464409448819
11
5.5892471653543305
21
-4.2746898425196846
0
LINE
8
BLACK
6
CONTINUOUS
10
5.5892471653543305
20
-4.2746898425196846
11
5.5864725984251971
21
-4.2726739763779529
0
LINE
8
BLACK
6
CONTINUOUS
10
5.5864725984251971
20
-4.2726739763779529
11
5.5832108661417319
21
-4.2716141732283468
0
LINE
8
BLACK
6
CONTINUOUS
10
5.5832108661417319
20
-4.2716141732283468
11
5.5814960629921258
21
-4.2716141732283468
0
LINE
8
BLACK
6
CONTINUOUS
10
5.5814960629921258
20
-4.2716141732283468
11
5.5185039370078739
21
-4.2716141732283468
0
LINE
8
BLACK
6
CONTINUOUS
10
5.5814960629921258
20
-4.1396456692913386
11
5.5854500393700786
21
-4.1402719291338581
0
LINE
8
BLACK
6
CONTINUOUS
10
5.5854500393700786
20
-4.1402719291338581
11
5.5890169291338578
21
-4.1420893307086617
0
LINE
8
BLACK
6
CONTINUOUS
10
5.5890169291338578
20
-4.1420893307086617
11
5.5918476771653545
21
-4.1449200787401574
0
LINE
8
BLACK
6
CONTINUOUS
10
5.5918476771653545
20
-4.1449200787401574
11
5.5936650787401572
21
-4.1484869685039367
0
LINE
8
BLACK
6
CONTINUOUS
10
5.5936650787401572
20
-4.1484869685039367
11
5.5942913385826767
21
-4.1524409448818895
0
LINE
8
BLACK
6
CONTINUOUS
10
5.5942913385826767
20
-4.1524409448818895
11
5.5942913385826767
21
-4.2075590551181099
0
LINE
8
BLACK
6
CONTINUOUS
10
5.5942913385826767
20
-4.2075590551181099
11
5.5936650787401572
21
-4.2115130314960627
0
LINE
8
BLACK
6
CONTINUOUS
10
5.5936650787401572
20
-4.2115130314960627
11
5.5918476771653545
21
-4.215079921259842
0
LINE
8
BLACK
6
CONTINUOUS
10
5.5918476771653545
20
-4.215079921259842
11
5.5890169291338578
21
-4.2179106692913386
0
LINE
8
BLACK
6
CONTINUOUS
10
5.5890169291338578
20
-4.2179106692913386
11
5.5854500393700786
21
-4.2197280708661413
0
LINE
8
BLACK
6
CONTINUOUS
10
5.5854500393700786
20
-4.2197280708661413
11
5.5814960629921258
21
-4.2203543307086617
0
LINE
8
BLACK
6
CONTINUOUS
10
5.5814960629921258
20
-4.2203543307086617
11
5.5185039370078739
21
-4.2203543307086617
0
LINE
8
BLACK
6
CONTINUOUS
10
5.5185039370078739
20
-4.2203543307086617
11
5.5145499606299211
21
-4.2197280708661413
0
LINE
8
BLACK
6
CONTINUOUS
10
5.5145499606299211
20
-4.2197280708661413
11
5.5109830708661418
21
-4.2179106692913386
0
LINE
8
BLACK
6
CONTINUOUS
10
5.5109830708661418
20
-4.2179106692913386
11
5.5081523228346452
21
-4.215079921259842
0
LINE
8
BLACK
6
CONTINUOUS
10
5.5081523228346452
20
-4.215079921259842
11
5.5063349212598425
21
-4.2115130314960627
0
LINE
8
BLACK
6
CONTINUOUS
10
5.5063349212598425
20
-4.2115130314960627
11
5.505708661417323
21
-4.2075590551181099
0
LINE
8
BLACK
6
CONTINUOUS
10
5.505708661417323
20
-4.2075590551181099
11
5.505708661417323
21
-4.1524409448818895
0
LINE
8
BLACK
6
CONTINUOUS
10
5.505708661417323
20
-4.1524409448818895
11
5.5063349212598425
21
-4.1484869685039367
0
LINE
8
BLACK
6
CONTINUOUS
10
5.5063349212598425
20
-4.1484869685039367
11
5.5081523228346452
21
-4.1449200787401574
0
LINE
8
BLACK
6
CONTINUOUS
10
5.5081523228346452
20
-4.1449200787401574
11
5.5109830708661418
21
-4.1420893307086617
0
LINE
8
BLACK
6
CONTINUOUS
10
5.5109830708661418
20
-4.1420893307086617
11
5.5145499606299211
21
-4.1402719291338581
0
LINE
8
BLACK
6
CONTINUOUS
10
5.5145499606299211
20
-4.1402719291338581
11
5.5185039370078739
21
-4.1396456692913386
0
LINE
8
BLACK
6
CONTINUOUS
10
5.5185039370078739
20
-4.1396456692913386
11
5.5814960629921258
21
-4.1396456692913386
0
LINE
8
BLACK
6
CONTINUOUS
10
5.5185039370078739
20
-4.141614173228346
11
5.5167891338582677
21
-4.141614173228346
0
LINE
8
BLACK
6
CONTINUOUS
10
5.5167891338582677
20
-4.141614173228346
11
5.5135274015748026
21
-4.142673976377953
0
LINE
8
BLACK
6
CONTINUOUS
10
5.5135274015748026
20
-4.142673976377953
11
5.5107528346456691
21
-4.1446898425196848
0
LINE
8
BLACK
6
CONTINUOUS
10
5.5107528346456691
20
-4.1446898425196848
11
5.5087369685039365
21
-4.1474644094488191
0
LINE
8
BLACK
6
CONTINUOUS
10
5.5087369685039365
20
-4.1474644094488191
11
5.5076771653543304
21
-4.1507261417322834
0
LINE
8
BLACK
6
CONTINUOUS
10
5.5076771653543304
20
-4.1507261417322834
11
5.5076771653543304
21
-4.1524409448818895
0
LINE
8
BLACK
6
CONTINUOUS
10
5.5076771653543304
20
-4.1524409448818895
11
5.5076771653543304
21
-4.2075590551181099
0
LINE
8
BLACK
6
CONTINUOUS
10
5.5076771653543304
20
-4.2075590551181099
11
5.5076771653543304
21
-4.2092738582677161
0
LINE
8
BLACK
6
CONTINUOUS
10
5.5076771653543304
20
-4.2092738582677161
11
5.5087369685039365
21
-4.2125355905511812
0
LINE
8
BLACK
6
CONTINUOUS
10
5.5087369685039365
20
-4.2125355905511812
11
5.5107528346456691
21
-4.2153101574803147
0
LINE
8
BLACK
6
CONTINUOUS
10
5.5107528346456691
20
-4.2153101574803147
11
5.5135274015748026
21
-4.2173260236220473
0
LINE
8
BLACK
6
CONTINUOUS
10
5.5135274015748026
20
-4.2173260236220473
11
5.5167891338582677
21
-4.2183858267716534
0
LINE
8
BLACK
6
CONTINUOUS
10
5.5167891338582677
20
-4.2183858267716534
11
5.5185039370078739
21
-4.2183858267716534
0
LINE
8
BLACK
6
CONTINUOUS
10
5.5185039370078739
20
-4.2183858267716534
11
5.5814960629921258
21
-4.2183858267716534
0
LINE
8
BLACK
6
CONTINUOUS
10
5.5814960629921258
20
-4.2183858267716534
11
5.5832108661417319
21
-4.2183858267716534
0
LINE
8
BLACK
6
CONTINUOUS
10
5.5832108661417319
20
-4.2183858267716534
11
5.5864725984251971
21
-4.2173260236220473
0
LINE
8
BLACK
6
CONTINUOUS
10
5.5864725984251971
20
-4.2173260236220473
11
5.5892471653543305
21
-4.2153101574803147
0
LINE
8
BLACK
6
CONTINUOUS
10
5.5892471653543305
20
-4.2153101574803147
11
5.5912630314960632
21
-4.2125355905511812
0
LINE
8
BLACK
6
CONTINUOUS
10
5.5912630314960632
20
-4.2125355905511812
11
5.5923228346456693
21
-4.2092738582677161
0
LINE
8
BLACK
6
CONTINUOUS
10
5.5923228346456693
20
-4.2092738582677161
11
5.5923228346456693
21
-4.2075590551181099
0
LINE
8
BLACK
6
CONTINUOUS
10
5.5923228346456693
20
-4.2075590551181099
11
5.5923228346456693
21
-4.1524409448818895
0
LINE
8
BLACK
6
CONTINUOUS
10
5.5923228346456693
20
-4.1524409448818895
11
5.5923228346456693
21
-4.1507261417322834
0
LINE
8
BLACK
6
CONTINUOUS
10
5.5923228346456693
20
-4.1507261417322834
11
5.5912630314960632
21
-4.1474644094488191
0
LINE
8
BLACK
6
CONTINUOUS
10
5.5912630314960632
20
-4.1474644094488191
11
5.5892471653543305
21
-4.1446898425196848
0
LINE
8
BLACK
6
CONTINUOUS
10
5.5892471653543305
20
-4.1446898425196848
11
5.5864725984251971
21
-4.142673976377953
0
LINE
8
BLACK
6
CONTINUOUS
10
5.5864725984251971
20
-4.142673976377953
11
5.5832108661417319
21
-4.141614173228346
0
LINE
8
BLACK
6
CONTINUOUS
10
5.5832108661417319
20
-4.141614173228346
11
5.5814960629921258
21
-4.141614173228346
0
LINE
8
BLACK
6
CONTINUOUS
10
5.5814960629921258
20
-4.141614173228346
11
5.5185039370078739
21
-4.141614173228346
0
LINE
8
BLACK
6
CONTINUOUS
10
5.5814960629921258
20
-4.0096456692913387
11
5.5854500393700786
21
-4.0102719291338582
0
LINE
8
BLACK
6
CONTINUOUS
10
5.5854500393700786
20
-4.0102719291338582
11
5.5890169291338578
21
-4.0120893307086609
0
LINE
8
BLACK
6
CONTINUOUS
10
5.5890169291338578
20
-4.0120893307086609
11
5.5918476771653545
21
-4.0149200787401575
0
LINE
8
BLACK
6
CONTINUOUS
10
5.5918476771653545
20
-4.0149200787401575
11
5.5936650787401572
21
-4.0184869685039368
0
LINE
8
BLACK
6
CONTINUOUS
10
5.5936650787401572
20
-4.0184869685039368
11
5.5942913385826767
21
-4.0224409448818896
0
LINE
8
BLACK
6
CONTINUOUS
10
5.5942913385826767
20
-4.0224409448818896
11
5.5942913385826767
21
-4.07755905511811
0
LINE
8
BLACK
6
CONTINUOUS
10
5.5942913385826767
20
-4.07755905511811
11
5.5936650787401572
21
-4.0815130314960628
0
LINE
8
BLACK
6
CONTINUOUS
10
5.5936650787401572
20
-4.0815130314960628
11
5.5918476771653545
21
-4.0850799212598421
0
LINE
8
BLACK
6
CONTINUOUS
10
5.5918476771653545
20
-4.0850799212598421
11
5.5890169291338578
21
-4.0879106692913387
0
LINE
8
BLACK
6
CONTINUOUS
10
5.5890169291338578
20
-4.0879106692913387
11
5.5854500393700786
21
-4.0897280708661414
0
LINE
8
BLACK
6
CONTINUOUS
10
5.5854500393700786
20
-4.0897280708661414
11
5.5814960629921258
21
-4.0903543307086609
0
LINE
8
BLACK
6
CONTINUOUS
10
5.5814960629921258
20
-4.0903543307086609
11
5.5185039370078739
21
-4.0903543307086609
0
LINE
8
BLACK
6
CONTINUOUS
10
5.5185039370078739
20
-4.0903543307086609
11
5.5145499606299211
21
-4.0897280708661414
0
LINE
8
BLACK
6
CONTINUOUS
10
5.5145499606299211
20
-4.0897280708661414
11
5.5109830708661418
21
-4.0879106692913387
0
LINE
8
BLACK
6
CONTINUOUS
10
5.5109830708661418
20
-4.0879106692913387
11
5.5081523228346452
21
-4.0850799212598421
0
LINE
8
BLACK
6
CONTINUOUS
10
5.5081523228346452
20
-4.0850799212598421
11
5.5063349212598425
21
-4.0815130314960628
0
LINE
8
BLACK
6
CONTINUOUS
10
5.5063349212598425
20
-4.0815130314960628
11
5.505708661417323
21
-4.07755905511811
0
LINE
8
BLACK
6
CONTINUOUS
10
5.505708661417323
20
-4.07755905511811
11
5.505708661417323
21
-4.0224409448818896
0
LINE
8
BLACK
6
CONTINUOUS
10
5.505708661417323
20
-4.0224409448818896
11
5.5063349212598425
21
-4.0184869685039368
0
LINE
8
BLACK
6
CONTINUOUS
10
5.5063349212598425
20
-4.0184869685039368
11
5.5081523228346452
21
-4.0149200787401575
0
LINE
8
BLACK
6
CONTINUOUS
10
5.5081523228346452
20
-4.0149200787401575
11
5.5109830708661418
21
-4.0120893307086609
0
LINE
8
BLACK
6
CONTINUOUS
10
5.5109830708661418
20
-4.0120893307086609
11
5.5145499606299211
21
-4.0102719291338582
0
LINE
8
BLACK
6
CONTINUOUS
10
5.5145499606299211
20
-4.0102719291338582
11
5.5185039370078739
21
-4.0096456692913387
0
LINE
8
BLACK
6
CONTINUOUS
10
5.5185039370078739
20
-4.0096456692913387
11
5.5814960629921258
21
-4.0096456692913387
0
LINE
8
BLACK
6
CONTINUOUS
10
5.5185039370078739
20
-4.0116141732283461
11
5.5167891338582677
21
-4.0116141732283461
0
LINE
8
BLACK
6
CONTINUOUS
10
5.5167891338582677
20
-4.0116141732283461
11
5.5135274015748026
21
-4.0126739763779531
0
LINE
8
BLACK
6
CONTINUOUS
10
5.5135274015748026
20
-4.0126739763779531
11
5.5107528346456691
21
-4.0146898425196849
0
LINE
8
BLACK
6
CONTINUOUS
10
5.5107528346456691
20
-4.0146898425196849
11
5.5087369685039365
21
-4.0174644094488192
0
LINE
8
BLACK
6
CONTINUOUS
10
5.5087369685039365
20
-4.0174644094488192
11
5.5076771653543304
21
-4.0207261417322835
0
LINE
8
BLACK
6
CONTINUOUS
10
5.5076771653543304
20
-4.0207261417322835
11
5.5076771653543304
21
-4.0224409448818896
0
LINE
8
BLACK
6
CONTINUOUS
10
5.5076771653543304
20
-4.0224409448818896
11
5.5076771653543304
21
-4.07755905511811
0
LINE
8
BLACK
6
CONTINUOUS
10
5.5076771653543304
20
-4.07755905511811
11
5.5076771653543304
21
-4.0792738582677162
0
LINE
8
BLACK
6
CONTINUOUS
10
5.5076771653543304
20
-4.0792738582677162
11
5.5087369685039365
21
-4.0825355905511813
0
LINE
8
BLACK
6
CONTINUOUS
10
5.5087369685039365
20
-4.0825355905511813
11
5.5107528346456691
21
-4.0853101574803148
0
LINE
8
BLACK
6
CONTINUOUS
10
5.5107528346456691
20
-4.0853101574803148
11
5.5135274015748026
21
-4.0873260236220474
0
LINE
8
BLACK
6
CONTINUOUS
10
5.5135274015748026
20
-4.0873260236220474
11
5.5167891338582677
21
-4.0883858267716535
0
LINE
8
BLACK
6
CONTINUOUS
10
5.5167891338582677
20
-4.0883858267716535
11
5.5185039370078739
21
-4.0883858267716535
0
LINE
8
BLACK
6
CONTINUOUS
10
5.5185039370078739
20
-4.0883858267716535
11
5.5814960629921258
21
-4.0883858267716535
0
LINE
8
BLACK
6
CONTINUOUS
10
5.5814960629921258
20
-4.0883858267716535
11
5.5832108661417319
21
-4.0883858267716535
0
LINE
8
BLACK
6
CONTINUOUS
10
5.5832108661417319
20
-4.0883858267716535
11
5.5864725984251971
21
-4.0873260236220474
0
LINE
8
BLACK
6
CONTINUOUS
10
5.5864725984251971
20
-4.0873260236220474
11
5.5892471653543305
21
-4.0853101574803148
0
LINE
8
BLACK
6
CONTINUOUS
10
5.5892471653543305
20
-4.0853101574803148
11
5.5912630314960632
21
-4.0825355905511813
0
LINE
8
BLACK
6
CONTINUOUS
10
5.5912630314960632
20
-4.0825355905511813
11
5.5923228346456693
21
-4.0792738582677162
0
LINE
8
BLACK
6
CONTINUOUS
10
5.5923228346456693
20
-4.0792738582677162
11
5.5923228346456693
21
-4.07755905511811
0
LINE
8
BLACK
6
CONTINUOUS
10
5.5923228346456693
20
-4.07755905511811
11
5.5923228346456693
21
-4.0224409448818896
0
LINE
8
BLACK
6
CONTINUOUS
10
5.5923228346456693
20
-4.0224409448818896
11
5.5923228346456693
21
-4.0207261417322835
0
LINE
8
BLACK
6
CONTINUOUS
10
5.5923228346456693
20
-4.0207261417322835
11
5.5912630314960632
21
-4.0174644094488192
0
LINE
8
BLACK
6
CONTINUOUS
10
5.5912630314960632
20
-4.0174644094488192
11
5.5892471653543305
21
-4.0146898425196849
0
LINE
8
BLACK
6
CONTINUOUS
10
5.5892471653543305
20
-4.0146898425196849
11
5.5864725984251971
21
-4.0126739763779531
0
LINE
8
BLACK
6
CONTINUOUS
10
5.5864725984251971
20
-4.0126739763779531
11
5.5832108661417319
21
-4.0116141732283461
0
LINE
8
BLACK
6
CONTINUOUS
10
5.5832108661417319
20
-4.0116141732283461
11
5.5814960629921258
21
-4.0116141732283461
0
LINE
8
BLACK
6
CONTINUOUS
10
5.5814960629921258
20
-4.0116141732283461
11
5.5185039370078739
21
-4.0116141732283461
0
LINE
8
BLACK
6
CONTINUOUS
10
7.4759303937007875
20
-3.9071039763779525
11
7.4769948031496059
21
-3.9075448818897636
0
LINE
8
BLACK
6
CONTINUOUS
10
7.4769948031496059
20
-3.9075448818897636
11
7.4778094488188973
21
-3.908359527559055
0
LINE
8
BLACK
6
CONTINUOUS
10
7.4778094488188973
20
-3.908359527559055
11
7.4782503543307088
21
-3.9094239370078738
0
LINE
8
BLACK
6
CONTINUOUS
10
7.4782503543307088
20
-3.9094239370078738
11
7.4783070866141728
21
-3.9099999999999997
0
LINE
8
BLACK
6
CONTINUOUS
10
7.4783070866141728
20
-3.9099999999999997
11
7.4783070866141728
21
-5.0911023622047242
0
LINE
8
BLACK
6
CONTINUOUS
10
7.4783070866141728
20
-5.0911023622047242
11
7.4782503543307088
21
-5.0916784251968501
0
LINE
8
BLACK
6
CONTINUOUS
10
7.4782503543307088
20
-5.0916784251968501
11
7.4778094488188973
21
-5.0927428346456693
0
LINE
8
BLACK
6
CONTINUOUS
10
7.4778094488188973
20
-5.0927428346456693
11
7.4769948031496059
21
-5.0935574803149608
0
LINE
8
BLACK
6
CONTINUOUS
10
7.4769948031496059
20
-5.0935574803149608
11
7.4759303937007875
21
-5.0939983858267714
0
LINE
8
BLACK
6
CONTINUOUS
10
7.4759303937007875
20
-5.0939983858267714
11
7.4753543307086616
21
-5.0940551181102363
0
LINE
8
BLACK
6
CONTINUOUS
10
7.4753543307086616
20
-5.0940551181102363
11
5.3099999999999996
21
-5.0940551181102363
0
LINE
8
BLACK
6
CONTINUOUS
10
5.3099999999999996
20
-5.0940551181102363
11
5.3094239370078737
21
-5.0939983858267714
0
LINE
8
BLACK
6
CONTINUOUS
10
5.3094239370078737
20
-5.0939983858267714
11
5.3083595275590554
21
-5.0935574803149608
0
LINE
8
BLACK
6
CONTINUOUS
10
5.3083595275590554
20
-5.0935574803149608
11
5.3075448818897639
21
-5.0927428346456693
0
LINE
8
BLACK
6
CONTINUOUS
10
5.3075448818897639
20
-5.0927428346456693
11
5.3071039763779524
21
-5.0916784251968501
0
LINE
8
BLACK
6
CONTINUOUS
10
5.3071039763779524
20
-5.0916784251968501
11
5.3070472440944885
21
-5.0911023622047242
0
LINE
8
BLACK
6
CONTINUOUS
10
5.3070472440944885
20
-5.0911023622047242
11
5.3070472440944885
21
-3.9099999999999997
0
LINE
8
BLACK
6
CONTINUOUS
10
5.3070472440944885
20
-3.9099999999999997
11
5.3071039763779524
21
-3.9094239370078738
0
LINE
8
BLACK
6
CONTINUOUS
10
5.3071039763779524
20
-3.9094239370078738
11
5.3075448818897639
21
-3.908359527559055
0
LINE
8
BLACK
6
CONTINUOUS
10
5.3075448818897639
20
-3.908359527559055
11
5.3083595275590554
21
-3.9075448818897636
0
LINE
8
BLACK
6
CONTINUOUS
10
5.3083595275590554
20
-3.9075448818897636
11
5.3094239370078737
21
-3.9071039763779525
0
LINE
8
BLACK
6
CONTINUOUS
10
5.3094239370078737
20
-3.9071039763779525
11
5.3099999999999996
21
-3.9070472440944881
0
LINE
8
BLACK
6
CONTINUOUS
10
5.3099999999999996
20
-3.9070472440944881
11
7.4753543307086616
21
-3.9070472440944881
0
LINE
8
BLACK
6
CONTINUOUS
10
7.4753543307086616
20
-3.9070472440944881
11
7.4759303937007875
21
-3.9071039763779525
0
LINE
8
BLACK
6
CONTINUOUS
10
5.3129527559055116
20
-3.9129527559055117
11
5.3129527559055116
21
-5.0881496062992122
0
LINE
8
BLACK
6
CONTINUOUS
10
5.3129527559055116
20
-5.0881496062992122
11
7.4724015748031496
21
-5.0881496062992122
0
LINE
8
BLACK
6
CONTINUOUS
10
7.4724015748031496
20
-5.0881496062992122
11
7.4724015748031496
21
-3.9129527559055117
0
LINE
8
BLACK
6
CONTINUOUS
10
7.4724015748031496
20
-3.9129527559055117
11
5.3129527559055116
21
-3.9129527559055117
0
CIRCLE
8
BLACK
10
5.8585826771653542
20
-4.6730708661417326
40
0.0039370078740157
0
CIRCLE
8
BLACK
10
5.8999212598425199
20
-4.6730708661417326
40
0.0039370078740157
0
CIRCLE
8
BLACK
10
5.9412598425196848
20
-4.6730708661417326
40
0.0039370078740157
0
CIRCLE
8
BLACK
10
5.8585826771653542
20
-4.6317322834645669
40
0.0039370078740157
0
CIRCLE
8
BLACK
10
5.8999212598425199
20
-4.6317322834645669
40
0.0039370078740157
0
CIRCLE
8
BLACK
10
5.9412598425196848
20
-4.6317322834645669
40
0.0039370078740157
0
CIRCLE
8
BLACK
10
5.8585826771653542
20
-4.5903937007874012
40
0.0039370078740157
0
CIRCLE
8
BLACK
10
5.8999212598425199
20
-4.5903937007874012
40
0.0039370078740157
0
CIRCLE
8
BLACK
10
5.9412598425196848
20
-4.5903937007874012
40
0.0039370078740157
0
CIRCLE
8
BLACK
10
7.1384881889763774
20
-4.6125118110236221
40
0.0068897637795276
0
CIRCLE
8
BLACK
10
7.2384881889763779
20
-4.7125118110236217
40
0.0068897637795276
0
CIRCLE
8
BLACK
10
7.2384881889763779
20
-4.5125118110236215
40
0.0068897637795276
0
CIRCLE
8
BLACK
10
7.0384881889763777
20
-4.7125118110236217
40
0.0068897637795276
0
CIRCLE
8
BLACK
10
7.0384881889763777
20
-4.5125118110236215
40
0.0068897637795276
  0
ENDSEC
  0
EOF
