<?xml version='1.0' encoding='ASCII' standalone='yes'?>
<svg xmlns:svg="http://www.w3.org/2000/svg" xmlns="http://www.w3.org/2000/svg" xmlns:xlink="http://www.w3.org/1999/xlink" version="1.1" width="297.0022mm" height="210.0072mm" viewBox="0.0000 0.0000 297.0022 210.0072">
<title>SVG Image created as TFLORA01-F_Fab.svg date 2024/10/18 11:10:31 </title>
  <desc>Image generated by PCBNEW </desc>
<g style="fill:#848484; fill-opacity:1.0000;stroke:#848484; stroke-opacity:1.0000; stroke-linecap:round; stroke-linejoin:round;" transform="translate(0 0) scale(1 1)">
</g>
<g style="fill:none;  stroke:#848484; stroke-width:0.8078; stroke-opacity:1;  stroke-linecap:round; stroke-linejoin:round;">
<text x="22.2909" y="46.3403" transform="scale(-1 1) translate(-44.581816 0)" textLength="6.7316" font-size="7.1804" lengthAdjust="spacingAndGlyphs" text-anchor="middle" opacity="0" stroke-opacity="0">K</text>
<g class="stroked-text"><desc>K</desc>
<path d="M23.7013 46.0970 L23.7013 40.7117 "/>
<path d="M20.6240 46.0970 L22.9320 43.0197 "/>
<path d="M20.6240 40.7117 L23.7013 43.7890 "/>
</g><text x="22.2909" y="64.1226" transform="scale(-1 1) translate(-44.581816 0)" textLength="6.7316" font-size="7.1804" lengthAdjust="spacingAndGlyphs" text-anchor="middle" opacity="0" stroke-opacity="0">K</text>
<g class="stroked-text"><desc>K</desc>
<path d="M23.7013 63.8793 L23.7013 58.4940 "/>
<path d="M20.6240 63.8793 L22.9320 60.8020 "/>
<path d="M20.6240 58.4940 L23.7013 61.5713 "/>
</g><text x="22.2909" y="81.9049" transform="scale(-1 1) translate(-44.581816 0)" textLength="6.7316" font-size="7.1804" lengthAdjust="spacingAndGlyphs" text-anchor="middle" opacity="0" stroke-opacity="0">K</text>
<g class="stroked-text"><desc>K</desc>
<path d="M23.7013 81.6616 L23.7013 76.2763 "/>
<path d="M20.6240 81.6616 L22.9320 78.5843 "/>
<path d="M20.6240 76.2763 L23.7013 79.3536 "/>
</g></g> 
<svg:g><svg:g><svg:title>SVG Image created as TFLORA01-Edge_Cuts.svg date 2024/10/18 11:10:31 </svg:title>
  <svg:desc>Image generated by PCBNEW </svg:desc>
<svg:g style="fill:#C2C200; fill-opacity:1.0000;stroke:#C2C200; stroke-opacity:1.0000; stroke-linecap:round; stroke-linejoin:round;" transform="translate(0 0) scale(1 1)">
</svg:g>
<svg:g style="fill:none;  stroke:#C2C200; stroke-width:0.8078; stroke-opacity:1;  stroke-linecap:round; stroke-linejoin:round;">
<svg:path d="M0.4050 24.2239 L0.4050 185.7833 "/>
<svg:path d="M0.4050 24.2239 L296.5972 24.2239 "/>
<svg:path d="M296.5972 185.7833 L0.4050 185.7833 "/>
<svg:path d="M296.5972 185.7833 L296.5972 24.2239 "/>
</svg:g>
<svg:g style="fill:none;  stroke:#C2C200; stroke-width:0.2693; stroke-opacity:1;  stroke-linecap:round; stroke-linejoin:round;">
<svg:path d="M27.3100 39.6044 L27.3100 47.1438 "/>
<svg:path d="M28.9256 48.7594 L37.5421 48.7594 "/>
<svg:path d="M37.5421 37.9888 L28.9256 37.9888 "/>
<svg:path d="M39.1577 47.1438 L39.1577 39.6044 "/>
<svg:path d="M28.9256 37.9888 A1.6156 1.6156 0.0 0 0 27.3100 39.6044"/>
<svg:path d="M27.3100 47.1438 A1.6156 1.6156 0.0 0 0 28.9256 48.7594"/>
<svg:path d="M39.1577 39.6044 A1.6156 1.6156 0.0 0 0 37.5421 37.9888"/>
<svg:path d="M37.5421 48.7594 A1.6156 1.6156 0.0 0 0 39.1577 47.1438"/>
<svg:path d="M27.3100 57.3867 L27.3100 64.9261 "/>
<svg:path d="M28.9256 66.5417 L37.5421 66.5417 "/>
<svg:path d="M37.5421 55.7711 L28.9256 55.7711 "/>
<svg:path d="M39.1577 64.9261 L39.1577 57.3867 "/>
<svg:path d="M28.9256 55.7711 A1.6156 1.6156 0.0 0 0 27.3100 57.3867"/>
<svg:path d="M27.3100 64.9261 A1.6156 1.6156 0.0 0 0 28.9256 66.5417"/>
<svg:path d="M39.1577 57.3867 A1.6156 1.6156 0.0 0 0 37.5421 55.7711"/>
<svg:path d="M37.5421 66.5417 A1.6156 1.6156 0.0 0 0 39.1577 64.9261"/>
<svg:path d="M27.3100 75.1690 L27.3100 82.7084 "/>
<svg:path d="M28.9256 84.3240 L37.5421 84.3240 "/>
<svg:path d="M37.5421 73.5534 L28.9256 73.5534 "/>
<svg:path d="M39.1577 82.7084 L39.1577 75.1690 "/>
<svg:path d="M28.9256 73.5534 A1.6156 1.6156 0.0 0 0 27.3100 75.1690"/>
<svg:path d="M27.3100 82.7084 A1.6156 1.6156 0.0 0 0 28.9256 84.3240"/>
<svg:path d="M39.1577 75.1690 A1.6156 1.6156 0.0 0 0 37.5421 73.5534"/>
<svg:path d="M37.5421 84.3240 A1.6156 1.6156 0.0 0 0 39.1577 82.7084"/>
</svg:g> 
</svg:g></svg:g></svg>
