<?xml version='1.0' encoding='ASCII' standalone='yes'?>
<svg xmlns:svg="http://www.w3.org/2000/svg" xmlns="http://www.w3.org/2000/svg" xmlns:xlink="http://www.w3.org/1999/xlink" version="1.1" width="297.0022mm" height="210.0072mm" viewBox="0.0000 0.0000 297.0022 210.0072">
<title>SVG Image created as TFLORA01-F_Fab.svg date 2024/10/16 22:27:04 </title>
  <desc>Image generated by PCBNEW </desc>
<g style="fill:#848484; fill-opacity:1.0000;stroke:#848484; stroke-opacity:1.0000; stroke-linecap:round; stroke-linejoin:round;" transform="translate(0 0) scale(1 1)">
</g>
<g style="fill:none;  stroke:#848484; stroke-width:0.8832; stroke-opacity:1;  stroke-linecap:round; stroke-linejoin:round;">
<text x="24.3713" y="40.9474" transform="scale(-1 1) translate(-48.742656 0)" textLength="7.3599" font-size="7.8506" lengthAdjust="spacingAndGlyphs" text-anchor="middle" opacity="0" stroke-opacity="0">K</text>
<g class="stroked-text"><desc>K</desc>
<path d="M25.9134 40.6814 L25.9134 34.7934 "/>
<path d="M22.5489 40.6814 L25.0723 37.3168 "/>
<path d="M22.5489 34.7934 L25.9134 38.1580 "/>
</g><text x="24.3713" y="60.3894" transform="scale(-1 1) translate(-48.742656 0)" textLength="7.3599" font-size="7.8506" lengthAdjust="spacingAndGlyphs" text-anchor="middle" opacity="0" stroke-opacity="0">K</text>
<g class="stroked-text"><desc>K</desc>
<path d="M25.9134 60.1234 L25.9134 54.2354 "/>
<path d="M22.5489 60.1234 L25.0723 56.7589 "/>
<path d="M22.5489 54.2354 L25.9134 57.6000 "/>
</g><text x="24.3713" y="79.8314" transform="scale(-1 1) translate(-48.742656 0)" textLength="7.3599" font-size="7.8506" lengthAdjust="spacingAndGlyphs" text-anchor="middle" opacity="0" stroke-opacity="0">K</text>
<g class="stroked-text"><desc>K</desc>
<path d="M25.9134 79.5654 L25.9134 73.6775 "/>
<path d="M22.5489 79.5654 L25.0723 76.2009 "/>
<path d="M22.5489 73.6775 L25.9134 77.0420 "/>
</g></g> 
<svg:g><svg:g><svg:title>SVG Image created as TFLORA01-Edge_Cuts.svg date 2024/10/16 22:27:04 </svg:title>
  <svg:desc>Image generated by PCBNEW </svg:desc>
<svg:g style="fill:#C2C200; fill-opacity:1.0000;stroke:#C2C200; stroke-opacity:1.0000; stroke-linecap:round; stroke-linejoin:round;" transform="translate(0 0) scale(1 1)">
</svg:g>
<svg:g style="fill:none;  stroke:#C2C200; stroke-width:0.8832; stroke-opacity:1;  stroke-linecap:round; stroke-linejoin:round;">
<svg:path d="M0.4427 16.7668 L0.4427 193.2404 "/>
<svg:path d="M0.4427 16.7668 L296.5595 16.7668 "/>
<svg:path d="M296.5595 193.2404 L0.4427 193.2404 "/>
<svg:path d="M296.5595 193.2404 L296.5595 16.7668 "/>
</svg:g>
<svg:g style="fill:none;  stroke:#C2C200; stroke-width:0.2944; stroke-opacity:1;  stroke-linecap:round; stroke-linejoin:round;">
<svg:path d="M29.8589 33.5828 L29.8589 41.8259 "/>
<svg:path d="M31.6253 43.5923 L41.0460 43.5923 "/>
<svg:path d="M41.0460 31.8164 L31.6253 31.8164 "/>
<svg:path d="M42.8124 41.8259 L42.8124 33.5828 "/>
<svg:path d="M31.6253 31.8164 A1.7664 1.7664 0.0 0 0 29.8589 33.5828"/>
<svg:path d="M29.8589 41.8259 A1.7664 1.7664 0.0 0 0 31.6253 43.5923"/>
<svg:path d="M42.8124 33.5828 A1.7664 1.7664 0.0 0 0 41.0460 31.8164"/>
<svg:path d="M41.0460 43.5923 A1.7664 1.7664 0.0 0 0 42.8124 41.8259"/>
<svg:path d="M29.8589 53.0248 L29.8589 61.2679 "/>
<svg:path d="M31.6253 63.0343 L41.0460 63.0343 "/>
<svg:path d="M41.0460 51.2584 L31.6253 51.2584 "/>
<svg:path d="M42.8124 61.2679 L42.8124 53.0248 "/>
<svg:path d="M31.6253 51.2584 A1.7664 1.7664 0.0 0 0 29.8589 53.0248"/>
<svg:path d="M29.8589 61.2679 A1.7664 1.7664 0.0 0 0 31.6253 63.0343"/>
<svg:path d="M42.8124 53.0248 A1.7664 1.7664 0.0 0 0 41.0460 51.2584"/>
<svg:path d="M41.0460 63.0343 A1.7664 1.7664 0.0 0 0 42.8124 61.2679"/>
<svg:path d="M29.8589 72.4668 L29.8589 80.7099 "/>
<svg:path d="M31.6253 82.4763 L41.0460 82.4763 "/>
<svg:path d="M41.0460 70.7004 L31.6253 70.7004 "/>
<svg:path d="M42.8124 80.7099 L42.8124 72.4668 "/>
<svg:path d="M31.6253 70.7004 A1.7664 1.7664 0.0 0 0 29.8589 72.4668"/>
<svg:path d="M29.8589 80.7099 A1.7664 1.7664 0.0 0 0 31.6253 82.4763"/>
<svg:path d="M42.8124 72.4668 A1.7664 1.7664 0.0 0 0 41.0460 70.7004"/>
<svg:path d="M41.0460 82.4763 A1.7664 1.7664 0.0 0 0 42.8124 80.7099"/>
</svg:g> 
</svg:g></svg:g></svg>
