<?xml version='1.0' encoding='ASCII' standalone='yes'?>
<svg xmlns:svg="http://www.w3.org/2000/svg" xmlns="http://www.w3.org/2000/svg" xmlns:xlink="http://www.w3.org/1999/xlink" version="1.1" width="297.0022mm" height="210.0072mm" viewBox="0.0000 0.0000 297.0022 210.0072">
<title>SVG Image created as TFLORA01-F_Fab.svg date 2024/10/16 20:55:48 </title>
  <desc>Image generated by PCBNEW </desc>
<g style="fill:#848484; fill-opacity:1.0000;stroke:#848484; stroke-opacity:1.0000; stroke-linecap:round; stroke-linejoin:round;" transform="translate(0 0) scale(1 1)">
</g>
<g style="fill:none;  stroke:#848484; stroke-width:0.8832; stroke-opacity:1;  stroke-linecap:round; stroke-linejoin:round;">
<text x="271.5875" y="107.9476" textLength="17.1732" font-size="7.8506" lengthAdjust="spacingAndGlyphs" text-anchor="middle" opacity="0" stroke-opacity="0">J12</text>
<g class="stroked-text"><desc>J12</desc>
<path d="M266.8211 101.7936 L266.8211 105.9993 "/>
<path d="M266.8211 105.9993 L266.5407 106.8404 "/>
<path d="M266.5407 106.8404 L265.9800 107.4012 "/>
<path d="M265.9800 107.4012 L265.1388 107.6816 "/>
<path d="M265.1388 107.6816 L264.5781 107.6816 "/>
<path d="M272.7090 107.6816 L269.3445 107.6816 "/>
<path d="M271.0268 107.6816 L271.0268 101.7936 "/>
<path d="M271.0268 101.7936 L270.4660 102.6347 "/>
<path d="M270.4660 102.6347 L269.9053 103.1955 "/>
<path d="M269.9053 103.1955 L269.3445 103.4759 "/>
<path d="M274.9521 102.3544 L275.2325 102.0740 "/>
<path d="M275.2325 102.0740 L275.7932 101.7936 "/>
<path d="M275.7932 101.7936 L277.1951 101.7936 "/>
<path d="M277.1951 101.7936 L277.7559 102.0740 "/>
<path d="M277.7559 102.0740 L278.0362 102.3544 "/>
<path d="M278.0362 102.3544 L278.3166 102.9151 "/>
<path d="M278.3166 102.9151 L278.3166 103.4759 "/>
<path d="M278.3166 103.4759 L278.0362 104.3170 "/>
<path d="M278.0362 104.3170 L274.6717 107.6816 "/>
<path d="M274.6717 107.6816 L278.3166 107.6816 "/>
</g><text x="420.7961" y="35.6730" transform="scale(-1 1) translate(-841.592217 0)" textLength="7.3599" font-size="7.8506" lengthAdjust="spacingAndGlyphs" text-anchor="middle" opacity="0" stroke-opacity="0">K</text>
<g class="stroked-text"><desc>K</desc>
<path d="M422.3382 35.4070 L422.3382 29.5190 "/>
<path d="M418.9736 35.4070 L421.4971 32.0424 "/>
<path d="M418.9736 29.5190 L422.3382 32.8836 "/>
</g><text x="420.7961" y="56.5752" transform="scale(-1 1) translate(-841.592217 0)" textLength="7.3599" font-size="7.8506" lengthAdjust="spacingAndGlyphs" text-anchor="middle" opacity="0" stroke-opacity="0">K</text>
<g class="stroked-text"><desc>K</desc>
<path d="M422.3382 56.3092 L422.3382 50.4212 "/>
<path d="M418.9736 56.3092 L421.4971 52.9446 "/>
<path d="M418.9736 50.4212 L422.3382 53.7858 "/>
</g><text x="-74.3343" y="196.7826" transform="scale(-1 1) translate(148.668548 0)" textLength="7.3599" font-size="7.8506" lengthAdjust="spacingAndGlyphs" text-anchor="middle" opacity="0" stroke-opacity="0">K</text>
<g class="stroked-text"><desc>K</desc>
<path d="M-72.7922 196.5166 L-72.7922 190.6286 "/>
<path d="M-76.1567 196.5166 L-73.6333 193.1520 "/>
<path d="M-76.1567 190.6286 L-72.7922 193.9932 "/>
</g></g>
<g style="fill:none;  stroke:#848484; stroke-width:0.5888; stroke-opacity:1;  stroke-linecap:round; stroke-linejoin:round;">
<path d="M233.6102 83.6598 L233.6102 126.3474 "/>
<path d="M237.0135 105.0036 L234.0695 102.0596 "/>
<path d="M237.0135 105.0036 L234.0695 107.9476 "/>
<path d="M291.3122 83.6598 L233.6102 83.6598 "/>
<path d="M291.3122 126.3474 L233.6102 126.3474 "/>
<path d="M291.3122 126.3474 L291.3122 83.6598 "/>
</g> 
<svg:g><svg:g><svg:title>SVG Image created as TFLORA01-Edge_Cuts.svg date 2024/10/16 20:55:48 </svg:title>
  <svg:desc>Image generated by PCBNEW </svg:desc>
<svg:g style="fill:#C2C200; fill-opacity:1.0000;stroke:#C2C200; stroke-opacity:1.0000; stroke-linecap:round; stroke-linejoin:round;" transform="translate(0 0) scale(1 1)">
</svg:g>
<svg:g style="fill:none;  stroke:#C2C200; stroke-width:0.8832; stroke-opacity:1;  stroke-linecap:round; stroke-linejoin:round;">
<svg:path d="M0.4427 16.7668 L0.4427 193.2404 "/>
<svg:path d="M0.4427 16.7668 L296.5595 16.7668 "/>
<svg:path d="M296.5595 193.2404 L0.4427 193.2404 "/>
<svg:path d="M296.5595 193.2404 L296.5595 16.7668 "/>
</svg:g>
<svg:g style="fill:none;  stroke:#C2C200; stroke-width:0.5888; stroke-opacity:1;  stroke-linecap:round; stroke-linejoin:round;">
<svg:path d="M253.3349 90.4309 L253.3349 119.5763 "/>
<svg:path d="M253.3349 119.5763 L291.3122 119.5763 "/>
<svg:path d="M291.3122 90.4309 L253.3349 90.4309 "/>
<svg:path d="M335.5896 88.0381 L335.5896 117.1834 "/>
<svg:path d="M335.5896 117.1834 L373.5668 117.1834 "/>
<svg:path d="M373.5668 88.0381 L335.5896 88.0381 "/>
</svg:g>
<svg:g style="fill:none;  stroke:#C2C200; stroke-width:0.2944; stroke-opacity:1;  stroke-linecap:round; stroke-linejoin:round;">
<svg:path d="M426.2837 28.3083 L426.2837 36.5515 "/>
<svg:path d="M428.0501 38.3179 L437.4708 38.3179 "/>
<svg:path d="M437.4708 26.5420 L428.0501 26.5420 "/>
<svg:path d="M439.2372 36.5515 L439.2372 28.3083 "/>
<svg:path d="M428.0501 26.5420 A1.7664 1.7664 0.0 0 0 426.2837 28.3083"/>
<svg:path d="M426.2837 36.5515 A1.7664 1.7664 0.0 0 0 428.0501 38.3179"/>
<svg:path d="M439.2372 28.3083 A1.7664 1.7664 0.0 0 0 437.4708 26.5420"/>
<svg:path d="M437.4708 38.3179 A1.7664 1.7664 0.0 0 0 439.2372 36.5515"/>
<svg:path d="M426.2837 49.2106 L426.2837 57.4537 "/>
<svg:path d="M428.0501 59.2201 L437.4708 59.2201 "/>
<svg:path d="M437.4708 47.4442 L428.0501 47.4442 "/>
<svg:path d="M439.2372 57.4537 L439.2372 49.2106 "/>
<svg:path d="M428.0501 47.4442 A1.7664 1.7664 0.0 0 0 426.2837 49.2106"/>
<svg:path d="M426.2837 57.4537 A1.7664 1.7664 0.0 0 0 428.0501 59.2201"/>
<svg:path d="M439.2372 49.2106 A1.7664 1.7664 0.0 0 0 437.4708 47.4442"/>
<svg:path d="M437.4708 59.2201 A1.7664 1.7664 0.0 0 0 439.2372 57.4537"/>
<svg:path d="M-68.8467 189.4180 L-68.8467 197.6611 "/>
<svg:path d="M-67.0803 199.4275 L-57.6596 199.4275 "/>
<svg:path d="M-57.6596 187.6516 L-67.0803 187.6516 "/>
<svg:path d="M-55.8932 197.6611 L-55.8932 189.4180 "/>
<svg:path d="M-67.0803 187.6516 A1.7664 1.7664 0.0 0 0 -68.8467 189.4180"/>
<svg:path d="M-68.8467 197.6611 A1.7664 1.7664 0.0 0 0 -67.0803 199.4275"/>
<svg:path d="M-55.8932 189.4180 A1.7664 1.7664 0.0 0 0 -57.6596 187.6516"/>
<svg:path d="M-57.6596 199.4275 A1.7664 1.7664 0.0 0 0 -55.8932 197.6611"/>
</svg:g> 
</svg:g></svg:g></svg>
