<?xml version='1.0' encoding='ASCII' standalone='yes'?>
<svg xmlns:svg="http://www.w3.org/2000/svg" xmlns="http://www.w3.org/2000/svg" xmlns:xlink="http://www.w3.org/1999/xlink" version="1.1" width="297.0022mm" height="210.0072mm" viewBox="0.0000 0.0000 297.0022 210.0072">
<title>SVG Image created as TFLORA01-F_Fab.svg date 2024/10/17 10:47:02 </title>
  <desc>Image generated by PCBNEW </desc>
<g style="fill:#848484; fill-opacity:1.0000;stroke:#848484; stroke-opacity:1.0000; stroke-linecap:round; stroke-linejoin:round;" transform="translate(0 0) scale(1 1)">
</g>
<g style="fill:none;  stroke:#848484; stroke-width:0.8688; stroke-opacity:1;  stroke-linecap:round; stroke-linejoin:round;">
<text x="23.9749" y="41.9893" transform="scale(-1 1) translate(-47.949896 0)" textLength="7.2402" font-size="7.7229" lengthAdjust="spacingAndGlyphs" text-anchor="middle" opacity="0" stroke-opacity="0">K</text>
<g class="stroked-text"><desc>K</desc>
<path d="M25.4919 41.7276 L25.4919 35.9354 "/>
<path d="M22.1821 41.7276 L24.6645 38.4178 "/>
<path d="M22.1821 35.9354 L25.4919 39.2452 "/>
</g><text x="23.9749" y="61.1151" transform="scale(-1 1) translate(-47.949896 0)" textLength="7.2402" font-size="7.7229" lengthAdjust="spacingAndGlyphs" text-anchor="middle" opacity="0" stroke-opacity="0">K</text>
<g class="stroked-text"><desc>K</desc>
<path d="M25.4919 60.8534 L25.4919 55.0612 "/>
<path d="M22.1821 60.8534 L24.6645 57.5435 "/>
<path d="M22.1821 55.0612 L25.4919 58.3710 "/>
</g><text x="23.9749" y="80.2409" transform="scale(-1 1) translate(-47.949896 0)" textLength="7.2402" font-size="7.7229" lengthAdjust="spacingAndGlyphs" text-anchor="middle" opacity="0" stroke-opacity="0">K</text>
<g class="stroked-text"><desc>K</desc>
<path d="M25.4919 79.9792 L25.4919 74.1870 "/>
<path d="M22.1821 79.9792 L24.6645 76.6693 "/>
<path d="M22.1821 74.1870 L25.4919 77.4968 "/>
</g></g> 
<svg:g><svg:g><svg:title>SVG Image created as TFLORA01-Edge_Cuts.svg date 2024/10/17 10:47:02 </svg:title>
  <svg:desc>Image generated by PCBNEW </svg:desc>
<svg:g style="fill:#C2C200; fill-opacity:1.0000;stroke:#C2C200; stroke-opacity:1.0000; stroke-linecap:round; stroke-linejoin:round;" transform="translate(0 0) scale(1 1)">
</svg:g>
<svg:g style="fill:none;  stroke:#C2C200; stroke-width:0.8688; stroke-opacity:1;  stroke-linecap:round; stroke-linejoin:round;">
<svg:path d="M0.4355 18.2019 L0.4355 191.8053 "/>
<svg:path d="M0.4355 18.2019 L291.7360 18.2019 "/>
<svg:path d="M291.7360 191.8053 L0.4355 191.8053 "/>
<svg:path d="M296.5667 191.8053 L296.5667 18.2019 "/>
</svg:g>
<svg:g style="fill:none;  stroke:#C2C200; stroke-width:0.2896; stroke-opacity:1;  stroke-linecap:round; stroke-linejoin:round;">
<svg:path d="M29.3733 34.7444 L29.3733 42.8535 "/>
<svg:path d="M31.1109 44.5911 L40.3784 44.5911 "/>
<svg:path d="M40.3784 33.0068 L31.1109 33.0068 "/>
<svg:path d="M42.1161 42.8535 L42.1161 34.7444 "/>
<svg:path d="M31.1109 33.0068 A1.7377 1.7377 0.0 0 0 29.3733 34.7444"/>
<svg:path d="M29.3733 42.8535 A1.7377 1.7377 0.0 0 0 31.1109 44.5911"/>
<svg:path d="M42.1161 34.7444 A1.7377 1.7377 0.0 0 0 40.3784 33.0068"/>
<svg:path d="M40.3784 44.5911 A1.7377 1.7377 0.0 0 0 42.1161 42.8535"/>
<svg:path d="M29.3733 53.8702 L29.3733 61.9793 "/>
<svg:path d="M31.1109 63.7169 L40.3784 63.7169 "/>
<svg:path d="M40.3784 52.1325 L31.1109 52.1325 "/>
<svg:path d="M42.1161 61.9793 L42.1161 53.8702 "/>
<svg:path d="M31.1109 52.1325 A1.7377 1.7377 0.0 0 0 29.3733 53.8702"/>
<svg:path d="M29.3733 61.9793 A1.7377 1.7377 0.0 0 0 31.1109 63.7169"/>
<svg:path d="M42.1161 53.8702 A1.7377 1.7377 0.0 0 0 40.3784 52.1325"/>
<svg:path d="M40.3784 63.7169 A1.7377 1.7377 0.0 0 0 42.1161 61.9793"/>
<svg:path d="M29.3733 72.9960 L29.3733 81.1050 "/>
<svg:path d="M31.1109 82.8427 L40.3784 82.8427 "/>
<svg:path d="M40.3784 71.2583 L31.1109 71.2583 "/>
<svg:path d="M42.1161 81.1050 L42.1161 72.9960 "/>
<svg:path d="M31.1109 71.2583 A1.7377 1.7377 0.0 0 0 29.3733 72.9960"/>
<svg:path d="M29.3733 81.1050 A1.7377 1.7377 0.0 0 0 31.1109 82.8427"/>
<svg:path d="M42.1161 72.9960 A1.7377 1.7377 0.0 0 0 40.3784 71.2583"/>
<svg:path d="M40.3784 82.8427 A1.7377 1.7377 0.0 0 0 42.1161 81.1050"/>
</svg:g> 
</svg:g></svg:g></svg>
