<?xml version='1.0' encoding='ASCII' standalone='yes'?>
<svg xmlns:svg="http://www.w3.org/2000/svg" xmlns="http://www.w3.org/2000/svg" xmlns:xlink="http://www.w3.org/1999/xlink" version="1.1" width="297.0022mm" height="210.0072mm" viewBox="0.0000 0.0000 297.0022 210.0072">
<title>SVG Image created as TFLORA01-F_Fab.svg date 2024/10/16 20:04:14 </title>
  <desc>Image generated by PCBNEW </desc>
<g style="fill:#848484; fill-opacity:1.0000;stroke:#848484; stroke-opacity:1.0000; stroke-linecap:round; stroke-linejoin:round;" transform="translate(0 0) scale(1 1)">
</g>
<g style="fill:none;  stroke:#848484; stroke-width:0.8832; stroke-opacity:1;  stroke-linecap:round; stroke-linejoin:round;">
<text x="271.5875" y="107.9476" textLength="17.1732" font-size="7.8506" lengthAdjust="spacingAndGlyphs" text-anchor="middle" opacity="0" stroke-opacity="0">J12</text>
<g class="stroked-text"><desc>J12</desc>
<path d="M266.8211 101.7936 L266.8211 105.9993 "/>
<path d="M266.8211 105.9993 L266.5407 106.8404 "/>
<path d="M266.5407 106.8404 L265.9800 107.4012 "/>
<path d="M265.9800 107.4012 L265.1388 107.6816 "/>
<path d="M265.1388 107.6816 L264.5781 107.6816 "/>
<path d="M272.7090 107.6816 L269.3445 107.6816 "/>
<path d="M271.0268 107.6816 L271.0268 101.7936 "/>
<path d="M271.0268 101.7936 L270.4660 102.6347 "/>
<path d="M270.4660 102.6347 L269.9053 103.1955 "/>
<path d="M269.9053 103.1955 L269.3445 103.4759 "/>
<path d="M274.9521 102.3544 L275.2325 102.0740 "/>
<path d="M275.2325 102.0740 L275.7932 101.7936 "/>
<path d="M275.7932 101.7936 L277.1951 101.7936 "/>
<path d="M277.1951 101.7936 L277.7559 102.0740 "/>
<path d="M277.7559 102.0740 L278.0362 102.3544 "/>
<path d="M278.0362 102.3544 L278.3166 102.9151 "/>
<path d="M278.3166 102.9151 L278.3166 103.4759 "/>
<path d="M278.3166 103.4759 L278.0362 104.3170 "/>
<path d="M278.0362 104.3170 L274.6717 107.6816 "/>
<path d="M274.6717 107.6816 L278.3166 107.6816 "/>
</g><text x="164.2761" y="-43.0901" textLength="75.7723" font-size="7.8506" lengthAdjust="spacingAndGlyphs" text-anchor="middle" opacity="0" stroke-opacity="0">IT3205CE 32MHz</text>
<g class="stroked-text"><desc>IT3205CE 32MHz</desc>
<path d="M128.5278 -43.3562 L128.5278 -49.2441 "/>
<path d="M130.4905 -49.2441 L133.8550 -49.2441 "/>
<path d="M132.1727 -43.3562 L132.1727 -49.2441 "/>
<path d="M135.2569 -49.2441 L138.9018 -49.2441 "/>
<path d="M138.9018 -49.2441 L136.9392 -47.0011 "/>
<path d="M136.9392 -47.0011 L137.7803 -47.0011 "/>
<path d="M137.7803 -47.0011 L138.3411 -46.7207 "/>
<path d="M138.3411 -46.7207 L138.6214 -46.4403 "/>
<path d="M138.6214 -46.4403 L138.9018 -45.8796 "/>
<path d="M138.9018 -45.8796 L138.9018 -44.4777 "/>
<path d="M138.9018 -44.4777 L138.6214 -43.9169 "/>
<path d="M138.6214 -43.9169 L138.3411 -43.6365 "/>
<path d="M138.3411 -43.6365 L137.7803 -43.3562 "/>
<path d="M137.7803 -43.3562 L136.0980 -43.3562 "/>
<path d="M136.0980 -43.3562 L135.5373 -43.6365 "/>
<path d="M135.5373 -43.6365 L135.2569 -43.9169 "/>
<path d="M141.1449 -48.6833 L141.4252 -48.9637 "/>
<path d="M141.4252 -48.9637 L141.9860 -49.2441 "/>
<path d="M141.9860 -49.2441 L143.3879 -49.2441 "/>
<path d="M143.3879 -49.2441 L143.9486 -48.9637 "/>
<path d="M143.9486 -48.9637 L144.2290 -48.6833 "/>
<path d="M144.2290 -48.6833 L144.5094 -48.1226 "/>
<path d="M144.5094 -48.1226 L144.5094 -47.5618 "/>
<path d="M144.5094 -47.5618 L144.2290 -46.7207 "/>
<path d="M144.2290 -46.7207 L140.8645 -43.3562 "/>
<path d="M140.8645 -43.3562 L144.5094 -43.3562 "/>
<path d="M148.1543 -49.2441 L148.7151 -49.2441 "/>
<path d="M148.7151 -49.2441 L149.2758 -48.9637 "/>
<path d="M149.2758 -48.9637 L149.5562 -48.6833 "/>
<path d="M149.5562 -48.6833 L149.8366 -48.1226 "/>
<path d="M149.8366 -48.1226 L150.1170 -47.0011 "/>
<path d="M150.1170 -47.0011 L150.1170 -45.5992 "/>
<path d="M150.1170 -45.5992 L149.8366 -44.4777 "/>
<path d="M149.8366 -44.4777 L149.5562 -43.9169 "/>
<path d="M149.5562 -43.9169 L149.2758 -43.6365 "/>
<path d="M149.2758 -43.6365 L148.7151 -43.3562 "/>
<path d="M148.7151 -43.3562 L148.1543 -43.3562 "/>
<path d="M148.1543 -43.3562 L147.5936 -43.6365 "/>
<path d="M147.5936 -43.6365 L147.3132 -43.9169 "/>
<path d="M147.3132 -43.9169 L147.0328 -44.4777 "/>
<path d="M147.0328 -44.4777 L146.7524 -45.5992 "/>
<path d="M146.7524 -45.5992 L146.7524 -47.0011 "/>
<path d="M146.7524 -47.0011 L147.0328 -48.1226 "/>
<path d="M147.0328 -48.1226 L147.3132 -48.6833 "/>
<path d="M147.3132 -48.6833 L147.5936 -48.9637 "/>
<path d="M147.5936 -48.9637 L148.1543 -49.2441 "/>
<path d="M155.4442 -49.2441 L152.6404 -49.2441 "/>
<path d="M152.6404 -49.2441 L152.3600 -46.4403 "/>
<path d="M152.3600 -46.4403 L152.6404 -46.7207 "/>
<path d="M152.6404 -46.7207 L153.2011 -47.0011 "/>
<path d="M153.2011 -47.0011 L154.6030 -47.0011 "/>
<path d="M154.6030 -47.0011 L155.1638 -46.7207 "/>
<path d="M155.1638 -46.7207 L155.4442 -46.4403 "/>
<path d="M155.4442 -46.4403 L155.7245 -45.8796 "/>
<path d="M155.7245 -45.8796 L155.7245 -44.4777 "/>
<path d="M155.7245 -44.4777 L155.4442 -43.9169 "/>
<path d="M155.4442 -43.9169 L155.1638 -43.6365 "/>
<path d="M155.1638 -43.6365 L154.6030 -43.3562 "/>
<path d="M154.6030 -43.3562 L153.2011 -43.3562 "/>
<path d="M153.2011 -43.3562 L152.6404 -43.6365 "/>
<path d="M152.6404 -43.6365 L152.3600 -43.9169 "/>
<path d="M161.6125 -43.9169 L161.3321 -43.6365 "/>
<path d="M161.3321 -43.6365 L160.4910 -43.3562 "/>
<path d="M160.4910 -43.3562 L159.9302 -43.3562 "/>
<path d="M159.9302 -43.3562 L159.0891 -43.6365 "/>
<path d="M159.0891 -43.6365 L158.5283 -44.1973 "/>
<path d="M158.5283 -44.1973 L158.2480 -44.7581 "/>
<path d="M158.2480 -44.7581 L157.9676 -45.8796 "/>
<path d="M157.9676 -45.8796 L157.9676 -46.7207 "/>
<path d="M157.9676 -46.7207 L158.2480 -47.8422 "/>
<path d="M158.2480 -47.8422 L158.5283 -48.4030 "/>
<path d="M158.5283 -48.4030 L159.0891 -48.9637 "/>
<path d="M159.0891 -48.9637 L159.9302 -49.2441 "/>
<path d="M159.9302 -49.2441 L160.4910 -49.2441 "/>
<path d="M160.4910 -49.2441 L161.3321 -48.9637 "/>
<path d="M161.3321 -48.9637 L161.6125 -48.6833 "/>
<path d="M164.1359 -46.4403 L166.0986 -46.4403 "/>
<path d="M166.9397 -43.3562 L164.1359 -43.3562 "/>
<path d="M164.1359 -43.3562 L164.1359 -49.2441 "/>
<path d="M164.1359 -49.2441 L166.9397 -49.2441 "/>
<path d="M173.3884 -49.2441 L177.0333 -49.2441 "/>
<path d="M177.0333 -49.2441 L175.0707 -47.0011 "/>
<path d="M175.0707 -47.0011 L175.9118 -47.0011 "/>
<path d="M175.9118 -47.0011 L176.4726 -46.7207 "/>
<path d="M176.4726 -46.7207 L176.7529 -46.4403 "/>
<path d="M176.7529 -46.4403 L177.0333 -45.8796 "/>
<path d="M177.0333 -45.8796 L177.0333 -44.4777 "/>
<path d="M177.0333 -44.4777 L176.7529 -43.9169 "/>
<path d="M176.7529 -43.9169 L176.4726 -43.6365 "/>
<path d="M176.4726 -43.6365 L175.9118 -43.3562 "/>
<path d="M175.9118 -43.3562 L174.2295 -43.3562 "/>
<path d="M174.2295 -43.3562 L173.6688 -43.6365 "/>
<path d="M173.6688 -43.6365 L173.3884 -43.9169 "/>
<path d="M179.2764 -48.6833 L179.5567 -48.9637 "/>
<path d="M179.5567 -48.9637 L180.1175 -49.2441 "/>
<path d="M180.1175 -49.2441 L181.5194 -49.2441 "/>
<path d="M181.5194 -49.2441 L182.0801 -48.9637 "/>
<path d="M182.0801 -48.9637 L182.3605 -48.6833 "/>
<path d="M182.3605 -48.6833 L182.6409 -48.1226 "/>
<path d="M182.6409 -48.1226 L182.6409 -47.5618 "/>
<path d="M182.6409 -47.5618 L182.3605 -46.7207 "/>
<path d="M182.3605 -46.7207 L178.9960 -43.3562 "/>
<path d="M178.9960 -43.3562 L182.6409 -43.3562 "/>
<path d="M185.1643 -43.3562 L185.1643 -49.2441 "/>
<path d="M185.1643 -49.2441 L187.1270 -45.0384 "/>
<path d="M187.1270 -45.0384 L189.0896 -49.2441 "/>
<path d="M189.0896 -49.2441 L189.0896 -43.3562 "/>
<path d="M191.8934 -43.3562 L191.8934 -49.2441 "/>
<path d="M191.8934 -46.4403 L195.2579 -46.4403 "/>
<path d="M195.2579 -43.3562 L195.2579 -49.2441 "/>
<path d="M197.5010 -47.2815 L200.5851 -47.2815 "/>
<path d="M200.5851 -47.2815 L197.5010 -43.3562 "/>
<path d="M197.5010 -43.3562 L200.5851 -43.3562 "/>
</g><text x="164.2761" y="-87.5442" textLength="12.6871" font-size="7.8506" lengthAdjust="spacingAndGlyphs" text-anchor="middle" opacity="0" stroke-opacity="0">X1</text>
<g class="stroked-text"><desc>X1</desc>
<path d="M159.5097 -93.6981 L163.4350 -87.8102 "/>
<path d="M163.4350 -93.6981 L159.5097 -87.8102 "/>
<path d="M168.7622 -87.8102 L165.3976 -87.8102 "/>
<path d="M167.0799 -87.8102 L167.0799 -93.6981 "/>
<path d="M167.0799 -93.6981 L166.5191 -92.8570 "/>
<path d="M166.5191 -92.8570 L165.9584 -92.2962 "/>
<path d="M165.9584 -92.2962 L165.3976 -92.0159 "/>
</g><text x="241.5849" y="-113.6867" textLength="17.4536" font-size="7.8506" lengthAdjust="spacingAndGlyphs" text-anchor="middle" opacity="0" stroke-opacity="0">10k</text>
<g class="stroked-text"><desc>10k</desc>
<path d="M238.0802 -113.9527 L234.7156 -113.9527 "/>
<path d="M236.3979 -113.9527 L236.3979 -119.8406 "/>
<path d="M236.3979 -119.8406 L235.8371 -118.9995 "/>
<path d="M235.8371 -118.9995 L235.2764 -118.4387 "/>
<path d="M235.2764 -118.4387 L234.7156 -118.1584 "/>
<path d="M241.7251 -119.8406 L242.2858 -119.8406 "/>
<path d="M242.2858 -119.8406 L242.8466 -119.5603 "/>
<path d="M242.8466 -119.5603 L243.1270 -119.2799 "/>
<path d="M243.1270 -119.2799 L243.4073 -118.7191 "/>
<path d="M243.4073 -118.7191 L243.6877 -117.5976 "/>
<path d="M243.6877 -117.5976 L243.6877 -116.1957 "/>
<path d="M243.6877 -116.1957 L243.4073 -115.0742 "/>
<path d="M243.4073 -115.0742 L243.1270 -114.5134 "/>
<path d="M243.1270 -114.5134 L242.8466 -114.2331 "/>
<path d="M242.8466 -114.2331 L242.2858 -113.9527 "/>
<path d="M242.2858 -113.9527 L241.7251 -113.9527 "/>
<path d="M241.7251 -113.9527 L241.1643 -114.2331 "/>
<path d="M241.1643 -114.2331 L240.8839 -114.5134 "/>
<path d="M240.8839 -114.5134 L240.6036 -115.0742 "/>
<path d="M240.6036 -115.0742 L240.3232 -116.1957 "/>
<path d="M240.3232 -116.1957 L240.3232 -117.5976 "/>
<path d="M240.3232 -117.5976 L240.6036 -118.7191 "/>
<path d="M240.6036 -118.7191 L240.8839 -119.2799 "/>
<path d="M240.8839 -119.2799 L241.1643 -119.5603 "/>
<path d="M241.1643 -119.5603 L241.7251 -119.8406 "/>
<path d="M246.2111 -113.9527 L246.2111 -119.8406 "/>
<path d="M246.7719 -116.1957 L248.4542 -113.9527 "/>
<path d="M248.4542 -117.8780 L246.2111 -115.6350 "/>
</g></g>
<g style="fill:none;  stroke:#848484; stroke-width:0.3533; stroke-opacity:1;  stroke-linecap:round; stroke-linejoin:round;">
<text x="241.5849" y="-123.8728" textLength="5.1870" font-size="3.1402" lengthAdjust="spacingAndGlyphs" text-anchor="middle" opacity="0" stroke-opacity="0">R8</text>
<g class="stroked-text"><desc>R8</desc>
<path d="M241.1924 -123.9792 L240.4073 -125.1007 "/>
<path d="M239.8465 -123.9792 L239.8465 -126.3344 "/>
<path d="M239.8465 -126.3344 L240.7438 -126.3344 "/>
<path d="M240.7438 -126.3344 L240.9681 -126.2223 "/>
<path d="M240.9681 -126.2223 L241.0802 -126.1101 "/>
<path d="M241.0802 -126.1101 L241.1924 -125.8858 "/>
<path d="M241.1924 -125.8858 L241.1924 -125.5493 "/>
<path d="M241.1924 -125.5493 L241.0802 -125.3250 "/>
<path d="M241.0802 -125.3250 L240.9681 -125.2129 "/>
<path d="M240.9681 -125.2129 L240.7438 -125.1007 "/>
<path d="M240.7438 -125.1007 L239.8465 -125.1007 "/>
<path d="M242.5382 -125.3250 L242.3139 -125.4372 "/>
<path d="M242.3139 -125.4372 L242.2017 -125.5493 "/>
<path d="M242.2017 -125.5493 L242.0896 -125.7736 "/>
<path d="M242.0896 -125.7736 L242.0896 -125.8858 "/>
<path d="M242.0896 -125.8858 L242.2017 -126.1101 "/>
<path d="M242.2017 -126.1101 L242.3139 -126.2223 "/>
<path d="M242.3139 -126.2223 L242.5382 -126.3344 "/>
<path d="M242.5382 -126.3344 L242.9868 -126.3344 "/>
<path d="M242.9868 -126.3344 L243.2111 -126.2223 "/>
<path d="M243.2111 -126.2223 L243.3232 -126.1101 "/>
<path d="M243.3232 -126.1101 L243.4354 -125.8858 "/>
<path d="M243.4354 -125.8858 L243.4354 -125.7736 "/>
<path d="M243.4354 -125.7736 L243.3232 -125.5493 "/>
<path d="M243.3232 -125.5493 L243.2111 -125.4372 "/>
<path d="M243.2111 -125.4372 L242.9868 -125.3250 "/>
<path d="M242.9868 -125.3250 L242.5382 -125.3250 "/>
<path d="M242.5382 -125.3250 L242.3139 -125.2129 "/>
<path d="M242.3139 -125.2129 L242.2017 -125.1007 "/>
<path d="M242.2017 -125.1007 L242.0896 -124.8764 "/>
<path d="M242.0896 -124.8764 L242.0896 -124.4278 "/>
<path d="M242.0896 -124.4278 L242.2017 -124.2035 "/>
<path d="M242.2017 -124.2035 L242.3139 -124.0914 "/>
<path d="M242.3139 -124.0914 L242.5382 -123.9792 "/>
<path d="M242.5382 -123.9792 L242.9868 -123.9792 "/>
<path d="M242.9868 -123.9792 L243.2111 -124.0914 "/>
<path d="M243.2111 -124.0914 L243.3232 -124.2035 "/>
<path d="M243.3232 -124.2035 L243.4354 -124.4278 "/>
<path d="M243.4354 -124.4278 L243.4354 -124.8764 "/>
<path d="M243.4354 -124.8764 L243.3232 -125.1007 "/>
<path d="M243.3232 -125.1007 L243.2111 -125.2129 "/>
<path d="M243.2111 -125.2129 L242.9868 -125.3250 "/>
</g></g>
<g style="fill:none;  stroke:#848484; stroke-width:0.8832; stroke-opacity:1;  stroke-linecap:round; stroke-linejoin:round;">
<text x="224.6841" y="-7.6400" textLength="56.7066" font-size="7.8506" lengthAdjust="spacingAndGlyphs" text-anchor="middle" opacity="0" stroke-opacity="0">74LVC1G157</text>
<g class="stroked-text"><desc>74LVC1G157</desc>
<path d="M197.9080 -13.7939 L201.8333 -13.7939 "/>
<path d="M201.8333 -13.7939 L199.3099 -7.9060 "/>
<path d="M206.5997 -11.8313 L206.5997 -7.9060 "/>
<path d="M205.1978 -14.0743 L203.7959 -9.8686 "/>
<path d="M203.7959 -9.8686 L207.4408 -9.8686 "/>
<path d="M212.4876 -7.9060 L209.6839 -7.9060 "/>
<path d="M209.6839 -7.9060 L209.6839 -13.7939 "/>
<path d="M213.6092 -13.7939 L215.5718 -7.9060 "/>
<path d="M215.5718 -7.9060 L217.5345 -13.7939 "/>
<path d="M222.8617 -8.4667 L222.5813 -8.1864 "/>
<path d="M222.5813 -8.1864 L221.7401 -7.9060 "/>
<path d="M221.7401 -7.9060 L221.1794 -7.9060 "/>
<path d="M221.1794 -7.9060 L220.3382 -8.1864 "/>
<path d="M220.3382 -8.1864 L219.7775 -8.7471 "/>
<path d="M219.7775 -8.7471 L219.4971 -9.3079 "/>
<path d="M219.4971 -9.3079 L219.2167 -10.4294 "/>
<path d="M219.2167 -10.4294 L219.2167 -11.2705 "/>
<path d="M219.2167 -11.2705 L219.4971 -12.3920 "/>
<path d="M219.4971 -12.3920 L219.7775 -12.9528 "/>
<path d="M219.7775 -12.9528 L220.3382 -13.5136 "/>
<path d="M220.3382 -13.5136 L221.1794 -13.7939 "/>
<path d="M221.1794 -13.7939 L221.7401 -13.7939 "/>
<path d="M221.7401 -13.7939 L222.5813 -13.5136 "/>
<path d="M222.5813 -13.5136 L222.8617 -13.2332 "/>
<path d="M228.4692 -7.9060 L225.1047 -7.9060 "/>
<path d="M226.7870 -7.9060 L226.7870 -13.7939 "/>
<path d="M226.7870 -13.7939 L226.2262 -12.9528 "/>
<path d="M226.2262 -12.9528 L225.6654 -12.3920 "/>
<path d="M225.6654 -12.3920 L225.1047 -12.1117 "/>
<path d="M234.0768 -13.5136 L233.5160 -13.7939 "/>
<path d="M233.5160 -13.7939 L232.6749 -13.7939 "/>
<path d="M232.6749 -13.7939 L231.8338 -13.5136 "/>
<path d="M231.8338 -13.5136 L231.2730 -12.9528 "/>
<path d="M231.2730 -12.9528 L230.9926 -12.3920 "/>
<path d="M230.9926 -12.3920 L230.7123 -11.2705 "/>
<path d="M230.7123 -11.2705 L230.7123 -10.4294 "/>
<path d="M230.7123 -10.4294 L230.9926 -9.3079 "/>
<path d="M230.9926 -9.3079 L231.2730 -8.7471 "/>
<path d="M231.2730 -8.7471 L231.8338 -8.1864 "/>
<path d="M231.8338 -8.1864 L232.6749 -7.9060 "/>
<path d="M232.6749 -7.9060 L233.2357 -7.9060 "/>
<path d="M233.2357 -7.9060 L234.0768 -8.1864 "/>
<path d="M234.0768 -8.1864 L234.3572 -8.4667 "/>
<path d="M234.3572 -8.4667 L234.3572 -10.4294 "/>
<path d="M234.3572 -10.4294 L233.2357 -10.4294 "/>
<path d="M239.9647 -7.9060 L236.6002 -7.9060 "/>
<path d="M238.2825 -7.9060 L238.2825 -13.7939 "/>
<path d="M238.2825 -13.7939 L237.7217 -12.9528 "/>
<path d="M237.7217 -12.9528 L237.1610 -12.3920 "/>
<path d="M237.1610 -12.3920 L236.6002 -12.1117 "/>
<path d="M245.2919 -13.7939 L242.4882 -13.7939 "/>
<path d="M242.4882 -13.7939 L242.2078 -10.9901 "/>
<path d="M242.2078 -10.9901 L242.4882 -11.2705 "/>
<path d="M242.4882 -11.2705 L243.0489 -11.5509 "/>
<path d="M243.0489 -11.5509 L244.4508 -11.5509 "/>
<path d="M244.4508 -11.5509 L245.0116 -11.2705 "/>
<path d="M245.0116 -11.2705 L245.2919 -10.9901 "/>
<path d="M245.2919 -10.9901 L245.5723 -10.4294 "/>
<path d="M245.5723 -10.4294 L245.5723 -9.0275 "/>
<path d="M245.5723 -9.0275 L245.2919 -8.4667 "/>
<path d="M245.2919 -8.4667 L245.0116 -8.1864 "/>
<path d="M245.0116 -8.1864 L244.4508 -7.9060 "/>
<path d="M244.4508 -7.9060 L243.0489 -7.9060 "/>
<path d="M243.0489 -7.9060 L242.4882 -8.1864 "/>
<path d="M242.4882 -8.1864 L242.2078 -8.4667 "/>
<path d="M247.5350 -13.7939 L251.4603 -13.7939 "/>
<path d="M251.4603 -13.7939 L248.9369 -7.9060 "/>
</g></g>
<g style="fill:none;  stroke:#848484; stroke-width:0.4416; stroke-opacity:1;  stroke-linecap:round; stroke-linejoin:round;">
<g transform="rotate(-90.000000 224.6841 -22.3598)">
<text x="224.6841" y="-20.8878" textLength="6.6239" font-size="3.9253" lengthAdjust="spacingAndGlyphs" text-anchor="middle" opacity="0" stroke-opacity="0">U2</text>
</g>
<g class="stroked-text"><desc>U2</desc>
<path d="M223.0791 -20.1168 L225.4623 -20.1168 "/>
<path d="M225.4623 -20.1168 L225.7427 -20.2570 "/>
<path d="M225.7427 -20.2570 L225.8829 -20.3972 "/>
<path d="M225.8829 -20.3972 L226.0231 -20.6776 "/>
<path d="M226.0231 -20.6776 L226.0231 -21.2383 "/>
<path d="M226.0231 -21.2383 L225.8829 -21.5187 "/>
<path d="M225.8829 -21.5187 L225.7427 -21.6589 "/>
<path d="M225.7427 -21.6589 L225.4623 -21.7991 "/>
<path d="M225.4623 -21.7991 L223.0791 -21.7991 "/>
<path d="M223.3595 -23.0608 L223.2193 -23.2010 "/>
<path d="M223.2193 -23.2010 L223.0791 -23.4814 "/>
<path d="M223.0791 -23.4814 L223.0791 -24.1823 "/>
<path d="M223.0791 -24.1823 L223.2193 -24.4627 "/>
<path d="M223.2193 -24.4627 L223.3595 -24.6029 "/>
<path d="M223.3595 -24.6029 L223.6399 -24.7431 "/>
<path d="M223.6399 -24.7431 L223.9202 -24.7431 "/>
<path d="M223.9202 -24.7431 L224.3408 -24.6029 "/>
<path d="M224.3408 -24.6029 L226.0231 -22.9206 "/>
<path d="M226.0231 -22.9206 L226.0231 -24.7431 "/>
</g></g>
<g style="fill:none;  stroke:#848484; stroke-width:0.8832; stroke-opacity:1;  stroke-linecap:round; stroke-linejoin:round;">
<text x="249.0014" y="-14.9410" textLength="28.6687" font-size="7.8506" lengthAdjust="spacingAndGlyphs" text-anchor="middle" opacity="0" stroke-opacity="0">100nF</text>
<g class="stroked-text"><desc>100nF</desc>
<path d="M239.8890 -15.2070 L236.5245 -15.2070 "/>
<path d="M238.2068 -15.2070 L238.2068 -21.0950 "/>
<path d="M238.2068 -21.0950 L237.6460 -20.2539 "/>
<path d="M237.6460 -20.2539 L237.0853 -19.6931 "/>
<path d="M237.0853 -19.6931 L236.5245 -19.4127 "/>
<path d="M243.5340 -21.0950 L244.0947 -21.0950 "/>
<path d="M244.0947 -21.0950 L244.6555 -20.8146 "/>
<path d="M244.6555 -20.8146 L244.9359 -20.5342 "/>
<path d="M244.9359 -20.5342 L245.2162 -19.9735 "/>
<path d="M245.2162 -19.9735 L245.4966 -18.8520 "/>
<path d="M245.4966 -18.8520 L245.4966 -17.4501 "/>
<path d="M245.4966 -17.4501 L245.2162 -16.3286 "/>
<path d="M245.2162 -16.3286 L244.9359 -15.7678 "/>
<path d="M244.9359 -15.7678 L244.6555 -15.4874 "/>
<path d="M244.6555 -15.4874 L244.0947 -15.2070 "/>
<path d="M244.0947 -15.2070 L243.5340 -15.2070 "/>
<path d="M243.5340 -15.2070 L242.9732 -15.4874 "/>
<path d="M242.9732 -15.4874 L242.6928 -15.7678 "/>
<path d="M242.6928 -15.7678 L242.4125 -16.3286 "/>
<path d="M242.4125 -16.3286 L242.1321 -17.4501 "/>
<path d="M242.1321 -17.4501 L242.1321 -18.8520 "/>
<path d="M242.1321 -18.8520 L242.4125 -19.9735 "/>
<path d="M242.4125 -19.9735 L242.6928 -20.5342 "/>
<path d="M242.6928 -20.5342 L242.9732 -20.8146 "/>
<path d="M242.9732 -20.8146 L243.5340 -21.0950 "/>
<path d="M249.1415 -21.0950 L249.7023 -21.0950 "/>
<path d="M249.7023 -21.0950 L250.2631 -20.8146 "/>
<path d="M250.2631 -20.8146 L250.5434 -20.5342 "/>
<path d="M250.5434 -20.5342 L250.8238 -19.9735 "/>
<path d="M250.8238 -19.9735 L251.1042 -18.8520 "/>
<path d="M251.1042 -18.8520 L251.1042 -17.4501 "/>
<path d="M251.1042 -17.4501 L250.8238 -16.3286 "/>
<path d="M250.8238 -16.3286 L250.5434 -15.7678 "/>
<path d="M250.5434 -15.7678 L250.2631 -15.4874 "/>
<path d="M250.2631 -15.4874 L249.7023 -15.2070 "/>
<path d="M249.7023 -15.2070 L249.1415 -15.2070 "/>
<path d="M249.1415 -15.2070 L248.5808 -15.4874 "/>
<path d="M248.5808 -15.4874 L248.3004 -15.7678 "/>
<path d="M248.3004 -15.7678 L248.0200 -16.3286 "/>
<path d="M248.0200 -16.3286 L247.7396 -17.4501 "/>
<path d="M247.7396 -17.4501 L247.7396 -18.8520 "/>
<path d="M247.7396 -18.8520 L248.0200 -19.9735 "/>
<path d="M248.0200 -19.9735 L248.3004 -20.5342 "/>
<path d="M248.3004 -20.5342 L248.5808 -20.8146 "/>
<path d="M248.5808 -20.8146 L249.1415 -21.0950 "/>
<path d="M253.6276 -19.1323 L253.6276 -15.2070 "/>
<path d="M253.6276 -18.5716 L253.9080 -18.8520 "/>
<path d="M253.9080 -18.8520 L254.4687 -19.1323 "/>
<path d="M254.4687 -19.1323 L255.3099 -19.1323 "/>
<path d="M255.3099 -19.1323 L255.8706 -18.8520 "/>
<path d="M255.8706 -18.8520 L256.1510 -18.2912 "/>
<path d="M256.1510 -18.2912 L256.1510 -15.2070 "/>
<path d="M260.9174 -18.2912 L258.9548 -18.2912 "/>
<path d="M258.9548 -15.2070 L258.9548 -21.0950 "/>
<path d="M258.9548 -21.0950 L261.7586 -21.0950 "/>
</g></g>
<g style="fill:none;  stroke:#848484; stroke-width:0.3533; stroke-opacity:1;  stroke-linecap:round; stroke-linejoin:round;">
<text x="249.0014" y="-25.1272" textLength="5.1870" font-size="3.1402" lengthAdjust="spacingAndGlyphs" text-anchor="middle" opacity="0" stroke-opacity="0">C9</text>
<g class="stroked-text"><desc>C9</desc>
<path d="M248.6088 -25.4579 L248.4967 -25.3457 "/>
<path d="M248.4967 -25.3457 L248.1602 -25.2336 "/>
<path d="M248.1602 -25.2336 L247.9359 -25.2336 "/>
<path d="M247.9359 -25.2336 L247.5995 -25.3457 "/>
<path d="M247.5995 -25.3457 L247.3752 -25.5700 "/>
<path d="M247.3752 -25.5700 L247.2630 -25.7943 "/>
<path d="M247.2630 -25.7943 L247.1509 -26.2429 "/>
<path d="M247.1509 -26.2429 L247.1509 -26.5794 "/>
<path d="M247.1509 -26.5794 L247.2630 -27.0280 "/>
<path d="M247.2630 -27.0280 L247.3752 -27.2523 "/>
<path d="M247.3752 -27.2523 L247.5995 -27.4766 "/>
<path d="M247.5995 -27.4766 L247.9359 -27.5888 "/>
<path d="M247.9359 -27.5888 L248.1602 -27.5888 "/>
<path d="M248.1602 -27.5888 L248.4967 -27.4766 "/>
<path d="M248.4967 -27.4766 L248.6088 -27.3645 "/>
<path d="M249.7303 -25.2336 L250.1789 -25.2336 "/>
<path d="M250.1789 -25.2336 L250.4032 -25.3457 "/>
<path d="M250.4032 -25.3457 L250.5154 -25.4579 "/>
<path d="M250.5154 -25.4579 L250.7397 -25.7943 "/>
<path d="M250.7397 -25.7943 L250.8518 -26.2429 "/>
<path d="M250.8518 -26.2429 L250.8518 -27.1402 "/>
<path d="M250.8518 -27.1402 L250.7397 -27.3645 "/>
<path d="M250.7397 -27.3645 L250.6275 -27.4766 "/>
<path d="M250.6275 -27.4766 L250.4032 -27.5888 "/>
<path d="M250.4032 -27.5888 L249.9546 -27.5888 "/>
<path d="M249.9546 -27.5888 L249.7303 -27.4766 "/>
<path d="M249.7303 -27.4766 L249.6182 -27.3645 "/>
<path d="M249.6182 -27.3645 L249.5060 -27.1402 "/>
<path d="M249.5060 -27.1402 L249.5060 -26.5794 "/>
<path d="M249.5060 -26.5794 L249.6182 -26.3551 "/>
<path d="M249.6182 -26.3551 L249.7303 -26.2429 "/>
<path d="M249.7303 -26.2429 L249.9546 -26.1308 "/>
<path d="M249.9546 -26.1308 L250.4032 -26.1308 "/>
<path d="M250.4032 -26.1308 L250.6275 -26.2429 "/>
<path d="M250.6275 -26.2429 L250.7397 -26.3551 "/>
<path d="M250.7397 -26.3551 L250.8518 -26.5794 "/>
</g></g>
<g style="fill:none;  stroke:#848484; stroke-width:0.8832; stroke-opacity:1;  stroke-linecap:round; stroke-linejoin:round;">
<text x="420.7961" y="35.6730" transform="scale(-1 1) translate(-841.592217 0)" textLength="7.3599" font-size="7.8506" lengthAdjust="spacingAndGlyphs" text-anchor="middle" opacity="0" stroke-opacity="0">K</text>
<g class="stroked-text"><desc>K</desc>
<path d="M422.3382 35.4070 L422.3382 29.5190 "/>
<path d="M418.9736 35.4070 L421.4971 32.0424 "/>
<path d="M418.9736 29.5190 L422.3382 32.8836 "/>
</g><text x="420.7961" y="56.5752" transform="scale(-1 1) translate(-841.592217 0)" textLength="7.3599" font-size="7.8506" lengthAdjust="spacingAndGlyphs" text-anchor="middle" opacity="0" stroke-opacity="0">K</text>
<g class="stroked-text"><desc>K</desc>
<path d="M422.3382 56.3092 L422.3382 50.4212 "/>
<path d="M418.9736 56.3092 L421.4971 52.9446 "/>
<path d="M418.9736 50.4212 L422.3382 53.7858 "/>
</g><text x="420.7961" y="77.4774" transform="scale(-1 1) translate(-841.592217 0)" textLength="7.3599" font-size="7.8506" lengthAdjust="spacingAndGlyphs" text-anchor="middle" opacity="0" stroke-opacity="0">K</text>
<g class="stroked-text"><desc>K</desc>
<path d="M422.3382 77.2114 L422.3382 71.3235 "/>
<path d="M418.9736 77.2114 L421.4971 73.8469 "/>
<path d="M418.9736 71.3235 L422.3382 74.6880 "/>
</g></g>
<g style="fill:none;  stroke:#848484; stroke-width:0.5888; stroke-opacity:1;  stroke-linecap:round; stroke-linejoin:round;">
<path d="M233.6102 83.6598 L233.6102 126.3474 "/>
<path d="M237.0135 105.0036 L234.0695 102.0596 "/>
<path d="M237.0135 105.0036 L234.0695 107.9476 "/>
<path d="M291.3122 83.6598 L233.6102 83.6598 "/>
<path d="M291.3122 126.3474 L233.6102 126.3474 "/>
<path d="M291.3122 126.3474 L291.3122 83.6598 "/>
<path d="M103.3358 -53.0996 L103.3358 -124.0494 "/>
<path d="M103.3358 -53.0996 L221.3892 -53.0996 "/>
<path d="M107.1630 -127.8766 L221.3892 -127.8766 "/>
<path d="M109.2238 -58.9876 L109.2238 -119.9279 "/>
<path d="M109.2238 -58.9876 L217.2677 -58.9876 "/>
<path d="M111.2845 -121.9887 L217.2677 -121.9887 "/>
<path d="M219.3284 -61.0484 L219.3284 -119.9279 "/>
<path d="M225.2164 -124.0494 L225.2164 -56.9268 "/>
<path d="M107.1630 -127.8766 A3.8272 3.8272 0.0 0 0 103.3358 -124.0494"/>
<path d="M111.2845 -121.9887 A2.0608 2.0608 0.0 0 0 109.2238 -119.9279"/>
<path d="M219.3284 -119.9279 A2.0608 2.0608 0.0 0 0 217.2677 -121.9887"/>
<path d="M217.2677 -58.9876 A2.0608 2.0608 0.0 0 0 219.3284 -61.0484"/>
<path d="M225.2164 -124.0494 A3.8272 3.8272 0.0 0 0 221.3892 -127.8766"/>
<path d="M221.3892 -53.0996 A3.8272 3.8272 0.0 0 0 225.2164 -56.9268"/>
<path d="M236.8745 -127.4792 L246.2952 -127.4792 "/>
<path d="M236.8745 -122.6216 L236.8745 -127.4792 "/>
<path d="M246.2952 -127.4792 L246.2952 -122.6216 "/>
<path d="M246.2952 -122.6216 L236.8745 -122.6216 "/>
<path d="M220.7097 -25.8926 L220.7097 -15.8831 "/>
<path d="M223.6537 -28.8366 L220.7097 -25.8926 "/>
<path d="M228.6585 -28.8366 L223.6537 -28.8366 "/>
<path d="M228.6585 -28.8366 L228.6585 -15.8831 "/>
<path d="M228.6585 -15.8831 L220.7097 -15.8831 "/>
<path d="M244.2910 -28.6599 L253.7117 -28.6599 "/>
<path d="M244.2910 -23.9496 L244.2910 -28.6599 "/>
<path d="M253.7117 -28.6599 L253.7117 -23.9496 "/>
<path d="M253.7117 -23.9496 L244.2910 -23.9496 "/>
</g> 
<svg:g><svg:g><svg:title>SVG Image created as TFLORA01-Edge_Cuts.svg date 2024/10/16 20:04:14 </svg:title>
  <svg:desc>Image generated by PCBNEW </svg:desc>
<svg:g style="fill:#C2C200; fill-opacity:1.0000;stroke:#C2C200; stroke-opacity:1.0000; stroke-linecap:round; stroke-linejoin:round;" transform="translate(0 0) scale(1 1)">
</svg:g>
<svg:g style="fill:none;  stroke:#C2C200; stroke-width:0.8832; stroke-opacity:1;  stroke-linecap:round; stroke-linejoin:round;">
<svg:path d="M0.4427 16.7668 L0.4427 193.2404 "/>
<svg:path d="M0.4427 16.7668 L296.5595 16.7668 "/>
<svg:path d="M296.5595 193.2404 L0.4427 193.2404 "/>
<svg:path d="M296.5595 193.2404 L296.5595 16.7668 "/>
</svg:g>
<svg:g style="fill:none;  stroke:#C2C200; stroke-width:0.5888; stroke-opacity:1;  stroke-linecap:round; stroke-linejoin:round;">
<svg:path d="M253.3349 90.4309 L253.3349 119.5763 "/>
<svg:path d="M253.3349 119.5763 L291.3122 119.5763 "/>
<svg:path d="M291.3122 90.4309 L253.3349 90.4309 "/>
<svg:path d="M408.7376 97.1326 L408.7376 126.2779 "/>
<svg:path d="M408.7376 126.2779 L446.7149 126.2779 "/>
<svg:path d="M446.7149 97.1326 L408.7376 97.1326 "/>
</svg:g>
<svg:g style="fill:none;  stroke:#C2C200; stroke-width:0.2944; stroke-opacity:1;  stroke-linecap:round; stroke-linejoin:round;">
<svg:path d="M426.2837 28.3083 L426.2837 36.5515 "/>
<svg:path d="M428.0501 38.3179 L437.4708 38.3179 "/>
<svg:path d="M437.4708 26.5420 L428.0501 26.5420 "/>
<svg:path d="M439.2372 36.5515 L439.2372 28.3083 "/>
<svg:path d="M428.0501 26.5420 A1.7664 1.7664 0.0 0 0 426.2837 28.3083"/>
<svg:path d="M426.2837 36.5515 A1.7664 1.7664 0.0 0 0 428.0501 38.3179"/>
<svg:path d="M439.2372 28.3083 A1.7664 1.7664 0.0 0 0 437.4708 26.5420"/>
<svg:path d="M437.4708 38.3179 A1.7664 1.7664 0.0 0 0 439.2372 36.5515"/>
<svg:path d="M426.2837 49.2106 L426.2837 57.4537 "/>
<svg:path d="M428.0501 59.2201 L437.4708 59.2201 "/>
<svg:path d="M437.4708 47.4442 L428.0501 47.4442 "/>
<svg:path d="M439.2372 57.4537 L439.2372 49.2106 "/>
<svg:path d="M428.0501 47.4442 A1.7664 1.7664 0.0 0 0 426.2837 49.2106"/>
<svg:path d="M426.2837 57.4537 A1.7664 1.7664 0.0 0 0 428.0501 59.2201"/>
<svg:path d="M439.2372 49.2106 A1.7664 1.7664 0.0 0 0 437.4708 47.4442"/>
<svg:path d="M437.4708 59.2201 A1.7664 1.7664 0.0 0 0 439.2372 57.4537"/>
<svg:path d="M426.2837 70.1128 L426.2837 78.3559 "/>
<svg:path d="M428.0501 80.1223 L437.4708 80.1223 "/>
<svg:path d="M437.4708 68.3464 L428.0501 68.3464 "/>
<svg:path d="M439.2372 78.3559 L439.2372 70.1128 "/>
<svg:path d="M428.0501 68.3464 A1.7664 1.7664 0.0 0 0 426.2837 70.1128"/>
<svg:path d="M426.2837 78.3559 A1.7664 1.7664 0.0 0 0 428.0501 80.1223"/>
<svg:path d="M439.2372 70.1128 A1.7664 1.7664 0.0 0 0 437.4708 68.3464"/>
<svg:path d="M437.4708 80.1223 A1.7664 1.7664 0.0 0 0 439.2372 78.3559"/>
</svg:g> 
</svg:g></svg:g></svg>
