M48
; DRILL file {KiCad 8.0.4+1} date 2024-10-16T22:26:19+0000
; FORMAT={3:3/ absolute / metric / suppress leading zeros}
; #@! TF.CreationDate,2024-10-16T22:26:19+00:00
; #@! TF.GenerationSoftware,Kicad,Pcbnew,8.0.4+1
; #@! TF.FileFunction,Plated,1,2,PTH
FMAT,2
METRIC,TZ
; #@! TA.AperFunction,Plated,PTH,ComponentDrill
T1C0.200
; #@! TA.AperFunction,Plated,PTH,ViaDrill
T2C0.300
; #@! TA.AperFunction,Plated,PTH,ComponentDrill
T3C1.500
; #@! TA.AperFunction,Plated,PTH,ComponentDrill
T4C1.700
%
G90
G05
T1
X148808Y-116596
X148808Y-117646
X148808Y-118696
X149858Y-116596
X149858Y-117646
X149858Y-118696
X150908Y-116596
X150908Y-117646
X150908Y-118696
T2
X135890Y-116840
X135890Y-118110
X135890Y-119380
X135890Y-120650
X136271Y-107315
X136652Y-122174
X136652Y-124460
X139446Y-113919
X141859Y-107569
X141986Y-124020
X142197Y-112578
X143383Y-107442
X143458Y-114046
X143510Y-100330
X143637Y-121920
X144110Y-113003
X144780Y-100330
X144974Y-114046
X145161Y-122301
X146050Y-100330
X146050Y-121920
X146058Y-118946
X146678Y-109527
X146824Y-114355
X146858Y-117146
X147320Y-100330
X147320Y-121920
X147828Y-109093
X147902Y-121146
X148027Y-113655
X148261Y-111629
X148590Y-100330
X148590Y-105664
X148717Y-110109
X148908Y-121146
X149632Y-113905
X149860Y-100330
X150114Y-122809
X150505Y-112757
X150622Y-109982
X150858Y-121146
X151130Y-100330
X151130Y-111760
X151229Y-114459
X151333Y-113487
X151858Y-121146
X152400Y-100330
X152480Y-112181
X153035Y-115570
X153158Y-121746
X153543Y-112181
X153670Y-100330
X153797Y-109982
X153797Y-123952
X154305Y-128270
X154940Y-100330
X154940Y-118346
X155299Y-112833
X155299Y-113849
X155321Y-109220
X155575Y-128270
X155858Y-118346
X156210Y-100330
X156224Y-114808
X156815Y-107628
X156845Y-113284
X156845Y-128270
X157357Y-118342
X157480Y-100330
X157480Y-122809
X158085Y-107628
X158115Y-128270
X158496Y-112776
X158623Y-122809
X158750Y-100330
X159058Y-118346
X159385Y-128270
X159396Y-114076
X159736Y-105977
X159736Y-107628
X159766Y-122809
X159996Y-113376
X160020Y-100330
X160625Y-106358
X160655Y-128270
X160658Y-118346
X160696Y-114076
X160879Y-107628
X161036Y-122809
X161036Y-124460
X161290Y-100330
X161544Y-109490
X161798Y-113919
X161925Y-128270
X162022Y-107628
X162258Y-118346
X162433Y-105918
X162560Y-100330
X162560Y-124460
X162814Y-111633
X162941Y-115697
X163038Y-107628
X163195Y-128270
X163703Y-114935
X163830Y-100330
X163830Y-111633
X163830Y-112649
X163830Y-113665
X163858Y-118346
X164181Y-107628
X164211Y-121666
X164211Y-122809
X164338Y-124460
X164465Y-128270
X164846Y-111633
X164846Y-117983
X165100Y-100330
X165227Y-121158
X165735Y-128270
X165989Y-111633
X166116Y-113919
X166370Y-100330
X166497Y-121158
X167005Y-115443
X167005Y-128270
X167132Y-116967
X167132Y-122428
X167640Y-100330
X167767Y-114300
X167894Y-111633
X168148Y-116967
X168275Y-128270
X168402Y-122428
X168910Y-100330
X168910Y-111633
X169164Y-116967
X169418Y-117983
X169545Y-119126
X169545Y-120904
X169545Y-122428
X169545Y-128270
X170053Y-111633
X170180Y-100330
X170307Y-114300
X170561Y-116967
X170815Y-128270
X171069Y-111633
X171323Y-114300
X171450Y-100330
X171704Y-116967
X172085Y-128270
X172212Y-111506
X172341Y-123571
X172720Y-100330
X172847Y-116967
X173101Y-111506
X173355Y-128270
X173841Y-123129
X173990Y-100330
X173990Y-111506
X173990Y-118110
X173990Y-119380
X174117Y-114935
X174117Y-116967
X174498Y-112268
X174625Y-120015
X174625Y-128270
X175006Y-115062
X175006Y-123190
X175260Y-100330
X175895Y-120015
X175895Y-128270
X176022Y-123952
X176530Y-100330
X176530Y-108585
X177165Y-124714
X177165Y-126111
X177165Y-128270
X177800Y-100330
X177800Y-108585
X177800Y-120015
X179070Y-110490
X179070Y-120015
X179705Y-118745
X180975Y-108585
X181610Y-120015
X182245Y-108585
X183515Y-120015
X184150Y-106680
X184150Y-107950
X184150Y-109220
X184150Y-110490
X184150Y-111760
X184150Y-113030
X184150Y-114300
X184150Y-115570
X184150Y-116840
X184150Y-118110
X184150Y-119380
X184150Y-120650
T3
X179324Y-114300
T4
X176784Y-111760
X176784Y-116840
X181864Y-111760
X181864Y-116840
M30
