%TF.GenerationSoftware,KiCad,Pcbnew,8.0.4+1*%
%TF.CreationDate,2024-10-18T09:57:00+00:00*%
%TF.ProjectId,TFLORA01,54464c4f-5241-4303-912e-6b696361645f,rev?*%
%TF.SameCoordinates,Original*%
%TF.FileFunction,Copper,L2,Bot*%
%TF.FilePolarity,Positive*%
%FSLAX46Y46*%
G04 Gerber Fmt 4.6, Leading zero omitted, Abs format (unit mm)*
G04 Created by KiCad (PCBNEW 8.0.4+1) date 2024-10-18 09:57:00*
%MOMM*%
%LPD*%
G01*
G04 APERTURE LIST*
G04 Aperture macros list*
%AMRoundRect*
0 Rectangle with rounded corners*
0 $1 Rounding radius*
0 $2 $3 $4 $5 $6 $7 $8 $9 X,Y pos of 4 corners*
0 Add a 4 corners polygon primitive as box body*
4,1,4,$2,$3,$4,$5,$6,$7,$8,$9,$2,$3,0*
0 Add four circle primitives for the rounded corners*
1,1,$1+$1,$2,$3*
1,1,$1+$1,$4,$5*
1,1,$1+$1,$6,$7*
1,1,$1+$1,$8,$9*
0 Add four rect primitives between the rounded corners*
20,1,$1+$1,$2,$3,$4,$5,0*
20,1,$1+$1,$4,$5,$6,$7,0*
20,1,$1+$1,$6,$7,$8,$9,0*
20,1,$1+$1,$8,$9,$2,$3,0*%
%AMFreePoly0*
4,1,19,0.500000,-0.750000,0.000000,-0.750000,0.000000,-0.744911,-0.071157,-0.744911,-0.207708,-0.704816,-0.327430,-0.627875,-0.420627,-0.520320,-0.479746,-0.390866,-0.500000,-0.250000,-0.500000,0.250000,-0.479746,0.390866,-0.420627,0.520320,-0.327430,0.627875,-0.207708,0.704816,-0.071157,0.744911,0.000000,0.744911,0.000000,0.750000,0.500000,0.750000,0.500000,-0.750000,0.500000,-0.750000,
$1*%
%AMFreePoly1*
4,1,19,0.000000,0.744911,0.071157,0.744911,0.207708,0.704816,0.327430,0.627875,0.420627,0.520320,0.479746,0.390866,0.500000,0.250000,0.500000,-0.250000,0.479746,-0.390866,0.420627,-0.520320,0.327430,-0.627875,0.207708,-0.704816,0.071157,-0.744911,0.000000,-0.744911,0.000000,-0.750000,-0.500000,-0.750000,-0.500000,0.750000,0.000000,0.750000,0.000000,0.744911,0.000000,0.744911,
$1*%
G04 Aperture macros list end*
%TA.AperFunction,SMDPad,CuDef*%
%ADD10RoundRect,0.225000X0.250000X-0.225000X0.250000X0.225000X-0.250000X0.225000X-0.250000X-0.225000X0*%
%TD*%
%TA.AperFunction,SMDPad,CuDef*%
%ADD11RoundRect,0.225000X-0.225000X-0.250000X0.225000X-0.250000X0.225000X0.250000X-0.225000X0.250000X0*%
%TD*%
%TA.AperFunction,SMDPad,CuDef*%
%ADD12RoundRect,0.225000X0.225000X0.250000X-0.225000X0.250000X-0.225000X-0.250000X0.225000X-0.250000X0*%
%TD*%
%TA.AperFunction,SMDPad,CuDef*%
%ADD13RoundRect,0.225000X0.017678X-0.335876X0.335876X-0.017678X-0.017678X0.335876X-0.335876X0.017678X0*%
%TD*%
%TA.AperFunction,SMDPad,CuDef*%
%ADD14RoundRect,0.062500X0.062500X-0.350000X0.062500X0.350000X-0.062500X0.350000X-0.062500X-0.350000X0*%
%TD*%
%TA.AperFunction,SMDPad,CuDef*%
%ADD15RoundRect,0.062500X0.350000X-0.062500X0.350000X0.062500X-0.350000X0.062500X-0.350000X-0.062500X0*%
%TD*%
%TA.AperFunction,HeatsinkPad*%
%ADD16C,0.500000*%
%TD*%
%TA.AperFunction,HeatsinkPad*%
%ADD17R,2.600000X2.600000*%
%TD*%
%TA.AperFunction,SMDPad,CuDef*%
%ADD18RoundRect,0.200000X-0.200000X-0.275000X0.200000X-0.275000X0.200000X0.275000X-0.200000X0.275000X0*%
%TD*%
%TA.AperFunction,SMDPad,CuDef*%
%ADD19RoundRect,0.218750X-0.256250X0.218750X-0.256250X-0.218750X0.256250X-0.218750X0.256250X0.218750X0*%
%TD*%
%TA.AperFunction,SMDPad,CuDef*%
%ADD20RoundRect,0.218750X-0.218750X-0.256250X0.218750X-0.256250X0.218750X0.256250X-0.218750X0.256250X0*%
%TD*%
%TA.AperFunction,SMDPad,CuDef*%
%ADD21RoundRect,0.218750X0.381250X-0.218750X0.381250X0.218750X-0.381250X0.218750X-0.381250X-0.218750X0*%
%TD*%
%TA.AperFunction,SMDPad,CuDef*%
%ADD22RoundRect,0.218750X0.256250X-0.218750X0.256250X0.218750X-0.256250X0.218750X-0.256250X-0.218750X0*%
%TD*%
%TA.AperFunction,SMDPad,CuDef*%
%ADD23RoundRect,0.225000X-0.250000X0.225000X-0.250000X-0.225000X0.250000X-0.225000X0.250000X0.225000X0*%
%TD*%
%TA.AperFunction,SMDPad,CuDef*%
%ADD24RoundRect,0.150000X-0.150000X0.512500X-0.150000X-0.512500X0.150000X-0.512500X0.150000X0.512500X0*%
%TD*%
%TA.AperFunction,SMDPad,CuDef*%
%ADD25RoundRect,0.250000X0.250000X0.475000X-0.250000X0.475000X-0.250000X-0.475000X0.250000X-0.475000X0*%
%TD*%
%TA.AperFunction,SMDPad,CuDef*%
%ADD26RoundRect,0.250000X-0.250000X-0.475000X0.250000X-0.475000X0.250000X0.475000X-0.250000X0.475000X0*%
%TD*%
%TA.AperFunction,ComponentPad*%
%ADD27C,2.500000*%
%TD*%
%TA.AperFunction,ComponentPad*%
%ADD28C,2.700000*%
%TD*%
%TA.AperFunction,SMDPad,CuDef*%
%ADD29RoundRect,0.166667X-0.458333X-0.583333X0.458333X-0.583333X0.458333X0.583333X-0.458333X0.583333X0*%
%TD*%
%TA.AperFunction,SMDPad,CuDef*%
%ADD30RoundRect,0.166667X0.458333X0.583333X-0.458333X0.583333X-0.458333X-0.583333X0.458333X-0.583333X0*%
%TD*%
%TA.AperFunction,SMDPad,CuDef*%
%ADD31RoundRect,0.200000X-0.275000X0.200000X-0.275000X-0.200000X0.275000X-0.200000X0.275000X0.200000X0*%
%TD*%
%TA.AperFunction,SMDPad,CuDef*%
%ADD32RoundRect,0.100000X-0.225000X-0.100000X0.225000X-0.100000X0.225000X0.100000X-0.225000X0.100000X0*%
%TD*%
%TA.AperFunction,SMDPad,CuDef*%
%ADD33RoundRect,0.150000X-0.150000X-0.200000X0.150000X-0.200000X0.150000X0.200000X-0.150000X0.200000X0*%
%TD*%
%TA.AperFunction,SMDPad,CuDef*%
%ADD34RoundRect,0.200000X0.335876X0.053033X0.053033X0.335876X-0.335876X-0.053033X-0.053033X-0.335876X0*%
%TD*%
%TA.AperFunction,SMDPad,CuDef*%
%ADD35RoundRect,0.100000X0.100000X-0.225000X0.100000X0.225000X-0.100000X0.225000X-0.100000X-0.225000X0*%
%TD*%
%TA.AperFunction,SMDPad,CuDef*%
%ADD36FreePoly0,180.000000*%
%TD*%
%TA.AperFunction,SMDPad,CuDef*%
%ADD37FreePoly1,180.000000*%
%TD*%
%TA.AperFunction,SMDPad,CuDef*%
%ADD38R,1.300000X1.100000*%
%TD*%
%TA.AperFunction,SMDPad,CuDef*%
%ADD39RoundRect,0.200000X0.275000X-0.200000X0.275000X0.200000X-0.275000X0.200000X-0.275000X-0.200000X0*%
%TD*%
%TA.AperFunction,SMDPad,CuDef*%
%ADD40RoundRect,0.150000X-0.150000X-0.700000X0.150000X-0.700000X0.150000X0.700000X-0.150000X0.700000X0*%
%TD*%
%TA.AperFunction,SMDPad,CuDef*%
%ADD41RoundRect,0.250000X-0.250000X-1.100000X0.250000X-1.100000X0.250000X1.100000X-0.250000X1.100000X0*%
%TD*%
%TA.AperFunction,ViaPad*%
%ADD42C,0.600000*%
%TD*%
%TA.AperFunction,Conductor*%
%ADD43C,0.250000*%
%TD*%
%TA.AperFunction,Conductor*%
%ADD44C,0.500000*%
%TD*%
%TA.AperFunction,Conductor*%
%ADD45C,0.400000*%
%TD*%
G04 APERTURE END LIST*
D10*
%TO.P,C17,1*%
%TO.N,GND*%
X176034400Y-118720200D03*
%TO.P,C17,2*%
%TO.N,Net-(C16-Pad1)*%
X176034400Y-117170200D03*
%TD*%
D11*
%TO.P,C22,1*%
%TO.N,Net-(U4-CTRL)*%
X170268600Y-114960400D03*
%TO.P,C22,2*%
%TO.N,GND*%
X171818600Y-114960400D03*
%TD*%
D10*
%TO.P,C20,1*%
%TO.N,Net-(U4-RF2)*%
X160655000Y-116878400D03*
%TO.P,C20,2*%
%TO.N,GND*%
X160655000Y-115328400D03*
%TD*%
D12*
%TO.P,C18,1*%
%TO.N,GND*%
X185089800Y-117157800D03*
%TO.P,C18,2*%
%TO.N,Net-(C18-Pad2)*%
X183539800Y-117157800D03*
%TD*%
D10*
%TO.P,C23,1*%
%TO.N,Net-(U3-VREG)*%
X145058000Y-120521000D03*
%TO.P,C23,2*%
%TO.N,GND*%
X145058000Y-118971000D03*
%TD*%
%TO.P,C5,1*%
%TO.N,+3V3*%
X143458000Y-116821000D03*
%TO.P,C5,2*%
%TO.N,GND*%
X143458000Y-115271000D03*
%TD*%
D13*
%TO.P,C11,1*%
%TO.N,Net-(C11-Pad1)*%
X148803992Y-122722008D03*
%TO.P,C11,2*%
%TO.N,Net-(U3-XTA)*%
X149900008Y-121625992D03*
%TD*%
D12*
%TO.P,C19,1*%
%TO.N,Net-(U4-RF2)*%
X159118600Y-116865400D03*
%TO.P,C19,2*%
%TO.N,Net-(U3-RFI_N)*%
X157568600Y-116865400D03*
%TD*%
D10*
%TO.P,C6,1*%
%TO.N,+3V3*%
X146253200Y-117081600D03*
%TO.P,C6,2*%
%TO.N,GND*%
X146253200Y-115531600D03*
%TD*%
D11*
%TO.P,C21,1*%
%TO.N,Net-(U3-RFI_P)*%
X157568600Y-115366800D03*
%TO.P,C21,2*%
%TO.N,GND*%
X159118600Y-115366800D03*
%TD*%
D14*
%TO.P,U3,1,VDD_IN*%
%TO.N,+3V3*%
X151108000Y-119583500D03*
%TO.P,U3,2,GND*%
%TO.N,GND*%
X150608000Y-119583500D03*
%TO.P,U3,3,XTA*%
%TO.N,Net-(U3-XTA)*%
X150108000Y-119583500D03*
%TO.P,U3,4,XTB*%
%TO.N,unconnected-(U3-XTB-Pad4)*%
X149608000Y-119583500D03*
%TO.P,U3,5,GND*%
%TO.N,GND*%
X149108000Y-119583500D03*
%TO.P,U3,6,DIO3*%
%TO.N,/DIO3*%
X148608000Y-119583500D03*
D15*
%TO.P,U3,7,VREG*%
%TO.N,Net-(U3-VREG)*%
X147920500Y-118896000D03*
%TO.P,U3,8,GND*%
%TO.N,GND*%
X147920500Y-118396000D03*
%TO.P,U3,9,DCC_SW*%
%TO.N,Net-(U3-DCC_SW)*%
X147920500Y-117896000D03*
%TO.P,U3,10,VBAT*%
%TO.N,+3V3*%
X147920500Y-117396000D03*
%TO.P,U3,11,VBAT_IO*%
X147920500Y-116896000D03*
%TO.P,U3,12,DIO2*%
%TO.N,/DIO2*%
X147920500Y-116396000D03*
D14*
%TO.P,U3,13,DIO1*%
%TO.N,/DIO1*%
X148608000Y-115708500D03*
%TO.P,U3,14,BUSY*%
%TO.N,/BUSY*%
X149108000Y-115708500D03*
%TO.P,U3,15,RESET*%
%TO.N,/#RESET*%
X149608000Y-115708500D03*
%TO.P,U3,16,MISO*%
%TO.N,/MISO*%
X150108000Y-115708500D03*
%TO.P,U3,17,MOSI*%
%TO.N,/MOSI*%
X150608000Y-115708500D03*
%TO.P,U3,18,SCK*%
%TO.N,/SCK*%
X151108000Y-115708500D03*
D15*
%TO.P,U3,19,~{CS}*%
%TO.N,/#CS*%
X151795500Y-116396000D03*
%TO.P,U3,20,GND*%
%TO.N,GND*%
X151795500Y-116896000D03*
%TO.P,U3,21,RFI_P*%
%TO.N,Net-(U3-RFI_P)*%
X151795500Y-117396000D03*
%TO.P,U3,22,RFI_N*%
%TO.N,Net-(U3-RFI_N)*%
X151795500Y-117896000D03*
%TO.P,U3,23,RFO*%
%TO.N,Net-(U3-RFO)*%
X151795500Y-118396000D03*
%TO.P,U3,24,VR_PA*%
%TO.N,Net-(U3-VR_PA)*%
X151795500Y-118896000D03*
D16*
%TO.P,U3,25,GND*%
%TO.N,GND*%
X148808000Y-118696000D03*
X149858000Y-118696000D03*
X150908000Y-118696000D03*
X148808000Y-117646000D03*
X149858000Y-117646000D03*
D17*
X149858000Y-117646000D03*
D16*
X150908000Y-117646000D03*
X148808000Y-116596000D03*
X149858000Y-116596000D03*
X150908000Y-116596000D03*
%TD*%
D18*
%TO.P,R7,1*%
%TO.N,+3V3*%
X144717000Y-110998000D03*
%TO.P,R7,2*%
%TO.N,/#RESET*%
X146367000Y-110998000D03*
%TD*%
D19*
%TO.P,L6,1,1*%
%TO.N,Net-(U3-RFI_P)*%
X155970000Y-115358500D03*
%TO.P,L6,2,2*%
%TO.N,Net-(U3-RFI_N)*%
X155970000Y-116933500D03*
%TD*%
D20*
%TO.P,L5,1,1*%
%TO.N,Net-(C16-Pad1)*%
X177482100Y-117183200D03*
%TO.P,L5,2,2*%
%TO.N,Net-(C18-Pad2)*%
X179057100Y-117183200D03*
%TD*%
D21*
%TO.P,L7,1*%
%TO.N,Net-(U3-VREG)*%
X143158000Y-120442500D03*
%TO.P,L7,2*%
%TO.N,Net-(U3-DCC_SW)*%
X143158000Y-118317500D03*
%TD*%
D22*
%TO.P,L1,1,1*%
%TO.N,Net-(U3-VR_PA)*%
X156464000Y-120929500D03*
%TO.P,L1,2,2*%
%TO.N,Net-(C10-Pad2)*%
X156464000Y-119354500D03*
%TD*%
D20*
%TO.P,L4,1,1*%
%TO.N,Net-(C12-Pad1)*%
X166776300Y-119405400D03*
%TO.P,L4,2,2*%
%TO.N,Net-(U4-RF1)*%
X168351300Y-119405400D03*
%TD*%
%TO.P,L3,1,1*%
%TO.N,Net-(C10-Pad2)*%
X159410300Y-120904000D03*
%TO.P,L3,2,2*%
%TO.N,Net-(C10-Pad1)*%
X160985300Y-120904000D03*
%TD*%
D12*
%TO.P,C10,1*%
%TO.N,Net-(C10-Pad1)*%
X160972800Y-119405400D03*
%TO.P,C10,2*%
%TO.N,Net-(C10-Pad2)*%
X159422800Y-119405400D03*
%TD*%
D23*
%TO.P,C15,1*%
%TO.N,Net-(U4-RF1)*%
X169773600Y-119367000D03*
%TO.P,C15,2*%
%TO.N,GND*%
X169773600Y-120917000D03*
%TD*%
D12*
%TO.P,C16,1*%
%TO.N,Net-(C16-Pad1)*%
X174574200Y-117183200D03*
%TO.P,C16,2*%
%TO.N,Net-(U4-RFC)*%
X173024200Y-117183200D03*
%TD*%
D23*
%TO.P,C14,1*%
%TO.N,Net-(C10-Pad1)*%
X162407600Y-119392400D03*
%TO.P,C14,2*%
%TO.N,GND*%
X162407600Y-120942400D03*
%TD*%
%TO.P,C13,1*%
%TO.N,Net-(C10-Pad2)*%
X157962600Y-119367000D03*
%TO.P,C13,2*%
%TO.N,GND*%
X157962600Y-120917000D03*
%TD*%
D12*
%TO.P,C12,1*%
%TO.N,Net-(C12-Pad1)*%
X165392400Y-119405400D03*
%TO.P,C12,2*%
%TO.N,Net-(C10-Pad1)*%
X163842400Y-119405400D03*
%TD*%
D23*
%TO.P,C8,1*%
%TO.N,Net-(U3-VR_PA)*%
X153416000Y-120764000D03*
%TO.P,C8,2*%
%TO.N,GND*%
X153416000Y-122314000D03*
%TD*%
%TO.P,C7,1*%
%TO.N,Net-(U3-VR_PA)*%
X154940000Y-120764000D03*
%TO.P,C7,2*%
%TO.N,GND*%
X154940000Y-122314000D03*
%TD*%
D20*
%TO.P,L2,1,1*%
%TO.N,Net-(U3-RFO)*%
X153441300Y-119253000D03*
%TO.P,L2,2,2*%
%TO.N,Net-(C10-Pad2)*%
X155016300Y-119253000D03*
%TD*%
D10*
%TO.P,C4,1*%
%TO.N,+5V*%
X141088000Y-115309000D03*
%TO.P,C4,2*%
%TO.N,GND*%
X141088000Y-113759000D03*
%TD*%
D24*
%TO.P,U1,1,VIN*%
%TO.N,+5V*%
X138938000Y-119596500D03*
%TO.P,U1,2,GND*%
%TO.N,GND*%
X139888000Y-119596500D03*
%TO.P,U1,3,EN*%
%TO.N,+5V*%
X140838000Y-119596500D03*
%TO.P,U1,4,NC*%
%TO.N,unconnected-(U1-NC-Pad4)*%
X140838000Y-121871500D03*
%TO.P,U1,5,VOUT*%
%TO.N,+3V3*%
X138938000Y-121871500D03*
%TD*%
D25*
%TO.P,C2,1*%
%TO.N,+3V3*%
X140577500Y-124020000D03*
%TO.P,C2,2*%
%TO.N,GND*%
X138677500Y-124020000D03*
%TD*%
D26*
%TO.P,C1,1*%
%TO.N,+5V*%
X138938000Y-117634000D03*
%TO.P,C1,2*%
%TO.N,GND*%
X140838000Y-117634000D03*
%TD*%
D25*
%TO.P,C3,1*%
%TO.N,+5V*%
X139434500Y-115384000D03*
%TO.P,C3,2*%
%TO.N,GND*%
X137534500Y-115384000D03*
%TD*%
D23*
%TO.P,C24,1*%
%TO.N,+3V3*%
X151892000Y-121018000D03*
%TO.P,C24,2*%
%TO.N,GND*%
X151892000Y-122568000D03*
%TD*%
D27*
%TO.P,J2,1*%
%TO.N,Net-(C18-Pad2)*%
X181317600Y-117157800D03*
D28*
%TO.P,J2,2*%
%TO.N,GND*%
X183857600Y-119697800D03*
X183857600Y-114617800D03*
X178777600Y-119697800D03*
X178777600Y-114617800D03*
%TD*%
D29*
%TO.P,D2,1,K*%
%TO.N,GND*%
X139170000Y-102870000D03*
D30*
%TO.P,D2,2,A*%
%TO.N,Net-(D2-A)*%
X142770000Y-102870000D03*
%TD*%
D31*
%TO.P,R3,1*%
%TO.N,Net-(J1-Pad3)*%
X150749000Y-106617000D03*
%TO.P,R3,2*%
%TO.N,/MISO*%
X150749000Y-108267000D03*
%TD*%
%TO.P,R5,1*%
%TO.N,Net-(J1-Pad5)*%
X153797000Y-106617000D03*
%TO.P,R5,2*%
%TO.N,/#CS*%
X153797000Y-108267000D03*
%TD*%
D29*
%TO.P,D3,1,K*%
%TO.N,GND*%
X139170000Y-106172000D03*
D30*
%TO.P,D3,2,A*%
%TO.N,Net-(D3-A)*%
X142770000Y-106172000D03*
%TD*%
D32*
%TO.P,U4,1,RF1*%
%TO.N,Net-(U4-RF1)*%
X169712600Y-117820200D03*
%TO.P,U4,2,GND*%
%TO.N,GND*%
X169712600Y-117170200D03*
%TO.P,U4,3,RF2*%
%TO.N,Net-(U4-RF2)*%
X169712600Y-116520200D03*
%TO.P,U4,4,CTRL*%
%TO.N,Net-(U4-CTRL)*%
X171612600Y-116520200D03*
%TO.P,U4,5,RFC*%
%TO.N,Net-(U4-RFC)*%
X171612600Y-117170200D03*
%TO.P,U4,6,#CTRL*%
%TO.N,+3V3*%
X171612600Y-117820200D03*
%TD*%
D31*
%TO.P,R1,1*%
%TO.N,Net-(J1-Pad2)*%
X149225000Y-106617000D03*
%TO.P,R1,2*%
%TO.N,/SCK*%
X149225000Y-108267000D03*
%TD*%
D33*
%TO.P,D1,1,K*%
%TO.N,+5V*%
X138740000Y-112539200D03*
%TO.P,D1,2,A*%
%TO.N,GND*%
X137340000Y-112539200D03*
%TD*%
D31*
%TO.P,R6,1*%
%TO.N,Net-(J1-Pad6)*%
X155321000Y-106617000D03*
%TO.P,R6,2*%
%TO.N,Net-(U2-Y)*%
X155321000Y-108267000D03*
%TD*%
D34*
%TO.P,R8,1*%
%TO.N,Net-(U5-OUT)*%
X148538363Y-124916363D03*
%TO.P,R8,2*%
%TO.N,Net-(C11-Pad1)*%
X147371637Y-123749637D03*
%TD*%
D35*
%TO.P,U2,1,I1*%
%TO.N,/DIO1*%
X150002000Y-112710000D03*
%TO.P,U2,2,GND*%
%TO.N,GND*%
X149352000Y-112710000D03*
%TO.P,U2,3,I0*%
%TO.N,/BUSY*%
X148702000Y-112710000D03*
%TO.P,U2,4,Y*%
%TO.N,Net-(U2-Y)*%
X148702000Y-110810000D03*
%TO.P,U2,5,Vcc*%
%TO.N,+3V3*%
X149352000Y-110810000D03*
%TO.P,U2,6,S*%
%TO.N,/#CS*%
X150002000Y-110810000D03*
%TD*%
D36*
%TO.P,JP1,1,A*%
%TO.N,/#RESET*%
X146192000Y-113157000D03*
D37*
%TO.P,JP1,2,B*%
%TO.N,GND*%
X144892000Y-113157000D03*
%TD*%
D38*
%TO.P,U5,1,GND*%
%TO.N,GND*%
X152738800Y-125970800D03*
%TO.P,U5,2,GND*%
X150638800Y-125970800D03*
%TO.P,U5,3,OUT*%
%TO.N,Net-(U5-OUT)*%
X150638800Y-124320800D03*
%TO.P,U5,4,VDD*%
%TO.N,+3V3*%
X152738800Y-124320800D03*
%TD*%
D39*
%TO.P,R9,1*%
%TO.N,Net-(U4-CTRL)*%
X168757600Y-114896400D03*
%TO.P,R9,2*%
%TO.N,/DIO2*%
X168757600Y-113246400D03*
%TD*%
D23*
%TO.P,C9,1*%
%TO.N,+3V3*%
X154686000Y-123812000D03*
%TO.P,C9,2*%
%TO.N,GND*%
X154686000Y-125362000D03*
%TD*%
D31*
%TO.P,R4,1*%
%TO.N,Net-(J1-Pad4)*%
X152273000Y-106617000D03*
%TO.P,R4,2*%
%TO.N,/MOSI*%
X152273000Y-108267000D03*
%TD*%
D29*
%TO.P,D4,1,K*%
%TO.N,GND*%
X139170000Y-109474000D03*
D30*
%TO.P,D4,2,A*%
%TO.N,Net-(D4-A)*%
X142770000Y-109474000D03*
%TD*%
D18*
%TO.P,R11,1*%
%TO.N,Net-(D4-A)*%
X144717000Y-109474000D03*
%TO.P,R11,2*%
%TO.N,/DIO3*%
X146367000Y-109474000D03*
%TD*%
%TO.P,R10,1*%
%TO.N,Net-(D3-A)*%
X144717000Y-107950000D03*
%TO.P,R10,2*%
%TO.N,/DIO2*%
X146367000Y-107950000D03*
%TD*%
D39*
%TO.P,R2,1*%
%TO.N,+5V*%
X144780000Y-105219000D03*
%TO.P,R2,2*%
%TO.N,Net-(D2-A)*%
X144780000Y-103569000D03*
%TD*%
D40*
%TO.P,J1,1*%
%TO.N,+5V*%
X148619200Y-104394000D03*
%TO.P,J1,2*%
%TO.N,Net-(J1-Pad2)*%
X149869200Y-104394000D03*
%TO.P,J1,3*%
%TO.N,Net-(J1-Pad3)*%
X151119200Y-104394000D03*
%TO.P,J1,4*%
%TO.N,Net-(J1-Pad4)*%
X152369200Y-104394000D03*
%TO.P,J1,5*%
%TO.N,Net-(J1-Pad5)*%
X153619200Y-104394000D03*
%TO.P,J1,6*%
%TO.N,Net-(J1-Pad6)*%
X154869200Y-104394000D03*
%TO.P,J1,7*%
%TO.N,GND*%
X156119200Y-104394000D03*
D41*
%TO.P,J1,MP*%
X146769200Y-101194000D03*
X157969200Y-101194000D03*
%TD*%
D42*
%TO.N,GND*%
X140995400Y-116662200D03*
X142494000Y-115417600D03*
X167563800Y-112217200D03*
X160696000Y-114076000D03*
X164769800Y-115366800D03*
X157073600Y-109677200D03*
X172694600Y-115824000D03*
X167943888Y-100330000D03*
X161747200Y-114350800D03*
X184759600Y-107035600D03*
X144932400Y-121996200D03*
X172567600Y-102590600D03*
X156815000Y-107628000D03*
X152730200Y-127304800D03*
X180289200Y-103225600D03*
X136398000Y-107473750D03*
X155752800Y-113030000D03*
X165201600Y-122732800D03*
X155422600Y-111887000D03*
X167081200Y-122631200D03*
X176199800Y-111658400D03*
X142265400Y-114147600D03*
X152943376Y-100330000D03*
X168427400Y-117856000D03*
X188188600Y-113076180D03*
X176885600Y-107772200D03*
X177520600Y-128270000D03*
X163652200Y-120802400D03*
X164193760Y-100330000D03*
X175869600Y-102463600D03*
X158140400Y-128270000D03*
X167513000Y-120929400D03*
X152603200Y-128270000D03*
X171170600Y-120065800D03*
X154818440Y-100330000D03*
X167284400Y-117830600D03*
X181069336Y-100330000D03*
X158568568Y-100330000D03*
X161848800Y-118059200D03*
X168376600Y-122605800D03*
X188722000Y-123069924D03*
X171694016Y-100330000D03*
X150368000Y-122936000D03*
X159232600Y-122402600D03*
X157708600Y-114020600D03*
X170307000Y-125069600D03*
X150858000Y-121146000D03*
X141528800Y-128270000D03*
X162687000Y-109626400D03*
X174752000Y-128270000D03*
X185877200Y-115824000D03*
X172897800Y-114731800D03*
X137942864Y-100330000D03*
X139817928Y-100330000D03*
X135890000Y-120796050D03*
X169214800Y-128270000D03*
X160443632Y-100330000D03*
X165379400Y-118008400D03*
X141692992Y-100330000D03*
X181406800Y-112750600D03*
X188696600Y-105580872D03*
X173710600Y-121666000D03*
X188569600Y-100584000D03*
X184819464Y-100330000D03*
X188620400Y-120571488D03*
X181483000Y-125095000D03*
X136652000Y-124126625D03*
X147066000Y-128270000D03*
X157581600Y-125069600D03*
X156693504Y-100330000D03*
X185826400Y-118465600D03*
X173837600Y-115900200D03*
X188772800Y-125568360D03*
X147318184Y-100330000D03*
X145872200Y-114782600D03*
X186309000Y-117144800D03*
X149504400Y-125755400D03*
X162052000Y-115417600D03*
X173569080Y-100330000D03*
X182944400Y-100330000D03*
X185064400Y-110845600D03*
X149108000Y-120700800D03*
X160401000Y-125907800D03*
X145443120Y-100330000D03*
X181330600Y-114173000D03*
X177319208Y-100330000D03*
X179755800Y-106578400D03*
X135890000Y-117465475D03*
X160909000Y-128270000D03*
X155930600Y-125399800D03*
X160625000Y-106358000D03*
X135890000Y-110804325D03*
X155194000Y-118110000D03*
X188620400Y-118338600D03*
X188772800Y-108079308D03*
X163677600Y-128270000D03*
X175361600Y-115951000D03*
X179194272Y-100330000D03*
X173532800Y-118618000D03*
X163626800Y-115366800D03*
X138760200Y-128270000D03*
X153238200Y-116078000D03*
X176047400Y-119938800D03*
X171983400Y-113665000D03*
X186579958Y-121725749D03*
X155371800Y-128270000D03*
X155168600Y-114173000D03*
X170205400Y-113334800D03*
X175444144Y-100330000D03*
X188595000Y-128066800D03*
X180289200Y-128270000D03*
X165633400Y-109626400D03*
X169818952Y-100330000D03*
X181305200Y-120065800D03*
X147193000Y-122224800D03*
X146058000Y-118946000D03*
X166068824Y-100330000D03*
X160909000Y-122377200D03*
X170891200Y-121056400D03*
X166090600Y-120802400D03*
X162318696Y-100330000D03*
X156083000Y-122377200D03*
X149193248Y-100330000D03*
X163703000Y-122707400D03*
X169748200Y-122174000D03*
X156768800Y-118160800D03*
X173761400Y-124739400D03*
X183997600Y-103860600D03*
X159396000Y-114076000D03*
X163245800Y-118084600D03*
X158216600Y-118186200D03*
X162022000Y-107628000D03*
X167436800Y-114122200D03*
X160350200Y-102743000D03*
X185826400Y-128270000D03*
X171983400Y-128270000D03*
X164617400Y-120777000D03*
X181305200Y-121691400D03*
X178282600Y-110820200D03*
X167944800Y-109626400D03*
X176784000Y-115900200D03*
X151130000Y-111760000D03*
X165684200Y-125857000D03*
X174853600Y-118795800D03*
X136271000Y-104143175D03*
X154660600Y-126492000D03*
X151068312Y-100330000D03*
X135991600Y-127457200D03*
X166446200Y-128270000D03*
X166395400Y-117932200D03*
X181711600Y-108737400D03*
X186694528Y-100330000D03*
X149834600Y-128270000D03*
X159258000Y-109677200D03*
X188671200Y-115574616D03*
X159969200Y-118160800D03*
X158085000Y-107628000D03*
X186258200Y-125501400D03*
X143568056Y-100330000D03*
X165836600Y-102209600D03*
X188442600Y-110577744D03*
X135890000Y-114134900D03*
X136067800Y-100812600D03*
X167386000Y-115366800D03*
X143256000Y-121945400D03*
X157886400Y-122351800D03*
X149352000Y-111760000D03*
X172694600Y-109677200D03*
X154203400Y-115138200D03*
X144297400Y-128270000D03*
X168681400Y-121031000D03*
X188366400Y-103082436D03*
X177165000Y-126111000D03*
X146177000Y-121793000D03*
X171272200Y-119049800D03*
X166141400Y-115366800D03*
X183057800Y-128270000D03*
X142290800Y-112776000D03*
%TO.N,+5V*%
X139446000Y-113919000D03*
X148590000Y-105664000D03*
%TO.N,+3V3*%
X141518949Y-123078549D03*
X149352000Y-109956600D03*
X144297400Y-116821000D03*
X144717000Y-110998000D03*
X151892000Y-121017992D03*
X153873200Y-124016000D03*
%TO.N,/MISO*%
X151332951Y-113486887D03*
X152707613Y-112757904D03*
%TO.N,/MOSI*%
X151194137Y-114423344D03*
X153746200Y-113258600D03*
%TO.N,/#CS*%
X154011240Y-109947652D03*
X150622000Y-109982000D03*
%TO.N,/#RESET*%
X146902800Y-114386705D03*
X149632221Y-113905385D03*
%TO.N,/DIO1*%
X148202000Y-113654896D03*
X150504847Y-112756924D03*
%TO.N,/DIO2*%
X147527000Y-110794800D03*
X168757600Y-111556800D03*
%TO.N,/DIO3*%
X146939001Y-110069754D03*
X147901519Y-120370596D03*
%TO.N,Net-(U2-Y)*%
X155321000Y-109220004D03*
X148742400Y-109245400D03*
%TD*%
D43*
%TO.N,GND*%
X150608000Y-119583500D02*
X150608000Y-118996000D01*
X149108000Y-118996000D02*
X148808000Y-118696000D01*
X147920500Y-118396000D02*
X148508000Y-118396000D01*
X148508000Y-118396000D02*
X148808000Y-118696000D01*
X149108000Y-119583500D02*
X149108000Y-118996000D01*
X151208000Y-116896000D02*
X150908000Y-116596000D01*
X150608000Y-118996000D02*
X150908000Y-118696000D01*
X151795500Y-116896000D02*
X151208000Y-116896000D01*
D44*
X139888000Y-118586500D02*
X140840500Y-117634000D01*
X139887999Y-119634000D02*
X139888000Y-118586500D01*
D45*
X169182124Y-117170200D02*
X170487600Y-117170200D01*
D43*
X144195800Y-114308800D02*
X144063962Y-114308800D01*
D45*
X168496324Y-117856000D02*
X169182124Y-117170200D01*
X149352000Y-111760000D02*
X149352000Y-112709999D01*
D43*
X144881600Y-121945400D02*
X144932400Y-121996200D01*
X144063962Y-114308800D02*
X144042000Y-114330762D01*
D45*
X170487600Y-117170200D02*
X170487600Y-118265200D01*
D43*
X146357999Y-118646001D02*
X146058000Y-118946000D01*
X145058000Y-118871000D02*
X145983000Y-118871000D01*
X145983000Y-118871000D02*
X146058000Y-118946000D01*
X146608000Y-118396000D02*
X146357999Y-118646001D01*
X150608000Y-119583500D02*
X150608000Y-120896000D01*
X143256000Y-121945400D02*
X144881600Y-121945400D01*
X147920500Y-118396000D02*
X146608000Y-118396000D01*
X149108000Y-119583500D02*
X149108000Y-120700800D01*
X150608000Y-120896000D02*
X150858000Y-121146000D01*
D45*
X168427400Y-117856000D02*
X168496324Y-117856000D01*
X170487600Y-118265200D02*
X171272200Y-119049800D01*
X149352000Y-111760000D02*
X151130000Y-111760000D01*
D44*
%TO.N,+5V*%
X138938000Y-119634000D02*
X138938000Y-117636500D01*
D43*
X145796000Y-105664000D02*
X148590000Y-105664000D01*
D44*
X139437000Y-117132500D02*
X138935500Y-117634000D01*
D43*
X144843000Y-105219000D02*
X145542000Y-105918000D01*
D44*
X148590000Y-105664000D02*
X148590000Y-104423200D01*
X141088000Y-115409000D02*
X139462000Y-115409000D01*
D43*
X140411200Y-120827800D02*
X140838000Y-120401000D01*
X139351800Y-120827800D02*
X140411200Y-120827800D01*
D44*
X139437000Y-113910000D02*
X139446000Y-113919000D01*
X139437000Y-115384000D02*
X139437000Y-113236200D01*
X139437000Y-115384000D02*
X139437000Y-117132500D01*
D43*
X138938000Y-119634000D02*
X138938000Y-120414000D01*
X145542000Y-105918000D02*
X145796000Y-105664000D01*
D44*
X139437000Y-113236200D02*
X139437000Y-113910000D01*
D43*
X138938000Y-120414000D02*
X139351800Y-120827800D01*
D44*
X139437000Y-113236200D02*
X138740000Y-112539200D01*
D43*
X140838000Y-120401000D02*
X140838000Y-119634000D01*
D44*
%TO.N,+3V3*%
X138938000Y-121834000D02*
X138938000Y-122380501D01*
D45*
X171612600Y-117820200D02*
X171737600Y-117820200D01*
X169710400Y-123812000D02*
X154686000Y-123812000D01*
D44*
X141986000Y-117856000D02*
X143021000Y-116821000D01*
X153043600Y-124016000D02*
X154482000Y-124016000D01*
D43*
X151892000Y-121018000D02*
X151892000Y-121005600D01*
D44*
X141518949Y-123078549D02*
X141986000Y-122611499D01*
D45*
X172415200Y-121107200D02*
X169710400Y-123812000D01*
D44*
X152738800Y-124320800D02*
X153043600Y-124016000D01*
D43*
X149352000Y-110810001D02*
X149352000Y-109956600D01*
D44*
X141986000Y-122611499D02*
X141986000Y-117856000D01*
X143021000Y-116821000D02*
X143458000Y-116821000D01*
D43*
X146253200Y-117081600D02*
X145992600Y-116821000D01*
X151892000Y-121018000D02*
X151892000Y-121017992D01*
D44*
X140577499Y-124020000D02*
X141518949Y-123078549D01*
D43*
X145992600Y-116821000D02*
X144297400Y-116821000D01*
X151108000Y-120221600D02*
X151108000Y-119583500D01*
X151892000Y-121005600D02*
X151108000Y-120221600D01*
X144297400Y-116821000D02*
X143458000Y-116821000D01*
D45*
X171737600Y-117820200D02*
X172415200Y-118497800D01*
X172415200Y-118497800D02*
X172415200Y-121107200D01*
D44*
X138938000Y-122380501D02*
X140577499Y-124020000D01*
D43*
%TO.N,Net-(C11-Pad1)*%
X147371637Y-123749637D02*
X147776363Y-123749637D01*
X147776363Y-123749637D02*
X148803992Y-122722008D01*
%TO.N,Net-(U3-VR_PA)*%
X151795500Y-118896000D02*
X151795500Y-119054900D01*
X152984200Y-120332200D02*
X153416000Y-120764000D01*
X153416000Y-120764000D02*
X151795500Y-119143500D01*
D44*
X154940000Y-120764000D02*
X153416000Y-120764000D01*
X154940000Y-120764000D02*
X156298500Y-120764000D01*
D43*
X151795500Y-119143500D02*
X151795500Y-118896000D01*
D45*
X156298500Y-120764000D02*
X156464000Y-120929500D01*
%TO.N,Net-(C10-Pad1)*%
X163829400Y-119392400D02*
X163842400Y-119405400D01*
D44*
X160985300Y-120904000D02*
X160985300Y-119417900D01*
X162407600Y-119392400D02*
X163829400Y-119392400D01*
X160972800Y-119405400D02*
X162394600Y-119405400D01*
D45*
X162394600Y-119405400D02*
X162407600Y-119392400D01*
X160985300Y-119417900D02*
X160972800Y-119405400D01*
D44*
%TO.N,Net-(C10-Pad2)*%
X159410400Y-120828600D02*
X159383000Y-120856000D01*
X159383000Y-119546000D02*
X159410400Y-119573400D01*
X155043000Y-119346000D02*
X156243000Y-119346000D01*
X159148000Y-119361000D02*
X159358000Y-119571000D01*
X156258000Y-119361000D02*
X159148000Y-119361000D01*
X159410400Y-119573400D02*
X159410400Y-120828600D01*
D43*
%TO.N,Net-(U3-XTA)*%
X150108000Y-121418000D02*
X150108000Y-119583500D01*
D44*
%TO.N,Net-(C12-Pad1)*%
X166776299Y-119405400D02*
X165392400Y-119405400D01*
%TO.N,Net-(U4-RF1)*%
X169773600Y-119367000D02*
X168389701Y-119367000D01*
X169773600Y-117881200D02*
X169773600Y-119367000D01*
D45*
X168389701Y-119367000D02*
X168351301Y-119405400D01*
X169712600Y-117820200D02*
X169773600Y-117881200D01*
D43*
%TO.N,/SCK*%
X152032613Y-114497037D02*
X152032613Y-110438018D01*
X152032613Y-110438018D02*
X150901595Y-109307000D01*
X150265000Y-109307000D02*
X149225000Y-108267000D01*
X150901595Y-109307000D02*
X150265000Y-109307000D01*
X151108000Y-115708500D02*
X151108000Y-115421650D01*
X151108000Y-115421650D02*
X152032613Y-114497037D01*
%TO.N,/MISO*%
X150108000Y-115708500D02*
X150108000Y-114597313D01*
X150108000Y-114597313D02*
X151218426Y-113486887D01*
X150749000Y-108267000D02*
X152707613Y-110225613D01*
X151218426Y-113486887D02*
X151332951Y-113486887D01*
X152707613Y-110225613D02*
X152707613Y-112757904D01*
%TO.N,/MOSI*%
X150608000Y-115708500D02*
X150608000Y-115009481D01*
X153382600Y-110193493D02*
X153382600Y-112895000D01*
X150608000Y-115009481D02*
X151194137Y-114423344D01*
X152273000Y-109083893D02*
X153382600Y-110193493D01*
X152273000Y-108267000D02*
X152273000Y-109083893D01*
X153382600Y-112895000D02*
X153746200Y-113258600D01*
%TO.N,/#CS*%
X154446600Y-110383012D02*
X154011240Y-109947652D01*
X151795500Y-116163895D02*
X154446600Y-113512795D01*
X150622000Y-110032800D02*
X150622000Y-109982000D01*
X154446600Y-113512795D02*
X154446600Y-110383012D01*
X150002000Y-110652800D02*
X150622000Y-110032800D01*
X151795500Y-116396000D02*
X151795500Y-116163895D01*
X153797000Y-108267000D02*
X153797000Y-109733412D01*
X153797000Y-109733412D02*
X154011240Y-109947652D01*
X150002000Y-110810000D02*
X150002000Y-110652800D01*
%TO.N,/#RESET*%
X149608000Y-113929606D02*
X149632221Y-113905385D01*
X149608000Y-114175000D02*
X149608000Y-114935000D01*
X146192000Y-113157000D02*
X146192000Y-111173000D01*
X146192000Y-113157000D02*
X146902800Y-113867800D01*
X149608000Y-114935000D02*
X149608000Y-115708500D01*
X146902800Y-113867800D02*
X146902800Y-114386705D01*
X149608000Y-114935000D02*
X149608000Y-113929606D01*
X149606000Y-114173000D02*
X149608000Y-114175000D01*
%TO.N,/DIO1*%
X148608000Y-115708500D02*
X148608000Y-115283200D01*
X148608000Y-115283200D02*
X148202000Y-114877200D01*
X150457923Y-112710000D02*
X150504847Y-112756924D01*
X148202000Y-114877200D02*
X148202000Y-113654896D01*
X150002000Y-112710000D02*
X150457923Y-112710000D01*
%TO.N,/DIO2*%
X147527000Y-114056310D02*
X147527000Y-110794800D01*
X147920500Y-116396000D02*
X147920500Y-115637100D01*
X147577800Y-114107110D02*
X147527000Y-114056310D01*
X147527000Y-110794800D02*
X147614000Y-110707800D01*
X147614000Y-110707800D02*
X147614000Y-109197000D01*
X147920500Y-115637100D02*
X147577800Y-115294400D01*
D45*
X168757600Y-113246400D02*
X168757600Y-111556800D01*
D43*
X147577800Y-115294400D02*
X147577800Y-114107110D01*
X147614000Y-109197000D02*
X146367000Y-107950000D01*
%TO.N,/DIO3*%
X148608000Y-120149400D02*
X148386804Y-120370596D01*
X148608000Y-119583500D02*
X148608000Y-120149400D01*
X146597247Y-109728000D02*
X146477718Y-109728000D01*
X148386804Y-120370596D02*
X147901519Y-120370596D01*
X146939001Y-110069754D02*
X146597247Y-109728000D01*
%TO.N,/BUSY*%
X149108000Y-114382106D02*
X148877000Y-114151106D01*
X148877000Y-114151106D02*
X148877000Y-113375301D01*
X148877000Y-113375301D02*
X148702000Y-113200301D01*
X149108000Y-115708500D02*
X149108000Y-114382106D01*
X148702000Y-113200301D02*
X148702000Y-112710000D01*
D45*
%TO.N,Net-(U4-RFC)*%
X173011200Y-117170200D02*
X173024200Y-117183200D01*
X171612599Y-117170200D02*
X173011200Y-117170200D01*
X172998800Y-117271800D02*
X172897200Y-117170200D01*
%TO.N,Net-(C16-Pad1)*%
X176047400Y-117183200D02*
X176034400Y-117170200D01*
D44*
X177482100Y-117183200D02*
X176047400Y-117183200D01*
D45*
X174561800Y-117258800D02*
X174548800Y-117271800D01*
D44*
X176034400Y-117170200D02*
X174587200Y-117170200D01*
%TO.N,Net-(C18-Pad2)*%
X181317600Y-117157800D02*
X179082500Y-117157800D01*
D45*
X179082500Y-117157800D02*
X179057100Y-117183200D01*
D44*
X183539800Y-117157800D02*
X181317600Y-117157800D01*
D43*
%TO.N,Net-(U5-OUT)*%
X150638800Y-124320800D02*
X149133926Y-124320800D01*
X149133926Y-124320800D02*
X148538363Y-124916363D01*
D44*
%TO.N,Net-(U3-RFI_N)*%
X157512893Y-116923893D02*
X157635000Y-117046000D01*
X154157446Y-117749554D02*
X155129553Y-116777447D01*
D43*
X151795500Y-117896000D02*
X153803893Y-117896000D01*
D44*
X157336151Y-116632951D02*
X157568600Y-116865400D01*
X155417537Y-116632951D02*
X157336151Y-116632951D01*
X155129553Y-116777447D02*
G75*
G02*
X155417535Y-116632937I367247J-372653D01*
G01*
X153803893Y-117896000D02*
G75*
G03*
X154157449Y-117749557I7J500000D01*
G01*
D45*
%TO.N,Net-(U4-RF2)*%
X169712600Y-116520200D02*
X168884600Y-116520200D01*
X159131600Y-116878400D02*
X159118600Y-116865400D01*
D44*
X160655000Y-116878400D02*
X161023600Y-116509800D01*
X168874200Y-116509800D02*
X168884600Y-116520200D01*
X161023600Y-116509800D02*
X168874200Y-116509800D01*
X160655000Y-116878400D02*
X159131600Y-116878400D01*
%TO.N,Net-(U3-RFI_P)*%
X153670000Y-117119400D02*
X153728020Y-117119400D01*
X157274400Y-115661000D02*
X157568600Y-115366800D01*
D43*
X151795500Y-117396000D02*
X153243205Y-117396000D01*
D44*
X155392419Y-115661000D02*
X157274400Y-115661000D01*
X153728020Y-117119400D02*
X155085892Y-115761528D01*
X155085892Y-115761528D02*
G75*
G02*
X155392419Y-115661015I312308J-434772D01*
G01*
D43*
X153243205Y-117396000D02*
G75*
G03*
X153596756Y-117249550I-5J500000D01*
G01*
D45*
%TO.N,Net-(U4-CTRL)*%
X170268600Y-114960400D02*
X168821600Y-114960400D01*
X171612600Y-116520200D02*
X171612600Y-116304400D01*
X168821600Y-114960400D02*
X168757600Y-114896400D01*
X171612600Y-116304400D02*
X170268600Y-114960400D01*
D43*
%TO.N,Net-(U3-VREG)*%
X143158000Y-120332500D02*
X144769500Y-120332500D01*
X145058000Y-120621000D02*
X146688600Y-120621000D01*
X146688600Y-120621000D02*
X147920500Y-119389100D01*
X147920500Y-119389100D02*
X147920500Y-118896000D01*
%TO.N,Net-(D2-A)*%
X144717000Y-103569000D02*
X144018000Y-102870000D01*
X144018000Y-102870000D02*
X142770000Y-102870000D01*
%TO.N,Net-(J1-Pad2)*%
X149869201Y-105972799D02*
X149869201Y-104394000D01*
X149225000Y-106617000D02*
X149869201Y-105972799D01*
%TO.N,Net-(J1-Pad6)*%
X154869199Y-106165199D02*
X155321000Y-106617000D01*
X154869199Y-104394000D02*
X154869199Y-106165199D01*
%TO.N,Net-(J1-Pad3)*%
X151119200Y-104394000D02*
X151119200Y-106246800D01*
X151119200Y-106246800D02*
X150749000Y-106617000D01*
%TO.N,Net-(J1-Pad4)*%
X152369200Y-104394001D02*
X152369200Y-106520800D01*
%TO.N,Net-(J1-Pad5)*%
X153619200Y-104394000D02*
X153619200Y-106439200D01*
D44*
%TO.N,Net-(U3-RFO)*%
X153497664Y-119253000D02*
X153441300Y-119253000D01*
D45*
X153441300Y-119253000D02*
X152755600Y-118567300D01*
D43*
X152584400Y-118396000D02*
X152755600Y-118567200D01*
D44*
X153441300Y-119253000D02*
X153283000Y-119094700D01*
D43*
X151795500Y-118396000D02*
X152584400Y-118396000D01*
D45*
X152755600Y-118567300D02*
X152755600Y-118567200D01*
D43*
%TO.N,Net-(U3-DCC_SW)*%
X144008000Y-117896000D02*
X143410500Y-118493500D01*
X147920500Y-117896000D02*
X144008000Y-117896000D01*
%TO.N,Net-(U2-Y)*%
X155321000Y-108267000D02*
X155321000Y-109220004D01*
X148702000Y-110810000D02*
X148677000Y-110785000D01*
X148677000Y-109310800D02*
X148742400Y-109245400D01*
X148677000Y-110785000D02*
X148677000Y-109310800D01*
%TO.N,Net-(D3-A)*%
X144717000Y-107950000D02*
X144717000Y-107353600D01*
X144717000Y-107353600D02*
X143535400Y-106172000D01*
X143535400Y-106172000D02*
X142770000Y-106172000D01*
%TO.N,Net-(D4-A)*%
X144717000Y-109474000D02*
X142770000Y-109474000D01*
%TD*%
%TA.AperFunction,Conductor*%
%TO.N,GND*%
G36*
X170756835Y-117895569D02*
G01*
X170787095Y-117959794D01*
X170787522Y-117962763D01*
X170793409Y-118007481D01*
X170802556Y-118076962D01*
X170836413Y-118158699D01*
X170855111Y-118203842D01*
X170863064Y-118223041D01*
X170959318Y-118348482D01*
X171084759Y-118444736D01*
X171230838Y-118505244D01*
X171348239Y-118520700D01*
X171395251Y-118520699D01*
X171463371Y-118540700D01*
X171484347Y-118557604D01*
X171677795Y-118751052D01*
X171711821Y-118813364D01*
X171714700Y-118840147D01*
X171714700Y-120764853D01*
X171694698Y-120832974D01*
X171677795Y-120853948D01*
X169457148Y-123074595D01*
X169394836Y-123108621D01*
X169368053Y-123111500D01*
X155538702Y-123111500D01*
X155470581Y-123091498D01*
X155449611Y-123074599D01*
X155389044Y-123014032D01*
X155244697Y-122924997D01*
X155083708Y-122871651D01*
X155083704Y-122871650D01*
X155083702Y-122871650D01*
X154984353Y-122861500D01*
X154387654Y-122861500D01*
X154288295Y-122871650D01*
X154127303Y-122924997D01*
X153982955Y-123014032D01*
X153982949Y-123014037D01*
X153863037Y-123133949D01*
X153863031Y-123133957D01*
X153843768Y-123165186D01*
X153790981Y-123212663D01*
X153750639Y-123224243D01*
X153693949Y-123230631D01*
X153693942Y-123230632D01*
X153614506Y-123258429D01*
X153572891Y-123265500D01*
X152969677Y-123265500D01*
X152957721Y-123267879D01*
X152933140Y-123270300D01*
X152040935Y-123270300D01*
X152040914Y-123270302D01*
X151981319Y-123276708D01*
X151981318Y-123276708D01*
X151846473Y-123327001D01*
X151846470Y-123327003D01*
X151764309Y-123388509D01*
X151697789Y-123413320D01*
X151628415Y-123398229D01*
X151613291Y-123388509D01*
X151558343Y-123347375D01*
X151531131Y-123327004D01*
X151531129Y-123327003D01*
X151531126Y-123327001D01*
X151396283Y-123276709D01*
X151396286Y-123276709D01*
X151336673Y-123270300D01*
X149940935Y-123270300D01*
X149940909Y-123270302D01*
X149900431Y-123274653D01*
X149830563Y-123262046D01*
X149778602Y-123213666D01*
X149761046Y-123144874D01*
X149774369Y-123092826D01*
X149775831Y-123089915D01*
X149826256Y-122989511D01*
X149865368Y-122824485D01*
X149865368Y-122813368D01*
X149885370Y-122745247D01*
X149939026Y-122698754D01*
X149991368Y-122687368D01*
X150002483Y-122687368D01*
X150002485Y-122687368D01*
X150167511Y-122648256D01*
X150319068Y-122572141D01*
X150396507Y-122509059D01*
X150783073Y-122122491D01*
X150846157Y-122045052D01*
X150922272Y-121893495D01*
X150936158Y-121834905D01*
X150971330Y-121773235D01*
X151034261Y-121740369D01*
X151104971Y-121746743D01*
X151147856Y-121774869D01*
X151188949Y-121815962D01*
X151188955Y-121815967D01*
X151188956Y-121815968D01*
X151333303Y-121905003D01*
X151494292Y-121958349D01*
X151593655Y-121968500D01*
X152190344Y-121968499D01*
X152190345Y-121968499D01*
X152210216Y-121966469D01*
X152289708Y-121958349D01*
X152450697Y-121905003D01*
X152595044Y-121815968D01*
X152714968Y-121696044D01*
X152714975Y-121696031D01*
X152718008Y-121692197D01*
X152775944Y-121651162D01*
X152846868Y-121647963D01*
X152856486Y-121650732D01*
X152857302Y-121651002D01*
X152857303Y-121651003D01*
X152931382Y-121675550D01*
X153018285Y-121704347D01*
X153018286Y-121704347D01*
X153018292Y-121704349D01*
X153117655Y-121714500D01*
X153714344Y-121714499D01*
X153714345Y-121714499D01*
X153734216Y-121712469D01*
X153813708Y-121704349D01*
X153974697Y-121651003D01*
X154111854Y-121566402D01*
X154180332Y-121547666D01*
X154244145Y-121566402D01*
X154381303Y-121651003D01*
X154542292Y-121704349D01*
X154641655Y-121714500D01*
X155238344Y-121714499D01*
X155238345Y-121714499D01*
X155258216Y-121712469D01*
X155337708Y-121704349D01*
X155498697Y-121651003D01*
X155534281Y-121629053D01*
X155602760Y-121610315D01*
X155670499Y-121631573D01*
X155689525Y-121647198D01*
X155758602Y-121716275D01*
X155758608Y-121716280D01*
X155758609Y-121716281D01*
X155901713Y-121804549D01*
X155901715Y-121804549D01*
X155901716Y-121804550D01*
X156061308Y-121857434D01*
X156061309Y-121857434D01*
X156061315Y-121857436D01*
X156159817Y-121867499D01*
X156159817Y-121867500D01*
X156159826Y-121867500D01*
X156768183Y-121867500D01*
X156768182Y-121867499D01*
X156866685Y-121857436D01*
X157026287Y-121804549D01*
X157169391Y-121716281D01*
X157288281Y-121597391D01*
X157376549Y-121454287D01*
X157429436Y-121294685D01*
X157439499Y-121196182D01*
X157439500Y-121196182D01*
X157439500Y-120662817D01*
X157430300Y-120572773D01*
X157429436Y-120564315D01*
X157395989Y-120463381D01*
X157393549Y-120392429D01*
X157429857Y-120331419D01*
X157493385Y-120299723D01*
X157555228Y-120304146D01*
X157564892Y-120307349D01*
X157664255Y-120317500D01*
X158260944Y-120317499D01*
X158260945Y-120317499D01*
X158321614Y-120311301D01*
X158359534Y-120307428D01*
X158429334Y-120320404D01*
X158481039Y-120369057D01*
X158498232Y-120437941D01*
X158491943Y-120472408D01*
X158482364Y-120501313D01*
X158482363Y-120501320D01*
X158472300Y-120599817D01*
X158472300Y-121208182D01*
X158482363Y-121306679D01*
X158482365Y-121306691D01*
X158535249Y-121466283D01*
X158535250Y-121466285D01*
X158535251Y-121466287D01*
X158587933Y-121551697D01*
X158623519Y-121609391D01*
X158623524Y-121609397D01*
X158742402Y-121728275D01*
X158742408Y-121728280D01*
X158742409Y-121728281D01*
X158885513Y-121816549D01*
X158885515Y-121816549D01*
X158885516Y-121816550D01*
X159045108Y-121869434D01*
X159045109Y-121869434D01*
X159045115Y-121869436D01*
X159143617Y-121879499D01*
X159143617Y-121879500D01*
X159143626Y-121879500D01*
X159676983Y-121879500D01*
X159676982Y-121879499D01*
X159775485Y-121869436D01*
X159935087Y-121816549D01*
X160078191Y-121728281D01*
X160108705Y-121697766D01*
X160171015Y-121663742D01*
X160241831Y-121668806D01*
X160286894Y-121697766D01*
X160317409Y-121728281D01*
X160460513Y-121816549D01*
X160460515Y-121816549D01*
X160460516Y-121816550D01*
X160620108Y-121869434D01*
X160620109Y-121869434D01*
X160620115Y-121869436D01*
X160718617Y-121879499D01*
X160718617Y-121879500D01*
X160718626Y-121879500D01*
X161251983Y-121879500D01*
X161251982Y-121879499D01*
X161350485Y-121869436D01*
X161510087Y-121816549D01*
X161653191Y-121728281D01*
X161772081Y-121609391D01*
X161860349Y-121466287D01*
X161913236Y-121306685D01*
X161923299Y-121208182D01*
X161923300Y-121208182D01*
X161923300Y-120599817D01*
X161914648Y-120515135D01*
X161913236Y-120501315D01*
X161913232Y-120501305D01*
X161911795Y-120494586D01*
X161913016Y-120494324D01*
X161910818Y-120430430D01*
X161947126Y-120369420D01*
X162010654Y-120337724D01*
X162045669Y-120336404D01*
X162109255Y-120342900D01*
X162705944Y-120342899D01*
X162705945Y-120342899D01*
X162725816Y-120340869D01*
X162805308Y-120332749D01*
X162966297Y-120279403D01*
X163040551Y-120233602D01*
X163109027Y-120214865D01*
X163172843Y-120233603D01*
X163308699Y-120317401D01*
X163308700Y-120317401D01*
X163308703Y-120317403D01*
X163469692Y-120370749D01*
X163569055Y-120380900D01*
X164115744Y-120380899D01*
X164115745Y-120380899D01*
X164135616Y-120378869D01*
X164215108Y-120370749D01*
X164376097Y-120317403D01*
X164520444Y-120228368D01*
X164528303Y-120220508D01*
X164590612Y-120186483D01*
X164661428Y-120191545D01*
X164706496Y-120220508D01*
X164714356Y-120228368D01*
X164858703Y-120317403D01*
X165019692Y-120370749D01*
X165119055Y-120380900D01*
X165665744Y-120380899D01*
X165665745Y-120380899D01*
X165685616Y-120378869D01*
X165765108Y-120370749D01*
X165926097Y-120317403D01*
X166022216Y-120258115D01*
X166090693Y-120239378D01*
X166154509Y-120258116D01*
X166251513Y-120317949D01*
X166359187Y-120353628D01*
X166411108Y-120370834D01*
X166411109Y-120370834D01*
X166411115Y-120370836D01*
X166509617Y-120380899D01*
X166509617Y-120380900D01*
X166509626Y-120380900D01*
X167042983Y-120380900D01*
X167042982Y-120380899D01*
X167141485Y-120370836D01*
X167301087Y-120317949D01*
X167444191Y-120229681D01*
X167474705Y-120199166D01*
X167537015Y-120165142D01*
X167607831Y-120170206D01*
X167652894Y-120199166D01*
X167683409Y-120229681D01*
X167826513Y-120317949D01*
X167826515Y-120317949D01*
X167826516Y-120317950D01*
X167986108Y-120370834D01*
X167986109Y-120370834D01*
X167986115Y-120370836D01*
X168084617Y-120380899D01*
X168084617Y-120380900D01*
X168084626Y-120380900D01*
X168617983Y-120380900D01*
X168617982Y-120380899D01*
X168716485Y-120370836D01*
X168876087Y-120317949D01*
X169019191Y-120229681D01*
X169019192Y-120229679D01*
X169025437Y-120225828D01*
X169026233Y-120227119D01*
X169084308Y-120203689D01*
X169154058Y-120216939D01*
X169162757Y-120221838D01*
X169214903Y-120254003D01*
X169375892Y-120307349D01*
X169475255Y-120317500D01*
X170071944Y-120317499D01*
X170071945Y-120317499D01*
X170091816Y-120315469D01*
X170171308Y-120307349D01*
X170332297Y-120254003D01*
X170476644Y-120164968D01*
X170596568Y-120045044D01*
X170685603Y-119900697D01*
X170738949Y-119739708D01*
X170749100Y-119640345D01*
X170749099Y-119093656D01*
X170738949Y-118994292D01*
X170685603Y-118833303D01*
X170596568Y-118688956D01*
X170596567Y-118688955D01*
X170596562Y-118688949D01*
X170561005Y-118653392D01*
X170526979Y-118591080D01*
X170524100Y-118564297D01*
X170524100Y-118074159D01*
X170525178Y-118057713D01*
X170532124Y-118004950D01*
X170537678Y-117962761D01*
X170566400Y-117897836D01*
X170625665Y-117858744D01*
X170696657Y-117857899D01*
X170756835Y-117895569D01*
G37*
%TD.AperFunction*%
%TA.AperFunction,Conductor*%
G36*
X146970125Y-118541502D02*
G01*
X147016618Y-118595158D01*
X147026722Y-118665432D01*
X147023710Y-118680112D01*
X147021991Y-118686525D01*
X147007500Y-118796597D01*
X147007500Y-118995399D01*
X147007501Y-118995408D01*
X147010516Y-119018306D01*
X147021991Y-119105472D01*
X147076922Y-119238085D01*
X147084511Y-119308674D01*
X147052732Y-119372161D01*
X147049609Y-119375398D01*
X146466415Y-119958595D01*
X146404103Y-119992620D01*
X146377319Y-119995500D01*
X146045382Y-119995500D01*
X145977261Y-119975498D01*
X145938142Y-119935648D01*
X145880969Y-119842957D01*
X145880962Y-119842949D01*
X145761050Y-119723037D01*
X145761044Y-119723032D01*
X145616697Y-119633997D01*
X145455708Y-119580651D01*
X145455704Y-119580650D01*
X145455702Y-119580650D01*
X145356353Y-119570500D01*
X144759654Y-119570500D01*
X144660295Y-119580650D01*
X144499302Y-119633997D01*
X144464078Y-119655724D01*
X144411361Y-119688240D01*
X144345215Y-119707000D01*
X144091863Y-119707000D01*
X144023742Y-119686998D01*
X144002768Y-119670095D01*
X143988397Y-119655724D01*
X143988391Y-119655719D01*
X143866687Y-119580651D01*
X143845287Y-119567451D01*
X143845285Y-119567450D01*
X143845283Y-119567449D01*
X143685691Y-119514565D01*
X143685679Y-119514563D01*
X143595472Y-119505347D01*
X143529737Y-119478525D01*
X143488939Y-119420422D01*
X143486030Y-119349485D01*
X143521934Y-119288236D01*
X143585252Y-119256122D01*
X143595472Y-119254653D01*
X143644612Y-119249632D01*
X143685685Y-119245436D01*
X143845287Y-119192549D01*
X143988391Y-119104281D01*
X144107281Y-118985391D01*
X144195549Y-118842287D01*
X144248436Y-118682685D01*
X144253339Y-118634691D01*
X144280160Y-118568959D01*
X144338263Y-118528160D01*
X144378686Y-118521500D01*
X146902004Y-118521500D01*
X146970125Y-118541502D01*
G37*
%TD.AperFunction*%
%TA.AperFunction,Conductor*%
G36*
X149398522Y-116607006D02*
G01*
X149398528Y-116607009D01*
X149508599Y-116621500D01*
X149707400Y-116621499D01*
X149817472Y-116607009D01*
X149817481Y-116607005D01*
X149825384Y-116604888D01*
X149890612Y-116604888D01*
X149898522Y-116607006D01*
X149898528Y-116607009D01*
X150008599Y-116621500D01*
X150207400Y-116621499D01*
X150317472Y-116607009D01*
X150317481Y-116607005D01*
X150325384Y-116604888D01*
X150390612Y-116604888D01*
X150398522Y-116607006D01*
X150398528Y-116607009D01*
X150508599Y-116621500D01*
X150707400Y-116621499D01*
X150797628Y-116609621D01*
X150867776Y-116620560D01*
X150920874Y-116667688D01*
X150930481Y-116686324D01*
X150953718Y-116742423D01*
X150953719Y-116742425D01*
X150953721Y-116742429D01*
X150953725Y-116742434D01*
X151012703Y-116819297D01*
X151038303Y-116885517D01*
X151024038Y-116955066D01*
X151012703Y-116972703D01*
X150953725Y-117049565D01*
X150953722Y-117049568D01*
X150953721Y-117049571D01*
X150930566Y-117105472D01*
X150896990Y-117186529D01*
X150882500Y-117296597D01*
X150882500Y-117495399D01*
X150882501Y-117495408D01*
X150894093Y-117583457D01*
X150896991Y-117605472D01*
X150896992Y-117605475D01*
X150899112Y-117613386D01*
X150899113Y-117678610D01*
X150896990Y-117686530D01*
X150882500Y-117796597D01*
X150882500Y-117995399D01*
X150882501Y-117995408D01*
X150891782Y-118065902D01*
X150896991Y-118105472D01*
X150896992Y-118105475D01*
X150899112Y-118113386D01*
X150899113Y-118178610D01*
X150896990Y-118186530D01*
X150882500Y-118296597D01*
X150882500Y-118495399D01*
X150882501Y-118495410D01*
X150894378Y-118585627D01*
X150883438Y-118655776D01*
X150836310Y-118708874D01*
X150817677Y-118718480D01*
X150761572Y-118741720D01*
X150761565Y-118741725D01*
X150684703Y-118800703D01*
X150618483Y-118826303D01*
X150548934Y-118812038D01*
X150531297Y-118800703D01*
X150454434Y-118741725D01*
X150454429Y-118741721D01*
X150331313Y-118690724D01*
X150317470Y-118684990D01*
X150245813Y-118675557D01*
X150207401Y-118670500D01*
X150207398Y-118670500D01*
X150008600Y-118670500D01*
X150008591Y-118670501D01*
X149898531Y-118684990D01*
X149890611Y-118687113D01*
X149825387Y-118687112D01*
X149817473Y-118684991D01*
X149817472Y-118684991D01*
X149707401Y-118670500D01*
X149707398Y-118670500D01*
X149508600Y-118670500D01*
X149508591Y-118670501D01*
X149398530Y-118684990D01*
X149384687Y-118690724D01*
X149261571Y-118741721D01*
X149261570Y-118741722D01*
X149261565Y-118741725D01*
X149184703Y-118800703D01*
X149118483Y-118826303D01*
X149048934Y-118812038D01*
X149031297Y-118800703D01*
X148954434Y-118741725D01*
X148954429Y-118741721D01*
X148866773Y-118705412D01*
X148811495Y-118660865D01*
X148798587Y-118637226D01*
X148762279Y-118549571D01*
X148756087Y-118541502D01*
X148703297Y-118472704D01*
X148677696Y-118406484D01*
X148691961Y-118336935D01*
X148703297Y-118319296D01*
X148729256Y-118285465D01*
X148762279Y-118242429D01*
X148819009Y-118105472D01*
X148833500Y-117995401D01*
X148833499Y-117796600D01*
X148819009Y-117686528D01*
X148819006Y-117686522D01*
X148816888Y-117678613D01*
X148816888Y-117613385D01*
X148819005Y-117605479D01*
X148819009Y-117605472D01*
X148833500Y-117495401D01*
X148833499Y-117296600D01*
X148832882Y-117291916D01*
X148828720Y-117260300D01*
X148819009Y-117186528D01*
X148819006Y-117186522D01*
X148816888Y-117178613D01*
X148816888Y-117113385D01*
X148819005Y-117105479D01*
X148819009Y-117105472D01*
X148833500Y-116995401D01*
X148833499Y-116796600D01*
X148828385Y-116757753D01*
X148839324Y-116687605D01*
X148886452Y-116634506D01*
X148954806Y-116615316D01*
X148969736Y-116616383D01*
X149008599Y-116621500D01*
X149207400Y-116621499D01*
X149317472Y-116607009D01*
X149317481Y-116607005D01*
X149325384Y-116604888D01*
X149390612Y-116604888D01*
X149398522Y-116607006D01*
G37*
%TD.AperFunction*%
%TA.AperFunction,Conductor*%
G36*
X168770570Y-117262720D02*
G01*
X168810683Y-117270700D01*
X168810688Y-117270700D01*
X168835240Y-117270700D01*
X168903361Y-117290702D01*
X168949854Y-117344358D01*
X168959958Y-117414632D01*
X168951649Y-117444915D01*
X168946995Y-117456153D01*
X168902555Y-117563439D01*
X168887100Y-117680837D01*
X168887100Y-117959559D01*
X168887101Y-117959568D01*
X168893409Y-118007481D01*
X168902556Y-118076962D01*
X168936413Y-118158699D01*
X168955111Y-118203842D01*
X168963064Y-118223041D01*
X168997062Y-118267348D01*
X169022663Y-118333568D01*
X169023100Y-118344052D01*
X169023100Y-118367076D01*
X169003098Y-118435197D01*
X168949442Y-118481690D01*
X168879168Y-118491794D01*
X168857467Y-118486681D01*
X168716485Y-118439964D01*
X168716481Y-118439963D01*
X168716479Y-118439963D01*
X168617982Y-118429900D01*
X168617974Y-118429900D01*
X168084626Y-118429900D01*
X168084617Y-118429900D01*
X167986120Y-118439963D01*
X167986108Y-118439965D01*
X167826516Y-118492849D01*
X167683408Y-118581119D01*
X167683402Y-118581124D01*
X167652895Y-118611632D01*
X167590583Y-118645658D01*
X167519768Y-118640593D01*
X167474705Y-118611632D01*
X167444197Y-118581124D01*
X167444191Y-118581119D01*
X167422466Y-118567719D01*
X167301087Y-118492851D01*
X167301085Y-118492850D01*
X167301083Y-118492849D01*
X167141491Y-118439965D01*
X167141479Y-118439963D01*
X167042982Y-118429900D01*
X167042974Y-118429900D01*
X166509626Y-118429900D01*
X166509617Y-118429900D01*
X166411120Y-118439963D01*
X166411108Y-118439965D01*
X166251516Y-118492849D01*
X166154509Y-118552684D01*
X166086029Y-118571421D01*
X166022215Y-118552684D01*
X166006646Y-118543081D01*
X165926097Y-118493397D01*
X165765108Y-118440051D01*
X165765104Y-118440050D01*
X165765102Y-118440050D01*
X165665753Y-118429900D01*
X165119054Y-118429900D01*
X165019695Y-118440050D01*
X164858703Y-118493397D01*
X164714355Y-118582432D01*
X164714349Y-118582437D01*
X164706495Y-118590292D01*
X164644183Y-118624318D01*
X164573368Y-118619253D01*
X164528305Y-118590292D01*
X164520450Y-118582437D01*
X164520444Y-118582432D01*
X164376097Y-118493397D01*
X164334004Y-118479449D01*
X164215108Y-118440051D01*
X164215104Y-118440050D01*
X164215102Y-118440050D01*
X164115753Y-118429900D01*
X163569054Y-118429900D01*
X163469695Y-118440050D01*
X163308703Y-118493397D01*
X163193919Y-118564197D01*
X163125439Y-118582934D01*
X163061626Y-118564197D01*
X162966297Y-118505397D01*
X162805308Y-118452051D01*
X162805304Y-118452050D01*
X162805302Y-118452050D01*
X162705953Y-118441900D01*
X162109254Y-118441900D01*
X162009895Y-118452050D01*
X161848903Y-118505397D01*
X161753574Y-118564197D01*
X161685094Y-118582934D01*
X161621281Y-118564197D01*
X161506497Y-118493397D01*
X161345508Y-118440051D01*
X161345504Y-118440050D01*
X161345502Y-118440050D01*
X161246153Y-118429900D01*
X160699454Y-118429900D01*
X160600095Y-118440050D01*
X160439103Y-118493397D01*
X160294755Y-118582432D01*
X160294749Y-118582437D01*
X160286895Y-118590292D01*
X160224583Y-118624318D01*
X160153768Y-118619253D01*
X160108705Y-118590292D01*
X160100850Y-118582437D01*
X160100844Y-118582432D01*
X159956497Y-118493397D01*
X159914404Y-118479449D01*
X159795508Y-118440051D01*
X159795504Y-118440050D01*
X159795502Y-118440050D01*
X159696153Y-118429900D01*
X159149454Y-118429900D01*
X159050095Y-118440050D01*
X158889103Y-118493397D01*
X158782209Y-118559330D01*
X158713729Y-118578067D01*
X158649915Y-118559330D01*
X158521297Y-118479997D01*
X158499288Y-118472704D01*
X158360308Y-118426651D01*
X158360304Y-118426650D01*
X158360302Y-118426650D01*
X158260953Y-118416500D01*
X157664254Y-118416500D01*
X157564895Y-118426650D01*
X157403903Y-118479997D01*
X157281684Y-118555383D01*
X157213204Y-118574120D01*
X157149392Y-118555383D01*
X157026287Y-118479451D01*
X157026285Y-118479450D01*
X157026283Y-118479449D01*
X156866691Y-118426565D01*
X156866679Y-118426563D01*
X156768182Y-118416500D01*
X156768174Y-118416500D01*
X156159826Y-118416500D01*
X156159817Y-118416500D01*
X156061320Y-118426563D01*
X156061308Y-118426565D01*
X155901715Y-118479450D01*
X155901709Y-118479452D01*
X155883344Y-118490780D01*
X155814864Y-118509516D01*
X155747126Y-118488255D01*
X155728109Y-118472637D01*
X155684191Y-118428719D01*
X155541087Y-118340451D01*
X155541085Y-118340450D01*
X155541083Y-118340449D01*
X155381491Y-118287565D01*
X155381479Y-118287563D01*
X155282982Y-118277500D01*
X155282974Y-118277500D01*
X154995058Y-118277500D01*
X154926937Y-118257498D01*
X154880444Y-118203842D01*
X154870340Y-118133568D01*
X154899834Y-118068988D01*
X154905963Y-118062405D01*
X155183943Y-117784425D01*
X155246255Y-117750399D01*
X155317070Y-117755464D01*
X155339179Y-117766276D01*
X155407713Y-117808549D01*
X155488956Y-117835470D01*
X155567308Y-117861434D01*
X155567309Y-117861434D01*
X155567315Y-117861436D01*
X155665817Y-117871499D01*
X155665817Y-117871500D01*
X155665826Y-117871500D01*
X156274183Y-117871500D01*
X156274182Y-117871499D01*
X156372685Y-117861436D01*
X156532287Y-117808549D01*
X156675391Y-117720281D01*
X156709835Y-117685836D01*
X156772143Y-117651812D01*
X156842959Y-117656875D01*
X156888024Y-117685837D01*
X156890549Y-117688362D01*
X156890555Y-117688367D01*
X156890556Y-117688368D01*
X157034903Y-117777403D01*
X157195892Y-117830749D01*
X157295255Y-117840900D01*
X157841944Y-117840899D01*
X157841945Y-117840899D01*
X157861816Y-117838869D01*
X157941308Y-117830749D01*
X158102297Y-117777403D01*
X158246644Y-117688368D01*
X158254503Y-117680508D01*
X158316812Y-117646483D01*
X158387628Y-117651545D01*
X158432696Y-117680508D01*
X158440556Y-117688368D01*
X158584903Y-117777403D01*
X158745892Y-117830749D01*
X158845255Y-117840900D01*
X159391944Y-117840899D01*
X159391945Y-117840899D01*
X159411816Y-117838869D01*
X159491308Y-117830749D01*
X159652297Y-117777403D01*
X159796644Y-117688368D01*
X159796650Y-117688362D01*
X159802402Y-117683815D01*
X159804130Y-117686001D01*
X159855138Y-117658126D01*
X159925956Y-117663166D01*
X159948112Y-117673997D01*
X160096299Y-117765401D01*
X160096300Y-117765401D01*
X160096303Y-117765403D01*
X160257292Y-117818749D01*
X160356655Y-117828900D01*
X160953344Y-117828899D01*
X160953345Y-117828899D01*
X160973216Y-117826869D01*
X161052708Y-117818749D01*
X161213697Y-117765403D01*
X161358044Y-117676368D01*
X161477968Y-117556444D01*
X161567003Y-117412097D01*
X161580975Y-117369929D01*
X161588685Y-117346666D01*
X161629099Y-117288295D01*
X161694655Y-117261040D01*
X161708289Y-117260300D01*
X168745990Y-117260300D01*
X168770570Y-117262720D01*
G37*
%TD.AperFunction*%
%TA.AperFunction,Conductor*%
G36*
X170756835Y-116595569D02*
G01*
X170787095Y-116659794D01*
X170787522Y-116662763D01*
X170798009Y-116742423D01*
X170802556Y-116776962D01*
X170802557Y-116776964D01*
X170810849Y-116796985D01*
X170818436Y-116867576D01*
X170810849Y-116893415D01*
X170802556Y-116913437D01*
X170787100Y-117030837D01*
X170787100Y-117309559D01*
X170787101Y-117309568D01*
X170796056Y-117377584D01*
X170802556Y-117426962D01*
X170802557Y-117426964D01*
X170810849Y-117446985D01*
X170818436Y-117517576D01*
X170810849Y-117543415D01*
X170802556Y-117563437D01*
X170787521Y-117677637D01*
X170758798Y-117742564D01*
X170699533Y-117781655D01*
X170628541Y-117782500D01*
X170568363Y-117744829D01*
X170538104Y-117680604D01*
X170537677Y-117677635D01*
X170522644Y-117563438D01*
X170462136Y-117417359D01*
X170365882Y-117291918D01*
X170365880Y-117291917D01*
X170365880Y-117291916D01*
X170337530Y-117270163D01*
X170295662Y-117212826D01*
X170291440Y-117141955D01*
X170326203Y-117080052D01*
X170337530Y-117070237D01*
X170365882Y-117048482D01*
X170462136Y-116923041D01*
X170522644Y-116776962D01*
X170537678Y-116662761D01*
X170566400Y-116597836D01*
X170625665Y-116558744D01*
X170696657Y-116557899D01*
X170756835Y-116595569D01*
G37*
%TD.AperFunction*%
%TA.AperFunction,Conductor*%
G36*
X151267065Y-110573167D02*
G01*
X151312136Y-110602131D01*
X151370208Y-110660203D01*
X151404234Y-110722515D01*
X151407113Y-110749298D01*
X151407113Y-112250907D01*
X151387111Y-112319028D01*
X151333455Y-112365521D01*
X151263181Y-112375625D01*
X151198601Y-112346131D01*
X151174426Y-112317943D01*
X151134664Y-112254663D01*
X151134663Y-112254661D01*
X151007109Y-112127107D01*
X151007107Y-112127106D01*
X150854372Y-112031136D01*
X150854369Y-112031135D01*
X150684102Y-111971556D01*
X150504847Y-111951359D01*
X150504846Y-111951359D01*
X150441240Y-111958525D01*
X150378917Y-111949726D01*
X150258762Y-111899956D01*
X150258760Y-111899955D01*
X150144562Y-111884921D01*
X150079635Y-111856198D01*
X150040544Y-111796933D01*
X150039699Y-111725941D01*
X150077370Y-111665763D01*
X150141595Y-111635504D01*
X150144545Y-111635079D01*
X150258762Y-111620044D01*
X150404841Y-111559536D01*
X150530282Y-111463282D01*
X150626536Y-111337841D01*
X150687044Y-111191762D01*
X150702500Y-111074361D01*
X150702499Y-110890390D01*
X150722501Y-110822270D01*
X150776156Y-110775777D01*
X150800468Y-110767548D01*
X150801256Y-110767368D01*
X150852896Y-110749298D01*
X150971522Y-110707789D01*
X151124262Y-110611816D01*
X151133943Y-110602134D01*
X151196249Y-110568107D01*
X151267065Y-110573167D01*
G37*
%TD.AperFunction*%
%TA.AperFunction,Conductor*%
G36*
X149725212Y-111611748D02*
G01*
X149745238Y-111620044D01*
X149859437Y-111635078D01*
X149924363Y-111663800D01*
X149963455Y-111723065D01*
X149964300Y-111794057D01*
X149926630Y-111854236D01*
X149862405Y-111884495D01*
X149859436Y-111884922D01*
X149761728Y-111897785D01*
X149745238Y-111899956D01*
X149599160Y-111960463D01*
X149599157Y-111960465D01*
X149473715Y-112056720D01*
X149451962Y-112085070D01*
X149394624Y-112126937D01*
X149323753Y-112131159D01*
X149261850Y-112096395D01*
X149252038Y-112085070D01*
X149230284Y-112056720D01*
X149230282Y-112056719D01*
X149230282Y-112056718D01*
X149104841Y-111960464D01*
X149095605Y-111956638D01*
X148958760Y-111899955D01*
X148844562Y-111884921D01*
X148779635Y-111856198D01*
X148740544Y-111796933D01*
X148739699Y-111725941D01*
X148777370Y-111665763D01*
X148841595Y-111635504D01*
X148844545Y-111635079D01*
X148958762Y-111620044D01*
X148978781Y-111611751D01*
X149049366Y-111604160D01*
X149075212Y-111611748D01*
X149095238Y-111620044D01*
X149212639Y-111635500D01*
X149491360Y-111635499D01*
X149608762Y-111620044D01*
X149628781Y-111611751D01*
X149699366Y-111604160D01*
X149725212Y-111611748D01*
G37*
%TD.AperFunction*%
%TA.AperFunction,Conductor*%
G36*
X189315621Y-99834502D02*
G01*
X189362114Y-99888158D01*
X189373500Y-99940500D01*
X189373500Y-128687500D01*
X189353498Y-128755621D01*
X189299842Y-128802114D01*
X189247500Y-128813500D01*
X135500500Y-128813500D01*
X135432379Y-128793498D01*
X135385886Y-128739842D01*
X135374500Y-128687500D01*
X135374500Y-117108982D01*
X137937500Y-117108982D01*
X137937500Y-118159009D01*
X137948000Y-118261797D01*
X138003185Y-118428334D01*
X138072493Y-118540700D01*
X138095288Y-118577656D01*
X138150596Y-118632964D01*
X138184620Y-118695274D01*
X138187500Y-118722058D01*
X138187500Y-118801388D01*
X138182497Y-118836539D01*
X138179226Y-118847800D01*
X138140401Y-118981431D01*
X138140401Y-118981432D01*
X138137500Y-119018306D01*
X138137500Y-120174693D01*
X138140401Y-120211567D01*
X138140401Y-120211568D01*
X138186257Y-120369401D01*
X138269917Y-120510863D01*
X138269919Y-120510865D01*
X138305959Y-120546905D01*
X138332615Y-120591375D01*
X138334168Y-120590733D01*
X138383687Y-120710284D01*
X138385997Y-120714607D01*
X138400462Y-120784115D01*
X138375052Y-120850409D01*
X138363965Y-120863088D01*
X138269919Y-120957133D01*
X138269917Y-120957136D01*
X138186257Y-121098598D01*
X138140401Y-121256431D01*
X138140401Y-121256432D01*
X138137500Y-121293306D01*
X138137500Y-122449693D01*
X138140401Y-122486567D01*
X138140401Y-122486568D01*
X138186257Y-122644401D01*
X138269917Y-122785863D01*
X138269923Y-122785870D01*
X138386135Y-122902082D01*
X138401989Y-122911457D01*
X138426948Y-122930817D01*
X139540095Y-124043964D01*
X139574121Y-124106276D01*
X139577000Y-124133059D01*
X139577000Y-124545009D01*
X139587500Y-124647797D01*
X139642685Y-124814334D01*
X139734788Y-124963656D01*
X139734793Y-124963662D01*
X139858837Y-125087706D01*
X139858843Y-125087711D01*
X139858844Y-125087712D01*
X139916063Y-125123004D01*
X140008165Y-125179814D01*
X140174696Y-125234997D01*
X140174697Y-125234997D01*
X140174703Y-125234999D01*
X140277491Y-125245500D01*
X140877508Y-125245499D01*
X140877509Y-125245499D01*
X140980297Y-125234999D01*
X141146834Y-125179814D01*
X141160096Y-125171634D01*
X141296156Y-125087712D01*
X141420212Y-124963656D01*
X141512314Y-124814334D01*
X141567499Y-124647797D01*
X141578000Y-124545009D01*
X141577999Y-124133053D01*
X141598001Y-124064934D01*
X141614899Y-124043964D01*
X141826685Y-123832178D01*
X141863031Y-123809355D01*
X141862094Y-123807409D01*
X141868464Y-123804341D01*
X141868465Y-123804339D01*
X141868471Y-123804338D01*
X142021211Y-123708365D01*
X142148765Y-123580811D01*
X142244738Y-123428071D01*
X142244741Y-123428060D01*
X142247810Y-123421691D01*
X142249762Y-123422631D01*
X142272577Y-123386287D01*
X142568951Y-123089915D01*
X142651084Y-122966994D01*
X142707658Y-122830412D01*
X142736500Y-122685417D01*
X142736500Y-122537583D01*
X142736500Y-121506500D01*
X142756502Y-121438379D01*
X142810158Y-121391886D01*
X142862500Y-121380500D01*
X143587183Y-121380500D01*
X143587182Y-121380499D01*
X143685685Y-121370436D01*
X143845287Y-121317549D01*
X143988391Y-121229281D01*
X144039796Y-121177875D01*
X144102106Y-121143852D01*
X144172921Y-121148916D01*
X144229758Y-121191462D01*
X144234212Y-121198007D01*
X144235037Y-121199050D01*
X144354949Y-121318962D01*
X144354954Y-121318966D01*
X144354956Y-121318968D01*
X144499303Y-121408003D01*
X144660292Y-121461349D01*
X144759655Y-121471500D01*
X145356344Y-121471499D01*
X145356345Y-121471499D01*
X145376216Y-121469469D01*
X145455708Y-121461349D01*
X145616697Y-121408003D01*
X145761044Y-121318968D01*
X145796607Y-121283404D01*
X145858917Y-121249380D01*
X145885702Y-121246500D01*
X146750202Y-121246500D01*
X146750207Y-121246500D01*
X146810629Y-121234481D01*
X146871052Y-121222463D01*
X146924191Y-121200452D01*
X146984886Y-121175312D01*
X147042659Y-121136708D01*
X147087333Y-121106858D01*
X147174458Y-121019733D01*
X147184825Y-121009366D01*
X147184832Y-121009356D01*
X147207423Y-120986765D01*
X147269733Y-120952741D01*
X147340548Y-120957806D01*
X147385611Y-120986767D01*
X147399256Y-121000412D01*
X147399258Y-121000413D01*
X147551993Y-121096383D01*
X147551994Y-121096383D01*
X147551997Y-121096385D01*
X147722264Y-121155964D01*
X147901519Y-121176161D01*
X148080774Y-121155964D01*
X148251041Y-121096385D01*
X148264537Y-121087904D01*
X148379915Y-121015409D01*
X148442326Y-120997428D01*
X148442255Y-120996702D01*
X148446193Y-120996314D01*
X148446951Y-120996096D01*
X148448410Y-120996096D01*
X148448411Y-120996096D01*
X148512782Y-120983292D01*
X148569256Y-120972059D01*
X148631079Y-120946451D01*
X148683090Y-120924908D01*
X148740034Y-120886858D01*
X148785537Y-120856454D01*
X148872662Y-120769329D01*
X148872662Y-120769327D01*
X148883031Y-120758959D01*
X148883039Y-120758950D01*
X148927382Y-120714607D01*
X149093857Y-120548134D01*
X149132264Y-120490655D01*
X149137051Y-120483490D01*
X149191518Y-120437958D01*
X149261960Y-120429099D01*
X149290035Y-120437069D01*
X149398528Y-120482009D01*
X149398531Y-120482009D01*
X149404718Y-120484572D01*
X149459999Y-120529121D01*
X149482420Y-120596484D01*
X149482500Y-120600981D01*
X149482500Y-120618703D01*
X149462498Y-120686824D01*
X149436079Y-120716392D01*
X149403514Y-120742919D01*
X149016938Y-121129497D01*
X148953860Y-121206930D01*
X148953859Y-121206932D01*
X148877744Y-121358489D01*
X148847739Y-121485092D01*
X148838632Y-121523516D01*
X148838632Y-121534632D01*
X148818630Y-121602753D01*
X148764974Y-121649246D01*
X148712632Y-121660632D01*
X148701515Y-121660632D01*
X148552058Y-121696054D01*
X148536489Y-121699744D01*
X148384930Y-121775860D01*
X148384929Y-121775861D01*
X148307496Y-121838937D01*
X147920922Y-122225513D01*
X147857844Y-122302946D01*
X147781728Y-122454505D01*
X147742614Y-122619539D01*
X147742030Y-122624537D01*
X147714250Y-122689873D01*
X147655557Y-122729819D01*
X147586730Y-122732240D01*
X147509729Y-122713261D01*
X147509726Y-122713261D01*
X147339614Y-122713261D01*
X147339610Y-122713261D01*
X147174448Y-122753969D01*
X147174440Y-122753973D01*
X147023827Y-122833021D01*
X147023818Y-122833027D01*
X146969371Y-122878402D01*
X146500402Y-123347371D01*
X146455027Y-123401818D01*
X146455021Y-123401827D01*
X146375973Y-123552440D01*
X146375969Y-123552448D01*
X146335261Y-123717610D01*
X146335261Y-123887729D01*
X146375969Y-124052891D01*
X146375973Y-124052899D01*
X146455021Y-124203512D01*
X146455024Y-124203517D01*
X146455027Y-124203522D01*
X146500399Y-124257965D01*
X146863309Y-124620875D01*
X146917752Y-124666247D01*
X146917759Y-124666250D01*
X146917761Y-124666252D01*
X146980161Y-124699002D01*
X147068379Y-124745303D01*
X147068380Y-124745303D01*
X147068382Y-124745304D01*
X147183068Y-124773571D01*
X147233548Y-124786013D01*
X147233551Y-124786013D01*
X147375987Y-124786013D01*
X147444108Y-124806015D01*
X147490601Y-124859671D01*
X147501987Y-124912013D01*
X147501987Y-125054455D01*
X147542695Y-125219617D01*
X147542699Y-125219625D01*
X147621747Y-125370238D01*
X147621750Y-125370243D01*
X147621753Y-125370248D01*
X147667125Y-125424691D01*
X148030035Y-125787601D01*
X148084478Y-125832973D01*
X148084485Y-125832976D01*
X148084487Y-125832978D01*
X148148317Y-125866478D01*
X148235105Y-125912029D01*
X148235106Y-125912029D01*
X148235108Y-125912030D01*
X148391791Y-125950648D01*
X148400274Y-125952739D01*
X148400277Y-125952739D01*
X148570383Y-125952739D01*
X148570386Y-125952739D01*
X148735555Y-125912029D01*
X148886182Y-125832973D01*
X148940625Y-125787601D01*
X149409601Y-125318625D01*
X149454973Y-125264182D01*
X149454977Y-125264172D01*
X149455852Y-125262865D01*
X149456569Y-125262265D01*
X149459240Y-125259061D01*
X149459822Y-125259546D01*
X149510327Y-125217335D01*
X149580770Y-125208485D01*
X149636126Y-125231993D01*
X149746469Y-125314596D01*
X149746474Y-125314598D01*
X149746473Y-125314598D01*
X149806830Y-125337109D01*
X149881314Y-125364890D01*
X149881317Y-125364891D01*
X149940927Y-125371300D01*
X151336672Y-125371299D01*
X151396283Y-125364891D01*
X151531131Y-125314596D01*
X151613291Y-125253090D01*
X151679810Y-125228279D01*
X151749184Y-125243370D01*
X151764303Y-125253086D01*
X151846469Y-125314596D01*
X151846473Y-125314598D01*
X151906830Y-125337109D01*
X151981314Y-125364890D01*
X151981317Y-125364891D01*
X152040927Y-125371300D01*
X153436672Y-125371299D01*
X153496283Y-125364891D01*
X153631131Y-125314596D01*
X153746346Y-125228346D01*
X153832596Y-125113131D01*
X153882891Y-124978283D01*
X153889268Y-124918965D01*
X153916438Y-124853374D01*
X153974756Y-124812884D01*
X154000439Y-124807228D01*
X154033104Y-124803548D01*
X154052447Y-124801369D01*
X154052447Y-124801368D01*
X154052455Y-124801368D01*
X154131894Y-124773570D01*
X154173509Y-124766500D01*
X154555918Y-124766500D01*
X154561154Y-124765458D01*
X154563856Y-124764921D01*
X154588441Y-124762499D01*
X154984345Y-124762499D01*
X155004216Y-124760469D01*
X155083708Y-124752349D01*
X155244697Y-124699003D01*
X155389044Y-124609968D01*
X155449608Y-124549403D01*
X155511918Y-124515380D01*
X155538702Y-124512500D01*
X169779394Y-124512500D01*
X169914728Y-124485580D01*
X170042211Y-124432775D01*
X170156943Y-124356114D01*
X172959314Y-121553743D01*
X173035975Y-121439011D01*
X173088780Y-121311528D01*
X173115700Y-121176194D01*
X173115700Y-121038206D01*
X173115700Y-118428807D01*
X173091924Y-118309278D01*
X173098252Y-118238567D01*
X173141806Y-118182500D01*
X173208758Y-118158880D01*
X173215503Y-118158699D01*
X173297545Y-118158699D01*
X173317416Y-118156669D01*
X173396908Y-118148549D01*
X173557897Y-118095203D01*
X173702244Y-118006168D01*
X173710103Y-117998308D01*
X173772412Y-117964283D01*
X173843228Y-117969345D01*
X173888296Y-117998308D01*
X173896156Y-118006168D01*
X174040503Y-118095203D01*
X174201492Y-118148549D01*
X174300855Y-118158700D01*
X174847544Y-118158699D01*
X174847545Y-118158699D01*
X174867416Y-118156669D01*
X174946908Y-118148549D01*
X175107897Y-118095203D01*
X175252244Y-118006168D01*
X175252244Y-118006167D01*
X175256456Y-118003570D01*
X175324935Y-117984832D01*
X175388749Y-118003568D01*
X175475703Y-118057203D01*
X175636692Y-118110549D01*
X175736055Y-118120700D01*
X176332744Y-118120699D01*
X176332745Y-118120699D01*
X176352616Y-118118669D01*
X176432108Y-118110549D01*
X176593097Y-118057203D01*
X176677812Y-118004949D01*
X176746289Y-117986212D01*
X176810105Y-118004949D01*
X176814207Y-118007479D01*
X176814209Y-118007481D01*
X176957313Y-118095749D01*
X176957315Y-118095749D01*
X176957316Y-118095750D01*
X177116908Y-118148634D01*
X177116909Y-118148634D01*
X177116915Y-118148636D01*
X177215417Y-118158699D01*
X177215417Y-118158700D01*
X177545519Y-118158700D01*
X177613640Y-118178702D01*
X177634614Y-118195605D01*
X178381037Y-118942028D01*
X178374974Y-118944540D01*
X178235756Y-119037562D01*
X178117362Y-119155956D01*
X178024340Y-119295174D01*
X178021828Y-119301237D01*
X177296503Y-118575912D01*
X177296502Y-118575913D01*
X177210557Y-118690724D01*
X177083187Y-118923985D01*
X176990307Y-119173006D01*
X176933813Y-119432707D01*
X176914854Y-119697800D01*
X176933813Y-119962892D01*
X176990307Y-120222593D01*
X177083187Y-120471614D01*
X177210558Y-120704876D01*
X177296503Y-120819685D01*
X177296503Y-120819686D01*
X178021828Y-120094361D01*
X178024340Y-120100426D01*
X178117362Y-120239644D01*
X178235756Y-120358038D01*
X178374974Y-120451060D01*
X178381036Y-120453571D01*
X177655712Y-121178895D01*
X177655713Y-121178896D01*
X177770519Y-121264839D01*
X178003785Y-121392212D01*
X178252806Y-121485092D01*
X178512507Y-121541586D01*
X178777600Y-121560545D01*
X179042692Y-121541586D01*
X179302393Y-121485092D01*
X179551414Y-121392212D01*
X179784676Y-121264842D01*
X179899485Y-121178895D01*
X179899486Y-121178895D01*
X179174162Y-120453571D01*
X179180226Y-120451060D01*
X179319444Y-120358038D01*
X179437838Y-120239644D01*
X179530860Y-120100426D01*
X179533371Y-120094362D01*
X180258695Y-120819686D01*
X180258695Y-120819685D01*
X180344642Y-120704876D01*
X180472012Y-120471614D01*
X180564892Y-120222593D01*
X180621386Y-119962892D01*
X180640345Y-119697800D01*
X180624553Y-119476991D01*
X180639644Y-119407617D01*
X180689846Y-119357415D01*
X180759221Y-119342323D01*
X180774807Y-119344422D01*
X181023220Y-119393834D01*
X181191437Y-119404859D01*
X181317597Y-119413129D01*
X181317600Y-119413129D01*
X181317603Y-119413129D01*
X181427992Y-119405893D01*
X181611980Y-119393834D01*
X181860387Y-119344423D01*
X181931099Y-119350751D01*
X181987167Y-119394305D01*
X182010786Y-119461258D01*
X182010646Y-119476990D01*
X181994854Y-119697799D01*
X182013813Y-119962892D01*
X182070307Y-120222593D01*
X182163187Y-120471614D01*
X182290558Y-120704876D01*
X182376503Y-120819685D01*
X182376503Y-120819686D01*
X183101827Y-120094361D01*
X183104340Y-120100426D01*
X183197362Y-120239644D01*
X183315756Y-120358038D01*
X183454974Y-120451060D01*
X183461036Y-120453571D01*
X182735712Y-121178895D01*
X182735713Y-121178896D01*
X182850519Y-121264839D01*
X183083785Y-121392212D01*
X183332806Y-121485092D01*
X183592507Y-121541586D01*
X183857600Y-121560545D01*
X184122692Y-121541586D01*
X184382393Y-121485092D01*
X184631414Y-121392212D01*
X184864676Y-121264842D01*
X184979485Y-121178895D01*
X184979486Y-121178895D01*
X184254162Y-120453571D01*
X184260226Y-120451060D01*
X184399444Y-120358038D01*
X184517838Y-120239644D01*
X184610860Y-120100426D01*
X184613371Y-120094362D01*
X185338695Y-120819686D01*
X185338695Y-120819685D01*
X185424642Y-120704876D01*
X185552012Y-120471614D01*
X185644892Y-120222593D01*
X185701386Y-119962892D01*
X185720345Y-119697800D01*
X185701386Y-119432707D01*
X185644892Y-119173006D01*
X185552012Y-118923985D01*
X185424639Y-118690719D01*
X185338696Y-118575913D01*
X185338695Y-118575912D01*
X184613371Y-119301236D01*
X184610860Y-119295174D01*
X184517838Y-119155956D01*
X184399444Y-119037562D01*
X184260226Y-118944540D01*
X184254161Y-118942027D01*
X184979486Y-118216703D01*
X184864676Y-118130758D01*
X184631414Y-118003387D01*
X184464964Y-117941305D01*
X184408129Y-117898758D01*
X184383318Y-117832238D01*
X184398410Y-117762863D01*
X184401741Y-117757127D01*
X184426803Y-117716497D01*
X184480149Y-117555508D01*
X184490300Y-117456145D01*
X184490299Y-116859456D01*
X184488277Y-116839666D01*
X184486197Y-116819297D01*
X184480149Y-116760092D01*
X184426803Y-116599103D01*
X184418057Y-116584924D01*
X184401757Y-116558497D01*
X184383019Y-116490018D01*
X184404278Y-116422279D01*
X184458785Y-116376787D01*
X184464965Y-116374294D01*
X184631412Y-116312213D01*
X184864676Y-116184842D01*
X184979485Y-116098895D01*
X184979486Y-116098895D01*
X184254162Y-115373571D01*
X184260226Y-115371060D01*
X184399444Y-115278038D01*
X184517838Y-115159644D01*
X184610860Y-115020426D01*
X184613371Y-115014362D01*
X185338695Y-115739686D01*
X185338695Y-115739685D01*
X185424642Y-115624876D01*
X185552012Y-115391614D01*
X185644892Y-115142593D01*
X185701386Y-114882892D01*
X185720345Y-114617800D01*
X185701386Y-114352707D01*
X185644892Y-114093006D01*
X185552012Y-113843985D01*
X185424639Y-113610719D01*
X185338696Y-113495913D01*
X185338695Y-113495912D01*
X184613371Y-114221236D01*
X184610860Y-114215174D01*
X184517838Y-114075956D01*
X184399444Y-113957562D01*
X184260226Y-113864540D01*
X184254162Y-113862028D01*
X184979486Y-113136703D01*
X184864676Y-113050758D01*
X184631414Y-112923387D01*
X184382393Y-112830507D01*
X184122692Y-112774013D01*
X183857600Y-112755054D01*
X183592507Y-112774013D01*
X183332806Y-112830507D01*
X183083785Y-112923387D01*
X182850524Y-113050757D01*
X182735713Y-113136702D01*
X182735712Y-113136703D01*
X183461037Y-113862028D01*
X183454974Y-113864540D01*
X183315756Y-113957562D01*
X183197362Y-114075956D01*
X183104340Y-114215174D01*
X183101828Y-114221237D01*
X182376503Y-113495912D01*
X182376502Y-113495913D01*
X182290557Y-113610724D01*
X182163187Y-113843985D01*
X182070307Y-114093006D01*
X182013813Y-114352707D01*
X181994854Y-114617800D01*
X182010646Y-114838609D01*
X181995554Y-114907983D01*
X181945352Y-114958185D01*
X181875978Y-114973276D01*
X181860386Y-114971176D01*
X181611993Y-114921768D01*
X181611975Y-114921765D01*
X181317603Y-114902471D01*
X181317597Y-114902471D01*
X181023224Y-114921765D01*
X181023206Y-114921768D01*
X180774813Y-114971176D01*
X180704099Y-114964848D01*
X180648032Y-114921293D01*
X180624413Y-114854341D01*
X180624553Y-114838608D01*
X180640345Y-114617799D01*
X180621386Y-114352707D01*
X180564892Y-114093006D01*
X180472012Y-113843985D01*
X180344639Y-113610719D01*
X180258696Y-113495913D01*
X179533371Y-114221238D01*
X179530860Y-114215174D01*
X179437838Y-114075956D01*
X179319444Y-113957562D01*
X179180226Y-113864540D01*
X179174162Y-113862028D01*
X179899486Y-113136703D01*
X179784676Y-113050758D01*
X179551414Y-112923387D01*
X179302393Y-112830507D01*
X179042692Y-112774013D01*
X178777600Y-112755054D01*
X178512507Y-112774013D01*
X178252806Y-112830507D01*
X178003785Y-112923387D01*
X177770524Y-113050757D01*
X177655713Y-113136702D01*
X177655712Y-113136703D01*
X178381037Y-113862028D01*
X178374974Y-113864540D01*
X178235756Y-113957562D01*
X178117362Y-114075956D01*
X178024340Y-114215174D01*
X178021828Y-114221237D01*
X177296503Y-113495912D01*
X177296502Y-113495913D01*
X177210557Y-113610724D01*
X177083187Y-113843985D01*
X176990307Y-114093006D01*
X176933813Y-114352707D01*
X176914854Y-114617800D01*
X176933813Y-114882892D01*
X176990307Y-115142593D01*
X177083187Y-115391614D01*
X177210558Y-115624876D01*
X177296503Y-115739685D01*
X177296503Y-115739686D01*
X178021828Y-115014361D01*
X178024340Y-115020426D01*
X178117362Y-115159644D01*
X178235756Y-115278038D01*
X178374974Y-115371060D01*
X178381038Y-115373571D01*
X177646039Y-116108569D01*
X177638748Y-116142086D01*
X177588545Y-116192288D01*
X177528161Y-116207700D01*
X177215417Y-116207700D01*
X177116920Y-116217763D01*
X177116908Y-116217765D01*
X176957315Y-116270650D01*
X176957312Y-116270651D01*
X176831180Y-116348450D01*
X176762701Y-116367187D01*
X176698888Y-116348450D01*
X176593097Y-116283197D01*
X176432108Y-116229851D01*
X176432104Y-116229850D01*
X176432102Y-116229850D01*
X176332753Y-116219700D01*
X175736054Y-116219700D01*
X175636695Y-116229850D01*
X175475701Y-116283197D01*
X175367673Y-116349830D01*
X175299194Y-116368567D01*
X175235380Y-116349830D01*
X175107897Y-116271197D01*
X175090704Y-116265500D01*
X174946908Y-116217851D01*
X174946904Y-116217850D01*
X174946902Y-116217850D01*
X174847553Y-116207700D01*
X174300854Y-116207700D01*
X174201495Y-116217850D01*
X174040503Y-116271197D01*
X173896155Y-116360232D01*
X173896149Y-116360237D01*
X173888295Y-116368092D01*
X173825983Y-116402118D01*
X173755168Y-116397053D01*
X173710105Y-116368092D01*
X173702250Y-116360237D01*
X173702244Y-116360232D01*
X173557897Y-116271197D01*
X173540704Y-116265500D01*
X173396908Y-116217851D01*
X173396904Y-116217850D01*
X173396902Y-116217850D01*
X173297553Y-116207700D01*
X172750854Y-116207700D01*
X172651495Y-116217850D01*
X172651492Y-116217851D01*
X172544866Y-116253183D01*
X172473913Y-116255623D01*
X172412903Y-116219314D01*
X172388828Y-116181799D01*
X172362136Y-116117359D01*
X172265882Y-115991918D01*
X172242178Y-115973729D01*
X172214118Y-115943769D01*
X172203501Y-115927880D01*
X172156714Y-115857857D01*
X172156712Y-115857855D01*
X172156707Y-115857849D01*
X171256004Y-114957146D01*
X171221978Y-114894834D01*
X171219099Y-114868051D01*
X171219099Y-114662054D01*
X171210335Y-114576258D01*
X171208949Y-114562692D01*
X171155603Y-114401703D01*
X171066568Y-114257356D01*
X171066567Y-114257355D01*
X171066562Y-114257349D01*
X170946650Y-114137437D01*
X170946644Y-114137432D01*
X170802297Y-114048397D01*
X170641308Y-113995051D01*
X170641304Y-113995050D01*
X170641302Y-113995050D01*
X170541953Y-113984900D01*
X169995254Y-113984900D01*
X169895895Y-113995050D01*
X169749279Y-114043633D01*
X169678324Y-114046073D01*
X169617314Y-114009764D01*
X169585619Y-113946235D01*
X169593302Y-113875655D01*
X169601813Y-113858854D01*
X169676078Y-113736006D01*
X169726686Y-113573596D01*
X169733100Y-113503016D01*
X169733100Y-112989784D01*
X169726686Y-112919204D01*
X169676387Y-112757785D01*
X169676079Y-112756797D01*
X169676078Y-112756796D01*
X169676078Y-112756794D01*
X169588072Y-112611215D01*
X169588071Y-112611214D01*
X169588067Y-112611209D01*
X169495005Y-112518147D01*
X169460979Y-112455835D01*
X169458100Y-112429052D01*
X169458100Y-111982869D01*
X169477414Y-111915831D01*
X169483389Y-111906322D01*
X169542968Y-111736055D01*
X169563165Y-111556800D01*
X169542968Y-111377545D01*
X169483389Y-111207278D01*
X169483387Y-111207275D01*
X169483387Y-111207274D01*
X169387417Y-111054539D01*
X169387416Y-111054537D01*
X169259862Y-110926983D01*
X169259860Y-110926982D01*
X169107125Y-110831012D01*
X169107122Y-110831011D01*
X169006463Y-110795789D01*
X168936855Y-110771432D01*
X168757600Y-110751235D01*
X168578345Y-110771432D01*
X168578342Y-110771432D01*
X168578342Y-110771433D01*
X168408077Y-110831011D01*
X168408074Y-110831012D01*
X168255339Y-110926982D01*
X168255337Y-110926983D01*
X168127783Y-111054537D01*
X168127782Y-111054539D01*
X168031812Y-111207274D01*
X168031811Y-111207277D01*
X168031811Y-111207278D01*
X167972232Y-111377545D01*
X167952035Y-111556800D01*
X167972232Y-111736055D01*
X168024323Y-111884922D01*
X168031811Y-111906322D01*
X168031810Y-111906322D01*
X168037786Y-111915831D01*
X168057100Y-111982869D01*
X168057100Y-112429052D01*
X168037098Y-112497173D01*
X168020195Y-112518147D01*
X167927132Y-112611209D01*
X167927128Y-112611214D01*
X167839121Y-112756796D01*
X167839120Y-112756797D01*
X167788513Y-112919206D01*
X167783265Y-112976958D01*
X167782100Y-112989784D01*
X167782100Y-113503016D01*
X167783848Y-113522255D01*
X167788513Y-113573593D01*
X167839120Y-113736002D01*
X167839121Y-113736003D01*
X167839122Y-113736006D01*
X167904398Y-113843985D01*
X167927128Y-113881585D01*
X167927132Y-113881590D01*
X168027847Y-113982305D01*
X168061873Y-114044617D01*
X168056808Y-114115432D01*
X168027847Y-114160495D01*
X167927132Y-114261209D01*
X167927128Y-114261214D01*
X167904624Y-114298441D01*
X167848052Y-114392023D01*
X167839121Y-114406796D01*
X167839120Y-114406797D01*
X167788513Y-114569206D01*
X167785241Y-114605222D01*
X167782100Y-114639784D01*
X167782100Y-115153016D01*
X167783832Y-115172071D01*
X167788513Y-115223593D01*
X167839120Y-115386002D01*
X167839121Y-115386003D01*
X167839122Y-115386006D01*
X167894039Y-115476849D01*
X167927128Y-115531585D01*
X167927132Y-115531590D01*
X167939747Y-115544205D01*
X167973773Y-115606517D01*
X167968708Y-115677332D01*
X167926161Y-115734168D01*
X167859641Y-115758979D01*
X167850652Y-115759300D01*
X160949682Y-115759300D01*
X160911923Y-115766811D01*
X160804686Y-115788142D01*
X160804683Y-115788143D01*
X160668104Y-115844716D01*
X160668100Y-115844718D01*
X160575390Y-115906665D01*
X160507637Y-115927880D01*
X160505390Y-115927900D01*
X160356654Y-115927900D01*
X160257295Y-115938050D01*
X160096303Y-115991397D01*
X159964193Y-116072884D01*
X159895714Y-116091621D01*
X159827975Y-116070362D01*
X159808951Y-116054738D01*
X159796650Y-116042437D01*
X159796644Y-116042432D01*
X159652297Y-115953397D01*
X159605982Y-115938050D01*
X159491308Y-115900051D01*
X159491304Y-115900050D01*
X159491302Y-115900050D01*
X159391953Y-115889900D01*
X158845254Y-115889900D01*
X158745895Y-115900050D01*
X158745892Y-115900051D01*
X158667419Y-115926054D01*
X158596465Y-115928494D01*
X158535455Y-115892185D01*
X158503760Y-115828656D01*
X158507862Y-115771312D01*
X158507508Y-115771237D01*
X158508049Y-115768708D01*
X158508184Y-115766814D01*
X158508949Y-115764508D01*
X158519100Y-115665145D01*
X158519099Y-115068456D01*
X158515748Y-115035656D01*
X158511024Y-114989403D01*
X158508949Y-114969092D01*
X158455603Y-114808103D01*
X158366568Y-114663756D01*
X158366567Y-114663755D01*
X158366562Y-114663749D01*
X158246650Y-114543837D01*
X158246644Y-114543832D01*
X158102297Y-114454797D01*
X157941308Y-114401451D01*
X157941304Y-114401450D01*
X157941302Y-114401450D01*
X157841953Y-114391300D01*
X157295254Y-114391300D01*
X157195895Y-114401450D01*
X157034903Y-114454797D01*
X156890555Y-114543832D01*
X156858123Y-114576264D01*
X156795811Y-114610288D01*
X156724995Y-114605222D01*
X156679931Y-114576259D01*
X156675391Y-114571719D01*
X156532287Y-114483451D01*
X156532285Y-114483450D01*
X156532283Y-114483449D01*
X156372691Y-114430565D01*
X156372679Y-114430563D01*
X156274182Y-114420500D01*
X156274174Y-114420500D01*
X155665826Y-114420500D01*
X155665817Y-114420500D01*
X155567320Y-114430563D01*
X155567308Y-114430565D01*
X155407716Y-114483449D01*
X155264608Y-114571719D01*
X155264602Y-114571724D01*
X155145724Y-114690602D01*
X155145719Y-114690608D01*
X155057450Y-114833715D01*
X155032399Y-114909311D01*
X154991984Y-114967682D01*
X154952056Y-114989403D01*
X154903894Y-115005196D01*
X154903887Y-115005198D01*
X154728101Y-115094467D01*
X154660092Y-115143331D01*
X154656575Y-115145768D01*
X154607479Y-115178573D01*
X154607465Y-115178584D01*
X154605651Y-115180399D01*
X154590091Y-115193615D01*
X154583980Y-115198005D01*
X154544729Y-115241126D01*
X154540646Y-115245404D01*
X153361642Y-116424408D01*
X153320776Y-116451717D01*
X153314508Y-116454313D01*
X153314503Y-116454316D01*
X153191588Y-116536446D01*
X153191581Y-116536451D01*
X153087051Y-116640981D01*
X153087046Y-116640988D01*
X153037926Y-116714502D01*
X152983449Y-116760030D01*
X152933161Y-116770500D01*
X152813996Y-116770500D01*
X152745875Y-116750498D01*
X152699382Y-116696842D01*
X152689278Y-116626568D01*
X152692290Y-116611888D01*
X152694008Y-116605474D01*
X152694007Y-116605474D01*
X152694009Y-116605472D01*
X152708500Y-116495401D01*
X152708499Y-116296600D01*
X152697866Y-116215830D01*
X152708805Y-116145684D01*
X152733688Y-116110296D01*
X154932458Y-113911528D01*
X155000912Y-113809080D01*
X155035271Y-113726130D01*
X155048063Y-113695247D01*
X155053216Y-113669339D01*
X155053917Y-113665818D01*
X155064318Y-113613525D01*
X155072101Y-113574401D01*
X155072101Y-113451188D01*
X155072101Y-113445996D01*
X155072100Y-113445970D01*
X155072100Y-110321408D01*
X155072100Y-110321406D01*
X155069645Y-110309066D01*
X155058462Y-110252842D01*
X155055801Y-110239464D01*
X155048065Y-110200565D01*
X155048063Y-110200560D01*
X155040411Y-110182087D01*
X155032821Y-110111498D01*
X155064599Y-110048010D01*
X155125656Y-110011781D01*
X155170921Y-110008659D01*
X155321000Y-110025569D01*
X155500255Y-110005372D01*
X155670522Y-109945793D01*
X155823262Y-109849820D01*
X155950816Y-109722266D01*
X156046789Y-109569526D01*
X156106368Y-109399259D01*
X156126565Y-109220004D01*
X156106368Y-109040749D01*
X156106365Y-109040740D01*
X156104792Y-109033847D01*
X156107635Y-109033197D01*
X156104655Y-108975403D01*
X156138124Y-108915531D01*
X156151472Y-108902185D01*
X156239478Y-108756606D01*
X156290086Y-108594196D01*
X156296500Y-108523616D01*
X156296500Y-108010384D01*
X156290086Y-107939804D01*
X156239478Y-107777394D01*
X156151472Y-107631815D01*
X156151471Y-107631814D01*
X156151467Y-107631809D01*
X156050753Y-107531095D01*
X156016727Y-107468783D01*
X156021792Y-107397968D01*
X156050753Y-107352905D01*
X156151467Y-107252190D01*
X156151472Y-107252185D01*
X156239478Y-107106606D01*
X156290086Y-106944196D01*
X156296500Y-106873616D01*
X156296500Y-106360384D01*
X156290086Y-106289804D01*
X156239478Y-106127394D01*
X156151472Y-105981815D01*
X156151471Y-105981814D01*
X156151467Y-105981809D01*
X156031190Y-105861532D01*
X156031185Y-105861528D01*
X155885606Y-105773522D01*
X155885603Y-105773521D01*
X155885602Y-105773520D01*
X155723193Y-105722913D01*
X155671855Y-105718248D01*
X155652616Y-105716500D01*
X155652613Y-105716500D01*
X155620837Y-105716500D01*
X155552716Y-105696498D01*
X155506223Y-105642842D01*
X155496119Y-105572568D01*
X155525613Y-105507988D01*
X155531742Y-105501405D01*
X155537276Y-105495870D01*
X155537281Y-105495865D01*
X155620944Y-105354398D01*
X155666798Y-105196569D01*
X155669700Y-105159694D01*
X155669700Y-103628306D01*
X155666798Y-103591431D01*
X155620944Y-103433602D01*
X155620942Y-103433598D01*
X155537282Y-103292136D01*
X155537276Y-103292129D01*
X155421070Y-103175923D01*
X155421063Y-103175917D01*
X155279601Y-103092257D01*
X155121768Y-103046401D01*
X155087795Y-103043728D01*
X155084894Y-103043500D01*
X154653506Y-103043500D01*
X154650605Y-103043728D01*
X154616632Y-103046401D01*
X154616631Y-103046401D01*
X154458798Y-103092257D01*
X154310512Y-103179954D01*
X154309110Y-103177584D01*
X154255321Y-103198694D01*
X154185701Y-103184783D01*
X154177970Y-103179814D01*
X154177888Y-103179954D01*
X154029601Y-103092257D01*
X153871768Y-103046401D01*
X153837795Y-103043728D01*
X153834894Y-103043500D01*
X153403506Y-103043500D01*
X153400605Y-103043728D01*
X153366632Y-103046401D01*
X153366631Y-103046401D01*
X153208798Y-103092257D01*
X153060512Y-103179954D01*
X153059110Y-103177584D01*
X153005321Y-103198694D01*
X152935701Y-103184783D01*
X152927970Y-103179814D01*
X152927888Y-103179954D01*
X152779601Y-103092257D01*
X152621768Y-103046401D01*
X152587795Y-103043728D01*
X152584894Y-103043500D01*
X152153506Y-103043500D01*
X152150605Y-103043728D01*
X152116632Y-103046401D01*
X152116631Y-103046401D01*
X151958798Y-103092257D01*
X151810512Y-103179954D01*
X151809110Y-103177584D01*
X151755321Y-103198694D01*
X151685701Y-103184783D01*
X151677970Y-103179814D01*
X151677888Y-103179954D01*
X151529601Y-103092257D01*
X151371768Y-103046401D01*
X151337795Y-103043728D01*
X151334894Y-103043500D01*
X150903506Y-103043500D01*
X150900605Y-103043728D01*
X150866632Y-103046401D01*
X150866631Y-103046401D01*
X150708798Y-103092257D01*
X150560512Y-103179954D01*
X150559110Y-103177584D01*
X150505321Y-103198694D01*
X150435701Y-103184783D01*
X150427970Y-103179814D01*
X150427888Y-103179954D01*
X150279601Y-103092257D01*
X150121768Y-103046401D01*
X150087795Y-103043728D01*
X150084894Y-103043500D01*
X149653506Y-103043500D01*
X149650605Y-103043728D01*
X149616632Y-103046401D01*
X149616631Y-103046401D01*
X149458798Y-103092257D01*
X149310512Y-103179954D01*
X149309110Y-103177584D01*
X149255321Y-103198694D01*
X149185701Y-103184783D01*
X149177970Y-103179814D01*
X149177888Y-103179954D01*
X149029601Y-103092257D01*
X148871768Y-103046401D01*
X148837795Y-103043728D01*
X148834894Y-103043500D01*
X148403506Y-103043500D01*
X148400605Y-103043728D01*
X148366632Y-103046401D01*
X148366631Y-103046401D01*
X148208798Y-103092257D01*
X148067336Y-103175917D01*
X148067329Y-103175923D01*
X147951123Y-103292129D01*
X147951117Y-103292136D01*
X147867457Y-103433598D01*
X147821601Y-103591431D01*
X147821601Y-103591432D01*
X147818700Y-103628306D01*
X147818700Y-104912500D01*
X147798698Y-104980621D01*
X147745042Y-105027114D01*
X147692700Y-105038500D01*
X145877486Y-105038500D01*
X145809365Y-105018498D01*
X145762872Y-104964842D01*
X145752003Y-104923902D01*
X145749086Y-104891806D01*
X145749086Y-104891804D01*
X145698478Y-104729394D01*
X145610472Y-104583815D01*
X145610471Y-104583814D01*
X145610467Y-104583809D01*
X145509753Y-104483095D01*
X145475727Y-104420783D01*
X145480792Y-104349968D01*
X145509753Y-104304905D01*
X145610467Y-104204190D01*
X145610472Y-104204185D01*
X145698478Y-104058606D01*
X145749086Y-103896196D01*
X145755500Y-103825616D01*
X145755500Y-103312384D01*
X145749086Y-103241804D01*
X145698478Y-103079394D01*
X145610472Y-102933815D01*
X145610471Y-102933814D01*
X145610467Y-102933809D01*
X145490190Y-102813532D01*
X145490185Y-102813528D01*
X145344606Y-102725522D01*
X145344603Y-102725521D01*
X145344602Y-102725520D01*
X145182193Y-102674913D01*
X145130855Y-102670248D01*
X145111616Y-102668500D01*
X145111613Y-102668500D01*
X144753280Y-102668500D01*
X144685159Y-102648498D01*
X144664185Y-102631595D01*
X144508268Y-102475678D01*
X144508248Y-102475656D01*
X144416738Y-102384146D01*
X144416732Y-102384141D01*
X144365509Y-102349915D01*
X144314286Y-102315688D01*
X144314287Y-102315688D01*
X144314285Y-102315687D01*
X144233792Y-102282347D01*
X144233790Y-102282345D01*
X144233790Y-102282346D01*
X144200459Y-102268539D01*
X144200453Y-102268537D01*
X144170240Y-102262527D01*
X144140029Y-102256518D01*
X144140028Y-102256517D01*
X144079611Y-102244500D01*
X144079607Y-102244500D01*
X144079606Y-102244500D01*
X143797922Y-102244500D01*
X143729801Y-102224498D01*
X143683308Y-102170842D01*
X143678993Y-102160115D01*
X143646030Y-102065914D01*
X143646027Y-102065907D01*
X143562401Y-101952598D01*
X143449092Y-101868972D01*
X143449087Y-101868970D01*
X143316171Y-101822460D01*
X143316166Y-101822459D01*
X143284612Y-101819500D01*
X143284610Y-101819500D01*
X142565905Y-101819500D01*
X142497784Y-101799498D01*
X142461140Y-101763502D01*
X142391789Y-101659711D01*
X142280289Y-101548211D01*
X142149179Y-101460606D01*
X142003497Y-101400263D01*
X141848844Y-101369500D01*
X141848842Y-101369500D01*
X141835892Y-101369500D01*
X140235892Y-101369500D01*
X140170000Y-101369500D01*
X140091158Y-101369500D01*
X140091155Y-101369500D01*
X139936502Y-101400263D01*
X139936497Y-101400265D01*
X139790820Y-101460606D01*
X139659715Y-101548208D01*
X139659708Y-101548213D01*
X139548213Y-101659708D01*
X139548208Y-101659715D01*
X139460606Y-101790820D01*
X139400265Y-101936497D01*
X139400263Y-101936502D01*
X139369500Y-102091155D01*
X139369500Y-103648844D01*
X139392855Y-103766256D01*
X139400263Y-103803497D01*
X139460606Y-103949179D01*
X139548211Y-104080289D01*
X139659711Y-104191789D01*
X139790821Y-104279394D01*
X139936503Y-104339737D01*
X140091158Y-104370500D01*
X140091159Y-104370500D01*
X141848841Y-104370500D01*
X141848842Y-104370500D01*
X142003497Y-104339737D01*
X142149179Y-104279394D01*
X142280289Y-104191789D01*
X142391789Y-104080289D01*
X142461140Y-103976497D01*
X142515617Y-103930970D01*
X142565905Y-103920500D01*
X143284607Y-103920500D01*
X143284610Y-103920500D01*
X143316166Y-103917541D01*
X143449091Y-103871028D01*
X143562401Y-103787401D01*
X143578007Y-103766254D01*
X143634551Y-103723324D01*
X143705331Y-103717777D01*
X143767873Y-103751377D01*
X143802321Y-103813456D01*
X143804869Y-103829675D01*
X143810913Y-103896193D01*
X143861520Y-104058602D01*
X143861521Y-104058603D01*
X143861522Y-104058606D01*
X143942033Y-104191786D01*
X143949528Y-104204185D01*
X143949532Y-104204190D01*
X144050247Y-104304905D01*
X144084273Y-104367217D01*
X144079208Y-104438032D01*
X144050247Y-104483095D01*
X143949532Y-104583809D01*
X143949528Y-104583814D01*
X143861521Y-104729396D01*
X143861520Y-104729397D01*
X143810913Y-104891806D01*
X143809033Y-104912500D01*
X143804562Y-104961708D01*
X143804500Y-104962386D01*
X143804500Y-105199722D01*
X143784498Y-105267843D01*
X143730842Y-105314336D01*
X143660568Y-105324440D01*
X143595988Y-105294946D01*
X143577121Y-105274544D01*
X143562401Y-105254599D01*
X143562399Y-105254598D01*
X143562399Y-105254597D01*
X143449092Y-105170972D01*
X143449087Y-105170970D01*
X143316171Y-105124460D01*
X143316166Y-105124459D01*
X143284612Y-105121500D01*
X143284610Y-105121500D01*
X142565905Y-105121500D01*
X142497784Y-105101498D01*
X142461140Y-105065502D01*
X142404424Y-104980621D01*
X142391789Y-104961711D01*
X142280289Y-104850211D01*
X142149179Y-104762606D01*
X142003497Y-104702263D01*
X141848844Y-104671500D01*
X141848842Y-104671500D01*
X141835892Y-104671500D01*
X140235892Y-104671500D01*
X140170000Y-104671500D01*
X140091158Y-104671500D01*
X140091155Y-104671500D01*
X139936502Y-104702263D01*
X139936497Y-104702265D01*
X139790820Y-104762606D01*
X139659715Y-104850208D01*
X139659708Y-104850213D01*
X139548213Y-104961708D01*
X139548208Y-104961715D01*
X139460606Y-105092820D01*
X139400265Y-105238497D01*
X139400263Y-105238502D01*
X139369500Y-105393155D01*
X139369500Y-106950844D01*
X139394214Y-107075088D01*
X139400263Y-107105497D01*
X139460606Y-107251179D01*
X139548211Y-107382289D01*
X139659711Y-107493789D01*
X139790821Y-107581394D01*
X139936503Y-107641737D01*
X140091158Y-107672500D01*
X140091159Y-107672500D01*
X141848841Y-107672500D01*
X141848842Y-107672500D01*
X142003497Y-107641737D01*
X142149179Y-107581394D01*
X142280289Y-107493789D01*
X142391789Y-107382289D01*
X142461140Y-107278497D01*
X142515617Y-107232970D01*
X142565905Y-107222500D01*
X143284607Y-107222500D01*
X143284610Y-107222500D01*
X143316166Y-107219541D01*
X143382628Y-107196284D01*
X143449086Y-107173030D01*
X143449086Y-107173029D01*
X143449091Y-107173028D01*
X143478503Y-107151320D01*
X143545184Y-107126964D01*
X143614454Y-107142525D01*
X143642416Y-107163606D01*
X143817448Y-107338638D01*
X143851474Y-107400950D01*
X143848648Y-107465217D01*
X143822913Y-107547806D01*
X143816500Y-107618386D01*
X143816500Y-108281613D01*
X143822913Y-108352193D01*
X143873520Y-108514602D01*
X143873521Y-108514603D01*
X143873522Y-108514606D01*
X143921636Y-108594196D01*
X143953445Y-108646814D01*
X143971569Y-108715459D01*
X143953450Y-108777175D01*
X143947103Y-108787676D01*
X143894748Y-108835629D01*
X143839270Y-108848500D01*
X143797922Y-108848500D01*
X143729801Y-108828498D01*
X143683308Y-108774842D01*
X143678993Y-108764115D01*
X143646030Y-108669914D01*
X143646027Y-108669907D01*
X143562401Y-108556598D01*
X143449092Y-108472972D01*
X143449087Y-108472970D01*
X143316171Y-108426460D01*
X143316166Y-108426459D01*
X143284612Y-108423500D01*
X143284610Y-108423500D01*
X142565905Y-108423500D01*
X142497784Y-108403498D01*
X142461140Y-108367502D01*
X142450911Y-108352193D01*
X142391789Y-108263711D01*
X142280289Y-108152211D01*
X142149179Y-108064606D01*
X142003497Y-108004263D01*
X141848844Y-107973500D01*
X141848842Y-107973500D01*
X141835892Y-107973500D01*
X140235892Y-107973500D01*
X140170000Y-107973500D01*
X140091158Y-107973500D01*
X140091155Y-107973500D01*
X139936502Y-108004263D01*
X139936497Y-108004265D01*
X139790820Y-108064606D01*
X139659715Y-108152208D01*
X139659708Y-108152213D01*
X139548213Y-108263708D01*
X139548208Y-108263715D01*
X139460606Y-108394820D01*
X139400265Y-108540497D01*
X139400263Y-108540502D01*
X139369500Y-108695155D01*
X139369500Y-108695158D01*
X139369500Y-108708108D01*
X139369500Y-110108108D01*
X139369500Y-110174000D01*
X139369500Y-110252842D01*
X139400263Y-110407497D01*
X139460606Y-110553179D01*
X139548211Y-110684289D01*
X139659711Y-110795789D01*
X139790821Y-110883394D01*
X139936503Y-110943737D01*
X140091158Y-110974500D01*
X140091159Y-110974500D01*
X141848841Y-110974500D01*
X141848842Y-110974500D01*
X142003497Y-110943737D01*
X142149179Y-110883394D01*
X142280289Y-110795789D01*
X142391789Y-110684289D01*
X142461140Y-110580497D01*
X142515617Y-110534970D01*
X142565905Y-110524500D01*
X143284607Y-110524500D01*
X143284610Y-110524500D01*
X143316166Y-110521541D01*
X143449091Y-110475028D01*
X143562401Y-110391401D01*
X143646028Y-110278091D01*
X143654863Y-110252842D01*
X143678993Y-110183885D01*
X143720371Y-110126193D01*
X143786372Y-110100031D01*
X143797922Y-110099500D01*
X143839270Y-110099500D01*
X143907391Y-110119502D01*
X143947099Y-110160317D01*
X143953448Y-110170819D01*
X143971569Y-110239464D01*
X143953445Y-110301184D01*
X143889175Y-110407502D01*
X143873520Y-110433398D01*
X143822913Y-110595806D01*
X143817665Y-110653558D01*
X143816500Y-110666384D01*
X143816500Y-111329616D01*
X143817248Y-111337842D01*
X143822913Y-111400193D01*
X143873520Y-111562602D01*
X143873521Y-111562603D01*
X143873522Y-111562606D01*
X143917591Y-111635504D01*
X143961528Y-111708185D01*
X143961532Y-111708190D01*
X144081809Y-111828467D01*
X144081814Y-111828471D01*
X144081815Y-111828472D01*
X144227394Y-111916478D01*
X144389804Y-111967086D01*
X144460384Y-111973500D01*
X144460387Y-111973500D01*
X144973613Y-111973500D01*
X144973616Y-111973500D01*
X145044196Y-111967086D01*
X145125548Y-111941735D01*
X145196533Y-111940566D01*
X145256883Y-111977961D01*
X145287436Y-112042047D01*
X145278491Y-112112478D01*
X145269033Y-112130145D01*
X145266749Y-112133698D01*
X145206976Y-112264583D01*
X145186500Y-112407002D01*
X145186500Y-113906994D01*
X145191644Y-113978936D01*
X145191645Y-113978940D01*
X145232181Y-114116992D01*
X145232182Y-114116993D01*
X145308419Y-114235621D01*
X145309969Y-114238032D01*
X145418706Y-114332254D01*
X145549584Y-114392024D01*
X145692000Y-114412500D01*
X145987541Y-114412500D01*
X146055662Y-114432502D01*
X146102155Y-114486158D01*
X146112747Y-114524388D01*
X146117432Y-114565960D01*
X146161046Y-114690602D01*
X146177011Y-114736227D01*
X146177012Y-114736230D01*
X146272982Y-114888965D01*
X146272983Y-114888967D01*
X146400537Y-115016521D01*
X146400539Y-115016522D01*
X146553274Y-115112492D01*
X146553275Y-115112492D01*
X146553278Y-115112494D01*
X146723545Y-115172073D01*
X146840410Y-115185240D01*
X146905860Y-115212742D01*
X146946053Y-115271266D01*
X146952300Y-115310447D01*
X146952300Y-115356007D01*
X146958267Y-115386006D01*
X146976337Y-115476852D01*
X146987044Y-115502700D01*
X146987045Y-115502702D01*
X146987045Y-115502703D01*
X147023486Y-115590683D01*
X147046534Y-115625176D01*
X147091941Y-115693132D01*
X147091946Y-115693138D01*
X147161082Y-115762274D01*
X147195108Y-115824586D01*
X147190043Y-115895401D01*
X147171950Y-115928073D01*
X147168964Y-115931963D01*
X147168964Y-115931964D01*
X147136917Y-115973729D01*
X147078722Y-116049569D01*
X147078719Y-116049574D01*
X147033196Y-116159474D01*
X146988647Y-116214754D01*
X146921283Y-116237174D01*
X146852492Y-116219615D01*
X146850641Y-116218495D01*
X146849595Y-116217850D01*
X146811897Y-116194597D01*
X146650908Y-116141251D01*
X146650904Y-116141250D01*
X146650902Y-116141250D01*
X146551553Y-116131100D01*
X145954854Y-116131100D01*
X145855495Y-116141250D01*
X145855492Y-116141251D01*
X145711075Y-116189105D01*
X145671446Y-116195500D01*
X144842832Y-116195500D01*
X144775796Y-116176187D01*
X144646925Y-116095212D01*
X144646922Y-116095211D01*
X144583115Y-116072884D01*
X144476655Y-116035632D01*
X144297400Y-116015435D01*
X144297399Y-116015435D01*
X144214918Y-116024728D01*
X144144986Y-116012478D01*
X144134672Y-116006765D01*
X144016697Y-115933997D01*
X143855708Y-115880651D01*
X143855704Y-115880650D01*
X143855702Y-115880650D01*
X143756353Y-115870500D01*
X143159654Y-115870500D01*
X143060295Y-115880650D01*
X142899303Y-115933997D01*
X142754955Y-116023032D01*
X142754949Y-116023037D01*
X142635038Y-116142948D01*
X142635034Y-116142953D01*
X142614480Y-116176275D01*
X142577245Y-116214888D01*
X142542581Y-116238050D01*
X142542576Y-116238054D01*
X141403051Y-117377579D01*
X141403048Y-117377583D01*
X141365556Y-117433696D01*
X141320915Y-117500506D01*
X141264343Y-117637083D01*
X141264342Y-117637086D01*
X141254141Y-117688368D01*
X141247794Y-117720280D01*
X141235500Y-117782083D01*
X141235500Y-118311774D01*
X141215498Y-118379895D01*
X141161842Y-118426388D01*
X141097083Y-118435699D01*
X141096988Y-118436907D01*
X141091619Y-118436484D01*
X141091568Y-118436492D01*
X141091431Y-118436469D01*
X141056933Y-118433754D01*
X141053694Y-118433500D01*
X140622306Y-118433500D01*
X140619405Y-118433728D01*
X140585432Y-118436401D01*
X140585431Y-118436401D01*
X140427598Y-118482257D01*
X140286136Y-118565917D01*
X140286129Y-118565923D01*
X140169923Y-118682129D01*
X140169917Y-118682136D01*
X140086257Y-118823598D01*
X140040401Y-118981431D01*
X140040401Y-118981432D01*
X140037500Y-119018306D01*
X140037500Y-120076300D01*
X140017498Y-120144421D01*
X139963842Y-120190914D01*
X139911500Y-120202300D01*
X139864500Y-120202300D01*
X139796379Y-120182298D01*
X139749886Y-120128642D01*
X139738500Y-120076300D01*
X139738500Y-119018306D01*
X139735598Y-118981432D01*
X139735598Y-118981431D01*
X139696774Y-118847800D01*
X139693502Y-118836539D01*
X139688500Y-118801388D01*
X139688500Y-118722058D01*
X139708502Y-118653937D01*
X139725400Y-118632967D01*
X139780712Y-118577656D01*
X139872814Y-118428334D01*
X139927999Y-118261797D01*
X139938500Y-118159009D01*
X139938499Y-117744557D01*
X139958501Y-117676438D01*
X139975404Y-117655462D01*
X139979054Y-117651812D01*
X140019951Y-117610916D01*
X140036676Y-117585885D01*
X140102084Y-117487995D01*
X140158658Y-117351413D01*
X140187500Y-117206418D01*
X140187500Y-116469557D01*
X140207502Y-116401437D01*
X140224400Y-116380467D01*
X140277212Y-116327656D01*
X140339365Y-116226888D01*
X140392150Y-116179410D01*
X140462225Y-116168007D01*
X140512752Y-116185794D01*
X140529303Y-116196003D01*
X140690292Y-116249349D01*
X140789655Y-116259500D01*
X141386344Y-116259499D01*
X141386345Y-116259499D01*
X141406216Y-116257469D01*
X141485708Y-116249349D01*
X141646697Y-116196003D01*
X141791044Y-116106968D01*
X141910968Y-115987044D01*
X142000003Y-115842697D01*
X142053349Y-115681708D01*
X142063500Y-115582345D01*
X142063499Y-115035656D01*
X142061544Y-115016522D01*
X142056700Y-114969095D01*
X142053349Y-114936292D01*
X142000003Y-114775303D01*
X141910968Y-114630956D01*
X141910967Y-114630955D01*
X141910962Y-114630949D01*
X141791050Y-114511037D01*
X141791044Y-114511032D01*
X141646697Y-114421997D01*
X141630684Y-114416691D01*
X141485708Y-114368651D01*
X141485704Y-114368650D01*
X141485702Y-114368650D01*
X141386353Y-114358500D01*
X140789654Y-114358500D01*
X140690295Y-114368650D01*
X140690292Y-114368651D01*
X140529303Y-114421997D01*
X140445538Y-114473664D01*
X140377060Y-114492401D01*
X140309321Y-114471142D01*
X140280555Y-114444572D01*
X140277208Y-114440339D01*
X140224405Y-114387536D01*
X140190379Y-114325224D01*
X140187500Y-114298441D01*
X140187500Y-114245029D01*
X140194571Y-114203414D01*
X140209589Y-114160495D01*
X140231368Y-114098255D01*
X140251565Y-113919000D01*
X140231368Y-113739745D01*
X140194571Y-113634584D01*
X140187500Y-113592969D01*
X140187500Y-113162286D01*
X140187500Y-113162282D01*
X140158658Y-113017287D01*
X140102084Y-112880705D01*
X140076068Y-112841769D01*
X140051429Y-112804893D01*
X140051428Y-112804892D01*
X140019954Y-112757787D01*
X140019953Y-112757785D01*
X139839837Y-112577669D01*
X139573780Y-112311612D01*
X139539757Y-112249302D01*
X139538822Y-112242957D01*
X139538756Y-112242970D01*
X139537598Y-112236631D01*
X139507695Y-112133706D01*
X139491744Y-112078802D01*
X139478684Y-112056718D01*
X139408082Y-111937336D01*
X139408076Y-111937329D01*
X139291870Y-111821123D01*
X139291863Y-111821117D01*
X139150401Y-111737457D01*
X139145582Y-111736057D01*
X139126212Y-111730429D01*
X138992568Y-111691601D01*
X138958595Y-111688928D01*
X138955694Y-111688700D01*
X138524306Y-111688700D01*
X138521405Y-111688928D01*
X138487432Y-111691601D01*
X138487431Y-111691601D01*
X138329598Y-111737457D01*
X138188136Y-111821117D01*
X138188129Y-111821123D01*
X138071923Y-111937329D01*
X138071917Y-111937336D01*
X137988257Y-112078798D01*
X137942401Y-112236631D01*
X137942401Y-112236632D01*
X137939500Y-112273506D01*
X137939500Y-112804892D01*
X137942401Y-112841767D01*
X137942401Y-112841768D01*
X137988257Y-112999601D01*
X138071917Y-113141063D01*
X138071923Y-113141070D01*
X138188129Y-113257276D01*
X138188136Y-113257282D01*
X138329598Y-113340942D01*
X138329599Y-113340942D01*
X138329602Y-113340944D01*
X138487431Y-113386798D01*
X138493770Y-113387956D01*
X138493335Y-113390332D01*
X138549523Y-113411733D01*
X138562414Y-113422982D01*
X138649595Y-113510163D01*
X138683621Y-113572475D01*
X138686500Y-113599258D01*
X138686500Y-113644410D01*
X138679430Y-113686022D01*
X138660634Y-113739741D01*
X138660631Y-113739749D01*
X138644650Y-113881590D01*
X138640435Y-113919000D01*
X138660632Y-114098255D01*
X138675564Y-114140928D01*
X138679429Y-114151973D01*
X138686500Y-114193588D01*
X138686500Y-114293441D01*
X138666498Y-114361562D01*
X138649595Y-114382536D01*
X138591793Y-114440337D01*
X138591788Y-114440343D01*
X138499685Y-114589665D01*
X138444502Y-114756196D01*
X138444500Y-114756208D01*
X138434000Y-114858982D01*
X138434000Y-115909009D01*
X138444500Y-116011797D01*
X138499685Y-116178334D01*
X138545310Y-116252303D01*
X138564047Y-116320783D01*
X138542788Y-116388521D01*
X138488280Y-116434013D01*
X138477703Y-116438054D01*
X138368664Y-116474186D01*
X138219343Y-116566288D01*
X138219337Y-116566293D01*
X138095293Y-116690337D01*
X138095288Y-116690343D01*
X138003185Y-116839665D01*
X137948002Y-117006196D01*
X137948000Y-117006208D01*
X137937500Y-117108982D01*
X135374500Y-117108982D01*
X135374500Y-99940500D01*
X135394502Y-99872379D01*
X135448158Y-99825886D01*
X135500500Y-99814500D01*
X189247500Y-99814500D01*
X189315621Y-99834502D01*
G37*
%TD.AperFunction*%
%TD*%
%TA.AperFunction,Conductor*%
%TO.N,+3V3*%
G36*
X147474673Y-116779338D02*
G01*
X147475193Y-116777557D01*
X147484298Y-116780211D01*
X147532066Y-116786500D01*
X147869090Y-116786500D01*
X147971910Y-116786500D01*
X148168500Y-116786500D01*
X148235539Y-116806185D01*
X148281294Y-116858989D01*
X148292500Y-116910500D01*
X148292500Y-117381500D01*
X148272815Y-117448539D01*
X148220011Y-117494294D01*
X148168500Y-117505500D01*
X144067022Y-117505500D01*
X144067006Y-117505499D01*
X144059410Y-117505499D01*
X143956590Y-117505499D01*
X143956588Y-117505499D01*
X143914506Y-117516775D01*
X143882414Y-117521000D01*
X142777200Y-117521000D01*
X142710161Y-117501315D01*
X142664406Y-117448511D01*
X142653200Y-117397000D01*
X142653200Y-116895000D01*
X142672885Y-116827961D01*
X142725689Y-116782206D01*
X142777200Y-116771000D01*
X147437055Y-116771000D01*
X147474673Y-116779338D01*
G37*
%TD.AperFunction*%
%TD*%
M02*
