M48
; DRILL file {KiCad 8.0.4+1} date 2024-10-17T12:28:57+0000
; FORMAT={3:3/ absolute / metric / suppress leading zeros}
; #@! TF.CreationDate,2024-10-17T12:28:57+00:00
; #@! TF.GenerationSoftware,Kicad,Pcbnew,8.0.4+1
; #@! TF.FileFunction,Plated,1,2,PTH
FMAT,2
METRIC,TZ
; #@! TA.AperFunction,Plated,PTH,ComponentDrill
T1C0.200
; #@! TA.AperFunction,Plated,PTH,ViaDrill
T2C0.300
; #@! TA.AperFunction,Plated,PTH,ComponentDrill
T3C1.500
; #@! TA.AperFunction,Plated,PTH,ComponentDrill
T4C1.700
%
G90
G05
T1
X148808Y-116596
X148808Y-117646
X148808Y-118696
X149858Y-116596
X149858Y-117646
X149858Y-118696
X150908Y-116596
X150908Y-117646
X150908Y-118696
T2
X135890Y-116840
X135890Y-118110
X135890Y-119380
X135890Y-120650
X136271Y-102006
X136271Y-107315
X136398Y-110109
X136652Y-122174
X136652Y-124460
X139446Y-113919
X141519Y-123079
X142197Y-112578
X143458Y-114046
X143510Y-100330
X143637Y-121920
X144042Y-112233
X144042Y-114331
X144297Y-116821
X144717Y-110998
X144780Y-100330
X145161Y-122301
X146050Y-100330
X146050Y-121920
X146058Y-118946
X146903Y-114387
X146939Y-110070
X147320Y-100330
X147320Y-121920
X147527Y-110795
X147902Y-121146
X148202Y-113655
X148590Y-100330
X148590Y-105664
X148742Y-109245
X148908Y-121146
X149352Y-109957
X149632Y-113905
X149860Y-100330
X150114Y-122809
X150505Y-112757
X150622Y-109982
X150858Y-121146
X151130Y-100330
X151130Y-111760
X151130Y-122682
X151229Y-114459
X151333Y-113487
X151943Y-120320
X152400Y-100330
X152480Y-112181
X153035Y-115570
X153543Y-112181
X153670Y-100330
X153797Y-109982
X153873Y-124016
X154305Y-128270
X154940Y-100330
X155194Y-118110
X155299Y-112833
X155299Y-113849
X155321Y-109220
X155575Y-128270
X156210Y-100330
X156224Y-114808
X156769Y-118161
X156815Y-107628
X156845Y-113284
X156845Y-128270
X157480Y-100330
X157480Y-122809
X158085Y-107628
X158115Y-128270
X158217Y-118186
X158496Y-112776
X158623Y-122809
X158750Y-100330
X159385Y-128270
X159396Y-114076
X159736Y-105977
X159736Y-107628
X159766Y-122809
X159996Y-113376
X160020Y-100330
X160625Y-106358
X160655Y-128270
X160696Y-114076
X160879Y-107628
X161036Y-122809
X161036Y-123558
X161290Y-100330
X161798Y-113919
X161925Y-128270
X162022Y-107628
X162297Y-116128
X162433Y-105918
X162560Y-100330
X162560Y-123558
X163038Y-107628
X163195Y-128270
X163830Y-100330
X163830Y-111633
X163830Y-112649
X163830Y-113665
X164181Y-107628
X164211Y-121666
X164211Y-122809
X164338Y-123558
X164465Y-128270
X165100Y-100330
X165227Y-121158
X165735Y-128270
X166370Y-100330
X166497Y-121158
X167005Y-128270
X167132Y-122428
X167640Y-100330
X168275Y-128270
X168402Y-122428
X168427Y-126060
X168504Y-102591
X168758Y-111557
X168910Y-100330
X169443Y-126060
X169545Y-122428
X169545Y-128270
X169647Y-102591
X169774Y-104877
X170180Y-100330
X170234Y-122228
X170815Y-128270
X170840Y-126060
X171425Y-105258
X171450Y-100330
X171552Y-102591
X171983Y-126060
X171996Y-123139
X172085Y-128270
X172538Y-123899
X172568Y-102591
X172720Y-100330
X173126Y-126060
X173165Y-122712
X173355Y-128270
X173711Y-102591
X173841Y-123129
X173965Y-105258
X173990Y-100330
X174269Y-127203
X174396Y-126060
X174625Y-128270
X174727Y-102591
X174981Y-105258
X175260Y-100330
X175870Y-102464
X175895Y-128270
X176022Y-123952
X176530Y-100330
X176759Y-102464
X177165Y-124714
X177165Y-126111
X177165Y-128270
X177285Y-105000
X177648Y-102464
X177775Y-105893
X177800Y-100330
X178156Y-103226
X178555Y-105000
X178664Y-106020
X180000Y-104000
X181730Y-105000
X183000Y-105000
T3
X181318Y-117158
T4
X178778Y-114618
X178778Y-119698
X183858Y-114618
X183858Y-119698
M30
