%TF.GenerationSoftware,KiCad,Pcbnew,8.0.4+1*%
%TF.CreationDate,2024-10-16T20:03:32+00:00*%
%TF.ProjectId,TFLORA01,54464c4f-5241-4303-912e-6b696361645f,rev?*%
%TF.SameCoordinates,Original*%
%TF.FileFunction,Copper,L2,Bot*%
%TF.FilePolarity,Positive*%
%FSLAX46Y46*%
G04 Gerber Fmt 4.6, Leading zero omitted, Abs format (unit mm)*
G04 Created by KiCad (PCBNEW 8.0.4+1) date 2024-10-16 20:03:32*
%MOMM*%
%LPD*%
G01*
G04 APERTURE LIST*
G04 Aperture macros list*
%AMRoundRect*
0 Rectangle with rounded corners*
0 $1 Rounding radius*
0 $2 $3 $4 $5 $6 $7 $8 $9 X,Y pos of 4 corners*
0 Add a 4 corners polygon primitive as box body*
4,1,4,$2,$3,$4,$5,$6,$7,$8,$9,$2,$3,0*
0 Add four circle primitives for the rounded corners*
1,1,$1+$1,$2,$3*
1,1,$1+$1,$4,$5*
1,1,$1+$1,$6,$7*
1,1,$1+$1,$8,$9*
0 Add four rect primitives between the rounded corners*
20,1,$1+$1,$2,$3,$4,$5,0*
20,1,$1+$1,$4,$5,$6,$7,0*
20,1,$1+$1,$6,$7,$8,$9,0*
20,1,$1+$1,$8,$9,$2,$3,0*%
%AMFreePoly0*
4,1,7,1.675000,0.350000,8.125000,0.350000,8.125000,-0.750000,-1.675000,-0.750000,-1.675000,0.750000,1.675000,0.750000,1.675000,0.350000,1.675000,0.350000,$1*%
%AMFreePoly1*
4,1,8,1.675000,-0.750000,-1.675000,-0.750000,-8.125000,-0.750000,-8.125000,0.350000,-1.675000,0.350000,-1.675000,0.750000,1.675000,0.750000,1.675000,-0.750000,1.675000,-0.750000,$1*%
G04 Aperture macros list end*
%TA.AperFunction,ComponentPad*%
%ADD10R,1.600000X1.600000*%
%TD*%
%TA.AperFunction,ComponentPad*%
%ADD11C,1.600000*%
%TD*%
%TA.AperFunction,SMDPad,CuDef*%
%ADD12RoundRect,0.225000X0.250000X-0.225000X0.250000X0.225000X-0.250000X0.225000X-0.250000X-0.225000X0*%
%TD*%
%TA.AperFunction,SMDPad,CuDef*%
%ADD13RoundRect,0.225000X0.225000X0.250000X-0.225000X0.250000X-0.225000X-0.250000X0.225000X-0.250000X0*%
%TD*%
%TA.AperFunction,SMDPad,CuDef*%
%ADD14RoundRect,0.225000X-0.225000X-0.250000X0.225000X-0.250000X0.225000X0.250000X-0.225000X0.250000X0*%
%TD*%
%TA.AperFunction,SMDPad,CuDef*%
%ADD15RoundRect,0.062500X0.062500X-0.350000X0.062500X0.350000X-0.062500X0.350000X-0.062500X-0.350000X0*%
%TD*%
%TA.AperFunction,SMDPad,CuDef*%
%ADD16RoundRect,0.062500X0.350000X-0.062500X0.350000X0.062500X-0.350000X0.062500X-0.350000X-0.062500X0*%
%TD*%
%TA.AperFunction,ComponentPad*%
%ADD17C,0.500000*%
%TD*%
%TA.AperFunction,SMDPad,CuDef*%
%ADD18RoundRect,0.250000X1.050000X-1.050000X1.050000X1.050000X-1.050000X1.050000X-1.050000X-1.050000X0*%
%TD*%
%TA.AperFunction,SMDPad,CuDef*%
%ADD19RoundRect,0.200000X-0.200000X-0.275000X0.200000X-0.275000X0.200000X0.275000X-0.200000X0.275000X0*%
%TD*%
%TA.AperFunction,SMDPad,CuDef*%
%ADD20RoundRect,0.147500X-0.172500X0.147500X-0.172500X-0.147500X0.172500X-0.147500X0.172500X0.147500X0*%
%TD*%
%TA.AperFunction,SMDPad,CuDef*%
%ADD21RoundRect,0.147500X-0.147500X-0.172500X0.147500X-0.172500X0.147500X0.172500X-0.147500X0.172500X0*%
%TD*%
%TA.AperFunction,SMDPad,CuDef*%
%ADD22RoundRect,0.218750X0.381250X-0.218750X0.381250X0.218750X-0.381250X0.218750X-0.381250X-0.218750X0*%
%TD*%
%TA.AperFunction,SMDPad,CuDef*%
%ADD23RoundRect,0.147500X0.172500X-0.147500X0.172500X0.147500X-0.172500X0.147500X-0.172500X-0.147500X0*%
%TD*%
%TA.AperFunction,SMDPad,CuDef*%
%ADD24RoundRect,0.225000X-0.250000X0.225000X-0.250000X-0.225000X0.250000X-0.225000X0.250000X0.225000X0*%
%TD*%
%TA.AperFunction,SMDPad,CuDef*%
%ADD25R,1.060000X0.650000*%
%TD*%
%TA.AperFunction,SMDPad,CuDef*%
%ADD26RoundRect,0.250000X0.475000X-0.250000X0.475000X0.250000X-0.475000X0.250000X-0.475000X-0.250000X0*%
%TD*%
%TA.AperFunction,SMDPad,CuDef*%
%ADD27RoundRect,0.250000X-0.475000X0.250000X-0.475000X-0.250000X0.475000X-0.250000X0.475000X0.250000X0*%
%TD*%
%TA.AperFunction,SMDPad,CuDef*%
%ADD28R,3.249000X1.450000*%
%TD*%
%TA.AperFunction,SMDPad,CuDef*%
%ADD29FreePoly0,0.000000*%
%TD*%
%TA.AperFunction,SMDPad,CuDef*%
%ADD30FreePoly1,180.000000*%
%TD*%
%TA.AperFunction,SMDPad,CuDef*%
%ADD31RoundRect,0.166667X-0.458333X-0.583333X0.458333X-0.583333X0.458333X0.583333X-0.458333X0.583333X0*%
%TD*%
%TA.AperFunction,SMDPad,CuDef*%
%ADD32RoundRect,0.166667X0.458333X0.583333X-0.458333X0.583333X-0.458333X-0.583333X0.458333X-0.583333X0*%
%TD*%
%TA.AperFunction,SMDPad,CuDef*%
%ADD33RoundRect,0.200000X0.200000X0.275000X-0.200000X0.275000X-0.200000X-0.275000X0.200000X-0.275000X0*%
%TD*%
%TA.AperFunction,SMDPad,CuDef*%
%ADD34R,0.400000X0.650000*%
%TD*%
%TA.AperFunction,SMDPad,CuDef*%
%ADD35R,0.700000X0.600000*%
%TD*%
%TA.AperFunction,SMDPad,CuDef*%
%ADD36RoundRect,0.150000X0.700000X-0.150000X0.700000X0.150000X-0.700000X0.150000X-0.700000X-0.150000X0*%
%TD*%
%TA.AperFunction,SMDPad,CuDef*%
%ADD37RoundRect,0.250000X1.100000X-0.250000X1.100000X0.250000X-1.100000X0.250000X-1.100000X-0.250000X0*%
%TD*%
%TA.AperFunction,ViaPad*%
%ADD38C,0.600000*%
%TD*%
%TA.AperFunction,Conductor*%
%ADD39C,0.250000*%
%TD*%
%TA.AperFunction,Conductor*%
%ADD40C,0.500000*%
%TD*%
%TA.AperFunction,Conductor*%
%ADD41C,0.150000*%
%TD*%
%TA.AperFunction,Conductor*%
%ADD42C,0.300000*%
%TD*%
G04 APERTURE END LIST*
D10*
%TO.P,X1,1,NC*%
%TO.N,unconnected-(X1-NC-Pad1)*%
X155079200Y-84908000D03*
D11*
%TO.P,X1,7,GND*%
%TO.N,GND*%
X170319200Y-84908000D03*
%TO.P,X1,8,OUT*%
%TO.N,Net-(X1-OUT)*%
X170319200Y-77288000D03*
%TO.P,X1,14,Vcc*%
%TO.N,+3V3*%
X155079200Y-77288000D03*
%TD*%
D12*
%TO.P,C17,1*%
%TO.N,GND*%
X168949600Y-114705000D03*
%TO.P,C17,2*%
%TO.N,Net-(C16-Pad1)*%
X168949600Y-113155000D03*
%TD*%
D13*
%TO.P,C22,1*%
%TO.N,Net-(U4-CTRL)*%
X161571000Y-112141000D03*
%TO.P,C22,2*%
%TO.N,GND*%
X160021000Y-112141000D03*
%TD*%
D12*
%TO.P,C20,1*%
%TO.N,Net-(U4-RF2)*%
X161558000Y-116921000D03*
%TO.P,C20,2*%
%TO.N,GND*%
X161558000Y-115371000D03*
%TD*%
%TO.P,C18,1*%
%TO.N,GND*%
X172720000Y-114567000D03*
%TO.P,C18,2*%
%TO.N,Net-(C18-Pad2)*%
X172720000Y-113017000D03*
%TD*%
%TO.P,C23,1*%
%TO.N,Net-(U3-VREG)*%
X145058000Y-120521000D03*
%TO.P,C23,2*%
%TO.N,GND*%
X145058000Y-118971000D03*
%TD*%
%TO.P,C5,1*%
%TO.N,+3V3*%
X143458000Y-116821000D03*
%TO.P,C5,2*%
%TO.N,GND*%
X143458000Y-115271000D03*
%TD*%
%TO.P,C11,1*%
%TO.N,Net-(C11-Pad1)*%
X152458000Y-125235000D03*
%TO.P,C11,2*%
%TO.N,Net-(U3-XTA)*%
X152458000Y-123685000D03*
%TD*%
D13*
%TO.P,C19,1*%
%TO.N,Net-(U4-RF2)*%
X159285000Y-117046000D03*
%TO.P,C19,2*%
%TO.N,Net-(U3-RFI_N)*%
X157735000Y-117046000D03*
%TD*%
D12*
%TO.P,C6,1*%
%TO.N,+3V3*%
X145058000Y-116821000D03*
%TO.P,C6,2*%
%TO.N,GND*%
X145058000Y-115271000D03*
%TD*%
D14*
%TO.P,C21,1*%
%TO.N,Net-(U3-RFI_P)*%
X157735000Y-115316000D03*
%TO.P,C21,2*%
%TO.N,GND*%
X159285000Y-115316000D03*
%TD*%
D15*
%TO.P,U3,1,VDD_IN*%
%TO.N,+3V3*%
X151108000Y-119583500D03*
%TO.P,U3,2,GND*%
%TO.N,GND*%
X150608000Y-119583500D03*
%TO.P,U3,3,XTA*%
%TO.N,Net-(U3-XTA)*%
X150108000Y-119583500D03*
%TO.P,U3,4,XTB*%
%TO.N,unconnected-(U3-XTB-Pad4)*%
X149608000Y-119583500D03*
%TO.P,U3,5,GND*%
%TO.N,GND*%
X149108000Y-119583500D03*
%TO.P,U3,6,DIO3*%
%TO.N,/DIO3*%
X148608000Y-119583500D03*
D16*
%TO.P,U3,7,VREG*%
%TO.N,Net-(U3-VREG)*%
X147920500Y-118896000D03*
%TO.P,U3,8,GND*%
%TO.N,GND*%
X147920500Y-118396000D03*
%TO.P,U3,9,DCC_SW*%
%TO.N,Net-(U3-DCC_SW)*%
X147920500Y-117896000D03*
%TO.P,U3,10,VBAT*%
%TO.N,+3V3*%
X147920500Y-117396000D03*
%TO.P,U3,11,VBAT_IO*%
X147920500Y-116896000D03*
%TO.P,U3,12,DIO2*%
%TO.N,/DIO2*%
X147920500Y-116396000D03*
D15*
%TO.P,U3,13,DIO1*%
%TO.N,/DIO1*%
X148608000Y-115708500D03*
%TO.P,U3,14,BUSY*%
%TO.N,/BUSY*%
X149108000Y-115708500D03*
%TO.P,U3,15,RESET*%
%TO.N,/#RESET*%
X149608000Y-115708500D03*
%TO.P,U3,16,MISO*%
%TO.N,/MISO*%
X150108000Y-115708500D03*
%TO.P,U3,17,MOSI*%
%TO.N,/MOSI*%
X150608000Y-115708500D03*
%TO.P,U3,18,SCK*%
%TO.N,/SCK*%
X151108000Y-115708500D03*
D16*
%TO.P,U3,19,~{CS}*%
%TO.N,/#CS*%
X151795500Y-116396000D03*
%TO.P,U3,20,GND*%
%TO.N,GND*%
X151795500Y-116896000D03*
%TO.P,U3,21,RFI_P*%
%TO.N,Net-(U3-RFI_P)*%
X151795500Y-117396000D03*
%TO.P,U3,22,RFI_N*%
%TO.N,Net-(U3-RFI_N)*%
X151795500Y-117896000D03*
%TO.P,U3,23,RFO*%
%TO.N,Net-(U3-RFO)*%
X151795500Y-118396000D03*
%TO.P,U3,24,VR_PA*%
%TO.N,Net-(U3-VR_PA)*%
X151795500Y-118896000D03*
D17*
%TO.P,U3,25,GND*%
%TO.N,GND*%
X148808000Y-118696000D03*
X149858000Y-118696000D03*
X150908000Y-118696000D03*
X148808000Y-117646000D03*
X149858000Y-117646000D03*
D18*
X149858000Y-117646000D03*
D17*
X150908000Y-117646000D03*
X148808000Y-116596000D03*
X149858000Y-116596000D03*
X150908000Y-116596000D03*
%TD*%
D19*
%TO.P,R7,1*%
%TO.N,+3V3*%
X166408500Y-110236000D03*
%TO.P,R7,2*%
%TO.N,/#RESET*%
X168058500Y-110236000D03*
%TD*%
D20*
%TO.P,L6,1,1*%
%TO.N,Net-(U3-RFI_P)*%
X155970000Y-115661000D03*
%TO.P,L6,2,2*%
%TO.N,Net-(U3-RFI_N)*%
X155970000Y-116631000D03*
%TD*%
D21*
%TO.P,L5,1,1*%
%TO.N,Net-(C16-Pad1)*%
X170464600Y-113030000D03*
%TO.P,L5,2,2*%
%TO.N,Net-(C18-Pad2)*%
X171434600Y-113030000D03*
%TD*%
D22*
%TO.P,L7,1*%
%TO.N,Net-(U3-VREG)*%
X143158000Y-120442500D03*
%TO.P,L7,2*%
%TO.N,Net-(U3-DCC_SW)*%
X143158000Y-118317500D03*
%TD*%
D23*
%TO.P,L1,1,1*%
%TO.N,Net-(U3-VR_PA)*%
X156258000Y-120331000D03*
%TO.P,L1,2,2*%
%TO.N,Net-(C10-Pad2)*%
X156258000Y-119361000D03*
%TD*%
%TO.P,L4,1,1*%
%TO.N,Net-(C12-Pad1)*%
X166217600Y-119865000D03*
%TO.P,L4,2,2*%
%TO.N,Net-(U4-RF1)*%
X166217600Y-118895000D03*
%TD*%
D21*
%TO.P,L3,1,1*%
%TO.N,Net-(C10-Pad2)*%
X159773000Y-121246000D03*
%TO.P,L3,2,2*%
%TO.N,Net-(C10-Pad1)*%
X160743000Y-121246000D03*
%TD*%
D13*
%TO.P,C10,1*%
%TO.N,Net-(C10-Pad1)*%
X161033000Y-119546000D03*
%TO.P,C10,2*%
%TO.N,Net-(C10-Pad2)*%
X159483000Y-119546000D03*
%TD*%
D24*
%TO.P,C15,1*%
%TO.N,Net-(U4-RF1)*%
X168148000Y-119113000D03*
%TO.P,C15,2*%
%TO.N,GND*%
X168148000Y-120663000D03*
%TD*%
D13*
%TO.P,C16,1*%
%TO.N,Net-(C16-Pad1)*%
X166879600Y-113030000D03*
%TO.P,C16,2*%
%TO.N,Net-(U4-RFC)*%
X165329600Y-113030000D03*
%TD*%
D24*
%TO.P,C14,1*%
%TO.N,Net-(C10-Pad1)*%
X162758000Y-121385000D03*
%TO.P,C14,2*%
%TO.N,GND*%
X162758000Y-122935000D03*
%TD*%
%TO.P,C13,1*%
%TO.N,Net-(C10-Pad2)*%
X157758000Y-119671000D03*
%TO.P,C13,2*%
%TO.N,GND*%
X157758000Y-121221000D03*
%TD*%
D13*
%TO.P,C12,1*%
%TO.N,Net-(C12-Pad1)*%
X164514800Y-119532400D03*
%TO.P,C12,2*%
%TO.N,Net-(C10-Pad1)*%
X162964800Y-119532400D03*
%TD*%
%TO.P,C8,1*%
%TO.N,Net-(U3-VR_PA)*%
X155908000Y-121746000D03*
%TO.P,C8,2*%
%TO.N,GND*%
X154358000Y-121746000D03*
%TD*%
%TO.P,C7,1*%
%TO.N,Net-(U3-VR_PA)*%
X155908000Y-123446000D03*
%TO.P,C7,2*%
%TO.N,GND*%
X154358000Y-123446000D03*
%TD*%
D21*
%TO.P,L2,1,1*%
%TO.N,Net-(U3-RFO)*%
X154073000Y-119346000D03*
%TO.P,L2,2,2*%
%TO.N,Net-(C10-Pad2)*%
X155043000Y-119346000D03*
%TD*%
D14*
%TO.P,C4,1*%
%TO.N,+5V*%
X145363000Y-111252000D03*
%TO.P,C4,2*%
%TO.N,GND*%
X146913000Y-111252000D03*
%TD*%
D25*
%TO.P,U1,1,VIN*%
%TO.N,+5V*%
X141038000Y-109102000D03*
%TO.P,U1,2,GND*%
%TO.N,GND*%
X141038000Y-110052000D03*
%TO.P,U1,3,EN*%
%TO.N,+5V*%
X141038000Y-111002000D03*
%TO.P,U1,4,NC*%
%TO.N,unconnected-(U1-NC-Pad4)*%
X138838000Y-111002000D03*
%TO.P,U1,5,VOUT*%
%TO.N,+3V3*%
X138838000Y-109102000D03*
%TD*%
D26*
%TO.P,C2,1*%
%TO.N,+3V3*%
X136652000Y-110741500D03*
%TO.P,C2,2*%
%TO.N,GND*%
X136652000Y-108841500D03*
%TD*%
D27*
%TO.P,C1,1*%
%TO.N,+5V*%
X143038000Y-109102000D03*
%TO.P,C1,2*%
%TO.N,GND*%
X143038000Y-111002000D03*
%TD*%
D26*
%TO.P,C3,1*%
%TO.N,+5V*%
X145288000Y-109598500D03*
%TO.P,C3,2*%
%TO.N,GND*%
X145288000Y-107698500D03*
%TD*%
D28*
%TO.P,J2,1*%
%TO.N,Net-(C18-Pad2)*%
X202466144Y-115438200D03*
D29*
%TO.P,J2,2*%
%TO.N,GND*%
X202593144Y-118313200D03*
D30*
X202593144Y-112563200D03*
%TD*%
D31*
%TO.P,D2,1,K*%
%TO.N,GND*%
X206498144Y-101974200D03*
D32*
%TO.P,D2,2,A*%
%TO.N,Net-(D2-A)*%
X210098144Y-101974200D03*
%TD*%
D33*
%TO.P,R3,1*%
%TO.N,Net-(J1-Pad3)*%
X214203144Y-106474200D03*
%TO.P,R3,2*%
%TO.N,/MISO*%
X212553144Y-106474200D03*
%TD*%
%TO.P,R5,1*%
%TO.N,Net-(J1-Pad5)*%
X214203144Y-111494200D03*
%TO.P,R5,2*%
%TO.N,/#CS*%
X212553144Y-111494200D03*
%TD*%
D31*
%TO.P,D3,1,K*%
%TO.N,GND*%
X206498144Y-105524200D03*
D32*
%TO.P,D3,2,A*%
%TO.N,/DIO2*%
X210098144Y-105524200D03*
%TD*%
D34*
%TO.P,U4,1,RF1*%
%TO.N,Net-(U4-RF1)*%
X165750000Y-116836000D03*
%TO.P,U4,2,GND*%
%TO.N,GND*%
X165100000Y-116836000D03*
%TO.P,U4,3,RF2*%
%TO.N,Net-(U4-RF2)*%
X164450000Y-116836000D03*
%TO.P,U4,4,CTRL*%
%TO.N,Net-(U4-CTRL)*%
X164450000Y-114936000D03*
%TO.P,U4,5,RFC*%
%TO.N,Net-(U4-RFC)*%
X165100000Y-114936000D03*
%TO.P,U4,6,#CTRL*%
%TO.N,+3V3*%
X165750000Y-114936000D03*
%TD*%
D33*
%TO.P,R1,1*%
%TO.N,Net-(J1-Pad2)*%
X214203144Y-101454200D03*
%TO.P,R1,2*%
%TO.N,/SCK*%
X212553144Y-101454200D03*
%TD*%
D35*
%TO.P,D1,1,K*%
%TO.N,+5V*%
X148132800Y-108904000D03*
%TO.P,D1,2,A*%
%TO.N,GND*%
X148132800Y-107504000D03*
%TD*%
D33*
%TO.P,R6,1*%
%TO.N,Net-(J1-Pad6)*%
X214203144Y-114004200D03*
%TO.P,R6,2*%
%TO.N,Net-(U2-Y)*%
X212553144Y-114004200D03*
%TD*%
%TO.P,R9,1*%
%TO.N,Net-(U4-CTRL)*%
X163994500Y-110236000D03*
%TO.P,R9,2*%
%TO.N,/DIO2*%
X162344500Y-110236000D03*
%TD*%
%TO.P,R4,1*%
%TO.N,Net-(J1-Pad4)*%
X214203144Y-108984200D03*
%TO.P,R4,2*%
%TO.N,/MOSI*%
X212553144Y-108984200D03*
%TD*%
D31*
%TO.P,D4,1,K*%
%TO.N,GND*%
X206498144Y-109074200D03*
D32*
%TO.P,D4,2,A*%
%TO.N,/DIO3*%
X210098144Y-109074200D03*
%TD*%
D33*
%TO.P,R2,1*%
%TO.N,+5V*%
X214203144Y-103964200D03*
%TO.P,R2,2*%
%TO.N,Net-(D2-A)*%
X212553144Y-103964200D03*
%TD*%
D36*
%TO.P,J1,1*%
%TO.N,+5V*%
X141397600Y-120183600D03*
%TO.P,J1,2*%
%TO.N,Net-(J1-Pad2)*%
X141397600Y-118933600D03*
%TO.P,J1,3*%
%TO.N,Net-(J1-Pad3)*%
X141397600Y-117683600D03*
%TO.P,J1,4*%
%TO.N,Net-(J1-Pad4)*%
X141397600Y-116433600D03*
%TO.P,J1,5*%
%TO.N,Net-(J1-Pad5)*%
X141397600Y-115183600D03*
%TO.P,J1,6*%
%TO.N,Net-(J1-Pad6)*%
X141397600Y-113933600D03*
%TO.P,J1,7*%
%TO.N,GND*%
X141397600Y-112683600D03*
D37*
%TO.P,J1,MP*%
X138197600Y-122033600D03*
X138197600Y-110833600D03*
%TD*%
D38*
%TO.N,GND*%
X145058000Y-114046000D03*
X143458000Y-114046000D03*
X148358000Y-123260000D03*
X150558000Y-124560000D03*
X163830000Y-113665000D03*
X184150000Y-119380000D03*
X148463000Y-128270000D03*
X163830000Y-100330000D03*
X161798000Y-113919000D03*
X171069000Y-111633000D03*
X184150000Y-118110000D03*
X157356660Y-118341817D03*
X184150000Y-114300000D03*
X145161000Y-122301000D03*
X168910000Y-111633000D03*
X142240000Y-128270000D03*
X184150000Y-110490000D03*
X167894000Y-111633000D03*
X143383000Y-107442000D03*
X145161000Y-123317000D03*
X153858000Y-124946000D03*
X146304000Y-128270000D03*
X168402000Y-122428000D03*
X143764000Y-112649000D03*
X153670000Y-100330000D03*
X169164000Y-116967000D03*
X177800000Y-108585000D03*
X170053000Y-111633000D03*
X172085000Y-128270000D03*
X164211000Y-121666000D03*
X161290000Y-100330000D03*
X172212000Y-111506000D03*
X163195000Y-128270000D03*
X160655000Y-128270000D03*
X167767000Y-114300000D03*
X154940000Y-100330000D03*
X153416000Y-123446000D03*
X172720000Y-100330000D03*
X157480000Y-100330000D03*
X162560000Y-124460000D03*
X155858000Y-118346000D03*
X152273000Y-128270000D03*
X174117000Y-114935000D03*
X166370000Y-100330000D03*
X150876000Y-122301000D03*
X181610000Y-120015000D03*
X159766000Y-122809000D03*
X149858000Y-123860000D03*
X153797000Y-126111000D03*
X150858000Y-121146000D03*
X155575000Y-128270000D03*
X145161000Y-128270000D03*
X170815000Y-128270000D03*
X143510000Y-100330000D03*
X144780000Y-100330000D03*
X135890000Y-120650000D03*
X168275000Y-128270000D03*
X158750000Y-100330000D03*
X172847000Y-116967000D03*
X146050000Y-100330000D03*
X173101000Y-111506000D03*
X169545000Y-120904000D03*
X177800000Y-100330000D03*
X175260000Y-100330000D03*
X176530000Y-108585000D03*
X146939000Y-112649000D03*
X158115000Y-128270000D03*
X168148000Y-116967000D03*
X156210000Y-100330000D03*
X182245000Y-108585000D03*
X149860000Y-100330000D03*
X162941000Y-115697000D03*
X167640000Y-100330000D03*
X173990000Y-100330000D03*
X183515000Y-120015000D03*
X148908011Y-121145981D03*
X148590000Y-100330000D03*
X170180000Y-100330000D03*
X164846000Y-111633000D03*
X135890000Y-119380000D03*
X162258000Y-118346000D03*
X164465000Y-128270000D03*
X146050000Y-127000000D03*
X135890000Y-116840000D03*
X184150000Y-116840000D03*
X154940000Y-118346000D03*
X173990000Y-111506000D03*
X174498000Y-112268000D03*
X165735000Y-128270000D03*
X171450000Y-100330000D03*
X164846000Y-117983000D03*
X170561000Y-116967000D03*
X154305000Y-128270000D03*
X152019000Y-122301000D03*
X153035000Y-115570000D03*
X163858046Y-118346000D03*
X173990000Y-118110000D03*
X161925000Y-128270000D03*
X145161000Y-125349000D03*
X153158000Y-121746000D03*
X168910000Y-100330000D03*
X177165000Y-128270000D03*
X173355000Y-128270000D03*
X148717000Y-122174000D03*
X160658000Y-118346000D03*
X145161000Y-126619000D03*
X165100000Y-100330000D03*
X147320000Y-121920000D03*
X146058000Y-118946000D03*
X175895000Y-120015000D03*
X162560000Y-100330000D03*
X184150000Y-113030000D03*
X161036000Y-122809000D03*
X184150000Y-107950000D03*
X171704000Y-116967000D03*
X179705000Y-118745000D03*
X179070000Y-120015000D03*
X166497000Y-121158000D03*
X160020000Y-100330000D03*
X157480000Y-122809000D03*
X151130000Y-100330000D03*
X164211000Y-122809000D03*
X169545000Y-122428000D03*
X167132000Y-116967000D03*
X184150000Y-115570000D03*
X171323000Y-114300000D03*
X149258000Y-124560000D03*
X161036000Y-124460000D03*
X169418000Y-117983000D03*
X147447000Y-128270000D03*
X156224000Y-114808000D03*
X170307000Y-114300000D03*
X184150000Y-120650000D03*
X175895000Y-128270000D03*
X169545000Y-128270000D03*
X165227000Y-121158000D03*
X174625000Y-120015000D03*
X147858000Y-126560000D03*
X153035000Y-127127000D03*
X136271000Y-107315000D03*
X184150000Y-109220000D03*
X152400000Y-100330000D03*
X145161000Y-112649000D03*
X167005000Y-128270000D03*
X159058000Y-118346000D03*
X174117000Y-116967000D03*
X176530000Y-100330000D03*
X159385000Y-128270000D03*
X149606000Y-128270000D03*
X180975000Y-108585000D03*
X164338000Y-124460000D03*
X143510000Y-128270000D03*
X147320000Y-100330000D03*
X165989000Y-111633000D03*
X175006000Y-115062000D03*
X135890000Y-118110000D03*
X177800000Y-120015000D03*
X141859000Y-107569000D03*
X163830000Y-111633000D03*
X143637000Y-121920000D03*
X158623000Y-122809000D03*
X173990000Y-119380000D03*
X166116000Y-113919000D03*
X145161000Y-124333000D03*
X156845000Y-128270000D03*
X167132000Y-122428000D03*
X179070000Y-110490000D03*
X150876000Y-128270000D03*
X146050000Y-121920000D03*
X169545000Y-119126000D03*
X163830000Y-112649000D03*
X184150000Y-111760000D03*
X174625000Y-128270000D03*
X184150000Y-106680000D03*
X142494000Y-112649000D03*
%TO.N,+3V3*%
X167005000Y-115443000D03*
X165354000Y-110236000D03*
X137940000Y-110000000D03*
X151858000Y-121146000D03*
X146858000Y-117146000D03*
%TO.N,Net-(U3-XTA)*%
X151358000Y-123260000D03*
%TO.N,/#RESET*%
X169164000Y-110236000D03*
%TO.N,/DIO2*%
X161544000Y-109490080D03*
%TO.N,/DIO3*%
X146058000Y-113746046D03*
X147901519Y-121146000D03*
%TO.N,Net-(U4-CTRL)*%
X162814000Y-111633000D03*
X163703000Y-114935000D03*
%TD*%
D39*
%TO.N,GND*%
X148033000Y-123585000D02*
X148358000Y-123260000D01*
X150608000Y-119583500D02*
X150608000Y-118996000D01*
X149108000Y-118996000D02*
X148808000Y-118696000D01*
X147258000Y-123585000D02*
X148033000Y-123585000D01*
X150533000Y-124585000D02*
X150558000Y-124560000D01*
X147920500Y-118396000D02*
X148508000Y-118396000D01*
X148508000Y-118396000D02*
X148808000Y-118696000D01*
X149108000Y-119583500D02*
X149108000Y-118996000D01*
X151208000Y-116896000D02*
X150908000Y-116596000D01*
X150608000Y-118996000D02*
X150908000Y-118696000D01*
X150533000Y-125535000D02*
X150533000Y-124585000D01*
X143458000Y-115171000D02*
X143458000Y-114046000D01*
X145058000Y-115171000D02*
X145058000Y-114046000D01*
X151795500Y-116896000D02*
X151208000Y-116896000D01*
D40*
X142085500Y-110052000D02*
X143038000Y-111004500D01*
X141038000Y-110052000D02*
X142085500Y-110052000D01*
X157379928Y-118318541D02*
X157356652Y-118341817D01*
D39*
X166497000Y-114300000D02*
X166116000Y-113919000D01*
X150876000Y-128270000D02*
X152273000Y-128270000D01*
X167767000Y-114300000D02*
X166497000Y-114300000D01*
D40*
X157356660Y-118341817D02*
X159053817Y-118341817D01*
D39*
X148463000Y-128270000D02*
X149606000Y-128270000D01*
X153035000Y-126873000D02*
X153797000Y-126111000D01*
D40*
X163858046Y-118346000D02*
X164483000Y-118346000D01*
D39*
X154258000Y-121746000D02*
X153158000Y-121746000D01*
X154157999Y-124646001D02*
X153858000Y-124946000D01*
X146357999Y-118646001D02*
X146058000Y-118946000D01*
X153035000Y-127127000D02*
X153035000Y-126873000D01*
X149183000Y-126585000D02*
X147883000Y-126585000D01*
X145058000Y-118871000D02*
X145983000Y-118871000D01*
D41*
X154395832Y-115570000D02*
X153035000Y-115570000D01*
D40*
X157356652Y-118341817D02*
X157356660Y-118341817D01*
D42*
X161513000Y-115316000D02*
X161558000Y-115271000D01*
D39*
X144018000Y-122301000D02*
X143637000Y-121920000D01*
X145161000Y-122301000D02*
X144018000Y-122301000D01*
X145983000Y-118871000D02*
X146058000Y-118946000D01*
X149108000Y-120945992D02*
X148908011Y-121145981D01*
X146608000Y-118396000D02*
X146357999Y-118646001D01*
X150876000Y-122301000D02*
X152019000Y-122301000D01*
X147883000Y-126585000D02*
X147858000Y-126560000D01*
X150608000Y-119583500D02*
X150608000Y-120896000D01*
D40*
X160658000Y-118346000D02*
X162258000Y-118346000D01*
D39*
X149108000Y-119583500D02*
X149108000Y-120945992D01*
X147920500Y-118396000D02*
X146608000Y-118396000D01*
X154258000Y-123446000D02*
X154258000Y-124546000D01*
D40*
X150558000Y-124560000D02*
X149258000Y-124560000D01*
D39*
X154258000Y-124546000D02*
X154157999Y-124646001D01*
X150608000Y-120896000D02*
X150858000Y-121146000D01*
D41*
X155157832Y-114808000D02*
X154395832Y-115570000D01*
D40*
X164483000Y-118346000D02*
X164846000Y-117983000D01*
X159053817Y-118341817D02*
X159058000Y-118346000D01*
D39*
%TO.N,+5V*%
X140258000Y-109102000D02*
X140132999Y-109227001D01*
D40*
X143038000Y-109099500D02*
X143292000Y-109099500D01*
X143035500Y-109102000D02*
X143038000Y-109099500D01*
D39*
X140132999Y-110876999D02*
X140258000Y-111002000D01*
D40*
X141038000Y-109102000D02*
X143035500Y-109102000D01*
D39*
X140132999Y-109227001D02*
X140132999Y-110876999D01*
X140258000Y-111002000D02*
X141038000Y-111002000D01*
X141038000Y-109102000D02*
X140258000Y-109102000D01*
D40*
X143539500Y-109601000D02*
X143038000Y-109099500D01*
X145263000Y-111252000D02*
X145263000Y-109626000D01*
X146995000Y-109601000D02*
X147884000Y-108712000D01*
X145288000Y-109601000D02*
X143539500Y-109601000D01*
X145288000Y-109601000D02*
X146995000Y-109601000D01*
X145263000Y-109626000D02*
X145288000Y-109601000D01*
%TO.N,+3V3*%
X143435500Y-116898500D02*
X143458000Y-116921000D01*
X142883000Y-116921000D02*
X143458000Y-116921000D01*
X137196000Y-110744000D02*
X137940000Y-110000000D01*
D42*
X165750000Y-114936000D02*
X166498000Y-114936000D01*
D40*
X166446000Y-110236000D02*
X165354000Y-110236000D01*
D39*
X145058000Y-116921000D02*
X146633000Y-116921000D01*
X146633000Y-116921000D02*
X146858000Y-117146000D01*
D40*
X136144000Y-111252000D02*
X136652000Y-110744000D01*
X136652000Y-110744000D02*
X137196000Y-110744000D01*
D42*
X166498000Y-114936000D02*
X167005000Y-115443000D01*
D39*
X151108000Y-120396000D02*
X151858000Y-121146000D01*
D40*
X137940000Y-110000000D02*
X138838000Y-109102000D01*
D39*
X151108000Y-119583500D02*
X151108000Y-120396000D01*
%TO.N,Net-(C11-Pad1)*%
X152458000Y-125335000D02*
X152458000Y-125960000D01*
X152058000Y-126360000D02*
X150758000Y-126360000D01*
X150758000Y-126360000D02*
X150533000Y-126585000D01*
X152458000Y-125960000D02*
X152058000Y-126360000D01*
X150108000Y-122985000D02*
X152458000Y-125335000D01*
X150108000Y-122985000D02*
X150108000Y-119583500D01*
%TO.N,Net-(U3-VR_PA)*%
X152058000Y-118896000D02*
X151795500Y-118896000D01*
D40*
X156008000Y-121746000D02*
X156008000Y-123446000D01*
D39*
X152008000Y-118896000D02*
X151795500Y-118896000D01*
D40*
X156258000Y-120331000D02*
X156258000Y-121396000D01*
D39*
X152424000Y-118896000D02*
X153859000Y-120331000D01*
D40*
X156258000Y-121396000D02*
X155908000Y-121746000D01*
D39*
X153859000Y-120331000D02*
X153989000Y-120331000D01*
D40*
X156258000Y-120331000D02*
X153989000Y-120331000D01*
D39*
X151795500Y-118896000D02*
X152424000Y-118896000D01*
D40*
%TO.N,Net-(C10-Pad1)*%
X161133000Y-120856000D02*
X160743000Y-121246000D01*
X161133000Y-119546000D02*
X162851200Y-119546000D01*
X161133000Y-119546000D02*
X161133000Y-120856000D01*
X162864800Y-119532400D02*
X162864800Y-121178200D01*
X162851200Y-119546000D02*
X162864800Y-119532400D01*
X162864800Y-121178200D02*
X162758000Y-121285000D01*
%TO.N,Net-(C10-Pad2)*%
X159358000Y-119571000D02*
X159383000Y-119546000D01*
X159383000Y-120856000D02*
X159773000Y-121246000D01*
X157758000Y-119571000D02*
X159358000Y-119571000D01*
X156258000Y-119361000D02*
X157548000Y-119361000D01*
X157548000Y-119361000D02*
X157758000Y-119571000D01*
X159383000Y-119546000D02*
X159383000Y-120856000D01*
X155043000Y-119346000D02*
X156243000Y-119346000D01*
X156243000Y-119346000D02*
X156258000Y-119361000D01*
D39*
%TO.N,Net-(U3-XTA)*%
X152458000Y-123585000D02*
X151683000Y-123585000D01*
X151683000Y-123585000D02*
X151358000Y-123260000D01*
D40*
%TO.N,Net-(C12-Pad1)*%
X164947400Y-119865000D02*
X166217600Y-119865000D01*
X164614800Y-119532400D02*
X164947400Y-119865000D01*
D42*
%TO.N,Net-(U4-RF1)*%
X166042893Y-118720293D02*
X166217600Y-118895000D01*
X165750000Y-116836000D02*
X165750000Y-118013186D01*
D40*
X166217600Y-118895000D02*
X168030000Y-118895000D01*
X168030000Y-118895000D02*
X168148000Y-119013000D01*
D42*
X165750000Y-118013186D02*
G75*
G03*
X166042886Y-118720300I1000000J-14D01*
G01*
D39*
%TO.N,/SCK*%
X151108000Y-115708500D02*
X151108000Y-115177408D01*
X151108000Y-115177408D02*
X151917760Y-114367648D01*
%TO.N,/MISO*%
X150108000Y-115708500D02*
X150108000Y-114763136D01*
%TO.N,/MOSI*%
X150608000Y-115708500D02*
X150608000Y-114970272D01*
%TO.N,/#CS*%
X151795500Y-116396000D02*
X151795500Y-115208500D01*
X151795500Y-115208500D02*
X152136332Y-114867668D01*
%TO.N,/#RESET*%
X149608000Y-115708500D02*
X149608000Y-114556000D01*
D42*
X168021000Y-110236000D02*
X169164000Y-110236000D01*
D39*
%TO.N,/DIO1*%
X148608000Y-115708500D02*
X148608000Y-114028000D01*
%TO.N,/DIO2*%
X147920500Y-116396000D02*
X147920500Y-113898636D01*
D40*
X162382000Y-110236000D02*
X162289920Y-110236000D01*
D42*
X161636080Y-109490080D02*
X162382000Y-110236000D01*
X161544000Y-109490080D02*
X161636080Y-109490080D01*
D39*
%TO.N,/DIO3*%
X148608000Y-120439519D02*
X148201518Y-120846001D01*
X148201518Y-120846001D02*
X147901519Y-121146000D01*
X146058000Y-113746046D02*
X147365954Y-113746046D01*
X148608000Y-119583500D02*
X148608000Y-120439519D01*
X147365954Y-113746046D02*
X150368000Y-110744000D01*
%TO.N,/BUSY*%
X149108000Y-115708500D02*
X149108000Y-114235136D01*
D42*
%TO.N,Net-(U4-RFC)*%
X165100000Y-114936000D02*
X165100000Y-113159600D01*
X165100000Y-113159600D02*
X165229600Y-113030000D01*
D40*
%TO.N,Net-(C16-Pad1)*%
X168949600Y-113055000D02*
X170439600Y-113055000D01*
X170439600Y-113055000D02*
X170464600Y-113030000D01*
X166979600Y-113030000D02*
X168924600Y-113030000D01*
X168924600Y-113030000D02*
X168949600Y-113055000D01*
%TO.N,Net-(C18-Pad2)*%
X172924600Y-113030000D02*
X172949600Y-113055000D01*
X171434600Y-113030000D02*
X172924600Y-113030000D01*
X176088427Y-114300000D02*
X179374800Y-114300000D01*
X174462787Y-113502787D02*
X174674214Y-113714214D01*
X172720000Y-112917000D02*
X173048573Y-112917000D01*
X176088427Y-114300000D02*
G75*
G02*
X174674200Y-113714228I-27J2000000D01*
G01*
X173048573Y-112917000D02*
G75*
G02*
X174462801Y-113502773I27J-2000000D01*
G01*
%TO.N,Net-(U3-RFI_N)*%
X157512893Y-116923893D02*
X157635000Y-117046000D01*
X155970000Y-116631000D02*
X155483107Y-116631000D01*
X155129553Y-116777447D02*
X154157446Y-117749554D01*
D39*
X151795500Y-117896000D02*
X153803893Y-117896000D01*
D40*
X156805786Y-116631000D02*
X155970000Y-116631000D01*
X156805786Y-116631000D02*
G75*
G02*
X157512900Y-116923886I14J-1000000D01*
G01*
X155129553Y-116777447D02*
G75*
G02*
X155483107Y-116631005I353547J-353553D01*
G01*
X154157446Y-117749554D02*
G75*
G02*
X153803893Y-117895995I-353546J353554D01*
G01*
D42*
%TO.N,Net-(U4-RF2)*%
X161743000Y-116836000D02*
X161558000Y-117021000D01*
D40*
X161533000Y-117046000D02*
X161558000Y-117021000D01*
X159385000Y-117046000D02*
X161533000Y-117046000D01*
D42*
X164450000Y-116836000D02*
X161743000Y-116836000D01*
D40*
%TO.N,Net-(U3-RFI_P)*%
X154525980Y-116320332D02*
X153670000Y-117176312D01*
D39*
X152733000Y-117396000D02*
X152779893Y-117396000D01*
D40*
X155038865Y-115807447D02*
X154525980Y-116320332D01*
X156875786Y-115661000D02*
X155970000Y-115661000D01*
D39*
X151795500Y-117396000D02*
X152733000Y-117396000D01*
D40*
X157582893Y-115368107D02*
X157635000Y-115316000D01*
D39*
X153596759Y-117249553D02*
X153670000Y-117176312D01*
X152733000Y-117396000D02*
X153243205Y-117396000D01*
D40*
X155970000Y-115661000D02*
X155392419Y-115661000D01*
X155038865Y-115807447D02*
G75*
G02*
X155392419Y-115661013I353535J-353553D01*
G01*
X157582893Y-115368107D02*
G75*
G02*
X156875786Y-115660990I-707093J707107D01*
G01*
D39*
X153243205Y-117396000D02*
G75*
G03*
X153596756Y-117249550I-5J500000D01*
G01*
D42*
%TO.N,Net-(U4-CTRL)*%
X162814000Y-111379000D02*
X163957000Y-110236000D01*
X162814000Y-111633000D02*
X162179000Y-111633000D01*
X162814000Y-111633000D02*
X162814000Y-111379000D01*
X162179000Y-111633000D02*
X161671000Y-112141000D01*
X163704000Y-114936000D02*
X163703000Y-114935000D01*
X164450000Y-114936000D02*
X163704000Y-114936000D01*
D39*
%TO.N,Net-(U3-VREG)*%
X145058000Y-120621000D02*
X146195500Y-120621000D01*
X143158000Y-120332500D02*
X144769500Y-120332500D01*
X146195500Y-120621000D02*
X147920500Y-118896000D01*
X144769500Y-120332500D02*
X145058000Y-120621000D01*
%TO.N,Net-(U3-RFO)*%
X151795500Y-118396000D02*
X153123000Y-118396000D01*
D40*
X154073000Y-119346000D02*
X153738832Y-119011832D01*
X153738832Y-119011832D02*
X153738832Y-119001832D01*
X153738832Y-119001832D02*
X153283000Y-118546000D01*
D39*
X153123000Y-118396000D02*
X153133000Y-118396000D01*
X153133000Y-118396000D02*
X153283000Y-118546000D01*
%TO.N,Net-(U3-DCC_SW)*%
X143410500Y-118493500D02*
X143158000Y-118493500D01*
X144008000Y-117896000D02*
X143410500Y-118493500D01*
X147920500Y-117896000D02*
X144008000Y-117896000D01*
%TO.N,unconnected-(U3-XTB-Pad4)*%
X147683000Y-125760000D02*
X147258000Y-125335000D01*
X148958000Y-125760000D02*
X147683000Y-125760000D01*
X149183000Y-125535000D02*
X148958000Y-125760000D01*
X149608000Y-122985000D02*
X147258000Y-125335000D01*
X149608000Y-122985000D02*
X149608000Y-119583500D01*
%TD*%
%TA.AperFunction,Conductor*%
%TO.N,+3V3*%
G36*
X147474673Y-116779338D02*
G01*
X147475193Y-116777557D01*
X147484298Y-116780211D01*
X147532066Y-116786500D01*
X147869090Y-116786500D01*
X147971910Y-116786500D01*
X148168500Y-116786500D01*
X148235539Y-116806185D01*
X148281294Y-116858989D01*
X148292500Y-116910500D01*
X148292500Y-117381500D01*
X148272815Y-117448539D01*
X148220011Y-117494294D01*
X148168500Y-117505500D01*
X144067022Y-117505500D01*
X144067006Y-117505499D01*
X144059410Y-117505499D01*
X143956590Y-117505499D01*
X143956588Y-117505499D01*
X143914506Y-117516775D01*
X143882414Y-117521000D01*
X143082000Y-117521000D01*
X143014961Y-117501315D01*
X142969206Y-117448511D01*
X142958000Y-117397000D01*
X142958000Y-116895000D01*
X142977685Y-116827961D01*
X143030489Y-116782206D01*
X143082000Y-116771000D01*
X147437055Y-116771000D01*
X147474673Y-116779338D01*
G37*
%TD.AperFunction*%
%TD*%
%TA.AperFunction,Conductor*%
%TO.N,Net-(U3-VR_PA)*%
G36*
X152249431Y-118841502D02*
G01*
X152270405Y-118858405D01*
X153777355Y-120365356D01*
X153777401Y-120365400D01*
X153789646Y-120376447D01*
X153826827Y-120436929D01*
X153825405Y-120507911D01*
X153785834Y-120566857D01*
X153720675Y-120595051D01*
X153705244Y-120596000D01*
X153260190Y-120596000D01*
X153192069Y-120575998D01*
X153171095Y-120559095D01*
X151648596Y-119036595D01*
X151614570Y-118974283D01*
X151619635Y-118903467D01*
X151662182Y-118846632D01*
X151728702Y-118821821D01*
X151737691Y-118821500D01*
X151739482Y-118821500D01*
X152181310Y-118821500D01*
X152249431Y-118841502D01*
G37*
%TD.AperFunction*%
%TD*%
%TA.AperFunction,Conductor*%
%TO.N,GND*%
G36*
X147520434Y-118295502D02*
G01*
X147566927Y-118349158D01*
X147577031Y-118419432D01*
X147547537Y-118484012D01*
X147495451Y-118517485D01*
X147495926Y-118518504D01*
X147488422Y-118522002D01*
X147487811Y-118522396D01*
X147487572Y-118522466D01*
X147487191Y-118522576D01*
X147385868Y-118569824D01*
X147306824Y-118648868D01*
X147259577Y-118750190D01*
X147253500Y-118796351D01*
X147253500Y-118974115D01*
X147233498Y-119042236D01*
X147216595Y-119063210D01*
X146075211Y-120204595D01*
X146012899Y-120238620D01*
X145986116Y-120241500D01*
X145886923Y-120241500D01*
X145818802Y-120221498D01*
X145772309Y-120167842D01*
X145768867Y-120159533D01*
X145733175Y-120063837D01*
X145733172Y-120063833D01*
X145733172Y-120063832D01*
X145686883Y-120001999D01*
X145650544Y-119953456D01*
X145588547Y-119907045D01*
X145540167Y-119870827D01*
X145540166Y-119870826D01*
X145508929Y-119859175D01*
X145410973Y-119822640D01*
X145403834Y-119821872D01*
X145353871Y-119816500D01*
X145353864Y-119816500D01*
X144762136Y-119816500D01*
X144762128Y-119816500D01*
X144705027Y-119822640D01*
X144575835Y-119870825D01*
X144533512Y-119902509D01*
X144499636Y-119927868D01*
X144433118Y-119952679D01*
X144424128Y-119953000D01*
X143990804Y-119953000D01*
X143922683Y-119932998D01*
X143889936Y-119902509D01*
X143877330Y-119885669D01*
X143768390Y-119804119D01*
X143768385Y-119804116D01*
X143640884Y-119756559D01*
X143640876Y-119756557D01*
X143584533Y-119750500D01*
X143584522Y-119750500D01*
X142731478Y-119750500D01*
X142731466Y-119750500D01*
X142675123Y-119756557D01*
X142675122Y-119756558D01*
X142675119Y-119756558D01*
X142675119Y-119756559D01*
X142622868Y-119776048D01*
X142545224Y-119805008D01*
X142474408Y-119810073D01*
X142412098Y-119776049D01*
X142338323Y-119702274D01*
X142338322Y-119702273D01*
X142338320Y-119702272D01*
X142276684Y-119670867D01*
X142225068Y-119622119D01*
X142208002Y-119553204D01*
X142230902Y-119486003D01*
X142276684Y-119446333D01*
X142310931Y-119428883D01*
X142338323Y-119414926D01*
X142428926Y-119324323D01*
X142487098Y-119210155D01*
X142502100Y-119115434D01*
X142502100Y-119115426D01*
X142502489Y-119110496D01*
X142504945Y-119110689D01*
X142522102Y-119052261D01*
X142575758Y-119005768D01*
X142646032Y-118995664D01*
X142672130Y-119002326D01*
X142675119Y-119003441D01*
X142675125Y-119003441D01*
X142675126Y-119003442D01*
X142675123Y-119003442D01*
X142731466Y-119009499D01*
X142731471Y-119009499D01*
X142731478Y-119009500D01*
X142731484Y-119009500D01*
X143584516Y-119009500D01*
X143584522Y-119009500D01*
X143584529Y-119009499D01*
X143584533Y-119009499D01*
X143640876Y-119003442D01*
X143640879Y-119003441D01*
X143640881Y-119003441D01*
X143643863Y-119002329D01*
X143661785Y-118995644D01*
X143768387Y-118955883D01*
X143877330Y-118874330D01*
X143958883Y-118765387D01*
X144006441Y-118637881D01*
X144012500Y-118581522D01*
X144012500Y-118480384D01*
X144032502Y-118412263D01*
X144049405Y-118391289D01*
X144128289Y-118312405D01*
X144190601Y-118278379D01*
X144217384Y-118275500D01*
X147452313Y-118275500D01*
X147520434Y-118295502D01*
G37*
%TD.AperFunction*%
%TA.AperFunction,Conductor*%
G36*
X150911248Y-116345668D02*
G01*
X150962189Y-116369422D01*
X151008356Y-116375500D01*
X151008370Y-116375500D01*
X151010846Y-116375663D01*
X151011547Y-116375920D01*
X151012444Y-116376038D01*
X151012417Y-116376238D01*
X151077513Y-116400077D01*
X151120397Y-116456658D01*
X151128335Y-116493135D01*
X151128499Y-116495638D01*
X151134577Y-116541809D01*
X151181824Y-116643131D01*
X151260868Y-116722175D01*
X151260869Y-116722175D01*
X151260871Y-116722177D01*
X151362189Y-116769422D01*
X151366557Y-116769997D01*
X151374766Y-116771078D01*
X151439693Y-116799800D01*
X151478785Y-116859065D01*
X151479630Y-116930056D01*
X151441960Y-116990235D01*
X151377735Y-117020495D01*
X151374766Y-117020922D01*
X151362190Y-117022577D01*
X151260868Y-117069824D01*
X151181824Y-117148868D01*
X151134577Y-117250190D01*
X151128500Y-117296351D01*
X151128500Y-117495648D01*
X151134577Y-117541810D01*
X151134577Y-117541811D01*
X151158331Y-117592751D01*
X151168992Y-117662942D01*
X151158331Y-117699249D01*
X151134577Y-117750188D01*
X151134577Y-117750189D01*
X151128500Y-117796351D01*
X151128500Y-117995648D01*
X151134577Y-118041810D01*
X151134577Y-118041811D01*
X151158331Y-118092751D01*
X151168992Y-118162942D01*
X151158331Y-118199249D01*
X151134577Y-118250188D01*
X151134577Y-118250189D01*
X151128500Y-118296351D01*
X151128500Y-118495648D01*
X151134577Y-118541810D01*
X151134577Y-118541811D01*
X151158331Y-118592751D01*
X151168992Y-118662942D01*
X151158331Y-118699249D01*
X151134577Y-118750188D01*
X151134577Y-118750189D01*
X151128499Y-118796361D01*
X151128335Y-118798865D01*
X151128077Y-118799568D01*
X151127962Y-118800444D01*
X151127765Y-118800418D01*
X151103911Y-118865528D01*
X151047323Y-118908404D01*
X151010865Y-118916335D01*
X151008361Y-118916499D01*
X150962190Y-118922577D01*
X150860868Y-118969824D01*
X150781824Y-119048868D01*
X150734577Y-119150190D01*
X150732922Y-119162766D01*
X150704200Y-119227693D01*
X150644935Y-119266785D01*
X150573944Y-119267630D01*
X150513765Y-119229960D01*
X150483505Y-119165735D01*
X150483078Y-119162766D01*
X150481422Y-119150190D01*
X150481422Y-119150189D01*
X150434177Y-119048871D01*
X150434175Y-119048869D01*
X150434175Y-119048868D01*
X150355131Y-118969824D01*
X150253809Y-118922577D01*
X150207648Y-118916500D01*
X150207644Y-118916500D01*
X150008356Y-118916500D01*
X150008351Y-118916500D01*
X149962189Y-118922577D01*
X149962188Y-118922577D01*
X149911249Y-118946331D01*
X149841058Y-118956992D01*
X149804751Y-118946331D01*
X149753811Y-118922577D01*
X149707648Y-118916500D01*
X149707644Y-118916500D01*
X149508356Y-118916500D01*
X149508351Y-118916500D01*
X149462190Y-118922577D01*
X149360868Y-118969824D01*
X149281824Y-119048868D01*
X149234577Y-119150190D01*
X149232922Y-119162766D01*
X149204200Y-119227693D01*
X149144935Y-119266785D01*
X149073944Y-119267630D01*
X149013765Y-119229960D01*
X148983505Y-119165735D01*
X148983078Y-119162766D01*
X148981422Y-119150190D01*
X148981422Y-119150189D01*
X148934177Y-119048871D01*
X148934175Y-119048869D01*
X148934175Y-119048868D01*
X148855131Y-118969824D01*
X148753809Y-118922577D01*
X148707638Y-118916499D01*
X148705135Y-118916335D01*
X148704431Y-118916077D01*
X148703556Y-118915962D01*
X148703581Y-118915765D01*
X148638472Y-118891912D01*
X148595595Y-118835324D01*
X148587663Y-118798846D01*
X148587500Y-118796370D01*
X148587500Y-118796356D01*
X148581422Y-118750189D01*
X148534177Y-118648871D01*
X148534175Y-118648869D01*
X148534175Y-118648868D01*
X148455131Y-118569824D01*
X148353809Y-118522577D01*
X148341234Y-118520922D01*
X148276307Y-118492201D01*
X148237214Y-118432936D01*
X148236369Y-118361944D01*
X148274038Y-118301765D01*
X148338263Y-118271505D01*
X148341234Y-118271078D01*
X148346765Y-118270349D01*
X148353811Y-118269422D01*
X148455129Y-118222177D01*
X148534177Y-118143129D01*
X148581422Y-118041811D01*
X148587500Y-117995644D01*
X148587500Y-117796356D01*
X148581422Y-117750189D01*
X148557668Y-117699249D01*
X148547007Y-117629059D01*
X148557669Y-117592749D01*
X148567730Y-117571173D01*
X148581422Y-117541811D01*
X148587500Y-117495644D01*
X148587500Y-117296356D01*
X148581422Y-117250189D01*
X148574803Y-117235995D01*
X148563000Y-117182749D01*
X148563000Y-117109251D01*
X148574805Y-117056001D01*
X148581422Y-117041811D01*
X148587500Y-116995644D01*
X148587500Y-116796356D01*
X148581422Y-116750189D01*
X148557668Y-116699249D01*
X148547007Y-116629059D01*
X148557669Y-116592749D01*
X148559683Y-116588430D01*
X148581422Y-116541811D01*
X148587500Y-116495644D01*
X148587500Y-116495628D01*
X148587663Y-116493154D01*
X148587920Y-116492452D01*
X148588038Y-116491556D01*
X148588238Y-116491582D01*
X148612076Y-116426487D01*
X148668657Y-116383602D01*
X148705154Y-116375663D01*
X148707629Y-116375500D01*
X148707644Y-116375500D01*
X148753811Y-116369422D01*
X148804750Y-116345668D01*
X148874941Y-116335007D01*
X148911248Y-116345668D01*
X148962189Y-116369422D01*
X149008356Y-116375500D01*
X149008363Y-116375500D01*
X149207637Y-116375500D01*
X149207644Y-116375500D01*
X149253811Y-116369422D01*
X149304750Y-116345668D01*
X149374941Y-116335007D01*
X149411248Y-116345668D01*
X149462189Y-116369422D01*
X149508356Y-116375500D01*
X149508363Y-116375500D01*
X149707637Y-116375500D01*
X149707644Y-116375500D01*
X149753811Y-116369422D01*
X149804750Y-116345668D01*
X149874941Y-116335007D01*
X149911248Y-116345668D01*
X149962189Y-116369422D01*
X150008356Y-116375500D01*
X150008363Y-116375500D01*
X150207637Y-116375500D01*
X150207644Y-116375500D01*
X150253811Y-116369422D01*
X150304750Y-116345668D01*
X150374941Y-116335007D01*
X150411248Y-116345668D01*
X150462189Y-116369422D01*
X150508356Y-116375500D01*
X150508363Y-116375500D01*
X150707637Y-116375500D01*
X150707644Y-116375500D01*
X150753811Y-116369422D01*
X150804750Y-116345668D01*
X150874941Y-116335007D01*
X150911248Y-116345668D01*
G37*
%TD.AperFunction*%
%TA.AperFunction,Conductor*%
G36*
X139693716Y-109604034D02*
G01*
X139741160Y-109656851D01*
X139753499Y-109711231D01*
X139753499Y-110392768D01*
X139733497Y-110460889D01*
X139679841Y-110507382D01*
X139609567Y-110517486D01*
X139557497Y-110497533D01*
X139467302Y-110437266D01*
X139393069Y-110422500D01*
X139393067Y-110422500D01*
X138553754Y-110422500D01*
X138485633Y-110402498D01*
X138439140Y-110348842D01*
X138429036Y-110278568D01*
X138437344Y-110248285D01*
X138445431Y-110228760D01*
X138450492Y-110216540D01*
X138477801Y-110175668D01*
X138935068Y-109718401D01*
X138997378Y-109684378D01*
X139024161Y-109681499D01*
X139393064Y-109681499D01*
X139393066Y-109681499D01*
X139393069Y-109681498D01*
X139393072Y-109681498D01*
X139417352Y-109676668D01*
X139467301Y-109666734D01*
X139551484Y-109610484D01*
X139551485Y-109610482D01*
X139557496Y-109606466D01*
X139625249Y-109585251D01*
X139693716Y-109604034D01*
G37*
%TD.AperFunction*%
%TA.AperFunction,Conductor*%
G36*
X184607621Y-99834502D02*
G01*
X184654114Y-99888158D01*
X184665500Y-99940500D01*
X184665500Y-111254404D01*
X184645498Y-111322525D01*
X184591842Y-111369018D01*
X184521568Y-111379122D01*
X184476504Y-111363526D01*
X184467988Y-111358609D01*
X184467983Y-111358607D01*
X184433873Y-111349467D01*
X184340692Y-111324500D01*
X177890692Y-111324500D01*
X177758908Y-111324500D01*
X177690694Y-111342777D01*
X177631616Y-111358607D01*
X177631609Y-111358610D01*
X177517489Y-111424497D01*
X177517479Y-111424505D01*
X177424305Y-111517679D01*
X177424297Y-111517689D01*
X177358410Y-111631809D01*
X177358407Y-111631816D01*
X177324300Y-111759109D01*
X177324300Y-113669500D01*
X177304298Y-113737621D01*
X177250642Y-113784114D01*
X177198300Y-113795500D01*
X176162572Y-113795500D01*
X176162556Y-113795499D01*
X176092538Y-113795499D01*
X176084299Y-113795229D01*
X175901458Y-113783248D01*
X175885117Y-113781097D01*
X175709457Y-113746158D01*
X175693538Y-113741893D01*
X175523927Y-113684321D01*
X175508705Y-113678016D01*
X175348070Y-113598801D01*
X175333802Y-113590564D01*
X175184874Y-113491055D01*
X175171799Y-113481022D01*
X175034255Y-113360403D01*
X175028236Y-113354765D01*
X174857407Y-113183936D01*
X174857372Y-113183872D01*
X174720085Y-113046588D01*
X174720077Y-113046580D01*
X174500152Y-112871199D01*
X174261963Y-112721538D01*
X174008518Y-112599488D01*
X173742995Y-112506581D01*
X173742982Y-112506578D01*
X173468754Y-112443991D01*
X173310282Y-112426137D01*
X173248880Y-112401797D01*
X173202163Y-112366825D01*
X173169992Y-112354826D01*
X173072973Y-112318640D01*
X173065834Y-112317872D01*
X173015871Y-112312500D01*
X173015864Y-112312500D01*
X172424136Y-112312500D01*
X172424128Y-112312500D01*
X172367027Y-112318640D01*
X172237835Y-112366825D01*
X172127454Y-112449457D01*
X172108327Y-112475009D01*
X172051492Y-112517556D01*
X172007459Y-112525500D01*
X171846244Y-112525500D01*
X171789042Y-112511767D01*
X171707876Y-112470411D01*
X171707874Y-112470410D01*
X171707873Y-112470410D01*
X171613737Y-112455500D01*
X171613733Y-112455500D01*
X171255465Y-112455500D01*
X171161327Y-112470409D01*
X171047863Y-112528221D01*
X171038695Y-112537390D01*
X170976383Y-112571416D01*
X170905568Y-112566351D01*
X170860505Y-112537390D01*
X170851336Y-112528221D01*
X170851337Y-112528221D01*
X170737876Y-112470411D01*
X170737874Y-112470410D01*
X170737873Y-112470410D01*
X170643737Y-112455500D01*
X170643733Y-112455500D01*
X170285465Y-112455500D01*
X170191327Y-112470409D01*
X170069029Y-112532723D01*
X170068055Y-112530812D01*
X170013455Y-112550294D01*
X170006261Y-112550500D01*
X169534714Y-112550500D01*
X169466593Y-112530498D01*
X169459205Y-112525368D01*
X169431763Y-112504825D01*
X169402665Y-112493972D01*
X169302573Y-112456640D01*
X169291970Y-112455500D01*
X169245471Y-112450500D01*
X169245464Y-112450500D01*
X168653736Y-112450500D01*
X168653728Y-112450500D01*
X168596627Y-112456640D01*
X168467437Y-112504825D01*
X168467436Y-112504825D01*
X168467435Y-112504826D01*
X168459528Y-112509144D01*
X168457893Y-112506150D01*
X168406856Y-112525180D01*
X168397882Y-112525500D01*
X167576125Y-112525500D01*
X167508004Y-112505498D01*
X167475258Y-112475011D01*
X167447144Y-112437456D01*
X167336764Y-112354825D01*
X167223284Y-112312500D01*
X167207573Y-112306640D01*
X167200434Y-112305872D01*
X167150471Y-112300500D01*
X167150464Y-112300500D01*
X166608736Y-112300500D01*
X166608728Y-112300500D01*
X166551627Y-112306640D01*
X166422433Y-112354826D01*
X166422432Y-112354827D01*
X166312056Y-112437456D01*
X166229427Y-112547832D01*
X166229426Y-112547833D01*
X166226219Y-112556430D01*
X166222654Y-112565988D01*
X166180109Y-112622823D01*
X166113589Y-112647634D01*
X166044215Y-112632543D01*
X165994013Y-112582341D01*
X165986546Y-112565993D01*
X165979775Y-112547837D01*
X165979773Y-112547835D01*
X165979773Y-112547833D01*
X165979772Y-112547832D01*
X165944549Y-112500781D01*
X165897144Y-112437456D01*
X165841225Y-112395595D01*
X165786767Y-112354827D01*
X165786766Y-112354826D01*
X165673284Y-112312500D01*
X165657573Y-112306640D01*
X165650434Y-112305872D01*
X165600471Y-112300500D01*
X165600464Y-112300500D01*
X165058736Y-112300500D01*
X165058728Y-112300500D01*
X165001627Y-112306640D01*
X164872433Y-112354826D01*
X164872432Y-112354827D01*
X164762056Y-112437456D01*
X164679427Y-112547832D01*
X164679426Y-112547833D01*
X164631240Y-112677027D01*
X164625100Y-112734128D01*
X164625100Y-113325871D01*
X164628813Y-113360403D01*
X164631240Y-113382973D01*
X164675274Y-113501034D01*
X164679427Y-113512168D01*
X164680087Y-113513376D01*
X164680540Y-113515151D01*
X164682575Y-113520607D01*
X164681988Y-113520825D01*
X164695500Y-113573761D01*
X164695500Y-114230500D01*
X164675498Y-114298621D01*
X164621842Y-114345114D01*
X164569500Y-114356500D01*
X164224936Y-114356500D01*
X164224926Y-114356501D01*
X164150698Y-114371266D01*
X164069048Y-114425823D01*
X164001295Y-114447038D01*
X163950829Y-114437467D01*
X163847754Y-114394772D01*
X163847752Y-114394771D01*
X163703000Y-114375715D01*
X163558247Y-114394771D01*
X163491542Y-114422402D01*
X163423358Y-114450645D01*
X163423357Y-114450646D01*
X163423356Y-114450646D01*
X163307526Y-114539526D01*
X163218646Y-114655356D01*
X163218645Y-114655358D01*
X163198621Y-114703700D01*
X163162771Y-114790247D01*
X163143715Y-114934999D01*
X163143715Y-114935000D01*
X163162771Y-115079752D01*
X163218644Y-115214641D01*
X163218649Y-115214649D01*
X163307525Y-115330474D01*
X163423350Y-115419350D01*
X163423357Y-115419355D01*
X163558246Y-115475228D01*
X163703000Y-115494285D01*
X163847754Y-115475228D01*
X163948982Y-115433297D01*
X164019568Y-115425708D01*
X164067201Y-115444942D01*
X164150697Y-115500733D01*
X164150699Y-115500734D01*
X164224933Y-115515500D01*
X164675066Y-115515499D01*
X164749301Y-115500734D01*
X164749302Y-115500732D01*
X164750418Y-115500511D01*
X164799581Y-115500511D01*
X164800697Y-115500733D01*
X164800699Y-115500734D01*
X164874933Y-115515500D01*
X165325066Y-115515499D01*
X165399301Y-115500734D01*
X165399302Y-115500732D01*
X165400418Y-115500511D01*
X165449581Y-115500511D01*
X165450697Y-115500733D01*
X165450699Y-115500734D01*
X165524933Y-115515500D01*
X165975066Y-115515499D01*
X165975069Y-115515498D01*
X165975073Y-115515498D01*
X166024326Y-115505701D01*
X166049301Y-115500734D01*
X166133484Y-115444484D01*
X166165548Y-115396496D01*
X166220024Y-115350970D01*
X166270312Y-115340500D01*
X166278261Y-115340500D01*
X166346382Y-115360502D01*
X166367356Y-115377405D01*
X166417405Y-115427454D01*
X166451431Y-115489766D01*
X166453232Y-115500102D01*
X166464771Y-115587752D01*
X166520644Y-115722641D01*
X166520649Y-115722649D01*
X166609525Y-115838474D01*
X166725350Y-115927350D01*
X166725357Y-115927355D01*
X166860246Y-115983228D01*
X167005000Y-116002285D01*
X167149754Y-115983228D01*
X167284643Y-115927355D01*
X167400474Y-115838474D01*
X167489355Y-115722643D01*
X167545228Y-115587754D01*
X167564285Y-115443000D01*
X167562008Y-115425708D01*
X167545228Y-115298247D01*
X167545228Y-115298246D01*
X167489355Y-115163358D01*
X167400474Y-115047526D01*
X167400472Y-115047524D01*
X167400471Y-115047523D01*
X167284649Y-114958649D01*
X167284641Y-114958644D01*
X167149752Y-114902771D01*
X167062102Y-114891232D01*
X166997175Y-114862509D01*
X166989465Y-114855416D01*
X166746369Y-114612320D01*
X166746367Y-114612319D01*
X166746365Y-114612317D01*
X166654135Y-114559068D01*
X166654132Y-114559067D01*
X166654131Y-114559066D01*
X166654129Y-114559065D01*
X166654128Y-114559065D01*
X166620654Y-114550096D01*
X166551253Y-114531500D01*
X166551251Y-114531500D01*
X166270313Y-114531500D01*
X166202192Y-114511498D01*
X166165549Y-114475503D01*
X166133484Y-114427515D01*
X166049302Y-114371266D01*
X165975069Y-114356500D01*
X165630500Y-114356500D01*
X165562379Y-114336498D01*
X165515886Y-114282842D01*
X165504500Y-114230500D01*
X165504500Y-113882996D01*
X165524502Y-113814875D01*
X165578158Y-113768382D01*
X165617027Y-113757719D01*
X165657573Y-113753360D01*
X165786763Y-113705175D01*
X165897144Y-113622544D01*
X165979775Y-113512163D01*
X165986545Y-113494011D01*
X166029090Y-113437177D01*
X166095610Y-113412365D01*
X166164984Y-113427456D01*
X166215187Y-113477657D01*
X166222653Y-113494006D01*
X166225274Y-113501034D01*
X166229425Y-113512164D01*
X166229427Y-113512167D01*
X166252417Y-113542877D01*
X166312056Y-113622544D01*
X166374781Y-113669500D01*
X166422432Y-113705172D01*
X166422433Y-113705173D01*
X166422435Y-113705173D01*
X166422437Y-113705175D01*
X166551627Y-113753360D01*
X166608736Y-113759500D01*
X166608741Y-113759500D01*
X167150459Y-113759500D01*
X167150464Y-113759500D01*
X167207573Y-113753360D01*
X167336763Y-113705175D01*
X167447144Y-113622544D01*
X167471084Y-113590564D01*
X167475258Y-113584989D01*
X167532094Y-113542444D01*
X167576125Y-113534500D01*
X168157975Y-113534500D01*
X168226096Y-113554502D01*
X168269494Y-113604586D01*
X168270106Y-113604253D01*
X168271640Y-113607063D01*
X168272589Y-113608158D01*
X168273689Y-113610816D01*
X168274422Y-113612158D01*
X168274424Y-113612161D01*
X168274425Y-113612163D01*
X168357056Y-113722544D01*
X168388451Y-113746046D01*
X168467432Y-113805172D01*
X168467433Y-113805173D01*
X168467435Y-113805173D01*
X168467437Y-113805175D01*
X168596627Y-113853360D01*
X168653736Y-113859500D01*
X168653741Y-113859500D01*
X169245459Y-113859500D01*
X169245464Y-113859500D01*
X169302573Y-113853360D01*
X169431763Y-113805175D01*
X169542144Y-113722544D01*
X169597573Y-113648500D01*
X169626403Y-113609990D01*
X169683239Y-113567444D01*
X169727270Y-113559500D01*
X170102022Y-113559500D01*
X170159223Y-113573232D01*
X170191327Y-113589590D01*
X170285463Y-113604500D01*
X170643736Y-113604499D01*
X170737873Y-113589590D01*
X170851335Y-113531779D01*
X170851336Y-113531778D01*
X170860505Y-113522610D01*
X170922817Y-113488584D01*
X170993632Y-113493649D01*
X171038695Y-113522610D01*
X171047863Y-113531778D01*
X171047862Y-113531778D01*
X171152297Y-113584989D01*
X171161327Y-113589590D01*
X171255463Y-113604500D01*
X171613736Y-113604499D01*
X171707873Y-113589590D01*
X171789042Y-113548232D01*
X171846244Y-113534500D01*
X172026922Y-113534500D01*
X172095043Y-113554502D01*
X172120787Y-113578469D01*
X172121084Y-113578173D01*
X172127450Y-113584539D01*
X172127455Y-113584542D01*
X172127456Y-113584544D01*
X172172412Y-113618198D01*
X172237835Y-113667174D01*
X172237836Y-113667174D01*
X172237837Y-113667175D01*
X172367027Y-113715360D01*
X172424136Y-113721500D01*
X172424141Y-113721500D01*
X173015859Y-113721500D01*
X173015864Y-113721500D01*
X173072973Y-113715360D01*
X173202163Y-113667175D01*
X173312544Y-113584544D01*
X173349605Y-113535036D01*
X173406438Y-113492491D01*
X173477254Y-113487426D01*
X173490971Y-113491233D01*
X173519845Y-113501034D01*
X173613068Y-113532678D01*
X173628291Y-113538983D01*
X173788933Y-113618200D01*
X173803202Y-113626439D01*
X173952126Y-113725944D01*
X173965196Y-113735973D01*
X174057724Y-113817116D01*
X174102751Y-113856603D01*
X174108769Y-113862240D01*
X174280564Y-114034035D01*
X174280597Y-114034096D01*
X174416916Y-114170412D01*
X174416925Y-114170420D01*
X174625183Y-114336498D01*
X174636856Y-114345806D01*
X174875042Y-114495464D01*
X175128486Y-114617513D01*
X175394003Y-114710418D01*
X175394007Y-114710418D01*
X175394013Y-114710421D01*
X175668241Y-114773008D01*
X175668244Y-114773008D01*
X175668251Y-114773010D01*
X175947783Y-114804502D01*
X176088434Y-114804500D01*
X177198300Y-114804500D01*
X177266421Y-114824502D01*
X177312914Y-114878158D01*
X177324300Y-114930500D01*
X177324300Y-116709108D01*
X177324300Y-116840892D01*
X177333372Y-116874749D01*
X177358407Y-116968183D01*
X177358410Y-116968190D01*
X177424297Y-117082310D01*
X177424305Y-117082320D01*
X177517479Y-117175494D01*
X177517484Y-117175498D01*
X177517486Y-117175500D01*
X177517487Y-117175501D01*
X177517489Y-117175502D01*
X177578423Y-117210682D01*
X177631614Y-117241392D01*
X177758908Y-117275500D01*
X177758910Y-117275500D01*
X184340690Y-117275500D01*
X184340692Y-117275500D01*
X184467986Y-117241392D01*
X184476502Y-117236475D01*
X184545494Y-117219738D01*
X184612586Y-117242958D01*
X184656474Y-117298764D01*
X184665500Y-117345595D01*
X184665500Y-128659500D01*
X184645498Y-128727621D01*
X184591842Y-128774114D01*
X184539500Y-128785500D01*
X135500500Y-128785500D01*
X135432379Y-128765498D01*
X135385886Y-128711842D01*
X135374500Y-128659500D01*
X135374500Y-113751767D01*
X140293100Y-113751767D01*
X140293100Y-114115432D01*
X140308101Y-114210153D01*
X140366273Y-114324323D01*
X140456873Y-114414923D01*
X140456877Y-114414926D01*
X140518516Y-114446333D01*
X140570131Y-114495082D01*
X140587197Y-114563996D01*
X140564296Y-114631198D01*
X140518516Y-114670867D01*
X140456877Y-114702273D01*
X140456874Y-114702275D01*
X140366273Y-114792876D01*
X140308101Y-114907046D01*
X140293100Y-115001767D01*
X140293100Y-115365432D01*
X140308101Y-115460153D01*
X140366273Y-115574323D01*
X140456874Y-115664924D01*
X140456877Y-115664926D01*
X140518516Y-115696333D01*
X140570131Y-115745082D01*
X140587197Y-115813996D01*
X140564296Y-115881198D01*
X140518516Y-115920867D01*
X140456877Y-115952273D01*
X140456874Y-115952275D01*
X140366273Y-116042876D01*
X140308101Y-116157046D01*
X140293100Y-116251767D01*
X140293100Y-116615432D01*
X140308101Y-116710153D01*
X140366273Y-116824323D01*
X140456874Y-116914924D01*
X140456877Y-116914926D01*
X140518516Y-116946333D01*
X140570131Y-116995082D01*
X140587197Y-117063996D01*
X140564296Y-117131198D01*
X140518516Y-117170867D01*
X140456877Y-117202273D01*
X140456874Y-117202275D01*
X140366273Y-117292876D01*
X140308101Y-117407046D01*
X140293100Y-117501767D01*
X140293100Y-117865432D01*
X140308101Y-117960153D01*
X140366273Y-118074322D01*
X140366275Y-118074325D01*
X140456874Y-118164924D01*
X140456877Y-118164926D01*
X140518516Y-118196333D01*
X140570131Y-118245082D01*
X140587197Y-118313996D01*
X140564296Y-118381198D01*
X140518516Y-118420867D01*
X140456877Y-118452273D01*
X140456874Y-118452275D01*
X140366273Y-118542876D01*
X140308101Y-118657046D01*
X140293100Y-118751767D01*
X140293100Y-119115432D01*
X140308101Y-119210153D01*
X140366273Y-119324323D01*
X140456874Y-119414924D01*
X140456877Y-119414926D01*
X140518516Y-119446333D01*
X140570131Y-119495082D01*
X140587197Y-119563996D01*
X140564296Y-119631198D01*
X140518516Y-119670867D01*
X140456877Y-119702273D01*
X140456874Y-119702275D01*
X140366273Y-119792876D01*
X140308101Y-119907046D01*
X140293100Y-120001767D01*
X140293100Y-120365432D01*
X140308101Y-120460153D01*
X140366273Y-120574323D01*
X140456876Y-120664926D01*
X140499039Y-120686409D01*
X140571045Y-120723098D01*
X140665766Y-120738100D01*
X140665768Y-120738100D01*
X142129432Y-120738100D01*
X142129434Y-120738100D01*
X142189024Y-120728662D01*
X142259435Y-120737762D01*
X142313749Y-120783484D01*
X142326789Y-120809077D01*
X142357117Y-120890387D01*
X142357119Y-120890390D01*
X142438669Y-120999330D01*
X142534177Y-121070825D01*
X142547613Y-121080883D01*
X142602596Y-121101391D01*
X142675115Y-121128440D01*
X142675123Y-121128442D01*
X142731466Y-121134499D01*
X142731471Y-121134499D01*
X142731478Y-121134500D01*
X142731484Y-121134500D01*
X143584516Y-121134500D01*
X143584522Y-121134500D01*
X143584529Y-121134499D01*
X143584533Y-121134499D01*
X143640876Y-121128442D01*
X143640879Y-121128441D01*
X143640881Y-121128441D01*
X143768387Y-121080883D01*
X143877330Y-120999330D01*
X143958883Y-120890387D01*
X143989211Y-120809077D01*
X143994847Y-120793966D01*
X144037394Y-120737131D01*
X144103914Y-120712321D01*
X144112902Y-120712000D01*
X144206734Y-120712000D01*
X144274855Y-120732002D01*
X144321348Y-120785658D01*
X144332011Y-120824528D01*
X144333945Y-120842510D01*
X144334640Y-120848973D01*
X144382826Y-120978166D01*
X144382827Y-120978167D01*
X144405493Y-121008444D01*
X144465456Y-121088544D01*
X144518752Y-121128441D01*
X144575832Y-121171172D01*
X144575833Y-121171173D01*
X144575835Y-121171173D01*
X144575837Y-121171175D01*
X144705027Y-121219360D01*
X144762136Y-121225500D01*
X144762141Y-121225500D01*
X145353859Y-121225500D01*
X145353864Y-121225500D01*
X145410973Y-121219360D01*
X145540163Y-121171175D01*
X145650544Y-121088544D01*
X145674138Y-121057027D01*
X145678658Y-121050989D01*
X145735494Y-121008444D01*
X145779525Y-121000500D01*
X146137804Y-121000500D01*
X146137820Y-121000501D01*
X146145538Y-121000501D01*
X146245461Y-121000501D01*
X146245462Y-121000501D01*
X146328826Y-120978163D01*
X146328828Y-120978163D01*
X146336875Y-120976006D01*
X146341982Y-120974638D01*
X146428519Y-120924676D01*
X146499176Y-120854019D01*
X146509543Y-120843652D01*
X146509550Y-120843642D01*
X148013407Y-119339786D01*
X148075717Y-119305762D01*
X148146533Y-119310827D01*
X148203368Y-119353374D01*
X148228179Y-119419894D01*
X148228500Y-119428883D01*
X148228500Y-120230135D01*
X148208498Y-120298256D01*
X148191599Y-120319225D01*
X148079531Y-120431294D01*
X147968500Y-120542325D01*
X147968496Y-120542329D01*
X147957774Y-120553050D01*
X147895460Y-120587072D01*
X147885130Y-120588872D01*
X147756766Y-120605771D01*
X147700652Y-120629015D01*
X147621877Y-120661645D01*
X147621876Y-120661646D01*
X147621875Y-120661646D01*
X147506045Y-120750526D01*
X147417165Y-120866356D01*
X147417164Y-120866358D01*
X147393943Y-120922417D01*
X147361290Y-121001247D01*
X147342234Y-121145999D01*
X147342234Y-121146000D01*
X147361290Y-121290752D01*
X147417163Y-121425641D01*
X147417168Y-121425649D01*
X147506044Y-121541474D01*
X147621869Y-121630350D01*
X147621876Y-121630355D01*
X147756765Y-121686228D01*
X147901519Y-121705285D01*
X148046273Y-121686228D01*
X148181162Y-121630355D01*
X148296993Y-121541474D01*
X148385874Y-121425643D01*
X148441747Y-121290754D01*
X148458646Y-121162387D01*
X148487368Y-121097462D01*
X148494468Y-121089744D01*
X148505194Y-121079019D01*
X148830643Y-120753568D01*
X148830653Y-120753561D01*
X148911670Y-120672544D01*
X148911676Y-120672538D01*
X148959709Y-120589343D01*
X148961636Y-120586005D01*
X148961636Y-120586004D01*
X148961638Y-120586001D01*
X148980794Y-120514508D01*
X149017744Y-120453888D01*
X149081605Y-120422866D01*
X149152099Y-120431294D01*
X149206846Y-120476497D01*
X149228464Y-120544122D01*
X149228500Y-120547121D01*
X149228500Y-122775616D01*
X149208498Y-122843737D01*
X149191595Y-122864711D01*
X147024981Y-125031325D01*
X146989653Y-125066652D01*
X146954326Y-125101979D01*
X146954322Y-125101984D01*
X146904360Y-125188521D01*
X146878499Y-125285034D01*
X146878499Y-125384965D01*
X146904360Y-125481478D01*
X146954322Y-125568015D01*
X146954324Y-125568017D01*
X146954325Y-125568019D01*
X147374923Y-125988617D01*
X147374944Y-125988640D01*
X147449974Y-126063670D01*
X147449979Y-126063674D01*
X147449981Y-126063676D01*
X147449982Y-126063677D01*
X147449984Y-126063678D01*
X147536514Y-126113636D01*
X147536518Y-126113638D01*
X147556909Y-126119101D01*
X147556914Y-126119104D01*
X147556915Y-126119103D01*
X147633038Y-126139501D01*
X147740680Y-126139501D01*
X147740696Y-126139500D01*
X148900304Y-126139500D01*
X148900320Y-126139501D01*
X148908038Y-126139501D01*
X149007961Y-126139501D01*
X149007962Y-126139501D01*
X149084080Y-126119104D01*
X149084082Y-126119104D01*
X149091548Y-126117102D01*
X149104482Y-126113638D01*
X149191019Y-126063676D01*
X149261676Y-125993019D01*
X149272042Y-125982653D01*
X149272049Y-125982643D01*
X149486675Y-125768019D01*
X149536638Y-125681481D01*
X149562501Y-125584962D01*
X149562501Y-125485038D01*
X149536638Y-125388519D01*
X149486675Y-125301981D01*
X149486673Y-125301979D01*
X149486669Y-125301974D01*
X149416025Y-125231330D01*
X149416015Y-125231322D01*
X149329478Y-125181360D01*
X149232965Y-125155499D01*
X149232962Y-125155499D01*
X149133038Y-125155499D01*
X149133034Y-125155499D01*
X149036521Y-125181360D01*
X148949984Y-125231322D01*
X148949979Y-125231326D01*
X148896272Y-125285034D01*
X148837709Y-125343596D01*
X148775400Y-125377620D01*
X148748616Y-125380500D01*
X148053384Y-125380500D01*
X147985263Y-125360498D01*
X147938770Y-125306842D01*
X147928666Y-125236568D01*
X147958160Y-125171988D01*
X147964275Y-125165418D01*
X149768907Y-123360785D01*
X149831216Y-123326763D01*
X149902031Y-123331827D01*
X149947094Y-123360788D01*
X151691595Y-125105289D01*
X151725621Y-125167601D01*
X151728500Y-125194384D01*
X151728500Y-125505871D01*
X151733872Y-125555834D01*
X151734640Y-125562973D01*
X151742843Y-125584965D01*
X151782826Y-125692166D01*
X151829795Y-125754907D01*
X151839611Y-125768020D01*
X151847824Y-125778990D01*
X151872636Y-125845510D01*
X151857545Y-125914884D01*
X151807344Y-125965087D01*
X151746957Y-125980500D01*
X150815696Y-125980500D01*
X150815680Y-125980499D01*
X150807962Y-125980499D01*
X150708038Y-125980499D01*
X150677782Y-125988606D01*
X150631916Y-126000895D01*
X150631915Y-126000896D01*
X150611518Y-126006362D01*
X150611517Y-126006362D01*
X150611515Y-126006363D01*
X150611514Y-126006363D01*
X150524984Y-126056321D01*
X150524979Y-126056325D01*
X150489652Y-126091653D01*
X150454324Y-126126981D01*
X150454322Y-126126983D01*
X150454319Y-126126985D01*
X150229327Y-126351978D01*
X150229322Y-126351984D01*
X150179360Y-126438521D01*
X150153499Y-126535034D01*
X150153499Y-126634965D01*
X150179360Y-126731478D01*
X150229322Y-126818015D01*
X150229330Y-126818025D01*
X150299974Y-126888669D01*
X150299979Y-126888673D01*
X150299981Y-126888675D01*
X150299982Y-126888676D01*
X150299984Y-126888677D01*
X150386521Y-126938639D01*
X150483034Y-126964500D01*
X150483038Y-126964501D01*
X150582962Y-126964501D01*
X150631221Y-126951569D01*
X150679478Y-126938639D01*
X150679478Y-126938638D01*
X150679481Y-126938638D01*
X150766019Y-126888675D01*
X150878290Y-126776403D01*
X150940600Y-126742380D01*
X150967384Y-126739500D01*
X152000304Y-126739500D01*
X152000320Y-126739501D01*
X152008038Y-126739501D01*
X152107961Y-126739501D01*
X152107962Y-126739501D01*
X152184080Y-126719104D01*
X152184082Y-126719104D01*
X152191548Y-126717102D01*
X152204482Y-126713638D01*
X152291019Y-126663676D01*
X152361676Y-126593019D01*
X152372043Y-126582652D01*
X152372050Y-126582642D01*
X152680642Y-126274050D01*
X152680652Y-126274043D01*
X152761670Y-126193025D01*
X152761676Y-126193019D01*
X152804351Y-126119104D01*
X152811636Y-126106486D01*
X152811636Y-126106485D01*
X152811638Y-126106482D01*
X152837500Y-126009962D01*
X152837500Y-126009959D01*
X152838578Y-126001773D01*
X152840134Y-126001977D01*
X152857502Y-125942828D01*
X152911158Y-125896335D01*
X152919459Y-125892897D01*
X152940163Y-125885175D01*
X153050544Y-125802544D01*
X153133175Y-125692163D01*
X153181360Y-125562973D01*
X153187500Y-125505864D01*
X153187500Y-124964136D01*
X153181360Y-124907027D01*
X153133175Y-124777837D01*
X153133173Y-124777835D01*
X153133173Y-124777833D01*
X153133172Y-124777832D01*
X153097949Y-124730781D01*
X153050544Y-124667456D01*
X153003137Y-124631967D01*
X152940167Y-124584827D01*
X152940164Y-124584825D01*
X152932803Y-124582080D01*
X152922011Y-124578054D01*
X152865177Y-124535510D01*
X152840365Y-124468990D01*
X152855456Y-124399616D01*
X152905657Y-124349413D01*
X152922006Y-124341946D01*
X152940163Y-124335175D01*
X153050544Y-124252544D01*
X153133175Y-124142163D01*
X153181360Y-124012973D01*
X153187500Y-123955864D01*
X153187500Y-123414136D01*
X153181360Y-123357027D01*
X153133175Y-123227837D01*
X153133173Y-123227835D01*
X153133173Y-123227833D01*
X153133172Y-123227832D01*
X153075002Y-123150128D01*
X153050544Y-123117456D01*
X153003137Y-123081967D01*
X152940167Y-123034827D01*
X152940166Y-123034826D01*
X152906531Y-123022281D01*
X152810973Y-122986640D01*
X152803834Y-122985872D01*
X152753871Y-122980500D01*
X152753864Y-122980500D01*
X152162136Y-122980500D01*
X152162128Y-122980500D01*
X152105025Y-122986640D01*
X151991740Y-123028892D01*
X151920924Y-123033956D01*
X151858612Y-122999930D01*
X151848160Y-122986312D01*
X151847382Y-122986910D01*
X151842355Y-122980359D01*
X151842355Y-122980358D01*
X151753474Y-122864526D01*
X151753472Y-122864524D01*
X151753471Y-122864523D01*
X151637649Y-122775649D01*
X151637641Y-122775644D01*
X151502752Y-122719771D01*
X151358000Y-122700715D01*
X151213247Y-122719771D01*
X151172977Y-122736452D01*
X151078358Y-122775645D01*
X151078357Y-122775646D01*
X151078356Y-122775646D01*
X150962526Y-122864526D01*
X150873640Y-122980364D01*
X150870242Y-122986250D01*
X150818857Y-123035240D01*
X150749142Y-123048672D01*
X150683233Y-123022281D01*
X150672032Y-123012338D01*
X150524405Y-122864711D01*
X150490379Y-122802399D01*
X150487500Y-122775616D01*
X150487500Y-120503604D01*
X150507502Y-120435483D01*
X150561158Y-120388990D01*
X150631432Y-120378886D01*
X150696012Y-120408380D01*
X150734396Y-120468106D01*
X150735199Y-120470967D01*
X150740933Y-120492363D01*
X150746867Y-120514510D01*
X150754363Y-120542486D01*
X150804321Y-120629015D01*
X150804329Y-120629025D01*
X150882156Y-120706852D01*
X150882170Y-120706864D01*
X151265045Y-121089739D01*
X151299071Y-121152051D01*
X151300872Y-121162387D01*
X151317771Y-121290752D01*
X151373644Y-121425641D01*
X151373649Y-121425649D01*
X151462525Y-121541474D01*
X151578350Y-121630350D01*
X151578357Y-121630355D01*
X151713246Y-121686228D01*
X151858000Y-121705285D01*
X152002754Y-121686228D01*
X152137643Y-121630355D01*
X152253474Y-121541474D01*
X152342355Y-121425643D01*
X152398228Y-121290754D01*
X152417285Y-121146000D01*
X152414973Y-121128442D01*
X152403858Y-121044012D01*
X152398228Y-121001246D01*
X152342355Y-120866358D01*
X152253474Y-120750526D01*
X152253472Y-120750524D01*
X152253471Y-120750523D01*
X152137649Y-120661649D01*
X152137641Y-120661644D01*
X152002752Y-120605771D01*
X151874387Y-120588872D01*
X151809460Y-120560149D01*
X151801739Y-120553045D01*
X151524405Y-120275711D01*
X151490379Y-120213399D01*
X151487500Y-120186616D01*
X151487500Y-119611731D01*
X151507502Y-119543610D01*
X151561158Y-119497117D01*
X151631432Y-119487013D01*
X151696012Y-119516507D01*
X151702579Y-119522620D01*
X152955074Y-120775116D01*
X152976059Y-120793966D01*
X152979393Y-120796961D01*
X152979409Y-120796975D01*
X153000348Y-120813850D01*
X153000370Y-120813867D01*
X153005923Y-120818238D01*
X153106000Y-120869123D01*
X153174121Y-120889125D01*
X153174130Y-120889126D01*
X153174133Y-120889127D01*
X153260183Y-120901499D01*
X153260188Y-120901500D01*
X153260190Y-120901500D01*
X153705230Y-120901500D01*
X153705244Y-120901500D01*
X153723997Y-120900924D01*
X153739428Y-120899975D01*
X153841993Y-120875429D01*
X153899840Y-120850399D01*
X153910067Y-120845974D01*
X153910559Y-120847112D01*
X153960332Y-120835500D01*
X155388139Y-120835500D01*
X155456260Y-120855502D01*
X155502753Y-120909158D01*
X155512857Y-120979432D01*
X155483363Y-121044012D01*
X155457578Y-121064790D01*
X155458052Y-121065423D01*
X155340456Y-121153456D01*
X155257827Y-121263832D01*
X155257826Y-121263833D01*
X155209640Y-121393027D01*
X155203500Y-121450128D01*
X155203500Y-122041871D01*
X155209640Y-122098972D01*
X155257826Y-122228166D01*
X155257827Y-122228167D01*
X155303500Y-122289177D01*
X155340456Y-122338544D01*
X155450837Y-122421175D01*
X155450838Y-122421175D01*
X155453010Y-122422801D01*
X155495556Y-122479637D01*
X155503500Y-122523669D01*
X155503500Y-122668331D01*
X155483498Y-122736452D01*
X155453010Y-122769199D01*
X155450838Y-122770824D01*
X155450837Y-122770825D01*
X155340456Y-122853456D01*
X155340455Y-122853457D01*
X155340454Y-122853458D01*
X155257827Y-122963832D01*
X155257826Y-122963833D01*
X155209640Y-123093027D01*
X155203500Y-123150128D01*
X155203500Y-123741871D01*
X155209640Y-123798972D01*
X155257826Y-123928166D01*
X155257827Y-123928167D01*
X155304967Y-123991137D01*
X155340456Y-124038544D01*
X155403781Y-124085949D01*
X155450832Y-124121172D01*
X155450833Y-124121173D01*
X155450835Y-124121173D01*
X155450837Y-124121175D01*
X155580027Y-124169360D01*
X155637136Y-124175500D01*
X155637141Y-124175500D01*
X156178859Y-124175500D01*
X156178864Y-124175500D01*
X156235973Y-124169360D01*
X156365163Y-124121175D01*
X156475544Y-124038544D01*
X156558175Y-123928163D01*
X156606360Y-123798973D01*
X156612500Y-123741864D01*
X156612500Y-123150136D01*
X156606360Y-123093027D01*
X156558175Y-122963837D01*
X156537631Y-122936393D01*
X156512821Y-122869872D01*
X156512500Y-122860885D01*
X156512500Y-122331114D01*
X156532502Y-122262993D01*
X156537632Y-122255605D01*
X156538517Y-122254422D01*
X156558175Y-122228163D01*
X156606360Y-122098973D01*
X156612500Y-122041864D01*
X156612500Y-121807161D01*
X156632502Y-121739040D01*
X156649402Y-121718068D01*
X156661701Y-121705770D01*
X156725786Y-121594770D01*
X156728119Y-121590730D01*
X156762500Y-121462419D01*
X156762500Y-120742643D01*
X156776232Y-120685442D01*
X156817590Y-120604273D01*
X156832500Y-120510137D01*
X156832499Y-120155382D01*
X156852501Y-120087263D01*
X156906156Y-120040770D01*
X156976430Y-120030665D01*
X157041011Y-120060158D01*
X157076553Y-120111349D01*
X157082015Y-120125990D01*
X157082826Y-120128165D01*
X157082827Y-120128167D01*
X157119010Y-120176500D01*
X157165456Y-120238544D01*
X157215105Y-120275711D01*
X157275832Y-120321172D01*
X157275833Y-120321173D01*
X157275835Y-120321173D01*
X157275837Y-120321175D01*
X157405027Y-120369360D01*
X157462136Y-120375500D01*
X157462141Y-120375500D01*
X158053859Y-120375500D01*
X158053864Y-120375500D01*
X158110973Y-120369360D01*
X158240163Y-120321175D01*
X158350544Y-120238544D01*
X158398928Y-120173910D01*
X158434803Y-120125990D01*
X158491639Y-120083444D01*
X158535670Y-120075500D01*
X158752500Y-120075500D01*
X158820621Y-120095502D01*
X158867114Y-120149158D01*
X158878500Y-120201500D01*
X158878500Y-120922417D01*
X158878499Y-120922417D01*
X158899108Y-120999330D01*
X158912881Y-121050730D01*
X158930290Y-121080883D01*
X158964738Y-121140550D01*
X158979296Y-121165766D01*
X158979299Y-121165770D01*
X159187201Y-121373672D01*
X159221225Y-121435982D01*
X159222595Y-121445268D01*
X159222727Y-121445248D01*
X159238409Y-121544272D01*
X159296221Y-121657736D01*
X159386263Y-121747778D01*
X159386262Y-121747778D01*
X159499723Y-121805588D01*
X159499727Y-121805590D01*
X159593863Y-121820500D01*
X159952136Y-121820499D01*
X160046273Y-121805590D01*
X160159735Y-121747779D01*
X160159736Y-121747778D01*
X160168905Y-121738610D01*
X160231217Y-121704584D01*
X160302032Y-121709649D01*
X160347095Y-121738610D01*
X160356263Y-121747778D01*
X160356262Y-121747778D01*
X160469723Y-121805588D01*
X160469727Y-121805590D01*
X160563863Y-121820500D01*
X160922136Y-121820499D01*
X161016273Y-121805590D01*
X161129735Y-121747779D01*
X161219779Y-121657735D01*
X161277590Y-121544273D01*
X161292500Y-121450137D01*
X161292499Y-121450133D01*
X161293274Y-121445247D01*
X161295090Y-121445534D01*
X161317545Y-121386567D01*
X161328792Y-121373677D01*
X161536700Y-121165770D01*
X161603119Y-121050730D01*
X161612291Y-121016500D01*
X161616378Y-121001247D01*
X161636049Y-120927833D01*
X161637500Y-120922419D01*
X161637500Y-120176500D01*
X161657502Y-120108379D01*
X161711158Y-120061886D01*
X161763500Y-120050500D01*
X162234300Y-120050500D01*
X162302421Y-120070502D01*
X162348914Y-120124158D01*
X162360300Y-120176500D01*
X162360300Y-120615838D01*
X162340298Y-120683959D01*
X162286642Y-120730452D01*
X162278342Y-120733890D01*
X162275841Y-120734822D01*
X162275837Y-120734825D01*
X162165456Y-120817456D01*
X162165455Y-120817457D01*
X162165454Y-120817458D01*
X162082827Y-120927832D01*
X162082826Y-120927833D01*
X162034640Y-121057027D01*
X162028500Y-121114128D01*
X162028500Y-121655871D01*
X162033738Y-121704584D01*
X162034640Y-121712973D01*
X162069183Y-121805588D01*
X162082826Y-121842166D01*
X162082827Y-121842167D01*
X162129967Y-121905137D01*
X162165456Y-121952544D01*
X162228781Y-121999949D01*
X162275832Y-122035172D01*
X162275833Y-122035173D01*
X162275835Y-122035173D01*
X162275837Y-122035175D01*
X162405027Y-122083360D01*
X162462136Y-122089500D01*
X162462141Y-122089500D01*
X163053859Y-122089500D01*
X163053864Y-122089500D01*
X163110973Y-122083360D01*
X163240163Y-122035175D01*
X163350544Y-121952544D01*
X163433175Y-121842163D01*
X163481360Y-121712973D01*
X163487500Y-121655864D01*
X163487500Y-121114136D01*
X163481360Y-121057027D01*
X163433175Y-120927837D01*
X163433175Y-120927836D01*
X163394432Y-120876082D01*
X163369621Y-120809562D01*
X163369300Y-120800573D01*
X163369300Y-120310069D01*
X163389302Y-120241948D01*
X163419791Y-120209201D01*
X163430078Y-120201500D01*
X163532344Y-120124944D01*
X163543440Y-120110120D01*
X163600274Y-120067573D01*
X163646479Y-120059646D01*
X163839958Y-120062981D01*
X163907722Y-120084154D01*
X163938651Y-120113450D01*
X163947253Y-120124941D01*
X163947256Y-120124944D01*
X164057632Y-120207572D01*
X164057633Y-120207573D01*
X164057635Y-120207573D01*
X164057637Y-120207575D01*
X164186827Y-120255760D01*
X164243936Y-120261900D01*
X164592090Y-120261900D01*
X164655090Y-120278781D01*
X164688822Y-120298256D01*
X164752670Y-120335119D01*
X164880981Y-120369500D01*
X165830022Y-120369500D01*
X165887223Y-120383232D01*
X165919327Y-120399590D01*
X166013463Y-120414500D01*
X166421736Y-120414499D01*
X166515873Y-120399590D01*
X166629335Y-120341779D01*
X166719379Y-120251735D01*
X166753910Y-120183962D01*
X166802657Y-120132347D01*
X166868348Y-120115184D01*
X168547526Y-120144130D01*
X168655999Y-120146000D01*
X168655999Y-120145999D01*
X168656000Y-120146000D01*
X168656000Y-119806904D01*
X168676002Y-119738783D01*
X168706491Y-119706036D01*
X168715591Y-119699223D01*
X168740544Y-119680544D01*
X168823175Y-119570163D01*
X168871360Y-119440973D01*
X168877500Y-119383864D01*
X168877500Y-118842136D01*
X168871360Y-118785027D01*
X168823175Y-118655837D01*
X168823173Y-118655835D01*
X168823173Y-118655833D01*
X168823172Y-118655832D01*
X168760252Y-118571783D01*
X168740544Y-118545456D01*
X168674004Y-118495644D01*
X168630167Y-118462827D01*
X168630166Y-118462826D01*
X168598929Y-118451175D01*
X168500973Y-118414640D01*
X168493834Y-118413872D01*
X168443871Y-118408500D01*
X168443864Y-118408500D01*
X168180185Y-118408500D01*
X168147575Y-118404207D01*
X168096419Y-118390500D01*
X166605178Y-118390500D01*
X166547976Y-118376767D01*
X166523761Y-118364429D01*
X166515874Y-118360410D01*
X166492339Y-118356682D01*
X166421737Y-118345500D01*
X166421734Y-118345500D01*
X166331172Y-118345500D01*
X166263051Y-118325498D01*
X166220050Y-118278896D01*
X166205686Y-118252023D01*
X166196233Y-118229201D01*
X166194382Y-118223098D01*
X166169551Y-118141236D01*
X166164735Y-118117028D01*
X166155105Y-118019237D01*
X166154500Y-118006900D01*
X166154500Y-117995637D01*
X166154501Y-117955033D01*
X166154500Y-117955029D01*
X166154500Y-117351252D01*
X166174502Y-117283131D01*
X166175670Y-117281348D01*
X166189734Y-117260301D01*
X166204500Y-117186067D01*
X166204499Y-116485934D01*
X166204498Y-116485930D01*
X166204498Y-116485926D01*
X166189734Y-116411699D01*
X166165655Y-116375663D01*
X166133484Y-116327516D01*
X166125494Y-116322177D01*
X166049302Y-116271266D01*
X165975068Y-116256500D01*
X165524936Y-116256500D01*
X165524926Y-116256501D01*
X165450699Y-116271265D01*
X165366515Y-116327516D01*
X165310266Y-116411697D01*
X165295500Y-116485930D01*
X165295500Y-117186063D01*
X165295501Y-117186073D01*
X165310266Y-117260301D01*
X165310265Y-117260301D01*
X165324263Y-117281248D01*
X165345480Y-117349000D01*
X165345500Y-117351253D01*
X165345500Y-118074100D01*
X165345508Y-118074229D01*
X165345508Y-118105246D01*
X165369536Y-118287770D01*
X165369537Y-118287777D01*
X165417184Y-118465609D01*
X165461162Y-118571783D01*
X165468751Y-118642373D01*
X165436971Y-118705860D01*
X165375912Y-118742086D01*
X165344753Y-118746000D01*
X154246058Y-118746000D01*
X154177937Y-118725998D01*
X154146101Y-118696711D01*
X154142533Y-118692062D01*
X154023829Y-118573358D01*
X153989803Y-118511046D01*
X153994868Y-118440231D01*
X154037415Y-118383395D01*
X154073985Y-118364431D01*
X154189480Y-118326907D01*
X154330360Y-118255127D01*
X154458276Y-118162193D01*
X154458288Y-118162182D01*
X154467214Y-118153255D01*
X154467216Y-118153255D01*
X154546148Y-118074323D01*
X154561143Y-118059329D01*
X154561143Y-118059326D01*
X154571511Y-118048960D01*
X154571515Y-118048955D01*
X155448066Y-117172403D01*
X155510376Y-117138379D01*
X155537157Y-117135500D01*
X155549519Y-117135501D01*
X155549523Y-117135500D01*
X155582422Y-117135500D01*
X155639623Y-117149232D01*
X155671727Y-117165590D01*
X155765863Y-117180500D01*
X156174136Y-117180499D01*
X156268273Y-117165590D01*
X156300376Y-117149233D01*
X156357578Y-117135500D01*
X156739370Y-117135500D01*
X156739374Y-117135501D01*
X156799607Y-117135500D01*
X156811956Y-117136107D01*
X156820870Y-117136984D01*
X156890112Y-117143803D01*
X156914330Y-117148620D01*
X156941074Y-117156732D01*
X157000456Y-117195646D01*
X157029372Y-117260487D01*
X157030500Y-117277307D01*
X157030500Y-117341871D01*
X157034403Y-117378166D01*
X157036640Y-117398973D01*
X157047603Y-117428365D01*
X157084826Y-117528166D01*
X157084827Y-117528167D01*
X157131967Y-117591137D01*
X157167456Y-117638544D01*
X157200048Y-117662942D01*
X157277832Y-117721172D01*
X157277833Y-117721173D01*
X157277835Y-117721173D01*
X157277837Y-117721175D01*
X157407027Y-117769360D01*
X157464136Y-117775500D01*
X157464141Y-117775500D01*
X158005859Y-117775500D01*
X158005864Y-117775500D01*
X158062973Y-117769360D01*
X158192163Y-117721175D01*
X158302544Y-117638544D01*
X158385175Y-117528163D01*
X158391945Y-117510011D01*
X158434490Y-117453177D01*
X158501010Y-117428365D01*
X158570384Y-117443456D01*
X158620587Y-117493657D01*
X158628053Y-117510006D01*
X158632080Y-117520803D01*
X158634825Y-117528164D01*
X158634827Y-117528167D01*
X158681967Y-117591137D01*
X158717456Y-117638544D01*
X158750048Y-117662942D01*
X158827832Y-117721172D01*
X158827833Y-117721173D01*
X158827835Y-117721173D01*
X158827837Y-117721175D01*
X158957027Y-117769360D01*
X159014136Y-117775500D01*
X159014141Y-117775500D01*
X159555859Y-117775500D01*
X159555864Y-117775500D01*
X159612973Y-117769360D01*
X159742163Y-117721175D01*
X159852544Y-117638544D01*
X159880658Y-117600989D01*
X159937494Y-117558444D01*
X159981525Y-117550500D01*
X161006282Y-117550500D01*
X161067106Y-117568359D01*
X161067928Y-117566856D01*
X161075832Y-117571171D01*
X161075837Y-117571175D01*
X161205027Y-117619360D01*
X161262136Y-117625500D01*
X161262141Y-117625500D01*
X161853859Y-117625500D01*
X161853864Y-117625500D01*
X161910973Y-117619360D01*
X162040163Y-117571175D01*
X162150544Y-117488544D01*
X162233175Y-117378163D01*
X162253948Y-117322465D01*
X162296493Y-117265632D01*
X162363013Y-117240821D01*
X162372003Y-117240500D01*
X163929687Y-117240500D01*
X163997808Y-117260502D01*
X164034451Y-117296497D01*
X164066515Y-117344484D01*
X164150697Y-117400733D01*
X164150699Y-117400734D01*
X164224933Y-117415500D01*
X164675066Y-117415499D01*
X164675069Y-117415498D01*
X164675073Y-117415498D01*
X164724326Y-117405701D01*
X164749301Y-117400734D01*
X164833484Y-117344484D01*
X164889734Y-117260301D01*
X164904500Y-117186067D01*
X164904499Y-116485934D01*
X164904498Y-116485930D01*
X164904498Y-116485926D01*
X164889734Y-116411699D01*
X164865655Y-116375663D01*
X164833484Y-116327516D01*
X164825494Y-116322177D01*
X164749302Y-116271266D01*
X164675068Y-116256500D01*
X164224936Y-116256500D01*
X164224926Y-116256501D01*
X164150699Y-116271265D01*
X164066516Y-116327515D01*
X164058089Y-116340127D01*
X164034451Y-116375503D01*
X163979976Y-116421030D01*
X163929688Y-116431500D01*
X162272039Y-116431500D01*
X162203918Y-116411498D01*
X162171172Y-116381011D01*
X162150544Y-116353456D01*
X162040164Y-116270825D01*
X161975568Y-116246732D01*
X161910973Y-116222640D01*
X161903834Y-116221872D01*
X161853871Y-116216500D01*
X161853864Y-116216500D01*
X161262136Y-116216500D01*
X161262128Y-116216500D01*
X161205027Y-116222640D01*
X161075833Y-116270826D01*
X161075832Y-116270827D01*
X160965458Y-116353454D01*
X160965457Y-116353455D01*
X160965456Y-116353456D01*
X160898707Y-116442621D01*
X160882822Y-116463841D01*
X160878506Y-116471747D01*
X160876221Y-116470499D01*
X160841879Y-116516372D01*
X160775358Y-116541179D01*
X160766375Y-116541500D01*
X159981525Y-116541500D01*
X159913404Y-116521498D01*
X159880658Y-116491011D01*
X159852544Y-116453456D01*
X159742164Y-116370825D01*
X159646130Y-116335007D01*
X159612973Y-116322640D01*
X159605834Y-116321872D01*
X159555871Y-116316500D01*
X159555864Y-116316500D01*
X159014136Y-116316500D01*
X159014128Y-116316500D01*
X158957027Y-116322640D01*
X158827833Y-116370826D01*
X158827832Y-116370827D01*
X158717456Y-116453456D01*
X158634827Y-116563832D01*
X158634826Y-116563833D01*
X158634825Y-116563837D01*
X158628054Y-116581988D01*
X158585509Y-116638823D01*
X158518989Y-116663634D01*
X158449615Y-116648543D01*
X158399413Y-116598341D01*
X158391946Y-116581993D01*
X158385175Y-116563837D01*
X158385173Y-116563835D01*
X158385173Y-116563833D01*
X158385172Y-116563832D01*
X158334121Y-116495638D01*
X158302544Y-116453456D01*
X158213693Y-116386942D01*
X158192167Y-116370827D01*
X158192166Y-116370826D01*
X158160929Y-116359175D01*
X158062973Y-116322640D01*
X158055834Y-116321872D01*
X158005871Y-116316500D01*
X158005864Y-116316500D01*
X157571779Y-116316500D01*
X157508780Y-116299620D01*
X157503139Y-116296363D01*
X157475869Y-116280619D01*
X157426877Y-116229238D01*
X157413439Y-116159525D01*
X157439825Y-116093613D01*
X157497657Y-116052430D01*
X157538869Y-116045500D01*
X158005859Y-116045500D01*
X158005864Y-116045500D01*
X158062973Y-116039360D01*
X158192163Y-115991175D01*
X158302544Y-115908544D01*
X158385175Y-115798163D01*
X158433360Y-115668973D01*
X158439500Y-115611864D01*
X158439500Y-115020136D01*
X158433360Y-114963027D01*
X158385175Y-114833837D01*
X158385173Y-114833835D01*
X158385173Y-114833833D01*
X158385172Y-114833832D01*
X158339639Y-114773009D01*
X158302544Y-114723456D01*
X158232294Y-114670867D01*
X158192167Y-114640827D01*
X158192166Y-114640826D01*
X158129666Y-114617515D01*
X158062973Y-114592640D01*
X158055625Y-114591850D01*
X158005871Y-114586500D01*
X158005864Y-114586500D01*
X157464136Y-114586500D01*
X157464128Y-114586500D01*
X157407027Y-114592640D01*
X157277833Y-114640826D01*
X157277832Y-114640827D01*
X157167456Y-114723456D01*
X157084827Y-114833832D01*
X157084826Y-114833833D01*
X157036640Y-114963027D01*
X157030500Y-115020128D01*
X157030500Y-115027054D01*
X157010498Y-115095175D01*
X156956842Y-115141668D01*
X156916848Y-115152447D01*
X156896008Y-115154499D01*
X156881852Y-115155893D01*
X156869507Y-115156499D01*
X156801657Y-115156499D01*
X156801641Y-115156500D01*
X156357578Y-115156500D01*
X156300376Y-115142767D01*
X156274071Y-115129364D01*
X156268274Y-115126410D01*
X156249445Y-115123428D01*
X156174137Y-115111500D01*
X156174133Y-115111500D01*
X155765865Y-115111500D01*
X155671727Y-115126409D01*
X155639624Y-115142767D01*
X155582422Y-115156500D01*
X155318189Y-115156500D01*
X155318014Y-115156511D01*
X155313381Y-115156511D01*
X155157220Y-115181239D01*
X155157210Y-115181241D01*
X155006850Y-115230090D01*
X155006841Y-115230094D01*
X154865957Y-115301872D01*
X154738047Y-115394799D01*
X154738041Y-115394804D01*
X154734570Y-115398275D01*
X154734512Y-115398327D01*
X154666578Y-115466262D01*
X154666577Y-115466264D01*
X154635173Y-115497667D01*
X154635172Y-115497668D01*
X154635171Y-115497667D01*
X154635170Y-115497668D01*
X154635171Y-115497669D01*
X154216210Y-115916631D01*
X154216209Y-115916631D01*
X153266304Y-116866535D01*
X153266296Y-116866545D01*
X153216094Y-116953500D01*
X153164712Y-117002493D01*
X153106975Y-117016500D01*
X152263687Y-117016500D01*
X152195566Y-116996498D01*
X152149073Y-116942842D01*
X152138969Y-116872568D01*
X152168463Y-116807988D01*
X152220548Y-116774514D01*
X152220074Y-116773496D01*
X152227577Y-116769997D01*
X152228189Y-116769604D01*
X152228428Y-116769534D01*
X152228808Y-116769423D01*
X152228809Y-116769422D01*
X152228811Y-116769422D01*
X152330129Y-116722177D01*
X152409177Y-116643129D01*
X152456422Y-116541811D01*
X152462500Y-116495644D01*
X152462500Y-116296356D01*
X152456422Y-116250189D01*
X152409177Y-116148871D01*
X152409175Y-116148869D01*
X152409175Y-116148868D01*
X152330132Y-116069825D01*
X152330129Y-116069823D01*
X152247749Y-116031408D01*
X152194465Y-115984491D01*
X152175000Y-115917214D01*
X152175000Y-115417884D01*
X152195002Y-115349763D01*
X152211900Y-115328793D01*
X152440007Y-115100687D01*
X152489970Y-115014150D01*
X152515833Y-114917630D01*
X152515833Y-114817706D01*
X152508475Y-114790246D01*
X152489972Y-114721193D01*
X152489967Y-114721181D01*
X152440008Y-114634651D01*
X152440006Y-114634648D01*
X152369351Y-114563993D01*
X152356679Y-114556677D01*
X152307686Y-114505294D01*
X152294251Y-114435580D01*
X152296629Y-114422402D01*
X152297261Y-114417608D01*
X152297261Y-114317687D01*
X152297261Y-114317686D01*
X152271399Y-114221166D01*
X152242096Y-114170412D01*
X152221437Y-114134630D01*
X152221435Y-114134627D01*
X152150780Y-114063972D01*
X152150777Y-114063970D01*
X152064246Y-114014011D01*
X152064244Y-114014010D01*
X152064242Y-114014009D01*
X151967722Y-113988147D01*
X151867798Y-113988147D01*
X151815687Y-114002110D01*
X151771278Y-114014009D01*
X151771274Y-114014011D01*
X151684743Y-114063970D01*
X151050663Y-114698050D01*
X150988351Y-114732075D01*
X150917535Y-114727010D01*
X150872473Y-114698049D01*
X150841025Y-114666601D01*
X150841015Y-114666593D01*
X150754486Y-114616635D01*
X150728887Y-114609776D01*
X150657962Y-114590772D01*
X150558038Y-114590772D01*
X150558037Y-114590772D01*
X150556053Y-114591303D01*
X150554992Y-114591587D01*
X150552326Y-114591524D01*
X150549853Y-114591850D01*
X150549802Y-114591464D01*
X150484016Y-114589894D01*
X150425223Y-114550096D01*
X150413269Y-114532876D01*
X150411676Y-114530117D01*
X150411670Y-114530110D01*
X150341025Y-114459465D01*
X150341015Y-114459457D01*
X150254486Y-114409499D01*
X150243084Y-114406444D01*
X150157962Y-114383636D01*
X150058038Y-114383636D01*
X150058037Y-114383636D01*
X150056053Y-114384167D01*
X150054992Y-114384451D01*
X150052326Y-114384388D01*
X150049853Y-114384714D01*
X150049802Y-114384328D01*
X149984016Y-114382758D01*
X149925223Y-114342960D01*
X149913269Y-114325740D01*
X149911676Y-114322981D01*
X149911670Y-114322974D01*
X149841025Y-114252329D01*
X149841015Y-114252321D01*
X149754486Y-114202363D01*
X149728499Y-114195400D01*
X149657962Y-114176500D01*
X149581859Y-114176500D01*
X149513738Y-114156498D01*
X149467245Y-114102842D01*
X149464874Y-114096245D01*
X149464796Y-114096278D01*
X149461637Y-114088652D01*
X149411678Y-114002120D01*
X149411670Y-114002110D01*
X149341025Y-113931465D01*
X149341015Y-113931457D01*
X149254486Y-113881499D01*
X149243084Y-113878444D01*
X149157962Y-113855636D01*
X149058038Y-113855636D01*
X149058037Y-113855636D01*
X149056053Y-113856167D01*
X149054992Y-113856451D01*
X149052326Y-113856388D01*
X149049853Y-113856714D01*
X149049802Y-113856328D01*
X148984016Y-113854758D01*
X148925223Y-113814960D01*
X148913269Y-113797740D01*
X148911676Y-113794981D01*
X148911670Y-113794974D01*
X148841025Y-113724329D01*
X148841015Y-113724321D01*
X148754486Y-113674363D01*
X148727659Y-113667175D01*
X148657962Y-113648500D01*
X148558038Y-113648500D01*
X148498963Y-113664328D01*
X148461513Y-113674363D01*
X148396417Y-113711947D01*
X148327421Y-113728685D01*
X148260330Y-113705464D01*
X148229709Y-113671780D01*
X148229203Y-113672169D01*
X148224550Y-113666105D01*
X148224298Y-113665828D01*
X148224178Y-113665620D01*
X148224170Y-113665610D01*
X148192721Y-113634161D01*
X148158695Y-113571849D01*
X148163760Y-113501034D01*
X148192717Y-113455975D01*
X149803565Y-111845128D01*
X160866500Y-111845128D01*
X160866500Y-112436871D01*
X160870107Y-112470411D01*
X160872640Y-112493973D01*
X160893723Y-112550500D01*
X160920826Y-112623166D01*
X160920827Y-112623167D01*
X160961147Y-112677027D01*
X161003456Y-112733544D01*
X161066781Y-112780949D01*
X161113832Y-112816172D01*
X161113833Y-112816173D01*
X161113835Y-112816173D01*
X161113837Y-112816175D01*
X161243027Y-112864360D01*
X161300136Y-112870500D01*
X161300141Y-112870500D01*
X161841859Y-112870500D01*
X161841864Y-112870500D01*
X161898973Y-112864360D01*
X162028163Y-112816175D01*
X162138544Y-112733544D01*
X162221175Y-112623163D01*
X162269360Y-112493973D01*
X162275500Y-112436864D01*
X162275500Y-112174229D01*
X162295502Y-112106108D01*
X162349158Y-112059615D01*
X162419432Y-112049511D01*
X162478203Y-112074266D01*
X162534357Y-112117355D01*
X162669246Y-112173228D01*
X162814000Y-112192285D01*
X162958754Y-112173228D01*
X163093643Y-112117355D01*
X163209474Y-112028474D01*
X163298355Y-111912643D01*
X163354228Y-111777754D01*
X163373285Y-111633000D01*
X163354228Y-111488246D01*
X163354226Y-111488242D01*
X163353330Y-111481432D01*
X163364269Y-111411283D01*
X163389152Y-111375895D01*
X163762646Y-111002401D01*
X163824956Y-110968378D01*
X163851739Y-110965499D01*
X164249239Y-110965499D01*
X164249248Y-110965499D01*
X164279951Y-110962621D01*
X164409273Y-110917369D01*
X164519510Y-110836010D01*
X164600869Y-110725773D01*
X164646121Y-110596451D01*
X164647241Y-110584503D01*
X164673515Y-110518548D01*
X164731277Y-110477267D01*
X164802187Y-110473768D01*
X164863733Y-110509161D01*
X164872653Y-110519563D01*
X164958525Y-110631474D01*
X165071517Y-110718176D01*
X165074357Y-110720355D01*
X165209246Y-110776228D01*
X165354000Y-110795285D01*
X165498754Y-110776228D01*
X165561854Y-110750090D01*
X165610072Y-110740500D01*
X165749392Y-110740500D01*
X165817513Y-110760502D01*
X165850771Y-110791678D01*
X165883491Y-110836011D01*
X165993725Y-110917368D01*
X165993732Y-110917371D01*
X166123046Y-110962620D01*
X166123049Y-110962621D01*
X166153751Y-110965500D01*
X166663248Y-110965499D01*
X166693951Y-110962621D01*
X166823273Y-110917369D01*
X166933510Y-110836010D01*
X167014869Y-110725773D01*
X167060121Y-110596451D01*
X167063000Y-110565749D01*
X167062999Y-109906252D01*
X167062999Y-109906248D01*
X167404000Y-109906248D01*
X167404000Y-110565740D01*
X167404001Y-110565755D01*
X167406879Y-110596452D01*
X167406880Y-110596455D01*
X167452128Y-110725767D01*
X167452131Y-110725774D01*
X167533489Y-110836010D01*
X167643725Y-110917368D01*
X167643732Y-110917371D01*
X167773046Y-110962620D01*
X167773049Y-110962621D01*
X167803751Y-110965500D01*
X168313248Y-110965499D01*
X168343951Y-110962621D01*
X168473273Y-110917369D01*
X168583510Y-110836010D01*
X168639238Y-110760502D01*
X168670476Y-110718176D01*
X168673747Y-110720590D01*
X168709197Y-110683607D01*
X168778236Y-110667050D01*
X168845267Y-110690447D01*
X168848608Y-110692923D01*
X168884357Y-110720355D01*
X169019246Y-110776228D01*
X169164000Y-110795285D01*
X169308754Y-110776228D01*
X169443643Y-110720355D01*
X169559474Y-110631474D01*
X169648355Y-110515643D01*
X169704228Y-110380754D01*
X169723285Y-110236000D01*
X169720723Y-110216543D01*
X169707493Y-110116049D01*
X169704228Y-110091246D01*
X169648355Y-109956358D01*
X169559474Y-109840526D01*
X169559472Y-109840524D01*
X169559471Y-109840523D01*
X169443649Y-109751649D01*
X169443641Y-109751644D01*
X169308752Y-109695771D01*
X169164000Y-109676715D01*
X169019247Y-109695771D01*
X168979093Y-109712404D01*
X168884358Y-109751645D01*
X168884357Y-109751646D01*
X168884356Y-109751646D01*
X168881518Y-109753824D01*
X168848613Y-109779072D01*
X168782394Y-109804672D01*
X168712846Y-109790407D01*
X168673269Y-109751761D01*
X168670476Y-109753824D01*
X168583510Y-109635989D01*
X168473274Y-109554631D01*
X168473267Y-109554628D01*
X168343953Y-109509379D01*
X168343955Y-109509379D01*
X168319389Y-109507075D01*
X168313249Y-109506500D01*
X168313248Y-109506500D01*
X167803759Y-109506500D01*
X167803744Y-109506501D01*
X167773047Y-109509379D01*
X167773044Y-109509380D01*
X167643732Y-109554628D01*
X167643725Y-109554631D01*
X167533489Y-109635989D01*
X167452131Y-109746225D01*
X167452128Y-109746232D01*
X167406879Y-109875545D01*
X167404000Y-109906248D01*
X167062999Y-109906248D01*
X167060121Y-109875549D01*
X167023090Y-109769721D01*
X167014871Y-109746232D01*
X167014868Y-109746225D01*
X166933510Y-109635989D01*
X166823274Y-109554631D01*
X166823267Y-109554628D01*
X166693953Y-109509379D01*
X166693955Y-109509379D01*
X166669389Y-109507075D01*
X166663249Y-109506500D01*
X166663248Y-109506500D01*
X166153759Y-109506500D01*
X166153744Y-109506501D01*
X166123047Y-109509379D01*
X166123044Y-109509380D01*
X165993732Y-109554628D01*
X165993725Y-109554631D01*
X165883491Y-109635988D01*
X165850771Y-109680322D01*
X165794225Y-109723254D01*
X165749392Y-109731500D01*
X165610072Y-109731500D01*
X165561854Y-109721909D01*
X165558114Y-109720360D01*
X165498754Y-109695772D01*
X165498752Y-109695771D01*
X165354000Y-109676715D01*
X165209247Y-109695771D01*
X165169093Y-109712404D01*
X165074358Y-109751645D01*
X165074357Y-109751646D01*
X165074356Y-109751646D01*
X164958525Y-109840526D01*
X164872652Y-109952438D01*
X164815314Y-109994305D01*
X164744443Y-109998526D01*
X164682540Y-109963761D01*
X164649259Y-109901048D01*
X164647240Y-109887491D01*
X164646121Y-109875549D01*
X164609090Y-109769721D01*
X164600871Y-109746232D01*
X164600868Y-109746225D01*
X164519510Y-109635989D01*
X164409274Y-109554631D01*
X164409267Y-109554628D01*
X164279953Y-109509379D01*
X164279955Y-109509379D01*
X164255389Y-109507075D01*
X164249249Y-109506500D01*
X164249248Y-109506500D01*
X163739759Y-109506500D01*
X163739744Y-109506501D01*
X163709047Y-109509379D01*
X163709044Y-109509380D01*
X163579732Y-109554628D01*
X163579725Y-109554631D01*
X163469489Y-109635989D01*
X163388131Y-109746225D01*
X163388128Y-109746232D01*
X163342879Y-109875545D01*
X163340000Y-109906248D01*
X163340000Y-110228760D01*
X163319998Y-110296881D01*
X163303099Y-110317850D01*
X163256451Y-110364499D01*
X163214094Y-110406856D01*
X163151782Y-110440881D01*
X163080966Y-110435815D01*
X163024130Y-110393268D01*
X162999320Y-110326748D01*
X162998999Y-110317777D01*
X162998999Y-109906252D01*
X162996121Y-109875549D01*
X162959090Y-109769721D01*
X162950871Y-109746232D01*
X162950868Y-109746225D01*
X162869510Y-109635989D01*
X162759274Y-109554631D01*
X162759267Y-109554628D01*
X162629953Y-109509379D01*
X162629955Y-109509379D01*
X162599251Y-109506500D01*
X162599249Y-109506500D01*
X162276739Y-109506500D01*
X162208618Y-109486498D01*
X162187644Y-109469595D01*
X162115734Y-109397685D01*
X162089423Y-109352113D01*
X162087388Y-109352957D01*
X162084228Y-109345329D01*
X162084228Y-109345326D01*
X162028355Y-109210438D01*
X161939474Y-109094606D01*
X161939472Y-109094604D01*
X161939471Y-109094603D01*
X161823649Y-109005729D01*
X161823641Y-109005724D01*
X161688752Y-108949851D01*
X161544000Y-108930795D01*
X161399247Y-108949851D01*
X161345484Y-108972121D01*
X161264358Y-109005725D01*
X161264357Y-109005726D01*
X161264356Y-109005726D01*
X161148526Y-109094606D01*
X161059646Y-109210436D01*
X161059645Y-109210438D01*
X161051929Y-109229067D01*
X161003771Y-109345327D01*
X160984715Y-109490079D01*
X160984715Y-109490080D01*
X161003771Y-109634832D01*
X161059644Y-109769721D01*
X161059649Y-109769729D01*
X161148525Y-109885554D01*
X161250446Y-109963761D01*
X161264357Y-109974435D01*
X161399246Y-110030308D01*
X161544000Y-110049365D01*
X161547552Y-110048897D01*
X161550551Y-110049365D01*
X161552260Y-110049365D01*
X161552260Y-110049631D01*
X161617699Y-110059835D01*
X161670799Y-110106961D01*
X161690000Y-110173819D01*
X161690000Y-110565740D01*
X161690001Y-110565755D01*
X161692879Y-110596452D01*
X161692880Y-110596455D01*
X161738128Y-110725767D01*
X161738131Y-110725774D01*
X161819489Y-110836010D01*
X161929725Y-110917368D01*
X161929732Y-110917371D01*
X162059046Y-110962620D01*
X162059049Y-110962621D01*
X162089751Y-110965500D01*
X162367421Y-110965499D01*
X162435540Y-110985501D01*
X162482033Y-111039156D01*
X162492138Y-111109430D01*
X162476541Y-111154496D01*
X162470190Y-111165497D01*
X162418809Y-111214492D01*
X162361069Y-111228500D01*
X162125747Y-111228500D01*
X162051110Y-111248499D01*
X162051108Y-111248499D01*
X162022873Y-111256063D01*
X162022867Y-111256066D01*
X161930633Y-111309318D01*
X161930631Y-111309319D01*
X161930631Y-111309320D01*
X161865354Y-111374596D01*
X161803045Y-111408620D01*
X161776261Y-111411500D01*
X161300128Y-111411500D01*
X161243027Y-111417640D01*
X161113833Y-111465826D01*
X161113832Y-111465827D01*
X161003456Y-111548456D01*
X160920827Y-111658832D01*
X160920826Y-111658833D01*
X160872640Y-111788027D01*
X160866500Y-111845128D01*
X149803565Y-111845128D01*
X150671675Y-110977019D01*
X150721638Y-110890482D01*
X150747501Y-110793962D01*
X150747501Y-110694038D01*
X150744706Y-110683607D01*
X150721640Y-110597525D01*
X150721635Y-110597513D01*
X150671676Y-110510983D01*
X150671674Y-110510980D01*
X150601019Y-110440325D01*
X150601016Y-110440323D01*
X150514486Y-110390364D01*
X150514474Y-110390359D01*
X150417965Y-110364499D01*
X150417962Y-110364499D01*
X150318038Y-110364499D01*
X150318034Y-110364499D01*
X150221524Y-110390359D01*
X150221512Y-110390364D01*
X150134982Y-110440323D01*
X150134979Y-110440325D01*
X147245665Y-113329641D01*
X147183353Y-113363667D01*
X147156570Y-113366546D01*
X146517063Y-113366546D01*
X146448942Y-113346544D01*
X146440359Y-113340508D01*
X146337649Y-113261695D01*
X146337641Y-113261690D01*
X146202752Y-113205817D01*
X146058000Y-113186761D01*
X145913247Y-113205817D01*
X145845802Y-113233754D01*
X145778358Y-113261691D01*
X145778357Y-113261692D01*
X145778356Y-113261692D01*
X145662526Y-113350572D01*
X145573646Y-113466402D01*
X145573645Y-113466404D01*
X145546566Y-113531778D01*
X145517771Y-113601293D01*
X145498715Y-113746045D01*
X145498715Y-113746046D01*
X145517771Y-113890798D01*
X145573644Y-114025687D01*
X145573649Y-114025695D01*
X145662525Y-114141520D01*
X145766324Y-114221168D01*
X145778357Y-114230401D01*
X145913246Y-114286274D01*
X146058000Y-114305331D01*
X146202754Y-114286274D01*
X146337643Y-114230401D01*
X146387377Y-114192237D01*
X146440359Y-114151584D01*
X146506579Y-114125983D01*
X146517063Y-114125546D01*
X147308258Y-114125546D01*
X147308274Y-114125547D01*
X147415000Y-114125547D01*
X147483121Y-114145549D01*
X147529614Y-114199205D01*
X147541000Y-114251547D01*
X147541000Y-115917214D01*
X147520998Y-115985335D01*
X147468251Y-116031408D01*
X147385870Y-116069823D01*
X147385867Y-116069825D01*
X147306824Y-116148868D01*
X147259577Y-116250190D01*
X147253500Y-116296351D01*
X147253500Y-116374500D01*
X147233498Y-116442621D01*
X147179842Y-116489114D01*
X147127500Y-116500500D01*
X145871631Y-116500500D01*
X145803510Y-116480498D01*
X145757017Y-116426842D01*
X145753576Y-116418533D01*
X145733175Y-116363837D01*
X145733172Y-116363832D01*
X145682655Y-116296351D01*
X145650544Y-116253456D01*
X145580261Y-116200842D01*
X145540167Y-116170827D01*
X145540166Y-116170826D01*
X145503217Y-116157045D01*
X145410973Y-116122640D01*
X145403834Y-116121872D01*
X145353871Y-116116500D01*
X145353864Y-116116500D01*
X144762136Y-116116500D01*
X144762128Y-116116500D01*
X144705027Y-116122640D01*
X144575833Y-116170826D01*
X144575832Y-116170827D01*
X144465456Y-116253456D01*
X144382827Y-116363832D01*
X144382825Y-116363836D01*
X144376055Y-116381988D01*
X144333508Y-116438823D01*
X144266987Y-116463633D01*
X144197613Y-116448541D01*
X144147412Y-116398338D01*
X144139945Y-116381988D01*
X144137525Y-116375500D01*
X144133175Y-116363837D01*
X144133173Y-116363834D01*
X144133172Y-116363832D01*
X144082655Y-116296351D01*
X144050544Y-116253456D01*
X143980261Y-116200842D01*
X143940167Y-116170827D01*
X143940166Y-116170826D01*
X143903217Y-116157045D01*
X143810973Y-116122640D01*
X143803834Y-116121872D01*
X143753871Y-116116500D01*
X143753864Y-116116500D01*
X143162136Y-116116500D01*
X143162128Y-116116500D01*
X143105027Y-116122640D01*
X142975833Y-116170826D01*
X142975832Y-116170827D01*
X142865458Y-116253454D01*
X142865457Y-116253455D01*
X142865456Y-116253456D01*
X142782829Y-116363832D01*
X142782824Y-116363839D01*
X142779953Y-116371537D01*
X142737405Y-116428372D01*
X142694512Y-116449208D01*
X142688266Y-116450881D01*
X142680642Y-116454040D01*
X142679793Y-116451992D01*
X142622089Y-116465984D01*
X142555000Y-116442754D01*
X142511120Y-116386942D01*
X142502100Y-116340127D01*
X142502100Y-116251767D01*
X142496515Y-116216500D01*
X142487098Y-116157045D01*
X142433794Y-116052430D01*
X142428926Y-116042876D01*
X142338325Y-115952275D01*
X142338320Y-115952272D01*
X142276684Y-115920867D01*
X142225068Y-115872119D01*
X142208002Y-115803204D01*
X142230902Y-115736003D01*
X142276684Y-115696333D01*
X142330380Y-115668973D01*
X142338323Y-115664926D01*
X142428926Y-115574323D01*
X142487098Y-115460155D01*
X142502100Y-115365434D01*
X142502100Y-115001766D01*
X142487098Y-114907045D01*
X142440650Y-114815886D01*
X142428926Y-114792876D01*
X142338325Y-114702275D01*
X142338320Y-114702272D01*
X142276684Y-114670867D01*
X142225068Y-114622119D01*
X142208002Y-114553204D01*
X142230902Y-114486003D01*
X142276684Y-114446333D01*
X142294084Y-114437467D01*
X142338323Y-114414926D01*
X142338324Y-114414924D01*
X142338327Y-114414923D01*
X142428924Y-114324325D01*
X142428926Y-114324323D01*
X142448313Y-114286274D01*
X142487098Y-114210155D01*
X142502100Y-114115434D01*
X142502100Y-113751766D01*
X142487098Y-113657045D01*
X142447061Y-113578469D01*
X142428926Y-113542876D01*
X142338323Y-113452273D01*
X142224153Y-113394101D01*
X142159436Y-113383851D01*
X142129434Y-113379100D01*
X140665766Y-113379100D01*
X140641319Y-113382972D01*
X140571046Y-113394101D01*
X140456876Y-113452273D01*
X140366273Y-113542876D01*
X140308101Y-113657046D01*
X140293100Y-113751767D01*
X135374500Y-113751767D01*
X135374500Y-111185581D01*
X135639501Y-111185581D01*
X135639501Y-111318419D01*
X135662421Y-111403959D01*
X135673881Y-111446730D01*
X135710689Y-111510483D01*
X135740299Y-111561770D01*
X135740301Y-111561772D01*
X135740304Y-111561776D01*
X135834223Y-111655695D01*
X135834227Y-111655698D01*
X135834230Y-111655701D01*
X135949271Y-111722119D01*
X136077581Y-111756499D01*
X136077583Y-111756499D01*
X136210417Y-111756499D01*
X136210419Y-111756499D01*
X136338729Y-111722119D01*
X136453770Y-111655701D01*
X136576566Y-111532903D01*
X136638878Y-111498879D01*
X136665662Y-111495999D01*
X137175247Y-111495999D01*
X137175254Y-111495999D01*
X137235342Y-111489540D01*
X137371267Y-111438842D01*
X137487404Y-111351904D01*
X137574342Y-111235767D01*
X137625040Y-111099842D01*
X137628891Y-111064021D01*
X137656058Y-110998431D01*
X137665064Y-110988405D01*
X137838407Y-110815062D01*
X137900717Y-110781038D01*
X137971532Y-110786103D01*
X138028368Y-110828650D01*
X138053179Y-110895170D01*
X138053500Y-110904159D01*
X138053500Y-111352063D01*
X138053501Y-111352073D01*
X138068265Y-111426300D01*
X138124516Y-111510484D01*
X138208697Y-111566733D01*
X138208699Y-111566734D01*
X138282933Y-111581500D01*
X139393066Y-111581499D01*
X139393069Y-111581498D01*
X139393073Y-111581498D01*
X139442326Y-111571701D01*
X139467301Y-111566734D01*
X139551484Y-111510484D01*
X139607734Y-111426301D01*
X139622500Y-111352067D01*
X139622499Y-111207383D01*
X139642501Y-111139265D01*
X139696156Y-111092772D01*
X139766430Y-111082667D01*
X139831011Y-111112160D01*
X139837594Y-111118290D01*
X139907155Y-111187851D01*
X139907169Y-111187863D01*
X139949913Y-111230607D01*
X139949934Y-111230630D01*
X140024974Y-111305670D01*
X140024979Y-111305674D01*
X140024981Y-111305676D01*
X140024982Y-111305677D01*
X140024984Y-111305678D01*
X140111514Y-111355636D01*
X140111518Y-111355638D01*
X140131908Y-111361101D01*
X140131913Y-111361104D01*
X140131913Y-111361102D01*
X140131915Y-111361103D01*
X140199134Y-111379115D01*
X140259753Y-111416065D01*
X140271280Y-111430812D01*
X140324516Y-111510484D01*
X140324517Y-111510485D01*
X140408697Y-111566733D01*
X140408699Y-111566734D01*
X140482933Y-111581500D01*
X141593066Y-111581499D01*
X141593069Y-111581498D01*
X141593073Y-111581498D01*
X141642326Y-111571701D01*
X141667301Y-111566734D01*
X141751484Y-111510484D01*
X141807734Y-111426301D01*
X141822500Y-111352067D01*
X141822499Y-110651934D01*
X141822498Y-110651931D01*
X141822498Y-110651926D01*
X141807734Y-110577699D01*
X141766269Y-110515643D01*
X141751484Y-110493516D01*
X141751483Y-110493515D01*
X141667302Y-110437266D01*
X141593069Y-110422500D01*
X141593067Y-110422500D01*
X140638499Y-110422500D01*
X140570378Y-110402498D01*
X140523885Y-110348842D01*
X140512499Y-110296500D01*
X140512499Y-109807499D01*
X140532501Y-109739378D01*
X140586157Y-109692885D01*
X140638499Y-109681499D01*
X141593064Y-109681499D01*
X141593066Y-109681499D01*
X141593069Y-109681498D01*
X141593072Y-109681498D01*
X141617352Y-109676668D01*
X141667301Y-109666734D01*
X141725667Y-109627734D01*
X141793418Y-109606520D01*
X141795668Y-109606500D01*
X142060246Y-109606500D01*
X142128367Y-109626502D01*
X142161114Y-109656991D01*
X142201718Y-109711231D01*
X142202596Y-109712404D01*
X142318733Y-109799342D01*
X142454658Y-109850040D01*
X142514745Y-109856500D01*
X143029337Y-109856499D01*
X143097458Y-109876501D01*
X143118432Y-109893404D01*
X143229723Y-110004695D01*
X143229726Y-110004697D01*
X143229730Y-110004701D01*
X143307091Y-110049365D01*
X143344770Y-110071119D01*
X143473081Y-110105500D01*
X144312118Y-110105500D01*
X144380239Y-110125502D01*
X144412987Y-110155992D01*
X144452596Y-110208904D01*
X144568733Y-110295842D01*
X144676535Y-110336050D01*
X144733368Y-110378595D01*
X144758179Y-110445115D01*
X144758500Y-110454104D01*
X144758500Y-110666885D01*
X144738498Y-110735006D01*
X144733369Y-110742393D01*
X144712824Y-110769838D01*
X144664640Y-110899026D01*
X144658500Y-110956128D01*
X144658500Y-111547871D01*
X144662116Y-111581498D01*
X144664640Y-111604973D01*
X144684728Y-111658832D01*
X144712826Y-111734166D01*
X144712827Y-111734167D01*
X144745457Y-111777754D01*
X144795456Y-111844544D01*
X144858781Y-111891949D01*
X144905832Y-111927172D01*
X144905833Y-111927173D01*
X144905835Y-111927173D01*
X144905837Y-111927175D01*
X145035027Y-111975360D01*
X145092136Y-111981500D01*
X145092141Y-111981500D01*
X145633859Y-111981500D01*
X145633864Y-111981500D01*
X145690973Y-111975360D01*
X145820163Y-111927175D01*
X145930544Y-111844544D01*
X146013175Y-111734163D01*
X146061360Y-111604973D01*
X146067500Y-111547864D01*
X146067500Y-110956136D01*
X146061360Y-110899027D01*
X146013175Y-110769837D01*
X146013173Y-110769835D01*
X146013173Y-110769833D01*
X146013172Y-110769832D01*
X145948623Y-110683607D01*
X145930544Y-110659456D01*
X145820163Y-110576825D01*
X145820161Y-110576824D01*
X145817990Y-110575199D01*
X145775444Y-110518363D01*
X145767500Y-110474331D01*
X145767500Y-110470774D01*
X145787502Y-110402653D01*
X145841158Y-110356160D01*
X145864522Y-110348151D01*
X145871327Y-110346541D01*
X145871342Y-110346540D01*
X146007267Y-110295842D01*
X146123404Y-110208904D01*
X146163013Y-110155992D01*
X146219849Y-110113445D01*
X146263882Y-110105500D01*
X147061417Y-110105500D01*
X147061419Y-110105500D01*
X147189730Y-110071119D01*
X147236427Y-110044158D01*
X147304770Y-110004701D01*
X147814066Y-109495403D01*
X147876379Y-109461379D01*
X147903162Y-109458499D01*
X148507864Y-109458499D01*
X148507866Y-109458499D01*
X148507869Y-109458498D01*
X148507872Y-109458498D01*
X148544463Y-109451219D01*
X148582101Y-109443734D01*
X148666284Y-109387484D01*
X148722534Y-109303301D01*
X148737300Y-109229067D01*
X148737299Y-108578934D01*
X148737298Y-108578931D01*
X148737298Y-108578926D01*
X148722534Y-108504699D01*
X148666283Y-108420515D01*
X148582102Y-108364266D01*
X148507869Y-108349500D01*
X148507867Y-108349500D01*
X148287162Y-108349500D01*
X148219041Y-108329498D01*
X148198067Y-108312595D01*
X148193776Y-108308304D01*
X148193766Y-108308296D01*
X148078734Y-108241882D01*
X148063572Y-108237819D01*
X147950419Y-108207500D01*
X147817582Y-108207500D01*
X147753426Y-108224690D01*
X147689269Y-108241881D01*
X147574231Y-108308298D01*
X147574227Y-108308301D01*
X147377830Y-108504699D01*
X146822932Y-109059596D01*
X146760622Y-109093620D01*
X146733839Y-109096500D01*
X146267625Y-109096500D01*
X146199504Y-109076498D01*
X146166756Y-109046009D01*
X146143296Y-109014669D01*
X146123404Y-108988096D01*
X146123402Y-108988095D01*
X146123402Y-108988094D01*
X146046858Y-108930795D01*
X146007267Y-108901158D01*
X146007265Y-108901157D01*
X146007266Y-108901157D01*
X145871349Y-108850462D01*
X145871344Y-108850460D01*
X145871342Y-108850460D01*
X145841298Y-108847230D01*
X145811256Y-108844000D01*
X144764753Y-108844000D01*
X144764729Y-108844002D01*
X144704660Y-108850459D01*
X144704658Y-108850459D01*
X144568733Y-108901157D01*
X144452597Y-108988094D01*
X144409244Y-109046009D01*
X144352408Y-109088555D01*
X144308375Y-109096500D01*
X144143499Y-109096500D01*
X144075378Y-109076498D01*
X144028885Y-109022842D01*
X144017499Y-108970500D01*
X144017499Y-108803753D01*
X144017499Y-108803746D01*
X144011040Y-108743658D01*
X143960342Y-108607733D01*
X143873404Y-108491596D01*
X143757267Y-108404658D01*
X143757265Y-108404657D01*
X143757266Y-108404657D01*
X143621349Y-108353962D01*
X143621344Y-108353960D01*
X143621342Y-108353960D01*
X143579858Y-108349500D01*
X143561256Y-108347500D01*
X142514753Y-108347500D01*
X142514729Y-108347502D01*
X142454660Y-108353959D01*
X142454658Y-108353959D01*
X142318733Y-108404657D01*
X142202595Y-108491596D01*
X142161114Y-108547009D01*
X142104278Y-108589556D01*
X142060246Y-108597500D01*
X141795669Y-108597500D01*
X141727548Y-108577498D01*
X141725666Y-108576265D01*
X141667300Y-108537265D01*
X141593067Y-108522500D01*
X140482936Y-108522500D01*
X140482926Y-108522501D01*
X140408699Y-108537265D01*
X140324515Y-108593516D01*
X140271283Y-108673182D01*
X140216806Y-108718709D01*
X140199135Y-108724884D01*
X140131915Y-108742896D01*
X140131913Y-108742896D01*
X140116978Y-108746898D01*
X140111518Y-108748362D01*
X140111517Y-108748362D01*
X140111515Y-108748363D01*
X140111514Y-108748363D01*
X140024984Y-108798321D01*
X140024979Y-108798325D01*
X139989652Y-108833653D01*
X139954324Y-108868981D01*
X139954322Y-108868983D01*
X139899982Y-108923323D01*
X139899980Y-108923325D01*
X139873454Y-108949851D01*
X139837593Y-108985711D01*
X139775280Y-109019735D01*
X139704465Y-109014669D01*
X139647630Y-108972121D01*
X139622820Y-108905601D01*
X139622499Y-108896614D01*
X139622499Y-108751936D01*
X139622498Y-108751926D01*
X139607734Y-108677699D01*
X139604716Y-108673182D01*
X139551484Y-108593516D01*
X139527512Y-108577498D01*
X139467302Y-108537266D01*
X139393067Y-108522500D01*
X138282936Y-108522500D01*
X138282926Y-108522501D01*
X138208699Y-108537265D01*
X138124515Y-108593516D01*
X138068266Y-108677697D01*
X138053500Y-108751930D01*
X138053500Y-109120838D01*
X138033498Y-109188959D01*
X138016599Y-109209928D01*
X137881202Y-109345326D01*
X137764333Y-109462195D01*
X137723458Y-109489507D01*
X137660360Y-109515643D01*
X137660359Y-109515644D01*
X137544526Y-109604526D01*
X137455644Y-109720359D01*
X137455643Y-109720360D01*
X137429507Y-109783458D01*
X137402194Y-109824333D01*
X137275915Y-109950612D01*
X137213603Y-109984638D01*
X137178663Y-109986511D01*
X137178628Y-109987181D01*
X137175260Y-109987000D01*
X137175255Y-109987000D01*
X137175249Y-109987000D01*
X136128753Y-109987000D01*
X136128729Y-109987002D01*
X136068660Y-109993459D01*
X136068658Y-109993459D01*
X135932733Y-110044157D01*
X135816596Y-110131096D01*
X135729657Y-110247234D01*
X135678962Y-110383150D01*
X135678960Y-110383158D01*
X135672500Y-110443237D01*
X135672500Y-110443249D01*
X135672501Y-111043128D01*
X135671978Y-111043128D01*
X135668328Y-111077993D01*
X135640815Y-111180676D01*
X135639501Y-111185581D01*
X135374500Y-111185581D01*
X135374500Y-99940500D01*
X135394502Y-99872379D01*
X135448158Y-99825886D01*
X135500500Y-99814500D01*
X184539500Y-99814500D01*
X184607621Y-99834502D01*
G37*
%TD.AperFunction*%
%TD*%
M02*
