%TF.GenerationSoftware,KiCad,Pcbnew,8.0.4+1*%
%TF.CreationDate,2024-10-16T22:26:19+00:00*%
%TF.ProjectId,TFLORA01,54464c4f-5241-4303-912e-6b696361645f,rev?*%
%TF.SameCoordinates,Original*%
%TF.FileFunction,Profile,NP*%
%FSLAX46Y46*%
G04 Gerber Fmt 4.6, Leading zero omitted, Abs format (unit mm)*
G04 Created by KiCad (PCBNEW 8.0.4+1) date 2024-10-16 22:26:19*
%MOMM*%
%LPD*%
G01*
G04 APERTURE LIST*
%TA.AperFunction,Profile*%
%ADD10C,0.150000*%
%TD*%
%TA.AperFunction,Profile*%
%ADD11C,0.050000*%
%TD*%
G04 APERTURE END LIST*
D10*
X134874000Y-99314000D02*
X134874000Y-129286000D01*
X134874000Y-99314000D02*
X185166000Y-99314000D01*
X185166000Y-129286000D02*
X134874000Y-129286000D01*
X185166000Y-129286000D02*
X185166000Y-99314000D01*
D11*
%TO.C,D2*%
X139870000Y-102170000D02*
X139870000Y-103570000D01*
X140170000Y-103870000D02*
X141770000Y-103870000D01*
X141770000Y-101870000D02*
X140170000Y-101870000D01*
X142070000Y-103570000D02*
X142070000Y-102170000D01*
X139870000Y-102170000D02*
G75*
G02*
X140170000Y-101870000I300000J0D01*
G01*
X140170000Y-103870000D02*
G75*
G02*
X139870000Y-103570000I0J300000D01*
G01*
X141770000Y-101870000D02*
G75*
G02*
X142070000Y-102170000I0J-300000D01*
G01*
X142070000Y-103570000D02*
G75*
G02*
X141770000Y-103870000I-300000J0D01*
G01*
%TO.C,D3*%
X139870000Y-105472000D02*
X139870000Y-106872000D01*
X140170000Y-107172000D02*
X141770000Y-107172000D01*
X141770000Y-105172000D02*
X140170000Y-105172000D01*
X142070000Y-106872000D02*
X142070000Y-105472000D01*
X139870000Y-105472000D02*
G75*
G02*
X140170000Y-105172000I300000J0D01*
G01*
X140170000Y-107172000D02*
G75*
G02*
X139870000Y-106872000I0J300000D01*
G01*
X141770000Y-105172000D02*
G75*
G02*
X142070000Y-105472000I0J-300000D01*
G01*
X142070000Y-106872000D02*
G75*
G02*
X141770000Y-107172000I-300000J0D01*
G01*
%TO.C,D4*%
X139870000Y-108774000D02*
X139870000Y-110174000D01*
X140170000Y-110474000D02*
X141770000Y-110474000D01*
X141770000Y-108474000D02*
X140170000Y-108474000D01*
X142070000Y-110174000D02*
X142070000Y-108774000D01*
X139870000Y-108774000D02*
G75*
G02*
X140170000Y-108474000I300000J0D01*
G01*
X140170000Y-110474000D02*
G75*
G02*
X139870000Y-110174000I0J300000D01*
G01*
X141770000Y-108474000D02*
G75*
G02*
X142070000Y-108774000I0J-300000D01*
G01*
X142070000Y-110174000D02*
G75*
G02*
X141770000Y-110474000I-300000J0D01*
G01*
%TD*%
M02*
