%TF.GenerationSoftware,KiCad,Pcbnew,8.0.4+1*%
%TF.CreationDate,2024-10-18T09:57:00+00:00*%
%TF.ProjectId,TFLORA01,54464c4f-5241-4303-912e-6b696361645f,rev?*%
%TF.SameCoordinates,Original*%
%TF.FileFunction,Soldermask,Bot*%
%TF.FilePolarity,Negative*%
%FSLAX46Y46*%
G04 Gerber Fmt 4.6, Leading zero omitted, Abs format (unit mm)*
G04 Created by KiCad (PCBNEW 8.0.4+1) date 2024-10-18 09:57:00*
%MOMM*%
%LPD*%
G01*
G04 APERTURE LIST*
G04 Aperture macros list*
%AMRoundRect*
0 Rectangle with rounded corners*
0 $1 Rounding radius*
0 $2 $3 $4 $5 $6 $7 $8 $9 X,Y pos of 4 corners*
0 Add a 4 corners polygon primitive as box body*
4,1,4,$2,$3,$4,$5,$6,$7,$8,$9,$2,$3,0*
0 Add four circle primitives for the rounded corners*
1,1,$1+$1,$2,$3*
1,1,$1+$1,$4,$5*
1,1,$1+$1,$6,$7*
1,1,$1+$1,$8,$9*
0 Add four rect primitives between the rounded corners*
20,1,$1+$1,$2,$3,$4,$5,0*
20,1,$1+$1,$4,$5,$6,$7,0*
20,1,$1+$1,$6,$7,$8,$9,0*
20,1,$1+$1,$8,$9,$2,$3,0*%
%AMFreePoly0*
4,1,19,0.500000,-0.750000,0.000000,-0.750000,0.000000,-0.744911,-0.071157,-0.744911,-0.207708,-0.704816,-0.327430,-0.627875,-0.420627,-0.520320,-0.479746,-0.390866,-0.500000,-0.250000,-0.500000,0.250000,-0.479746,0.390866,-0.420627,0.520320,-0.327430,0.627875,-0.207708,0.704816,-0.071157,0.744911,0.000000,0.744911,0.000000,0.750000,0.500000,0.750000,0.500000,-0.750000,0.500000,-0.750000,
$1*%
%AMFreePoly1*
4,1,19,0.000000,0.744911,0.071157,0.744911,0.207708,0.704816,0.327430,0.627875,0.420627,0.520320,0.479746,0.390866,0.500000,0.250000,0.500000,-0.250000,0.479746,-0.390866,0.420627,-0.520320,0.327430,-0.627875,0.207708,-0.704816,0.071157,-0.744911,0.000000,-0.744911,0.000000,-0.750000,-0.500000,-0.750000,-0.500000,0.750000,0.000000,0.750000,0.000000,0.744911,0.000000,0.744911,
$1*%
G04 Aperture macros list end*
%ADD10RoundRect,0.225000X0.250000X-0.225000X0.250000X0.225000X-0.250000X0.225000X-0.250000X-0.225000X0*%
%ADD11RoundRect,0.225000X-0.225000X-0.250000X0.225000X-0.250000X0.225000X0.250000X-0.225000X0.250000X0*%
%ADD12RoundRect,0.225000X0.225000X0.250000X-0.225000X0.250000X-0.225000X-0.250000X0.225000X-0.250000X0*%
%ADD13RoundRect,0.225000X0.017678X-0.335876X0.335876X-0.017678X-0.017678X0.335876X-0.335876X0.017678X0*%
%ADD14RoundRect,0.062500X0.062500X-0.350000X0.062500X0.350000X-0.062500X0.350000X-0.062500X-0.350000X0*%
%ADD15RoundRect,0.062500X0.350000X-0.062500X0.350000X0.062500X-0.350000X0.062500X-0.350000X-0.062500X0*%
%ADD16R,2.600000X2.600000*%
%ADD17RoundRect,0.200000X-0.200000X-0.275000X0.200000X-0.275000X0.200000X0.275000X-0.200000X0.275000X0*%
%ADD18RoundRect,0.218750X-0.256250X0.218750X-0.256250X-0.218750X0.256250X-0.218750X0.256250X0.218750X0*%
%ADD19RoundRect,0.218750X-0.218750X-0.256250X0.218750X-0.256250X0.218750X0.256250X-0.218750X0.256250X0*%
%ADD20RoundRect,0.218750X0.381250X-0.218750X0.381250X0.218750X-0.381250X0.218750X-0.381250X-0.218750X0*%
%ADD21RoundRect,0.218750X0.256250X-0.218750X0.256250X0.218750X-0.256250X0.218750X-0.256250X-0.218750X0*%
%ADD22RoundRect,0.225000X-0.250000X0.225000X-0.250000X-0.225000X0.250000X-0.225000X0.250000X0.225000X0*%
%ADD23RoundRect,0.150000X-0.150000X0.512500X-0.150000X-0.512500X0.150000X-0.512500X0.150000X0.512500X0*%
%ADD24RoundRect,0.250000X0.250000X0.475000X-0.250000X0.475000X-0.250000X-0.475000X0.250000X-0.475000X0*%
%ADD25RoundRect,0.250000X-0.250000X-0.475000X0.250000X-0.475000X0.250000X0.475000X-0.250000X0.475000X0*%
%ADD26C,2.500000*%
%ADD27C,2.700000*%
%ADD28RoundRect,0.180000X-0.495000X-0.620000X0.495000X-0.620000X0.495000X0.620000X-0.495000X0.620000X0*%
%ADD29RoundRect,0.180000X0.495000X0.620000X-0.495000X0.620000X-0.495000X-0.620000X0.495000X-0.620000X0*%
%ADD30RoundRect,0.200000X-0.275000X0.200000X-0.275000X-0.200000X0.275000X-0.200000X0.275000X0.200000X0*%
%ADD31RoundRect,0.100000X-0.225000X-0.100000X0.225000X-0.100000X0.225000X0.100000X-0.225000X0.100000X0*%
%ADD32RoundRect,0.150000X-0.150000X-0.200000X0.150000X-0.200000X0.150000X0.200000X-0.150000X0.200000X0*%
%ADD33RoundRect,0.200000X0.335876X0.053033X0.053033X0.335876X-0.335876X-0.053033X-0.053033X-0.335876X0*%
%ADD34RoundRect,0.100000X0.100000X-0.225000X0.100000X0.225000X-0.100000X0.225000X-0.100000X-0.225000X0*%
%ADD35FreePoly0,180.000000*%
%ADD36FreePoly1,180.000000*%
%ADD37R,1.300000X1.100000*%
%ADD38RoundRect,0.200000X0.275000X-0.200000X0.275000X0.200000X-0.275000X0.200000X-0.275000X-0.200000X0*%
%ADD39RoundRect,0.150000X-0.150000X-0.700000X0.150000X-0.700000X0.150000X0.700000X-0.150000X0.700000X0*%
%ADD40RoundRect,0.250000X-0.250000X-1.100000X0.250000X-1.100000X0.250000X1.100000X-0.250000X1.100000X0*%
G04 APERTURE END LIST*
D10*
%TO.C,C17*%
X176034400Y-118720200D03*
X176034400Y-117170200D03*
%TD*%
D11*
%TO.C,C22*%
X170268600Y-114960400D03*
X171818600Y-114960400D03*
%TD*%
D10*
%TO.C,C20*%
X160655000Y-116878400D03*
X160655000Y-115328400D03*
%TD*%
D12*
%TO.C,C18*%
X185089800Y-117157800D03*
X183539800Y-117157800D03*
%TD*%
D10*
%TO.C,C23*%
X145058000Y-120521000D03*
X145058000Y-118971000D03*
%TD*%
%TO.C,C5*%
X143458000Y-116821000D03*
X143458000Y-115271000D03*
%TD*%
D13*
%TO.C,C11*%
X148803992Y-122722008D03*
X149900008Y-121625992D03*
%TD*%
D12*
%TO.C,C19*%
X159118600Y-116865400D03*
X157568600Y-116865400D03*
%TD*%
D10*
%TO.C,C6*%
X146253200Y-117081600D03*
X146253200Y-115531600D03*
%TD*%
D11*
%TO.C,C21*%
X157568600Y-115366800D03*
X159118600Y-115366800D03*
%TD*%
D14*
%TO.C,U3*%
X151108000Y-119583500D03*
X150608000Y-119583500D03*
X150108000Y-119583500D03*
X149608000Y-119583500D03*
X149108000Y-119583500D03*
X148608000Y-119583500D03*
D15*
X147920500Y-118896000D03*
X147920500Y-118396000D03*
X147920500Y-117896000D03*
X147920500Y-117396000D03*
X147920500Y-116896000D03*
X147920500Y-116396000D03*
D14*
X148608000Y-115708500D03*
X149108000Y-115708500D03*
X149608000Y-115708500D03*
X150108000Y-115708500D03*
X150608000Y-115708500D03*
X151108000Y-115708500D03*
D15*
X151795500Y-116396000D03*
X151795500Y-116896000D03*
X151795500Y-117396000D03*
X151795500Y-117896000D03*
X151795500Y-118396000D03*
X151795500Y-118896000D03*
D16*
X149858000Y-117646000D03*
%TD*%
D17*
%TO.C,R7*%
X144717000Y-110998000D03*
X146367000Y-110998000D03*
%TD*%
D18*
%TO.C,L6*%
X155970000Y-115358500D03*
X155970000Y-116933500D03*
%TD*%
D19*
%TO.C,L5*%
X177482100Y-117183200D03*
X179057100Y-117183200D03*
%TD*%
D20*
%TO.C,L7*%
X143158000Y-120442500D03*
X143158000Y-118317500D03*
%TD*%
D21*
%TO.C,L1*%
X156464000Y-120929500D03*
X156464000Y-119354500D03*
%TD*%
D19*
%TO.C,L4*%
X166776300Y-119405400D03*
X168351300Y-119405400D03*
%TD*%
%TO.C,L3*%
X159410300Y-120904000D03*
X160985300Y-120904000D03*
%TD*%
D12*
%TO.C,C10*%
X160972800Y-119405400D03*
X159422800Y-119405400D03*
%TD*%
D22*
%TO.C,C15*%
X169773600Y-119367000D03*
X169773600Y-120917000D03*
%TD*%
D12*
%TO.C,C16*%
X174574200Y-117183200D03*
X173024200Y-117183200D03*
%TD*%
D22*
%TO.C,C14*%
X162407600Y-119392400D03*
X162407600Y-120942400D03*
%TD*%
%TO.C,C13*%
X157962600Y-119367000D03*
X157962600Y-120917000D03*
%TD*%
D12*
%TO.C,C12*%
X165392400Y-119405400D03*
X163842400Y-119405400D03*
%TD*%
D22*
%TO.C,C8*%
X153416000Y-120764000D03*
X153416000Y-122314000D03*
%TD*%
%TO.C,C7*%
X154940000Y-120764000D03*
X154940000Y-122314000D03*
%TD*%
D19*
%TO.C,L2*%
X153441300Y-119253000D03*
X155016300Y-119253000D03*
%TD*%
D10*
%TO.C,C4*%
X141088000Y-115309000D03*
X141088000Y-113759000D03*
%TD*%
D23*
%TO.C,U1*%
X138938000Y-119596500D03*
X139888000Y-119596500D03*
X140838000Y-119596500D03*
X140838000Y-121871500D03*
X138938000Y-121871500D03*
%TD*%
D24*
%TO.C,C2*%
X140577500Y-124020000D03*
X138677500Y-124020000D03*
%TD*%
D25*
%TO.C,C1*%
X138938000Y-117634000D03*
X140838000Y-117634000D03*
%TD*%
D24*
%TO.C,C3*%
X139434500Y-115384000D03*
X137534500Y-115384000D03*
%TD*%
D22*
%TO.C,C24*%
X151892000Y-121018000D03*
X151892000Y-122568000D03*
%TD*%
D26*
%TO.C,J2*%
X181317600Y-117157800D03*
D27*
X183857600Y-119697800D03*
X183857600Y-114617800D03*
X178777600Y-119697800D03*
X178777600Y-114617800D03*
%TD*%
D28*
%TO.C,D2*%
X139170000Y-102870000D03*
D29*
X142770000Y-102870000D03*
%TD*%
D30*
%TO.C,R3*%
X150749000Y-106617000D03*
X150749000Y-108267000D03*
%TD*%
%TO.C,R5*%
X153797000Y-106617000D03*
X153797000Y-108267000D03*
%TD*%
D28*
%TO.C,D3*%
X139170000Y-106172000D03*
D29*
X142770000Y-106172000D03*
%TD*%
D31*
%TO.C,U4*%
X169712600Y-117820200D03*
X169712600Y-117170200D03*
X169712600Y-116520200D03*
X171612600Y-116520200D03*
X171612600Y-117170200D03*
X171612600Y-117820200D03*
%TD*%
D30*
%TO.C,R1*%
X149225000Y-106617000D03*
X149225000Y-108267000D03*
%TD*%
D32*
%TO.C,D1*%
X138740000Y-112539200D03*
X137340000Y-112539200D03*
%TD*%
D30*
%TO.C,R6*%
X155321000Y-106617000D03*
X155321000Y-108267000D03*
%TD*%
D33*
%TO.C,R8*%
X148538363Y-124916363D03*
X147371637Y-123749637D03*
%TD*%
D34*
%TO.C,U2*%
X150002000Y-112710000D03*
X149352000Y-112710000D03*
X148702000Y-112710000D03*
X148702000Y-110810000D03*
X149352000Y-110810000D03*
X150002000Y-110810000D03*
%TD*%
D35*
%TO.C,JP1*%
X146192000Y-113157000D03*
D36*
X144892000Y-113157000D03*
%TD*%
D37*
%TO.C,U5*%
X152738800Y-125970800D03*
X150638800Y-125970800D03*
X150638800Y-124320800D03*
X152738800Y-124320800D03*
%TD*%
D38*
%TO.C,R9*%
X168757600Y-114896400D03*
X168757600Y-113246400D03*
%TD*%
D22*
%TO.C,C9*%
X154686000Y-123812000D03*
X154686000Y-125362000D03*
%TD*%
D30*
%TO.C,R4*%
X152273000Y-106617000D03*
X152273000Y-108267000D03*
%TD*%
D28*
%TO.C,D4*%
X139170000Y-109474000D03*
D29*
X142770000Y-109474000D03*
%TD*%
D17*
%TO.C,R11*%
X144717000Y-109474000D03*
X146367000Y-109474000D03*
%TD*%
%TO.C,R10*%
X144717000Y-107950000D03*
X146367000Y-107950000D03*
%TD*%
D38*
%TO.C,R2*%
X144780000Y-105219000D03*
X144780000Y-103569000D03*
%TD*%
D39*
%TO.C,J1*%
X148619200Y-104394000D03*
X149869200Y-104394000D03*
X151119200Y-104394000D03*
X152369200Y-104394000D03*
X153619200Y-104394000D03*
X154869200Y-104394000D03*
X156119200Y-104394000D03*
D40*
X146769200Y-101194000D03*
X157969200Y-101194000D03*
%TD*%
M02*
