M48
; DRILL file {KiCad 8.0.4+1} date 2024-10-18T10:21:08+0000
; FORMAT={3:3/ absolute / metric / suppress leading zeros}
; #@! TF.CreationDate,2024-10-18T10:21:08+00:00
; #@! TF.GenerationSoftware,Kicad,Pcbnew,8.0.4+1
; #@! TF.FileFunction,Plated,1,2,PTH
FMAT,2
METRIC,TZ
; #@! TA.AperFunction,Plated,PTH,ComponentDrill
T1C0.200
; #@! TA.AperFunction,Plated,PTH,ViaDrill
T2C0.300
; #@! TA.AperFunction,Plated,PTH,ComponentDrill
T3C1.500
; #@! TA.AperFunction,Plated,PTH,ComponentDrill
T4C1.700
%
G90
G05
T1
X148808Y-116596
X148808Y-117646
X148808Y-118696
X149858Y-116596
X149858Y-117646
X149858Y-118696
X150908Y-116596
X150908Y-117646
X150908Y-118696
T2
X135890Y-110804
X135890Y-114135
X135890Y-117465
X135890Y-120796
X135992Y-127457
X136068Y-100813
X136271Y-104143
X136398Y-107474
X136652Y-124127
X137943Y-100330
X138760Y-128270
X139446Y-113919
X139818Y-100330
X140995Y-116662
X141519Y-123079
X141529Y-128270
X141693Y-100330
X142265Y-114148
X142291Y-112776
X142494Y-115418
X143256Y-121945
X143568Y-100330
X144297Y-116821
X144297Y-128270
X144717Y-110998
X144932Y-121996
X145443Y-100330
X145872Y-114783
X146058Y-118946
X146177Y-121793
X146903Y-114387
X146939Y-110070
X147066Y-128270
X147193Y-122225
X147318Y-100330
X147527Y-110795
X147902Y-120371
X148202Y-113655
X148590Y-105664
X148742Y-109245
X149108Y-120701
X149193Y-100330
X149352Y-109957
X149352Y-111760
X149504Y-125755
X149632Y-113905
X149835Y-128270
X150368Y-122936
X150505Y-112757
X150622Y-109982
X150858Y-121146
X151068Y-100330
X151130Y-111760
X151194Y-114423
X151333Y-113487
X151892Y-121018
X152603Y-128270
X152708Y-112758
X152730Y-127305
X152943Y-100330
X153238Y-116078
X153746Y-113259
X153873Y-124016
X154011Y-109948
X154203Y-115138
X154661Y-126492
X154818Y-100330
X155169Y-114173
X155194Y-118110
X155321Y-109220
X155372Y-128270
X155423Y-111887
X155753Y-113030
X155931Y-125400
X156083Y-122377
X156694Y-100330
X156769Y-118161
X156815Y-107628
X157074Y-109677
X157582Y-125070
X157709Y-114021
X157886Y-122352
X158085Y-107628
X158140Y-128270
X158217Y-118186
X158569Y-100330
X159233Y-122403
X159258Y-109677
X159396Y-114076
X159969Y-118161
X160350Y-102743
X160401Y-125908
X160444Y-100330
X160625Y-106358
X160696Y-114076
X160909Y-122377
X160909Y-128270
X161747Y-114351
X161849Y-118059
X162022Y-107628
X162052Y-115418
X162319Y-100330
X162687Y-109626
X163246Y-118085
X163627Y-115367
X163652Y-120802
X163678Y-128270
X163703Y-122707
X164194Y-100330
X164617Y-120777
X164770Y-115367
X165202Y-122733
X165379Y-118008
X165633Y-109626
X165684Y-125857
X165837Y-102210
X166069Y-100330
X166091Y-120802
X166141Y-115367
X166395Y-117932
X166446Y-128270
X167081Y-122631
X167284Y-117831
X167386Y-115367
X167437Y-114122
X167513Y-120929
X167564Y-112217
X167944Y-100330
X167945Y-109626
X168377Y-122606
X168427Y-117856
X168681Y-121031
X168758Y-111557
X169215Y-128270
X169748Y-122174
X169819Y-100330
X170205Y-113335
X170307Y-125070
X170891Y-121056
X171171Y-120066
X171272Y-119050
X171694Y-100330
X171983Y-113665
X171983Y-128270
X172568Y-102591
X172695Y-109677
X172695Y-115824
X172898Y-114732
X173533Y-118618
X173569Y-100330
X173711Y-121666
X173761Y-124739
X173838Y-115900
X174752Y-128270
X174854Y-118796
X175362Y-115951
X175444Y-100330
X175870Y-102464
X176047Y-119939
X176200Y-111658
X176784Y-115900
X176886Y-107772
X177165Y-126111
X177319Y-100330
X177521Y-128270
X178283Y-110820
X179194Y-100330
X179756Y-106578
X180289Y-103226
X180289Y-128270
X181069Y-100330
X181305Y-120066
X181305Y-121691
X181331Y-114173
X181407Y-112751
X181483Y-125095
X181712Y-108737
X182944Y-100330
X183058Y-128270
X183998Y-103861
X184760Y-107036
X184819Y-100330
X185064Y-110846
X185826Y-118466
X185826Y-128270
X185877Y-115824
X186258Y-125501
X186309Y-117145
X186580Y-121726
X186695Y-100330
X188189Y-113076
X188366Y-103082
X188443Y-110578
X188570Y-100584
X188595Y-128067
X188620Y-118339
X188620Y-120571
X188671Y-115575
X188697Y-105581
X188722Y-123070
X188773Y-108079
X188773Y-125568
T3
X181318Y-117158
T4
X178778Y-114618
X178778Y-119698
X183858Y-114618
X183858Y-119698
M30
