%TF.GenerationSoftware,KiCad,Pcbnew,8.0.4+1*%
%TF.CreationDate,2024-10-16T22:26:19+00:00*%
%TF.ProjectId,TFLORA01,54464c4f-5241-4303-912e-6b696361645f,rev?*%
%TF.SameCoordinates,Original*%
%TF.FileFunction,Copper,L1,Top*%
%TF.FilePolarity,Positive*%
%FSLAX46Y46*%
G04 Gerber Fmt 4.6, Leading zero omitted, Abs format (unit mm)*
G04 Created by KiCad (PCBNEW 8.0.4+1) date 2024-10-16 22:26:19*
%MOMM*%
%LPD*%
G01*
G04 APERTURE LIST*
G04 Aperture macros list*
%AMRoundRect*
0 Rectangle with rounded corners*
0 $1 Rounding radius*
0 $2 $3 $4 $5 $6 $7 $8 $9 X,Y pos of 4 corners*
0 Add a 4 corners polygon primitive as box body*
4,1,4,$2,$3,$4,$5,$6,$7,$8,$9,$2,$3,0*
0 Add four circle primitives for the rounded corners*
1,1,$1+$1,$2,$3*
1,1,$1+$1,$4,$5*
1,1,$1+$1,$6,$7*
1,1,$1+$1,$8,$9*
0 Add four rect primitives between the rounded corners*
20,1,$1+$1,$2,$3,$4,$5,0*
20,1,$1+$1,$4,$5,$6,$7,0*
20,1,$1+$1,$6,$7,$8,$9,0*
20,1,$1+$1,$8,$9,$2,$3,0*%
G04 Aperture macros list end*
%TA.AperFunction,ComponentPad*%
%ADD10C,0.500000*%
%TD*%
%TA.AperFunction,SMDPad,CuDef*%
%ADD11RoundRect,0.250000X1.050000X-1.050000X1.050000X1.050000X-1.050000X1.050000X-1.050000X-1.050000X0*%
%TD*%
%TA.AperFunction,ComponentPad*%
%ADD12C,2.500000*%
%TD*%
%TA.AperFunction,ComponentPad*%
%ADD13C,2.700000*%
%TD*%
%TA.AperFunction,ViaPad*%
%ADD14C,0.600000*%
%TD*%
%TA.AperFunction,Conductor*%
%ADD15C,0.250000*%
%TD*%
%TA.AperFunction,Conductor*%
%ADD16C,0.500000*%
%TD*%
%TA.AperFunction,Conductor*%
%ADD17C,0.300000*%
%TD*%
G04 APERTURE END LIST*
D10*
%TO.P,U3,25,GND*%
%TO.N,GND*%
X148808000Y-118696000D03*
X149858000Y-118696000D03*
X150908000Y-118696000D03*
X148808000Y-117646000D03*
X149858000Y-117646000D03*
D11*
X149858000Y-117646000D03*
D10*
X150908000Y-117646000D03*
X148808000Y-116596000D03*
X149858000Y-116596000D03*
X150908000Y-116596000D03*
%TD*%
D12*
%TO.P,J2,1*%
%TO.N,Net-(C18-Pad2)*%
X179324000Y-114300000D03*
D13*
%TO.P,J2,2*%
%TO.N,GND*%
X181864000Y-116840000D03*
X181864000Y-111760000D03*
X176784000Y-116840000D03*
X176784000Y-111760000D03*
%TD*%
D14*
%TO.N,GND*%
X144974188Y-114046000D03*
X143458000Y-114046000D03*
X158496000Y-112776000D03*
X160696000Y-114076000D03*
X163830000Y-113665000D03*
X184150000Y-119380000D03*
X163038000Y-107628000D03*
X163830000Y-100330000D03*
X161798000Y-113919000D03*
X171069000Y-111633000D03*
X184150000Y-118110000D03*
X157356660Y-118341817D03*
X184150000Y-114300000D03*
X145161000Y-122301000D03*
X168910000Y-111633000D03*
X156815000Y-107628000D03*
X184150000Y-110490000D03*
X167894000Y-111633000D03*
X143383000Y-107442000D03*
X155299000Y-112833000D03*
X173841000Y-123129000D03*
X160879000Y-107628000D03*
X168402000Y-122428000D03*
X144110298Y-113003298D03*
X153670000Y-100330000D03*
X169164000Y-116967000D03*
X177800000Y-108585000D03*
X170053000Y-111633000D03*
X172085000Y-128270000D03*
X164211000Y-121666000D03*
X161290000Y-100330000D03*
X172212000Y-111506000D03*
X163195000Y-128270000D03*
X160655000Y-128270000D03*
X167767000Y-114300000D03*
X154940000Y-100330000D03*
X172341000Y-123571000D03*
X172720000Y-100330000D03*
X157480000Y-100330000D03*
X162560000Y-124460000D03*
X155858000Y-118346000D03*
X177165000Y-124714000D03*
X174117000Y-114935000D03*
X166370000Y-100330000D03*
X150114000Y-122809000D03*
X181610000Y-120015000D03*
X159766000Y-122809000D03*
X159996000Y-113376000D03*
X175006000Y-123190000D03*
X150858000Y-121146000D03*
X155575000Y-128270000D03*
X159736000Y-107628000D03*
X170815000Y-128270000D03*
X143510000Y-100330000D03*
X144780000Y-100330000D03*
X135890000Y-120650000D03*
X168275000Y-128270000D03*
X158750000Y-100330000D03*
X172847000Y-116967000D03*
X146050000Y-100330000D03*
X173101000Y-111506000D03*
X169545000Y-120904000D03*
X177800000Y-100330000D03*
X175260000Y-100330000D03*
X176530000Y-108585000D03*
X136652000Y-122174000D03*
X158115000Y-128270000D03*
X168148000Y-116967000D03*
X156210000Y-100330000D03*
X182245000Y-108585000D03*
X149860000Y-100330000D03*
X162941000Y-115697000D03*
X167640000Y-100330000D03*
X173990000Y-100330000D03*
X183515000Y-120015000D03*
X148908011Y-121145981D03*
X148590000Y-100330000D03*
X170180000Y-100330000D03*
X164846000Y-111633000D03*
X135890000Y-119380000D03*
X162258000Y-118346000D03*
X164465000Y-128270000D03*
X160625000Y-106358000D03*
X135890000Y-116840000D03*
X184150000Y-116840000D03*
X154940000Y-118346000D03*
X173990000Y-111506000D03*
X174498000Y-112268000D03*
X165735000Y-128270000D03*
X171450000Y-100330000D03*
X164846000Y-117983000D03*
X170561000Y-116967000D03*
X154305000Y-128270000D03*
X153035000Y-115570000D03*
X163858046Y-118346000D03*
X173990000Y-118110000D03*
X161925000Y-128270000D03*
X156845000Y-113284000D03*
X153158000Y-121746000D03*
X168910000Y-100330000D03*
X177165000Y-128270000D03*
X173355000Y-128270000D03*
X160658000Y-118346000D03*
X159736000Y-105977000D03*
X165100000Y-100330000D03*
X147320000Y-121920000D03*
X146058000Y-118946000D03*
X175895000Y-120015000D03*
X162560000Y-100330000D03*
X184150000Y-113030000D03*
X161036000Y-122809000D03*
X184150000Y-107950000D03*
X171704000Y-116967000D03*
X179705000Y-118745000D03*
X179070000Y-120015000D03*
X166497000Y-121158000D03*
X160020000Y-100330000D03*
X157480000Y-122809000D03*
X151130000Y-100330000D03*
X164211000Y-122809000D03*
X169545000Y-122428000D03*
X167132000Y-116967000D03*
X184150000Y-115570000D03*
X171323000Y-114300000D03*
X159396000Y-114076000D03*
X161036000Y-124460000D03*
X169418000Y-117983000D03*
X162022000Y-107628000D03*
X156224000Y-114808000D03*
X170307000Y-114300000D03*
X184150000Y-120650000D03*
X175895000Y-128270000D03*
X169545000Y-128270000D03*
X165227000Y-121158000D03*
X174625000Y-120015000D03*
X162433000Y-105918000D03*
X151130000Y-111760000D03*
X176022000Y-123952001D03*
X136271000Y-107315000D03*
X184150000Y-109220000D03*
X152400000Y-100330000D03*
X136652000Y-124460000D03*
X167005000Y-128270000D03*
X159058000Y-118346000D03*
X174117000Y-116967000D03*
X176530000Y-100330000D03*
X159385000Y-128270000D03*
X164181000Y-107628000D03*
X180975000Y-108585000D03*
X164338000Y-124460000D03*
X158085000Y-107628000D03*
X147320000Y-100330000D03*
X165989000Y-111633000D03*
X175006000Y-115062000D03*
X135890000Y-118110000D03*
X177800000Y-120015000D03*
X141859000Y-107569000D03*
X163830000Y-111633000D03*
X143637000Y-121920000D03*
X158623000Y-122809000D03*
X173990000Y-119380000D03*
X166116000Y-113919000D03*
X155299000Y-113849000D03*
X156845000Y-128270000D03*
X167132000Y-122428000D03*
X179070000Y-110490000D03*
X177165000Y-126111000D03*
X146050000Y-121920000D03*
X169545000Y-119126000D03*
X163830000Y-112649000D03*
X184150000Y-111760000D03*
X174625000Y-128270000D03*
X184150000Y-106680000D03*
X142196573Y-112577701D03*
%TO.N,+5V*%
X139446000Y-113919000D03*
X148590000Y-105664000D03*
%TO.N,+3V3*%
X141986000Y-124020000D03*
X167005000Y-115443000D03*
X153797000Y-123952000D03*
X148260583Y-111629185D03*
X151858000Y-121146000D03*
X146858000Y-117146000D03*
%TO.N,/MISO*%
X151332951Y-113486887D03*
X152480000Y-112181000D03*
%TO.N,/MOSI*%
X151229492Y-114458699D03*
X153543006Y-112181000D03*
%TO.N,/#CS*%
X153797000Y-109981994D03*
X150622000Y-109982000D03*
%TO.N,/#RESET*%
X146824188Y-114355254D03*
X149632221Y-113905385D03*
%TO.N,/DIO1*%
X148027000Y-113654896D03*
X150504847Y-112756924D03*
%TO.N,/DIO2*%
X147828000Y-109093000D03*
X161544000Y-109490080D03*
%TO.N,/DIO3*%
X146678280Y-109527438D03*
X147901519Y-121146000D03*
%TO.N,Net-(U4-CTRL)*%
X162814000Y-111633000D03*
X163703000Y-114935000D03*
%TO.N,Net-(U2-Y)*%
X155321000Y-109220004D03*
X148717000Y-110109000D03*
%TD*%
D15*
%TO.N,GND*%
X167767000Y-116586000D02*
X167767000Y-114681000D01*
D16*
X155862183Y-118341817D02*
X155858000Y-118346000D01*
D15*
X168148000Y-116967000D02*
X167767000Y-116586000D01*
D16*
X162258000Y-118346000D02*
X163858046Y-118346000D01*
D15*
X167767000Y-114681000D02*
X167767000Y-114300000D01*
D16*
X159058000Y-118346000D02*
X160658000Y-118346000D01*
X157356660Y-118341817D02*
X155862183Y-118341817D01*
D15*
X137278000Y-118686000D02*
X137405000Y-118813000D01*
D16*
%TO.N,+5V*%
X139446000Y-113919000D02*
X139573000Y-113919000D01*
X148590000Y-105918000D02*
X148590000Y-105664000D01*
X141859000Y-111633000D02*
X142875000Y-111633000D01*
X139573000Y-113919000D02*
X141859000Y-111633000D01*
X142875000Y-111633000D02*
X148590000Y-105918000D01*
%TO.N,+3V3*%
X153797000Y-123952000D02*
X151858000Y-122013000D01*
D15*
X146858000Y-115343661D02*
X146858000Y-117146000D01*
X151558001Y-120846001D02*
X151858000Y-121146000D01*
X146149188Y-114634849D02*
X146858000Y-115343661D01*
X149145768Y-110744000D02*
X160147000Y-110744000D01*
D16*
X144458000Y-126492000D02*
X147701000Y-126492000D01*
D15*
X148260583Y-111629185D02*
X146149188Y-113740580D01*
D16*
X141986000Y-124020000D02*
X144458000Y-126492000D01*
D15*
X148260583Y-111629185D02*
X149145768Y-110744000D01*
X160401000Y-110490000D02*
X160600909Y-110290091D01*
X146149188Y-113740580D02*
X146149188Y-114634849D01*
X160655000Y-110236000D02*
X165354000Y-110236000D01*
D17*
X167005000Y-110744000D02*
X166497000Y-110236000D01*
D16*
X147701000Y-126492000D02*
X151257000Y-126492000D01*
X151858000Y-122013000D02*
X151858000Y-121146000D01*
D15*
X146858000Y-117146000D02*
X146858000Y-117546000D01*
X146858000Y-117546000D02*
X147758000Y-118446000D01*
X160147000Y-110744000D02*
X160401000Y-110490000D01*
D17*
X166497000Y-110236000D02*
X165354000Y-110236000D01*
D15*
X147758000Y-119646000D02*
X148158000Y-120046000D01*
X150758000Y-120046000D02*
X151558001Y-120846001D01*
X160401000Y-110490000D02*
X160655000Y-110236000D01*
D17*
X167005000Y-115443000D02*
X167005000Y-110744000D01*
D16*
X151257000Y-126492000D02*
X153797000Y-123952000D01*
D15*
X148158000Y-120046000D02*
X150758000Y-120046000D01*
X147758000Y-118446000D02*
X147758000Y-119646000D01*
%TO.N,/MISO*%
X151332951Y-113486887D02*
X152480000Y-112339838D01*
X152480000Y-112339838D02*
X152480000Y-112181000D01*
%TO.N,/MOSI*%
X153543006Y-112318898D02*
X151403205Y-114458699D01*
X151403205Y-114458699D02*
X151229492Y-114458699D01*
X153543006Y-112181000D02*
X153543006Y-112318898D01*
%TO.N,/#CS*%
X150622000Y-109982000D02*
X153796994Y-109982000D01*
X153796994Y-109982000D02*
X153797000Y-109981994D01*
%TO.N,/#RESET*%
X149632221Y-113905385D02*
X149182352Y-114355254D01*
X149182352Y-114355254D02*
X146824188Y-114355254D01*
%TO.N,/DIO1*%
X148924972Y-112756924D02*
X150504847Y-112756924D01*
X148027000Y-113654896D02*
X148924972Y-112756924D01*
%TO.N,/DIO2*%
X148376000Y-108545000D02*
X147828000Y-109093000D01*
X160598920Y-108545000D02*
X148376000Y-108545000D01*
X161544000Y-109490080D02*
X160598920Y-108545000D01*
%TO.N,/DIO3*%
X147058000Y-118746000D02*
X145649188Y-117337188D01*
X145649188Y-110556530D02*
X146678280Y-109527438D01*
X147901519Y-121146000D02*
X147058000Y-120302481D01*
X145649188Y-117337188D02*
X145649188Y-110556530D01*
X147058000Y-120302481D02*
X147058000Y-118746000D01*
D17*
%TO.N,Net-(U4-CTRL)*%
X162814000Y-111633000D02*
X162814000Y-114046000D01*
X162814000Y-114046000D02*
X163703000Y-114935000D01*
D15*
%TO.N,Net-(U2-Y)*%
X148717000Y-110109000D02*
X149606000Y-109220000D01*
X149606000Y-109220000D02*
X155320996Y-109220000D01*
X155320996Y-109220000D02*
X155321000Y-109220004D01*
%TD*%
%TA.AperFunction,Conductor*%
%TO.N,GND*%
G36*
X184607621Y-99834502D02*
G01*
X184654114Y-99888158D01*
X184665500Y-99940500D01*
X184665500Y-128659500D01*
X184645498Y-128727621D01*
X184591842Y-128774114D01*
X184539500Y-128785500D01*
X135500500Y-128785500D01*
X135432379Y-128765498D01*
X135385886Y-128711842D01*
X135374500Y-128659500D01*
X135374500Y-113918999D01*
X138886715Y-113918999D01*
X138886715Y-113919000D01*
X138905771Y-114063752D01*
X138961644Y-114198641D01*
X138961649Y-114198649D01*
X139050525Y-114314474D01*
X139166350Y-114403350D01*
X139166357Y-114403355D01*
X139301246Y-114459228D01*
X139446000Y-114478285D01*
X139590754Y-114459228D01*
X139725643Y-114403355D01*
X139725642Y-114403355D01*
X139733277Y-114400193D01*
X139733555Y-114400865D01*
X139751232Y-114393539D01*
X139767730Y-114389119D01*
X139809837Y-114364808D01*
X139882770Y-114322701D01*
X142031066Y-112174405D01*
X142093378Y-112140380D01*
X142120161Y-112137500D01*
X142941417Y-112137500D01*
X142941419Y-112137500D01*
X143069730Y-112103119D01*
X143111837Y-112078808D01*
X143184770Y-112036701D01*
X145920958Y-109300513D01*
X145983270Y-109266487D01*
X146054085Y-109271552D01*
X146110921Y-109314099D01*
X146135732Y-109380619D01*
X146134975Y-109406055D01*
X146121152Y-109511049D01*
X146092429Y-109575976D01*
X146085326Y-109583697D01*
X145416171Y-110252852D01*
X145416169Y-110252854D01*
X145390121Y-110278902D01*
X145345513Y-110323509D01*
X145345509Y-110323514D01*
X145295550Y-110410046D01*
X145295551Y-110410046D01*
X145295550Y-110410050D01*
X145269687Y-110506566D01*
X145269687Y-110616642D01*
X145269688Y-110616655D01*
X145269688Y-117279491D01*
X145269687Y-117279509D01*
X145269687Y-117387153D01*
X145280001Y-117425643D01*
X145286441Y-117449676D01*
X145290314Y-117464129D01*
X145295550Y-117483670D01*
X145345509Y-117570203D01*
X145345517Y-117570213D01*
X145423344Y-117648040D01*
X145423358Y-117648052D01*
X146641595Y-118866289D01*
X146675621Y-118928601D01*
X146678500Y-118955384D01*
X146678500Y-120244784D01*
X146678499Y-120244802D01*
X146678499Y-120252519D01*
X146678499Y-120352443D01*
X146698075Y-120425499D01*
X146698075Y-120425500D01*
X146704361Y-120448962D01*
X146754321Y-120535496D01*
X146754329Y-120535506D01*
X146832156Y-120613333D01*
X146832170Y-120613345D01*
X147308564Y-121089739D01*
X147342590Y-121152051D01*
X147344391Y-121162387D01*
X147361290Y-121290752D01*
X147417163Y-121425641D01*
X147417168Y-121425649D01*
X147506044Y-121541474D01*
X147621869Y-121630350D01*
X147621876Y-121630355D01*
X147756765Y-121686228D01*
X147901519Y-121705285D01*
X148046273Y-121686228D01*
X148181162Y-121630355D01*
X148296993Y-121541474D01*
X148385874Y-121425643D01*
X148441747Y-121290754D01*
X148460804Y-121146000D01*
X148441747Y-121001246D01*
X148385874Y-120866358D01*
X148296993Y-120750526D01*
X148296991Y-120750524D01*
X148296990Y-120750523D01*
X148181166Y-120661647D01*
X148179386Y-120660620D01*
X148178184Y-120659359D01*
X148174610Y-120656617D01*
X148175037Y-120656059D01*
X148130393Y-120609238D01*
X148116955Y-120539525D01*
X148143341Y-120473613D01*
X148201173Y-120432430D01*
X148242385Y-120425500D01*
X150548616Y-120425500D01*
X150616737Y-120445502D01*
X150637711Y-120462405D01*
X151265045Y-121089739D01*
X151299071Y-121152051D01*
X151300872Y-121162387D01*
X151317772Y-121290754D01*
X151343909Y-121353854D01*
X151353500Y-121402072D01*
X151353500Y-122079417D01*
X151353499Y-122079417D01*
X151387882Y-122207732D01*
X151412191Y-122249837D01*
X151454296Y-122322766D01*
X151454304Y-122322776D01*
X152994433Y-123862905D01*
X153028459Y-123925217D01*
X153023394Y-123996032D01*
X152994433Y-124041095D01*
X151084934Y-125950595D01*
X151022622Y-125984620D01*
X150995839Y-125987500D01*
X144719161Y-125987500D01*
X144651040Y-125967498D01*
X144630066Y-125950595D01*
X142523805Y-123844334D01*
X142496491Y-123803456D01*
X142470357Y-123740361D01*
X142470353Y-123740356D01*
X142381474Y-123624526D01*
X142381472Y-123624524D01*
X142381471Y-123624523D01*
X142265649Y-123535649D01*
X142265641Y-123535644D01*
X142130752Y-123479771D01*
X141986000Y-123460715D01*
X141841247Y-123479771D01*
X141773802Y-123507708D01*
X141706358Y-123535645D01*
X141706357Y-123535646D01*
X141706356Y-123535646D01*
X141590526Y-123624526D01*
X141501646Y-123740356D01*
X141501645Y-123740358D01*
X141501644Y-123740361D01*
X141445771Y-123875247D01*
X141426715Y-124019999D01*
X141426715Y-124020000D01*
X141445771Y-124164752D01*
X141501644Y-124299641D01*
X141501649Y-124299649D01*
X141590525Y-124415474D01*
X141706350Y-124504350D01*
X141706357Y-124504355D01*
X141769459Y-124530492D01*
X141810335Y-124557806D01*
X144148223Y-126895695D01*
X144148226Y-126895697D01*
X144148230Y-126895701D01*
X144221162Y-126937808D01*
X144263270Y-126962119D01*
X144391581Y-126996500D01*
X144391582Y-126996500D01*
X144391583Y-126996500D01*
X151323417Y-126996500D01*
X151323419Y-126996500D01*
X151451730Y-126962119D01*
X151493837Y-126937808D01*
X151566770Y-126895701D01*
X153972667Y-124489801D01*
X154013536Y-124462493D01*
X154076643Y-124436355D01*
X154192474Y-124347474D01*
X154281355Y-124231643D01*
X154337228Y-124096754D01*
X154356285Y-123952000D01*
X154337228Y-123807246D01*
X154281355Y-123672358D01*
X154192474Y-123556526D01*
X154165262Y-123535645D01*
X154076646Y-123467647D01*
X154076640Y-123467643D01*
X154013538Y-123441505D01*
X153972663Y-123414192D01*
X152399405Y-121840934D01*
X152365379Y-121778622D01*
X152362500Y-121751839D01*
X152362500Y-121402072D01*
X152372091Y-121353854D01*
X152376181Y-121343979D01*
X152398228Y-121290754D01*
X152417285Y-121146000D01*
X152398228Y-121001246D01*
X152342355Y-120866358D01*
X152253474Y-120750526D01*
X152253472Y-120750524D01*
X152253471Y-120750523D01*
X152137649Y-120661649D01*
X152137641Y-120661644D01*
X152002752Y-120605771D01*
X151874387Y-120588872D01*
X151809460Y-120560149D01*
X151801739Y-120553045D01*
X151068864Y-119820170D01*
X151068852Y-119820156D01*
X150991025Y-119742329D01*
X150991015Y-119742321D01*
X150904480Y-119692361D01*
X150894283Y-119689629D01*
X150884084Y-119686896D01*
X150807965Y-119666499D01*
X150807962Y-119666499D01*
X150708038Y-119666499D01*
X150700320Y-119666499D01*
X150700304Y-119666500D01*
X148367384Y-119666500D01*
X148299263Y-119646498D01*
X148278289Y-119629595D01*
X148174405Y-119525711D01*
X148140379Y-119463399D01*
X148137500Y-119436616D01*
X148137500Y-118506125D01*
X148137501Y-118506112D01*
X148137501Y-118396038D01*
X148137500Y-118396034D01*
X148111639Y-118299520D01*
X148061678Y-118212984D01*
X148061670Y-118212974D01*
X147986630Y-118137934D01*
X147986607Y-118137913D01*
X147381964Y-117533270D01*
X147347938Y-117470958D01*
X147353003Y-117400143D01*
X147354635Y-117395994D01*
X147398228Y-117290754D01*
X147417285Y-117146000D01*
X147414889Y-117127804D01*
X147398228Y-117001247D01*
X147398228Y-117001246D01*
X147342355Y-116866358D01*
X147320666Y-116838092D01*
X147263537Y-116763639D01*
X147237937Y-116697419D01*
X147237500Y-116686936D01*
X147237500Y-115403786D01*
X147237501Y-115403773D01*
X147237501Y-115293700D01*
X147235736Y-115287112D01*
X147211639Y-115197180D01*
X147205793Y-115187055D01*
X147190523Y-115160606D01*
X147190522Y-115160605D01*
X147161676Y-115110642D01*
X147161670Y-115110635D01*
X147086630Y-115035595D01*
X147086607Y-115035574D01*
X147084785Y-115033752D01*
X147050759Y-114971440D01*
X147055824Y-114900625D01*
X147097510Y-114844938D01*
X147097279Y-114844637D01*
X147098353Y-114843812D01*
X147098371Y-114843789D01*
X147098458Y-114843732D01*
X147206547Y-114760792D01*
X147272767Y-114735191D01*
X147283251Y-114734754D01*
X149124656Y-114734754D01*
X149124672Y-114734755D01*
X149132390Y-114734755D01*
X149232313Y-114734755D01*
X149232314Y-114734755D01*
X149308432Y-114714358D01*
X149308434Y-114714358D01*
X149315900Y-114712356D01*
X149328834Y-114708892D01*
X149415371Y-114658930D01*
X149486028Y-114588273D01*
X149496395Y-114577906D01*
X149496402Y-114577896D01*
X149575961Y-114498337D01*
X149638271Y-114464313D01*
X149648593Y-114462514D01*
X149776975Y-114445613D01*
X149911864Y-114389740D01*
X150027695Y-114300859D01*
X150116576Y-114185028D01*
X150172449Y-114050139D01*
X150191506Y-113905385D01*
X150172449Y-113760631D01*
X150116576Y-113625743D01*
X150027695Y-113509911D01*
X150027693Y-113509909D01*
X150027692Y-113509908D01*
X149911870Y-113421034D01*
X149911862Y-113421029D01*
X149873921Y-113405313D01*
X149809990Y-113378832D01*
X149754710Y-113334284D01*
X149732289Y-113266921D01*
X149749847Y-113198130D01*
X149801810Y-113149751D01*
X149858209Y-113136424D01*
X150045784Y-113136424D01*
X150113905Y-113156426D01*
X150122488Y-113162462D01*
X150225197Y-113241274D01*
X150225204Y-113241279D01*
X150360093Y-113297152D01*
X150432470Y-113306680D01*
X150504846Y-113316209D01*
X150504846Y-113316208D01*
X150504847Y-113316209D01*
X150638472Y-113298617D01*
X150708620Y-113309556D01*
X150761719Y-113356684D01*
X150780909Y-113425038D01*
X150779840Y-113439984D01*
X150773666Y-113486884D01*
X150773666Y-113486887D01*
X150792722Y-113631639D01*
X150848595Y-113766528D01*
X150848600Y-113766536D01*
X150909781Y-113846268D01*
X150935382Y-113912488D01*
X150921117Y-113982037D01*
X150886525Y-114022933D01*
X150834019Y-114063223D01*
X150745138Y-114179055D01*
X150745137Y-114179057D01*
X150735578Y-114202135D01*
X150689263Y-114313946D01*
X150670207Y-114458698D01*
X150670207Y-114458699D01*
X150689263Y-114603451D01*
X150745136Y-114738340D01*
X150745141Y-114738348D01*
X150834017Y-114854173D01*
X150949842Y-114943049D01*
X150949849Y-114943054D01*
X151084738Y-114998927D01*
X151229492Y-115017984D01*
X151374246Y-114998927D01*
X151509135Y-114943054D01*
X151624966Y-114854173D01*
X151713847Y-114738342D01*
X151742151Y-114670006D01*
X151769461Y-114629135D01*
X153652300Y-112746296D01*
X153693172Y-112718986D01*
X153822649Y-112665355D01*
X153938480Y-112576474D01*
X154027361Y-112460643D01*
X154083234Y-112325754D01*
X154102291Y-112181000D01*
X154083234Y-112036246D01*
X154027361Y-111901358D01*
X153938480Y-111785526D01*
X153938478Y-111785524D01*
X153938477Y-111785523D01*
X153822655Y-111696649D01*
X153822647Y-111696644D01*
X153687758Y-111640771D01*
X153628721Y-111632999D01*
X162254715Y-111632999D01*
X162254715Y-111633000D01*
X162273771Y-111777752D01*
X162324971Y-111901358D01*
X162329645Y-111912643D01*
X162383462Y-111982778D01*
X162409063Y-112048997D01*
X162409500Y-112059482D01*
X162409500Y-113992747D01*
X162409500Y-114099253D01*
X162429678Y-114174561D01*
X162437065Y-114202128D01*
X162437068Y-114202135D01*
X162490317Y-114294365D01*
X162490319Y-114294367D01*
X162490320Y-114294369D01*
X163115406Y-114919455D01*
X163149430Y-114981766D01*
X163151232Y-114992102D01*
X163162771Y-115079752D01*
X163218644Y-115214641D01*
X163218649Y-115214649D01*
X163307525Y-115330474D01*
X163423350Y-115419350D01*
X163423357Y-115419355D01*
X163558246Y-115475228D01*
X163703000Y-115494285D01*
X163847754Y-115475228D01*
X163982643Y-115419355D01*
X164098474Y-115330474D01*
X164187355Y-115214643D01*
X164243228Y-115079754D01*
X164262285Y-114935000D01*
X164257759Y-114900625D01*
X164243228Y-114790247D01*
X164243228Y-114790246D01*
X164187355Y-114655358D01*
X164098474Y-114539526D01*
X164098472Y-114539524D01*
X164098471Y-114539523D01*
X163982649Y-114450649D01*
X163982641Y-114450644D01*
X163847752Y-114394771D01*
X163760102Y-114383232D01*
X163695175Y-114354509D01*
X163687454Y-114347405D01*
X163255405Y-113915356D01*
X163221379Y-113853044D01*
X163218500Y-113826261D01*
X163218500Y-112059482D01*
X163238502Y-111991361D01*
X163244529Y-111982788D01*
X163298355Y-111912643D01*
X163354228Y-111777754D01*
X163373285Y-111633000D01*
X163354228Y-111488246D01*
X163298355Y-111353358D01*
X163209474Y-111237526D01*
X163209472Y-111237524D01*
X163209471Y-111237523D01*
X163093649Y-111148649D01*
X163093641Y-111148644D01*
X162958752Y-111092771D01*
X162814000Y-111073715D01*
X162669247Y-111092771D01*
X162631280Y-111108498D01*
X162534358Y-111148645D01*
X162534357Y-111148646D01*
X162534356Y-111148646D01*
X162418526Y-111237526D01*
X162329646Y-111353356D01*
X162329645Y-111353358D01*
X162327982Y-111357374D01*
X162273771Y-111488247D01*
X162254715Y-111632999D01*
X153628721Y-111632999D01*
X153543006Y-111621715D01*
X153398253Y-111640771D01*
X153330808Y-111668708D01*
X153263364Y-111696645D01*
X153263363Y-111696646D01*
X153263362Y-111696646D01*
X153147531Y-111785526D01*
X153111465Y-111832529D01*
X153054127Y-111874396D01*
X152983256Y-111878617D01*
X152921353Y-111843852D01*
X152911541Y-111832529D01*
X152875472Y-111785524D01*
X152759649Y-111696649D01*
X152759641Y-111696644D01*
X152624752Y-111640771D01*
X152480000Y-111621715D01*
X152335247Y-111640771D01*
X152267802Y-111668708D01*
X152200358Y-111696645D01*
X152200357Y-111696646D01*
X152200356Y-111696646D01*
X152084526Y-111785526D01*
X151995646Y-111901356D01*
X151995645Y-111901358D01*
X151990971Y-111912643D01*
X151939771Y-112036247D01*
X151920715Y-112180999D01*
X151920715Y-112181000D01*
X151933711Y-112279717D01*
X151922772Y-112349866D01*
X151897884Y-112385258D01*
X151389210Y-112893932D01*
X151326898Y-112927958D01*
X151316561Y-112929759D01*
X151199325Y-112945193D01*
X151129176Y-112934253D01*
X151076078Y-112887125D01*
X151056888Y-112818771D01*
X151057956Y-112803833D01*
X151064132Y-112756924D01*
X151045075Y-112612170D01*
X150989202Y-112477282D01*
X150900321Y-112361450D01*
X150900319Y-112361448D01*
X150900318Y-112361447D01*
X150784496Y-112272573D01*
X150784488Y-112272568D01*
X150649599Y-112216695D01*
X150504847Y-112197639D01*
X150360094Y-112216695D01*
X150292649Y-112244632D01*
X150225205Y-112272569D01*
X150225204Y-112272570D01*
X150225203Y-112272570D01*
X150209274Y-112284793D01*
X150122486Y-112351387D01*
X150056268Y-112376987D01*
X150045784Y-112377424D01*
X148982668Y-112377424D01*
X148982652Y-112377423D01*
X148974934Y-112377423D01*
X148875010Y-112377423D01*
X148875006Y-112377423D01*
X148778492Y-112403284D01*
X148691956Y-112453245D01*
X148691951Y-112453249D01*
X148667921Y-112477280D01*
X148621296Y-112523905D01*
X148621294Y-112523907D01*
X148341377Y-112803824D01*
X148083259Y-113061942D01*
X148020947Y-113095967D01*
X148010611Y-113097768D01*
X147882247Y-113114667D01*
X147829723Y-113136424D01*
X147747358Y-113170541D01*
X147747357Y-113170542D01*
X147747356Y-113170542D01*
X147631526Y-113259422D01*
X147542646Y-113375252D01*
X147542645Y-113375254D01*
X147523682Y-113421034D01*
X147486771Y-113510143D01*
X147467715Y-113654895D01*
X147467715Y-113654896D01*
X147486771Y-113799648D01*
X147487552Y-113801532D01*
X147487737Y-113803252D01*
X147488909Y-113807626D01*
X147488227Y-113807808D01*
X147495144Y-113872122D01*
X147463366Y-113935610D01*
X147402309Y-113971839D01*
X147371145Y-113975754D01*
X147283251Y-113975754D01*
X147215130Y-113955752D01*
X147206547Y-113949716D01*
X147103837Y-113870903D01*
X147103829Y-113870898D01*
X146968940Y-113815025D01*
X146906341Y-113806784D01*
X146841414Y-113778061D01*
X146802323Y-113718795D01*
X146801478Y-113647804D01*
X146833691Y-113592769D01*
X148204323Y-112222137D01*
X148266633Y-112188113D01*
X148276955Y-112186314D01*
X148405337Y-112169413D01*
X148540226Y-112113540D01*
X148656057Y-112024659D01*
X148744938Y-111908828D01*
X148800811Y-111773939D01*
X148817710Y-111645571D01*
X148846432Y-111580646D01*
X148853524Y-111572936D01*
X149266058Y-111160404D01*
X149328370Y-111126379D01*
X149355153Y-111123500D01*
X160089304Y-111123500D01*
X160089320Y-111123501D01*
X160097038Y-111123501D01*
X160196961Y-111123501D01*
X160196962Y-111123501D01*
X160273080Y-111103104D01*
X160273082Y-111103104D01*
X160280548Y-111101102D01*
X160293482Y-111097638D01*
X160380019Y-111047676D01*
X160450676Y-110977019D01*
X160461042Y-110966653D01*
X160461049Y-110966643D01*
X160704675Y-110723019D01*
X160775290Y-110652403D01*
X160837600Y-110618380D01*
X160864384Y-110615500D01*
X165190856Y-110615500D01*
X165223466Y-110619793D01*
X165241296Y-110624570D01*
X165300747Y-110640500D01*
X166277261Y-110640500D01*
X166345382Y-110660502D01*
X166366356Y-110677405D01*
X166563595Y-110874644D01*
X166597621Y-110936956D01*
X166600500Y-110963739D01*
X166600500Y-115016516D01*
X166580498Y-115084637D01*
X166574463Y-115093219D01*
X166520649Y-115163351D01*
X166520646Y-115163356D01*
X166520645Y-115163358D01*
X166501056Y-115210650D01*
X166464771Y-115298247D01*
X166445715Y-115442999D01*
X166445715Y-115443000D01*
X166464771Y-115587752D01*
X166520644Y-115722641D01*
X166520649Y-115722649D01*
X166609525Y-115838474D01*
X166725350Y-115927350D01*
X166725357Y-115927355D01*
X166860246Y-115983228D01*
X167005000Y-116002285D01*
X167149754Y-115983228D01*
X167284643Y-115927355D01*
X167400474Y-115838474D01*
X167489355Y-115722643D01*
X167545228Y-115587754D01*
X167564285Y-115443000D01*
X167561171Y-115419350D01*
X167545228Y-115298247D01*
X167543345Y-115293700D01*
X167489355Y-115163358D01*
X167489350Y-115163351D01*
X167435537Y-115093219D01*
X167409937Y-115026998D01*
X167409500Y-115016516D01*
X167409500Y-111760000D01*
X174921254Y-111760000D01*
X174940213Y-112025092D01*
X174996707Y-112284793D01*
X175089587Y-112533814D01*
X175216958Y-112767076D01*
X175302903Y-112881885D01*
X175302903Y-112881886D01*
X176028228Y-112156561D01*
X176030740Y-112162626D01*
X176123762Y-112301844D01*
X176242156Y-112420238D01*
X176381374Y-112513260D01*
X176387438Y-112515771D01*
X175662113Y-113241096D01*
X175776919Y-113327039D01*
X176010185Y-113454412D01*
X176259206Y-113547292D01*
X176518907Y-113603786D01*
X176784000Y-113622745D01*
X177049092Y-113603786D01*
X177308793Y-113547292D01*
X177557814Y-113454412D01*
X177791076Y-113327042D01*
X177951902Y-113206648D01*
X178018422Y-113181837D01*
X178087797Y-113196928D01*
X178137999Y-113247130D01*
X178153091Y-113316504D01*
X178128281Y-113383024D01*
X178123224Y-113389345D01*
X178103072Y-113412940D01*
X178103071Y-113412941D01*
X177979335Y-113614860D01*
X177888711Y-113833645D01*
X177854594Y-113975754D01*
X177833428Y-114063917D01*
X177814848Y-114300000D01*
X177833428Y-114536083D01*
X177862921Y-114658930D01*
X177888711Y-114766354D01*
X177943278Y-114898091D01*
X177979336Y-114985141D01*
X178103070Y-115187057D01*
X178123224Y-115210654D01*
X178152254Y-115275441D01*
X178141649Y-115345641D01*
X178094775Y-115398964D01*
X178026513Y-115418480D01*
X177958537Y-115397992D01*
X177951903Y-115393351D01*
X177791080Y-115272960D01*
X177557814Y-115145587D01*
X177308793Y-115052707D01*
X177049092Y-114996213D01*
X176784000Y-114977254D01*
X176518907Y-114996213D01*
X176259206Y-115052707D01*
X176010185Y-115145587D01*
X175776924Y-115272957D01*
X175662113Y-115358902D01*
X175662112Y-115358903D01*
X176387437Y-116084228D01*
X176381374Y-116086740D01*
X176242156Y-116179762D01*
X176123762Y-116298156D01*
X176030740Y-116437374D01*
X176028228Y-116443437D01*
X175302903Y-115718112D01*
X175302902Y-115718113D01*
X175216957Y-115832924D01*
X175089587Y-116066185D01*
X174996707Y-116315206D01*
X174940213Y-116574907D01*
X174921254Y-116840000D01*
X174940213Y-117105092D01*
X174996707Y-117364793D01*
X175089587Y-117613814D01*
X175216958Y-117847076D01*
X175302903Y-117961885D01*
X175302903Y-117961886D01*
X176028228Y-117236561D01*
X176030740Y-117242626D01*
X176123762Y-117381844D01*
X176242156Y-117500238D01*
X176381374Y-117593260D01*
X176387436Y-117595771D01*
X175662112Y-118321095D01*
X175662113Y-118321096D01*
X175776919Y-118407039D01*
X176010185Y-118534412D01*
X176259206Y-118627292D01*
X176518907Y-118683786D01*
X176784000Y-118702745D01*
X177049092Y-118683786D01*
X177308793Y-118627292D01*
X177557814Y-118534412D01*
X177791076Y-118407042D01*
X177905885Y-118321095D01*
X177905886Y-118321095D01*
X177180562Y-117595771D01*
X177186626Y-117593260D01*
X177325844Y-117500238D01*
X177444238Y-117381844D01*
X177537260Y-117242626D01*
X177539771Y-117236562D01*
X178265095Y-117961886D01*
X178265095Y-117961885D01*
X178351042Y-117847076D01*
X178478412Y-117613814D01*
X178571292Y-117364793D01*
X178627786Y-117105092D01*
X178646745Y-116840000D01*
X178627786Y-116574907D01*
X178571292Y-116315206D01*
X178478412Y-116066185D01*
X178351039Y-115832919D01*
X178230648Y-115672096D01*
X178205837Y-115605576D01*
X178220928Y-115536202D01*
X178271130Y-115486000D01*
X178340504Y-115470908D01*
X178407025Y-115495719D01*
X178413343Y-115500774D01*
X178436943Y-115520930D01*
X178638859Y-115644664D01*
X178857646Y-115735289D01*
X179087917Y-115790572D01*
X179324000Y-115809152D01*
X179560083Y-115790572D01*
X179790354Y-115735289D01*
X180009141Y-115644664D01*
X180211057Y-115520930D01*
X180234654Y-115500776D01*
X180299439Y-115471745D01*
X180369639Y-115482348D01*
X180422963Y-115529222D01*
X180442480Y-115597483D01*
X180421994Y-115665460D01*
X180417351Y-115672096D01*
X180296960Y-115832919D01*
X180169587Y-116066185D01*
X180076707Y-116315206D01*
X180020213Y-116574907D01*
X180001254Y-116840000D01*
X180020213Y-117105092D01*
X180076707Y-117364793D01*
X180169587Y-117613814D01*
X180296958Y-117847076D01*
X180382903Y-117961885D01*
X180382903Y-117961886D01*
X181108227Y-117236561D01*
X181110740Y-117242626D01*
X181203762Y-117381844D01*
X181322156Y-117500238D01*
X181461374Y-117593260D01*
X181467436Y-117595771D01*
X180742112Y-118321095D01*
X180742113Y-118321096D01*
X180856919Y-118407039D01*
X181090185Y-118534412D01*
X181339206Y-118627292D01*
X181598907Y-118683786D01*
X181864000Y-118702745D01*
X182129092Y-118683786D01*
X182388793Y-118627292D01*
X182637814Y-118534412D01*
X182871076Y-118407042D01*
X182985885Y-118321095D01*
X182985886Y-118321095D01*
X182260562Y-117595771D01*
X182266626Y-117593260D01*
X182405844Y-117500238D01*
X182524238Y-117381844D01*
X182617260Y-117242626D01*
X182619771Y-117236562D01*
X183345095Y-117961886D01*
X183345095Y-117961885D01*
X183431042Y-117847076D01*
X183558412Y-117613814D01*
X183651292Y-117364793D01*
X183707786Y-117105092D01*
X183726745Y-116840000D01*
X183707786Y-116574907D01*
X183651292Y-116315206D01*
X183558412Y-116066185D01*
X183431039Y-115832919D01*
X183345096Y-115718113D01*
X183345095Y-115718112D01*
X182619771Y-116443436D01*
X182617260Y-116437374D01*
X182524238Y-116298156D01*
X182405844Y-116179762D01*
X182266626Y-116086740D01*
X182260561Y-116084227D01*
X182985886Y-115358903D01*
X182871076Y-115272958D01*
X182637814Y-115145587D01*
X182388793Y-115052707D01*
X182129092Y-114996213D01*
X181864000Y-114977254D01*
X181598907Y-114996213D01*
X181339206Y-115052707D01*
X181090185Y-115145587D01*
X180856919Y-115272960D01*
X180696096Y-115393351D01*
X180629576Y-115418162D01*
X180560202Y-115403071D01*
X180509999Y-115352868D01*
X180494908Y-115283494D01*
X180519719Y-115216974D01*
X180524752Y-115210682D01*
X180544930Y-115187057D01*
X180668664Y-114985141D01*
X180759289Y-114766354D01*
X180814572Y-114536083D01*
X180833152Y-114300000D01*
X180814572Y-114063917D01*
X180759289Y-113833646D01*
X180668664Y-113614859D01*
X180544930Y-113412943D01*
X180524776Y-113389346D01*
X180495745Y-113324558D01*
X180506349Y-113254358D01*
X180553224Y-113201035D01*
X180621485Y-113181519D01*
X180689462Y-113202006D01*
X180696096Y-113206648D01*
X180856919Y-113327039D01*
X181090185Y-113454412D01*
X181339206Y-113547292D01*
X181598907Y-113603786D01*
X181864000Y-113622745D01*
X182129092Y-113603786D01*
X182388793Y-113547292D01*
X182637814Y-113454412D01*
X182871076Y-113327042D01*
X182985885Y-113241095D01*
X182985886Y-113241095D01*
X182260562Y-112515771D01*
X182266626Y-112513260D01*
X182405844Y-112420238D01*
X182524238Y-112301844D01*
X182617260Y-112162626D01*
X182619771Y-112156562D01*
X183345095Y-112881886D01*
X183345095Y-112881885D01*
X183431042Y-112767076D01*
X183558412Y-112533814D01*
X183651292Y-112284793D01*
X183707786Y-112025092D01*
X183726745Y-111760000D01*
X183707786Y-111494907D01*
X183651292Y-111235206D01*
X183558412Y-110986185D01*
X183431039Y-110752919D01*
X183345096Y-110638113D01*
X183345095Y-110638112D01*
X182619771Y-111363436D01*
X182617260Y-111357374D01*
X182524238Y-111218156D01*
X182405844Y-111099762D01*
X182266626Y-111006740D01*
X182260562Y-111004228D01*
X182985886Y-110278903D01*
X182871076Y-110192958D01*
X182637814Y-110065587D01*
X182388793Y-109972707D01*
X182129092Y-109916213D01*
X181864000Y-109897254D01*
X181598907Y-109916213D01*
X181339206Y-109972707D01*
X181090185Y-110065587D01*
X180856924Y-110192957D01*
X180742113Y-110278902D01*
X180742112Y-110278903D01*
X181467437Y-111004228D01*
X181461374Y-111006740D01*
X181322156Y-111099762D01*
X181203762Y-111218156D01*
X181110740Y-111357374D01*
X181108228Y-111363437D01*
X180382903Y-110638112D01*
X180382902Y-110638113D01*
X180296957Y-110752924D01*
X180169587Y-110986185D01*
X180076707Y-111235206D01*
X180020213Y-111494907D01*
X180001254Y-111760000D01*
X180020213Y-112025092D01*
X180076707Y-112284793D01*
X180169587Y-112533814D01*
X180296960Y-112767080D01*
X180417351Y-112927903D01*
X180442162Y-112994423D01*
X180427071Y-113063797D01*
X180376869Y-113113999D01*
X180307495Y-113129091D01*
X180240974Y-113104280D01*
X180234671Y-113099238D01*
X180211057Y-113079070D01*
X180009141Y-112955336D01*
X179958923Y-112934535D01*
X179790354Y-112864711D01*
X179560083Y-112809428D01*
X179324000Y-112790848D01*
X179087917Y-112809428D01*
X178857645Y-112864711D01*
X178638860Y-112955335D01*
X178436941Y-113079071D01*
X178436940Y-113079072D01*
X178413345Y-113099224D01*
X178348555Y-113128255D01*
X178278355Y-113117648D01*
X178225034Y-113070773D01*
X178205519Y-113002511D01*
X178226008Y-112934535D01*
X178230648Y-112927902D01*
X178351042Y-112767076D01*
X178478412Y-112533814D01*
X178571292Y-112284793D01*
X178627786Y-112025092D01*
X178646745Y-111760000D01*
X178627786Y-111494907D01*
X178571292Y-111235206D01*
X178478412Y-110986185D01*
X178351039Y-110752919D01*
X178265096Y-110638113D01*
X177539771Y-111363438D01*
X177537260Y-111357374D01*
X177444238Y-111218156D01*
X177325844Y-111099762D01*
X177186626Y-111006740D01*
X177180562Y-111004228D01*
X177905886Y-110278903D01*
X177791076Y-110192958D01*
X177557814Y-110065587D01*
X177308793Y-109972707D01*
X177049092Y-109916213D01*
X176784000Y-109897254D01*
X176518907Y-109916213D01*
X176259206Y-109972707D01*
X176010185Y-110065587D01*
X175776924Y-110192957D01*
X175662113Y-110278902D01*
X175662112Y-110278903D01*
X176387437Y-111004228D01*
X176381374Y-111006740D01*
X176242156Y-111099762D01*
X176123762Y-111218156D01*
X176030740Y-111357374D01*
X176028228Y-111363437D01*
X175302903Y-110638112D01*
X175302902Y-110638113D01*
X175216957Y-110752924D01*
X175089587Y-110986185D01*
X174996707Y-111235206D01*
X174940213Y-111494907D01*
X174921254Y-111760000D01*
X167409500Y-111760000D01*
X167409500Y-110690748D01*
X167409500Y-110690747D01*
X167384520Y-110597519D01*
X167384520Y-110597518D01*
X167384520Y-110597517D01*
X167381935Y-110587873D01*
X167381934Y-110587868D01*
X167334993Y-110506566D01*
X167328681Y-110495632D01*
X167328679Y-110495629D01*
X166745375Y-109912325D01*
X166745365Y-109912317D01*
X166653135Y-109859068D01*
X166653132Y-109859067D01*
X166653131Y-109859066D01*
X166653129Y-109859065D01*
X166653128Y-109859065D01*
X166625561Y-109851678D01*
X166550253Y-109831500D01*
X165300747Y-109831500D01*
X165300746Y-109831500D01*
X165223466Y-109852207D01*
X165190856Y-109856500D01*
X162180983Y-109856500D01*
X162112862Y-109836498D01*
X162066369Y-109782842D01*
X162056265Y-109712568D01*
X162064574Y-109682282D01*
X162068278Y-109673340D01*
X162084228Y-109634834D01*
X162103285Y-109490080D01*
X162100336Y-109467683D01*
X162088874Y-109380619D01*
X162084228Y-109345326D01*
X162028355Y-109210438D01*
X161939474Y-109094606D01*
X161939472Y-109094604D01*
X161939471Y-109094603D01*
X161823649Y-109005729D01*
X161823641Y-109005724D01*
X161688752Y-108949851D01*
X161560387Y-108932952D01*
X161495460Y-108904229D01*
X161487739Y-108897125D01*
X160909784Y-108319170D01*
X160909772Y-108319156D01*
X160831945Y-108241329D01*
X160831935Y-108241321D01*
X160761236Y-108200504D01*
X160745402Y-108191362D01*
X160745401Y-108191361D01*
X160745400Y-108191361D01*
X160735203Y-108188629D01*
X160725004Y-108185896D01*
X160725000Y-108185895D01*
X160648885Y-108165499D01*
X160648882Y-108165499D01*
X160548958Y-108165499D01*
X160541240Y-108165499D01*
X160541224Y-108165500D01*
X148433696Y-108165500D01*
X148433680Y-108165499D01*
X148425962Y-108165499D01*
X148326038Y-108165499D01*
X148293866Y-108174119D01*
X148249916Y-108185895D01*
X148249915Y-108185896D01*
X148229518Y-108191362D01*
X148229517Y-108191362D01*
X148229515Y-108191363D01*
X148229514Y-108191363D01*
X148142984Y-108241321D01*
X148142979Y-108241325D01*
X148120597Y-108263708D01*
X148072324Y-108311981D01*
X148072322Y-108311983D01*
X147884259Y-108500046D01*
X147821947Y-108534071D01*
X147811611Y-108535872D01*
X147683247Y-108552771D01*
X147615802Y-108580708D01*
X147548358Y-108608645D01*
X147548357Y-108608646D01*
X147548356Y-108608646D01*
X147432526Y-108697526D01*
X147343646Y-108813356D01*
X147343645Y-108813358D01*
X147325273Y-108857711D01*
X147287771Y-108948247D01*
X147274653Y-109047891D01*
X147245930Y-109112818D01*
X147186665Y-109151909D01*
X147115673Y-109152754D01*
X147073027Y-109131406D01*
X146957929Y-109043087D01*
X146957921Y-109043082D01*
X146823032Y-108987209D01*
X146678280Y-108968153D01*
X146556896Y-108984133D01*
X146486747Y-108973193D01*
X146433649Y-108926065D01*
X146414459Y-108857711D01*
X146435270Y-108789833D01*
X146451355Y-108770116D01*
X148993695Y-106227776D01*
X148993701Y-106227770D01*
X149060120Y-106112729D01*
X149094500Y-105984418D01*
X149094500Y-105920072D01*
X149104091Y-105871854D01*
X149108181Y-105861979D01*
X149130228Y-105808754D01*
X149149285Y-105664000D01*
X149130228Y-105519246D01*
X149074355Y-105384358D01*
X148985474Y-105268526D01*
X148985472Y-105268524D01*
X148985471Y-105268523D01*
X148869649Y-105179649D01*
X148869641Y-105179644D01*
X148734752Y-105123771D01*
X148590000Y-105104715D01*
X148445247Y-105123771D01*
X148377802Y-105151708D01*
X148310358Y-105179645D01*
X148310357Y-105179646D01*
X148310356Y-105179646D01*
X148194526Y-105268526D01*
X148105646Y-105384356D01*
X148105645Y-105384358D01*
X148096636Y-105406108D01*
X148049771Y-105519247D01*
X148030715Y-105663998D01*
X148030715Y-105664002D01*
X148034216Y-105690599D01*
X148023276Y-105760748D01*
X147998389Y-105796138D01*
X142702934Y-111091595D01*
X142640622Y-111125621D01*
X142613839Y-111128500D01*
X142190886Y-111128500D01*
X142122765Y-111108498D01*
X142076272Y-111054842D01*
X142066168Y-110984568D01*
X142095662Y-110919988D01*
X142142667Y-110886092D01*
X142146420Y-110884536D01*
X142149179Y-110883394D01*
X142280289Y-110795789D01*
X142391789Y-110684289D01*
X142479394Y-110553179D01*
X142539737Y-110407497D01*
X142570500Y-110252842D01*
X142570500Y-110174000D01*
X142570500Y-110108108D01*
X142570500Y-108708108D01*
X142570500Y-108695158D01*
X142539737Y-108540503D01*
X142479394Y-108394821D01*
X142391789Y-108263711D01*
X142280289Y-108152211D01*
X142149179Y-108064606D01*
X142003497Y-108004263D01*
X141848844Y-107973500D01*
X141848842Y-107973500D01*
X141835892Y-107973500D01*
X140235892Y-107973500D01*
X140170000Y-107973500D01*
X140091158Y-107973500D01*
X140091155Y-107973500D01*
X139936502Y-108004263D01*
X139936497Y-108004265D01*
X139790820Y-108064606D01*
X139659715Y-108152208D01*
X139659708Y-108152213D01*
X139548213Y-108263708D01*
X139548208Y-108263715D01*
X139460606Y-108394820D01*
X139400265Y-108540497D01*
X139400263Y-108540502D01*
X139369500Y-108695155D01*
X139369500Y-110252844D01*
X139391137Y-110361620D01*
X139400263Y-110407497D01*
X139460606Y-110553179D01*
X139548211Y-110684289D01*
X139659711Y-110795789D01*
X139790821Y-110883394D01*
X139936503Y-110943737D01*
X140091158Y-110974500D01*
X140091159Y-110974500D01*
X141520316Y-110974500D01*
X141588437Y-110994502D01*
X141634930Y-111048158D01*
X141645034Y-111118432D01*
X141615540Y-111183012D01*
X141583316Y-111209619D01*
X141549233Y-111229296D01*
X141549223Y-111229304D01*
X139444936Y-113333591D01*
X139382624Y-113367617D01*
X139372289Y-113369418D01*
X139301247Y-113378771D01*
X139233802Y-113406708D01*
X139166358Y-113434645D01*
X139166357Y-113434646D01*
X139166356Y-113434646D01*
X139050526Y-113523526D01*
X138961646Y-113639356D01*
X138961645Y-113639358D01*
X138955209Y-113654896D01*
X138905771Y-113774247D01*
X138886715Y-113918999D01*
X135374500Y-113918999D01*
X135374500Y-105393155D01*
X139369500Y-105393155D01*
X139369500Y-105393158D01*
X139369500Y-105406108D01*
X139369500Y-106806108D01*
X139369500Y-106872000D01*
X139369500Y-106950842D01*
X139400263Y-107105497D01*
X139460606Y-107251179D01*
X139548211Y-107382289D01*
X139659711Y-107493789D01*
X139790821Y-107581394D01*
X139936503Y-107641737D01*
X140091158Y-107672500D01*
X140091159Y-107672500D01*
X141848841Y-107672500D01*
X141848842Y-107672500D01*
X142003497Y-107641737D01*
X142149179Y-107581394D01*
X142280289Y-107493789D01*
X142391789Y-107382289D01*
X142479394Y-107251179D01*
X142539737Y-107105497D01*
X142570500Y-106950842D01*
X142570500Y-106872000D01*
X142570500Y-106806108D01*
X142570500Y-105406108D01*
X142570500Y-105393158D01*
X142539737Y-105238503D01*
X142479394Y-105092821D01*
X142391789Y-104961711D01*
X142280289Y-104850211D01*
X142149179Y-104762606D01*
X142003497Y-104702263D01*
X141848844Y-104671500D01*
X141848842Y-104671500D01*
X141835892Y-104671500D01*
X140235892Y-104671500D01*
X140170000Y-104671500D01*
X140091158Y-104671500D01*
X140091155Y-104671500D01*
X139936502Y-104702263D01*
X139936497Y-104702265D01*
X139790820Y-104762606D01*
X139659715Y-104850208D01*
X139659708Y-104850213D01*
X139548213Y-104961708D01*
X139548208Y-104961715D01*
X139460606Y-105092820D01*
X139400265Y-105238497D01*
X139400263Y-105238502D01*
X139369500Y-105393155D01*
X135374500Y-105393155D01*
X135374500Y-102091155D01*
X139369500Y-102091155D01*
X139369500Y-102091158D01*
X139369500Y-102104108D01*
X139369500Y-103504108D01*
X139369500Y-103570000D01*
X139369500Y-103648842D01*
X139400263Y-103803497D01*
X139460606Y-103949179D01*
X139548211Y-104080289D01*
X139659711Y-104191789D01*
X139790821Y-104279394D01*
X139936503Y-104339737D01*
X140091158Y-104370500D01*
X140091159Y-104370500D01*
X141848841Y-104370500D01*
X141848842Y-104370500D01*
X142003497Y-104339737D01*
X142149179Y-104279394D01*
X142280289Y-104191789D01*
X142391789Y-104080289D01*
X142479394Y-103949179D01*
X142539737Y-103803497D01*
X142570500Y-103648842D01*
X142570500Y-103570000D01*
X142570500Y-103504108D01*
X142570500Y-102104108D01*
X142570500Y-102091158D01*
X142539737Y-101936503D01*
X142479394Y-101790821D01*
X142391789Y-101659711D01*
X142280289Y-101548211D01*
X142149179Y-101460606D01*
X142003497Y-101400263D01*
X141848844Y-101369500D01*
X141848842Y-101369500D01*
X141835892Y-101369500D01*
X140235892Y-101369500D01*
X140170000Y-101369500D01*
X140091158Y-101369500D01*
X140091155Y-101369500D01*
X139936502Y-101400263D01*
X139936497Y-101400265D01*
X139790820Y-101460606D01*
X139659715Y-101548208D01*
X139659708Y-101548213D01*
X139548213Y-101659708D01*
X139548208Y-101659715D01*
X139460606Y-101790820D01*
X139400265Y-101936497D01*
X139400263Y-101936502D01*
X139369500Y-102091155D01*
X135374500Y-102091155D01*
X135374500Y-99940500D01*
X135394502Y-99872379D01*
X135448158Y-99825886D01*
X135500500Y-99814500D01*
X184539500Y-99814500D01*
X184607621Y-99834502D01*
G37*
%TD.AperFunction*%
%TD*%
M02*
