M48
; DRILL file {KiCad 8.0.4+1} date 2024-10-16T20:55:13+0000
; FORMAT={3:3/ absolute / metric / suppress leading zeros}
; #@! TF.CreationDate,2024-10-16T20:55:13+00:00
; #@! TF.GenerationSoftware,Kicad,Pcbnew,8.0.4+1
; #@! TF.FileFunction,Plated,1,2,PTH
FMAT,2
METRIC,TZ
; #@! TA.AperFunction,Plated,PTH,ComponentDrill
T1C0.200
; #@! TA.AperFunction,Plated,PTH,ViaDrill
T2C0.300
%
G90
G05
T1
X148808Y-116596
X148808Y-117646
X148808Y-118696
X149858Y-116596
X149858Y-117646
X149858Y-118696
X150908Y-116596
X150908Y-117646
X150908Y-118696
T2
X135890Y-116840
X135890Y-118110
X135890Y-119380
X135890Y-120650
X136271Y-107315
X137940Y-110000
X141859Y-107569
X142494Y-112649
X143383Y-107442
X143458Y-114046
X143510Y-100330
X143637Y-121920
X143764Y-112649
X144780Y-100330
X145058Y-114046
X145161Y-112649
X145161Y-122301
X145237Y-152146
X146050Y-100330
X146050Y-121920
X146058Y-113746
X146058Y-118946
X146507Y-152146
X146858Y-117146
X146939Y-112649
X147320Y-100330
X147320Y-121920
X147902Y-121146
X148158Y-147193
X148158Y-148209
X148158Y-149225
X148158Y-150495
X148158Y-152146
X148590Y-100330
X148717Y-122174
X148908Y-121146
X149047Y-150876
X149301Y-152146
X149860Y-100330
X150444Y-152146
X150855Y-150436
X150858Y-121146
X151130Y-100330
X151155Y-122022
X151355Y-147136
X151460Y-152146
X151858Y-121146
X152019Y-122301
X152255Y-148436
X152400Y-100330
X152603Y-152146
X152855Y-147736
X153035Y-115570
X153158Y-121746
X153555Y-148436
X153670Y-100330
X153873Y-152146
X154305Y-128270
X154355Y-147136
X154940Y-100330
X154940Y-118346
X155270Y-152146
X155575Y-128270
X155858Y-118346
X156032Y-151003
X156210Y-100330
X156224Y-114808
X156413Y-147322
X156794Y-149987
X156845Y-128270
X156855Y-148822
X157357Y-118342
X157480Y-100330
X157480Y-122809
X158115Y-128270
X158623Y-122809
X158750Y-100330
X159058Y-118346
X159385Y-128270
X159766Y-122809
X160020Y-100330
X160655Y-128270
X160658Y-118346
X161036Y-122809
X161036Y-124460
X161290Y-100330
X161544Y-109490
X161798Y-113919
X161925Y-128270
X162258Y-118346
X162560Y-100330
X162560Y-124460
X162814Y-111633
X162941Y-115697
X163195Y-128270
X163703Y-114935
X163830Y-100330
X163830Y-111633
X163830Y-112649
X163830Y-113665
X163858Y-118346
X164211Y-121666
X164211Y-122809
X164338Y-124460
X164465Y-128270
X164846Y-111633
X164846Y-117983
X165100Y-100330
X165227Y-121158
X165354Y-110236
X165735Y-128270
X165989Y-111633
X166116Y-113919
X166370Y-100330
X166497Y-121158
X167005Y-115443
X167005Y-128270
X167132Y-116967
X167132Y-122428
X167640Y-100330
X167767Y-114300
X167894Y-111633
X168148Y-116967
X168275Y-128270
X168402Y-122428
X168910Y-100330
X168910Y-111633
X169164Y-110236
X169164Y-116967
X169418Y-117983
X169545Y-119126
X169545Y-120904
X169545Y-122428
X169545Y-128270
X170053Y-111633
X170180Y-100330
X170307Y-114300
X170561Y-116967
X170815Y-128270
X171069Y-111633
X171323Y-114300
X171450Y-100330
X171704Y-116967
X172085Y-128270
X172212Y-111506
X172720Y-100330
X172847Y-116967
X173101Y-111506
X173355Y-128270
X173990Y-100330
X173990Y-111506
X173990Y-118110
X173990Y-119380
X174117Y-114935
X174117Y-116967
X174498Y-112268
X174625Y-120015
X174625Y-128270
X175006Y-115062
X175260Y-100330
X175895Y-120015
X175895Y-128270
X176530Y-100330
X176530Y-108585
X177165Y-128270
X177800Y-100330
X177800Y-108585
X177800Y-120015
X179070Y-110490
X179070Y-120015
X179705Y-118745
X180975Y-108585
X181610Y-120015
X182245Y-108585
X183515Y-120015
X184150Y-106680
X184150Y-107950
X184150Y-109220
X184150Y-110490
X184150Y-111760
X184150Y-113030
X184150Y-114300
X184150Y-115570
X184150Y-116840
X184150Y-118110
X184150Y-119380
X184150Y-120650
M30
