%TF.GenerationSoftware,KiCad,Pcbnew,9.0.1+1*%
%TF.CreationDate,2025-05-28T13:44:03+00:00*%
%TF.ProjectId,TFLORA01,54464c4f-5241-4303-912e-6b696361645f,rev?*%
%TF.SameCoordinates,Original*%
%TF.FileFunction,Copper,L1,Top*%
%TF.FilePolarity,Positive*%
%FSLAX46Y46*%
G04 Gerber Fmt 4.6, Leading zero omitted, Abs format (unit mm)*
G04 Created by KiCad (PCBNEW 9.0.1+1) date 2025-05-28 13:44:03*
%MOMM*%
%LPD*%
G01*
G04 APERTURE LIST*
%TA.AperFunction,HeatsinkPad*%
%ADD10C,0.500000*%
%TD*%
%TA.AperFunction,HeatsinkPad*%
%ADD11R,2.600000X2.600000*%
%TD*%
%TA.AperFunction,ComponentPad*%
%ADD12C,2.500000*%
%TD*%
%TA.AperFunction,ComponentPad*%
%ADD13C,2.700000*%
%TD*%
%TA.AperFunction,ViaPad*%
%ADD14C,0.600000*%
%TD*%
%TA.AperFunction,Conductor*%
%ADD15C,0.250000*%
%TD*%
%TA.AperFunction,Conductor*%
%ADD16C,0.500000*%
%TD*%
G04 APERTURE END LIST*
D10*
%TO.P,U3,25,GND*%
%TO.N,GND*%
X148808000Y-118696000D03*
X149858000Y-118696000D03*
X150908000Y-118696000D03*
X148808000Y-117646000D03*
X149858000Y-117646000D03*
D11*
X149858000Y-117646000D03*
D10*
X150908000Y-117646000D03*
X148808000Y-116596000D03*
X149858000Y-116596000D03*
X150908000Y-116596000D03*
%TD*%
D12*
%TO.P,J2,1*%
%TO.N,Net-(C18-Pad2)*%
X181317600Y-117157800D03*
D13*
%TO.P,J2,2*%
%TO.N,GND*%
X183857600Y-119697800D03*
X183857600Y-114617800D03*
X178777600Y-119697800D03*
X178777600Y-114617800D03*
%TD*%
D14*
%TO.N,GND*%
X140995400Y-116662200D03*
X142494000Y-115417600D03*
X167563800Y-112217200D03*
X160696000Y-114076000D03*
X164769800Y-115366800D03*
X157073600Y-109677200D03*
X172694600Y-115824000D03*
X167943888Y-100330000D03*
X161747200Y-114350800D03*
X184759600Y-107035600D03*
X144932400Y-121996200D03*
X172567600Y-102590600D03*
X156815000Y-107628000D03*
X152730200Y-127304800D03*
X180289200Y-103225600D03*
X136398000Y-107473750D03*
X155752800Y-113030000D03*
X165201600Y-122732800D03*
X155422600Y-111887000D03*
X167081200Y-122631200D03*
X176199800Y-111658400D03*
X142265400Y-114147600D03*
X152943376Y-100330000D03*
X168427400Y-117856000D03*
X188188600Y-113076180D03*
X176885600Y-107772200D03*
X177520600Y-128270000D03*
X163652200Y-120802400D03*
X164193760Y-100330000D03*
X175869600Y-102463600D03*
X158140400Y-128270000D03*
X167513000Y-120929400D03*
X152603200Y-128270000D03*
X171170600Y-120065800D03*
X154818440Y-100330000D03*
X167284400Y-117830600D03*
X181069336Y-100330000D03*
X158568568Y-100330000D03*
X161848800Y-118059200D03*
X168376600Y-122605800D03*
X188722000Y-123069924D03*
X171694016Y-100330000D03*
X150368000Y-122936000D03*
X159232600Y-122402600D03*
X157708600Y-114020600D03*
X170307000Y-125069600D03*
X150858000Y-121146000D03*
X141528800Y-128270000D03*
X162687000Y-109626400D03*
X174752000Y-128270000D03*
X185877200Y-115824000D03*
X172897800Y-114731800D03*
X137942864Y-100330000D03*
X139817928Y-100330000D03*
X135890000Y-120796050D03*
X169214800Y-128270000D03*
X160443632Y-100330000D03*
X165379400Y-118008400D03*
X141692992Y-100330000D03*
X181406800Y-112750600D03*
X188696600Y-105580872D03*
X173710600Y-121666000D03*
X188569600Y-100584000D03*
X184819464Y-100330000D03*
X188620400Y-120571488D03*
X181483000Y-125095000D03*
X136652000Y-124126625D03*
X147066000Y-128270000D03*
X157581600Y-125069600D03*
X156693504Y-100330000D03*
X185826400Y-118465600D03*
X173837600Y-115900200D03*
X188772800Y-125568360D03*
X147318184Y-100330000D03*
X145872200Y-114782600D03*
X186309000Y-117144800D03*
X149504400Y-125755400D03*
X162052000Y-115417600D03*
X173569080Y-100330000D03*
X182944400Y-100330000D03*
X185064400Y-110845600D03*
X149108000Y-120700800D03*
X160401000Y-125907800D03*
X145443120Y-100330000D03*
X181330600Y-114173000D03*
X177319208Y-100330000D03*
X179755800Y-106578400D03*
X135890000Y-117465475D03*
X160909000Y-128270000D03*
X155930600Y-125399800D03*
X160625000Y-106358000D03*
X135890000Y-110804325D03*
X155194000Y-118110000D03*
X188620400Y-118338600D03*
X188772800Y-108079308D03*
X163677600Y-128270000D03*
X175361600Y-115951000D03*
X179194272Y-100330000D03*
X173532800Y-118618000D03*
X163626800Y-115366800D03*
X138760200Y-128270000D03*
X153238200Y-116078000D03*
X176047400Y-119938800D03*
X171983400Y-113665000D03*
X186579958Y-121725749D03*
X155371800Y-128270000D03*
X155168600Y-114173000D03*
X170205400Y-113334800D03*
X175444144Y-100330000D03*
X188595000Y-128066800D03*
X180289200Y-128270000D03*
X165633400Y-109626400D03*
X169818952Y-100330000D03*
X181305200Y-120065800D03*
X147193000Y-122224800D03*
X146058000Y-118946000D03*
X166068824Y-100330000D03*
X160909000Y-122377200D03*
X170891200Y-121056400D03*
X166090600Y-120802400D03*
X162318696Y-100330000D03*
X156083000Y-122377200D03*
X149193248Y-100330000D03*
X163703000Y-122707400D03*
X169748200Y-122174000D03*
X156768800Y-118160800D03*
X173761400Y-124739400D03*
X183997600Y-103860600D03*
X159396000Y-114076000D03*
X163245800Y-118084600D03*
X158216600Y-118186200D03*
X162022000Y-107628000D03*
X167436800Y-114122200D03*
X160350200Y-102743000D03*
X185826400Y-128270000D03*
X171983400Y-128270000D03*
X164617400Y-120777000D03*
X181305200Y-121691400D03*
X178282600Y-110820200D03*
X167944800Y-109626400D03*
X176784000Y-115900200D03*
X151130000Y-111760000D03*
X165684200Y-125857000D03*
X174853600Y-118795800D03*
X136271000Y-104143175D03*
X154660600Y-126492000D03*
X151068312Y-100330000D03*
X135991600Y-127457200D03*
X166446200Y-128270000D03*
X166395400Y-117932200D03*
X181711600Y-108737400D03*
X186694528Y-100330000D03*
X149834600Y-128270000D03*
X159258000Y-109677200D03*
X188671200Y-115574616D03*
X159969200Y-118160800D03*
X158085000Y-107628000D03*
X186258200Y-125501400D03*
X143568056Y-100330000D03*
X165836600Y-102209600D03*
X188442600Y-110577744D03*
X135890000Y-114134900D03*
X136067800Y-100812600D03*
X167386000Y-115366800D03*
X143256000Y-121945400D03*
X157886400Y-122351800D03*
X149352000Y-111760000D03*
X172694600Y-109677200D03*
X154203400Y-115138200D03*
X144297400Y-128270000D03*
X168681400Y-121031000D03*
X188366400Y-103082436D03*
X177165000Y-126111000D03*
X146177000Y-121793000D03*
X171272200Y-119049800D03*
X166141400Y-115366800D03*
X183057800Y-128270000D03*
X142290800Y-112776000D03*
%TO.N,+5V*%
X139446000Y-113919000D03*
X148590000Y-105664000D03*
%TO.N,+3V3*%
X141518949Y-123078549D03*
X149352000Y-109956600D03*
X144297400Y-116821000D03*
X144717000Y-110998000D03*
X151892000Y-121017992D03*
X153873200Y-124016000D03*
%TO.N,/MISO*%
X151332951Y-113486887D03*
X152707613Y-112757904D03*
%TO.N,/MOSI*%
X151194137Y-114423344D03*
X153746200Y-113258600D03*
%TO.N,/#CS*%
X154011240Y-109947652D03*
X150622000Y-109982000D03*
%TO.N,/#RESET*%
X146902800Y-114386705D03*
X149632221Y-113905385D03*
%TO.N,/DIO1*%
X148202000Y-113654896D03*
X150504847Y-112756924D03*
%TO.N,/DIO2*%
X147527000Y-110794800D03*
X168757600Y-111556800D03*
%TO.N,/DIO3*%
X146939001Y-110069754D03*
X147901519Y-120370596D03*
%TO.N,Net-(U2-Y)*%
X155321000Y-109220004D03*
X148742400Y-109245400D03*
%TD*%
D15*
%TO.N,GND*%
X167767000Y-114681000D02*
X167767000Y-114300000D01*
X137278000Y-118686000D02*
X137405000Y-118813000D01*
D16*
%TO.N,+5V*%
X139446000Y-113919000D02*
X139573000Y-113919000D01*
X148590000Y-105918000D02*
X148590000Y-105664000D01*
X141859000Y-111633000D02*
X142875000Y-111633000D01*
X139573000Y-113919000D02*
X141859000Y-111633000D01*
X142875000Y-111633000D02*
X148590000Y-105918000D01*
D15*
%TO.N,+3V3*%
X149352000Y-109956600D02*
X147780442Y-109956600D01*
D16*
X145288000Y-126847600D02*
X151257000Y-126847600D01*
X141518949Y-123078549D02*
X145288000Y-126847600D01*
D15*
X147780442Y-109956600D02*
X147218596Y-109394754D01*
D16*
X152819600Y-124016000D02*
X151892000Y-123088400D01*
X153873200Y-124016000D02*
X152819600Y-124016000D01*
X151892000Y-123088400D02*
X151892000Y-121017992D01*
D15*
X147218596Y-109394754D02*
X146320246Y-109394754D01*
D16*
X151257000Y-126847600D02*
X152819600Y-125285000D01*
X152819600Y-125285000D02*
X152819600Y-124016000D01*
D15*
X144297400Y-111417600D02*
X144297400Y-116821000D01*
X144717000Y-110998000D02*
X144297400Y-111417600D01*
X146320246Y-109394754D02*
X144717000Y-110998000D01*
%TO.N,/MISO*%
X152061934Y-112757904D02*
X152707613Y-112757904D01*
X151332951Y-113486887D02*
X152061934Y-112757904D01*
%TO.N,/MOSI*%
X153746200Y-113258600D02*
X152581456Y-114423344D01*
X152581456Y-114423344D02*
X151194137Y-114423344D01*
%TO.N,/#CS*%
X153976892Y-109982000D02*
X154011240Y-109947652D01*
X150622000Y-109982000D02*
X153976892Y-109982000D01*
%TO.N,/#RESET*%
X149632221Y-113905385D02*
X149150901Y-114386705D01*
X149150901Y-114386705D02*
X146902800Y-114386705D01*
%TO.N,/DIO1*%
X149099972Y-112756924D02*
X148202000Y-113654896D01*
X150504847Y-112756924D02*
X149099972Y-112756924D01*
%TO.N,/DIO2*%
X167995600Y-110794800D02*
X168757600Y-111556800D01*
X147527000Y-110794800D02*
X167995600Y-110794800D01*
%TO.N,/DIO3*%
X146939001Y-110069754D02*
X145034000Y-111974755D01*
X145034000Y-111974755D02*
X145034000Y-116454907D01*
X145034000Y-116454907D02*
X147901519Y-119322426D01*
X147901519Y-119322426D02*
X147901519Y-120370596D01*
%TO.N,Net-(U2-Y)*%
X148767800Y-109220000D02*
X148742400Y-109245400D01*
X155320996Y-109220000D02*
X148767800Y-109220000D01*
X155321000Y-109220004D02*
X155320996Y-109220000D01*
%TD*%
%TA.AperFunction,Conductor*%
%TO.N,GND*%
G36*
X189315621Y-99834502D02*
G01*
X189362114Y-99888158D01*
X189373500Y-99940500D01*
X189373500Y-128687500D01*
X189353498Y-128755621D01*
X189299842Y-128802114D01*
X189247500Y-128813500D01*
X135500500Y-128813500D01*
X135432379Y-128793498D01*
X135385886Y-128739842D01*
X135374500Y-128687500D01*
X135374500Y-122999704D01*
X140718449Y-122999704D01*
X140718449Y-123157393D01*
X140732612Y-123228595D01*
X140749212Y-123312046D01*
X140809555Y-123457728D01*
X140897160Y-123588838D01*
X141008660Y-123700338D01*
X141139770Y-123787943D01*
X141163056Y-123797588D01*
X141203934Y-123824902D01*
X144809579Y-127430548D01*
X144809582Y-127430550D01*
X144809584Y-127430552D01*
X144883270Y-127479786D01*
X144932505Y-127512684D01*
X145069087Y-127569258D01*
X145214082Y-127598100D01*
X145214083Y-127598100D01*
X145214087Y-127598100D01*
X151330913Y-127598100D01*
X151330917Y-127598100D01*
X151330918Y-127598100D01*
X151475913Y-127569258D01*
X151612495Y-127512684D01*
X151661729Y-127479786D01*
X151661734Y-127479783D01*
X151676426Y-127469965D01*
X151735416Y-127430552D01*
X153402551Y-125763416D01*
X153484684Y-125640495D01*
X153541258Y-125503913D01*
X153570100Y-125358918D01*
X153570100Y-124925423D01*
X153590102Y-124857302D01*
X153643758Y-124810809D01*
X153714032Y-124800705D01*
X153720645Y-124801837D01*
X153794358Y-124816500D01*
X153794359Y-124816500D01*
X153952041Y-124816500D01*
X153952042Y-124816500D01*
X154106697Y-124785737D01*
X154252379Y-124725394D01*
X154383489Y-124637789D01*
X154494989Y-124526289D01*
X154582594Y-124395179D01*
X154642937Y-124249497D01*
X154673700Y-124094842D01*
X154673700Y-123937158D01*
X154642937Y-123782503D01*
X154582594Y-123636821D01*
X154494989Y-123505711D01*
X154383489Y-123394211D01*
X154252379Y-123306606D01*
X154106697Y-123246263D01*
X154102851Y-123245498D01*
X153952044Y-123215500D01*
X153952042Y-123215500D01*
X153794358Y-123215500D01*
X153794355Y-123215500D01*
X153639702Y-123246263D01*
X153639692Y-123246266D01*
X153616417Y-123255908D01*
X153568198Y-123265500D01*
X153182658Y-123265500D01*
X153114537Y-123245498D01*
X153093562Y-123228595D01*
X152679404Y-122814436D01*
X152645379Y-122752124D01*
X152642500Y-122725341D01*
X152642500Y-121322994D01*
X152645916Y-121293853D01*
X152648241Y-121284069D01*
X152661737Y-121251489D01*
X152692500Y-121096834D01*
X152692500Y-120939150D01*
X152661737Y-120784495D01*
X152601394Y-120638813D01*
X152513789Y-120507703D01*
X152402289Y-120396203D01*
X152271179Y-120308598D01*
X152125497Y-120248255D01*
X152082207Y-120239644D01*
X151970844Y-120217492D01*
X151970842Y-120217492D01*
X151813158Y-120217492D01*
X151813155Y-120217492D01*
X151658502Y-120248255D01*
X151658497Y-120248257D01*
X151512820Y-120308598D01*
X151381715Y-120396200D01*
X151381708Y-120396205D01*
X151270213Y-120507700D01*
X151270208Y-120507707D01*
X151182606Y-120638812D01*
X151122265Y-120784489D01*
X151122263Y-120784494D01*
X151091500Y-120939147D01*
X151091500Y-121096836D01*
X151122263Y-121251490D01*
X151122264Y-121251492D01*
X151131908Y-121274773D01*
X151141500Y-121322994D01*
X151141500Y-123162316D01*
X151170342Y-123307313D01*
X151170343Y-123307316D01*
X151226916Y-123443895D01*
X151226916Y-123443896D01*
X151236157Y-123457725D01*
X151236158Y-123457728D01*
X151236159Y-123457728D01*
X151309048Y-123566816D01*
X151679391Y-123937159D01*
X152032195Y-124289962D01*
X152066220Y-124352275D01*
X152069100Y-124379058D01*
X152069100Y-124921942D01*
X152049098Y-124990063D01*
X152032195Y-125011037D01*
X150983037Y-126060195D01*
X150920725Y-126094221D01*
X150893942Y-126097100D01*
X145651058Y-126097100D01*
X145582937Y-126077098D01*
X145561963Y-126060195D01*
X142265302Y-122763534D01*
X142237988Y-122722656D01*
X142228343Y-122699370D01*
X142140738Y-122568260D01*
X142029238Y-122456760D01*
X141898128Y-122369155D01*
X141752446Y-122308812D01*
X141597793Y-122278049D01*
X141597791Y-122278049D01*
X141440107Y-122278049D01*
X141440104Y-122278049D01*
X141285451Y-122308812D01*
X141285446Y-122308814D01*
X141139769Y-122369155D01*
X141008664Y-122456757D01*
X141008657Y-122456762D01*
X140897162Y-122568257D01*
X140897157Y-122568264D01*
X140809555Y-122699369D01*
X140749214Y-122845046D01*
X140749212Y-122845051D01*
X140718449Y-122999704D01*
X135374500Y-122999704D01*
X135374500Y-113840155D01*
X138645500Y-113840155D01*
X138645500Y-113997844D01*
X138676263Y-114152497D01*
X138676265Y-114152502D01*
X138691734Y-114189847D01*
X138736606Y-114298179D01*
X138824211Y-114429289D01*
X138935711Y-114540789D01*
X139066821Y-114628394D01*
X139212503Y-114688737D01*
X139367158Y-114719500D01*
X139367159Y-114719500D01*
X139524841Y-114719500D01*
X139524842Y-114719500D01*
X139679497Y-114688737D01*
X139825179Y-114628394D01*
X139825183Y-114628391D01*
X139829694Y-114625979D01*
X139831295Y-114625018D01*
X139836813Y-114622058D01*
X139928495Y-114584084D01*
X140008112Y-114530886D01*
X140051416Y-114501952D01*
X142132962Y-112420404D01*
X142195274Y-112386380D01*
X142222057Y-112383500D01*
X142948913Y-112383500D01*
X142948917Y-112383500D01*
X142948918Y-112383500D01*
X143093913Y-112354658D01*
X143230495Y-112298084D01*
X143299992Y-112251648D01*
X143353416Y-112215952D01*
X143459661Y-112109706D01*
X143462674Y-112107056D01*
X143491353Y-112093697D01*
X143519116Y-112078538D01*
X143523262Y-112078834D01*
X143527032Y-112077079D01*
X143558378Y-112081345D01*
X143589932Y-112083602D01*
X143593260Y-112086093D01*
X143597379Y-112086654D01*
X143621441Y-112107189D01*
X143646768Y-112126149D01*
X143648220Y-112130044D01*
X143651383Y-112132743D01*
X143660522Y-112163025D01*
X143671579Y-112192669D01*
X143671862Y-112200598D01*
X143671896Y-112200711D01*
X143671869Y-112200803D01*
X143671900Y-112201658D01*
X143671900Y-116278042D01*
X143651898Y-116346163D01*
X143650666Y-116348043D01*
X143588005Y-116441822D01*
X143527665Y-116587497D01*
X143527663Y-116587502D01*
X143496900Y-116742155D01*
X143496900Y-116742158D01*
X143496900Y-116899842D01*
X143527663Y-117054497D01*
X143588006Y-117200179D01*
X143675611Y-117331289D01*
X143787111Y-117442789D01*
X143918221Y-117530394D01*
X144063903Y-117590737D01*
X144218558Y-117621500D01*
X144218559Y-117621500D01*
X144376241Y-117621500D01*
X144376242Y-117621500D01*
X144530897Y-117590737D01*
X144676579Y-117530394D01*
X144807689Y-117442789D01*
X144883398Y-117367079D01*
X144945706Y-117333057D01*
X145016522Y-117338121D01*
X145061585Y-117367082D01*
X147239114Y-119544611D01*
X147254058Y-119571979D01*
X147270915Y-119598208D01*
X147271820Y-119604506D01*
X147273140Y-119606923D01*
X147276019Y-119633706D01*
X147276019Y-119827638D01*
X147256017Y-119895759D01*
X147254785Y-119897639D01*
X147192124Y-119991418D01*
X147131784Y-120137093D01*
X147131782Y-120137098D01*
X147101019Y-120291751D01*
X147101019Y-120449440D01*
X147131782Y-120604093D01*
X147192125Y-120749775D01*
X147279730Y-120880885D01*
X147391230Y-120992385D01*
X147522340Y-121079990D01*
X147668022Y-121140333D01*
X147822677Y-121171096D01*
X147822678Y-121171096D01*
X147980360Y-121171096D01*
X147980361Y-121171096D01*
X148135016Y-121140333D01*
X148280698Y-121079990D01*
X148411808Y-120992385D01*
X148523308Y-120880885D01*
X148610913Y-120749775D01*
X148671256Y-120604093D01*
X148702019Y-120449438D01*
X148702019Y-120291754D01*
X148671256Y-120137099D01*
X148610913Y-119991417D01*
X148548253Y-119897639D01*
X148527039Y-119829886D01*
X148527019Y-119827638D01*
X148527019Y-119260821D01*
X148527018Y-119260814D01*
X148511051Y-119180543D01*
X148502982Y-119139974D01*
X148455830Y-119026140D01*
X148387377Y-118923693D01*
X148300252Y-118836568D01*
X148300251Y-118836567D01*
X148297090Y-118833406D01*
X148297075Y-118833392D01*
X145696405Y-116232722D01*
X145681460Y-116205353D01*
X145664604Y-116179125D01*
X145663698Y-116172826D01*
X145662379Y-116170410D01*
X145659500Y-116143627D01*
X145659500Y-114307860D01*
X146102300Y-114307860D01*
X146102300Y-114465549D01*
X146117267Y-114540791D01*
X146133063Y-114620202D01*
X146193406Y-114765884D01*
X146281011Y-114896994D01*
X146392511Y-115008494D01*
X146523621Y-115096099D01*
X146669303Y-115156442D01*
X146823958Y-115187205D01*
X146823959Y-115187205D01*
X146981641Y-115187205D01*
X146981642Y-115187205D01*
X147136297Y-115156442D01*
X147281979Y-115096099D01*
X147375755Y-115033440D01*
X147443508Y-115012225D01*
X147445757Y-115012205D01*
X149212507Y-115012205D01*
X149212508Y-115012205D01*
X149274828Y-114999809D01*
X149333353Y-114988168D01*
X149366693Y-114974357D01*
X149447187Y-114941017D01*
X149513070Y-114896994D01*
X149549634Y-114872563D01*
X149636759Y-114785438D01*
X149643932Y-114778265D01*
X149643943Y-114778251D01*
X149690588Y-114731606D01*
X149752898Y-114697582D01*
X149755039Y-114697136D01*
X149865718Y-114675122D01*
X150011400Y-114614779D01*
X150142510Y-114527174D01*
X150189435Y-114480248D01*
X150251743Y-114446226D01*
X150322558Y-114451290D01*
X150379394Y-114493836D01*
X150402106Y-114544764D01*
X150424400Y-114656841D01*
X150484743Y-114802523D01*
X150572348Y-114933633D01*
X150683848Y-115045133D01*
X150814958Y-115132738D01*
X150960640Y-115193081D01*
X151115295Y-115223844D01*
X151115296Y-115223844D01*
X151272978Y-115223844D01*
X151272979Y-115223844D01*
X151427634Y-115193081D01*
X151573316Y-115132738D01*
X151667092Y-115070079D01*
X151734845Y-115048864D01*
X151737094Y-115048844D01*
X152643058Y-115048844D01*
X152643063Y-115048844D01*
X152703485Y-115036825D01*
X152763908Y-115024807D01*
X152803291Y-115008494D01*
X152877742Y-114977656D01*
X152928965Y-114943428D01*
X152980189Y-114909202D01*
X153067314Y-114822077D01*
X153074487Y-114814904D01*
X153074498Y-114814890D01*
X153393371Y-114496017D01*
X176919600Y-114496017D01*
X176919600Y-114739582D01*
X176951389Y-114981049D01*
X177014428Y-115216315D01*
X177107635Y-115441337D01*
X177107641Y-115441348D01*
X177229411Y-115652261D01*
X177229415Y-115652267D01*
X177296497Y-115739689D01*
X177296499Y-115739690D01*
X178021827Y-115014361D01*
X178024340Y-115020426D01*
X178117362Y-115159644D01*
X178235756Y-115278038D01*
X178374974Y-115371060D01*
X178381037Y-115373571D01*
X177655708Y-116098900D01*
X177655708Y-116098901D01*
X177743131Y-116165983D01*
X177743138Y-116165988D01*
X177954051Y-116287758D01*
X177954062Y-116287764D01*
X178179084Y-116380971D01*
X178414350Y-116444010D01*
X178655817Y-116475799D01*
X178655827Y-116475800D01*
X178899373Y-116475800D01*
X178899381Y-116475799D01*
X178993405Y-116463421D01*
X179063553Y-116474360D01*
X179116652Y-116521488D01*
X179135842Y-116589842D01*
X179131558Y-116620953D01*
X179105605Y-116717811D01*
X179067100Y-117010291D01*
X179067100Y-117305308D01*
X179105605Y-117597788D01*
X179131558Y-117694646D01*
X179129868Y-117765622D01*
X179090073Y-117824418D01*
X179024809Y-117852365D01*
X178993406Y-117852178D01*
X178899384Y-117839800D01*
X178655817Y-117839800D01*
X178414350Y-117871589D01*
X178179084Y-117934628D01*
X177954062Y-118027835D01*
X177954051Y-118027841D01*
X177743138Y-118149611D01*
X177655708Y-118216698D01*
X178381038Y-118942028D01*
X178374974Y-118944540D01*
X178235756Y-119037562D01*
X178117362Y-119155956D01*
X178024340Y-119295174D01*
X178021828Y-119301238D01*
X177296498Y-118575908D01*
X177229411Y-118663338D01*
X177107641Y-118874251D01*
X177107635Y-118874262D01*
X177014428Y-119099284D01*
X176951389Y-119334550D01*
X176919600Y-119576017D01*
X176919600Y-119819582D01*
X176951389Y-120061049D01*
X177014428Y-120296315D01*
X177107635Y-120521337D01*
X177107641Y-120521348D01*
X177229411Y-120732261D01*
X177229415Y-120732267D01*
X177296497Y-120819689D01*
X177296499Y-120819690D01*
X178021827Y-120094361D01*
X178024340Y-120100426D01*
X178117362Y-120239644D01*
X178235756Y-120358038D01*
X178374974Y-120451060D01*
X178381037Y-120453571D01*
X177655708Y-121178900D01*
X177655708Y-121178901D01*
X177743131Y-121245983D01*
X177743138Y-121245988D01*
X177954051Y-121367758D01*
X177954062Y-121367764D01*
X178179084Y-121460971D01*
X178414350Y-121524010D01*
X178655817Y-121555799D01*
X178655827Y-121555800D01*
X178899373Y-121555800D01*
X178899382Y-121555799D01*
X179140849Y-121524010D01*
X179376115Y-121460971D01*
X179601137Y-121367764D01*
X179601148Y-121367758D01*
X179812060Y-121245988D01*
X179899490Y-121178900D01*
X179174162Y-120453571D01*
X179180226Y-120451060D01*
X179319444Y-120358038D01*
X179437838Y-120239644D01*
X179530860Y-120100426D01*
X179533371Y-120094361D01*
X180258700Y-120819690D01*
X180325788Y-120732260D01*
X180447558Y-120521348D01*
X180447564Y-120521337D01*
X180540771Y-120296315D01*
X180603810Y-120061049D01*
X180635599Y-119819582D01*
X180635600Y-119819573D01*
X180635600Y-119576027D01*
X180635599Y-119576017D01*
X180623221Y-119481994D01*
X180634160Y-119411845D01*
X180681289Y-119358747D01*
X180749642Y-119339557D01*
X180780750Y-119343840D01*
X180877607Y-119369793D01*
X180877613Y-119369793D01*
X180877614Y-119369794D01*
X180911174Y-119374212D01*
X181170094Y-119408300D01*
X181170101Y-119408300D01*
X181465099Y-119408300D01*
X181465106Y-119408300D01*
X181757593Y-119369793D01*
X181854447Y-119343841D01*
X181925420Y-119345530D01*
X181984216Y-119385323D01*
X182012165Y-119450587D01*
X182011978Y-119481992D01*
X181999600Y-119576015D01*
X181999600Y-119819582D01*
X182031389Y-120061049D01*
X182094428Y-120296315D01*
X182187635Y-120521337D01*
X182187641Y-120521348D01*
X182309411Y-120732261D01*
X182309415Y-120732267D01*
X182376497Y-120819689D01*
X182376498Y-120819690D01*
X183101827Y-120094361D01*
X183104340Y-120100426D01*
X183197362Y-120239644D01*
X183315756Y-120358038D01*
X183454974Y-120451060D01*
X183461037Y-120453571D01*
X182735708Y-121178900D01*
X182735708Y-121178901D01*
X182823131Y-121245983D01*
X182823138Y-121245988D01*
X183034051Y-121367758D01*
X183034062Y-121367764D01*
X183259084Y-121460971D01*
X183494350Y-121524010D01*
X183735817Y-121555799D01*
X183735827Y-121555800D01*
X183979373Y-121555800D01*
X183979382Y-121555799D01*
X184220849Y-121524010D01*
X184456115Y-121460971D01*
X184681137Y-121367764D01*
X184681148Y-121367758D01*
X184892060Y-121245988D01*
X184979490Y-121178900D01*
X184254162Y-120453571D01*
X184260226Y-120451060D01*
X184399444Y-120358038D01*
X184517838Y-120239644D01*
X184610860Y-120100426D01*
X184613371Y-120094361D01*
X185338700Y-120819690D01*
X185405788Y-120732260D01*
X185527558Y-120521348D01*
X185527564Y-120521337D01*
X185620771Y-120296315D01*
X185683810Y-120061049D01*
X185715599Y-119819582D01*
X185715600Y-119819573D01*
X185715600Y-119576027D01*
X185715599Y-119576017D01*
X185683810Y-119334550D01*
X185620771Y-119099284D01*
X185527564Y-118874262D01*
X185527558Y-118874251D01*
X185405788Y-118663338D01*
X185405783Y-118663331D01*
X185338700Y-118575908D01*
X184613371Y-119301237D01*
X184610860Y-119295174D01*
X184517838Y-119155956D01*
X184399444Y-119037562D01*
X184260226Y-118944540D01*
X184254161Y-118942027D01*
X184979490Y-118216698D01*
X184979489Y-118216697D01*
X184892067Y-118149615D01*
X184892061Y-118149611D01*
X184681148Y-118027841D01*
X184681137Y-118027835D01*
X184456115Y-117934628D01*
X184220849Y-117871589D01*
X183979382Y-117839800D01*
X183735815Y-117839800D01*
X183641792Y-117852178D01*
X183571643Y-117841238D01*
X183518545Y-117794109D01*
X183499356Y-117725755D01*
X183503641Y-117694646D01*
X183529593Y-117597793D01*
X183568100Y-117305306D01*
X183568100Y-117010294D01*
X183529593Y-116717807D01*
X183503641Y-116620952D01*
X183505331Y-116549977D01*
X183545125Y-116491182D01*
X183610390Y-116463234D01*
X183641794Y-116463421D01*
X183735817Y-116475799D01*
X183735827Y-116475800D01*
X183979373Y-116475800D01*
X183979382Y-116475799D01*
X184220849Y-116444010D01*
X184456115Y-116380971D01*
X184681137Y-116287764D01*
X184681148Y-116287758D01*
X184892060Y-116165988D01*
X184979490Y-116098900D01*
X184254161Y-115373571D01*
X184260226Y-115371060D01*
X184399444Y-115278038D01*
X184517838Y-115159644D01*
X184610860Y-115020426D01*
X184613371Y-115014361D01*
X185338700Y-115739690D01*
X185405788Y-115652260D01*
X185527558Y-115441348D01*
X185527564Y-115441337D01*
X185620771Y-115216315D01*
X185683810Y-114981049D01*
X185715599Y-114739582D01*
X185715600Y-114739573D01*
X185715600Y-114496027D01*
X185715599Y-114496017D01*
X185683810Y-114254550D01*
X185620771Y-114019284D01*
X185527564Y-113794262D01*
X185527558Y-113794251D01*
X185405788Y-113583338D01*
X185405783Y-113583331D01*
X185338700Y-113495908D01*
X184613371Y-114221237D01*
X184610860Y-114215174D01*
X184517838Y-114075956D01*
X184399444Y-113957562D01*
X184260226Y-113864540D01*
X184254161Y-113862028D01*
X184979490Y-113136699D01*
X184979489Y-113136697D01*
X184892067Y-113069615D01*
X184892061Y-113069611D01*
X184681148Y-112947841D01*
X184681137Y-112947835D01*
X184456115Y-112854628D01*
X184220849Y-112791589D01*
X183979382Y-112759800D01*
X183735817Y-112759800D01*
X183494350Y-112791589D01*
X183259084Y-112854628D01*
X183034062Y-112947835D01*
X183034051Y-112947841D01*
X182823138Y-113069611D01*
X182735708Y-113136698D01*
X183461038Y-113862028D01*
X183454974Y-113864540D01*
X183315756Y-113957562D01*
X183197362Y-114075956D01*
X183104340Y-114215174D01*
X183101828Y-114221238D01*
X182376498Y-113495908D01*
X182309411Y-113583338D01*
X182187641Y-113794251D01*
X182187635Y-113794262D01*
X182094428Y-114019284D01*
X182031389Y-114254550D01*
X181999600Y-114496017D01*
X181999600Y-114739584D01*
X182011978Y-114833606D01*
X182001038Y-114903755D01*
X181953910Y-114956853D01*
X181885555Y-114976042D01*
X181854446Y-114971758D01*
X181757588Y-114945805D01*
X181465108Y-114907300D01*
X181465106Y-114907300D01*
X181170094Y-114907300D01*
X181170091Y-114907300D01*
X180877611Y-114945805D01*
X180780753Y-114971758D01*
X180709776Y-114970068D01*
X180650981Y-114930273D01*
X180623034Y-114865008D01*
X180623221Y-114833605D01*
X180635599Y-114739581D01*
X180635600Y-114739573D01*
X180635600Y-114496027D01*
X180635599Y-114496017D01*
X180603810Y-114254550D01*
X180540771Y-114019284D01*
X180447564Y-113794262D01*
X180447558Y-113794251D01*
X180325788Y-113583338D01*
X180325783Y-113583331D01*
X180258700Y-113495908D01*
X179533371Y-114221237D01*
X179530860Y-114215174D01*
X179437838Y-114075956D01*
X179319444Y-113957562D01*
X179180226Y-113864540D01*
X179174161Y-113862028D01*
X179899490Y-113136699D01*
X179899489Y-113136697D01*
X179812067Y-113069615D01*
X179812061Y-113069611D01*
X179601148Y-112947841D01*
X179601137Y-112947835D01*
X179376115Y-112854628D01*
X179140849Y-112791589D01*
X178899382Y-112759800D01*
X178655817Y-112759800D01*
X178414350Y-112791589D01*
X178179084Y-112854628D01*
X177954062Y-112947835D01*
X177954051Y-112947841D01*
X177743138Y-113069611D01*
X177655708Y-113136698D01*
X178381038Y-113862028D01*
X178374974Y-113864540D01*
X178235756Y-113957562D01*
X178117362Y-114075956D01*
X178024340Y-114215174D01*
X178021828Y-114221238D01*
X177296498Y-113495908D01*
X177229411Y-113583338D01*
X177107641Y-113794251D01*
X177107635Y-113794262D01*
X177014428Y-114019284D01*
X176951389Y-114254550D01*
X176919600Y-114496017D01*
X153393371Y-114496017D01*
X153804567Y-114084821D01*
X153866877Y-114050797D01*
X153869018Y-114050351D01*
X153979697Y-114028337D01*
X154125379Y-113967994D01*
X154256489Y-113880389D01*
X154367989Y-113768889D01*
X154455594Y-113637779D01*
X154515937Y-113492097D01*
X154546700Y-113337442D01*
X154546700Y-113179758D01*
X154515937Y-113025103D01*
X154455594Y-112879421D01*
X154367989Y-112748311D01*
X154256489Y-112636811D01*
X154125379Y-112549206D01*
X153979697Y-112488863D01*
X153970965Y-112487126D01*
X153825044Y-112458100D01*
X153825042Y-112458100D01*
X153667358Y-112458100D01*
X153667355Y-112458100D01*
X153567858Y-112477892D01*
X153497144Y-112471564D01*
X153441076Y-112428010D01*
X153426867Y-112402530D01*
X153417007Y-112378725D01*
X153329402Y-112247615D01*
X153217902Y-112136115D01*
X153086792Y-112048510D01*
X152941110Y-111988167D01*
X152936183Y-111987187D01*
X152786457Y-111957404D01*
X152786455Y-111957404D01*
X152628771Y-111957404D01*
X152628768Y-111957404D01*
X152474115Y-111988167D01*
X152474110Y-111988169D01*
X152328433Y-112048510D01*
X152234658Y-112111169D01*
X152216318Y-112116911D01*
X152200154Y-112127300D01*
X152168696Y-112131823D01*
X152166905Y-112132384D01*
X152164656Y-112132404D01*
X152129774Y-112132404D01*
X152129754Y-112132403D01*
X152123541Y-112132403D01*
X152000328Y-112132403D01*
X152000322Y-112132403D01*
X151924985Y-112147388D01*
X151899531Y-112152452D01*
X151892817Y-112153787D01*
X151879483Y-112156440D01*
X151832331Y-112175970D01*
X151832331Y-112175971D01*
X151765649Y-112203592D01*
X151765647Y-112203593D01*
X151663201Y-112272045D01*
X151663195Y-112272050D01*
X151448120Y-112487126D01*
X151385808Y-112521152D01*
X151314993Y-112516087D01*
X151258157Y-112473540D01*
X151242616Y-112446249D01*
X151224507Y-112402530D01*
X151214241Y-112377745D01*
X151126636Y-112246635D01*
X151015136Y-112135135D01*
X150884026Y-112047530D01*
X150738344Y-111987187D01*
X150583691Y-111956424D01*
X150583689Y-111956424D01*
X150426005Y-111956424D01*
X150426002Y-111956424D01*
X150271349Y-111987187D01*
X150271344Y-111987189D01*
X150125667Y-112047530D01*
X150031892Y-112110189D01*
X149964139Y-112131404D01*
X149961890Y-112131424D01*
X149038360Y-112131424D01*
X148977943Y-112143441D01*
X148977943Y-112143442D01*
X148957802Y-112147448D01*
X148917518Y-112155461D01*
X148917508Y-112155464D01*
X148803690Y-112202610D01*
X148803686Y-112202612D01*
X148701243Y-112271063D01*
X148701236Y-112271068D01*
X148645771Y-112326534D01*
X148614114Y-112358191D01*
X148614111Y-112358194D01*
X148335497Y-112636808D01*
X148143633Y-112828672D01*
X148081321Y-112862697D01*
X148079121Y-112863155D01*
X148027564Y-112873410D01*
X147968503Y-112885159D01*
X147968501Y-112885159D01*
X147968500Y-112885160D01*
X147968499Y-112885160D01*
X147822820Y-112945502D01*
X147691715Y-113033104D01*
X147691708Y-113033109D01*
X147580213Y-113144604D01*
X147580208Y-113144611D01*
X147492606Y-113275716D01*
X147432265Y-113421393D01*
X147432263Y-113421398D01*
X147403746Y-113564761D01*
X147370838Y-113627671D01*
X147309143Y-113662802D01*
X147238248Y-113659001D01*
X147231949Y-113656588D01*
X147136302Y-113616970D01*
X147136297Y-113616968D01*
X146981644Y-113586205D01*
X146981642Y-113586205D01*
X146823958Y-113586205D01*
X146823955Y-113586205D01*
X146669302Y-113616968D01*
X146669297Y-113616970D01*
X146523620Y-113677311D01*
X146392515Y-113764913D01*
X146392508Y-113764918D01*
X146281013Y-113876413D01*
X146281008Y-113876420D01*
X146193406Y-114007525D01*
X146133065Y-114153202D01*
X146133063Y-114153207D01*
X146102300Y-114307860D01*
X145659500Y-114307860D01*
X145659500Y-112286034D01*
X145679502Y-112217913D01*
X145696395Y-112196949D01*
X146669696Y-111223647D01*
X146732005Y-111189625D01*
X146802820Y-111194689D01*
X146859656Y-111237236D01*
X146863553Y-111242744D01*
X146905204Y-111305080D01*
X146905209Y-111305086D01*
X146905211Y-111305089D01*
X147016711Y-111416589D01*
X147147821Y-111504194D01*
X147293503Y-111564537D01*
X147448158Y-111595300D01*
X147448159Y-111595300D01*
X147605841Y-111595300D01*
X147605842Y-111595300D01*
X147760497Y-111564537D01*
X147906179Y-111504194D01*
X147999955Y-111441535D01*
X148067708Y-111420320D01*
X148069957Y-111420300D01*
X167684320Y-111420300D01*
X167714235Y-111429083D01*
X167744705Y-111435712D01*
X167749800Y-111439526D01*
X167752441Y-111440302D01*
X167773415Y-111457205D01*
X167931375Y-111615165D01*
X167965401Y-111677477D01*
X167965859Y-111679678D01*
X167987863Y-111790297D01*
X168048206Y-111935979D01*
X168135811Y-112067089D01*
X168247311Y-112178589D01*
X168378421Y-112266194D01*
X168524103Y-112326537D01*
X168678758Y-112357300D01*
X168678759Y-112357300D01*
X168836441Y-112357300D01*
X168836442Y-112357300D01*
X168991097Y-112326537D01*
X169136779Y-112266194D01*
X169267889Y-112178589D01*
X169379389Y-112067089D01*
X169466994Y-111935979D01*
X169527337Y-111790297D01*
X169558100Y-111635642D01*
X169558100Y-111477958D01*
X169527337Y-111323303D01*
X169466994Y-111177621D01*
X169379389Y-111046511D01*
X169267889Y-110935011D01*
X169136779Y-110847406D01*
X169043677Y-110808842D01*
X168991100Y-110787064D01*
X168991097Y-110787063D01*
X168880478Y-110765059D01*
X168817568Y-110732151D01*
X168815965Y-110730575D01*
X168489315Y-110403925D01*
X168481460Y-110396070D01*
X168481458Y-110396067D01*
X168394333Y-110308942D01*
X168328161Y-110264727D01*
X168321911Y-110260550D01*
X168321909Y-110260549D01*
X168291885Y-110240487D01*
X168196845Y-110201121D01*
X168196842Y-110201120D01*
X168188102Y-110197500D01*
X168178052Y-110193337D01*
X168116777Y-110181149D01*
X168113919Y-110180580D01*
X168113909Y-110180578D01*
X168057209Y-110169300D01*
X168057207Y-110169300D01*
X168057206Y-110169300D01*
X155754374Y-110169300D01*
X155686253Y-110149298D01*
X155639760Y-110095642D01*
X155629656Y-110025368D01*
X155659150Y-109960788D01*
X155694977Y-109932178D01*
X155700167Y-109929402D01*
X155700179Y-109929398D01*
X155831289Y-109841793D01*
X155942789Y-109730293D01*
X156030394Y-109599183D01*
X156090737Y-109453501D01*
X156121500Y-109298846D01*
X156121500Y-109141162D01*
X156090737Y-108986507D01*
X156030394Y-108840825D01*
X155942789Y-108709715D01*
X155831289Y-108598215D01*
X155700179Y-108510610D01*
X155554497Y-108450267D01*
X155399844Y-108419504D01*
X155399842Y-108419504D01*
X155242158Y-108419504D01*
X155242155Y-108419504D01*
X155087502Y-108450267D01*
X155087497Y-108450269D01*
X154941820Y-108510610D01*
X154848051Y-108573265D01*
X154780298Y-108594480D01*
X154778049Y-108594500D01*
X149247343Y-108594500D01*
X149179222Y-108574498D01*
X149177341Y-108573265D01*
X149121579Y-108536006D01*
X148975902Y-108475665D01*
X148975897Y-108475663D01*
X148821244Y-108444900D01*
X148821242Y-108444900D01*
X148663558Y-108444900D01*
X148663555Y-108444900D01*
X148508902Y-108475663D01*
X148508897Y-108475665D01*
X148363220Y-108536006D01*
X148232115Y-108623608D01*
X148232108Y-108623613D01*
X148120613Y-108735108D01*
X148120608Y-108735115D01*
X148033006Y-108866220D01*
X147970921Y-109016108D01*
X147949997Y-109042073D01*
X147930021Y-109068758D01*
X147927836Y-109069572D01*
X147926373Y-109071389D01*
X147894734Y-109081919D01*
X147863501Y-109093569D01*
X147861222Y-109093073D01*
X147859009Y-109093810D01*
X147826702Y-109085564D01*
X147794127Y-109078478D01*
X147791637Y-109076614D01*
X147790218Y-109076252D01*
X147765417Y-109056985D01*
X147708864Y-109000432D01*
X147708844Y-109000410D01*
X147617334Y-108908900D01*
X147617328Y-108908895D01*
X147571769Y-108878453D01*
X147571764Y-108878450D01*
X147565852Y-108874500D01*
X147514882Y-108840442D01*
X147434388Y-108807101D01*
X147401048Y-108793291D01*
X147304063Y-108774000D01*
X147280203Y-108769254D01*
X147104303Y-108769254D01*
X147036182Y-108749252D01*
X146989689Y-108695596D01*
X146979585Y-108625322D01*
X147009079Y-108560742D01*
X147015208Y-108554159D01*
X149172948Y-106396419D01*
X149172952Y-106396415D01*
X149246867Y-106285792D01*
X149246869Y-106285790D01*
X149250167Y-106280852D01*
X149255084Y-106273495D01*
X149278518Y-106216920D01*
X149311659Y-106136912D01*
X149340500Y-105991917D01*
X149340500Y-105969002D01*
X149350092Y-105920781D01*
X149359737Y-105897497D01*
X149390500Y-105742842D01*
X149390500Y-105585158D01*
X149359737Y-105430503D01*
X149299394Y-105284821D01*
X149211789Y-105153711D01*
X149100289Y-105042211D01*
X148969179Y-104954606D01*
X148823497Y-104894263D01*
X148668844Y-104863500D01*
X148668842Y-104863500D01*
X148511158Y-104863500D01*
X148511155Y-104863500D01*
X148356502Y-104894263D01*
X148356497Y-104894265D01*
X148210820Y-104954606D01*
X148079715Y-105042208D01*
X148079708Y-105042213D01*
X147968213Y-105153708D01*
X147968208Y-105153715D01*
X147880606Y-105284820D01*
X147820265Y-105430497D01*
X147820263Y-105430502D01*
X147789500Y-105585155D01*
X147789500Y-105604942D01*
X147769498Y-105673063D01*
X147752595Y-105694037D01*
X142601037Y-110845595D01*
X142573668Y-110860539D01*
X142547440Y-110877396D01*
X142541141Y-110878301D01*
X142538725Y-110879621D01*
X142511942Y-110882500D01*
X142495078Y-110882500D01*
X142426957Y-110862498D01*
X142380464Y-110808842D01*
X142370360Y-110738568D01*
X142390313Y-110686498D01*
X142391792Y-110684284D01*
X142479394Y-110553179D01*
X142539737Y-110407497D01*
X142570500Y-110252842D01*
X142570500Y-110174000D01*
X142570500Y-110108108D01*
X142570500Y-108708108D01*
X142570500Y-108695158D01*
X142539737Y-108540503D01*
X142479394Y-108394821D01*
X142391789Y-108263711D01*
X142280289Y-108152211D01*
X142149179Y-108064606D01*
X142003497Y-108004263D01*
X141848844Y-107973500D01*
X141848842Y-107973500D01*
X141835892Y-107973500D01*
X140235892Y-107973500D01*
X140170000Y-107973500D01*
X140091158Y-107973500D01*
X140091155Y-107973500D01*
X139936502Y-108004263D01*
X139936497Y-108004265D01*
X139790820Y-108064606D01*
X139659715Y-108152208D01*
X139659708Y-108152213D01*
X139548213Y-108263708D01*
X139548208Y-108263715D01*
X139460606Y-108394820D01*
X139400265Y-108540497D01*
X139400263Y-108540502D01*
X139369500Y-108695155D01*
X139369500Y-108695158D01*
X139369500Y-108708108D01*
X139369500Y-110108108D01*
X139369500Y-110174000D01*
X139369500Y-110252842D01*
X139400263Y-110407497D01*
X139460606Y-110553179D01*
X139548211Y-110684289D01*
X139659711Y-110795789D01*
X139790821Y-110883394D01*
X139936503Y-110943737D01*
X140091158Y-110974500D01*
X140104108Y-110974500D01*
X141151943Y-110974500D01*
X141220064Y-110994502D01*
X141266557Y-111048158D01*
X141276661Y-111118432D01*
X141247167Y-111183012D01*
X141241053Y-111189579D01*
X139639042Y-112791589D01*
X139325495Y-113105136D01*
X139263183Y-113139161D01*
X139260984Y-113139618D01*
X139212509Y-113149261D01*
X139212499Y-113149264D01*
X139066820Y-113209606D01*
X138935715Y-113297208D01*
X138935708Y-113297213D01*
X138824213Y-113408708D01*
X138824208Y-113408715D01*
X138736606Y-113539820D01*
X138676265Y-113685497D01*
X138676263Y-113685502D01*
X138645500Y-113840155D01*
X135374500Y-113840155D01*
X135374500Y-105393155D01*
X139369500Y-105393155D01*
X139369500Y-105393158D01*
X139369500Y-105406108D01*
X139369500Y-106806108D01*
X139369500Y-106872000D01*
X139369500Y-106950842D01*
X139400263Y-107105497D01*
X139460606Y-107251179D01*
X139548211Y-107382289D01*
X139659711Y-107493789D01*
X139790821Y-107581394D01*
X139936503Y-107641737D01*
X140091158Y-107672500D01*
X140091159Y-107672500D01*
X141848841Y-107672500D01*
X141848842Y-107672500D01*
X142003497Y-107641737D01*
X142149179Y-107581394D01*
X142280289Y-107493789D01*
X142391789Y-107382289D01*
X142479394Y-107251179D01*
X142539737Y-107105497D01*
X142570500Y-106950842D01*
X142570500Y-106872000D01*
X142570500Y-106806108D01*
X142570500Y-105406108D01*
X142570500Y-105393158D01*
X142539737Y-105238503D01*
X142479394Y-105092821D01*
X142391789Y-104961711D01*
X142280289Y-104850211D01*
X142149179Y-104762606D01*
X142003497Y-104702263D01*
X141848844Y-104671500D01*
X141848842Y-104671500D01*
X141835892Y-104671500D01*
X140235892Y-104671500D01*
X140170000Y-104671500D01*
X140091158Y-104671500D01*
X140091155Y-104671500D01*
X139936502Y-104702263D01*
X139936497Y-104702265D01*
X139790820Y-104762606D01*
X139659715Y-104850208D01*
X139659708Y-104850213D01*
X139548213Y-104961708D01*
X139548208Y-104961715D01*
X139460606Y-105092820D01*
X139400265Y-105238497D01*
X139400263Y-105238502D01*
X139369500Y-105393155D01*
X135374500Y-105393155D01*
X135374500Y-102091155D01*
X139369500Y-102091155D01*
X139369500Y-102091158D01*
X139369500Y-102104108D01*
X139369500Y-103504108D01*
X139369500Y-103570000D01*
X139369500Y-103648842D01*
X139400263Y-103803497D01*
X139460606Y-103949179D01*
X139548211Y-104080289D01*
X139659711Y-104191789D01*
X139790821Y-104279394D01*
X139936503Y-104339737D01*
X140091158Y-104370500D01*
X140091159Y-104370500D01*
X141848841Y-104370500D01*
X141848842Y-104370500D01*
X142003497Y-104339737D01*
X142149179Y-104279394D01*
X142280289Y-104191789D01*
X142391789Y-104080289D01*
X142479394Y-103949179D01*
X142539737Y-103803497D01*
X142570500Y-103648842D01*
X142570500Y-103570000D01*
X142570500Y-103504108D01*
X142570500Y-102104108D01*
X142570500Y-102091158D01*
X142539737Y-101936503D01*
X142479394Y-101790821D01*
X142391789Y-101659711D01*
X142280289Y-101548211D01*
X142149179Y-101460606D01*
X142003497Y-101400263D01*
X141848844Y-101369500D01*
X141848842Y-101369500D01*
X141835892Y-101369500D01*
X140235892Y-101369500D01*
X140170000Y-101369500D01*
X140091158Y-101369500D01*
X140091155Y-101369500D01*
X139936502Y-101400263D01*
X139936497Y-101400265D01*
X139790820Y-101460606D01*
X139659715Y-101548208D01*
X139659708Y-101548213D01*
X139548213Y-101659708D01*
X139548208Y-101659715D01*
X139460606Y-101790820D01*
X139400265Y-101936497D01*
X139400263Y-101936502D01*
X139369500Y-102091155D01*
X135374500Y-102091155D01*
X135374500Y-99940500D01*
X135394502Y-99872379D01*
X135448158Y-99825886D01*
X135500500Y-99814500D01*
X189247500Y-99814500D01*
X189315621Y-99834502D01*
G37*
%TD.AperFunction*%
%TD*%
M02*
