%TF.GenerationSoftware,KiCad,Pcbnew,8.0.4+1*%
%TF.CreationDate,2024-10-17T22:23:51+00:00*%
%TF.ProjectId,TFLORA01,54464c4f-5241-4303-912e-6b696361645f,rev?*%
%TF.SameCoordinates,Original*%
%TF.FileFunction,Legend,Top*%
%TF.FilePolarity,Positive*%
%FSLAX46Y46*%
G04 Gerber Fmt 4.6, Leading zero omitted, Abs format (unit mm)*
G04 Created by KiCad (PCBNEW 8.0.4+1) date 2024-10-17 22:23:51*
%MOMM*%
%LPD*%
G01*
G04 APERTURE LIST*
%ADD10C,0.300000*%
G04 APERTURE END LIST*
D10*
X161445715Y-102999870D02*
X162302858Y-102999870D01*
X161874286Y-104499870D02*
X161874286Y-102999870D01*
X162802857Y-104499870D02*
X162802857Y-102999870D01*
X163445715Y-104499870D02*
X163445715Y-103714156D01*
X163445715Y-103714156D02*
X163374286Y-103571299D01*
X163374286Y-103571299D02*
X163231429Y-103499870D01*
X163231429Y-103499870D02*
X163017143Y-103499870D01*
X163017143Y-103499870D02*
X162874286Y-103571299D01*
X162874286Y-103571299D02*
X162802857Y-103642727D01*
X164802858Y-103499870D02*
X164802858Y-104499870D01*
X164160000Y-103499870D02*
X164160000Y-104285584D01*
X164160000Y-104285584D02*
X164231429Y-104428442D01*
X164231429Y-104428442D02*
X164374286Y-104499870D01*
X164374286Y-104499870D02*
X164588572Y-104499870D01*
X164588572Y-104499870D02*
X164731429Y-104428442D01*
X164731429Y-104428442D02*
X164802858Y-104357013D01*
X165517143Y-103499870D02*
X165517143Y-104499870D01*
X165517143Y-103642727D02*
X165588572Y-103571299D01*
X165588572Y-103571299D02*
X165731429Y-103499870D01*
X165731429Y-103499870D02*
X165945715Y-103499870D01*
X165945715Y-103499870D02*
X166088572Y-103571299D01*
X166088572Y-103571299D02*
X166160001Y-103714156D01*
X166160001Y-103714156D02*
X166160001Y-104499870D01*
X167517144Y-104499870D02*
X167517144Y-102999870D01*
X167517144Y-104428442D02*
X167374286Y-104499870D01*
X167374286Y-104499870D02*
X167088572Y-104499870D01*
X167088572Y-104499870D02*
X166945715Y-104428442D01*
X166945715Y-104428442D02*
X166874286Y-104357013D01*
X166874286Y-104357013D02*
X166802858Y-104214156D01*
X166802858Y-104214156D02*
X166802858Y-103785584D01*
X166802858Y-103785584D02*
X166874286Y-103642727D01*
X166874286Y-103642727D02*
X166945715Y-103571299D01*
X166945715Y-103571299D02*
X167088572Y-103499870D01*
X167088572Y-103499870D02*
X167374286Y-103499870D01*
X167374286Y-103499870D02*
X167517144Y-103571299D01*
X168802858Y-104428442D02*
X168660001Y-104499870D01*
X168660001Y-104499870D02*
X168374287Y-104499870D01*
X168374287Y-104499870D02*
X168231429Y-104428442D01*
X168231429Y-104428442D02*
X168160001Y-104285584D01*
X168160001Y-104285584D02*
X168160001Y-103714156D01*
X168160001Y-103714156D02*
X168231429Y-103571299D01*
X168231429Y-103571299D02*
X168374287Y-103499870D01*
X168374287Y-103499870D02*
X168660001Y-103499870D01*
X168660001Y-103499870D02*
X168802858Y-103571299D01*
X168802858Y-103571299D02*
X168874287Y-103714156D01*
X168874287Y-103714156D02*
X168874287Y-103857013D01*
X168874287Y-103857013D02*
X168160001Y-103999870D01*
X169517143Y-104499870D02*
X169517143Y-103499870D01*
X169517143Y-103785584D02*
X169588572Y-103642727D01*
X169588572Y-103642727D02*
X169660001Y-103571299D01*
X169660001Y-103571299D02*
X169802858Y-103499870D01*
X169802858Y-103499870D02*
X169945715Y-103499870D01*
X170945714Y-103714156D02*
X170445714Y-103714156D01*
X170445714Y-104499870D02*
X170445714Y-102999870D01*
X170445714Y-102999870D02*
X171160000Y-102999870D01*
X171945714Y-104499870D02*
X171802857Y-104428442D01*
X171802857Y-104428442D02*
X171731428Y-104285584D01*
X171731428Y-104285584D02*
X171731428Y-102999870D01*
X172374285Y-103499870D02*
X172731428Y-104499870D01*
X173088571Y-103499870D02*
X172731428Y-104499870D01*
X172731428Y-104499870D02*
X172588571Y-104857013D01*
X172588571Y-104857013D02*
X172517142Y-104928442D01*
X172517142Y-104928442D02*
X172374285Y-104999870D01*
X173659999Y-104357013D02*
X173731428Y-104428442D01*
X173731428Y-104428442D02*
X173659999Y-104499870D01*
X173659999Y-104499870D02*
X173588571Y-104428442D01*
X173588571Y-104428442D02*
X173659999Y-104357013D01*
X173659999Y-104357013D02*
X173659999Y-104499870D01*
X175017143Y-104428442D02*
X174874285Y-104499870D01*
X174874285Y-104499870D02*
X174588571Y-104499870D01*
X174588571Y-104499870D02*
X174445714Y-104428442D01*
X174445714Y-104428442D02*
X174374285Y-104357013D01*
X174374285Y-104357013D02*
X174302857Y-104214156D01*
X174302857Y-104214156D02*
X174302857Y-103785584D01*
X174302857Y-103785584D02*
X174374285Y-103642727D01*
X174374285Y-103642727D02*
X174445714Y-103571299D01*
X174445714Y-103571299D02*
X174588571Y-103499870D01*
X174588571Y-103499870D02*
X174874285Y-103499870D01*
X174874285Y-103499870D02*
X175017143Y-103571299D01*
X175517142Y-103499870D02*
X176302857Y-103499870D01*
X176302857Y-103499870D02*
X175517142Y-104499870D01*
X175517142Y-104499870D02*
X176302857Y-104499870D01*
X162874286Y-105414786D02*
X163731429Y-105414786D01*
X163302857Y-106914786D02*
X163302857Y-105414786D01*
X164731428Y-106129072D02*
X164231428Y-106129072D01*
X164231428Y-106914786D02*
X164231428Y-105414786D01*
X164231428Y-105414786D02*
X164945714Y-105414786D01*
X166231428Y-106914786D02*
X165517142Y-106914786D01*
X165517142Y-106914786D02*
X165517142Y-105414786D01*
X167017143Y-105414786D02*
X167302857Y-105414786D01*
X167302857Y-105414786D02*
X167445714Y-105486215D01*
X167445714Y-105486215D02*
X167588571Y-105629072D01*
X167588571Y-105629072D02*
X167660000Y-105914786D01*
X167660000Y-105914786D02*
X167660000Y-106414786D01*
X167660000Y-106414786D02*
X167588571Y-106700500D01*
X167588571Y-106700500D02*
X167445714Y-106843358D01*
X167445714Y-106843358D02*
X167302857Y-106914786D01*
X167302857Y-106914786D02*
X167017143Y-106914786D01*
X167017143Y-106914786D02*
X166874286Y-106843358D01*
X166874286Y-106843358D02*
X166731428Y-106700500D01*
X166731428Y-106700500D02*
X166660000Y-106414786D01*
X166660000Y-106414786D02*
X166660000Y-105914786D01*
X166660000Y-105914786D02*
X166731428Y-105629072D01*
X166731428Y-105629072D02*
X166874286Y-105486215D01*
X166874286Y-105486215D02*
X167017143Y-105414786D01*
X169160000Y-106914786D02*
X168660000Y-106200500D01*
X168302857Y-106914786D02*
X168302857Y-105414786D01*
X168302857Y-105414786D02*
X168874286Y-105414786D01*
X168874286Y-105414786D02*
X169017143Y-105486215D01*
X169017143Y-105486215D02*
X169088572Y-105557643D01*
X169088572Y-105557643D02*
X169160000Y-105700500D01*
X169160000Y-105700500D02*
X169160000Y-105914786D01*
X169160000Y-105914786D02*
X169088572Y-106057643D01*
X169088572Y-106057643D02*
X169017143Y-106129072D01*
X169017143Y-106129072D02*
X168874286Y-106200500D01*
X168874286Y-106200500D02*
X168302857Y-106200500D01*
X169731429Y-106486215D02*
X170445715Y-106486215D01*
X169588572Y-106914786D02*
X170088572Y-105414786D01*
X170088572Y-105414786D02*
X170588572Y-106914786D01*
X171374286Y-105414786D02*
X171517143Y-105414786D01*
X171517143Y-105414786D02*
X171660000Y-105486215D01*
X171660000Y-105486215D02*
X171731429Y-105557643D01*
X171731429Y-105557643D02*
X171802857Y-105700500D01*
X171802857Y-105700500D02*
X171874286Y-105986215D01*
X171874286Y-105986215D02*
X171874286Y-106343358D01*
X171874286Y-106343358D02*
X171802857Y-106629072D01*
X171802857Y-106629072D02*
X171731429Y-106771929D01*
X171731429Y-106771929D02*
X171660000Y-106843358D01*
X171660000Y-106843358D02*
X171517143Y-106914786D01*
X171517143Y-106914786D02*
X171374286Y-106914786D01*
X171374286Y-106914786D02*
X171231429Y-106843358D01*
X171231429Y-106843358D02*
X171160000Y-106771929D01*
X171160000Y-106771929D02*
X171088571Y-106629072D01*
X171088571Y-106629072D02*
X171017143Y-106343358D01*
X171017143Y-106343358D02*
X171017143Y-105986215D01*
X171017143Y-105986215D02*
X171088571Y-105700500D01*
X171088571Y-105700500D02*
X171160000Y-105557643D01*
X171160000Y-105557643D02*
X171231429Y-105486215D01*
X171231429Y-105486215D02*
X171374286Y-105414786D01*
X173302857Y-106914786D02*
X172445714Y-106914786D01*
X172874285Y-106914786D02*
X172874285Y-105414786D01*
X172874285Y-105414786D02*
X172731428Y-105629072D01*
X172731428Y-105629072D02*
X172588571Y-105771929D01*
X172588571Y-105771929D02*
X172445714Y-105843358D01*
X174445713Y-106129072D02*
X174659999Y-106200500D01*
X174659999Y-106200500D02*
X174731428Y-106271929D01*
X174731428Y-106271929D02*
X174802856Y-106414786D01*
X174802856Y-106414786D02*
X174802856Y-106629072D01*
X174802856Y-106629072D02*
X174731428Y-106771929D01*
X174731428Y-106771929D02*
X174659999Y-106843358D01*
X174659999Y-106843358D02*
X174517142Y-106914786D01*
X174517142Y-106914786D02*
X173945713Y-106914786D01*
X173945713Y-106914786D02*
X173945713Y-105414786D01*
X173945713Y-105414786D02*
X174445713Y-105414786D01*
X174445713Y-105414786D02*
X174588571Y-105486215D01*
X174588571Y-105486215D02*
X174659999Y-105557643D01*
X174659999Y-105557643D02*
X174731428Y-105700500D01*
X174731428Y-105700500D02*
X174731428Y-105843358D01*
X174731428Y-105843358D02*
X174659999Y-105986215D01*
X174659999Y-105986215D02*
X174588571Y-106057643D01*
X174588571Y-106057643D02*
X174445713Y-106129072D01*
X174445713Y-106129072D02*
X173945713Y-106129072D01*
X179034571Y-123614328D02*
X178534571Y-122900042D01*
X178177428Y-123614328D02*
X178177428Y-122114328D01*
X178177428Y-122114328D02*
X178748857Y-122114328D01*
X178748857Y-122114328D02*
X178891714Y-122185757D01*
X178891714Y-122185757D02*
X178963143Y-122257185D01*
X178963143Y-122257185D02*
X179034571Y-122400042D01*
X179034571Y-122400042D02*
X179034571Y-122614328D01*
X179034571Y-122614328D02*
X178963143Y-122757185D01*
X178963143Y-122757185D02*
X178891714Y-122828614D01*
X178891714Y-122828614D02*
X178748857Y-122900042D01*
X178748857Y-122900042D02*
X178177428Y-122900042D01*
X179534571Y-122114328D02*
X180534571Y-123614328D01*
X180534571Y-122114328D02*
X179534571Y-123614328D01*
X182177428Y-122042900D02*
X180891714Y-123971471D01*
X182463143Y-122114328D02*
X183320286Y-122114328D01*
X182891714Y-123614328D02*
X182891714Y-122114328D01*
X183677428Y-122114328D02*
X184677428Y-123614328D01*
X184677428Y-122114328D02*
X183677428Y-123614328D01*
X136373082Y-126829185D02*
X136444510Y-126757757D01*
X136444510Y-126757757D02*
X136587368Y-126686328D01*
X136587368Y-126686328D02*
X136944510Y-126686328D01*
X136944510Y-126686328D02*
X137087368Y-126757757D01*
X137087368Y-126757757D02*
X137158796Y-126829185D01*
X137158796Y-126829185D02*
X137230225Y-126972042D01*
X137230225Y-126972042D02*
X137230225Y-127114900D01*
X137230225Y-127114900D02*
X137158796Y-127329185D01*
X137158796Y-127329185D02*
X136301653Y-128186328D01*
X136301653Y-128186328D02*
X137230225Y-128186328D01*
X138158796Y-126686328D02*
X138301653Y-126686328D01*
X138301653Y-126686328D02*
X138444510Y-126757757D01*
X138444510Y-126757757D02*
X138515939Y-126829185D01*
X138515939Y-126829185D02*
X138587367Y-126972042D01*
X138587367Y-126972042D02*
X138658796Y-127257757D01*
X138658796Y-127257757D02*
X138658796Y-127614900D01*
X138658796Y-127614900D02*
X138587367Y-127900614D01*
X138587367Y-127900614D02*
X138515939Y-128043471D01*
X138515939Y-128043471D02*
X138444510Y-128114900D01*
X138444510Y-128114900D02*
X138301653Y-128186328D01*
X138301653Y-128186328D02*
X138158796Y-128186328D01*
X138158796Y-128186328D02*
X138015939Y-128114900D01*
X138015939Y-128114900D02*
X137944510Y-128043471D01*
X137944510Y-128043471D02*
X137873081Y-127900614D01*
X137873081Y-127900614D02*
X137801653Y-127614900D01*
X137801653Y-127614900D02*
X137801653Y-127257757D01*
X137801653Y-127257757D02*
X137873081Y-126972042D01*
X137873081Y-126972042D02*
X137944510Y-126829185D01*
X137944510Y-126829185D02*
X138015939Y-126757757D01*
X138015939Y-126757757D02*
X138158796Y-126686328D01*
X139230224Y-126829185D02*
X139301652Y-126757757D01*
X139301652Y-126757757D02*
X139444510Y-126686328D01*
X139444510Y-126686328D02*
X139801652Y-126686328D01*
X139801652Y-126686328D02*
X139944510Y-126757757D01*
X139944510Y-126757757D02*
X140015938Y-126829185D01*
X140015938Y-126829185D02*
X140087367Y-126972042D01*
X140087367Y-126972042D02*
X140087367Y-127114900D01*
X140087367Y-127114900D02*
X140015938Y-127329185D01*
X140015938Y-127329185D02*
X139158795Y-128186328D01*
X139158795Y-128186328D02*
X140087367Y-128186328D01*
X141373081Y-127186328D02*
X141373081Y-128186328D01*
X141015938Y-126614900D02*
X140658795Y-127686328D01*
X140658795Y-127686328D02*
X141587366Y-127686328D01*
X148609601Y-102049728D02*
X148609601Y-100549728D01*
X148609601Y-100549728D02*
X149181030Y-100549728D01*
X149181030Y-100549728D02*
X149323887Y-100621157D01*
X149323887Y-100621157D02*
X149395316Y-100692585D01*
X149395316Y-100692585D02*
X149466744Y-100835442D01*
X149466744Y-100835442D02*
X149466744Y-101049728D01*
X149466744Y-101049728D02*
X149395316Y-101192585D01*
X149395316Y-101192585D02*
X149323887Y-101264014D01*
X149323887Y-101264014D02*
X149181030Y-101335442D01*
X149181030Y-101335442D02*
X148609601Y-101335442D01*
X150109601Y-102049728D02*
X150109601Y-101049728D01*
X150109601Y-100549728D02*
X150038173Y-100621157D01*
X150038173Y-100621157D02*
X150109601Y-100692585D01*
X150109601Y-100692585D02*
X150181030Y-100621157D01*
X150181030Y-100621157D02*
X150109601Y-100549728D01*
X150109601Y-100549728D02*
X150109601Y-100692585D01*
X150681030Y-102049728D02*
X151466745Y-101049728D01*
X150681030Y-101049728D02*
X151466745Y-102049728D01*
X152038173Y-102049728D02*
X152038173Y-100549728D01*
X152681031Y-102049728D02*
X152681031Y-101264014D01*
X152681031Y-101264014D02*
X152609602Y-101121157D01*
X152609602Y-101121157D02*
X152466745Y-101049728D01*
X152466745Y-101049728D02*
X152252459Y-101049728D01*
X152252459Y-101049728D02*
X152109602Y-101121157D01*
X152109602Y-101121157D02*
X152038173Y-101192585D01*
X154038174Y-102049728D02*
X154038174Y-101264014D01*
X154038174Y-101264014D02*
X153966745Y-101121157D01*
X153966745Y-101121157D02*
X153823888Y-101049728D01*
X153823888Y-101049728D02*
X153538174Y-101049728D01*
X153538174Y-101049728D02*
X153395316Y-101121157D01*
X154038174Y-101978300D02*
X153895316Y-102049728D01*
X153895316Y-102049728D02*
X153538174Y-102049728D01*
X153538174Y-102049728D02*
X153395316Y-101978300D01*
X153395316Y-101978300D02*
X153323888Y-101835442D01*
X153323888Y-101835442D02*
X153323888Y-101692585D01*
X153323888Y-101692585D02*
X153395316Y-101549728D01*
X153395316Y-101549728D02*
X153538174Y-101478300D01*
X153538174Y-101478300D02*
X153895316Y-101478300D01*
X153895316Y-101478300D02*
X154038174Y-101406871D01*
X154609602Y-101049728D02*
X154895317Y-102049728D01*
X154895317Y-102049728D02*
X155181031Y-101335442D01*
X155181031Y-101335442D02*
X155466745Y-102049728D01*
X155466745Y-102049728D02*
X155752459Y-101049728D01*
X156323888Y-102049728D02*
X156323888Y-100549728D01*
X156466746Y-101478300D02*
X156895317Y-102049728D01*
X156895317Y-101049728D02*
X156323888Y-101621157D01*
X142765488Y-103649928D02*
X142765488Y-102149928D01*
X142765488Y-102149928D02*
X143336917Y-102149928D01*
X143336917Y-102149928D02*
X143479774Y-102221357D01*
X143479774Y-102221357D02*
X143551203Y-102292785D01*
X143551203Y-102292785D02*
X143622631Y-102435642D01*
X143622631Y-102435642D02*
X143622631Y-102649928D01*
X143622631Y-102649928D02*
X143551203Y-102792785D01*
X143551203Y-102792785D02*
X143479774Y-102864214D01*
X143479774Y-102864214D02*
X143336917Y-102935642D01*
X143336917Y-102935642D02*
X142765488Y-102935642D01*
X144122631Y-102149928D02*
X144479774Y-103649928D01*
X144479774Y-103649928D02*
X144765488Y-102578500D01*
X144765488Y-102578500D02*
X145051203Y-103649928D01*
X145051203Y-103649928D02*
X145408346Y-102149928D01*
X146836917Y-103649928D02*
X146336917Y-102935642D01*
X145979774Y-103649928D02*
X145979774Y-102149928D01*
X145979774Y-102149928D02*
X146551203Y-102149928D01*
X146551203Y-102149928D02*
X146694060Y-102221357D01*
X146694060Y-102221357D02*
X146765489Y-102292785D01*
X146765489Y-102292785D02*
X146836917Y-102435642D01*
X146836917Y-102435642D02*
X146836917Y-102649928D01*
X146836917Y-102649928D02*
X146765489Y-102792785D01*
X146765489Y-102792785D02*
X146694060Y-102864214D01*
X146694060Y-102864214D02*
X146551203Y-102935642D01*
X146551203Y-102935642D02*
X145979774Y-102935642D01*
X179540114Y-111628757D02*
X180254400Y-111628757D01*
X179397257Y-112057328D02*
X179897257Y-110557328D01*
X179897257Y-110557328D02*
X180397257Y-112057328D01*
X180897256Y-112057328D02*
X180897256Y-110557328D01*
X180897256Y-110557328D02*
X181754399Y-112057328D01*
X181754399Y-112057328D02*
X181754399Y-110557328D01*
X182254400Y-110557328D02*
X183111543Y-110557328D01*
X182682971Y-112057328D02*
X182682971Y-110557328D01*
X142798888Y-110203128D02*
X142798888Y-108703128D01*
X142798888Y-108703128D02*
X143156031Y-108703128D01*
X143156031Y-108703128D02*
X143370317Y-108774557D01*
X143370317Y-108774557D02*
X143513174Y-108917414D01*
X143513174Y-108917414D02*
X143584603Y-109060271D01*
X143584603Y-109060271D02*
X143656031Y-109345985D01*
X143656031Y-109345985D02*
X143656031Y-109560271D01*
X143656031Y-109560271D02*
X143584603Y-109845985D01*
X143584603Y-109845985D02*
X143513174Y-109988842D01*
X143513174Y-109988842D02*
X143370317Y-110131700D01*
X143370317Y-110131700D02*
X143156031Y-110203128D01*
X143156031Y-110203128D02*
X142798888Y-110203128D01*
X144298888Y-110203128D02*
X144298888Y-108703128D01*
X145298889Y-108703128D02*
X145584603Y-108703128D01*
X145584603Y-108703128D02*
X145727460Y-108774557D01*
X145727460Y-108774557D02*
X145870317Y-108917414D01*
X145870317Y-108917414D02*
X145941746Y-109203128D01*
X145941746Y-109203128D02*
X145941746Y-109703128D01*
X145941746Y-109703128D02*
X145870317Y-109988842D01*
X145870317Y-109988842D02*
X145727460Y-110131700D01*
X145727460Y-110131700D02*
X145584603Y-110203128D01*
X145584603Y-110203128D02*
X145298889Y-110203128D01*
X145298889Y-110203128D02*
X145156032Y-110131700D01*
X145156032Y-110131700D02*
X145013174Y-109988842D01*
X145013174Y-109988842D02*
X144941746Y-109703128D01*
X144941746Y-109703128D02*
X144941746Y-109203128D01*
X144941746Y-109203128D02*
X145013174Y-108917414D01*
X145013174Y-108917414D02*
X145156032Y-108774557D01*
X145156032Y-108774557D02*
X145298889Y-108703128D01*
X146441746Y-108703128D02*
X147370318Y-108703128D01*
X147370318Y-108703128D02*
X146870318Y-109274557D01*
X146870318Y-109274557D02*
X147084603Y-109274557D01*
X147084603Y-109274557D02*
X147227461Y-109345985D01*
X147227461Y-109345985D02*
X147298889Y-109417414D01*
X147298889Y-109417414D02*
X147370318Y-109560271D01*
X147370318Y-109560271D02*
X147370318Y-109917414D01*
X147370318Y-109917414D02*
X147298889Y-110060271D01*
X147298889Y-110060271D02*
X147227461Y-110131700D01*
X147227461Y-110131700D02*
X147084603Y-110203128D01*
X147084603Y-110203128D02*
X146656032Y-110203128D01*
X146656032Y-110203128D02*
X146513175Y-110131700D01*
X146513175Y-110131700D02*
X146441746Y-110060271D01*
X142773488Y-107002728D02*
X142773488Y-105502728D01*
X142773488Y-105502728D02*
X143130631Y-105502728D01*
X143130631Y-105502728D02*
X143344917Y-105574157D01*
X143344917Y-105574157D02*
X143487774Y-105717014D01*
X143487774Y-105717014D02*
X143559203Y-105859871D01*
X143559203Y-105859871D02*
X143630631Y-106145585D01*
X143630631Y-106145585D02*
X143630631Y-106359871D01*
X143630631Y-106359871D02*
X143559203Y-106645585D01*
X143559203Y-106645585D02*
X143487774Y-106788442D01*
X143487774Y-106788442D02*
X143344917Y-106931300D01*
X143344917Y-106931300D02*
X143130631Y-107002728D01*
X143130631Y-107002728D02*
X142773488Y-107002728D01*
X144273488Y-107002728D02*
X144273488Y-105502728D01*
X145273489Y-105502728D02*
X145559203Y-105502728D01*
X145559203Y-105502728D02*
X145702060Y-105574157D01*
X145702060Y-105574157D02*
X145844917Y-105717014D01*
X145844917Y-105717014D02*
X145916346Y-106002728D01*
X145916346Y-106002728D02*
X145916346Y-106502728D01*
X145916346Y-106502728D02*
X145844917Y-106788442D01*
X145844917Y-106788442D02*
X145702060Y-106931300D01*
X145702060Y-106931300D02*
X145559203Y-107002728D01*
X145559203Y-107002728D02*
X145273489Y-107002728D01*
X145273489Y-107002728D02*
X145130632Y-106931300D01*
X145130632Y-106931300D02*
X144987774Y-106788442D01*
X144987774Y-106788442D02*
X144916346Y-106502728D01*
X144916346Y-106502728D02*
X144916346Y-106002728D01*
X144916346Y-106002728D02*
X144987774Y-105717014D01*
X144987774Y-105717014D02*
X145130632Y-105574157D01*
X145130632Y-105574157D02*
X145273489Y-105502728D01*
X146487775Y-105645585D02*
X146559203Y-105574157D01*
X146559203Y-105574157D02*
X146702061Y-105502728D01*
X146702061Y-105502728D02*
X147059203Y-105502728D01*
X147059203Y-105502728D02*
X147202061Y-105574157D01*
X147202061Y-105574157D02*
X147273489Y-105645585D01*
X147273489Y-105645585D02*
X147344918Y-105788442D01*
X147344918Y-105788442D02*
X147344918Y-105931300D01*
X147344918Y-105931300D02*
X147273489Y-106145585D01*
X147273489Y-106145585D02*
X146416346Y-107002728D01*
X146416346Y-107002728D02*
X147344918Y-107002728D01*
X151207689Y-104797700D02*
X151421975Y-104869128D01*
X151421975Y-104869128D02*
X151779117Y-104869128D01*
X151779117Y-104869128D02*
X151921975Y-104797700D01*
X151921975Y-104797700D02*
X151993403Y-104726271D01*
X151993403Y-104726271D02*
X152064832Y-104583414D01*
X152064832Y-104583414D02*
X152064832Y-104440557D01*
X152064832Y-104440557D02*
X151993403Y-104297700D01*
X151993403Y-104297700D02*
X151921975Y-104226271D01*
X151921975Y-104226271D02*
X151779117Y-104154842D01*
X151779117Y-104154842D02*
X151493403Y-104083414D01*
X151493403Y-104083414D02*
X151350546Y-104011985D01*
X151350546Y-104011985D02*
X151279117Y-103940557D01*
X151279117Y-103940557D02*
X151207689Y-103797700D01*
X151207689Y-103797700D02*
X151207689Y-103654842D01*
X151207689Y-103654842D02*
X151279117Y-103511985D01*
X151279117Y-103511985D02*
X151350546Y-103440557D01*
X151350546Y-103440557D02*
X151493403Y-103369128D01*
X151493403Y-103369128D02*
X151850546Y-103369128D01*
X151850546Y-103369128D02*
X152064832Y-103440557D01*
X152707688Y-104869128D02*
X152707688Y-103369128D01*
X152707688Y-103369128D02*
X153279117Y-103369128D01*
X153279117Y-103369128D02*
X153421974Y-103440557D01*
X153421974Y-103440557D02*
X153493403Y-103511985D01*
X153493403Y-103511985D02*
X153564831Y-103654842D01*
X153564831Y-103654842D02*
X153564831Y-103869128D01*
X153564831Y-103869128D02*
X153493403Y-104011985D01*
X153493403Y-104011985D02*
X153421974Y-104083414D01*
X153421974Y-104083414D02*
X153279117Y-104154842D01*
X153279117Y-104154842D02*
X152707688Y-104154842D01*
X154207688Y-104869128D02*
X154207688Y-103369128D01*
M02*
