%TF.GenerationSoftware,KiCad,Pcbnew,8.0.4+1*%
%TF.CreationDate,2024-10-16T20:55:13+00:00*%
%TF.ProjectId,TFLORA01,54464c4f-5241-4303-912e-6b696361645f,rev?*%
%TF.SameCoordinates,Original*%
%TF.FileFunction,Profile,NP*%
%FSLAX46Y46*%
G04 Gerber Fmt 4.6, Leading zero omitted, Abs format (unit mm)*
G04 Created by KiCad (PCBNEW 8.0.4+1) date 2024-10-16 20:55:13*
%MOMM*%
%LPD*%
G01*
G04 APERTURE LIST*
%TA.AperFunction,Profile*%
%ADD10C,0.150000*%
%TD*%
%TA.AperFunction,Profile*%
%ADD11C,0.100000*%
%TD*%
%TA.AperFunction,Profile*%
%ADD12C,0.050000*%
%TD*%
G04 APERTURE END LIST*
D10*
X134874000Y-99314000D02*
X134874000Y-129286000D01*
X134874000Y-99314000D02*
X185166000Y-99314000D01*
X185166000Y-129286000D02*
X134874000Y-129286000D01*
X185166000Y-129286000D02*
X185166000Y-99314000D01*
D11*
%TO.C,J12*%
X177824800Y-111825000D02*
X177824800Y-116775000D01*
X177824800Y-116775000D02*
X184274800Y-116775000D01*
X184274800Y-111825000D02*
X177824800Y-111825000D01*
%TO.C,J2*%
X191794800Y-111418600D02*
X191794800Y-116368600D01*
X191794800Y-116368600D02*
X198244800Y-116368600D01*
X198244800Y-111418600D02*
X191794800Y-111418600D01*
D12*
%TO.C,D2*%
X207198144Y-101274200D02*
X207198144Y-102674200D01*
X207498144Y-102974200D02*
X209098144Y-102974200D01*
X209098144Y-100974200D02*
X207498144Y-100974200D01*
X209398144Y-102674200D02*
X209398144Y-101274200D01*
X207198144Y-101274200D02*
G75*
G02*
X207498144Y-100974200I300000J0D01*
G01*
X207498144Y-102974200D02*
G75*
G02*
X207198144Y-102674200I0J300000D01*
G01*
X209098144Y-100974200D02*
G75*
G02*
X209398144Y-101274200I0J-300000D01*
G01*
X209398144Y-102674200D02*
G75*
G02*
X209098144Y-102974200I-300000J0D01*
G01*
%TO.C,D3*%
X207198144Y-104824200D02*
X207198144Y-106224200D01*
X207498144Y-106524200D02*
X209098144Y-106524200D01*
X209098144Y-104524200D02*
X207498144Y-104524200D01*
X209398144Y-106224200D02*
X209398144Y-104824200D01*
X207198144Y-104824200D02*
G75*
G02*
X207498144Y-104524200I300000J0D01*
G01*
X207498144Y-106524200D02*
G75*
G02*
X207198144Y-106224200I0J300000D01*
G01*
X209098144Y-104524200D02*
G75*
G02*
X209398144Y-104824200I0J-300000D01*
G01*
X209398144Y-106224200D02*
G75*
G02*
X209098144Y-106524200I-300000J0D01*
G01*
%TO.C,D4*%
X123106000Y-128636800D02*
X123106000Y-130036800D01*
X123406000Y-130336800D02*
X125006000Y-130336800D01*
X125006000Y-128336800D02*
X123406000Y-128336800D01*
X125306000Y-130036800D02*
X125306000Y-128636800D01*
X123106000Y-128636800D02*
G75*
G02*
X123406000Y-128336800I300000J0D01*
G01*
X123406000Y-130336800D02*
G75*
G02*
X123106000Y-130036800I0J300000D01*
G01*
X125006000Y-128336800D02*
G75*
G02*
X125306000Y-128636800I0J-300000D01*
G01*
X125306000Y-130036800D02*
G75*
G02*
X125006000Y-130336800I-300000J0D01*
G01*
%TD*%
M02*
