%TF.GenerationSoftware,KiCad,Pcbnew,8.0.4+1*%
%TF.CreationDate,2024-10-17T10:46:18+00:00*%
%TF.ProjectId,TFLORA01,54464c4f-5241-4303-912e-6b696361645f,rev?*%
%TF.SameCoordinates,Original*%
%TF.FileFunction,Legend,Bot*%
%TF.FilePolarity,Positive*%
%FSLAX46Y46*%
G04 Gerber Fmt 4.6, Leading zero omitted, Abs format (unit mm)*
G04 Created by KiCad (PCBNEW 8.0.4+1) date 2024-10-17 10:46:18*
%MOMM*%
%LPD*%
G01*
G04 APERTURE LIST*
%ADD10C,0.150000*%
%ADD11C,0.120000*%
G04 APERTURE END LIST*
D10*
X176393980Y-114330542D02*
X176441600Y-114282923D01*
X176441600Y-114282923D02*
X176489219Y-114140066D01*
X176489219Y-114140066D02*
X176489219Y-114044828D01*
X176489219Y-114044828D02*
X176441600Y-113901971D01*
X176441600Y-113901971D02*
X176346361Y-113806733D01*
X176346361Y-113806733D02*
X176251123Y-113759114D01*
X176251123Y-113759114D02*
X176060647Y-113711495D01*
X176060647Y-113711495D02*
X175917790Y-113711495D01*
X175917790Y-113711495D02*
X175727314Y-113759114D01*
X175727314Y-113759114D02*
X175632076Y-113806733D01*
X175632076Y-113806733D02*
X175536838Y-113901971D01*
X175536838Y-113901971D02*
X175489219Y-114044828D01*
X175489219Y-114044828D02*
X175489219Y-114140066D01*
X175489219Y-114140066D02*
X175536838Y-114282923D01*
X175536838Y-114282923D02*
X175584457Y-114330542D01*
X176489219Y-115282923D02*
X176489219Y-114711495D01*
X176489219Y-114997209D02*
X175489219Y-114997209D01*
X175489219Y-114997209D02*
X175632076Y-114901971D01*
X175632076Y-114901971D02*
X175727314Y-114806733D01*
X175727314Y-114806733D02*
X175774933Y-114711495D01*
X175489219Y-115616257D02*
X175489219Y-116282923D01*
X175489219Y-116282923D02*
X176489219Y-115854352D01*
X172702457Y-113948380D02*
X172750076Y-113996000D01*
X172750076Y-113996000D02*
X172892933Y-114043619D01*
X172892933Y-114043619D02*
X172988171Y-114043619D01*
X172988171Y-114043619D02*
X173131028Y-113996000D01*
X173131028Y-113996000D02*
X173226266Y-113900761D01*
X173226266Y-113900761D02*
X173273885Y-113805523D01*
X173273885Y-113805523D02*
X173321504Y-113615047D01*
X173321504Y-113615047D02*
X173321504Y-113472190D01*
X173321504Y-113472190D02*
X173273885Y-113281714D01*
X173273885Y-113281714D02*
X173226266Y-113186476D01*
X173226266Y-113186476D02*
X173131028Y-113091238D01*
X173131028Y-113091238D02*
X172988171Y-113043619D01*
X172988171Y-113043619D02*
X172892933Y-113043619D01*
X172892933Y-113043619D02*
X172750076Y-113091238D01*
X172750076Y-113091238D02*
X172702457Y-113138857D01*
X172321504Y-113138857D02*
X172273885Y-113091238D01*
X172273885Y-113091238D02*
X172178647Y-113043619D01*
X172178647Y-113043619D02*
X171940552Y-113043619D01*
X171940552Y-113043619D02*
X171845314Y-113091238D01*
X171845314Y-113091238D02*
X171797695Y-113138857D01*
X171797695Y-113138857D02*
X171750076Y-113234095D01*
X171750076Y-113234095D02*
X171750076Y-113329333D01*
X171750076Y-113329333D02*
X171797695Y-113472190D01*
X171797695Y-113472190D02*
X172369123Y-114043619D01*
X172369123Y-114043619D02*
X171750076Y-114043619D01*
X171369123Y-113138857D02*
X171321504Y-113091238D01*
X171321504Y-113091238D02*
X171226266Y-113043619D01*
X171226266Y-113043619D02*
X170988171Y-113043619D01*
X170988171Y-113043619D02*
X170892933Y-113091238D01*
X170892933Y-113091238D02*
X170845314Y-113138857D01*
X170845314Y-113138857D02*
X170797695Y-113234095D01*
X170797695Y-113234095D02*
X170797695Y-113329333D01*
X170797695Y-113329333D02*
X170845314Y-113472190D01*
X170845314Y-113472190D02*
X171416742Y-114043619D01*
X171416742Y-114043619D02*
X170797695Y-114043619D01*
X162444580Y-115460542D02*
X162492200Y-115412923D01*
X162492200Y-115412923D02*
X162539819Y-115270066D01*
X162539819Y-115270066D02*
X162539819Y-115174828D01*
X162539819Y-115174828D02*
X162492200Y-115031971D01*
X162492200Y-115031971D02*
X162396961Y-114936733D01*
X162396961Y-114936733D02*
X162301723Y-114889114D01*
X162301723Y-114889114D02*
X162111247Y-114841495D01*
X162111247Y-114841495D02*
X161968390Y-114841495D01*
X161968390Y-114841495D02*
X161777914Y-114889114D01*
X161777914Y-114889114D02*
X161682676Y-114936733D01*
X161682676Y-114936733D02*
X161587438Y-115031971D01*
X161587438Y-115031971D02*
X161539819Y-115174828D01*
X161539819Y-115174828D02*
X161539819Y-115270066D01*
X161539819Y-115270066D02*
X161587438Y-115412923D01*
X161587438Y-115412923D02*
X161635057Y-115460542D01*
X161635057Y-115841495D02*
X161587438Y-115889114D01*
X161587438Y-115889114D02*
X161539819Y-115984352D01*
X161539819Y-115984352D02*
X161539819Y-116222447D01*
X161539819Y-116222447D02*
X161587438Y-116317685D01*
X161587438Y-116317685D02*
X161635057Y-116365304D01*
X161635057Y-116365304D02*
X161730295Y-116412923D01*
X161730295Y-116412923D02*
X161825533Y-116412923D01*
X161825533Y-116412923D02*
X161968390Y-116365304D01*
X161968390Y-116365304D02*
X162539819Y-115793876D01*
X162539819Y-115793876D02*
X162539819Y-116412923D01*
X161539819Y-117031971D02*
X161539819Y-117127209D01*
X161539819Y-117127209D02*
X161587438Y-117222447D01*
X161587438Y-117222447D02*
X161635057Y-117270066D01*
X161635057Y-117270066D02*
X161730295Y-117317685D01*
X161730295Y-117317685D02*
X161920771Y-117365304D01*
X161920771Y-117365304D02*
X162158866Y-117365304D01*
X162158866Y-117365304D02*
X162349342Y-117317685D01*
X162349342Y-117317685D02*
X162444580Y-117270066D01*
X162444580Y-117270066D02*
X162492200Y-117222447D01*
X162492200Y-117222447D02*
X162539819Y-117127209D01*
X162539819Y-117127209D02*
X162539819Y-117031971D01*
X162539819Y-117031971D02*
X162492200Y-116936733D01*
X162492200Y-116936733D02*
X162444580Y-116889114D01*
X162444580Y-116889114D02*
X162349342Y-116841495D01*
X162349342Y-116841495D02*
X162158866Y-116793876D01*
X162158866Y-116793876D02*
X161920771Y-116793876D01*
X161920771Y-116793876D02*
X161730295Y-116841495D01*
X161730295Y-116841495D02*
X161635057Y-116889114D01*
X161635057Y-116889114D02*
X161587438Y-116936733D01*
X161587438Y-116936733D02*
X161539819Y-117031971D01*
X181985857Y-117517380D02*
X182033476Y-117565000D01*
X182033476Y-117565000D02*
X182176333Y-117612619D01*
X182176333Y-117612619D02*
X182271571Y-117612619D01*
X182271571Y-117612619D02*
X182414428Y-117565000D01*
X182414428Y-117565000D02*
X182509666Y-117469761D01*
X182509666Y-117469761D02*
X182557285Y-117374523D01*
X182557285Y-117374523D02*
X182604904Y-117184047D01*
X182604904Y-117184047D02*
X182604904Y-117041190D01*
X182604904Y-117041190D02*
X182557285Y-116850714D01*
X182557285Y-116850714D02*
X182509666Y-116755476D01*
X182509666Y-116755476D02*
X182414428Y-116660238D01*
X182414428Y-116660238D02*
X182271571Y-116612619D01*
X182271571Y-116612619D02*
X182176333Y-116612619D01*
X182176333Y-116612619D02*
X182033476Y-116660238D01*
X182033476Y-116660238D02*
X181985857Y-116707857D01*
X181033476Y-117612619D02*
X181604904Y-117612619D01*
X181319190Y-117612619D02*
X181319190Y-116612619D01*
X181319190Y-116612619D02*
X181414428Y-116755476D01*
X181414428Y-116755476D02*
X181509666Y-116850714D01*
X181509666Y-116850714D02*
X181604904Y-116898333D01*
X180462047Y-117041190D02*
X180557285Y-116993571D01*
X180557285Y-116993571D02*
X180604904Y-116945952D01*
X180604904Y-116945952D02*
X180652523Y-116850714D01*
X180652523Y-116850714D02*
X180652523Y-116803095D01*
X180652523Y-116803095D02*
X180604904Y-116707857D01*
X180604904Y-116707857D02*
X180557285Y-116660238D01*
X180557285Y-116660238D02*
X180462047Y-116612619D01*
X180462047Y-116612619D02*
X180271571Y-116612619D01*
X180271571Y-116612619D02*
X180176333Y-116660238D01*
X180176333Y-116660238D02*
X180128714Y-116707857D01*
X180128714Y-116707857D02*
X180081095Y-116803095D01*
X180081095Y-116803095D02*
X180081095Y-116850714D01*
X180081095Y-116850714D02*
X180128714Y-116945952D01*
X180128714Y-116945952D02*
X180176333Y-116993571D01*
X180176333Y-116993571D02*
X180271571Y-117041190D01*
X180271571Y-117041190D02*
X180462047Y-117041190D01*
X180462047Y-117041190D02*
X180557285Y-117088809D01*
X180557285Y-117088809D02*
X180604904Y-117136428D01*
X180604904Y-117136428D02*
X180652523Y-117231666D01*
X180652523Y-117231666D02*
X180652523Y-117422142D01*
X180652523Y-117422142D02*
X180604904Y-117517380D01*
X180604904Y-117517380D02*
X180557285Y-117565000D01*
X180557285Y-117565000D02*
X180462047Y-117612619D01*
X180462047Y-117612619D02*
X180271571Y-117612619D01*
X180271571Y-117612619D02*
X180176333Y-117565000D01*
X180176333Y-117565000D02*
X180128714Y-117517380D01*
X180128714Y-117517380D02*
X180081095Y-117422142D01*
X180081095Y-117422142D02*
X180081095Y-117231666D01*
X180081095Y-117231666D02*
X180128714Y-117136428D01*
X180128714Y-117136428D02*
X180176333Y-117088809D01*
X180176333Y-117088809D02*
X180271571Y-117041190D01*
X146847580Y-119103142D02*
X146895200Y-119055523D01*
X146895200Y-119055523D02*
X146942819Y-118912666D01*
X146942819Y-118912666D02*
X146942819Y-118817428D01*
X146942819Y-118817428D02*
X146895200Y-118674571D01*
X146895200Y-118674571D02*
X146799961Y-118579333D01*
X146799961Y-118579333D02*
X146704723Y-118531714D01*
X146704723Y-118531714D02*
X146514247Y-118484095D01*
X146514247Y-118484095D02*
X146371390Y-118484095D01*
X146371390Y-118484095D02*
X146180914Y-118531714D01*
X146180914Y-118531714D02*
X146085676Y-118579333D01*
X146085676Y-118579333D02*
X145990438Y-118674571D01*
X145990438Y-118674571D02*
X145942819Y-118817428D01*
X145942819Y-118817428D02*
X145942819Y-118912666D01*
X145942819Y-118912666D02*
X145990438Y-119055523D01*
X145990438Y-119055523D02*
X146038057Y-119103142D01*
X146038057Y-119484095D02*
X145990438Y-119531714D01*
X145990438Y-119531714D02*
X145942819Y-119626952D01*
X145942819Y-119626952D02*
X145942819Y-119865047D01*
X145942819Y-119865047D02*
X145990438Y-119960285D01*
X145990438Y-119960285D02*
X146038057Y-120007904D01*
X146038057Y-120007904D02*
X146133295Y-120055523D01*
X146133295Y-120055523D02*
X146228533Y-120055523D01*
X146228533Y-120055523D02*
X146371390Y-120007904D01*
X146371390Y-120007904D02*
X146942819Y-119436476D01*
X146942819Y-119436476D02*
X146942819Y-120055523D01*
X145942819Y-120388857D02*
X145942819Y-121007904D01*
X145942819Y-121007904D02*
X146323771Y-120674571D01*
X146323771Y-120674571D02*
X146323771Y-120817428D01*
X146323771Y-120817428D02*
X146371390Y-120912666D01*
X146371390Y-120912666D02*
X146419009Y-120960285D01*
X146419009Y-120960285D02*
X146514247Y-121007904D01*
X146514247Y-121007904D02*
X146752342Y-121007904D01*
X146752342Y-121007904D02*
X146847580Y-120960285D01*
X146847580Y-120960285D02*
X146895200Y-120912666D01*
X146895200Y-120912666D02*
X146942819Y-120817428D01*
X146942819Y-120817428D02*
X146942819Y-120531714D01*
X146942819Y-120531714D02*
X146895200Y-120436476D01*
X146895200Y-120436476D02*
X146847580Y-120388857D01*
X145247580Y-115879333D02*
X145295200Y-115831714D01*
X145295200Y-115831714D02*
X145342819Y-115688857D01*
X145342819Y-115688857D02*
X145342819Y-115593619D01*
X145342819Y-115593619D02*
X145295200Y-115450762D01*
X145295200Y-115450762D02*
X145199961Y-115355524D01*
X145199961Y-115355524D02*
X145104723Y-115307905D01*
X145104723Y-115307905D02*
X144914247Y-115260286D01*
X144914247Y-115260286D02*
X144771390Y-115260286D01*
X144771390Y-115260286D02*
X144580914Y-115307905D01*
X144580914Y-115307905D02*
X144485676Y-115355524D01*
X144485676Y-115355524D02*
X144390438Y-115450762D01*
X144390438Y-115450762D02*
X144342819Y-115593619D01*
X144342819Y-115593619D02*
X144342819Y-115688857D01*
X144342819Y-115688857D02*
X144390438Y-115831714D01*
X144390438Y-115831714D02*
X144438057Y-115879333D01*
X144342819Y-116784095D02*
X144342819Y-116307905D01*
X144342819Y-116307905D02*
X144819009Y-116260286D01*
X144819009Y-116260286D02*
X144771390Y-116307905D01*
X144771390Y-116307905D02*
X144723771Y-116403143D01*
X144723771Y-116403143D02*
X144723771Y-116641238D01*
X144723771Y-116641238D02*
X144771390Y-116736476D01*
X144771390Y-116736476D02*
X144819009Y-116784095D01*
X144819009Y-116784095D02*
X144914247Y-116831714D01*
X144914247Y-116831714D02*
X145152342Y-116831714D01*
X145152342Y-116831714D02*
X145247580Y-116784095D01*
X145247580Y-116784095D02*
X145295200Y-116736476D01*
X145295200Y-116736476D02*
X145342819Y-116641238D01*
X145342819Y-116641238D02*
X145342819Y-116403143D01*
X145342819Y-116403143D02*
X145295200Y-116307905D01*
X145295200Y-116307905D02*
X145247580Y-116260286D01*
X151071993Y-122984856D02*
X151139337Y-122984856D01*
X151139337Y-122984856D02*
X151274024Y-122917512D01*
X151274024Y-122917512D02*
X151341367Y-122850169D01*
X151341367Y-122850169D02*
X151408711Y-122715482D01*
X151408711Y-122715482D02*
X151408711Y-122580795D01*
X151408711Y-122580795D02*
X151375039Y-122479780D01*
X151375039Y-122479780D02*
X151274024Y-122311421D01*
X151274024Y-122311421D02*
X151173009Y-122210406D01*
X151173009Y-122210406D02*
X151004650Y-122109390D01*
X151004650Y-122109390D02*
X150903635Y-122075719D01*
X150903635Y-122075719D02*
X150768948Y-122075719D01*
X150768948Y-122075719D02*
X150634261Y-122143062D01*
X150634261Y-122143062D02*
X150566917Y-122210406D01*
X150566917Y-122210406D02*
X150499574Y-122345093D01*
X150499574Y-122345093D02*
X150499574Y-122412436D01*
X150465902Y-123725634D02*
X150869963Y-123321573D01*
X150667932Y-123523604D02*
X149960826Y-122816497D01*
X149960826Y-122816497D02*
X150129184Y-122850169D01*
X150129184Y-122850169D02*
X150263871Y-122850169D01*
X150263871Y-122850169D02*
X150364887Y-122816497D01*
X149792467Y-124399070D02*
X150196528Y-123995009D01*
X149994497Y-124197039D02*
X149287390Y-123489932D01*
X149287390Y-123489932D02*
X149455749Y-123523604D01*
X149455749Y-123523604D02*
X149590436Y-123523604D01*
X149590436Y-123523604D02*
X149691451Y-123489932D01*
X158986457Y-115794980D02*
X159034076Y-115842600D01*
X159034076Y-115842600D02*
X159176933Y-115890219D01*
X159176933Y-115890219D02*
X159272171Y-115890219D01*
X159272171Y-115890219D02*
X159415028Y-115842600D01*
X159415028Y-115842600D02*
X159510266Y-115747361D01*
X159510266Y-115747361D02*
X159557885Y-115652123D01*
X159557885Y-115652123D02*
X159605504Y-115461647D01*
X159605504Y-115461647D02*
X159605504Y-115318790D01*
X159605504Y-115318790D02*
X159557885Y-115128314D01*
X159557885Y-115128314D02*
X159510266Y-115033076D01*
X159510266Y-115033076D02*
X159415028Y-114937838D01*
X159415028Y-114937838D02*
X159272171Y-114890219D01*
X159272171Y-114890219D02*
X159176933Y-114890219D01*
X159176933Y-114890219D02*
X159034076Y-114937838D01*
X159034076Y-114937838D02*
X158986457Y-114985457D01*
X158034076Y-115890219D02*
X158605504Y-115890219D01*
X158319790Y-115890219D02*
X158319790Y-114890219D01*
X158319790Y-114890219D02*
X158415028Y-115033076D01*
X158415028Y-115033076D02*
X158510266Y-115128314D01*
X158510266Y-115128314D02*
X158605504Y-115175933D01*
X157557885Y-115890219D02*
X157367409Y-115890219D01*
X157367409Y-115890219D02*
X157272171Y-115842600D01*
X157272171Y-115842600D02*
X157224552Y-115794980D01*
X157224552Y-115794980D02*
X157129314Y-115652123D01*
X157129314Y-115652123D02*
X157081695Y-115461647D01*
X157081695Y-115461647D02*
X157081695Y-115080695D01*
X157081695Y-115080695D02*
X157129314Y-114985457D01*
X157129314Y-114985457D02*
X157176933Y-114937838D01*
X157176933Y-114937838D02*
X157272171Y-114890219D01*
X157272171Y-114890219D02*
X157462647Y-114890219D01*
X157462647Y-114890219D02*
X157557885Y-114937838D01*
X157557885Y-114937838D02*
X157605504Y-114985457D01*
X157605504Y-114985457D02*
X157653123Y-115080695D01*
X157653123Y-115080695D02*
X157653123Y-115318790D01*
X157653123Y-115318790D02*
X157605504Y-115414028D01*
X157605504Y-115414028D02*
X157557885Y-115461647D01*
X157557885Y-115461647D02*
X157462647Y-115509266D01*
X157462647Y-115509266D02*
X157272171Y-115509266D01*
X157272171Y-115509266D02*
X157176933Y-115461647D01*
X157176933Y-115461647D02*
X157129314Y-115414028D01*
X157129314Y-115414028D02*
X157081695Y-115318790D01*
X146847580Y-115879333D02*
X146895200Y-115831714D01*
X146895200Y-115831714D02*
X146942819Y-115688857D01*
X146942819Y-115688857D02*
X146942819Y-115593619D01*
X146942819Y-115593619D02*
X146895200Y-115450762D01*
X146895200Y-115450762D02*
X146799961Y-115355524D01*
X146799961Y-115355524D02*
X146704723Y-115307905D01*
X146704723Y-115307905D02*
X146514247Y-115260286D01*
X146514247Y-115260286D02*
X146371390Y-115260286D01*
X146371390Y-115260286D02*
X146180914Y-115307905D01*
X146180914Y-115307905D02*
X146085676Y-115355524D01*
X146085676Y-115355524D02*
X145990438Y-115450762D01*
X145990438Y-115450762D02*
X145942819Y-115593619D01*
X145942819Y-115593619D02*
X145942819Y-115688857D01*
X145942819Y-115688857D02*
X145990438Y-115831714D01*
X145990438Y-115831714D02*
X146038057Y-115879333D01*
X145942819Y-116736476D02*
X145942819Y-116546000D01*
X145942819Y-116546000D02*
X145990438Y-116450762D01*
X145990438Y-116450762D02*
X146038057Y-116403143D01*
X146038057Y-116403143D02*
X146180914Y-116307905D01*
X146180914Y-116307905D02*
X146371390Y-116260286D01*
X146371390Y-116260286D02*
X146752342Y-116260286D01*
X146752342Y-116260286D02*
X146847580Y-116307905D01*
X146847580Y-116307905D02*
X146895200Y-116355524D01*
X146895200Y-116355524D02*
X146942819Y-116450762D01*
X146942819Y-116450762D02*
X146942819Y-116641238D01*
X146942819Y-116641238D02*
X146895200Y-116736476D01*
X146895200Y-116736476D02*
X146847580Y-116784095D01*
X146847580Y-116784095D02*
X146752342Y-116831714D01*
X146752342Y-116831714D02*
X146514247Y-116831714D01*
X146514247Y-116831714D02*
X146419009Y-116784095D01*
X146419009Y-116784095D02*
X146371390Y-116736476D01*
X146371390Y-116736476D02*
X146323771Y-116641238D01*
X146323771Y-116641238D02*
X146323771Y-116450762D01*
X146323771Y-116450762D02*
X146371390Y-116355524D01*
X146371390Y-116355524D02*
X146419009Y-116307905D01*
X146419009Y-116307905D02*
X146514247Y-116260286D01*
X158986457Y-117156380D02*
X159034076Y-117204000D01*
X159034076Y-117204000D02*
X159176933Y-117251619D01*
X159176933Y-117251619D02*
X159272171Y-117251619D01*
X159272171Y-117251619D02*
X159415028Y-117204000D01*
X159415028Y-117204000D02*
X159510266Y-117108761D01*
X159510266Y-117108761D02*
X159557885Y-117013523D01*
X159557885Y-117013523D02*
X159605504Y-116823047D01*
X159605504Y-116823047D02*
X159605504Y-116680190D01*
X159605504Y-116680190D02*
X159557885Y-116489714D01*
X159557885Y-116489714D02*
X159510266Y-116394476D01*
X159510266Y-116394476D02*
X159415028Y-116299238D01*
X159415028Y-116299238D02*
X159272171Y-116251619D01*
X159272171Y-116251619D02*
X159176933Y-116251619D01*
X159176933Y-116251619D02*
X159034076Y-116299238D01*
X159034076Y-116299238D02*
X158986457Y-116346857D01*
X158605504Y-116346857D02*
X158557885Y-116299238D01*
X158557885Y-116299238D02*
X158462647Y-116251619D01*
X158462647Y-116251619D02*
X158224552Y-116251619D01*
X158224552Y-116251619D02*
X158129314Y-116299238D01*
X158129314Y-116299238D02*
X158081695Y-116346857D01*
X158081695Y-116346857D02*
X158034076Y-116442095D01*
X158034076Y-116442095D02*
X158034076Y-116537333D01*
X158034076Y-116537333D02*
X158081695Y-116680190D01*
X158081695Y-116680190D02*
X158653123Y-117251619D01*
X158653123Y-117251619D02*
X158034076Y-117251619D01*
X157081695Y-117251619D02*
X157653123Y-117251619D01*
X157367409Y-117251619D02*
X157367409Y-116251619D01*
X157367409Y-116251619D02*
X157462647Y-116394476D01*
X157462647Y-116394476D02*
X157557885Y-116489714D01*
X157557885Y-116489714D02*
X157653123Y-116537333D01*
X150619904Y-113800819D02*
X150619904Y-114610342D01*
X150619904Y-114610342D02*
X150572285Y-114705580D01*
X150572285Y-114705580D02*
X150524666Y-114753200D01*
X150524666Y-114753200D02*
X150429428Y-114800819D01*
X150429428Y-114800819D02*
X150238952Y-114800819D01*
X150238952Y-114800819D02*
X150143714Y-114753200D01*
X150143714Y-114753200D02*
X150096095Y-114705580D01*
X150096095Y-114705580D02*
X150048476Y-114610342D01*
X150048476Y-114610342D02*
X150048476Y-113800819D01*
X149667523Y-113800819D02*
X149048476Y-113800819D01*
X149048476Y-113800819D02*
X149381809Y-114181771D01*
X149381809Y-114181771D02*
X149238952Y-114181771D01*
X149238952Y-114181771D02*
X149143714Y-114229390D01*
X149143714Y-114229390D02*
X149096095Y-114277009D01*
X149096095Y-114277009D02*
X149048476Y-114372247D01*
X149048476Y-114372247D02*
X149048476Y-114610342D01*
X149048476Y-114610342D02*
X149096095Y-114705580D01*
X149096095Y-114705580D02*
X149143714Y-114753200D01*
X149143714Y-114753200D02*
X149238952Y-114800819D01*
X149238952Y-114800819D02*
X149524666Y-114800819D01*
X149524666Y-114800819D02*
X149619904Y-114753200D01*
X149619904Y-114753200D02*
X149667523Y-114705580D01*
X143194066Y-111732219D02*
X143527399Y-111256028D01*
X143765494Y-111732219D02*
X143765494Y-110732219D01*
X143765494Y-110732219D02*
X143384542Y-110732219D01*
X143384542Y-110732219D02*
X143289304Y-110779838D01*
X143289304Y-110779838D02*
X143241685Y-110827457D01*
X143241685Y-110827457D02*
X143194066Y-110922695D01*
X143194066Y-110922695D02*
X143194066Y-111065552D01*
X143194066Y-111065552D02*
X143241685Y-111160790D01*
X143241685Y-111160790D02*
X143289304Y-111208409D01*
X143289304Y-111208409D02*
X143384542Y-111256028D01*
X143384542Y-111256028D02*
X143765494Y-111256028D01*
X142860732Y-110732219D02*
X142194066Y-110732219D01*
X142194066Y-110732219D02*
X142622637Y-111732219D01*
X154994819Y-115979333D02*
X154994819Y-115503143D01*
X154994819Y-115503143D02*
X153994819Y-115503143D01*
X153994819Y-116741238D02*
X153994819Y-116550762D01*
X153994819Y-116550762D02*
X154042438Y-116455524D01*
X154042438Y-116455524D02*
X154090057Y-116407905D01*
X154090057Y-116407905D02*
X154232914Y-116312667D01*
X154232914Y-116312667D02*
X154423390Y-116265048D01*
X154423390Y-116265048D02*
X154804342Y-116265048D01*
X154804342Y-116265048D02*
X154899580Y-116312667D01*
X154899580Y-116312667D02*
X154947200Y-116360286D01*
X154947200Y-116360286D02*
X154994819Y-116455524D01*
X154994819Y-116455524D02*
X154994819Y-116646000D01*
X154994819Y-116646000D02*
X154947200Y-116741238D01*
X154947200Y-116741238D02*
X154899580Y-116788857D01*
X154899580Y-116788857D02*
X154804342Y-116836476D01*
X154804342Y-116836476D02*
X154566247Y-116836476D01*
X154566247Y-116836476D02*
X154471009Y-116788857D01*
X154471009Y-116788857D02*
X154423390Y-116741238D01*
X154423390Y-116741238D02*
X154375771Y-116646000D01*
X154375771Y-116646000D02*
X154375771Y-116455524D01*
X154375771Y-116455524D02*
X154423390Y-116360286D01*
X154423390Y-116360286D02*
X154471009Y-116312667D01*
X154471009Y-116312667D02*
X154566247Y-116265048D01*
X178461666Y-119187419D02*
X178937856Y-119187419D01*
X178937856Y-119187419D02*
X178937856Y-118187419D01*
X177652142Y-118187419D02*
X178128332Y-118187419D01*
X178128332Y-118187419D02*
X178175951Y-118663609D01*
X178175951Y-118663609D02*
X178128332Y-118615990D01*
X178128332Y-118615990D02*
X178033094Y-118568371D01*
X178033094Y-118568371D02*
X177794999Y-118568371D01*
X177794999Y-118568371D02*
X177699761Y-118615990D01*
X177699761Y-118615990D02*
X177652142Y-118663609D01*
X177652142Y-118663609D02*
X177604523Y-118758847D01*
X177604523Y-118758847D02*
X177604523Y-118996942D01*
X177604523Y-118996942D02*
X177652142Y-119092180D01*
X177652142Y-119092180D02*
X177699761Y-119139800D01*
X177699761Y-119139800D02*
X177794999Y-119187419D01*
X177794999Y-119187419D02*
X178033094Y-119187419D01*
X178033094Y-119187419D02*
X178128332Y-119139800D01*
X178128332Y-119139800D02*
X178175951Y-119092180D01*
X145162819Y-119213333D02*
X145162819Y-118737143D01*
X145162819Y-118737143D02*
X144162819Y-118737143D01*
X144162819Y-119451429D02*
X144162819Y-120118095D01*
X144162819Y-120118095D02*
X145162819Y-119689524D01*
X156969619Y-122439133D02*
X156969619Y-121962943D01*
X156969619Y-121962943D02*
X155969619Y-121962943D01*
X156969619Y-123296276D02*
X156969619Y-122724848D01*
X156969619Y-123010562D02*
X155969619Y-123010562D01*
X155969619Y-123010562D02*
X156112476Y-122915324D01*
X156112476Y-122915324D02*
X156207714Y-122820086D01*
X156207714Y-122820086D02*
X156255333Y-122724848D01*
X167730466Y-121290219D02*
X168206656Y-121290219D01*
X168206656Y-121290219D02*
X168206656Y-120290219D01*
X166968561Y-120623552D02*
X166968561Y-121290219D01*
X167206656Y-120242600D02*
X167444751Y-120956885D01*
X167444751Y-120956885D02*
X166825704Y-120956885D01*
X160364466Y-124229019D02*
X160840656Y-124229019D01*
X160840656Y-124229019D02*
X160840656Y-123229019D01*
X160126370Y-123229019D02*
X159507323Y-123229019D01*
X159507323Y-123229019D02*
X159840656Y-123609971D01*
X159840656Y-123609971D02*
X159697799Y-123609971D01*
X159697799Y-123609971D02*
X159602561Y-123657590D01*
X159602561Y-123657590D02*
X159554942Y-123705209D01*
X159554942Y-123705209D02*
X159507323Y-123800447D01*
X159507323Y-123800447D02*
X159507323Y-124038542D01*
X159507323Y-124038542D02*
X159554942Y-124133780D01*
X159554942Y-124133780D02*
X159602561Y-124181400D01*
X159602561Y-124181400D02*
X159697799Y-124229019D01*
X159697799Y-124229019D02*
X159983513Y-124229019D01*
X159983513Y-124229019D02*
X160078751Y-124181400D01*
X160078751Y-124181400D02*
X160126370Y-124133780D01*
X160866057Y-122736780D02*
X160913676Y-122784400D01*
X160913676Y-122784400D02*
X161056533Y-122832019D01*
X161056533Y-122832019D02*
X161151771Y-122832019D01*
X161151771Y-122832019D02*
X161294628Y-122784400D01*
X161294628Y-122784400D02*
X161389866Y-122689161D01*
X161389866Y-122689161D02*
X161437485Y-122593923D01*
X161437485Y-122593923D02*
X161485104Y-122403447D01*
X161485104Y-122403447D02*
X161485104Y-122260590D01*
X161485104Y-122260590D02*
X161437485Y-122070114D01*
X161437485Y-122070114D02*
X161389866Y-121974876D01*
X161389866Y-121974876D02*
X161294628Y-121879638D01*
X161294628Y-121879638D02*
X161151771Y-121832019D01*
X161151771Y-121832019D02*
X161056533Y-121832019D01*
X161056533Y-121832019D02*
X160913676Y-121879638D01*
X160913676Y-121879638D02*
X160866057Y-121927257D01*
X159913676Y-122832019D02*
X160485104Y-122832019D01*
X160199390Y-122832019D02*
X160199390Y-121832019D01*
X160199390Y-121832019D02*
X160294628Y-121974876D01*
X160294628Y-121974876D02*
X160389866Y-122070114D01*
X160389866Y-122070114D02*
X160485104Y-122117733D01*
X159294628Y-121832019D02*
X159199390Y-121832019D01*
X159199390Y-121832019D02*
X159104152Y-121879638D01*
X159104152Y-121879638D02*
X159056533Y-121927257D01*
X159056533Y-121927257D02*
X159008914Y-122022495D01*
X159008914Y-122022495D02*
X158961295Y-122212971D01*
X158961295Y-122212971D02*
X158961295Y-122451066D01*
X158961295Y-122451066D02*
X159008914Y-122641542D01*
X159008914Y-122641542D02*
X159056533Y-122736780D01*
X159056533Y-122736780D02*
X159104152Y-122784400D01*
X159104152Y-122784400D02*
X159199390Y-122832019D01*
X159199390Y-122832019D02*
X159294628Y-122832019D01*
X159294628Y-122832019D02*
X159389866Y-122784400D01*
X159389866Y-122784400D02*
X159437485Y-122736780D01*
X159437485Y-122736780D02*
X159485104Y-122641542D01*
X159485104Y-122641542D02*
X159532723Y-122451066D01*
X159532723Y-122451066D02*
X159532723Y-122212971D01*
X159532723Y-122212971D02*
X159485104Y-122022495D01*
X159485104Y-122022495D02*
X159437485Y-121927257D01*
X159437485Y-121927257D02*
X159389866Y-121879638D01*
X159389866Y-121879638D02*
X159294628Y-121832019D01*
X170158580Y-122470942D02*
X170206200Y-122423323D01*
X170206200Y-122423323D02*
X170253819Y-122280466D01*
X170253819Y-122280466D02*
X170253819Y-122185228D01*
X170253819Y-122185228D02*
X170206200Y-122042371D01*
X170206200Y-122042371D02*
X170110961Y-121947133D01*
X170110961Y-121947133D02*
X170015723Y-121899514D01*
X170015723Y-121899514D02*
X169825247Y-121851895D01*
X169825247Y-121851895D02*
X169682390Y-121851895D01*
X169682390Y-121851895D02*
X169491914Y-121899514D01*
X169491914Y-121899514D02*
X169396676Y-121947133D01*
X169396676Y-121947133D02*
X169301438Y-122042371D01*
X169301438Y-122042371D02*
X169253819Y-122185228D01*
X169253819Y-122185228D02*
X169253819Y-122280466D01*
X169253819Y-122280466D02*
X169301438Y-122423323D01*
X169301438Y-122423323D02*
X169349057Y-122470942D01*
X170253819Y-123423323D02*
X170253819Y-122851895D01*
X170253819Y-123137609D02*
X169253819Y-123137609D01*
X169253819Y-123137609D02*
X169396676Y-123042371D01*
X169396676Y-123042371D02*
X169491914Y-122947133D01*
X169491914Y-122947133D02*
X169539533Y-122851895D01*
X169253819Y-124328085D02*
X169253819Y-123851895D01*
X169253819Y-123851895D02*
X169730009Y-123804276D01*
X169730009Y-123804276D02*
X169682390Y-123851895D01*
X169682390Y-123851895D02*
X169634771Y-123947133D01*
X169634771Y-123947133D02*
X169634771Y-124185228D01*
X169634771Y-124185228D02*
X169682390Y-124280466D01*
X169682390Y-124280466D02*
X169730009Y-124328085D01*
X169730009Y-124328085D02*
X169825247Y-124375704D01*
X169825247Y-124375704D02*
X170063342Y-124375704D01*
X170063342Y-124375704D02*
X170158580Y-124328085D01*
X170158580Y-124328085D02*
X170206200Y-124280466D01*
X170206200Y-124280466D02*
X170253819Y-124185228D01*
X170253819Y-124185228D02*
X170253819Y-123947133D01*
X170253819Y-123947133D02*
X170206200Y-123851895D01*
X170206200Y-123851895D02*
X170158580Y-123804276D01*
X174539780Y-118775542D02*
X174587400Y-118727923D01*
X174587400Y-118727923D02*
X174635019Y-118585066D01*
X174635019Y-118585066D02*
X174635019Y-118489828D01*
X174635019Y-118489828D02*
X174587400Y-118346971D01*
X174587400Y-118346971D02*
X174492161Y-118251733D01*
X174492161Y-118251733D02*
X174396923Y-118204114D01*
X174396923Y-118204114D02*
X174206447Y-118156495D01*
X174206447Y-118156495D02*
X174063590Y-118156495D01*
X174063590Y-118156495D02*
X173873114Y-118204114D01*
X173873114Y-118204114D02*
X173777876Y-118251733D01*
X173777876Y-118251733D02*
X173682638Y-118346971D01*
X173682638Y-118346971D02*
X173635019Y-118489828D01*
X173635019Y-118489828D02*
X173635019Y-118585066D01*
X173635019Y-118585066D02*
X173682638Y-118727923D01*
X173682638Y-118727923D02*
X173730257Y-118775542D01*
X174635019Y-119727923D02*
X174635019Y-119156495D01*
X174635019Y-119442209D02*
X173635019Y-119442209D01*
X173635019Y-119442209D02*
X173777876Y-119346971D01*
X173777876Y-119346971D02*
X173873114Y-119251733D01*
X173873114Y-119251733D02*
X173920733Y-119156495D01*
X173635019Y-120585066D02*
X173635019Y-120394590D01*
X173635019Y-120394590D02*
X173682638Y-120299352D01*
X173682638Y-120299352D02*
X173730257Y-120251733D01*
X173730257Y-120251733D02*
X173873114Y-120156495D01*
X173873114Y-120156495D02*
X174063590Y-120108876D01*
X174063590Y-120108876D02*
X174444542Y-120108876D01*
X174444542Y-120108876D02*
X174539780Y-120156495D01*
X174539780Y-120156495D02*
X174587400Y-120204114D01*
X174587400Y-120204114D02*
X174635019Y-120299352D01*
X174635019Y-120299352D02*
X174635019Y-120489828D01*
X174635019Y-120489828D02*
X174587400Y-120585066D01*
X174587400Y-120585066D02*
X174539780Y-120632685D01*
X174539780Y-120632685D02*
X174444542Y-120680304D01*
X174444542Y-120680304D02*
X174206447Y-120680304D01*
X174206447Y-120680304D02*
X174111209Y-120632685D01*
X174111209Y-120632685D02*
X174063590Y-120585066D01*
X174063590Y-120585066D02*
X174015971Y-120489828D01*
X174015971Y-120489828D02*
X174015971Y-120299352D01*
X174015971Y-120299352D02*
X174063590Y-120204114D01*
X174063590Y-120204114D02*
X174111209Y-120156495D01*
X174111209Y-120156495D02*
X174206447Y-120108876D01*
X162817980Y-122496342D02*
X162865600Y-122448723D01*
X162865600Y-122448723D02*
X162913219Y-122305866D01*
X162913219Y-122305866D02*
X162913219Y-122210628D01*
X162913219Y-122210628D02*
X162865600Y-122067771D01*
X162865600Y-122067771D02*
X162770361Y-121972533D01*
X162770361Y-121972533D02*
X162675123Y-121924914D01*
X162675123Y-121924914D02*
X162484647Y-121877295D01*
X162484647Y-121877295D02*
X162341790Y-121877295D01*
X162341790Y-121877295D02*
X162151314Y-121924914D01*
X162151314Y-121924914D02*
X162056076Y-121972533D01*
X162056076Y-121972533D02*
X161960838Y-122067771D01*
X161960838Y-122067771D02*
X161913219Y-122210628D01*
X161913219Y-122210628D02*
X161913219Y-122305866D01*
X161913219Y-122305866D02*
X161960838Y-122448723D01*
X161960838Y-122448723D02*
X162008457Y-122496342D01*
X162913219Y-123448723D02*
X162913219Y-122877295D01*
X162913219Y-123163009D02*
X161913219Y-123163009D01*
X161913219Y-123163009D02*
X162056076Y-123067771D01*
X162056076Y-123067771D02*
X162151314Y-122972533D01*
X162151314Y-122972533D02*
X162198933Y-122877295D01*
X162246552Y-124305866D02*
X162913219Y-124305866D01*
X161865600Y-124067771D02*
X162579885Y-123829676D01*
X162579885Y-123829676D02*
X162579885Y-124448723D01*
X158322180Y-122445542D02*
X158369800Y-122397923D01*
X158369800Y-122397923D02*
X158417419Y-122255066D01*
X158417419Y-122255066D02*
X158417419Y-122159828D01*
X158417419Y-122159828D02*
X158369800Y-122016971D01*
X158369800Y-122016971D02*
X158274561Y-121921733D01*
X158274561Y-121921733D02*
X158179323Y-121874114D01*
X158179323Y-121874114D02*
X157988847Y-121826495D01*
X157988847Y-121826495D02*
X157845990Y-121826495D01*
X157845990Y-121826495D02*
X157655514Y-121874114D01*
X157655514Y-121874114D02*
X157560276Y-121921733D01*
X157560276Y-121921733D02*
X157465038Y-122016971D01*
X157465038Y-122016971D02*
X157417419Y-122159828D01*
X157417419Y-122159828D02*
X157417419Y-122255066D01*
X157417419Y-122255066D02*
X157465038Y-122397923D01*
X157465038Y-122397923D02*
X157512657Y-122445542D01*
X158417419Y-123397923D02*
X158417419Y-122826495D01*
X158417419Y-123112209D02*
X157417419Y-123112209D01*
X157417419Y-123112209D02*
X157560276Y-123016971D01*
X157560276Y-123016971D02*
X157655514Y-122921733D01*
X157655514Y-122921733D02*
X157703133Y-122826495D01*
X157417419Y-123731257D02*
X157417419Y-124350304D01*
X157417419Y-124350304D02*
X157798371Y-124016971D01*
X157798371Y-124016971D02*
X157798371Y-124159828D01*
X157798371Y-124159828D02*
X157845990Y-124255066D01*
X157845990Y-124255066D02*
X157893609Y-124302685D01*
X157893609Y-124302685D02*
X157988847Y-124350304D01*
X157988847Y-124350304D02*
X158226942Y-124350304D01*
X158226942Y-124350304D02*
X158322180Y-124302685D01*
X158322180Y-124302685D02*
X158369800Y-124255066D01*
X158369800Y-124255066D02*
X158417419Y-124159828D01*
X158417419Y-124159828D02*
X158417419Y-123874114D01*
X158417419Y-123874114D02*
X158369800Y-123778876D01*
X158369800Y-123778876D02*
X158322180Y-123731257D01*
X165260257Y-118334980D02*
X165307876Y-118382600D01*
X165307876Y-118382600D02*
X165450733Y-118430219D01*
X165450733Y-118430219D02*
X165545971Y-118430219D01*
X165545971Y-118430219D02*
X165688828Y-118382600D01*
X165688828Y-118382600D02*
X165784066Y-118287361D01*
X165784066Y-118287361D02*
X165831685Y-118192123D01*
X165831685Y-118192123D02*
X165879304Y-118001647D01*
X165879304Y-118001647D02*
X165879304Y-117858790D01*
X165879304Y-117858790D02*
X165831685Y-117668314D01*
X165831685Y-117668314D02*
X165784066Y-117573076D01*
X165784066Y-117573076D02*
X165688828Y-117477838D01*
X165688828Y-117477838D02*
X165545971Y-117430219D01*
X165545971Y-117430219D02*
X165450733Y-117430219D01*
X165450733Y-117430219D02*
X165307876Y-117477838D01*
X165307876Y-117477838D02*
X165260257Y-117525457D01*
X164307876Y-118430219D02*
X164879304Y-118430219D01*
X164593590Y-118430219D02*
X164593590Y-117430219D01*
X164593590Y-117430219D02*
X164688828Y-117573076D01*
X164688828Y-117573076D02*
X164784066Y-117668314D01*
X164784066Y-117668314D02*
X164879304Y-117715933D01*
X163926923Y-117525457D02*
X163879304Y-117477838D01*
X163879304Y-117477838D02*
X163784066Y-117430219D01*
X163784066Y-117430219D02*
X163545971Y-117430219D01*
X163545971Y-117430219D02*
X163450733Y-117477838D01*
X163450733Y-117477838D02*
X163403114Y-117525457D01*
X163403114Y-117525457D02*
X163355495Y-117620695D01*
X163355495Y-117620695D02*
X163355495Y-117715933D01*
X163355495Y-117715933D02*
X163403114Y-117858790D01*
X163403114Y-117858790D02*
X163974542Y-118430219D01*
X163974542Y-118430219D02*
X163355495Y-118430219D01*
X152345580Y-121372333D02*
X152393200Y-121324714D01*
X152393200Y-121324714D02*
X152440819Y-121181857D01*
X152440819Y-121181857D02*
X152440819Y-121086619D01*
X152440819Y-121086619D02*
X152393200Y-120943762D01*
X152393200Y-120943762D02*
X152297961Y-120848524D01*
X152297961Y-120848524D02*
X152202723Y-120800905D01*
X152202723Y-120800905D02*
X152012247Y-120753286D01*
X152012247Y-120753286D02*
X151869390Y-120753286D01*
X151869390Y-120753286D02*
X151678914Y-120800905D01*
X151678914Y-120800905D02*
X151583676Y-120848524D01*
X151583676Y-120848524D02*
X151488438Y-120943762D01*
X151488438Y-120943762D02*
X151440819Y-121086619D01*
X151440819Y-121086619D02*
X151440819Y-121181857D01*
X151440819Y-121181857D02*
X151488438Y-121324714D01*
X151488438Y-121324714D02*
X151536057Y-121372333D01*
X151869390Y-121943762D02*
X151821771Y-121848524D01*
X151821771Y-121848524D02*
X151774152Y-121800905D01*
X151774152Y-121800905D02*
X151678914Y-121753286D01*
X151678914Y-121753286D02*
X151631295Y-121753286D01*
X151631295Y-121753286D02*
X151536057Y-121800905D01*
X151536057Y-121800905D02*
X151488438Y-121848524D01*
X151488438Y-121848524D02*
X151440819Y-121943762D01*
X151440819Y-121943762D02*
X151440819Y-122134238D01*
X151440819Y-122134238D02*
X151488438Y-122229476D01*
X151488438Y-122229476D02*
X151536057Y-122277095D01*
X151536057Y-122277095D02*
X151631295Y-122324714D01*
X151631295Y-122324714D02*
X151678914Y-122324714D01*
X151678914Y-122324714D02*
X151774152Y-122277095D01*
X151774152Y-122277095D02*
X151821771Y-122229476D01*
X151821771Y-122229476D02*
X151869390Y-122134238D01*
X151869390Y-122134238D02*
X151869390Y-121943762D01*
X151869390Y-121943762D02*
X151917009Y-121848524D01*
X151917009Y-121848524D02*
X151964628Y-121800905D01*
X151964628Y-121800905D02*
X152059866Y-121753286D01*
X152059866Y-121753286D02*
X152250342Y-121753286D01*
X152250342Y-121753286D02*
X152345580Y-121800905D01*
X152345580Y-121800905D02*
X152393200Y-121848524D01*
X152393200Y-121848524D02*
X152440819Y-121943762D01*
X152440819Y-121943762D02*
X152440819Y-122134238D01*
X152440819Y-122134238D02*
X152393200Y-122229476D01*
X152393200Y-122229476D02*
X152345580Y-122277095D01*
X152345580Y-122277095D02*
X152250342Y-122324714D01*
X152250342Y-122324714D02*
X152059866Y-122324714D01*
X152059866Y-122324714D02*
X151964628Y-122277095D01*
X151964628Y-122277095D02*
X151917009Y-122229476D01*
X151917009Y-122229476D02*
X151869390Y-122134238D01*
X153869580Y-121372333D02*
X153917200Y-121324714D01*
X153917200Y-121324714D02*
X153964819Y-121181857D01*
X153964819Y-121181857D02*
X153964819Y-121086619D01*
X153964819Y-121086619D02*
X153917200Y-120943762D01*
X153917200Y-120943762D02*
X153821961Y-120848524D01*
X153821961Y-120848524D02*
X153726723Y-120800905D01*
X153726723Y-120800905D02*
X153536247Y-120753286D01*
X153536247Y-120753286D02*
X153393390Y-120753286D01*
X153393390Y-120753286D02*
X153202914Y-120800905D01*
X153202914Y-120800905D02*
X153107676Y-120848524D01*
X153107676Y-120848524D02*
X153012438Y-120943762D01*
X153012438Y-120943762D02*
X152964819Y-121086619D01*
X152964819Y-121086619D02*
X152964819Y-121181857D01*
X152964819Y-121181857D02*
X153012438Y-121324714D01*
X153012438Y-121324714D02*
X153060057Y-121372333D01*
X152964819Y-121705667D02*
X152964819Y-122372333D01*
X152964819Y-122372333D02*
X153964819Y-121943762D01*
X154395466Y-121137819D02*
X154871656Y-121137819D01*
X154871656Y-121137819D02*
X154871656Y-120137819D01*
X154109751Y-120233057D02*
X154062132Y-120185438D01*
X154062132Y-120185438D02*
X153966894Y-120137819D01*
X153966894Y-120137819D02*
X153728799Y-120137819D01*
X153728799Y-120137819D02*
X153633561Y-120185438D01*
X153633561Y-120185438D02*
X153585942Y-120233057D01*
X153585942Y-120233057D02*
X153538323Y-120328295D01*
X153538323Y-120328295D02*
X153538323Y-120423533D01*
X153538323Y-120423533D02*
X153585942Y-120566390D01*
X153585942Y-120566390D02*
X154157370Y-121137819D01*
X154157370Y-121137819D02*
X153538323Y-121137819D01*
X141532780Y-111745733D02*
X141580400Y-111698114D01*
X141580400Y-111698114D02*
X141628019Y-111555257D01*
X141628019Y-111555257D02*
X141628019Y-111460019D01*
X141628019Y-111460019D02*
X141580400Y-111317162D01*
X141580400Y-111317162D02*
X141485161Y-111221924D01*
X141485161Y-111221924D02*
X141389923Y-111174305D01*
X141389923Y-111174305D02*
X141199447Y-111126686D01*
X141199447Y-111126686D02*
X141056590Y-111126686D01*
X141056590Y-111126686D02*
X140866114Y-111174305D01*
X140866114Y-111174305D02*
X140770876Y-111221924D01*
X140770876Y-111221924D02*
X140675638Y-111317162D01*
X140675638Y-111317162D02*
X140628019Y-111460019D01*
X140628019Y-111460019D02*
X140628019Y-111555257D01*
X140628019Y-111555257D02*
X140675638Y-111698114D01*
X140675638Y-111698114D02*
X140723257Y-111745733D01*
X140961352Y-112602876D02*
X141628019Y-112602876D01*
X140580400Y-112364781D02*
X141294685Y-112126686D01*
X141294685Y-112126686D02*
X141294685Y-112745733D01*
X136741819Y-119862695D02*
X137551342Y-119862695D01*
X137551342Y-119862695D02*
X137646580Y-119910314D01*
X137646580Y-119910314D02*
X137694200Y-119957933D01*
X137694200Y-119957933D02*
X137741819Y-120053171D01*
X137741819Y-120053171D02*
X137741819Y-120243647D01*
X137741819Y-120243647D02*
X137694200Y-120338885D01*
X137694200Y-120338885D02*
X137646580Y-120386504D01*
X137646580Y-120386504D02*
X137551342Y-120434123D01*
X137551342Y-120434123D02*
X136741819Y-120434123D01*
X137741819Y-121434123D02*
X137741819Y-120862695D01*
X137741819Y-121148409D02*
X136741819Y-121148409D01*
X136741819Y-121148409D02*
X136884676Y-121053171D01*
X136884676Y-121053171D02*
X136979914Y-120957933D01*
X136979914Y-120957933D02*
X137027533Y-120862695D01*
X139790466Y-126318180D02*
X139838085Y-126365800D01*
X139838085Y-126365800D02*
X139980942Y-126413419D01*
X139980942Y-126413419D02*
X140076180Y-126413419D01*
X140076180Y-126413419D02*
X140219037Y-126365800D01*
X140219037Y-126365800D02*
X140314275Y-126270561D01*
X140314275Y-126270561D02*
X140361894Y-126175323D01*
X140361894Y-126175323D02*
X140409513Y-125984847D01*
X140409513Y-125984847D02*
X140409513Y-125841990D01*
X140409513Y-125841990D02*
X140361894Y-125651514D01*
X140361894Y-125651514D02*
X140314275Y-125556276D01*
X140314275Y-125556276D02*
X140219037Y-125461038D01*
X140219037Y-125461038D02*
X140076180Y-125413419D01*
X140076180Y-125413419D02*
X139980942Y-125413419D01*
X139980942Y-125413419D02*
X139838085Y-125461038D01*
X139838085Y-125461038D02*
X139790466Y-125508657D01*
X139409513Y-125508657D02*
X139361894Y-125461038D01*
X139361894Y-125461038D02*
X139266656Y-125413419D01*
X139266656Y-125413419D02*
X139028561Y-125413419D01*
X139028561Y-125413419D02*
X138933323Y-125461038D01*
X138933323Y-125461038D02*
X138885704Y-125508657D01*
X138885704Y-125508657D02*
X138838085Y-125603895D01*
X138838085Y-125603895D02*
X138838085Y-125699133D01*
X138838085Y-125699133D02*
X138885704Y-125841990D01*
X138885704Y-125841990D02*
X139457132Y-126413419D01*
X139457132Y-126413419D02*
X138838085Y-126413419D01*
X137148866Y-118113980D02*
X137196485Y-118161600D01*
X137196485Y-118161600D02*
X137339342Y-118209219D01*
X137339342Y-118209219D02*
X137434580Y-118209219D01*
X137434580Y-118209219D02*
X137577437Y-118161600D01*
X137577437Y-118161600D02*
X137672675Y-118066361D01*
X137672675Y-118066361D02*
X137720294Y-117971123D01*
X137720294Y-117971123D02*
X137767913Y-117780647D01*
X137767913Y-117780647D02*
X137767913Y-117637790D01*
X137767913Y-117637790D02*
X137720294Y-117447314D01*
X137720294Y-117447314D02*
X137672675Y-117352076D01*
X137672675Y-117352076D02*
X137577437Y-117256838D01*
X137577437Y-117256838D02*
X137434580Y-117209219D01*
X137434580Y-117209219D02*
X137339342Y-117209219D01*
X137339342Y-117209219D02*
X137196485Y-117256838D01*
X137196485Y-117256838D02*
X137148866Y-117304457D01*
X136196485Y-118209219D02*
X136767913Y-118209219D01*
X136482199Y-118209219D02*
X136482199Y-117209219D01*
X136482199Y-117209219D02*
X136577437Y-117352076D01*
X136577437Y-117352076D02*
X136672675Y-117447314D01*
X136672675Y-117447314D02*
X136767913Y-117494933D01*
X136554380Y-115200133D02*
X136602000Y-115152514D01*
X136602000Y-115152514D02*
X136649619Y-115009657D01*
X136649619Y-115009657D02*
X136649619Y-114914419D01*
X136649619Y-114914419D02*
X136602000Y-114771562D01*
X136602000Y-114771562D02*
X136506761Y-114676324D01*
X136506761Y-114676324D02*
X136411523Y-114628705D01*
X136411523Y-114628705D02*
X136221047Y-114581086D01*
X136221047Y-114581086D02*
X136078190Y-114581086D01*
X136078190Y-114581086D02*
X135887714Y-114628705D01*
X135887714Y-114628705D02*
X135792476Y-114676324D01*
X135792476Y-114676324D02*
X135697238Y-114771562D01*
X135697238Y-114771562D02*
X135649619Y-114914419D01*
X135649619Y-114914419D02*
X135649619Y-115009657D01*
X135649619Y-115009657D02*
X135697238Y-115152514D01*
X135697238Y-115152514D02*
X135744857Y-115200133D01*
X135649619Y-115533467D02*
X135649619Y-116152514D01*
X135649619Y-116152514D02*
X136030571Y-115819181D01*
X136030571Y-115819181D02*
X136030571Y-115962038D01*
X136030571Y-115962038D02*
X136078190Y-116057276D01*
X136078190Y-116057276D02*
X136125809Y-116104895D01*
X136125809Y-116104895D02*
X136221047Y-116152514D01*
X136221047Y-116152514D02*
X136459142Y-116152514D01*
X136459142Y-116152514D02*
X136554380Y-116104895D01*
X136554380Y-116104895D02*
X136602000Y-116057276D01*
X136602000Y-116057276D02*
X136649619Y-115962038D01*
X136649619Y-115962038D02*
X136649619Y-115676324D01*
X136649619Y-115676324D02*
X136602000Y-115581086D01*
X136602000Y-115581086D02*
X136554380Y-115533467D01*
X150821580Y-121150142D02*
X150869200Y-121102523D01*
X150869200Y-121102523D02*
X150916819Y-120959666D01*
X150916819Y-120959666D02*
X150916819Y-120864428D01*
X150916819Y-120864428D02*
X150869200Y-120721571D01*
X150869200Y-120721571D02*
X150773961Y-120626333D01*
X150773961Y-120626333D02*
X150678723Y-120578714D01*
X150678723Y-120578714D02*
X150488247Y-120531095D01*
X150488247Y-120531095D02*
X150345390Y-120531095D01*
X150345390Y-120531095D02*
X150154914Y-120578714D01*
X150154914Y-120578714D02*
X150059676Y-120626333D01*
X150059676Y-120626333D02*
X149964438Y-120721571D01*
X149964438Y-120721571D02*
X149916819Y-120864428D01*
X149916819Y-120864428D02*
X149916819Y-120959666D01*
X149916819Y-120959666D02*
X149964438Y-121102523D01*
X149964438Y-121102523D02*
X150012057Y-121150142D01*
X150012057Y-121531095D02*
X149964438Y-121578714D01*
X149964438Y-121578714D02*
X149916819Y-121673952D01*
X149916819Y-121673952D02*
X149916819Y-121912047D01*
X149916819Y-121912047D02*
X149964438Y-122007285D01*
X149964438Y-122007285D02*
X150012057Y-122054904D01*
X150012057Y-122054904D02*
X150107295Y-122102523D01*
X150107295Y-122102523D02*
X150202533Y-122102523D01*
X150202533Y-122102523D02*
X150345390Y-122054904D01*
X150345390Y-122054904D02*
X150916819Y-121483476D01*
X150916819Y-121483476D02*
X150916819Y-122102523D01*
X150250152Y-122959666D02*
X150916819Y-122959666D01*
X149869200Y-122721571D02*
X150583485Y-122483476D01*
X150583485Y-122483476D02*
X150583485Y-123102523D01*
X181817599Y-111243928D02*
X181817599Y-112315357D01*
X181817599Y-112315357D02*
X181889028Y-112529642D01*
X181889028Y-112529642D02*
X182031885Y-112672500D01*
X182031885Y-112672500D02*
X182246171Y-112743928D01*
X182246171Y-112743928D02*
X182389028Y-112743928D01*
X181174742Y-111386785D02*
X181103314Y-111315357D01*
X181103314Y-111315357D02*
X180960457Y-111243928D01*
X180960457Y-111243928D02*
X180603314Y-111243928D01*
X180603314Y-111243928D02*
X180460457Y-111315357D01*
X180460457Y-111315357D02*
X180389028Y-111386785D01*
X180389028Y-111386785D02*
X180317599Y-111529642D01*
X180317599Y-111529642D02*
X180317599Y-111672500D01*
X180317599Y-111672500D02*
X180389028Y-111886785D01*
X180389028Y-111886785D02*
X181246171Y-112743928D01*
X181246171Y-112743928D02*
X180317599Y-112743928D01*
X158493619Y-107300733D02*
X158017428Y-106967400D01*
X158493619Y-106729305D02*
X157493619Y-106729305D01*
X157493619Y-106729305D02*
X157493619Y-107110257D01*
X157493619Y-107110257D02*
X157541238Y-107205495D01*
X157541238Y-107205495D02*
X157588857Y-107253114D01*
X157588857Y-107253114D02*
X157684095Y-107300733D01*
X157684095Y-107300733D02*
X157826952Y-107300733D01*
X157826952Y-107300733D02*
X157922190Y-107253114D01*
X157922190Y-107253114D02*
X157969809Y-107205495D01*
X157969809Y-107205495D02*
X158017428Y-107110257D01*
X158017428Y-107110257D02*
X158017428Y-106729305D01*
X157493619Y-107634067D02*
X157493619Y-108253114D01*
X157493619Y-108253114D02*
X157874571Y-107919781D01*
X157874571Y-107919781D02*
X157874571Y-108062638D01*
X157874571Y-108062638D02*
X157922190Y-108157876D01*
X157922190Y-108157876D02*
X157969809Y-108205495D01*
X157969809Y-108205495D02*
X158065047Y-108253114D01*
X158065047Y-108253114D02*
X158303142Y-108253114D01*
X158303142Y-108253114D02*
X158398380Y-108205495D01*
X158398380Y-108205495D02*
X158446000Y-108157876D01*
X158446000Y-108157876D02*
X158493619Y-108062638D01*
X158493619Y-108062638D02*
X158493619Y-107776924D01*
X158493619Y-107776924D02*
X158446000Y-107681686D01*
X158446000Y-107681686D02*
X158398380Y-107634067D01*
X160957419Y-107249933D02*
X160481228Y-106916600D01*
X160957419Y-106678505D02*
X159957419Y-106678505D01*
X159957419Y-106678505D02*
X159957419Y-107059457D01*
X159957419Y-107059457D02*
X160005038Y-107154695D01*
X160005038Y-107154695D02*
X160052657Y-107202314D01*
X160052657Y-107202314D02*
X160147895Y-107249933D01*
X160147895Y-107249933D02*
X160290752Y-107249933D01*
X160290752Y-107249933D02*
X160385990Y-107202314D01*
X160385990Y-107202314D02*
X160433609Y-107154695D01*
X160433609Y-107154695D02*
X160481228Y-107059457D01*
X160481228Y-107059457D02*
X160481228Y-106678505D01*
X159957419Y-108154695D02*
X159957419Y-107678505D01*
X159957419Y-107678505D02*
X160433609Y-107630886D01*
X160433609Y-107630886D02*
X160385990Y-107678505D01*
X160385990Y-107678505D02*
X160338371Y-107773743D01*
X160338371Y-107773743D02*
X160338371Y-108011838D01*
X160338371Y-108011838D02*
X160385990Y-108107076D01*
X160385990Y-108107076D02*
X160433609Y-108154695D01*
X160433609Y-108154695D02*
X160528847Y-108202314D01*
X160528847Y-108202314D02*
X160766942Y-108202314D01*
X160766942Y-108202314D02*
X160862180Y-108154695D01*
X160862180Y-108154695D02*
X160909800Y-108107076D01*
X160909800Y-108107076D02*
X160957419Y-108011838D01*
X160957419Y-108011838D02*
X160957419Y-107773743D01*
X160957419Y-107773743D02*
X160909800Y-107678505D01*
X160909800Y-107678505D02*
X160862180Y-107630886D01*
X173024704Y-118961819D02*
X173024704Y-119771342D01*
X173024704Y-119771342D02*
X172977085Y-119866580D01*
X172977085Y-119866580D02*
X172929466Y-119914200D01*
X172929466Y-119914200D02*
X172834228Y-119961819D01*
X172834228Y-119961819D02*
X172643752Y-119961819D01*
X172643752Y-119961819D02*
X172548514Y-119914200D01*
X172548514Y-119914200D02*
X172500895Y-119866580D01*
X172500895Y-119866580D02*
X172453276Y-119771342D01*
X172453276Y-119771342D02*
X172453276Y-118961819D01*
X171548514Y-119295152D02*
X171548514Y-119961819D01*
X171786609Y-118914200D02*
X172024704Y-119628485D01*
X172024704Y-119628485D02*
X171405657Y-119628485D01*
X157249019Y-107275333D02*
X156772828Y-106942000D01*
X157249019Y-106703905D02*
X156249019Y-106703905D01*
X156249019Y-106703905D02*
X156249019Y-107084857D01*
X156249019Y-107084857D02*
X156296638Y-107180095D01*
X156296638Y-107180095D02*
X156344257Y-107227714D01*
X156344257Y-107227714D02*
X156439495Y-107275333D01*
X156439495Y-107275333D02*
X156582352Y-107275333D01*
X156582352Y-107275333D02*
X156677590Y-107227714D01*
X156677590Y-107227714D02*
X156725209Y-107180095D01*
X156725209Y-107180095D02*
X156772828Y-107084857D01*
X156772828Y-107084857D02*
X156772828Y-106703905D01*
X157249019Y-108227714D02*
X157249019Y-107656286D01*
X157249019Y-107942000D02*
X156249019Y-107942000D01*
X156249019Y-107942000D02*
X156391876Y-107846762D01*
X156391876Y-107846762D02*
X156487114Y-107751524D01*
X156487114Y-107751524D02*
X156534733Y-107656286D01*
X138778094Y-111694019D02*
X138778094Y-110694019D01*
X138778094Y-110694019D02*
X138539999Y-110694019D01*
X138539999Y-110694019D02*
X138397142Y-110741638D01*
X138397142Y-110741638D02*
X138301904Y-110836876D01*
X138301904Y-110836876D02*
X138254285Y-110932114D01*
X138254285Y-110932114D02*
X138206666Y-111122590D01*
X138206666Y-111122590D02*
X138206666Y-111265447D01*
X138206666Y-111265447D02*
X138254285Y-111455923D01*
X138254285Y-111455923D02*
X138301904Y-111551161D01*
X138301904Y-111551161D02*
X138397142Y-111646400D01*
X138397142Y-111646400D02*
X138539999Y-111694019D01*
X138539999Y-111694019D02*
X138778094Y-111694019D01*
X137254285Y-111694019D02*
X137825713Y-111694019D01*
X137539999Y-111694019D02*
X137539999Y-110694019D01*
X137539999Y-110694019D02*
X137635237Y-110836876D01*
X137635237Y-110836876D02*
X137730475Y-110932114D01*
X137730475Y-110932114D02*
X137825713Y-110979733D01*
X162176619Y-107249933D02*
X161700428Y-106916600D01*
X162176619Y-106678505D02*
X161176619Y-106678505D01*
X161176619Y-106678505D02*
X161176619Y-107059457D01*
X161176619Y-107059457D02*
X161224238Y-107154695D01*
X161224238Y-107154695D02*
X161271857Y-107202314D01*
X161271857Y-107202314D02*
X161367095Y-107249933D01*
X161367095Y-107249933D02*
X161509952Y-107249933D01*
X161509952Y-107249933D02*
X161605190Y-107202314D01*
X161605190Y-107202314D02*
X161652809Y-107154695D01*
X161652809Y-107154695D02*
X161700428Y-107059457D01*
X161700428Y-107059457D02*
X161700428Y-106678505D01*
X161176619Y-108107076D02*
X161176619Y-107916600D01*
X161176619Y-107916600D02*
X161224238Y-107821362D01*
X161224238Y-107821362D02*
X161271857Y-107773743D01*
X161271857Y-107773743D02*
X161414714Y-107678505D01*
X161414714Y-107678505D02*
X161605190Y-107630886D01*
X161605190Y-107630886D02*
X161986142Y-107630886D01*
X161986142Y-107630886D02*
X162081380Y-107678505D01*
X162081380Y-107678505D02*
X162129000Y-107726124D01*
X162129000Y-107726124D02*
X162176619Y-107821362D01*
X162176619Y-107821362D02*
X162176619Y-108011838D01*
X162176619Y-108011838D02*
X162129000Y-108107076D01*
X162129000Y-108107076D02*
X162081380Y-108154695D01*
X162081380Y-108154695D02*
X161986142Y-108202314D01*
X161986142Y-108202314D02*
X161748047Y-108202314D01*
X161748047Y-108202314D02*
X161652809Y-108154695D01*
X161652809Y-108154695D02*
X161605190Y-108107076D01*
X161605190Y-108107076D02*
X161557571Y-108011838D01*
X161557571Y-108011838D02*
X161557571Y-107821362D01*
X161557571Y-107821362D02*
X161605190Y-107726124D01*
X161605190Y-107726124D02*
X161652809Y-107678505D01*
X161652809Y-107678505D02*
X161748047Y-107630886D01*
X146608245Y-125915456D02*
X147180664Y-125814441D01*
X147012306Y-126319517D02*
X147719412Y-125612410D01*
X147719412Y-125612410D02*
X147450038Y-125343036D01*
X147450038Y-125343036D02*
X147349023Y-125309364D01*
X147349023Y-125309364D02*
X147281680Y-125309364D01*
X147281680Y-125309364D02*
X147180664Y-125343036D01*
X147180664Y-125343036D02*
X147079649Y-125444051D01*
X147079649Y-125444051D02*
X147045977Y-125545067D01*
X147045977Y-125545067D02*
X147045977Y-125612410D01*
X147045977Y-125612410D02*
X147079649Y-125713425D01*
X147079649Y-125713425D02*
X147349023Y-125982799D01*
X146608245Y-125107334D02*
X146709260Y-125141006D01*
X146709260Y-125141006D02*
X146776603Y-125141006D01*
X146776603Y-125141006D02*
X146877619Y-125107334D01*
X146877619Y-125107334D02*
X146911290Y-125073662D01*
X146911290Y-125073662D02*
X146944962Y-124972647D01*
X146944962Y-124972647D02*
X146944962Y-124905303D01*
X146944962Y-124905303D02*
X146911290Y-124804288D01*
X146911290Y-124804288D02*
X146776603Y-124669601D01*
X146776603Y-124669601D02*
X146675588Y-124635929D01*
X146675588Y-124635929D02*
X146608245Y-124635929D01*
X146608245Y-124635929D02*
X146507229Y-124669601D01*
X146507229Y-124669601D02*
X146473558Y-124703273D01*
X146473558Y-124703273D02*
X146439886Y-124804288D01*
X146439886Y-124804288D02*
X146439886Y-124871632D01*
X146439886Y-124871632D02*
X146473558Y-124972647D01*
X146473558Y-124972647D02*
X146608245Y-125107334D01*
X146608245Y-125107334D02*
X146641916Y-125208349D01*
X146641916Y-125208349D02*
X146641916Y-125275693D01*
X146641916Y-125275693D02*
X146608245Y-125376708D01*
X146608245Y-125376708D02*
X146473558Y-125511395D01*
X146473558Y-125511395D02*
X146372542Y-125545067D01*
X146372542Y-125545067D02*
X146305199Y-125545067D01*
X146305199Y-125545067D02*
X146204184Y-125511395D01*
X146204184Y-125511395D02*
X146069497Y-125376708D01*
X146069497Y-125376708D02*
X146035825Y-125275693D01*
X146035825Y-125275693D02*
X146035825Y-125208349D01*
X146035825Y-125208349D02*
X146069497Y-125107334D01*
X146069497Y-125107334D02*
X146204184Y-124972647D01*
X146204184Y-124972647D02*
X146305199Y-124938975D01*
X146305199Y-124938975D02*
X146372542Y-124938975D01*
X146372542Y-124938975D02*
X146473558Y-124972647D01*
X150806820Y-110998095D02*
X151616343Y-110998095D01*
X151616343Y-110998095D02*
X151711581Y-111045714D01*
X151711581Y-111045714D02*
X151759201Y-111093333D01*
X151759201Y-111093333D02*
X151806820Y-111188571D01*
X151806820Y-111188571D02*
X151806820Y-111379047D01*
X151806820Y-111379047D02*
X151759201Y-111474285D01*
X151759201Y-111474285D02*
X151711581Y-111521904D01*
X151711581Y-111521904D02*
X151616343Y-111569523D01*
X151616343Y-111569523D02*
X150806820Y-111569523D01*
X150902058Y-111998095D02*
X150854439Y-112045714D01*
X150854439Y-112045714D02*
X150806820Y-112140952D01*
X150806820Y-112140952D02*
X150806820Y-112379047D01*
X150806820Y-112379047D02*
X150854439Y-112474285D01*
X150854439Y-112474285D02*
X150902058Y-112521904D01*
X150902058Y-112521904D02*
X150997296Y-112569523D01*
X150997296Y-112569523D02*
X151092534Y-112569523D01*
X151092534Y-112569523D02*
X151235391Y-112521904D01*
X151235391Y-112521904D02*
X151806820Y-111950476D01*
X151806820Y-111950476D02*
X151806820Y-112569523D01*
X142710819Y-112374466D02*
X143425104Y-112374466D01*
X143425104Y-112374466D02*
X143567961Y-112326847D01*
X143567961Y-112326847D02*
X143663200Y-112231609D01*
X143663200Y-112231609D02*
X143710819Y-112088752D01*
X143710819Y-112088752D02*
X143710819Y-111993514D01*
X143710819Y-112850657D02*
X142710819Y-112850657D01*
X142710819Y-112850657D02*
X142710819Y-113231609D01*
X142710819Y-113231609D02*
X142758438Y-113326847D01*
X142758438Y-113326847D02*
X142806057Y-113374466D01*
X142806057Y-113374466D02*
X142901295Y-113422085D01*
X142901295Y-113422085D02*
X143044152Y-113422085D01*
X143044152Y-113422085D02*
X143139390Y-113374466D01*
X143139390Y-113374466D02*
X143187009Y-113326847D01*
X143187009Y-113326847D02*
X143234628Y-113231609D01*
X143234628Y-113231609D02*
X143234628Y-112850657D01*
X143710819Y-114374466D02*
X143710819Y-113803038D01*
X143710819Y-114088752D02*
X142710819Y-114088752D01*
X142710819Y-114088752D02*
X142853676Y-113993514D01*
X142853676Y-113993514D02*
X142948914Y-113898276D01*
X142948914Y-113898276D02*
X142996533Y-113803038D01*
X152450704Y-127140619D02*
X152450704Y-127950142D01*
X152450704Y-127950142D02*
X152403085Y-128045380D01*
X152403085Y-128045380D02*
X152355466Y-128093000D01*
X152355466Y-128093000D02*
X152260228Y-128140619D01*
X152260228Y-128140619D02*
X152069752Y-128140619D01*
X152069752Y-128140619D02*
X151974514Y-128093000D01*
X151974514Y-128093000D02*
X151926895Y-128045380D01*
X151926895Y-128045380D02*
X151879276Y-127950142D01*
X151879276Y-127950142D02*
X151879276Y-127140619D01*
X150926895Y-127140619D02*
X151403085Y-127140619D01*
X151403085Y-127140619D02*
X151450704Y-127616809D01*
X151450704Y-127616809D02*
X151403085Y-127569190D01*
X151403085Y-127569190D02*
X151307847Y-127521571D01*
X151307847Y-127521571D02*
X151069752Y-127521571D01*
X151069752Y-127521571D02*
X150974514Y-127569190D01*
X150974514Y-127569190D02*
X150926895Y-127616809D01*
X150926895Y-127616809D02*
X150879276Y-127712047D01*
X150879276Y-127712047D02*
X150879276Y-127950142D01*
X150879276Y-127950142D02*
X150926895Y-128045380D01*
X150926895Y-128045380D02*
X150974514Y-128093000D01*
X150974514Y-128093000D02*
X151069752Y-128140619D01*
X151069752Y-128140619D02*
X151307847Y-128140619D01*
X151307847Y-128140619D02*
X151403085Y-128093000D01*
X151403085Y-128093000D02*
X151450704Y-128045380D01*
X167790019Y-113955533D02*
X167313828Y-113622200D01*
X167790019Y-113384105D02*
X166790019Y-113384105D01*
X166790019Y-113384105D02*
X166790019Y-113765057D01*
X166790019Y-113765057D02*
X166837638Y-113860295D01*
X166837638Y-113860295D02*
X166885257Y-113907914D01*
X166885257Y-113907914D02*
X166980495Y-113955533D01*
X166980495Y-113955533D02*
X167123352Y-113955533D01*
X167123352Y-113955533D02*
X167218590Y-113907914D01*
X167218590Y-113907914D02*
X167266209Y-113860295D01*
X167266209Y-113860295D02*
X167313828Y-113765057D01*
X167313828Y-113765057D02*
X167313828Y-113384105D01*
X167790019Y-114431724D02*
X167790019Y-114622200D01*
X167790019Y-114622200D02*
X167742400Y-114717438D01*
X167742400Y-114717438D02*
X167694780Y-114765057D01*
X167694780Y-114765057D02*
X167551923Y-114860295D01*
X167551923Y-114860295D02*
X167361447Y-114907914D01*
X167361447Y-114907914D02*
X166980495Y-114907914D01*
X166980495Y-114907914D02*
X166885257Y-114860295D01*
X166885257Y-114860295D02*
X166837638Y-114812676D01*
X166837638Y-114812676D02*
X166790019Y-114717438D01*
X166790019Y-114717438D02*
X166790019Y-114526962D01*
X166790019Y-114526962D02*
X166837638Y-114431724D01*
X166837638Y-114431724D02*
X166885257Y-114384105D01*
X166885257Y-114384105D02*
X166980495Y-114336486D01*
X166980495Y-114336486D02*
X167218590Y-114336486D01*
X167218590Y-114336486D02*
X167313828Y-114384105D01*
X167313828Y-114384105D02*
X167361447Y-114431724D01*
X167361447Y-114431724D02*
X167409066Y-114526962D01*
X167409066Y-114526962D02*
X167409066Y-114717438D01*
X167409066Y-114717438D02*
X167361447Y-114812676D01*
X167361447Y-114812676D02*
X167313828Y-114860295D01*
X167313828Y-114860295D02*
X167218590Y-114907914D01*
X156569580Y-124420333D02*
X156617200Y-124372714D01*
X156617200Y-124372714D02*
X156664819Y-124229857D01*
X156664819Y-124229857D02*
X156664819Y-124134619D01*
X156664819Y-124134619D02*
X156617200Y-123991762D01*
X156617200Y-123991762D02*
X156521961Y-123896524D01*
X156521961Y-123896524D02*
X156426723Y-123848905D01*
X156426723Y-123848905D02*
X156236247Y-123801286D01*
X156236247Y-123801286D02*
X156093390Y-123801286D01*
X156093390Y-123801286D02*
X155902914Y-123848905D01*
X155902914Y-123848905D02*
X155807676Y-123896524D01*
X155807676Y-123896524D02*
X155712438Y-123991762D01*
X155712438Y-123991762D02*
X155664819Y-124134619D01*
X155664819Y-124134619D02*
X155664819Y-124229857D01*
X155664819Y-124229857D02*
X155712438Y-124372714D01*
X155712438Y-124372714D02*
X155760057Y-124420333D01*
X156664819Y-124896524D02*
X156664819Y-125087000D01*
X156664819Y-125087000D02*
X156617200Y-125182238D01*
X156617200Y-125182238D02*
X156569580Y-125229857D01*
X156569580Y-125229857D02*
X156426723Y-125325095D01*
X156426723Y-125325095D02*
X156236247Y-125372714D01*
X156236247Y-125372714D02*
X155855295Y-125372714D01*
X155855295Y-125372714D02*
X155760057Y-125325095D01*
X155760057Y-125325095D02*
X155712438Y-125277476D01*
X155712438Y-125277476D02*
X155664819Y-125182238D01*
X155664819Y-125182238D02*
X155664819Y-124991762D01*
X155664819Y-124991762D02*
X155712438Y-124896524D01*
X155712438Y-124896524D02*
X155760057Y-124848905D01*
X155760057Y-124848905D02*
X155855295Y-124801286D01*
X155855295Y-124801286D02*
X156093390Y-124801286D01*
X156093390Y-124801286D02*
X156188628Y-124848905D01*
X156188628Y-124848905D02*
X156236247Y-124896524D01*
X156236247Y-124896524D02*
X156283866Y-124991762D01*
X156283866Y-124991762D02*
X156283866Y-125182238D01*
X156283866Y-125182238D02*
X156236247Y-125277476D01*
X156236247Y-125277476D02*
X156188628Y-125325095D01*
X156188628Y-125325095D02*
X156093390Y-125372714D01*
X159763619Y-107275333D02*
X159287428Y-106942000D01*
X159763619Y-106703905D02*
X158763619Y-106703905D01*
X158763619Y-106703905D02*
X158763619Y-107084857D01*
X158763619Y-107084857D02*
X158811238Y-107180095D01*
X158811238Y-107180095D02*
X158858857Y-107227714D01*
X158858857Y-107227714D02*
X158954095Y-107275333D01*
X158954095Y-107275333D02*
X159096952Y-107275333D01*
X159096952Y-107275333D02*
X159192190Y-107227714D01*
X159192190Y-107227714D02*
X159239809Y-107180095D01*
X159239809Y-107180095D02*
X159287428Y-107084857D01*
X159287428Y-107084857D02*
X159287428Y-106703905D01*
X159096952Y-108132476D02*
X159763619Y-108132476D01*
X158716000Y-107894381D02*
X159430285Y-107656286D01*
X159430285Y-107656286D02*
X159430285Y-108275333D01*
X148978857Y-109979619D02*
X149312190Y-109503428D01*
X149550285Y-109979619D02*
X149550285Y-108979619D01*
X149550285Y-108979619D02*
X149169333Y-108979619D01*
X149169333Y-108979619D02*
X149074095Y-109027238D01*
X149074095Y-109027238D02*
X149026476Y-109074857D01*
X149026476Y-109074857D02*
X148978857Y-109170095D01*
X148978857Y-109170095D02*
X148978857Y-109312952D01*
X148978857Y-109312952D02*
X149026476Y-109408190D01*
X149026476Y-109408190D02*
X149074095Y-109455809D01*
X149074095Y-109455809D02*
X149169333Y-109503428D01*
X149169333Y-109503428D02*
X149550285Y-109503428D01*
X148026476Y-109979619D02*
X148597904Y-109979619D01*
X148312190Y-109979619D02*
X148312190Y-108979619D01*
X148312190Y-108979619D02*
X148407428Y-109122476D01*
X148407428Y-109122476D02*
X148502666Y-109217714D01*
X148502666Y-109217714D02*
X148597904Y-109265333D01*
X147074095Y-109979619D02*
X147645523Y-109979619D01*
X147359809Y-109979619D02*
X147359809Y-108979619D01*
X147359809Y-108979619D02*
X147455047Y-109122476D01*
X147455047Y-109122476D02*
X147550285Y-109217714D01*
X147550285Y-109217714D02*
X147645523Y-109265333D01*
X146184857Y-107084019D02*
X146518190Y-106607828D01*
X146756285Y-107084019D02*
X146756285Y-106084019D01*
X146756285Y-106084019D02*
X146375333Y-106084019D01*
X146375333Y-106084019D02*
X146280095Y-106131638D01*
X146280095Y-106131638D02*
X146232476Y-106179257D01*
X146232476Y-106179257D02*
X146184857Y-106274495D01*
X146184857Y-106274495D02*
X146184857Y-106417352D01*
X146184857Y-106417352D02*
X146232476Y-106512590D01*
X146232476Y-106512590D02*
X146280095Y-106560209D01*
X146280095Y-106560209D02*
X146375333Y-106607828D01*
X146375333Y-106607828D02*
X146756285Y-106607828D01*
X145232476Y-107084019D02*
X145803904Y-107084019D01*
X145518190Y-107084019D02*
X145518190Y-106084019D01*
X145518190Y-106084019D02*
X145613428Y-106226876D01*
X145613428Y-106226876D02*
X145708666Y-106322114D01*
X145708666Y-106322114D02*
X145803904Y-106369733D01*
X144613428Y-106084019D02*
X144518190Y-106084019D01*
X144518190Y-106084019D02*
X144422952Y-106131638D01*
X144422952Y-106131638D02*
X144375333Y-106179257D01*
X144375333Y-106179257D02*
X144327714Y-106274495D01*
X144327714Y-106274495D02*
X144280095Y-106464971D01*
X144280095Y-106464971D02*
X144280095Y-106703066D01*
X144280095Y-106703066D02*
X144327714Y-106893542D01*
X144327714Y-106893542D02*
X144375333Y-106988780D01*
X144375333Y-106988780D02*
X144422952Y-107036400D01*
X144422952Y-107036400D02*
X144518190Y-107084019D01*
X144518190Y-107084019D02*
X144613428Y-107084019D01*
X144613428Y-107084019D02*
X144708666Y-107036400D01*
X144708666Y-107036400D02*
X144756285Y-106988780D01*
X144756285Y-106988780D02*
X144803904Y-106893542D01*
X144803904Y-106893542D02*
X144851523Y-106703066D01*
X144851523Y-106703066D02*
X144851523Y-106464971D01*
X144851523Y-106464971D02*
X144803904Y-106274495D01*
X144803904Y-106274495D02*
X144756285Y-106179257D01*
X144756285Y-106179257D02*
X144708666Y-106131638D01*
X144708666Y-106131638D02*
X144613428Y-106084019D01*
X145311019Y-101661933D02*
X144834828Y-101328600D01*
X145311019Y-101090505D02*
X144311019Y-101090505D01*
X144311019Y-101090505D02*
X144311019Y-101471457D01*
X144311019Y-101471457D02*
X144358638Y-101566695D01*
X144358638Y-101566695D02*
X144406257Y-101614314D01*
X144406257Y-101614314D02*
X144501495Y-101661933D01*
X144501495Y-101661933D02*
X144644352Y-101661933D01*
X144644352Y-101661933D02*
X144739590Y-101614314D01*
X144739590Y-101614314D02*
X144787209Y-101566695D01*
X144787209Y-101566695D02*
X144834828Y-101471457D01*
X144834828Y-101471457D02*
X144834828Y-101090505D01*
X144406257Y-102042886D02*
X144358638Y-102090505D01*
X144358638Y-102090505D02*
X144311019Y-102185743D01*
X144311019Y-102185743D02*
X144311019Y-102423838D01*
X144311019Y-102423838D02*
X144358638Y-102519076D01*
X144358638Y-102519076D02*
X144406257Y-102566695D01*
X144406257Y-102566695D02*
X144501495Y-102614314D01*
X144501495Y-102614314D02*
X144596733Y-102614314D01*
X144596733Y-102614314D02*
X144739590Y-102566695D01*
X144739590Y-102566695D02*
X145311019Y-101995267D01*
X145311019Y-101995267D02*
X145311019Y-102614314D01*
X158219733Y-104534619D02*
X158219733Y-105248904D01*
X158219733Y-105248904D02*
X158267352Y-105391761D01*
X158267352Y-105391761D02*
X158362590Y-105487000D01*
X158362590Y-105487000D02*
X158505447Y-105534619D01*
X158505447Y-105534619D02*
X158600685Y-105534619D01*
X157219733Y-105534619D02*
X157791161Y-105534619D01*
X157505447Y-105534619D02*
X157505447Y-104534619D01*
X157505447Y-104534619D02*
X157600685Y-104677476D01*
X157600685Y-104677476D02*
X157695923Y-104772714D01*
X157695923Y-104772714D02*
X157791161Y-104820333D01*
D11*
%TO.C,C17*%
X175524400Y-118085780D02*
X175524400Y-117804620D01*
X176544400Y-118085780D02*
X176544400Y-117804620D01*
%TO.C,C22*%
X170903019Y-114450400D02*
X171184181Y-114450400D01*
X170903019Y-115470400D02*
X171184181Y-115470400D01*
%TO.C,C20*%
X160145000Y-116243980D02*
X160145000Y-115962820D01*
X161165000Y-116243980D02*
X161165000Y-115962820D01*
%TO.C,C18*%
X184455381Y-116647800D02*
X184174219Y-116647800D01*
X184455381Y-117667800D02*
X184174219Y-117667800D01*
%TO.C,C23*%
X144548000Y-119886580D02*
X144548000Y-119605420D01*
X145568000Y-119886580D02*
X145568000Y-119605420D01*
%TO.C,C5*%
X142948000Y-116186580D02*
X142948000Y-115905420D01*
X143968000Y-116186580D02*
X143968000Y-115905420D01*
%TO.C,C11*%
X148891970Y-121912781D02*
X149090781Y-121713970D01*
X149613219Y-122634030D02*
X149812030Y-122435219D01*
%TO.C,C19*%
X158484180Y-116355400D02*
X158203020Y-116355400D01*
X158484180Y-117375400D02*
X158203020Y-117375400D01*
%TO.C,C6*%
X144548000Y-116186580D02*
X144548000Y-115905420D01*
X145568000Y-116186580D02*
X145568000Y-115905420D01*
%TO.C,C21*%
X158203020Y-114856800D02*
X158484180Y-114856800D01*
X158203020Y-115876800D02*
X158484180Y-115876800D01*
%TO.C,U3*%
X147748000Y-115536000D02*
X148223000Y-115536000D01*
X147748000Y-116011000D02*
X147748000Y-115536000D01*
X147748000Y-119281000D02*
X147748000Y-119756000D01*
X147748000Y-119756000D02*
X148223000Y-119756000D01*
X151968000Y-115536000D02*
X151493000Y-115536000D01*
X151968000Y-116011000D02*
X151968000Y-115536000D01*
X151968000Y-119281000D02*
X151968000Y-119756000D01*
%TO.C,R7*%
X145304742Y-110475500D02*
X145779258Y-110475500D01*
X145304742Y-111520500D02*
X145779258Y-111520500D01*
%TO.C,L6*%
X155460000Y-116308779D02*
X155460000Y-115983221D01*
X156480000Y-116308779D02*
X156480000Y-115983221D01*
%TO.C,L5*%
X178432379Y-116673200D02*
X178106821Y-116673200D01*
X178432379Y-117693200D02*
X178106821Y-117693200D01*
%TO.C,L7*%
X142598000Y-119779622D02*
X142598000Y-118980378D01*
X143718000Y-119779622D02*
X143718000Y-118980378D01*
%TO.C,L1*%
X155954000Y-119979221D02*
X155954000Y-120304779D01*
X156974000Y-119979221D02*
X156974000Y-120304779D01*
%TO.C,L4*%
X167726580Y-118895400D02*
X167401020Y-118895400D01*
X167726580Y-119915400D02*
X167401020Y-119915400D01*
%TO.C,L3*%
X160360579Y-120394000D02*
X160035021Y-120394000D01*
X160360579Y-121414000D02*
X160035021Y-121414000D01*
%TO.C,C10*%
X160338380Y-118895400D02*
X160057220Y-118895400D01*
X160338380Y-119915400D02*
X160057220Y-119915400D01*
%TO.C,C15*%
X169263600Y-120001420D02*
X169263600Y-120282580D01*
X170283600Y-120001420D02*
X170283600Y-120282580D01*
%TO.C,C16*%
X173939780Y-116673200D02*
X173658620Y-116673200D01*
X173939780Y-117693200D02*
X173658620Y-117693200D01*
%TO.C,C14*%
X161897600Y-120026820D02*
X161897600Y-120307980D01*
X162917600Y-120026820D02*
X162917600Y-120307980D01*
%TO.C,C13*%
X157452600Y-120001420D02*
X157452600Y-120282580D01*
X158472600Y-120001420D02*
X158472600Y-120282580D01*
%TO.C,C12*%
X164757980Y-118895400D02*
X164476820Y-118895400D01*
X164757980Y-119915400D02*
X164476820Y-119915400D01*
%TO.C,C8*%
X152906000Y-121398419D02*
X152906000Y-121679581D01*
X153926000Y-121398419D02*
X153926000Y-121679581D01*
%TO.C,C7*%
X154430000Y-121398419D02*
X154430000Y-121679581D01*
X155450000Y-121398419D02*
X155450000Y-121679581D01*
%TO.C,L2*%
X154391579Y-118743000D02*
X154066021Y-118743000D01*
X154391579Y-119763000D02*
X154066021Y-119763000D01*
%TO.C,C4*%
X140578000Y-114674581D02*
X140578000Y-114393419D01*
X141598000Y-114674581D02*
X141598000Y-114393419D01*
%TO.C,U1*%
X138278000Y-121634000D02*
X138278001Y-119184000D01*
X141498000Y-119834000D02*
X141498000Y-121634000D01*
%TO.C,C2*%
X139888753Y-123285000D02*
X139366247Y-123285000D01*
X139888753Y-124755000D02*
X139366247Y-124755000D01*
%TO.C,C1*%
X139626747Y-116899000D02*
X140149253Y-116899000D01*
X139626747Y-118369000D02*
X140149253Y-118369000D01*
%TO.C,C3*%
X138745753Y-114649000D02*
X138223247Y-114649000D01*
X138745753Y-116119000D02*
X138223247Y-116119000D01*
%TO.C,C24*%
X151382000Y-121933581D02*
X151382000Y-121652419D01*
X152402000Y-121933581D02*
X152402000Y-121652419D01*
D10*
%TO.C,J2*%
X177817600Y-116141800D02*
X177817600Y-118173800D01*
X180301600Y-120632400D02*
X182333600Y-120632400D01*
X182333600Y-113657800D02*
X180301600Y-113657800D01*
X184817600Y-118173800D02*
X184817600Y-116141800D01*
D11*
%TO.C,R3*%
X150226500Y-107679258D02*
X150226500Y-107204742D01*
X151271500Y-107679258D02*
X151271500Y-107204742D01*
%TO.C,R5*%
X153274500Y-107679258D02*
X153274500Y-107204742D01*
X154319500Y-107679258D02*
X154319500Y-107204742D01*
%TO.C,U4*%
X169962600Y-116010200D02*
X171362600Y-116010200D01*
X171362600Y-118330200D02*
X169462600Y-118330200D01*
%TO.C,R1*%
X148702500Y-107679258D02*
X148702500Y-107204742D01*
X149747500Y-107679258D02*
X149747500Y-107204742D01*
%TO.C,D1*%
X137340000Y-111939200D02*
X139190000Y-111939200D01*
X137340000Y-113139200D02*
X139190000Y-113139200D01*
X139190000Y-111939200D02*
X139190000Y-113139200D01*
%TO.C,R6*%
X154798500Y-107679258D02*
X154798500Y-107204742D01*
X155843500Y-107679258D02*
X155843500Y-107204742D01*
%TO.C,R8*%
X147417770Y-124534697D02*
X147753303Y-124870230D01*
X148156697Y-123795770D02*
X148492230Y-124131303D01*
%TO.C,U2*%
X148192000Y-111060000D02*
X148192000Y-112460000D01*
X150512000Y-112960000D02*
X150512000Y-111060000D01*
%TO.C,JP1*%
X144142000Y-113457000D02*
X144142000Y-112857000D01*
X144842000Y-112157000D02*
X146242000Y-112157000D01*
X146242000Y-114157000D02*
X144842000Y-114157000D01*
X146942000Y-112857000D02*
X146942000Y-113457000D01*
X144142000Y-112857000D02*
G75*
G02*
X144842000Y-112157000I700000J0D01*
G01*
X144842000Y-114157000D02*
G75*
G02*
X144142000Y-113457000I0J700000D01*
G01*
X146242000Y-112157000D02*
G75*
G02*
X146942000Y-112857000I1J-699999D01*
G01*
X146942000Y-113457000D02*
G75*
G02*
X146242000Y-114157000I-699999J-1D01*
G01*
%TO.C,U5*%
X149788800Y-126720800D02*
X153588800Y-126720800D01*
X153588800Y-126720800D02*
X153588800Y-123570800D01*
%TO.C,R9*%
X168235100Y-114308658D02*
X168235100Y-113834142D01*
X169280100Y-114308658D02*
X169280100Y-113834142D01*
%TO.C,C9*%
X154176000Y-124727581D02*
X154176000Y-124446419D01*
X155196000Y-124727581D02*
X155196000Y-124446419D01*
%TO.C,R4*%
X151750500Y-107679258D02*
X151750500Y-107204742D01*
X152795500Y-107679258D02*
X152795500Y-107204742D01*
%TO.C,R11*%
X145779258Y-108951500D02*
X145304742Y-108951500D01*
X145779258Y-109996500D02*
X145304742Y-109996500D01*
%TO.C,R10*%
X145779258Y-107427500D02*
X145304742Y-107427500D01*
X145779258Y-108472500D02*
X145304742Y-108472500D01*
%TO.C,R2*%
X144257500Y-104156742D02*
X144257500Y-104631258D01*
X145302500Y-104156742D02*
X145302500Y-104631258D01*
%TO.C,J1*%
X146259200Y-102804000D02*
X146259200Y-104254000D01*
X146259200Y-104254000D02*
X148059200Y-104254000D01*
X147529200Y-99984000D02*
X157209200Y-99984000D01*
X148059200Y-104254000D02*
X148059200Y-105244000D01*
X158479200Y-102804000D02*
X158479200Y-104254000D01*
X158479200Y-104254000D02*
X156679200Y-104254000D01*
%TD*%
M02*
