%TF.GenerationSoftware,KiCad,Pcbnew,8.0.4+1*%
%TF.CreationDate,2024-10-16T20:03:32+00:00*%
%TF.ProjectId,TFLORA01,54464c4f-5241-4303-912e-6b696361645f,rev?*%
%TF.SameCoordinates,Original*%
%TF.FileFunction,Paste,Bot*%
%TF.FilePolarity,Positive*%
%FSLAX46Y46*%
G04 Gerber Fmt 4.6, Leading zero omitted, Abs format (unit mm)*
G04 Created by KiCad (PCBNEW 8.0.4+1) date 2024-10-16 20:03:32*
%MOMM*%
%LPD*%
G01*
G04 APERTURE LIST*
G04 Aperture macros list*
%AMRoundRect*
0 Rectangle with rounded corners*
0 $1 Rounding radius*
0 $2 $3 $4 $5 $6 $7 $8 $9 X,Y pos of 4 corners*
0 Add a 4 corners polygon primitive as box body*
4,1,4,$2,$3,$4,$5,$6,$7,$8,$9,$2,$3,0*
0 Add four circle primitives for the rounded corners*
1,1,$1+$1,$2,$3*
1,1,$1+$1,$4,$5*
1,1,$1+$1,$6,$7*
1,1,$1+$1,$8,$9*
0 Add four rect primitives between the rounded corners*
20,1,$1+$1,$2,$3,$4,$5,0*
20,1,$1+$1,$4,$5,$6,$7,0*
20,1,$1+$1,$6,$7,$8,$9,0*
20,1,$1+$1,$8,$9,$2,$3,0*%
%AMFreePoly0*
4,1,7,1.675000,0.350000,8.125000,0.350000,8.125000,-0.750000,-1.675000,-0.750000,-1.675000,0.750000,1.675000,0.750000,1.675000,0.350000,1.675000,0.350000,$1*%
%AMFreePoly1*
4,1,8,1.675000,-0.750000,-1.675000,-0.750000,-8.125000,-0.750000,-8.125000,0.350000,-1.675000,0.350000,-1.675000,0.750000,1.675000,0.750000,1.675000,-0.750000,1.675000,-0.750000,$1*%
G04 Aperture macros list end*
%ADD10RoundRect,0.225000X0.250000X-0.225000X0.250000X0.225000X-0.250000X0.225000X-0.250000X-0.225000X0*%
%ADD11RoundRect,0.225000X0.225000X0.250000X-0.225000X0.250000X-0.225000X-0.250000X0.225000X-0.250000X0*%
%ADD12RoundRect,0.225000X-0.225000X-0.250000X0.225000X-0.250000X0.225000X0.250000X-0.225000X0.250000X0*%
%ADD13RoundRect,0.250000X0.315000X-0.315000X0.315000X0.315000X-0.315000X0.315000X-0.315000X-0.315000X0*%
%ADD14RoundRect,0.062500X0.062500X-0.350000X0.062500X0.350000X-0.062500X0.350000X-0.062500X-0.350000X0*%
%ADD15RoundRect,0.062500X0.350000X-0.062500X0.350000X0.062500X-0.350000X0.062500X-0.350000X-0.062500X0*%
%ADD16RoundRect,0.200000X-0.200000X-0.275000X0.200000X-0.275000X0.200000X0.275000X-0.200000X0.275000X0*%
%ADD17RoundRect,0.147500X-0.172500X0.147500X-0.172500X-0.147500X0.172500X-0.147500X0.172500X0.147500X0*%
%ADD18RoundRect,0.147500X-0.147500X-0.172500X0.147500X-0.172500X0.147500X0.172500X-0.147500X0.172500X0*%
%ADD19RoundRect,0.218750X0.381250X-0.218750X0.381250X0.218750X-0.381250X0.218750X-0.381250X-0.218750X0*%
%ADD20RoundRect,0.147500X0.172500X-0.147500X0.172500X0.147500X-0.172500X0.147500X-0.172500X-0.147500X0*%
%ADD21RoundRect,0.225000X-0.250000X0.225000X-0.250000X-0.225000X0.250000X-0.225000X0.250000X0.225000X0*%
%ADD22R,1.060000X0.650000*%
%ADD23RoundRect,0.250000X0.475000X-0.250000X0.475000X0.250000X-0.475000X0.250000X-0.475000X-0.250000X0*%
%ADD24RoundRect,0.250000X-0.475000X0.250000X-0.475000X-0.250000X0.475000X-0.250000X0.475000X0.250000X0*%
%ADD25R,3.249000X1.450000*%
%ADD26FreePoly0,0.000000*%
%ADD27FreePoly1,180.000000*%
%ADD28RoundRect,0.166667X-0.458333X-0.583333X0.458333X-0.583333X0.458333X0.583333X-0.458333X0.583333X0*%
%ADD29RoundRect,0.166667X0.458333X0.583333X-0.458333X0.583333X-0.458333X-0.583333X0.458333X-0.583333X0*%
%ADD30RoundRect,0.200000X0.200000X0.275000X-0.200000X0.275000X-0.200000X-0.275000X0.200000X-0.275000X0*%
%ADD31R,0.400000X0.650000*%
%ADD32R,0.700000X0.600000*%
%ADD33RoundRect,0.150000X0.700000X-0.150000X0.700000X0.150000X-0.700000X0.150000X-0.700000X-0.150000X0*%
%ADD34RoundRect,0.250000X1.100000X-0.250000X1.100000X0.250000X-1.100000X0.250000X-1.100000X-0.250000X0*%
G04 APERTURE END LIST*
D10*
%TO.C,C17*%
X168949600Y-114705000D03*
X168949600Y-113155000D03*
%TD*%
D11*
%TO.C,C22*%
X161571000Y-112141000D03*
X160021000Y-112141000D03*
%TD*%
D10*
%TO.C,C20*%
X161558000Y-116921000D03*
X161558000Y-115371000D03*
%TD*%
%TO.C,C18*%
X172720000Y-114567000D03*
X172720000Y-113017000D03*
%TD*%
%TO.C,C23*%
X145058000Y-120521000D03*
X145058000Y-118971000D03*
%TD*%
%TO.C,C5*%
X143458000Y-116821000D03*
X143458000Y-115271000D03*
%TD*%
%TO.C,C11*%
X152458000Y-125235000D03*
X152458000Y-123685000D03*
%TD*%
D11*
%TO.C,C19*%
X159285000Y-117046000D03*
X157735000Y-117046000D03*
%TD*%
D10*
%TO.C,C6*%
X145058000Y-116821000D03*
X145058000Y-115271000D03*
%TD*%
D12*
%TO.C,C21*%
X157735000Y-115316000D03*
X159285000Y-115316000D03*
%TD*%
D13*
%TO.C,U3*%
X149208000Y-118296000D03*
X150508000Y-118296000D03*
X149208000Y-116996000D03*
X150508000Y-116996000D03*
D14*
X151108000Y-119583500D03*
X150608000Y-119583500D03*
X150108000Y-119583500D03*
X149608000Y-119583500D03*
X149108000Y-119583500D03*
X148608000Y-119583500D03*
D15*
X147920500Y-118896000D03*
X147920500Y-118396000D03*
X147920500Y-117896000D03*
X147920500Y-117396000D03*
X147920500Y-116896000D03*
X147920500Y-116396000D03*
D14*
X148608000Y-115708500D03*
X149108000Y-115708500D03*
X149608000Y-115708500D03*
X150108000Y-115708500D03*
X150608000Y-115708500D03*
X151108000Y-115708500D03*
D15*
X151795500Y-116396000D03*
X151795500Y-116896000D03*
X151795500Y-117396000D03*
X151795500Y-117896000D03*
X151795500Y-118396000D03*
X151795500Y-118896000D03*
%TD*%
D16*
%TO.C,R7*%
X166408500Y-110236000D03*
X168058500Y-110236000D03*
%TD*%
D17*
%TO.C,L6*%
X155970000Y-115661000D03*
X155970000Y-116631000D03*
%TD*%
D18*
%TO.C,L5*%
X170464600Y-113030000D03*
X171434600Y-113030000D03*
%TD*%
D19*
%TO.C,L7*%
X143158000Y-120442500D03*
X143158000Y-118317500D03*
%TD*%
D20*
%TO.C,L1*%
X156258000Y-120331000D03*
X156258000Y-119361000D03*
%TD*%
%TO.C,L4*%
X166217600Y-119865000D03*
X166217600Y-118895000D03*
%TD*%
D18*
%TO.C,L3*%
X159773000Y-121246000D03*
X160743000Y-121246000D03*
%TD*%
D11*
%TO.C,C10*%
X161033000Y-119546000D03*
X159483000Y-119546000D03*
%TD*%
D21*
%TO.C,C15*%
X168148000Y-119113000D03*
X168148000Y-120663000D03*
%TD*%
D11*
%TO.C,C16*%
X166879600Y-113030000D03*
X165329600Y-113030000D03*
%TD*%
D21*
%TO.C,C14*%
X162758000Y-121385000D03*
X162758000Y-122935000D03*
%TD*%
%TO.C,C13*%
X157758000Y-119671000D03*
X157758000Y-121221000D03*
%TD*%
D11*
%TO.C,C12*%
X164514800Y-119532400D03*
X162964800Y-119532400D03*
%TD*%
%TO.C,C8*%
X155908000Y-121746000D03*
X154358000Y-121746000D03*
%TD*%
%TO.C,C7*%
X155908000Y-123446000D03*
X154358000Y-123446000D03*
%TD*%
D18*
%TO.C,L2*%
X154073000Y-119346000D03*
X155043000Y-119346000D03*
%TD*%
D12*
%TO.C,C4*%
X145363000Y-111252000D03*
X146913000Y-111252000D03*
%TD*%
D22*
%TO.C,U1*%
X141038000Y-109102000D03*
X141038000Y-110052000D03*
X141038000Y-111002000D03*
X138838000Y-111002000D03*
X138838000Y-109102000D03*
%TD*%
D23*
%TO.C,C2*%
X136652000Y-110741500D03*
X136652000Y-108841500D03*
%TD*%
D24*
%TO.C,C1*%
X143038000Y-109102000D03*
X143038000Y-111002000D03*
%TD*%
D23*
%TO.C,C3*%
X145288000Y-109598500D03*
X145288000Y-107698500D03*
%TD*%
D25*
%TO.C,J2*%
X202466144Y-115438200D03*
D26*
X202593144Y-118313200D03*
D27*
X202593144Y-112563200D03*
%TD*%
D28*
%TO.C,D2*%
X206498144Y-101974200D03*
D29*
X210098144Y-101974200D03*
%TD*%
D30*
%TO.C,R3*%
X214203144Y-106474200D03*
X212553144Y-106474200D03*
%TD*%
%TO.C,R5*%
X214203144Y-111494200D03*
X212553144Y-111494200D03*
%TD*%
D28*
%TO.C,D3*%
X206498144Y-105524200D03*
D29*
X210098144Y-105524200D03*
%TD*%
D31*
%TO.C,U4*%
X165750000Y-116836000D03*
X165100000Y-116836000D03*
X164450000Y-116836000D03*
X164450000Y-114936000D03*
X165100000Y-114936000D03*
X165750000Y-114936000D03*
%TD*%
D30*
%TO.C,R1*%
X214203144Y-101454200D03*
X212553144Y-101454200D03*
%TD*%
D32*
%TO.C,D1*%
X148132800Y-108904000D03*
X148132800Y-107504000D03*
%TD*%
D30*
%TO.C,R6*%
X214203144Y-114004200D03*
X212553144Y-114004200D03*
%TD*%
%TO.C,R9*%
X163994500Y-110236000D03*
X162344500Y-110236000D03*
%TD*%
%TO.C,R4*%
X214203144Y-108984200D03*
X212553144Y-108984200D03*
%TD*%
D28*
%TO.C,D4*%
X206498144Y-109074200D03*
D29*
X210098144Y-109074200D03*
%TD*%
D30*
%TO.C,R2*%
X214203144Y-103964200D03*
X212553144Y-103964200D03*
%TD*%
D33*
%TO.C,J1*%
X141397600Y-120183600D03*
X141397600Y-118933600D03*
X141397600Y-117683600D03*
X141397600Y-116433600D03*
X141397600Y-115183600D03*
X141397600Y-113933600D03*
X141397600Y-112683600D03*
D34*
X138197600Y-122033600D03*
X138197600Y-110833600D03*
%TD*%
M02*
